<?xml version="1.0" encoding="UTF-8"?>
<svg xmlns="http://www.w3.org/2000/svg" id="katman_2" data-name="katman 2" viewBox="0 0 276.05 159.04">
  <defs>
    <style>
      .cls-1, .cls-2 {
        stroke-width: 0px;
      }

      .cls-2 {
        fill: none;
      }
    </style>
  </defs>
  <g id="katman_1" data-name="katman 1">
    <rect class="cls-2" y="2.07" width="276.05" height="156.97"></rect>
    <g>
      <path class="cls-1" d="m176.31,108.13c4.17,4.85,4.57,8.99,1.23,12.46-3.37,3.5-7.51,3.2-12.55-.91-2.59,1.67-5.21,3.28-7.75,5.01-2.28,1.55-3.35,3.8-3.35,6.55,0,4.64,0,9.28,0,13.91-.01,5.1-3.19,8.26-8.3,8.27-8.96.01-17.91,0-26.87,0-5.19,0-8.32-3.18-8.33-8.4,0-4-.12-8,.03-11.99.16-4.23-1.64-6.96-5.38-8.93-14.81-7.78-24.41-19.84-28.7-35.99-8.23-31.02,12.25-63.4,43.71-69.28,29.5-5.51,57.74,12.16,65.25,41.14,4.32,16.66,1.48,32.32-8.06,46.7-.27.4-.54.79-.81,1.19-.03.04-.04.1-.1.27Zm-14.91,7.77c-3.74-3.72-7.29-7.25-10.84-10.78-2.83-2.82-2.82-2.79-6.46-1.18-.96.42-1.39.93-1.37,2.02.07,2.87.02,5.74.02,8.69-4.71.52-9.03.99-13.48,1.48-.66-2.36-1.5-4.57-1.87-6.86-.39-2.4-1.58-3.34-3.92-3.62-1.36-.16-2.12,0-2.93,1.11-1.62,2.23-3.4,4.34-5.17,6.56-3.92-2.2-7.71-4.32-11.6-6.5.88-2.3,1.54-4.56,2.59-6.63,1.06-2.09.78-3.52-.96-5.09-1.05-.94-1.83-1.28-3.18-.85-2.66.86-5.38,1.54-8.1,2.3-1.9-4.11-3.73-8.05-5.56-12.01,2.03-1.31,3.91-2.52,5.79-3.73,2.99-1.92,2.97-1.91,2.48-5.38-.13-.88-.45-1.38-1.35-1.68-2.52-.84-5.02-1.77-7.5-2.73-.39-.15-.95-.72-.9-.99.76-4.07,1.62-8.12,2.48-12.31,2.45.13,4.81.07,7.11.42,2.48.38,3.95-.41,4.9-2.73.41-1,.56-1.64-.11-2.56-1.72-2.36-3.31-4.81-5-7.28,3.33-3.01,6.57-5.94,9.83-8.89,1.24.99,2.41,1.92,3.57,2.85,1.21.96,2.39,1.96,3.64,2.87.37.27.97.54,1.36.43,3.63-.97,4.01-1.47,4.08-5.19.04-2.21,0-4.42,0-6.64,4.35-.48,8.27-.89,12.18-1.37,1.01-.12,1.42.2,1.64,1.17.39,1.71,1.09,3.37,1.33,5.09.38,2.73,1.71,4.03,4.5,4.17,1.06.06,1.63-.1,2.25-.91,1.74-2.28,3.55-4.5,5.4-6.83,3.9,2.19,7.7,4.31,11.59,6.49-.84,2.23-1.44,4.47-2.52,6.46-1.24,2.29-.79,3.86,1.1,5.46.85.72,1.45,1.12,2.62.75,2.77-.89,5.6-1.58,8.45-2.37,1.89,4.08,3.72,8.02,5.52,11.9-.19.19-.25.28-.34.34-1.83,1.19-3.59,2.53-5.53,3.51-2.2,1.11-3.1,2.53-2.44,5.01.29,1.07.53,1.76,1.7,2.13,2.77.89,5.48,1.97,8.3,3-.9,4.38-1.77,8.62-2.65,12.94-2.55-.14-4.91-.08-7.21-.44-2.44-.37-3.82.45-4.78,2.69-.45,1.05-.36,1.54.4,2.28,3.69,3.62,7.33,7.3,10.99,10.95.32.32.68.61,1.11.99,8.49-12.54,11.41-26.15,8.3-40.77-5.85-27.51-31.68-44.68-59.41-39.82-26.38,4.62-45.12,30.16-41.4,56.78,2.46,17.61,11.75,30.64,27.42,39.11,1.17.63,2.23,1.45,3.4,2.07.79.42,1.69.9,2.54.9,11.68.06,23.35,0,35.03.07,2.03.01,3.79-.12,5.27-1.8.81-.92,2.1-1.42,3.17-2.12,1.42-.93,2.84-1.86,4.47-2.92Zm-17.44-17.48c-1.31-1.28-2.45-2.31-3.5-3.43-.64-.69-1.2-.78-2.09-.46-3.47,1.24-7.03,1.59-10.7,1.08-13.12-1.83-22.08-14.4-19.43-27.32,2.69-13.14,15.87-21.23,28.77-17.65,13.43,3.73,20.49,18.52,14.97,31.31-.22.51-.45,1.36-.2,1.68,1.14,1.43,2.45,2.72,3.83,4.2,1.04-1.81,1.92-3.2,2.66-4.67.43-.86.99-1.08,1.9-1.01,2.54.19,5.09.3,7.78.44.3-1.47.58-2.85.88-4.3-2.58-.94-5.05-1.78-7.46-2.76-.5-.2-1.05-.87-1.14-1.4-.46-3-.84-6.01-1.11-9.04-.05-.51.41-1.27.86-1.59,2.13-1.48,4.34-2.85,6.59-4.3-.67-1.43-1.27-2.71-1.87-4-.98.26-1.8.48-2.62.7-2,.53-4.24,1.88-5.94,1.38-1.78-.52-2.9-2.98-4.56-4.28-2.98-2.33-3.27-4.77-1.6-8.15,1.88-3.81,1.6-3.95-2.21-5.81-.04-.02-.1,0-.27-.02-1.44,1.82-3.01,3.64-4.39,5.58-.77,1.09-1.56,1.3-2.8,1.01-2.59-.62-5.2-1.13-7.82-1.61-1.06-.19-1.64-.62-1.9-1.74-.56-2.41-1.29-4.78-1.96-7.21-1.61.19-3.02.36-4.76.57,0,2.61-.04,5.12.02,7.61.02.95-.36,1.4-1.21,1.76-2.55,1.08-5.08,2.19-7.57,3.41-1.05.51-1.8.47-2.7-.31-1.89-1.62-3.88-3.13-5.89-4.74-1.14,1.05-2.19,2.01-3.19,2.93.06.19.06.24.09.28,1.4,2.07,2.76,4.18,4.23,6.21.56.78.56,1.36.07,2.15-.98,1.59-2.07,3.14-2.74,4.86-1.2,3.09-3.16,4.39-6.44,3.48-.3-.08-.64-.03-.96-.04q-3.93-.12-4.65,3.73c-.02.09.03.2.08.44,2.38.86,4.81,1.78,7.27,2.62.8.28,1.17.67,1.25,1.57.25,2.7.48,5.42.99,8.08.29,1.5-.19,2.21-1.4,2.91-2.02,1.18-3.94,2.51-6,3.85.64,1.38,1.24,2.67,1.78,3.84.23.06.29.09.33.08,2.41-.66,4.84-1.27,7.22-2.02.98-.31,1.58-.09,2.21.65,1.08,1.25,2.09,2.62,3.39,3.6,3.12,2.34,3.31,4.88,1.61,8.28-1.81,3.62-1.54,3.76,2.06,5.62.13.07.28.07.47.12,1.6-2.02,3.15-4.06,4.81-6,.35-.41,1.16-.71,1.68-.62,2.94.49,5.85,1.13,8.78,1.68.9.17,1.33.58,1.55,1.5.6,2.46,1.34,4.9,2.04,7.41,1.55-.18,2.96-.35,4.74-.56,0-2.42.08-4.76-.03-7.09-.07-1.41.49-2.1,1.77-2.55,1.4-.49,2.72-1.19,4.43-1.96Zm-31.03-25.62c-.02,9.84,8.04,17.94,17.85,17.93,9.94,0,17.97-8.04,17.97-17.98,0-9.74-8.04-17.81-17.78-17.84-9.97-.03-18.02,7.96-18.04,17.89Zm35.93,55.12h-33.65c.14,2.55.27,5.03.41,7.48h33.24v-7.48Zm-33.37,12.77c0,1.55,0,2.93,0,4.31.01,2.41.87,3.3,3.24,3.3,3.35.01,6.71,0,10.06,0,5.64,0,11.29-.01,16.93,0,1.52,0,2.75-.56,2.93-2.1.21-1.81.05-3.67.05-5.53h-33.22Zm28.89-49.12c.13.17.22.31.33.42,8.24,8.25,16.49,16.5,24.74,24.74.26.26.53.54.85.72,1.26.73,2.48.61,3.51-.42,1.02-1.03,1.15-2.26.4-3.5-.27-.45-.68-.81-1.06-1.19-7.91-7.91-15.81-15.82-23.73-23.72-.29-.29-.61-.55-.93-.84-1.39,1.28-2.71,2.5-4.11,3.79Z"></path>
      <path class="cls-1" d="m62.72,32.6c1.11-1.39,2.1-2.63,3.19-3.99,4.25,3.39,8.42,6.73,12.8,10.23-1.06,1.32-2.1,2.61-3.2,3.99-4.29-3.43-8.47-6.77-12.79-10.23Z"></path>
      <path class="cls-1" d="m186.23,42.78c-1.1-1.37-2.12-2.64-3.2-3.99,4.28-3.43,8.46-6.77,12.78-10.23,1.07,1.32,2.09,2.57,3.21,3.97-4.25,3.41-8.42,6.75-12.79,10.25Z"></path>
      <path class="cls-1" d="m54.12,71.42v-4.9h15.21v4.9h-15.21Z"></path>
      <path class="cls-1" d="m207.56,66.54v4.92h-15.21v-4.92h15.21Z"></path>
      <path class="cls-1" d="m70.7,94.88c.9,1.49,1.73,2.88,2.64,4.39-4.28,2.57-8.46,5.08-12.78,7.67-.88-1.46-1.7-2.81-2.65-4.37,4.24-2.55,8.45-5.08,12.78-7.69Z"></path>
      <path class="cls-1" d="m188.28,99.34c.9-1.49,1.71-2.84,2.64-4.37,4.25,2.54,8.41,5.04,12.77,7.65-.88,1.47-1.7,2.85-2.62,4.39-4.28-2.57-8.49-5.09-12.79-7.67Z"></path>
      <path class="cls-1" d="m91.9,8.77c3.14,3.14,6.45,6.44,9.82,9.81-1.14,1.02-2.35,2.1-3.45,3.08-3.12-3.13-6.46-6.47-9.77-9.79,1-.91,2.19-2,3.39-3.1Z"></path>
      <path class="cls-1" d="m170.11,8.62c1.06,1.04,2.2,2.15,3.23,3.15-3.38,3.38-6.72,6.72-10.12,10.13-.95-1.06-2.03-2.27-3.06-3.42,3.18-3.14,6.53-6.46,9.96-9.85Z"></path>
      <path class="cls-1" d="m128.35,12.6V0h4.96v12.6h-4.96Z"></path>
    </g>
  </g>
</svg>
