<?xml version="1.0" encoding="UTF-8"?>
<svg xmlns="http://www.w3.org/2000/svg" id="katman_2" data-name="katman 2" viewBox="0 0 276.05 156.97">
  <defs>
    <style>
      .cls-1 {
        fill: none;
        stroke-width: 0px;
      }

      .cls-2 {
        stroke: #000;
        stroke-miterlimit: 10;
        stroke-width: .75px;
      }
    </style>
  </defs>
  <g id="katman_1" data-name="katman 1">
    <rect class="cls-1" width="276.05" height="156.97"></rect>
    <g>
      <path class="cls-2" d="m102.05,15.51c-.76-.4-1.58-.6-2.42-.69-.22,0-.45-.02-.67,0-2.73.09-5.09,1.97-5.83,4.64-.72,2.58.38,5.46,2.64,6.9,3.01,1.92,6.97,1.01,8.79-2.02,1.88-3.12.79-6.97-2.5-8.82Zm-.19,7.4c-.75,1.15-2.36,1.68-3.68,1.23-1.45-.49-2.34-1.84-2.22-3.33.14-1.69,1.46-2.84,3.43-2.98.03,0,.07,0,.1-.01.41.33.94.26,1.43.32.06.33.36.45.56.67,1.08,1.14,1.24,2.79.38,4.11Zm63.65,5.48l.02.45c.14-.16.14-.31-.02-.45Zm-63.46-12.88c-.76-.4-1.58-.6-2.42-.69-.22,0-.45-.02-.67,0-2.73.09-5.09,1.97-5.83,4.64-.72,2.58.38,5.46,2.64,6.9,3.01,1.92,6.97,1.01,8.79-2.02,1.88-3.12.79-6.97-2.5-8.82Zm-.19,7.4c-.75,1.15-2.36,1.68-3.68,1.23-1.45-.49-2.34-1.84-2.22-3.33.14-1.69,1.46-2.84,3.43-2.98.03,0,.07,0,.1-.01.41.33.94.26,1.43.32.06.33.36.45.56.67,1.08,1.14,1.24,2.79.38,4.11Zm-4.59,42.97c-.51-.65-1.3-.74-2.06-.19-1.56,1.13-2.29,2.69-2.37,4.59-.01,1.12.27,2.17.87,3.12.47.75,1.31.98,1.99.58.69-.4.88-1.22.47-2.02-.84-1.64-.61-2.82.78-4.03.67-.59.8-1.41.31-2.04Zm4.78-50.37c-.76-.4-1.58-.6-2.42-.69-.22,0-.45-.02-.67,0-2.73.09-5.09,1.97-5.83,4.64-.72,2.58.38,5.46,2.64,6.9,3.01,1.92,6.97,1.01,8.79-2.02,1.88-3.12.79-6.97-2.5-8.82Zm-.19,7.4c-.75,1.15-2.36,1.68-3.68,1.23-1.45-.49-2.34-1.84-2.22-3.33.14-1.69,1.46-2.84,3.43-2.98.03,0,.07,0,.1-.01.41.33.94.26,1.43.32.06.33.36.45.56.67,1.08,1.14,1.24,2.79.38,4.11Zm63.65,5.48l.02.45c.14-.16.14-.31-.02-.45Zm-63.46-12.88c-.76-.4-1.58-.6-2.42-.69-.22,0-.45-.02-.67,0-2.73.09-5.09,1.97-5.83,4.64-.72,2.58.38,5.46,2.64,6.9,3.01,1.92,6.97,1.01,8.79-2.02,1.88-3.12.79-6.97-2.5-8.82Zm-.19,7.4c-.75,1.15-2.36,1.68-3.68,1.23-1.45-.49-2.34-1.84-2.22-3.33.14-1.69,1.46-2.84,3.43-2.98.03,0,.07,0,.1-.01.41.33.94.26,1.43.32.06.33.36.45.56.67,1.08,1.14,1.24,2.79.38,4.11Zm-6.09,9.08c-.21.7-.06,1.41-.09,2.12-.03.67,0,1.34,0,2.01.02-1.38-.04-2.75.08-4.12Zm-.09,4.65c0-.12,0-.25,0-.37,0,.17,0,.34-.02.5,0,.06,0,.13-.01.19,0,.16-.02.32-.04.47.13-.26.06-.53.07-.8Zm1.59,29.24c-.51-.65-1.3-.74-2.06-.19-1.56,1.13-2.29,2.69-2.37,4.59-.01,1.12.27,2.17.87,3.12.47.75,1.31.98,1.99.58.69-.4.88-1.22.47-2.02-.84-1.64-.61-2.82.78-4.03.67-.59.8-1.41.31-2.04Zm6.55,36.35c0-.78-.41-1.31-1.13-1.45-.7-.13-1.26.11-1.55.81-.03.03-.04.07-.02.11-.24.28-.11.61-.13.92-.06,1.15.1,2.3-.09,3.44-.07,0-.14,0-.21,0-1.05-.04-2.09-.08-3.14.03-.32.02-.56.17-.74.44-.51.5-.47,1.06-.14,1.64.04.16.12.27.27.31.17.26.45.37.7.37,1.71.02,3.42.16,5.13-.07.75-.16,1.04-.7,1.05-1.4.02-1.71.01-3.42,0-5.13Zm-6.55-36.35c-.51-.65-1.3-.74-2.06-.19-1.56,1.13-2.29,2.69-2.37,4.59-.01,1.12.27,2.17.87,3.12.47.75,1.31.98,1.99.58.69-.4.88-1.22.47-2.02-.84-1.64-.61-2.82.78-4.03.67-.59.8-1.41.31-2.04Zm4.78-50.37c-.76-.4-1.58-.6-2.42-.69-.22,0-.45-.02-.67,0-2.73.09-5.09,1.97-5.83,4.64-.72,2.58.38,5.46,2.64,6.9,3.01,1.92,6.97,1.01,8.79-2.02,1.88-3.12.79-6.97-2.5-8.82Zm-.19,7.4c-.75,1.15-2.36,1.68-3.68,1.23-1.45-.49-2.34-1.84-2.22-3.33.14-1.69,1.46-2.84,3.43-2.98.03,0,.07,0,.1-.01.41.33.94.26,1.43.32.06.33.36.45.56.67,1.08,1.14,1.24,2.79.38,4.11Zm63.65,5.48l.02.45c.14-.16.14-.31-.02-.45Zm-63.46-12.88c-.76-.4-1.58-.6-2.42-.69-.22,0-.45-.02-.67,0-2.73.09-5.09,1.97-5.83,4.64-.72,2.58.38,5.46,2.64,6.9,3.01,1.92,6.97,1.01,8.79-2.02,1.88-3.12.79-6.97-2.5-8.82Zm-.19,7.4c-.75,1.15-2.36,1.68-3.68,1.23-1.45-.49-2.34-1.84-2.22-3.33.14-1.69,1.46-2.84,3.43-2.98.03,0,.07,0,.1-.01.41.33.94.26,1.43.32.06.33.36.45.56.67,1.08,1.14,1.24,2.79.38,4.11Zm-6.09,9.08c-.21.7-.06,1.41-.09,2.12-.03.67,0,1.34,0,2.01.02-1.38-.04-2.75.08-4.12Zm-.09,4.65c0-.12,0-.25,0-.37,0,.17,0,.34-.02.5,0,.06,0,.13-.01.19,0,.16-.02.32-.04.47.13-.26.06-.53.07-.8Zm1.59,29.24c-.51-.65-1.3-.74-2.06-.19-1.56,1.13-2.29,2.69-2.37,4.59-.01,1.12.27,2.17.87,3.12.47.75,1.31.98,1.99.58.69-.4.88-1.22.47-2.02-.84-1.64-.61-2.82.78-4.03.67-.59.8-1.41.31-2.04Zm6.55,36.35c0-.78-.41-1.31-1.13-1.45-.7-.13-1.26.11-1.55.81-.03.03-.04.07-.02.11-.24.28-.11.61-.13.92-.06,1.15.1,2.3-.09,3.44-.07,0-.14,0-.21,0-1.05-.04-2.09-.08-3.14.03-.32.02-.56.17-.74.44-.51.5-.47,1.06-.14,1.64.04.16.12.27.27.31.17.26.45.37.7.37,1.71.02,3.42.16,5.13-.07.75-.16,1.04-.7,1.05-1.4.02-1.71.01-3.42,0-5.13Zm0,0c0-.78-.41-1.31-1.13-1.45-.7-.13-1.26.11-1.55.81-.03.03-.04.07-.02.11-.24.28-.11.61-.13.92-.06,1.15.1,2.3-.09,3.44-.07,0-.14,0-.21,0-1.05-.04-2.09-.08-3.14.03-.32.02-.56.17-.74.44-.51.5-.47,1.06-.14,1.64.04.16.12.27.27.31.17.26.45.37.7.37,1.71.02,3.42.16,5.13-.07.75-.16,1.04-.7,1.05-1.4.02-1.71.01-3.42,0-5.13Zm-6.55-36.35c-.51-.65-1.3-.74-2.06-.19-1.56,1.13-2.29,2.69-2.37,4.59-.01,1.12.27,2.17.87,3.12.47.75,1.31.98,1.99.58.69-.4.88-1.22.47-2.02-.84-1.64-.61-2.82.78-4.03.67-.59.8-1.41.31-2.04Zm4.78-50.37c-.76-.4-1.58-.6-2.42-.69-.22,0-.45-.02-.67,0-2.73.09-5.09,1.97-5.83,4.64-.72,2.58.38,5.46,2.64,6.9,3.01,1.92,6.97,1.01,8.79-2.02,1.88-3.12.79-6.97-2.5-8.82Zm-.19,7.4c-.75,1.15-2.36,1.68-3.68,1.23-1.45-.49-2.34-1.84-2.22-3.33.14-1.69,1.46-2.84,3.43-2.98.03,0,.07,0,.1-.01.41.33.94.26,1.43.32.06.33.36.45.56.67,1.08,1.14,1.24,2.79.38,4.11Zm66.11,76.43c-2.8-1.1-5.79-.21-7.56,2.22-2.72,3.74-.97,9.26,3.31,10.47,1.03.37,2.07.44,3.14.16.7-.35,1.53-.42,2.19-.87,1.78-1.21,2.72-2.92,2.98-5.03.36-2.93-1.38-5.91-4.06-6.95Zm.43,8.72c-.88,1.13-2.06,1.67-3.48,1.38-1.47-.3-2.37-1.28-2.82-2.69-.06-.19-.11-.38-.16-.57-.01-.14-.02-.27-.03-.41.16-1.45.68-2.7,2.04-3.43,1.48-.8,3.22-.45,4.32.83,1.18,1.37,1.24,3.46.12,4.9Zm-.43-8.72c-2.8-1.1-5.79-.21-7.56,2.22-2.72,3.74-.97,9.26,3.31,10.47,1.03.37,2.07.44,3.14.16.7-.35,1.53-.42,2.19-.87,1.78-1.21,2.72-2.92,2.98-5.03.36-2.93-1.38-5.91-4.06-6.95Zm.43,8.72c-.88,1.13-2.06,1.67-3.48,1.38-1.47-.3-2.37-1.28-2.82-2.69-.06-.19-.11-.38-.16-.57-.01-.14-.02-.27-.03-.41.16-1.45.68-2.7,2.04-3.43,1.48-.8,3.22-.45,4.32.83,1.18,1.37,1.24,3.46.12,4.9Zm-2.88-79.67l.02.45c.14-.16.14-.31-.02-.45Zm-63.46-12.88c-.76-.4-1.58-.6-2.42-.69-.22,0-.45-.02-.67,0-2.73.09-5.09,1.97-5.83,4.64-.72,2.58.38,5.46,2.64,6.9,3.01,1.92,6.97,1.01,8.79-2.02,1.88-3.12.79-6.97-2.5-8.82Zm-.19,7.4c-.75,1.15-2.36,1.68-3.68,1.23-1.45-.49-2.34-1.84-2.22-3.33.14-1.69,1.46-2.84,3.43-2.98.03,0,.07,0,.1-.01.41.33.94.26,1.43.32.06.33.36.45.56.67,1.08,1.14,1.24,2.79.38,4.11Zm-6.09,9.08c-.21.7-.06,1.41-.09,2.12-.03.67,0,1.34,0,2.01.02-1.38-.04-2.75.08-4.12Zm-.09,4.65c0-.12,0-.25,0-.37,0,.17,0,.34-.02.5,0,.06,0,.13-.01.19,0,.16-.02.32-.04.47.13-.26.06-.53.07-.8Zm1.59,29.24c-.51-.65-1.3-.74-2.06-.19-1.56,1.13-2.29,2.69-2.37,4.59-.01,1.12.27,2.17.87,3.12.47.75,1.31.98,1.99.58.69-.4.88-1.22.47-2.02-.84-1.64-.61-2.82.78-4.03.67-.59.8-1.41.31-2.04Zm6.55,36.35c0-.78-.41-1.31-1.13-1.45-.7-.13-1.26.11-1.55.81-.03.03-.04.07-.02.11-.24.28-.11.61-.13.92-.06,1.15.1,2.3-.09,3.44-.07,0-.14,0-.21,0-1.05-.04-2.09-.08-3.14.03-.32.02-.56.17-.74.44-.51.5-.47,1.06-.14,1.64.04.16.12.27.27.31.17.26.45.37.7.37,1.71.02,3.42.16,5.13-.07.75-.16,1.04-.7,1.05-1.4.02-1.71.01-3.42,0-5.13Zm-6.55-36.35c-.51-.65-1.3-.74-2.06-.19-1.56,1.13-2.29,2.69-2.37,4.59-.01,1.12.27,2.17.87,3.12.47.75,1.31.98,1.99.58.69-.4.88-1.22.47-2.02-.84-1.64-.61-2.82.78-4.03.67-.59.8-1.41.31-2.04Zm6.55,36.35c0-.78-.41-1.31-1.13-1.45-.7-.13-1.26.11-1.55.81-.03.03-.04.07-.02.11-.24.28-.11.61-.13.92-.06,1.15.1,2.3-.09,3.44-.07,0-.14,0-.21,0-1.05-.04-2.09-.08-3.14.03-.32.02-.56.17-.74.44-.51.5-.47,1.06-.14,1.64.04.16.12.27.27.31.17.26.45.37.7.37,1.71.02,3.42.16,5.13-.07.75-.16,1.04-.7,1.05-1.4.02-1.71.01-3.42,0-5.13Zm-1.78-86.71c-.76-.4-1.58-.6-2.42-.69-.22,0-.45-.02-.67,0-2.73.09-5.09,1.97-5.83,4.64-.72,2.58.38,5.46,2.64,6.9,3.01,1.92,6.97,1.01,8.79-2.02,1.88-3.12.79-6.97-2.5-8.82Zm-.19,7.4c-.75,1.15-2.36,1.68-3.68,1.23-1.45-.49-2.34-1.84-2.22-3.33.14-1.69,1.46-2.84,3.43-2.98.03,0,.07,0,.1-.01.41.33.94.26,1.43.32.06.33.36.45.56.67,1.08,1.14,1.24,2.79.38,4.11Zm66.11,76.43c-2.8-1.1-5.79-.21-7.56,2.22-2.72,3.74-.97,9.26,3.31,10.47,1.03.37,2.07.44,3.14.16.7-.35,1.53-.42,2.19-.87,1.78-1.21,2.72-2.92,2.98-5.03.36-2.93-1.38-5.91-4.06-6.95Zm.43,8.72c-.88,1.13-2.06,1.67-3.48,1.38-1.47-.3-2.37-1.28-2.82-2.69-.06-.19-.11-.38-.16-.57-.01-.14-.02-.27-.03-.41.16-1.45.68-2.7,2.04-3.43,1.48-.8,3.22-.45,4.32.83,1.18,1.37,1.24,3.46.12,4.9Zm-.43-8.72c-2.8-1.1-5.79-.21-7.56,2.22-2.72,3.74-.97,9.26,3.31,10.47,1.03.37,2.07.44,3.14.16.7-.35,1.53-.42,2.19-.87,1.78-1.21,2.72-2.92,2.98-5.03.36-2.93-1.38-5.91-4.06-6.95Zm.43,8.72c-.88,1.13-2.06,1.67-3.48,1.38-1.47-.3-2.37-1.28-2.82-2.69-.06-.19-.11-.38-.16-.57-.01-.14-.02-.27-.03-.41.16-1.45.68-2.7,2.04-3.43,1.48-.8,3.22-.45,4.32.83,1.18,1.37,1.24,3.46.12,4.9ZM102.05,15.51c-.76-.4-1.58-.6-2.42-.69-.22,0-.45-.02-.67,0-2.73.09-5.09,1.97-5.83,4.64-.72,2.58.38,5.46,2.64,6.9,3.01,1.92,6.97,1.01,8.79-2.02,1.88-3.12.79-6.97-2.5-8.82Zm-.19,7.4c-.75,1.15-2.36,1.68-3.68,1.23-1.45-.49-2.34-1.84-2.22-3.33.14-1.69,1.46-2.84,3.43-2.98.03,0,.07,0,.1-.01.41.33.94.26,1.43.32.06.33.36.45.56.67,1.08,1.14,1.24,2.79.38,4.11Zm-4.59,42.97c-.51-.65-1.3-.74-2.06-.19-1.56,1.13-2.29,2.69-2.37,4.59-.01,1.12.27,2.17.87,3.12.47.75,1.31.98,1.99.58.69-.4.88-1.22.47-2.02-.84-1.64-.61-2.82.78-4.03.67-.59.8-1.41.31-2.04Zm6.55,36.35c0-.78-.41-1.31-1.13-1.45-.7-.13-1.26.11-1.55.81-.03.03-.04.07-.02.11-.24.28-.11.61-.13.92-.06,1.15.1,2.3-.09,3.44-.07,0-.14,0-.21,0-1.05-.04-2.09-.08-3.14.03-.32.02-.56.17-.74.44-.51.5-.47,1.06-.14,1.64.04.16.12.27.27.31.17.26.45.37.7.37,1.71.02,3.42.16,5.13-.07.75-.16,1.04-.7,1.05-1.4.02-1.71.01-3.42,0-5.13Zm-6.55-36.35c-.51-.65-1.3-.74-2.06-.19-1.56,1.13-2.29,2.69-2.37,4.59-.01,1.12.27,2.17.87,3.12.47.75,1.31.98,1.99.58.69-.4.88-1.22.47-2.02-.84-1.64-.61-2.82.78-4.03.67-.59.8-1.41.31-2.04Zm6.55,36.35c0-.78-.41-1.31-1.13-1.45-.7-.13-1.26.11-1.55.81-.03.03-.04.07-.02.11-.24.28-.11.61-.13.92-.06,1.15.1,2.3-.09,3.44-.07,0-.14,0-.21,0-1.05-.04-2.09-.08-3.14.03-.32.02-.56.17-.74.44-.51.5-.47,1.06-.14,1.64.04.16.12.27.27.31.17.26.45.37.7.37,1.71.02,3.42.16,5.13-.07.75-.16,1.04-.7,1.05-1.4.02-1.71.01-3.42,0-5.13Zm-1.78-86.71c-.76-.4-1.58-.6-2.42-.69-.22,0-.45-.02-.67,0-2.73.09-5.09,1.97-5.83,4.64-.72,2.58.38,5.46,2.64,6.9,3.01,1.92,6.97,1.01,8.79-2.02,1.88-3.12.79-6.97-2.5-8.82Zm-.19,7.4c-.75,1.15-2.36,1.68-3.68,1.23-1.45-.49-2.34-1.84-2.22-3.33.14-1.69,1.46-2.84,3.43-2.98.03,0,.07,0,.1-.01.41.33.94.26,1.43.32.06.33.36.45.56.67,1.08,1.14,1.24,2.79.38,4.11Zm66.11,76.43c-2.8-1.1-5.79-.21-7.56,2.22-2.72,3.74-.97,9.26,3.31,10.47,1.03.37,2.07.44,3.14.16.7-.35,1.53-.42,2.19-.87,1.78-1.21,2.72-2.92,2.98-5.03.36-2.93-1.38-5.91-4.06-6.95Zm.43,8.72c-.88,1.13-2.06,1.67-3.48,1.38-1.47-.3-2.37-1.28-2.82-2.69-.06-.19-.11-.38-.16-.57-.01-.14-.02-.27-.03-.41.16-1.45.68-2.7,2.04-3.43,1.48-.8,3.22-.45,4.32.83,1.18,1.37,1.24,3.46.12,4.9Zm-.43-8.72c-2.8-1.1-5.79-.21-7.56,2.22-2.72,3.74-.97,9.26,3.31,10.47,1.03.37,2.07.44,3.14.16.7-.35,1.53-.42,2.19-.87,1.78-1.21,2.72-2.92,2.98-5.03.36-2.93-1.38-5.91-4.06-6.95Zm.43,8.72c-.88,1.13-2.06,1.67-3.48,1.38-1.47-.3-2.37-1.28-2.82-2.69-.06-.19-.11-.38-.16-.57-.01-.14-.02-.27-.03-.41.16-1.45.68-2.7,2.04-3.43,1.48-.8,3.22-.45,4.32.83,1.18,1.37,1.24,3.46.12,4.9ZM102.05,15.51c-.76-.4-1.58-.6-2.42-.69-.22,0-.45-.02-.67,0-2.73.09-5.09,1.97-5.83,4.64-.72,2.58.38,5.46,2.64,6.9,3.01,1.92,6.97,1.01,8.79-2.02,1.88-3.12.79-6.97-2.5-8.82Zm-.19,7.4c-.75,1.15-2.36,1.68-3.68,1.23-1.45-.49-2.34-1.84-2.22-3.33.14-1.69,1.46-2.84,3.43-2.98.03,0,.07,0,.1-.01.41.33.94.26,1.43.32.06.33.36.45.56.67,1.08,1.14,1.24,2.79.38,4.11Zm-4.59,42.97c-.51-.65-1.3-.74-2.06-.19-1.56,1.13-2.29,2.69-2.37,4.59-.01,1.12.27,2.17.87,3.12.47.75,1.31.98,1.99.58.69-.4.88-1.22.47-2.02-.84-1.64-.61-2.82.78-4.03.67-.59.8-1.41.31-2.04Zm6.55,36.35c0-.78-.41-1.31-1.13-1.45-.7-.13-1.26.11-1.55.81-.03.03-.04.07-.02.11-.24.28-.11.61-.13.92-.06,1.15.1,2.3-.09,3.44-.07,0-.14,0-.21,0-1.05-.04-2.09-.08-3.14.03-.32.02-.56.17-.74.44-.51.5-.47,1.06-.14,1.64.04.16.12.27.27.31.17.26.45.37.7.37,1.71.02,3.42.16,5.13-.07.75-.16,1.04-.7,1.05-1.4.02-1.71.01-3.42,0-5.13Zm107.54,37s-.03.06-.04.09c0-.07,0-.15.01-.22,0-.09,0-.18.01-.27-.16-.54-.54-.76-1.08-.74-.14.04-.27.05-.41.07h-.02c-.14.01-.29.04-.42.08-3.25.09-6.49.04-9.74.03h-.04c-.07-.03-.15-.07-.22-.11-.25-.04-.5-.08-.75-.12-.08-.21-.06-.49-.36-.57-.16-.28-.38-.54-.4-.88-.02-.04-.04-.08-.06-.13h0c-.05-.18-.06-.38-.24-.49-.16-.6-.32-1.19-.82-1.63-.03-.09-.06-.17-.1-.26-.04-.19,0-.42-.24-.51-.04-.02-.06-.06-.04-.11-.13-.82-.57-1.48-1.05-2.12-.19-.19-.24-.44-.3-.69-.11-.59-.29-1.13-.77-1.54-.13-.06-.11-.18-.12-.3-.04-.48-.31-.85-.61-1.2-.18-.17-.21-.4-.27-.62-.27-1.15-.85-2.15-1.48-3.13-.04-.01-.06-.04-.04-.09,0-.63-.44-1.1-.6-1.68-.06-.14-.06-.29-.06-.44v-9.16c0-.22.02-.44.08-.66.1-.49.11-1,.05-1.48-.14-.98-.37-1.95-.51-2.92-.17-1.22-.45-2.37-1.02-3.45l-.04-.02v-.05c-.4-1.96-1.43-3.63-2.47-5.3-.07-.12-.2-.21-.32-.31h0c-.34-.8-.75-1.53-1.52-1.99-.05,0-.09,0-.13-.03-.02,0-.04-.02-.06-.04-.11-.07-.2-.19-.34-.2-.01,0-.02,0-.04,0-.04,0-.08.02-.13.05-.1.07-.2.19-.32.17-.54-.1-1.05-.07-1.59.08-.31.09-.52-.21-.65-.5-.25-.59-.08-1.37.4-1.86.21-.21.47-.36.72-.53.37-.26.7-.64.39-1.05-.36-.46-.62,0-.85.27-.16.19-.38.25-.6.12-.21-.12-.16-.34-.11-.54.11-.42.36-.7.81-.77.39-.06.79-.06,1.18.04.19.05.36.11.54.02.02-.01.04-.02.06-.04.01,0,.02-.01.03-.02.2-.24.31-.51.21-.83.03-.09.06-.19.08-.29.21-.22.16-.53.26-.79-.02-.04-.02-.08.02-.11.46-.89.75-1.85.87-2.85h0c.17-.11.1-.27.1-.42,0-.03,0-.06.01-.09,0-.03.02-.06.05-.08.52-.55.52-1.31.72-1.98.44-1.48,1.06-2.91,1.21-4.47-.02-.21.01-.41.16-.57.17-.11.04-.32.14-.45.01-.05.02-.1.03-.15.22-.22.16-.53.26-.8.03-.19-.07-.4.13-.55.29-.21.22-.54.28-.82.01-.04.02-.08.04-.12-.02-.04-.02-.07.02-.1.4-.38.27-.91.42-1.36h0c.17-.1.1-.27.1-.42,0-.03,0-.06.01-.09.01-.03.02-.06.05-.08.55-.72.58-1.59.74-2.43-.02-.04-.02-.07.02-.1.68-1.39,1.07-2.87,1.32-4.38-.02-.04-.02-.07.02-.11.28-.25.25-.6.28-.92,0-.16-.04-.32.11-.45.54-.55.52-1.29.64-1.99,0-.02,0-.06.01-.09-.02-.38.14-.71.31-1.03.13-.11.04-.28.1-.4t0-.01s0,0,0-.01t.01-.01h0s0-.02,0-.02c.52-.55.51-1.31.72-1.98.46-1.47,1.04-2.92,1.21-4.47-.02-.04-.01-.08.03-.11.34-.4.39-.88.42-1.37,0-.21,0-.42.17-.57.36-.93.85-1.83.87-2.86h0c.22-.12.07-.34.12-.5,0-.02.02-.05.04-.07h0c.31-.29.34-.69.48-1.06.23-.64.27-1.31.57-1.93h0c.19-.13.45-.09.59-.31h0c.77-.21,1.46-.53,1.94-1.2.04-.16.18-.14.29-.17.21,0,.32-.12.4-.29.06-.05.12-.09.17-.14,1.14-.53,2.02-1.35,2.73-2.37,0-.1.06-.14.15-.15.14-.06.22-.19.29-.32.04-.15.14-.23.28-.29.55-.23.83-.7,1.05-1.22-.01-.05,0-.09.06-.11.19-.1.37-.21.37-.47.01-.27.24-.4.39-.57.42-.31.73-.69.78-1.23h0s-.02-.03-.04-.04c-.5-.36-1.03-.54-1.64-.32-.3.11-.57.16-.83-.06-.15-.12-.29-.26-.48-.24-.04,0-.07.01-.11.02-.19.09-.31.26-.42.42-3.03,4.13-7,6.83-12.04,7.91-.24.05-.5.05-.67.29-.01.04,0,.07.02.09,0,0,.01.01.01.02.1.23-.07-.01-.07.04-.04-.02-.07-.04-.11-.05h-.01c-.13-.06-.26-.11-.4-.14-1.83.12-3.67.22-5.5-.06-5.05-.76-9.21-3.13-12.4-7.09-3.55-4.4-4.97-9.44-4.17-15.08.71-5.03,3.08-9.16,6.95-12.4,2.38-1.99,5.12-3.33,8.17-4,.39-.09.86-.04,1.15-.43,0-.02,0-.04,0-.05-.02-.06-.09-.07-.17-.09h0s-.07-.02-.11-.04c.05.01.1.02.14.03h0c.12.03.23.06.34.09h0c.17.06.32.11.48.13.17.03.34.02.52,0,1.64-.19,3.28-.18,4.9.12,7.13,1.32,12.24,5.27,15.09,11.96,1.74,4.09,1.91,8.34.78,12.63-.09.36-.24.72-.16,1.1,0,.01.02.03.02.04h0c.39.64.51,1.33.47,2.07-.03.69-.01,1.38,0,2.07,0,.29-.02.6.24.82.03,0,.06.01.08.02.02,0,.04,0,.06,0,.19,0,.22-.21.28-.38-.01-.04,0-.08.01-.12.19-.44.22-.91.22-1.39,0-1.14-.01-2.28,0-3.43,0-.27-.07-.68.35-.7.45-.02.36.39.37.67.03.45-.02.9.02,1.34.02.25-.05.58.34.64l.03.02c.13-.8.64-1.48.72-2.29-.03-.04-.02-.08.02-.11.14-.14.25-.31.29-.5.31-1.44.63-2.88.45-4.37-.05-.19-.08-.37-.1-.57h0s0-.01,0-.02t0-.01c-.02-.15-.02-.3,0-.45v-.06c.01-.22.05-.44.11-.65-.08-1.08.12-2.21-.45-3.23-.04-.04-.05-.08-.02-.13-.08-.14,0-.32-.11-.47,0-.05-.01-.1-.02-.15.01-.38.03-.76-.29-1.05-.2-.21-.19-.46-.18-.72-.04-.44-.04-.9-.43-1.23-.33-.56-.57-1.17-.77-1.79-.02-.43-.2-.78-.55-1.05-.09-.11-.22-.2-.21-.37-.11-.29-.14-.63-.45-.8-.37-.88-.83-1.69-1.64-2.25-.31-.16-.4-.5-.61-.74-.4-.79-1.05-1.33-1.77-1.8-.11-.1-.21-.19-.32-.29-.22-.32-.47-.62-.88-.72-.44-.24-.86-.5-1.2-.87-.79-.84-1.73-1.4-2.85-1.69-.24,0-.4-.14-.59-.26-.14-.34-.49-.24-.74-.36-.11-.02-.21-.06-.31-.08-.42-.59-1.13-.4-1.68-.65-.08-.01-.16-.02-.23-.04-.11-.1-.21-.24-.36-.26-1.2-.17-2.35-.65-3.59-.62-.04.01-.09.02-.14.04-.04.02-.09.03-.14.06-.02.02-.04.03-.07.04h-.02c-.14.06-.28.09-.43.11h0s-.01,0-.02,0h0c.02-.11.29-.02.31-.12.01-.03,0-.09-.07-.17-.85-.11-1.69-.09-2.55-.09s-1.73.29-2.62.19c-.22-.02-.43.07-.61.22-.08.01-.16.02-.25.03-1.34.05-2.61.34-3.77,1.05h0c-.51.04-1,.12-1.35.56-.02.04-.06.06-.11.04-.18.05-.4.01-.49.24-.04.04-.08.06-.13.04-.67.22-1.36.4-1.81,1.01-.02.04-.04.06-.09.05-.16.02-.29.09-.36.24-.02.05-.05.06-.1.05-.98.19-1.63.92-2.35,1.51-.67.54-1.36.8-2.24.8-24.98-.02-49.95-.02-74.92-.01-.29,0-.6-.07-.88.06-.05,0-.1,0-.15,0-.18-.11-.28-.08-.31.11,0,0,0,.01,0,.02,0,0,0,.02,0,.03.14.09.28.16.44.2-.17-.03-.34-.11-.49-.19-.02-.01-.03-.02-.05-.03h0s-.09-.06-.14-.09c-1.24-.04-2.34.37-3.37,1.02-.04.02-.06.07-.09.12-.01.04-.04.06-.09.04-.53.11-.97.37-1.26.85-.13.11-.27.22-.4.34-.47.14-.72.51-.92.92-.04.06-.09.11-.14.16-.37.14-.48.49-.62.81-.06.11-.12.22-.19.33-.13.07-.22.17-.21.34h0c-.16.12-.19.32-.24.49h0c-.02.08-.06.16-.11.22h0c-.34.28-.41.66-.44,1.07.02.05,0,.09-.03.13-.52.74-.62,1.54-.43,2.39,0,.8,0,1.59,0,2.39-.39.83-.18,1.6.17,2.37h0c.2,2.02,1.16,3.62,2.64,4.95.21.2.42.4.63.6.19.46.63.59,1.05.74.31.27.61.57,1.06.59.19.1.39.19.59.29.19.32.76.42.65.92-.3,1.45-.14,2.92-.18,4.37-.11,3.56-.03,7.13-.11,10.7-.03,1.51-.02,3.03.01,4.54.04,2.43-.2,4.87.14,7.28.06.44,0,.75-.51.99-.35.17-.81.37-1,.82-.04.21-.32.09-.38.27-.91.6-1.59,1.41-2.06,2.39-2.12,3.45-2.6,7.08-1.21,10.92.14.36-.12.4-.32.53-1.94,1.3-3.88,2.6-5.83,3.9-.57.38-.82.88-.82,1.57,0,5,0,10-.02,15,0,.78.29,1.31.97,1.71,1.31.77,2.58,1.59,3.89,2.34.5.29.66.61.65,1.18-.02,4.16-.02,8.31-.01,12.47,0,.98.3,1.37,1.19,1.61.21-.12.44-.07.65-.07,7.08,0,14.16,0,21.24,0,.22,0,.45-.06.65.07.92-.19,1.22-.6,1.22-1.63,0-4.03,0-8.06,0-12.1,0-.43.08-.72.47-.98,1.28-.82,2.5-1.72,3.78-2.54.7-.45.98-1.02.97-1.86-.07-4.93-.12-9.86-.16-14.78,0-.8-.29-1.35-.97-1.79-1.8-1.15-3.57-2.35-5.36-3.51-.37-.24-.48-.44-.3-.88.49-1.17.83-2.39.81-3.68-.04-.65-.04-1.3-.02-1.94-.24-3.21-1.7-5.81-4.09-7.91-.34-.29-.48-.57-.47-1.01.03-1.05.02-2.09.02-3.13.02-4.05.05-8.1.07-12.15.11-.26.06-.54.06-.81,0-3.49,0-6.97,0-10.45,0-1.59-.07-1.56.98-1.53.14,0,.32.01.51.01,19.02,0,38.04,0,57.05,0,.09,0,.17,0,.25.01.09,0,.17,0,.26,0,.02,0,.05,0,.07,0,.07,0,.16,0,.23-.02.05-.01.11-.02.16-.04.37-.15.56.02.74.3.26.79.53,1.58.79,2.37.19.04.27-.1.36-.21.3-.35.65-.55,1.11-.36.42.18.38.59.4.96.04.71-.08,1.43.1,2.14-.21.04-.47-.06-.67.14-.12.07-.07.12-.01.22.83,1.45,1.76,2.83,2.88,4.07.29.32.33.59.21,1-.74,2.37-1.43,4.76-2.14,7.13-3.76,12.57-7.53,25.13-11.28,37.69-.12.4-.32.6-.71.75-6.22,2.26-10.92,6.31-14.05,12.12-1.94,3.61-2.95,7.47-2.93,11.58.1.16.06.34.06.51,0,3.05,0,6.09,0,9.14,0,.17.04.35-.07.5-.08.23-.15.47-.26.7-1.03,2.17-2.07,4.33-3.11,6.5-1.37,2.88-2.73,5.76-4.09,8.65-.05.11-.12.17-.22.22-.06.04-.14.06-.22.07,0,0-.02,0-.02,0-.31.08-.63.14-.95.18-.22.03-.45.05-.67.06-.82.05-1.63.02-2.45,0-.29,0-.59-.01-.88-.01-20,.01-40,0-60,0-.17,0-.35,0-.52,0h-.16c-.12,0-.24,0-.36,0-.38.01-.7.12-.87.47-.29-.11.26-.57-.27-.59-.18.16-.36.32-.54.47v12.85c.12.42.37.7.7.89.12.08.27.14.42.19,1.97.07,3.94.12,5.91-.04.06-.05.11-.09.16-.14.43-.37.84-.75,1.29-1.1.31-.24.49-.65.17-.97-.31-.32-.57,0-.77.26-.15.19-.35.3-.58.19-.28-.13-.14-.38-.11-.59.03-.21.12-.44,0-.62-.04-.06-.1-.11-.19-.16-.96-.19-1.93-.06-2.89-.09-.42-.01-.85-.09-1.23.17-.01,0-.02.01-.04.01.01,0,.02-.02.04-.03.24-.33.18-.72.19-1.08,0-1.89,0-3.78,0-5.68.01-1.86-.19-1.74,1.73-1.74h137.33c.22,0,.45,0,.67,0,1.01.01,1.07.07,1.08,1.05,0,1.61,0,3.23,0,4.85,0,.37-.02.75.12,1.1.05.04.09.09.12.14.19.24.22.53.23.86.02,1.1-.14,2.22.11,3.31.01.02.03.05.05.07.06.07.16.1.26.1.08-.04.16-.07.22-.12.45-.29.77-.73,1.23-1.01.34-.2.57-.57.27-.94-.36-.44-.58-.05-.8.22-.16.2-.37.27-.59.14-.25-.15-.17-.39-.09-.6.18-.5.54-.75,1.07-.76.29,0,.6.11.82-.18,0-3.3.01-6.59.02-9.88,0-.14.02-.31-.12-.4ZM95.93,10.46h.32c-.14,0-.27,0-.4.01.02,0,.06-.01.08-.01Zm-.37.06h0s.03,0,.05-.01c.02,0,.04,0,.06-.01,0,0,.01,0,.02,0h0s.05,0,.07,0c-.02,0-.04.01-.06.01h0s-.06.02-.09.02c-.02,0-.04,0-.06,0-.04,0-.07,0-.11,0,.03,0,.07,0,.11-.01Zm12.63,100.94c0,.47-.11.64-.61.64-6.02-.02-12.04-.01-18.06,0-.4,0-.63-.02-.63-.54.02-3.21.01-6.41.01-9.78.61.37,1.09.67,1.58.95.8.47,1.67.29,2.08-.42.42-.72.2-1.5-.57-1.99-.88-.55-1.77-1.11-2.67-1.63-.32-.19-.42-.4-.42-.77.02-2.07.02-4.13,0-6.19,0-.46.07-.65.6-.65,6.02.02,12.04.02,18.06,0,.47,0,.64.11.63.62-.01,6.59-.01,13.18,0,19.77Zm.17-33.32c1.48,1.02,2.97,2,4.48,2.97.32.21.4.42.41.78.03,4.31.08,8.62.14,12.92.01.49-.14.77-.55,1.02-.58.34-1.12.74-1.65,1.12-.27-.16-.16-.38-.16-.55,0-2.14-.01-4.28,0-6.42,0-.49-.07-.92-.47-1.24-.04-.16-.12-.26-.29-.29-.09-.1-.19-.16-.32-.13-.25-.02-.49-.06-.74-.06-7.12,0-14.25,0-21.37,0-.2,0-.39.03-.59.05-.85.23-1.18.62-1.18,1.53,0,2.01,0,4.02,0,6.04v.83c-.87-.53-1.64-1.01-2.42-1.47-.21-.12-.21-.32-.26-.5,0-4.52,0-9.04.01-13.56,1.78-1.22,3.57-2.44,5.35-3.67.4-.27.47.11.61.29,1.56,1.9,3.47,3.3,5.84,3.94,4.7,1.27,8.75.11,12.09-3.43.39-.42.62-.45,1.07-.14Zm-.85-7.8c0,4.96-4.01,9-8.93,9.01-5,0-8.95-4.01-8.95-9.11,0-4.92,4.06-8.97,8.98-8.96,4.87,0,8.9,4.12,8.9,9.06Zm-11.9-19.25c.02-2.68.04-5.35.05-8.02,0-1.88.09-3.76-.03-5.64.13-.26.06-.53.07-.8,0-.12,0-.25,0-.37v-.16c.02-1.38-.04-2.75.08-4.12,2.16,0,4.32.02,6.49-.01.55,0,.7.12.7.7-.04,5.07-.04,10.15-.06,15.22,0,.27.02.54.04.82,0,.6,0,1.2,0,1.79v.31c-.06,2.72-.09,5.45-.03,8.17-.14.31-.34.17-.55.1-2.04-.67-4.12-.84-6.22-.36-.47.11-.52-.07-.52-.47.01-2.38,0-4.76,0-7.13Zm69.93-25.69c-.11.95-.2,1.89-.01,2.83v.15l.02.45c-.01.1-.02.19-.03.29-.4,0-.79.02-1.18.02h-67.88c-.42,0-.85,0-1.27,0-.82-.17-1.64-.34-2.41-.74-1.83-.94-3.07-2.38-3.56-4.37-.47-1.93-.47-3.91-.01-5.84.71-2.96,3.32-5.03,6.36-5.18.22-.01.45-.01.67-.01h73.88c-2.72,3.76-4.36,7.82-4.57,12.39Zm-98.37,116.8s0-.02,0-.03t0,.01c0,1.17,0,2.34,0,3.5v-3.48Zm0,4.71c0,.76,0,1.52,0,2.27,0,.05,0,.1,0,.15v-2.42Zm0,2.64c0,.08.01.16.05.23.01.02.02.04.04.05-.11-.02-.09-.17-.09-.28Zm106.56-105.12c.43.31.8.57,1.17.84,3.35,2.4,7.08,3.78,11.17,4.16.27.03.54.01.82.01.8.1,1.59.1,2.39,0,1.73.02,3.4-.37,5.18-.79-.37,1.25-.7,2.42-1.05,3.59-3.83,12.8-7.67,25.59-11.51,38.39-.09.31-.22.59-.36.88-.36.76-.32.78-.93.21-.02-.27-.28-.22-.42-.32-2.38-1.56-4.89-2.83-7.65-3.6-3.08-.85-6.2-1.14-9.38-.84-.12.01-.24.06-.36.09-.14.01-.27.02-.4.04-.47.05-.93.1-1.5.16,4.28-14.29,8.55-28.51,12.84-42.84Zm-30.76,67.3c.17-5.52,2.09-10.37,5.83-14.47.29-.4.62-.77,1.03-1.07,2.83-2.86,6.22-4.77,10.1-5.74,6.65-1.66,12.85-.54,18.54,3.29.08.06.14.13.22.2.09.43.42.55.79.6,3.35,2.52,5.71,5.79,7.24,9.66,1.03,2.59,1.54,5.29,1.54,8.09,0,2.78-.02,5.57,0,8.35.01.57-.15.7-.7.7-14.65-.02-29.31-.02-43.96,0-.51,0-.67-.11-.67-.65.03-2.99-.06-5.97.04-8.96Zm52.35,26.45c-.24-.12-.49-.07-.74-.07-19.29,0-38.6,0-57.89,0-.22,0-.45-.06-.65.06-.43-.18-.11-.42-.03-.6,1.82-3.81,3.64-7.61,5.48-11.42.32-.66.45-1.58,1.05-1.9.56-.31,1.41-.09,2.12-.09,14.4,0,28.8,0,43.21-.02.7,0,1.02.22,1.31.84,1.96,4.17,3.97,8.34,5.96,12.5.11.22.31.41.18.69Zm15.98,10.52s-.04,0-.07,0c.01-.02.04-.04.04-.06.06-1.69,0-3.38.03-5.07v5.13Zm0-5.59c0-1.03-.03-2.06,0-3.09v3.09Zm-47.57-31.06c1.03.37,2.07.44,3.14.16.7-.35,1.53-.42,2.19-.87,1.78-1.21,2.72-2.92,2.98-5.03.36-2.93-1.38-5.91-4.06-6.95-2.8-1.1-5.79-.21-7.56,2.22-2.72,3.74-.97,9.26,3.31,10.47Zm.24-9.69c1.48-.8,3.22-.45,4.32.83,1.18,1.37,1.24,3.46.12,4.9-.88,1.13-2.06,1.67-3.48,1.38-1.47-.3-2.37-1.28-2.82-2.69-.06-.19-.11-.38-.16-.57-.01-.14-.02-.27-.03-.41.16-1.45.68-2.7,2.04-3.43ZM102.05,15.51c-.76-.4-1.58-.6-2.42-.69-.22,0-.45-.02-.67,0-2.73.09-5.09,1.97-5.83,4.64-.72,2.58.38,5.46,2.64,6.9,3.01,1.92,6.97,1.01,8.79-2.02,1.88-3.12.79-6.97-2.5-8.82Zm-.19,7.4c-.75,1.15-2.36,1.68-3.68,1.23-1.45-.49-2.34-1.84-2.22-3.33.14-1.69,1.46-2.84,3.43-2.98.03,0,.07,0,.1-.01.41.33.94.26,1.43.32.06.33.36.45.56.67,1.08,1.14,1.24,2.79.38,4.11Zm.84,77.87c-.7-.13-1.26.11-1.55.81-.03.03-.04.07-.02.11-.24.28-.11.61-.13.92-.06,1.15.1,2.3-.09,3.44-.07,0-.14,0-.21,0-1.05-.04-2.09-.08-3.14.03-.32.02-.56.17-.74.44-.51.5-.47,1.06-.14,1.64.04.16.12.27.27.31.17.26.45.37.7.37,1.71.02,3.42.16,5.13-.07.75-.16,1.04-.7,1.05-1.4.02-1.71.01-3.42,0-5.13,0-.78-.41-1.31-1.13-1.45Zm-7.48-35.09c-1.56,1.13-2.29,2.69-2.37,4.59-.01,1.12.27,2.17.87,3.12.47.75,1.31.98,1.99.58.69-.4.88-1.22.47-2.02-.84-1.64-.61-2.82.78-4.03.67-.59.8-1.41.31-2.04-.51-.65-1.3-.74-2.06-.19Zm8.61,36.54c0-.78-.41-1.31-1.13-1.45-.7-.13-1.26.11-1.55.81-.03.03-.04.07-.02.11-.24.28-.11.61-.13.92-.06,1.15.1,2.3-.09,3.44-.07,0-.14,0-.21,0-1.05-.04-2.09-.08-3.14.03-.32.02-.56.17-.74.44-.51.5-.47,1.06-.14,1.64.04.16.12.27.27.31.17.26.45.37.7.37,1.71.02,3.42.16,5.13-.07.75-.16,1.04-.7,1.05-1.4.02-1.71.01-3.42,0-5.13Zm-6.55-36.35c-.51-.65-1.3-.74-2.06-.19-1.56,1.13-2.29,2.69-2.37,4.59-.01,1.12.27,2.17.87,3.12.47.75,1.31.98,1.99.58.69-.4.88-1.22.47-2.02-.84-1.64-.61-2.82.78-4.03.67-.59.8-1.41.31-2.04Zm4.78-50.37c-.76-.4-1.58-.6-2.42-.69-.22,0-.45-.02-.67,0-2.73.09-5.09,1.97-5.83,4.64-.72,2.58.38,5.46,2.64,6.9,3.01,1.92,6.97,1.01,8.79-2.02,1.88-3.12.79-6.97-2.5-8.82Zm-.19,7.4c-.75,1.15-2.36,1.68-3.68,1.23-1.45-.49-2.34-1.84-2.22-3.33.14-1.69,1.46-2.84,3.43-2.98.03,0,.07,0,.1-.01.41.33.94.26,1.43.32.06.33.36.45.56.67,1.08,1.14,1.24,2.79.38,4.11Zm66.11,76.43c-2.8-1.1-5.79-.21-7.56,2.22-2.72,3.74-.97,9.26,3.31,10.47,1.03.37,2.07.44,3.14.16.7-.35,1.53-.42,2.19-.87,1.78-1.21,2.72-2.92,2.98-5.03.36-2.93-1.38-5.91-4.06-6.95Zm.43,8.72c-.88,1.13-2.06,1.67-3.48,1.38-1.47-.3-2.37-1.28-2.82-2.69-.06-.19-.11-.38-.16-.57-.01-.14-.02-.27-.03-.41.16-1.45.68-2.7,2.04-3.43,1.48-.8,3.22-.45,4.32.83,1.18,1.37,1.24,3.46.12,4.9Zm-.43-8.72c-2.8-1.1-5.79-.21-7.56,2.22-2.72,3.74-.97,9.26,3.31,10.47,1.03.37,2.07.44,3.14.16.7-.35,1.53-.42,2.19-.87,1.78-1.21,2.72-2.92,2.98-5.03.36-2.93-1.38-5.91-4.06-6.95Zm.43,8.72c-.88,1.13-2.06,1.67-3.48,1.38-1.47-.3-2.37-1.28-2.82-2.69-.06-.19-.11-.38-.16-.57-.01-.14-.02-.27-.03-.41.16-1.45.68-2.7,2.04-3.43,1.48-.8,3.22-.45,4.32.83,1.18,1.37,1.24,3.46.12,4.9ZM102.05,15.51c-.76-.4-1.58-.6-2.42-.69-.22,0-.45-.02-.67,0-2.73.09-5.09,1.97-5.83,4.64-.72,2.58.38,5.46,2.64,6.9,3.01,1.92,6.97,1.01,8.79-2.02,1.88-3.12.79-6.97-2.5-8.82Zm-.19,7.4c-.75,1.15-2.36,1.68-3.68,1.23-1.45-.49-2.34-1.84-2.22-3.33.14-1.69,1.46-2.84,3.43-2.98.03,0,.07,0,.1-.01.41.33.94.26,1.43.32.06.33.36.45.56.67,1.08,1.14,1.24,2.79.38,4.11Zm1.97,79.32c0-.78-.41-1.31-1.13-1.45-.7-.13-1.26.11-1.55.81-.03.03-.04.07-.02.11-.24.28-.11.61-.13.92-.06,1.15.1,2.3-.09,3.44-.07,0-.14,0-.21,0-1.05-.04-2.09-.08-3.14.03-.32.02-.56.17-.74.44-.51.5-.47,1.06-.14,1.64.04.16.12.27.27.31.17.26.45.37.7.37,1.71.02,3.42.16,5.13-.07.75-.16,1.04-.7,1.05-1.4.02-1.71.01-3.42,0-5.13Zm-6.55-36.35c-.51-.65-1.3-.74-2.06-.19-1.56,1.13-2.29,2.69-2.37,4.59-.01,1.12.27,2.17.87,3.12.47.75,1.31.98,1.99.58.69-.4.88-1.22.47-2.02-.84-1.64-.61-2.82.78-4.03.67-.59.8-1.41.31-2.04Zm6.55,36.35c0-.78-.41-1.31-1.13-1.45-.7-.13-1.26.11-1.55.81-.03.03-.04.07-.02.11-.24.28-.11.61-.13.92-.06,1.15.1,2.3-.09,3.44-.07,0-.14,0-.21,0-1.05-.04-2.09-.08-3.14.03-.32.02-.56.17-.74.44-.51.5-.47,1.06-.14,1.64.04.16.12.27.27.31.17.26.45.37.7.37,1.71.02,3.42.16,5.13-.07.75-.16,1.04-.7,1.05-1.4.02-1.71.01-3.42,0-5.13Zm-6.55-36.35c-.51-.65-1.3-.74-2.06-.19-1.56,1.13-2.29,2.69-2.37,4.59-.01,1.12.27,2.17.87,3.12.47.75,1.31.98,1.99.58.69-.4.88-1.22.47-2.02-.84-1.64-.61-2.82.78-4.03.67-.59.8-1.41.31-2.04Zm4.78-50.37c-.76-.4-1.58-.6-2.42-.69-.22,0-.45-.02-.67,0-2.73.09-5.09,1.97-5.83,4.64-.72,2.58.38,5.46,2.64,6.9,3.01,1.92,6.97,1.01,8.79-2.02,1.88-3.12.79-6.97-2.5-8.82Zm-.19,7.4c-.75,1.15-2.36,1.68-3.68,1.23-1.45-.49-2.34-1.84-2.22-3.33.14-1.69,1.46-2.84,3.43-2.98.03,0,.07,0,.1-.01.41.33.94.26,1.43.32.06.33.36.45.56.67,1.08,1.14,1.24,2.79.38,4.11Zm66.11,76.43c-2.8-1.1-5.79-.21-7.56,2.22-2.72,3.74-.97,9.26,3.31,10.47,1.03.37,2.07.44,3.14.16.7-.35,1.53-.42,2.19-.87,1.78-1.21,2.72-2.92,2.98-5.03.36-2.93-1.38-5.91-4.06-6.95Zm.43,8.72c-.88,1.13-2.06,1.67-3.48,1.38-1.47-.3-2.37-1.28-2.82-2.69-.06-.19-.11-.38-.16-.57-.01-.14-.02-.27-.03-.41.16-1.45.68-2.7,2.04-3.43,1.48-.8,3.22-.45,4.32.83,1.18,1.37,1.24,3.46.12,4.9Zm-.43-8.72c-2.8-1.1-5.79-.21-7.56,2.22-2.72,3.74-.97,9.26,3.31,10.47,1.03.37,2.07.44,3.14.16.7-.35,1.53-.42,2.19-.87,1.78-1.21,2.72-2.92,2.98-5.03.36-2.93-1.38-5.91-4.06-6.95Zm.43,8.72c-.88,1.13-2.06,1.67-3.48,1.38-1.47-.3-2.37-1.28-2.82-2.69-.06-.19-.11-.38-.16-.57-.01-.14-.02-.27-.03-.41.16-1.45.68-2.7,2.04-3.43,1.48-.8,3.22-.45,4.32.83,1.18,1.37,1.24,3.46.12,4.9ZM102.05,15.51c-.76-.4-1.58-.6-2.42-.69-.22,0-.45-.02-.67,0-2.73.09-5.09,1.97-5.83,4.64-.72,2.58.38,5.46,2.64,6.9,3.01,1.92,6.97,1.01,8.79-2.02,1.88-3.12.79-6.97-2.5-8.82Zm-.19,7.4c-.75,1.15-2.36,1.68-3.68,1.23-1.45-.49-2.34-1.84-2.22-3.33.14-1.69,1.46-2.84,3.43-2.98.03,0,.07,0,.1-.01.41.33.94.26,1.43.32.06.33.36.45.56.67,1.08,1.14,1.24,2.79.38,4.11Zm-4.59,42.97c-.51-.65-1.3-.74-2.06-.19-1.56,1.13-2.29,2.69-2.37,4.59-.01,1.12.27,2.17.87,3.12.47.75,1.31.98,1.99.58.69-.4.88-1.22.47-2.02-.84-1.64-.61-2.82.78-4.03.67-.59.8-1.41.31-2.04Zm6.55,36.35c0-.78-.41-1.31-1.13-1.45-.7-.13-1.26.11-1.55.81-.03.03-.04.07-.02.11-.24.28-.11.61-.13.92-.06,1.15.1,2.3-.09,3.44-.07,0-.14,0-.21,0-1.05-.04-2.09-.08-3.14.03-.32.02-.56.17-.74.44-.51.5-.47,1.06-.14,1.64.04.16.12.27.27.31.17.26.45.37.7.37,1.71.02,3.42.16,5.13-.07.75-.16,1.04-.7,1.05-1.4.02-1.71.01-3.42,0-5.13Zm0,0c0-.78-.41-1.31-1.13-1.45-.7-.13-1.26.11-1.55.81-.03.03-.04.07-.02.11-.24.28-.11.61-.13.92-.06,1.15.1,2.3-.09,3.44-.07,0-.14,0-.21,0-1.05-.04-2.09-.08-3.14.03-.32.02-.56.17-.74.44-.51.5-.47,1.06-.14,1.64.04.16.12.27.27.31.17.26.45.37.7.37,1.71.02,3.42.16,5.13-.07.75-.16,1.04-.7,1.05-1.4.02-1.71.01-3.42,0-5.13Zm-6.55-36.35c-.51-.65-1.3-.74-2.06-.19-1.56,1.13-2.29,2.69-2.37,4.59-.01,1.12.27,2.17.87,3.12.47.75,1.31.98,1.99.58.69-.4.88-1.22.47-2.02-.84-1.64-.61-2.82.78-4.03.67-.59.8-1.41.31-2.04Zm-1.59-29.24c0-.12,0-.25,0-.37,0,.17,0,.34-.02.5,0,.06,0,.13-.01.19,0,.16-.02.32-.04.47.13-.26.06-.53.07-.8Zm.09-4.65c-.21.7-.06,1.41-.09,2.12-.03.67,0,1.34,0,2.01.02-1.38-.04-2.75.08-4.12Zm6.28-16.47c-.76-.4-1.58-.6-2.42-.69-.22,0-.45-.02-.67,0-2.73.09-5.09,1.97-5.83,4.64-.72,2.58.38,5.46,2.64,6.9,3.01,1.92,6.97,1.01,8.79-2.02,1.88-3.12.79-6.97-2.5-8.82Zm-.19,7.4c-.75,1.15-2.36,1.68-3.68,1.23-1.45-.49-2.34-1.84-2.22-3.33.14-1.69,1.46-2.84,3.43-2.98.03,0,.07,0,.1-.01.41.33.94.26,1.43.32.06.33.36.45.56.67,1.08,1.14,1.24,2.79.38,4.11Zm63.65,5.48l.02.45c.14-.16.14-.31-.02-.45Zm2.45,70.95c-2.8-1.1-5.79-.21-7.56,2.22-2.72,3.74-.97,9.26,3.31,10.47,1.03.37,2.07.44,3.14.16.7-.35,1.53-.42,2.19-.87,1.78-1.21,2.72-2.92,2.98-5.03.36-2.93-1.38-5.91-4.06-6.95Zm.43,8.72c-.88,1.13-2.06,1.67-3.48,1.38-1.47-.3-2.37-1.28-2.82-2.69-.06-.19-.11-.38-.16-.57-.01-.14-.02-.27-.03-.41.16-1.45.68-2.7,2.04-3.43,1.48-.8,3.22-.45,4.32.83,1.18,1.37,1.24,3.46.12,4.9Zm-.43-8.72c-2.8-1.1-5.79-.21-7.56,2.22-2.72,3.74-.97,9.26,3.31,10.47,1.03.37,2.07.44,3.14.16.7-.35,1.53-.42,2.19-.87,1.78-1.21,2.72-2.92,2.98-5.03.36-2.93-1.38-5.91-4.06-6.95Zm.43,8.72c-.88,1.13-2.06,1.67-3.48,1.38-1.47-.3-2.37-1.28-2.82-2.69-.06-.19-.11-.38-.16-.57-.01-.14-.02-.27-.03-.41.16-1.45.68-2.7,2.04-3.43,1.48-.8,3.22-.45,4.32.83,1.18,1.37,1.24,3.46.12,4.9ZM102.05,15.51c-.76-.4-1.58-.6-2.42-.69-.22,0-.45-.02-.67,0-2.73.09-5.09,1.97-5.83,4.64-.72,2.58.38,5.46,2.64,6.9,3.01,1.92,6.97,1.01,8.79-2.02,1.88-3.12.79-6.97-2.5-8.82Zm-.19,7.4c-.75,1.15-2.36,1.68-3.68,1.23-1.45-.49-2.34-1.84-2.22-3.33.14-1.69,1.46-2.84,3.43-2.98.03,0,.07,0,.1-.01.41.33.94.26,1.43.32.06.33.36.45.56.67,1.08,1.14,1.24,2.79.38,4.11Zm-4.59,42.97c-.51-.65-1.3-.74-2.06-.19-1.56,1.13-2.29,2.69-2.37,4.59-.01,1.12.27,2.17.87,3.12.47.75,1.31.98,1.99.58.69-.4.88-1.22.47-2.02-.84-1.64-.61-2.82.78-4.03.67-.59.8-1.41.31-2.04Zm6.55,36.35c0-.78-.41-1.31-1.13-1.45-.7-.13-1.26.11-1.55.81-.03.03-.04.07-.02.11-.24.28-.11.61-.13.92-.06,1.15.1,2.3-.09,3.44-.07,0-.14,0-.21,0-1.05-.04-2.09-.08-3.14.03-.32.02-.56.17-.74.44-.51.5-.47,1.06-.14,1.64.04.16.12.27.27.31.17.26.45.37.7.37,1.71.02,3.42.16,5.13-.07.75-.16,1.04-.7,1.05-1.4.02-1.71.01-3.42,0-5.13Zm-6.55-36.35c-.51-.65-1.3-.74-2.06-.19-1.56,1.13-2.29,2.69-2.37,4.59-.01,1.12.27,2.17.87,3.12.47.75,1.31.98,1.99.58.69-.4.88-1.22.47-2.02-.84-1.64-.61-2.82.78-4.03.67-.59.8-1.41.31-2.04Zm-1.59-29.24c0-.12,0-.25,0-.37,0,.17,0,.34-.02.5,0,.06,0,.13-.01.19,0,.16-.02.32-.04.47.13-.26.06-.53.07-.8Zm.09-4.65c-.21.7-.06,1.41-.09,2.12-.03.67,0,1.34,0,2.01.02-1.38-.04-2.75.08-4.12Zm6.28-16.47c-.76-.4-1.58-.6-2.42-.69-.22,0-.45-.02-.67,0-2.73.09-5.09,1.97-5.83,4.64-.72,2.58.38,5.46,2.64,6.9,3.01,1.92,6.97,1.01,8.79-2.02,1.88-3.12.79-6.97-2.5-8.82Zm-.19,7.4c-.75,1.15-2.36,1.68-3.68,1.23-1.45-.49-2.34-1.84-2.22-3.33.14-1.69,1.46-2.84,3.43-2.98.03,0,.07,0,.1-.01.41.33.94.26,1.43.32.06.33.36.45.56.67,1.08,1.14,1.24,2.79.38,4.11Zm63.65,5.48l.02.45c.14-.16.14-.31-.02-.45Zm-63.46-12.88c-.76-.4-1.58-.6-2.42-.69-.22,0-.45-.02-.67,0-2.73.09-5.09,1.97-5.83,4.64-.72,2.58.38,5.46,2.64,6.9,3.01,1.92,6.97,1.01,8.79-2.02,1.88-3.12.79-6.97-2.5-8.82Zm-.19,7.4c-.75,1.15-2.36,1.68-3.68,1.23-1.45-.49-2.34-1.84-2.22-3.33.14-1.69,1.46-2.84,3.43-2.98.03,0,.07,0,.1-.01.41.33.94.26,1.43.32.06.33.36.45.56.67,1.08,1.14,1.24,2.79.38,4.11Zm-4.59,42.97c-.51-.65-1.3-.74-2.06-.19-1.56,1.13-2.29,2.69-2.37,4.59-.01,1.12.27,2.17.87,3.12.47.75,1.31.98,1.99.58.69-.4.88-1.22.47-2.02-.84-1.64-.61-2.82.78-4.03.67-.59.8-1.41.31-2.04Zm-1.59-29.24c0-.12,0-.25,0-.37,0,.17,0,.34-.02.5,0,.06,0,.13-.01.19,0,.16-.02.32-.04.47.13-.26.06-.53.07-.8Zm.09-4.65c-.21.7-.06,1.41-.09,2.12-.03.67,0,1.34,0,2.01.02-1.38-.04-2.75.08-4.12Zm6.28-16.47c-.76-.4-1.58-.6-2.42-.69-.22,0-.45-.02-.67,0-2.73.09-5.09,1.97-5.83,4.64-.72,2.58.38,5.46,2.64,6.9,3.01,1.92,6.97,1.01,8.79-2.02,1.88-3.12.79-6.97-2.5-8.82Zm-.19,7.4c-.75,1.15-2.36,1.68-3.68,1.23-1.45-.49-2.34-1.84-2.22-3.33.14-1.69,1.46-2.84,3.43-2.98.03,0,.07,0,.1-.01.41.33.94.26,1.43.32.06.33.36.45.56.67,1.08,1.14,1.24,2.79.38,4.11Zm63.65,5.48l.02.45c.14-.16.14-.31-.02-.45Zm-63.46-12.88c-.76-.4-1.58-.6-2.42-.69-.22,0-.45-.02-.67,0-2.73.09-5.09,1.97-5.83,4.64-.72,2.58.38,5.46,2.64,6.9,3.01,1.92,6.97,1.01,8.79-2.02,1.88-3.12.79-6.97-2.5-8.82Zm-.19,7.4c-.75,1.15-2.36,1.68-3.68,1.23-1.45-.49-2.34-1.84-2.22-3.33.14-1.69,1.46-2.84,3.43-2.98.03,0,.07,0,.1-.01.41.33.94.26,1.43.32.06.33.36.45.56.67,1.08,1.14,1.24,2.79.38,4.11Zm.19-7.4c-.76-.4-1.58-.6-2.42-.69-.22,0-.45-.02-.67,0-2.73.09-5.09,1.97-5.83,4.64-.72,2.58.38,5.46,2.64,6.9,3.01,1.92,6.97,1.01,8.79-2.02,1.88-3.12.79-6.97-2.5-8.82Zm-.19,7.4c-.75,1.15-2.36,1.68-3.68,1.23-1.45-.49-2.34-1.84-2.22-3.33.14-1.69,1.46-2.84,3.43-2.98.03,0,.07,0,.1-.01.41.33.94.26,1.43.32.06.33.36.45.56.67,1.08,1.14,1.24,2.79.38,4.11Zm63.65,5.48l.02.45c.14-.16.14-.31-.02-.45Zm-63.46-12.88c-.76-.4-1.58-.6-2.42-.69-.22,0-.45-.02-.67,0-2.73.09-5.09,1.97-5.83,4.64-.72,2.58.38,5.46,2.64,6.9,3.01,1.92,6.97,1.01,8.79-2.02,1.88-3.12.79-6.97-2.5-8.82Zm-.19,7.4c-.75,1.15-2.36,1.68-3.68,1.23-1.45-.49-2.34-1.84-2.22-3.33.14-1.69,1.46-2.84,3.43-2.98.03,0,.07,0,.1-.01.41.33.94.26,1.43.32.06.33.36.45.56.67,1.08,1.14,1.24,2.79.38,4.11Z"></path>
      <path class="cls-2" d="m184.81,96.06c-.04.77-.63.46-.93.37-.27-.09-.4-.17-.68.01-.49.32-1.02.09-1.26-.47-.37-.85-.05-1.83.77-2.41.28-.2.65-.29.8-.64.09-.21.16-.46-.12-.57-.24-.09-.36.1-.39.32-.11.67-.63.35-.95.34-.43-.01-.25-.42-.22-.64.15-1,1.18-1.46,2.27-1.02.18.07.32.24.52.06.22.6-.07,1.06-.42,1.51-.03.04-.03.08-.03.13-.01.02-.03.04-.03.06,0,.6.44,1.9.84,2.57-.03.14-.08.27-.18.37Z"></path>
      <path class="cls-2" d="m207.94,37.66c0-1.76.01-3.53-.02-5.29,0-.48.18-.57.61-.57.44,0,.6.12.61.58.02.8-.18,1.62.11,2.42.08.19-.07.31-.14.45-.13.78-.39,1.5-.94,2.09-.08.11-.16.22-.24.33Z"></path>
      <path class="cls-2" d="m210.63,152.66c-.39,0-.78,0-1.17-.01.19-.5.63-.74,1.04-1.01.18-.12.39-.22.49-.44.09-.2.1-.42-.09-.53-.24-.14-.38.04-.41.26-.12.71-.68.4-.99.35-.39-.06-.22-.48-.15-.74.18-.74.63-1.06,1.39-1.04.25,0,.49.01.74.02.02.81.1,1.62-.11,2.41-.05.43-.37.61-.73.74Z"></path>
      <path class="cls-2" d="m199.56,138.06c2.2.02,4.41.03,6.61.06,1.38.02,2.77-.09,4.15.07-.21.24-.5.11-.75.15-.11.07-.23.07-.36.07-3.15,0-6.29,0-9.44,0-.12,0-.25,0-.36-.07,0-.06,0-.12,0-.18.05-.03.09-.06.14-.09Z"></path>
      <path class="cls-2" d="m211.37,139.22v9.81c-.23-.33-.15-.57-.15-.8,0-2.79,0-5.57,0-8.36,0-.26-.09-.55.12-.79.02.04.03.09.03.14Z"></path>
      <path class="cls-2" d="m185.2,96.07c.01.09.03.17.04.26-.35.25-.25-.25-.44-.26-.02-.12-.04-.25.12-.3.05.05.1.1.15.15,0,.09.03.14.12.16Z"></path>
      <path class="cls-2" d="m132.65,138.33c-.7.18-1.36.46-2.12.46-21.17-.02-42.35-.02-63.52,0-.71,0-1.73-.41-1.71,1.05.05-.55-.37-.92-.21-1.38.13-.18.3-.25.51-.25.24.1.49.05.74.05,21.96,0,43.93,0,65.89,0,.15,0,.3-.03.42.08Z"></path>
      <path class="cls-2" d="m132.65,138.33c-22.02,0-44.03,0-66.05,0-.34,0-.7.12-1.01-.12.23-.13.49-.08.73-.08,21.77,0,43.54,0,65.3,0,.35,0,.7.05,1.03-.08.14.11.13.2-.01.29Z"></path>
      <path class="cls-2" d="m166.88,34.79c.19-.45.43-.83.99-.88.66-.06,1.06.23,1.1.9.04.64-.05,1.3.04,1.94.11.77-.26.82-.83.72-.15-.16-.34-.3-.28-.56.06-.26.11-.53.18-.78-.14.19-.11.46-.32.62-.2-.4-.4-.79-.6-1.19.22-.16.5-.2.74-.44-.3.1-.52.26-.77.32-.17-.18-.19-.42-.24-.65Z"></path>
      <path class="cls-2" d="m87.25,114.87c.22-.24.51-.14.78-.14,7,0,14,0,21,0,.26,0,.55-.1.77.14-.17.02-.34.05-.52.05-7.17,0-14.35,0-21.52,0-.17,0-.34-.03-.51-.05Z"></path>
      <path class="cls-2" d="m140.13,112.04c.2.17.14.41.14.63,0,2.97,0,5.93,0,8.9,0,.22.06.45-.14.63,0-3.38,0-6.77,0-10.15Z"></path>
      <path class="cls-2" d="m167.12,35.44c.04-.46.74-.25.76-.73.09.02.21,0,.26.06.05.06.07.22.03.26-.27.3-.48.71-1.01.53-.01-.04-.03-.08-.04-.12Z"></path>
      <path class="cls-2" d="m110.26,71.11c-.28-.64-.24-1.29-.02-1.94.11.65.17,1.29.02,1.94Z"></path>
      <path class="cls-2" d="m167.76,36.75c-.03-.33-.02-.64.39-.79.11.38.15.72-.25.95-.05-.06-.09-.11-.14-.17Z"></path>
      <path class="cls-2" d="m102.05,15.51c-.76-.4-1.58-.6-2.42-.69-.22,0-.45-.02-.67,0-2.73.09-5.09,1.97-5.83,4.64-.72,2.58.38,5.46,2.64,6.9,3.01,1.92,6.97,1.01,8.79-2.02,1.88-3.12.79-6.97-2.5-8.82Zm-.19,7.4c-.75,1.15-2.36,1.68-3.68,1.23-1.45-.49-2.34-1.84-2.22-3.33.14-1.69,1.46-2.84,3.43-2.98.03,0,.07,0,.1-.01.41.33.94.26,1.43.32.06.33.36.45.56.67,1.08,1.14,1.24,2.79.38,4.11Z"></path>
      <path class="cls-2" d="m165.66,28.8h0c-.04.12-.08.23-.16.32h0c-.27.17-.58.08-.87.08-22.74,0-45.47,0-68.21,0-.42,0-.84.1-1.26-.06.42,0,.85,0,1.27,0h67.88c.39,0,.79-.01,1.18-.02,0-.1.02-.19.03-.29l-.02-.45v-.15c-.19-.95-.09-1.89.01-2.83.18.54-.06,1.07-.02,1.6.02.37,0,.73.13,1.08h0s.02.09.02.12c0,.04.01.08.02.12,0,.03,0,.07,0,.11.01.12,0,.24-.03.37Z"></path>
      <path class="cls-2" d="m167.97,99.34c-2.8-1.1-5.79-.21-7.56,2.22-2.72,3.74-.97,9.26,3.31,10.47,1.03.37,2.07.44,3.14.16.7-.35,1.53-.42,2.19-.87,1.78-1.21,2.72-2.92,2.98-5.03.36-2.93-1.38-5.91-4.06-6.95Zm.43,8.72c-.88,1.13-2.06,1.67-3.48,1.38-1.47-.3-2.37-1.28-2.82-2.69-.06-.19-.11-.38-.16-.57-.01-.14-.02-.27-.03-.41.16-1.45.68-2.7,2.04-3.43,1.48-.8,3.22-.45,4.32.83,1.18,1.37,1.24,3.46.12,4.9Z"></path>
      <path class="cls-2" d="m162.38,87.11c.13-.01.27-.02.4-.04-.12.15-.26.11-.4.04Z"></path>
      <path class="cls-2" d="m189.26,49.45c-.79.09-1.59.09-2.39,0,.8-.09,1.59-.11,2.39,0Z"></path>
      <path class="cls-2" d="m195.31,138.17c-.37-.11-.74-.02-1.1.04-.17.02-.34.05-.52.05-18.78-.01-37.56-.01-56.35,0-.22,0-.44-.02-.66-.04h0c-.22-.02-.43-.04-.65-.04.21-.12.44-.06.65-.06,19.29,0,38.6,0,57.89,0,.24,0,.5-.06.74.07Z"></path>
      <path class="cls-2" d="m103.83,107.35c0,.7-.29,1.24-1.05,1.4-1.71.23-3.42.09-5.13.07-.26,0-.54-.11-.7-.37-.16-.04-.24-.15-.27-.31-.33-.58-.37-1.13.14-1.64.17-.27.42-.42.74-.44,1.05-.11,2.09-.07,3.14-.03.07,0,.14,0,.21,0,.19-1.14.03-2.29.09-3.44.02-.31-.11-.64.13-.92-.02-.04,0-.08.02-.11.29-.7.85-.94,1.55-.81.72.14,1.12.67,1.13,1.45.01,1.71.02,3.42,0,5.13Z"></path>
      <path class="cls-2" d="m83.29,81.43c0-.11.02-.2.09-.27,0,4.52-.01,9.04-.01,13.56-.17-.19-.16-.41-.16-.64,0-4.22.12-8.43.07-12.65Z"></path>
      <path class="cls-2" d="m110.55,88.72c-.06,0-.12-.02-.17-.04-.06-.02-.1-.04-.15-.07-.06-.03-.11-.06-.16-.09-.05-.02-.11-.04-.16-.06-.06-.02-.12-.03-.19-.05-.04,0-.08-.02-.12-.03-1.97.04-3.94.06-5.91.07h-.5c-2.88.01-5.75,0-8.63,0-2.11,0-4.21-.01-6.32,0h-.01c-.22,0-.44.04-.65,0-.12-.02-.24-.06-.36-.14.2-.02.39-.05.59-.05,7.12,0,14.25,0,21.37,0,.25,0,.49.04.74.06.13-.02.23.03.32.13.16.02.25.13.29.29Z"></path>
      <path class="cls-2" d="m96.96,67.91c-1.39,1.21-1.62,2.39-.78,4.03.4.8.21,1.62-.47,2.02-.69.4-1.52.17-1.99-.58-.59-.95-.88-1.99-.87-3.12.07-1.9.81-3.46,2.37-4.59.75-.54,1.55-.45,2.06.19.49.62.36,1.45-.31,2.04Z"></path>
      <path class="cls-2" d="m95.77,31.98c-.12,1.37-.06,2.75-.08,4.12,0,.17,0,.36,0,.53,0,.27.06.54-.07.8.12,1.88.03,3.76.03,5.64,0,2.67-.03,5.35-.05,8.02-.34-.82-.15-1.67-.11-2.49.07-1.66.03-3.32.05-4.98.02-2.06,0-4.12,0-6.18.04-.47.07-.93.07-1.41v-.07c0-.46,0-.92,0-1.38v-.22c0-.54-.01-1.08,0-1.62,0-.12-.01-.24,0-.37,0-.07,0-.14.03-.21.01-.02.02-.05.04-.07,0,0,.01-.01.02-.02.02-.03.05-.06.08-.08h0Z"></path>
      <path class="cls-2" d="m102.93,50.49c0-.59,0-1.19,0-1.79.11.6.11,1.2,0,1.79Z"></path>
      <path class="cls-2" d="m102.99,52.49c.02,1.93.01,3.84,0,5.77,0,.24.09.5-.1.71-.06-2.72-.03-5.45.03-8.17.15.55.06,1.12.06,1.69Z"></path>
      <path class="cls-2" d="m95.61,10.46c.22-.24.51-.14.78-.14,25.03,0,50.06,0,75.09,0,.27,0,.55-.05.8.1.08.05.21.1.03.18-.06.03-.15.01-.22.02-.28-.15-.59-.07-.88-.07-24.9,0-49.81,0-74.71,0-.29,0-.6.07-.88-.07Z"></path>
      <path class="cls-2" d="m95.61,10.46c25.18,0,50.37,0,75.55,0,.31,0,.65-.12.92.14-25.49,0-50.98,0-76.48,0-.05-.03-.06-.07-.05-.1.02-.03.03-.05.05-.05h0Z"></path>
      <path class="cls-2" d="m165.5,29.12h0c-.29.31-.65.16-.98.16-22.67,0-45.34,0-68.01-.01-.44,0-.93.31-1.35-.12.42,0,.85,0,1.27,0h67.88c.39,0,.79-.01,1.18-.02Z"></path>
      <path class="cls-2" d="m95.81,29.6h68.91s0,.05,0,.07h-68.94s.02-.05.03-.07Z"></path>
      <path class="cls-2" d="m133.8,140.67h-65.49s0-.04,0-.06h65.55s-.04.04-.05.06Z"></path>
      <path class="cls-2" d="m133.85,140.57v-.15c.26-.14.54-.07.81-.07,20.57,0,41.14,0,61.72,0,.27,0,.55-.07.81.07-.27.27-.62.14-.92.14-20.8,0-41.6,0-62.41,0Z"></path>
      <path class="cls-2" d="m197.18,140.42h-63.33c.22-.24.51-.15.77-.15,20.59,0,41.19,0,61.78,0,.26,0,.55-.1.77.15Z"></path>
      <path class="cls-2" d="m195.31,138.17c-.18.02-.36.04-.54.06-.12.07-.26.1-.39.11-.16.01-.32,0-.49,0h-56.76c-.16,0-.32.01-.47,0-.14,0-.27-.04-.4-.11-.07-.02-.15-.04-.22-.06.21-.12.44-.06.65-.06,19.29,0,38.6,0,57.89,0,.24,0,.5-.06.74.07Z"></path>
      <path class="cls-2" d="m136.26,138.22c.25,0,.5-.02.75-.02,19.01,0,38.02,0,57.02,0,.25,0,.5.02.75.02.01.04.02.07.02.11-.26.13-.54.07-.81.07-18.98,0-37.96,0-56.94,0-.27,0-.55.07-.81-.07,0-.04,0-.07.02-.11Z"></path>
      <path class="cls-2" d="m136.24,138.33c19.52,0,39.03,0,58.55,0-.27.27-.62.14-.92.14-19.21,0-38.42,0-57.62,0v-.15Z"></path>
      <path class="cls-2" d="m204.51,37.81c.99-1.5,1.78-3.1,2.35-4.81.54.58.68,1.28.63,2.05-.05.79-.02,1.58,0,2.38,0,.23-.11.5.16.68,0,.12-.02.23-.15.29-.58-.1-1.11-.55-1.77-.14-.53.33-.8-.32-1.22-.45Z"></path>
      <path class="cls-2" d="m143.11,121.6s-.06,0-.07-.02c-.03-.03-.04-.06-.07-.09.19-.01.38-.04.57-.04,14.63,0,29.27,0,43.9.01.22,0,.88-.37.61.43-.31-.29-.69-.23-1.06-.23-14.34,0-28.67,0-43.01,0-.29,0-.6.07-.88-.07Z"></path>
      <path class="cls-2" d="m143.11,121.6c14.72,0,29.44,0,44.15,0,.28,0,.68-.2.8.29-.03.06-.07.11-.1.17-.26-.41-.68-.31-1.06-.31-14.29,0-28.58,0-42.87,0-.31,0-.65.13-.92-.14Z"></path>
      <path class="cls-2" d="m71.7,149.85c.81,0,1.61,0,2.42,0,.68.88.65,1.83.27,2.81-.89,0-1.78,0-2.67.01-.04-.47.35-.61.63-.84.21-.17.46-.29.66-.47.17-.15.25-.37.16-.61-.04-.1-.12-.16-.23-.15-.26.02-.28.22-.34.42-.17.56-.63.24-.93.25-.39.01-.25-.35-.21-.57.05-.29.16-.57.25-.85Z"></path>
      <path class="cls-2" d="m95.69,36.11c0,.44-.02.88-.07,1.33.12,1.88.03,3.76.03,5.64,0,2.67-.03,5.35-.05,8.02-.32.01-.45.27-.63.47-.14.15-.32.16-.46.02-.14-.14-.13-.36.04-.46.97-.57.72-1.52.77-2.39.32-5.04.06-10.09.14-15.13,0-.39.02-.79-.11-1.18-.07-.22.04-.47.21-.66.07.07.13.13.2.2h0c-.21.7-.06,1.41-.09,2.12-.03.67,0,1.34,0,2.01Z"></path>
      <path class="cls-2" d="m207.92,149.85c.61.07.84-.19.75-.79-.03-.24.01-.49.02-.73.48-.08.44.25.44.55,0,1.26,0,2.52-.01,3.78-.39,0-.78,0-1.16,0-.39-.93-.36-1.87-.03-2.8Z"></path>
      <path class="cls-2" d="m109.95,88.3c0,.07-.02.12-.03.15-.05.08-.14.06-.26-.01h-.9c-.21.12-.44.07-.65.07h-20.19c-.22,0-.45.06-.66-.07,0-.04,0-.09,0-.14.2-.02.39-.05.59-.05,7.12,0,14.25,0,21.37,0,.25,0,.49.04.74.06Z"></path>
      <path class="cls-2" d="m87.25,88.44c7.17,0,14.34,0,21.51,0-.22.24-.51.14-.77.14-6.65,0-13.31,0-19.96,0-.26,0-.55.1-.77-.15Z"></path>
      <path class="cls-2" d="m89.39,90.85h18.27s0,.05,0,.07h-18.3s.02-.05.03-.07Z"></path>
      <path class="cls-2" d="m80.82,80.23s0-.06.01-.07c.03-.03.06-.05.09-.07.01.17.04.33.04.5,0,4.48,0,8.95,0,13.43,0,.24.08.5-.15.7-.11-.16-.07-.34-.07-.51,0-4.49,0-8.98,0-13.47,0-.17-.03-.35.07-.51Z"></path>
      <path class="cls-2" d="m80.82,80.23c0,4.83,0,9.66,0,14.48-.22-.2-.13-.46-.13-.7,0-4.36,0-8.72,0-13.08,0-.24-.09-.5.13-.7Z"></path>
      <path class="cls-2" d="m83.39,81.16c0,4.52-.01,9.04-.01,13.56h-.16c-.12-1.64-.12-3.29,0-4.93,0-2.82,0-5.64,0-8.46,0-.06.02-.13.04-.2.04.01.09.02.13.03Z"></path>
      <path class="cls-2" d="m86.24,113.37v-12.51s.05,0,.07,0v12.51s-.05,0-.07,0Z"></path>
      <path class="cls-2" d="m191.04,111.74c0,3.53,0,7.07,0,10.6-.21-.17-.15-.41-.15-.62,0-3.12,0-6.24,0-9.36,0-.22-.06-.45.14-.63Z"></path>
      <path class="cls-2" d="m188.51,111.17v9.87s-.04,0-.06,0v-9.85s.04-.02.06-.03Z"></path>
      <path class="cls-2" d="m142.68,120.95v-9.91s.05,0,.07,0v9.94s-.05-.02-.07-.03Z"></path>
      <path class="cls-2" d="m199.42,138.33c3.38,0,6.77,0,10.15,0-.1.13-.25.15-.4.15-3.2,0-6.4,0-9.6,0-.05,0-.1,0-.14-.03-.02-.02-.01-.08-.02-.12Z"></path>
      <path class="cls-2" d="m67.4,149.82c-.39.2-.31-.11-.31-.3,0-.94,0-1.88,0-2.83,0-1.78,0-3.56.12-5.35,0,.2.03.39.03.59,0,2.38,0,4.76,0,7.14,0,.26-.12.55.17.75,0,0,0-.01,0-.01Z"></path>
      <path class="cls-2" d="m103.08,51.2c0,2.54,0,5.07,0,7.61,0,.07-.02.13-.04.2l-.13-.04c-.06-2.72-.03-5.45.03-8.17.13.1.15.25.15.4Z"></path>
      <path class="cls-2" d="m83.21,89.78c0,1.64,0,3.29,0,4.93-.16-.12-.14-.3-.15-.47-.08-1.5.14-3.01-.11-4.51-.04-.24.16.08.26.05Z"></path>
      <path class="cls-2" d="m165.66,28.21s-.08.02-.15.02c-.19-.95-.09-1.89.01-2.83.29.83.06,1.69.14,2.54.07.13.09.23,0,.27Z"></path>
      <path class="cls-2" d="m189.26,49.45c-.79.09-1.59.09-2.39,0,.8-.22,1.59-.23,2.39,0Z"></path>
      <path class="cls-2" d="m165.97,28.66c.07.41-.16.47-.47.47h0c0-.11.02-.19.03-.29.14-.16.14-.31-.02-.45v-.15c.07-.04.11-.09.12-.14h0s.02-.11.02-.16c.22.19.26.45.31.72Z"></path>
      <path class="cls-2" d="m102.93,50.49c0-.59,0-1.19,0-1.79.22.6.23,1.2,0,1.79Z"></path>
      <path class="cls-2" d="m210.62,25.85c.06.55.11,1.1.01,1.64-.26-.55-.24-1.09-.01-1.64Z"></path>
      <path class="cls-2" d="m110.4,89.19l-.75-.75s.05-.02.07-.04c.07-.03.14-.07.22-.1.13-.02.23.03.32.13.02.08.07.16.12.24.09.16.15.32.02.51Z"></path>
      <path class="cls-2" d="m95.61,10.46s0,.1,0,.15c-.38,0-.74-.05-1.04-.3.08-.01.16-.02.24-.03.27.06.54.12.8.18Z"></path>
      <path class="cls-2" d="m110.4,89.19c.11-.22-.14-.39-.17-.59-.01-.05,0-.11.03-.17.16.02.25.13.29.29-.01.17.02.35-.15.47Z"></path>
      <path class="cls-2" d="m80.71,95.73v-.7s.05,0,.07,0v.7s-.05,0-.07,0Z"></path>
      <path class="cls-2" d="m185.52,7.16c-.18.02-.35.04-.53.05-.12-.02-.23-.04-.35-.06.3-.1.59-.23.87,0Z"></path>
      <path class="cls-2" d="m190.05,4.31c.13,0,.27.02.4.03-.28.25-.59.13-.9.05.17-.02.33-.05.5-.07Z"></path>
      <path class="cls-2" d="m163.23,87.17c-.36.09-.62.15-.85-.06.13-.01.27-.02.4-.04.11.03.23.06.44.1Z"></path>
      <path class="cls-2" d="m190.91,46.48c.13-.02.26-.03.4-.05.06.03.16.04.18.09.03.1-.07.08-.12.08-.16,0-.33.03-.46-.12Z"></path>
      <path class="cls-2" d="m136.3,138.48c-.28.16-.44.21-.63-.03.22,0,.4.02.63.03Z"></path>
      <path class="cls-2" d="m83.06,95.11c.03.06.09.12.09.18,0,.09-.08.14-.15.09-.05-.03-.06-.13-.06-.19,0-.02.07-.04.12-.07Z"></path>
      <path class="cls-2" d="m87.56,149.85c.3,0,.6-.02.89-.02,38.48,0,76.95,0,115.43,0,.3,0,.6.01.9.02.14.25,0,.48-.04.72-.03.21-.05.41.19.5.21.08.39.01.54-.15.03-.04.06-.08.09-.12.18-.24.39-.44.67-.18.28.26.18.57-.05.79-.46.45-.96.86-1.5,1.22-.17.01-.35.03-.52.03-11.5,0-23.01,0-34.51,0-.2,0-.4-.02-.59-.03-.38-.23-.19-.62-.25-.94-.07-.37,0-.82-.48-.99-.48-.18-.86,0-1.16.39-.14.24-.14.42.18.49.17.04.34.06.44.23-.05.45-.41.62-.74.81-.55.01-1.09.03-1.64.03-13.76,0-27.52,0-41.27,0-.23-.25-.17-.55-.15-.84.03-.43.05-.88-.4-1.1-.48-.23-.91-.06-1.26.32-.22.26-.17.46.15.55.47.13.34.38.16.65-.08.15-.15.3-.28.42-11.61,0-23.22,0-34.83-.01-.33-.94-.37-1.87.04-2.8Z"></path>
      <path class="cls-2" d="m79.61,149.86c1.51,0,3.01,0,4.52,0,.56.91.45,1.85.11,2.8h-1.16c-.42-.44-.07-1.03-.32-1.55-.25.51.1,1.11-.32,1.55-.39,0-.77,0-1.16,0-.4-.45-.13-1-.24-1.46-.11.46.16,1.01-.24,1.46-.39,0-.77,0-1.16,0-.4-.93-.36-1.86-.04-2.8Z"></path>
      <path class="cls-2" d="m204.69,152.64c.19-.5.64-.74,1.04-1.02.23-.16.46-.3.53-.59.04-.15,0-.31-.16-.38-.17-.08-.33,0-.35.16-.09.78-.72.59-1.06.45-.42-.17-.14-.64-.06-.98.04-.14.09-.28.14-.42.81,0,1.62,0,2.43,0,.57.63.7,1.96.26,2.81-.93,0-1.85-.01-2.78-.02Z"></path>
      <path class="cls-2" d="m76.48,149.85h2.42c.68.88.65,1.83.27,2.81-.93,0-1.86,0-2.79-.01-.09-.49.31-.67.6-.92.24-.2.58-.29.7-.64-.21.06-.24.33-.46.37-.34.07-.71.14-.99-.1-.31-.26-.21-.62-.12-.96.06-.22.2-.39.37-.54Z"></path>
      <path class="cls-2" d="m122.18,151.03c.3-.65.86-.71,1.43-.52.57.18.62.69.58,1.21-.02.32-.04.64-.06.95-.59,0-1.19,0-1.78,0-.06-.19.01-.33.14-.46.16-.21.45-.29.54-.56-.89.14-.93.11-.86-.62Z"></path>
      <path class="cls-2" d="m87.56,149.85c-.01.93-.02,1.87-.04,2.8-.39,0-.77,0-1.16,0-.41-.93-.37-1.87-.03-2.81.41,0,.82,0,1.22,0Z"></path>
      <path class="cls-2" d="m84.54,149.85h1.22c.34.94.38,1.87-.03,2.81-.39,0-.77,0-1.16,0-.29-.93-.24-1.87-.04-2.8Z"></path>
      <path class="cls-2" d="m74.83,149.86c.41,0,.82,0,1.23,0-.03.94.45,1.88-.03,2.81-.39,0-.77,0-1.16,0-.4-.93-.36-1.86-.04-2.8Z"></path>
      <path class="cls-2" d="m166.99,151.03c.29-.54.74-.68,1.31-.55.59.13.67.57.69,1.07.01.37.04.73.07,1.09-.67,0-1.34,0-2.01,0,.13-.34.43-.52.69-.73.1-.14.27-.29-.12-.22-.5.09-.86,0-.64-.65Z"></path>
      <path class="cls-2" d="m76.03,152.66c.01-.94.02-1.87.03-2.81.14,0,.28,0,.42,0-.06.19-.15.37-.19.56-.05.29-.3.73.1.83.31.08.92.4,1.03-.37.03-.19.17-.32.38-.25.25.09.21.31.15.5-.1.31-.38.45-.63.6-.39.24-.74.49-.93.92-.12,0-.23,0-.35.01Z"></path>
      <path class="cls-2" d="m85.74,152.66c0-.94.02-1.87.03-2.81.19,0,.38,0,.57,0,0,.94.02,1.87.03,2.81-.21,0-.42,0-.63,0Z"></path>
      <path class="cls-2" d="m74.83,149.86c.01.93.02,1.87.04,2.8-.16,0-.32,0-.48,0,.01-.95.11-1.9-.27-2.81.24,0,.48,0,.71,0Z"></path>
      <path class="cls-2" d="m79.17,152.66c.01-.95.11-1.9-.27-2.81.24,0,.48,0,.71,0,.01.93.02,1.87.04,2.8-.16,0-.32,0-.48,0Z"></path>
      <path class="cls-2" d="m207.47,152.66c.01-.94.13-1.9-.26-2.81.24,0,.47,0,.71,0,.01.93.02,1.87.03,2.8-.16,0-.32,0-.48,0Z"></path>
      <path class="cls-2" d="m82.45,152.66c0-.54,0-1.08.02-1.62,0-.2.03-.42.29-.42.26,0,.29.23.29.42.02.54.02,1.08.02,1.62-.21,0-.42,0-.63,0Z"></path>
      <path class="cls-2" d="m80.81,152.66c0-.57.01-1.14.02-1.71,0-.15.02-.33.22-.33.19,0,.22.18.22.33.01.57.02,1.14.03,1.71-.16,0-.32,0-.48,0Z"></path>
      <path class="cls-2" d="m84.54,149.85c.01.93.02,1.87.04,2.8-.11,0-.23,0-.34,0,0-.94.11-1.88-.11-2.8.14,0,.28,0,.41,0Z"></path>
      <path class="cls-2" d="m183.59,94.15c0,.34,0,.59,0,.83,0,.23-.01.48-.34.44-.32-.04-.27-.31-.24-.52.04-.3.21-.54.58-.76Z"></path>
      <path class="cls-2" d="m65.94,138.5h65.32s0,.05,0,.07h-65.35s.02-.05.03-.07Z"></path>
      <path class="cls-2" d="m104.56,24.33c-1.83,3.03-5.78,3.94-8.79,2.02-2.26-1.45-3.36-4.32-2.64-6.9.74-2.67,3.1-4.54,5.83-4.64.22-.01.45,0,.67,0,.37.12.27.47.35.72.06.1.19.12.31.16h0s.07.02.11.04c.07.02.13.07.16.16h0s.01.04,0,.06c0,.03,0,.06,0,.1-.26.4-.6.76-.62,1.29-.01.27-.21.41-.45.45-.03,0-.07.01-.1.01-1.96.14-3.28,1.3-3.43,2.98-.12,1.5.77,2.84,2.22,3.33,1.33.45,2.93-.08,3.68-1.23.86-1.32.7-2.97-.38-4.11-.21-.21-.5-.34-.56-.67.88-.39.6-1.18.67-1.86.03-.3-.19-.82.46-.76,3.29,1.84,4.38,5.69,2.5,8.82Z"></path>
      <path class="cls-2" d="m101.79,16.08c-.04.31-.05.64,0,.95.11.69.01,1.19-.86,1.1-.49-.07-1.02,0-1.43-.32-.05-.04-.11-.09-.16-.15.21-.05.47-.01.43-.36-.07-.63.31-1,.77-1.32,0-.02.02-.05.02-.07h0c.06-.17.05-.17-.07-.17-.03,0-.06,0-.09,0-.26.02-.52.11-.75-.1.14-.28.23-.56-.02-.82.85.09,1.66.29,2.42.69-.39.04-.24.37-.27.57Z"></path>
      <path class="cls-2" d="m165.79,28.64c0,.1-.06.14-.12.17-.04.01-.09.02-.13.03l-.02-.45c.07,0,.13.02.18.05.06.03.1.09.09.2Z"></path>
      <path class="cls-2" d="m194.44,25.16c-.73-2.82-3.43-4.86-5.92-4.86-.45.01-.89.17-1.35.03-2.53.19-4.92,2.32-5.53,4.92-.45,1.93-.06,3.69.93,5.36,0,.17.11.26.25.32,2.49,2.88,6.01,3.15,8.73,1.48,2.42-1.49,3.6-4.5,2.88-7.25Zm-6.38,5.45c-2.04.02-3.74-1.69-3.76-3.76,0-2.07,1.66-3.76,3.73-3.78,2.05-.02,3.76,1.68,3.77,3.74.02,2.03-1.7,3.78-3.74,3.79Z"></path>
      <path class="cls-2" d="m188.52,20.3c-.44.28-.89.23-1.35.03.45-.1.89-.17,1.35-.03Z"></path>
      <path class="cls-2" d="m167.97,99.34c-2.8-1.1-5.79-.21-7.56,2.22-2.72,3.74-.97,9.26,3.31,10.47.06-.04.14-.08.21-.06.84.24,1.67.4,2.52,0,.17-.08.32.05.42.22.7-.35,1.53-.42,2.19-.87,1.78-1.21,2.72-2.92,2.98-5.03.36-2.93-1.38-5.91-4.06-6.95Zm.43,8.72c-.88,1.13-2.06,1.67-3.48,1.38-1.47-.3-2.37-1.28-2.82-2.69-.06-.19-.11-.38-.16-.57-.01-.14-.02-.27-.03-.41.16-1.45.68-2.7,2.04-3.43,1.48-.8,3.22-.45,4.32.83,1.18,1.37,1.24,3.46.12,4.9Z"></path>
      <path class="cls-2" d="m166.86,112.18c-1.07.29-2.11.22-3.14-.16.04-.27.18-.31.42-.21.75.31,1.46.45,2.21-.1.17-.13.79-.19.52.47Z"></path>
      <path class="cls-2" d="m103.28,102.67c.18-1.51.17-1.5-1.34-1.35-.38.04-.54.19-.57.49-.04-.09-.11-.16-.22-.22-.03.03-.04.07-.02.11-.13,1.23-.02,2.47-.07,3.71,0,.22.16.5-.16.65-.07,0-.14,0-.21,0l-.05.05s-.09.07-.13.11c0,0-.01,0-.01.01,0,0-.01.02-.02.02-.24.38-.62.19-.95.24-.9.12-1.81-.23-2.72.04-.51.5-.47,1.06-.14,1.64.19.06.37.07.56.07-.1.03-.2.1-.29.23.17.26.45.37.7.37,1.71.02,3.42.16,5.13-.07.07-.31-.08-.45-.37-.53-.08-.02-.16-.04-.24-.06.11.01.21.03.32.06.35.08.57-.14.69-.44.12-.28.11-.59.07-.88-.17-1.41-.16-2.82.02-4.24Zm-1.08,5.8s-.07.02-.11.02c0,0,0-.02,0-.04h0c-.03-.07.04-.02.08,0,.01,0,.02.01.03.01Zm-3.43-.39s-.02,0-.04,0c.02,0,.04,0,.06,0,.07,0,.14,0,.21,0h-.22Zm.98,0c.55,0,1.09-.04,1.64,0-.55,0-1.1,0-1.64,0Zm.96.3c-.7,0-1.41.01-2.12,0,.7,0,1.41-.02,2.12,0Zm-2.9-.07c-.06-.02-.12-.04-.17-.06.07,0,.13.01.2.02.04,0,.07.01.11.02.05.01.09.03.14.05-.06,0-.12,0-.18,0-.01,0-.02,0-.04-.01-.02,0-.04-.01-.06-.02Zm3.69.1h.02s.04.03.06.04c-.03-.01-.06-.02-.09-.04Z"></path>
      <path class="cls-2" d="m103.83,107.35c0,.7-.29,1.24-1.05,1.4-.26-.62-.83-.57-1.32-.59-.9-.02-1.79-.01-2.69-.08-.01,0-.02,0-.04,0-.13,0-.26-.02-.39-.03,1.3,0,2.62-.06,3.91.03.65.05.85-.17.82-.71-.05-.81-.16-1.62-.15-2.44.02-1.08.02-2.16.31-3.21.07-.29-.1-.45-.38-.27-.28.17-.57.18-.85.09-.5-.16-.59.13-.55.5.13,1.21-.16,2.42.04,3.63-.07,0-.14,0-.21,0,0-1.08,0-2.16,0-3.23,0-.29.11-.6-.13-.86.29-.7.85-.94,1.55-.81.72.14,1.12.67,1.13,1.45.01,1.71.02,3.42,0,5.13Z"></path>
      <path class="cls-2" d="m100.76,106.58c-1.34.17-2.64.09-3.94-.06.17-.27.42-.42.74-.44.7.16,1.41.01,2.12.07.28.02.57-.07.84.06,0,0,.02,0,.02.01.06.11.13.21.22.36Z"></path>
      <path class="cls-2" d="m100.9,106.05c.19-1.14.03-2.29.09-3.44.02-.31-.11-.64.13-.92,0,1.24.01,2.48,0,3.73,0,.23.09.51-.23.63Z"></path>
      <path class="cls-2" d="m100.7,106.05l-.05.05s-.07.08-.11.12h-.04c-.83.03-1.66-.07-2.49.06-.18.02-.34-.05-.45-.2,1.05-.11,2.09-.07,3.14-.03Z"></path>
      <path class="cls-2" d="m97.85,108.31s-.03,0-.05,0c-.29.05-.57.09-.85.14-.16-.04-.24-.15-.27-.31.39,0,.82-.26,1.15.13,0,0,.02.01.02.02Z"></path>
      <path class="cls-2" d="m96.96,67.91c-1.39,1.21-1.62,2.39-.78,4.03.4.8.21,1.62-.47,2.02-.69.4-1.52.17-1.99-.58-.59-.95-.88-1.99-.87-3.12.07-1.9.81-3.46,2.37-4.59.75-.54,1.55-.45,2.06.19.49.62.36,1.45-.31,2.04Z"></path>
      <path class="cls-2" d="m95.69,36.64c0,.27.06.54-.07.8v-1.48c0-.46,0-.92,0-1.38v-1.91c0-.1-.01-.21-.01-.31,0-.07,0-.14.03-.21.01-.04.03-.07.06-.09.02-.03.05-.06.08-.08h0c-.12,1.37-.06,2.75-.08,4.12,0,.17,0,.36,0,.53Z"></path>
      <path class="cls-2" d="m206.2,35.92c.16.31.07.58.09.84,0,.21-.05.42-.32.4-.26-.02-.29-.25-.27-.45.04-.33.23-.57.51-.79Z"></path>
      <path class="cls-2" d="m122.18,151.03c.05.21-.13.53.25.6.21.04.45.08.53-.23.04-.17.18-.26.33-.15.17.12.14.35.01.46-.24.2-.53.34-.8.51,0-.17.39-.42-.18-.46-.52-.04-.42-.41-.13-.72Z"></path>
      <path class="cls-2" d="m166.99,151.03c.06.19-.11.47.18.57.18.06.42.1.53-.09.12-.19.18-.49.44-.22.18.19-.03.41-.19.55-.05.04-.14.04-.21.06-.26-.28-1.31.11-.75-.87Z"></path>
      <path class="cls-2" d="m99.66,15.64c.35.02.77.27.95-.29.03-.1.16-.1.25-.05.13.07.14.2.09.32-.07.19-.24.3-.42.37-.22-.3-.7.07-.87-.33Z"></path>
      <path class="cls-2" d="m100.94,16.5c.04.32.17.59-.1.8-.09.07-.22.02-.25-.07-.12-.3.02-.52.36-.74Z"></path>
      <path class="cls-2" d="m161.95,106.18c-.14-.12-.11-.27-.03-.41.01.14.02.27.03.41Z"></path>
      <path class="cls-2" d="m161.95,106.18c-.03.06-.06.12-.09.18-.02-.02-.07-.04-.07-.07,0-.19-.05-.39.13-.52.01.14.02.27.03.41Z"></path>
      <path class="cls-2" d="m101.59,108.46c-1.17.01-2.33.02-3.5.04-.17,0-.21-.06-.24-.19,0,0,0,0,0,0,1.01,0,2.03,0,3.04,0,.24,0,.5-.08.69.15h0Z"></path>
      <path class="cls-2" d="m102.8,102.47c-.02-.22-.04-.44-.06-.73.28.24.17.48.06.73Z"></path>
      <path class="cls-2" d="m101.59,108.46h.67c-.3.22-.49.18-.67,0h0Z"></path>
    </g>
  </g>
</svg>
