<?xml version="1.0" encoding="UTF-8"?>
<svg xmlns="http://www.w3.org/2000/svg" id="katman_2" data-name="katman 2" viewBox="0 0 276.05 156.34">
  <defs>
    <style>
      .cls-1, .cls-2 {
        stroke-width: 0px;
      }

      .cls-2 {
        fill: none;
      }
    </style>
  </defs>
  <g id="katman_1" data-name="katman 1">
    <rect class="cls-2" y=".85" width="276.05" height="155.48"></rect>
    <g>
      <path class="cls-1" d="m57.97,48.13c.92-1.38,1.64-2.96,2.81-4.08,1.77-1.71,4.1-1.98,6.79-1.35,0-1.75-.02-3.41,0-5.06.06-5.44,3.01-9.45,7.91-10.59,1.19-.28,2.46-.28,3.69-.24,1.38.05,2.16.94,2.26,2.28.09,1.35-.61,2.25-1.92,2.6-.37.1-.78.1-1.17.12-3.77.17-5.68,2.08-5.69,5.86-.02,17.07,0,34.15,0,51.22,0,.44.05.88.08,1.44h52.25c0-.62,0-1.21,0-1.81,0-16.85,0-33.7,0-50.54,0-4.28-1.89-6.15-6.19-6.16-9.47,0-18.93,0-28.4,0-.67,0-1.37,0-2-.18-1.25-.34-1.84-1.27-1.75-2.55.09-1.29.81-2.07,2.09-2.27.5-.08,1.01-.06,1.52-.06,9.52,0,19.05-.01,28.57,0,7.12,0,11.22,4.12,11.24,11.21,0,1.51,0,3.03,0,4.7,2.54-.54,4.81-.27,6.8,1.29,1.96,1.53,2.77,3.63,2.91,6.13h9.93c-.24-.61-.43-1.12-.65-1.61-3.67-8.28-7.36-16.55-11-24.85-.39-.9-.63-1.94-.64-2.91-.06-5.8-.04-11.61-.03-17.41,0-2.45.79-3.28,3.2-3.28,13.47-.01,26.93-.01,40.4,0,2.42,0,3.2.81,3.21,3.28.02,5.86.03,11.72-.02,17.58,0,.92-.26,1.9-.63,2.75-3.62,8.24-7.29,16.46-10.94,24.69-.24.55-.45,1.12-.75,1.87,3.33,0,6.47.02,9.61-.03.32,0,.78-.38.93-.69,3.47-7.32,8.52-9.26,16.11-6.13.04.02.11-.03.26-.08,1.14-4.06,4.01-5.6,8.13-5.36,2.08.12,4.17.12,6.25,0,3.82-.22,6.76.96,8.07,4.61,1.39,0,2.64-.17,3.83.03,3.51.59,6.01,3.53,6.03,7.11.05,7.38.06,14.76,0,22.14-.04,4.89-3.78,7.73-9.43,7.17v11.35c6.82,2.09,9.66,5.24,9.43,10.47-.21,4.89-3.51,8.2-9.58,9.47,0,.56,0,1.16,0,1.76,0,5.47,0,10.93,0,16.4,0,.56.02,1.13-.06,1.69-.21,1.41-1.03,2.23-2.5,2.25-1.4.02-2.42-.91-2.46-2.44-.08-2.59-.04-5.18-.04-7.77,0-3.94,0-7.87,0-11.94h-52.21v40.4h52.21c0-.63,0-1.18,0-1.73,0-2.7-.01-5.41,0-8.11.01-2.11.97-3.31,2.55-3.28,1.53.03,2.49,1.21,2.5,3.19.03,4,.03,8,0,12-.02,2.23-.87,3.1-3.08,3.1-18.76.02-37.53.02-56.29,0-2.29,0-3.08-.86-3.08-3.23,0-13.41,0-26.82,0-40.23v-2.12h-28.97v2.02c0,13.3,0,26.6,0,39.89,0,3.01-.66,3.67-3.67,3.67-18.37,0-36.74,0-55.11,0-2.99,0-3.69-.7-3.69-3.69,0-13.3,0-26.6,0-39.89,0-.66,0-1.32,0-2.06-5.17-.42-8.04-3.38-9.6-7.89,0-1.24,0-2.48,0-3.72.09-.14.22-.26.26-.42,1.17-4.3,3.96-6.78,8.35-7.51.31-.05.61-.18.86-.26v-11.26c-1.13,0-2.14.1-3.13-.02-3.34-.42-5.12-2.69-6.34-5.56,0-8.45,0-16.91,0-25.36Zm66.9,102.47v-40.45h-52.12v40.45h52.12Zm19.63-45.62c25.07,0,50.13,0,75.2,0,.62,0,1.24.02,1.86-.02,2.07-.15,3.47-1.22,4.16-3.16,1.21-3.38-1.29-6.24-5.46-6.24-50.47,0-100.94,0-151.41,0-.78,0-1.59.04-2.34.23-2.74.7-4.21,3.68-3.09,6.27.98,2.26,2.84,2.94,5.2,2.93,25.29-.03,50.58-.02,75.87-.02Zm-14.34-25.99v11.35h68.39v-12.12c-.35.15-.55.23-.75.31-6.34,2.83-12.72.32-15.22-6.1-.43-1.1-1.06-1.08-1.92-1.08-13.12,0-26.25,0-39.37,0-.49,0-.98.06-1.43.09-1.17,6.05-3.55,7.9-9.69,7.54Zm86.06,11.38c.08-.25.17-.41.17-.56.01-14.97.02-29.94.02-44.91,0-1.32-.64-1.94-1.98-1.92-2.7.03-5.4,0-8.1,0-2.31,0-2.58.28-2.58,2.67,0,14.35,0,28.7,0,43.05,0,.54,0,1.08,0,1.66h12.48ZM143.82,24.19c3.81,8.57,7.49,16.89,11.24,25.19.18.4.93.75,1.42.76,2.76.07,5.52-.03,8.28.07,1.17.04,1.66-.42,2.1-1.43,3.36-7.68,6.78-15.32,10.18-22.98.22-.49.4-1.01.64-1.61h-33.87Zm35.22-19.01h-36.44v13.79h36.44V5.19Zm-39.25,60.93h42v-10.76h-42v10.76Zm58.88-5.27c0-2.64.03-5.29,0-7.93-.04-3.42-2.51-5.98-5.74-6.05-3.21-.06-5.86,2.45-5.91,5.87-.09,5.34-.09,10.69,0,16.03.06,3.47,2.6,5.88,5.91,5.84,3.3-.04,5.7-2.52,5.75-6,.03-2.59,0-5.18,0-7.76Zm-68.63-.05c0,3.49-.02,6.99,0,10.48.01,1.79,1.03,2.91,2.44,2.8,1.35-.11,2.13-1.13,2.14-2.94.02-6.87.01-13.75,0-20.62,0-1.98-.9-3.09-2.37-3.04-1.41.05-2.21,1.12-2.22,3.02-.01,3.44,0,6.87,0,10.31Zm-62.48-.16c0-3.44.02-6.87,0-10.31-.01-1.88-.9-2.92-2.33-2.87-1.36.05-2.18,1.09-2.18,2.86-.01,6.93,0,13.86,0,20.78,0,1.86.86,2.96,2.26,2.97,1.41,0,2.25-1.05,2.26-2.96.02-3.49,0-6.98,0-10.48Zm158.45.26c0-3.49,0-6.98,0-10.48,0-1.88-.84-2.95-2.25-2.96-1.43-.01-2.26,1.02-2.27,2.93-.02,6.93-.02,13.86,0,20.78,0,1.87.91,2.95,2.32,2.89,1.34-.05,2.19-1.12,2.19-2.87.02-3.44,0-6.87,0-10.31Z"></path>
      <path class="cls-1" d="m208.48,125.86c2.16,3.1,2.09,6.09.02,9.05,1.24,1.89,1.94,3.84,1.38,6.1-.79,3.18-3.39,5.47-6.64,5.49-8.67.06-17.35.1-26.02-.01-5.26-.07-8.43-5.75-5.96-10.39.21-.39.45-.77.69-1.17-1.89-2.8-2.12-5.63-.33-8.57.18-.3.02-.94-.18-1.31-2.79-5.22.44-10.71,6.4-10.74,8.05-.04,16.11.04,24.16-.04,3.06-.03,5.56.85,7.12,3.59,1.56,2.74,1.16,5.4-.65,8Zm-18.32,15.59c4.05,0,8.11-.02,12.16.01,1.41.01,2.49-.38,2.66-1.93.14-1.26-.94-2.09-2.68-2.09-8.05-.01-16.1,0-24.15,0-1.38,0-2.5.35-2.64,1.95-.11,1.32.87,2.06,2.66,2.07,4,.01,7.99,0,11.99,0Zm-.02-9.09c4.05,0,8.1-.02,12.16.01,1.4.01,2.5-.32,2.68-1.89.15-1.26-.92-2.1-2.67-2.1-8.05-.01-16.09-.01-24.14,0-1.79,0-2.77.77-2.66,2.08.14,1.61,1.25,1.92,2.64,1.91,4-.03,7.99-.01,11.99,0Zm.16-9.06c3.99,0,7.99.01,11.98,0,1.78,0,2.83-.78,2.7-2.04-.16-1.58-1.27-1.91-2.66-1.91-8.04.02-16.09,0-24.13.01-1.85,0-2.77.69-2.67,2.03.12,1.63,1.26,1.92,2.64,1.92,4.05-.02,8.1,0,12.15,0Z"></path>
      <path class="cls-1" d="m118.88,61.17c0,4.56.02,9.12,0,13.69-.03,5.71-3.68,9.47-9.35,9.52-7.15.06-14.3.06-21.46,0-5.49-.05-9.26-3.73-9.31-9.23-.09-9.35-.1-18.7,0-28.05.06-5.5,3.85-9.13,9.37-9.18,7.15-.05,14.3-.06,21.46,0,5.57.05,9.26,3.81,9.29,9.4.03,4.62,0,9.24,0,13.85Zm-5.07,4c0-5.9,0-11.64,0-17.38,0-3.43-1.37-4.81-4.82-4.82-6.76-.01-13.52-.01-20.28,0-3.5,0-4.9,1.41-4.91,4.93-.02,5.24,0,10.48,0,15.72,0,.49.07.98.12,1.54h29.89Zm-.04,5.3h-29.94c0,1.76-.09,3.39.02,5,.17,2.38,1.66,3.75,4.1,3.82,1.97.06,3.94.02,5.91.02,5.23,0,10.47.02,15.7-.02,2.42-.02,4.04-1.38,4.19-3.52.12-1.73.02-3.47.02-5.31Z"></path>
    </g>
  </g>
</svg>
