<?xml version="1.0" encoding="UTF-8"?>
<svg xmlns="http://www.w3.org/2000/svg" id="katman_2" data-name="katman 2" viewBox="0 0 276.05 156.97">
  <defs>
    <style>
      .cls-1, .cls-2 {
        stroke-width: 0px;
      }

      .cls-2 {
        fill: none;
      }
    </style>
  </defs>
  <g id="katman_1" data-name="katman 1">
    <rect class="cls-2" width="276.05" height="156.97"></rect>
    <path class="cls-1" d="m135.79,149.66c-16.97,0-33.95,0-50.92,0-10.04,0-14.89-7.67-10.5-16.72,13.29-27.37,26.51-54.77,39.98-82.04,4.38-8.87,5.51-18.14,5-27.77-.06-1.09-.74-2.26-1.43-3.18-2.02-2.7-2.62-5.55-1.06-8.6,1.58-3.08,4.3-4.07,7.65-4.04,7.99.08,15.99.05,23.98,0,3.42-.02,5.98,1.36,7.32,4.52,1.33,3.13.53,5.88-1.63,8.51-1,1.22-1.71,2.98-1.83,4.55-.8,10.32,1.85,19.81,6.45,29.08,13,26.17,25.64,52.51,38.42,78.79,4.48,9.22-.3,16.9-10.52,16.89-16.97,0-33.95,0-50.92,0Zm-22.26-84.94h44.4c-.72-1.55-1.21-2.77-1.83-3.91-5.95-10.92-10.18-22.24-9.35-35.02.23-3.55.04-6.83,3.3-9.38,1.79-1.4.94-3.53-1.35-3.56-8.32-.13-16.63-.13-24.95,0-2.07.03-3.05,1.53-1.62,3.35.75.96,2.19,1.84,3.38,1.92,3.7.25,7.44.08,11.16.11,2.01.02,3.79.87,3.18,3.03-.3,1.07-2.22,2.28-3.49,2.39-3.74.32-7.53.11-11.81.11,2.07,15.41-4.07,28.12-11.02,40.94Zm22.2,79.51c16.76,0,33.52,0,50.28,0,.98,0,1.99.07,2.95-.09,2.77-.45,4.76-2.92,4.59-5.56-.22-3.4-2.53-6-5.38-6-5.15-.01-10.3.07-15.44-.04-2.09-.04-3.56.32-4.98,2.19-2.48,3.26-7.71,3.91-10.11.81-2.52-3.25-5.45-2.95-8.64-2.96-2.85-.01-5.71-.19-8.54.07-1.3.12-2.82.84-3.71,1.8-3.06,3.3-8.17,4.32-10.69,1-2.45-3.23-5.28-2.83-8.35-2.86-2.74-.03-5.5-.2-8.21.08-1.3.13-2.83.86-3.71,1.81-3.22,3.48-8.48,4.12-11.2.51-1.83-2.43-3.81-2.46-6.21-2.42-1.75.03-3.51.12-5.26-.02-1.76-.14-2.74.47-3.54,2.11-2.96,5.99-.84,9.56,5.88,9.56,16.76.01,33.52,0,50.28,0Zm-29.34-62.7c1.8-1.15,3.21-1.7,4.14-2.7,3.04-3.26,7.84-4.27,10.43-1.09,2.56,3.15,5.45,2.97,8.68,2.94,2.74-.03,5.49.16,8.21-.08,1.22-.11,2.68-.75,3.49-1.64,3.69-4.05,8.53-4.06,12.17.17.48.55,1.06,1.41,1.62,1.43,3.39.13,6.8.07,10.64.07-1.37-2.82-2.57-4.92-3.43-7.15-.87-2.24-2.18-3.03-4.65-3-12.38.14-24.76.06-37.14.06q-10.11,0-14.13,9.24c-.04.09,0,.22,0,1.75Zm52.85,35.95c-2.79-.63-4.82-.3-6.7,2.11-1.02,1.31-3.6,2.47-5.13,2.13-4.85-1.06-6,2.89-8.5,5.11,4.07.31,7.99.31,11.91.31,6.03,0,9.06-3.39,8.42-9.66Zm-31.55-.08c-2.43-.41-4.14-.18-5.86,1.93-1.18,1.45-4.01,2.77-5.67,2.36-4.95-1.2-6.39,2.84-9.2,5.03,4.22.42,8.32.42,12.43.42,6.09,0,9.05-3.37,8.3-9.74Zm22.94-20.67c1.88-.6,4.09-.63,5.02-1.73,2.48-2.95,5.24-3.6,8.94-3.4,1.5.08,4.11-1.97,4.47-3.47.52-2.19-2.02-1.82-3.58-1.85-2.29-.03-4.57-.01-6.86-.01-6.15,0-9.05,3.4-7.99,10.46Zm-10.22-10.46c-5.08,0-9.19,0-13.3,0-5.7,0-8.82,4.15-7.34,9.76,2.27.49,4.01.19,5.51-2.05,1.67-2.5,4.49-2.68,7.37-2.36.99.11,2.24-.3,3.05-.9,1.46-1.08,2.68-2.49,4.71-4.45Zm-57.01,40.7c11.17.61,14.56-1.94,13.24-9.75-2.32,0-4.71-.09-7.08.06-.7.04-1.66.61-1.98,1.22-1.44,2.66-2.7,5.43-4.18,8.48Zm94.58-21.06c-1.81-4.25-3.57-5.28-7.82-4.27-2.8.67-5.52,5.97-4.8,10.15,2.22-.27,4.73-.05,6.72-.97,2.12-.98,3.74-3.04,5.91-4.91Zm-44.18,5.43c8.1.96,11.75-2.41,10.39-9.37-7.64-1.25-11.53,2.17-10.39,9.37Zm-20.46-9.47c-8.11-.82-11.93,2.73-10.39,9.43,7.77,1.21,11.43-2.04,10.39-9.43Zm71.6,18.2c-2.37.66-4.57,2.03-6.42,1.65-4.78-.98-5.67,3.03-8.93,5.27h18.5c-.3-.8-.47-1.41-.74-1.98-.83-1.75-1.69-3.49-2.4-4.95Zm-34.34-18.32c-1.27,6.84,2.82,11.08,8.7,9.29.51-6.09-2.72-9.61-8.7-9.29Zm-31.07.12c-.77,6.61,2.75,10.5,8.19,9.27.69-5.99-2.62-9.84-8.19-9.27Zm-28.53,9.52h6.03c-.34-2.62,1.39-5.72-2.81-6.75-1.07,2.23-2.09,4.37-3.22,6.75Zm22.5-21.67c-2.64,2.23-4.7,3.96-7.45,6.28h7.45v-6.28Zm19.9,27.67c.1,2.09.19,3.81.33,6.5,2.31-2.67,3.96-4.57,5.63-6.5h-5.95Zm38.22.11h-6.46v6.16c2.39-2.27,4.22-4.02,6.46-6.16Zm-62.79-30.87c-6.05-.72-6.21-.6-7.17,5.43,2.18-1.65,4.36-3.3,7.17-5.43Zm35.64,3.44c-2.33,2.21-4.06,3.87-6.17,5.88h6.17v-5.88Zm-41.73,27.23v5.23c2.12-1.87,3.79-3.33,5.95-5.23h-5.95Zm59.21-21.1c-.76,1.37-1.61,2.22-1.56,3.02.04.59,1.49,1.68,1.89,1.52.77-.32,1.6-1.32,1.7-2.12.07-.57-1.03-1.28-2.03-2.41Zm.46,36.36c.78-1.26,1.69-2.06,1.59-2.73-.1-.71-1.14-1.28-1.77-1.92-.66.72-1.67,1.37-1.84,2.2-.11.53,1.03,1.31,2.02,2.45Zm-45.75-51.74c-.95,1.09-1.97,1.75-1.98,2.41-.01.71.94,1.43,1.47,2.14.75-.61,1.84-1.11,2.12-1.89.18-.51-.83-1.44-1.61-2.67Zm-16.86,20.86c.9-1.24,1.91-2.05,1.79-2.6-.18-.8-1.18-1.41-1.83-2.11-.64.61-1.79,1.22-1.79,1.83,0,.78.93,1.56,1.82,2.88Zm28.26-2.77c1.14.87,1.86,1.85,2.55,1.82.69-.02,1.35-1.03,2.02-1.61-.65-.71-1.2-1.8-1.98-2.01-.54-.15-1.4.93-2.58,1.8Zm-25.6,30.88c-1.2-.85-1.96-1.81-2.61-1.75-.72.07-1.34,1.1-2,1.71.69.69,1.29,1.72,2.11,1.93.51.13,1.34-.97,2.5-1.89Zm28.17,2.78c.92-1.17,1.91-1.88,1.89-2.55-.03-.72-1-1.41-1.56-2.11-.73.65-1.81,1.19-2.07,2-.17.51.88,1.41,1.74,2.65Zm18.85-48.42c.36-.55.73-1.11,1.09-1.66-.93-.3-1.88-.87-2.78-.8-.77.06-1.49.84-2.24,1.31.54.8.92,1.93,1.66,2.28.48.22,1.49-.71,2.27-1.12Zm-30.41,30.13c-1.18-.81-1.95-1.76-2.61-1.69-.7.07-1.29,1.12-1.93,1.73.69.68,1.3,1.71,2.12,1.91.51.12,1.32-1.02,2.42-1.95Zm28.32-2.53c-.87,1.18-1.82,1.9-1.77,2.55.05.72,1.02,1.37,1.59,2.05.7-.67,1.73-1.24,1.98-2.05.15-.49-.91-1.35-1.79-2.55Zm28.81,2.55c1.13.93,1.94,2.04,2.47,1.92.79-.18,1.39-1.23,2.07-1.91-.64-.6-1.24-1.61-1.93-1.67-.67-.06-1.43.86-2.61,1.66Z"></path>
  </g>
</svg>
