<?xml version="1.0" encoding="UTF-8"?>
<svg xmlns="http://www.w3.org/2000/svg" width="135" height="60" viewBox="0 0 135 60" fill="none">
  <g clip-path="url(#clip0_232_541)">
    <path d="M82.3851 30.5586H78.7266V46.0938H86.8514V42.9975H82.3851V30.5586Z" fill="black"></path>
    <path d="M91.9007 30.5586H88.2422V46.0938H91.9007V30.5586Z" fill="black"></path>
    <path d="M97.9794 35.9284C97.2514 35.4321 96.7741 34.9562 96.8781 34.0266C96.9617 33.3433 97.3981 32.9303 98.1465 32.9914C99.3518 33.0747 99.3109 34.3155 99.3518 35.2247H102.717C102.884 32.3062 101.263 30.1914 98.0834 30.1914C95.255 30.1914 93.4852 31.6859 93.4852 34.6044C93.4852 35.9692 93.8807 36.921 94.5474 37.7062C95.2346 38.4914 96.191 39.0914 97.3145 39.7321C98.2709 40.3118 99.3518 40.8081 99.3518 42.1099C99.3518 42.897 98.9766 43.6618 98.1261 43.6618C96.958 43.6618 96.6664 42.8766 96.6664 41.9877V40.8914H93.2734V42.5451C93.2734 44.5951 94.6886 46.4618 98.0406 46.4618C101.077 46.4618 102.739 44.8025 102.739 41.821C102.739 39.9396 102.241 38.9044 101.389 38.1192C100.537 37.334 99.3518 36.797 97.9794 35.9284Z" fill="black"></path>
    <path d="M103.789 33.6549H106.655V46.0938H110.313V33.6549H113.262V30.5586H103.789V33.6549Z" fill="black"></path>
    <path d="M118.338 39.6364H122.907V36.5401H118.338V33.6549H123.052V30.5586H114.68V46.0938H123.302V42.9975H118.338V39.6364Z" fill="black"></path>
    <path d="M133.13 31.2884C131.945 30.6032 130.35 30.5625 129.029 30.5625H125.062V46.094H129.978C131.093 46.094 132.255 45.9903 133.212 45.3681C134.272 44.7032 134.749 43.5625 134.771 42.0107V35.1218C134.771 33.6329 134.543 32.1181 133.13 31.2884ZM128.721 43.294V33.3644C130.496 33.4069 131.094 33.5088 131.115 35.3292V40.3977C131.176 42.4662 131.156 43.4588 128.721 43.294Z" fill="black"></path>
    <path d="M44.7337 0C28.1181 0 14.6484 13.4315 14.6484 30C14.6484 46.5685 28.1181 60 44.7337 60C61.3493 60 74.8189 46.5685 74.8189 30C74.8189 13.4315 61.3493 0 44.7337 0ZM44.7337 54.4278C31.2027 54.4278 20.2346 43.4889 20.2346 29.9981C20.2346 16.5056 31.2046 5.56852 44.7337 5.56852C58.2646 5.56852 69.2327 16.5074 69.2327 29.9981C69.2346 43.4889 58.2646 54.4278 44.7337 54.4278Z" fill="black"></path>
    <path d="M39.4275 31.5768C39.4275 32.5842 38.9855 33.8435 37.5314 33.8435C35.951 33.8435 35.6037 32.8676 35.6037 31.7342V13.9102H30.0547V31.0102C30.0547 35.862 32.7976 38.099 37.4999 38.099C43.1789 38.099 44.9766 35.0102 44.9766 31.0102V13.9102H39.4275V31.5768Z" fill="black"></path>
    <path d="M52.7131 22.4531H47.1641V46.092H59.5046V41.3568H52.7131V22.4531Z" fill="black"></path>
    <path d="M38.6259 44.3161C38.5869 44.042 38.5609 43.7716 38.5479 43.4994C38.4885 43.0087 38.3715 42.8568 37.8942 42.8124V42.8031C38.3213 42.7439 38.5869 42.4346 38.6017 42.0031C38.6259 41.155 38.1337 40.9531 37.363 40.9531H36.4141V44.6291H36.8226V43.0142H37.5358C38.0186 43.0142 38.1653 43.3272 38.1653 43.6957C38.1653 43.9402 38.2043 44.3957 38.2935 44.6309H38.7707V44.5476C38.6705 44.5457 38.6407 44.3846 38.6259 44.3161ZM37.4652 42.6439H36.8208V41.3198H37.3965C37.6713 41.3198 38.169 41.3346 38.1783 41.9661C38.1895 42.6105 37.6583 42.6402 37.4652 42.6439Z" fill="black"></path>
    <path d="M37.5251 39.4297C35.6679 39.4297 34.1562 40.9371 34.1562 42.7889C34.1562 44.6408 35.6679 46.1482 37.5251 46.1482C39.3822 46.1482 40.8939 44.6408 40.8939 42.7889C40.8939 40.9371 39.3822 39.4297 37.5251 39.4297ZM37.5251 45.7945C35.8629 45.7945 34.511 44.4464 34.511 42.7889C34.511 41.1315 35.8629 39.7834 37.5251 39.7834C39.1872 39.7834 40.5391 41.1315 40.5391 42.7889C40.5391 44.4464 39.1872 45.7945 37.5251 45.7945Z" fill="black"></path>
    <path d="M7.04305 41.4632C7.04305 42.4113 6.93905 43.6909 5.69664 43.6909C4.74395 43.6909 4.39295 43.1761 4.39295 42.3095L4.41338 34.6595C4.41338 33.6483 4.68266 33.0298 5.82107 33.0502C6.49706 33.0502 6.97062 33.7298 6.97062 35.0502V36.0409H10.6106V34.7409C10.6106 31.5798 8.74974 30.2539 5.65207 30.2539C2.32413 30.2539 0.773438 31.828 0.773438 35.1946V41.5465C0.773438 44.7058 2.07713 46.4872 5.42365 46.4872C9.15088 46.4872 10.6811 44.6243 10.6811 41.9595V40.0632H7.04119V41.4632H7.04305Z" fill="black"></path>
  </g>
  <defs>
    <clipPath id="clip0_232_541">
      <rect width="134" height="60" fill="white" transform="translate(0.773438)"></rect>
    </clipPath>
  </defs>
</svg>
