<?xml version="1.0" encoding="UTF-8"?>
<svg xmlns="http://www.w3.org/2000/svg" width="354" height="185" viewBox="0 0 354 185" fill="none">
  <rect width="354" height="185" rx="20" fill="#EBF1E0"></rect>
  <rect x="175" y="24" width="157" height="138" rx="20" fill="#D1DEB7"></rect>
  <path d="M222.042 127.2L218.794 137H217.114L215.056 130.7L213.026 137H211.332L208.07 127.2H210.282L212.214 133.5L214.244 127.2H215.924L217.94 133.5L219.858 127.2H222.042ZM225.073 129.986C225.736 129.986 226.338 130.145 226.879 130.462C227.43 130.77 227.859 131.199 228.167 131.75C228.485 132.291 228.643 132.898 228.643 133.57C228.643 134.242 228.485 134.849 228.167 135.39C227.859 135.931 227.43 136.361 226.879 136.678C226.338 136.986 225.736 137.14 225.073 137.14C224.401 137.14 223.795 136.986 223.253 136.678C222.712 136.361 222.283 135.931 221.965 135.39C221.657 134.849 221.503 134.242 221.503 133.57C221.503 132.898 221.657 132.291 221.965 131.75C222.283 131.199 222.712 130.77 223.253 130.462C223.795 130.145 224.401 129.986 225.073 129.986ZM225.073 131.876C224.607 131.876 224.215 132.039 223.897 132.366C223.58 132.683 223.421 133.085 223.421 133.57C223.421 134.046 223.58 134.447 223.897 134.774C224.215 135.091 224.607 135.25 225.073 135.25C225.54 135.25 225.927 135.091 226.235 134.774C226.553 134.447 226.711 134.046 226.711 133.57C226.711 133.085 226.553 132.683 226.235 132.366C225.927 132.039 225.54 131.876 225.073 131.876ZM232.989 129.986C233.652 129.986 234.254 130.145 234.795 130.462C235.346 130.77 235.775 131.199 236.083 131.75C236.401 132.291 236.559 132.898 236.559 133.57C236.559 134.242 236.401 134.849 236.083 135.39C235.775 135.931 235.346 136.361 234.795 136.678C234.254 136.986 233.652 137.14 232.989 137.14C232.317 137.14 231.711 136.986 231.169 136.678C230.628 136.361 230.199 135.931 229.881 135.39C229.573 134.849 229.419 134.242 229.419 133.57C229.419 132.898 229.573 132.291 229.881 131.75C230.199 131.199 230.628 130.77 231.169 130.462C231.711 130.145 232.317 129.986 232.989 129.986ZM232.989 131.876C232.523 131.876 232.131 132.039 231.813 132.366C231.496 132.683 231.337 133.085 231.337 133.57C231.337 134.046 231.496 134.447 231.813 134.774C232.131 135.091 232.523 135.25 232.989 135.25C233.456 135.25 233.843 135.091 234.151 134.774C234.469 134.447 234.627 134.046 234.627 133.57C234.627 133.085 234.469 132.683 234.151 132.366C233.843 132.039 233.456 131.876 232.989 131.876ZM240.527 137.14C239.949 137.14 239.412 136.981 238.917 136.664C238.432 136.337 238.045 135.899 237.755 135.348C237.475 134.797 237.335 134.2 237.335 133.556C237.335 132.912 237.475 132.315 237.755 131.764C238.045 131.213 238.432 130.779 238.917 130.462C239.412 130.145 239.949 129.986 240.527 129.986C241.003 129.986 241.423 130.079 241.787 130.266C242.151 130.453 242.455 130.728 242.697 131.092V127.2H244.671V137H242.697V136.034C242.455 136.398 242.151 136.673 241.787 136.86C241.423 137.047 241.003 137.14 240.527 137.14ZM240.975 135.25C241.47 135.25 241.881 135.091 242.207 134.774C242.534 134.447 242.697 134.041 242.697 133.556C242.697 133.08 242.529 132.679 242.193 132.352C241.867 132.025 241.461 131.862 240.975 131.862C240.499 131.862 240.093 132.03 239.757 132.366C239.431 132.693 239.267 133.089 239.267 133.556C239.267 134.032 239.431 134.433 239.757 134.76C240.093 135.087 240.499 135.25 240.975 135.25ZM249.323 127.2H253.089C253.63 127.2 254.139 127.335 254.615 127.606C255.091 127.877 255.469 128.245 255.749 128.712C256.038 129.169 256.183 129.673 256.183 130.224C256.183 130.859 256.043 131.409 255.763 131.876C255.492 132.343 255.11 132.697 254.615 132.94L257.191 137H254.671L252.459 133.262H251.395V137H249.323V127.2ZM252.809 131.232C253.192 131.232 253.49 131.143 253.705 130.966C253.92 130.789 254.027 130.541 254.027 130.224C254.027 129.916 253.92 129.678 253.705 129.51C253.49 129.333 253.192 129.244 252.809 129.244H251.395V131.232H252.809ZM260.662 137.14C259.999 137.14 259.393 136.981 258.842 136.664C258.291 136.347 257.857 135.913 257.54 135.362C257.223 134.802 257.064 134.191 257.064 133.528C257.064 132.875 257.218 132.277 257.526 131.736C257.843 131.195 258.273 130.77 258.814 130.462C259.365 130.145 259.971 129.986 260.634 129.986C261.25 129.986 261.815 130.135 262.328 130.434C262.851 130.723 263.261 131.125 263.56 131.638C263.868 132.151 264.022 132.721 264.022 133.346C264.022 133.607 264.008 133.85 263.98 134.074H258.898C258.973 134.513 259.164 134.858 259.472 135.11C259.789 135.362 260.177 135.488 260.634 135.488C260.998 135.488 261.297 135.418 261.53 135.278C261.773 135.129 261.927 134.933 261.992 134.69H263.924C263.812 135.437 263.457 136.034 262.86 136.482C262.263 136.921 261.53 137.14 260.662 137.14ZM261.95 132.758C261.913 132.422 261.759 132.147 261.488 131.932C261.227 131.717 260.909 131.61 260.536 131.61C260.153 131.61 259.827 131.708 259.556 131.904C259.285 132.091 259.094 132.375 258.982 132.758H261.95ZM268.344 137.14C267.682 137.14 267.08 136.986 266.538 136.678C265.997 136.361 265.568 135.931 265.25 135.39C264.942 134.849 264.788 134.242 264.788 133.57C264.788 132.898 264.942 132.291 265.25 131.75C265.568 131.199 265.997 130.77 266.538 130.462C267.08 130.145 267.682 129.986 268.344 129.986C268.914 129.986 269.446 130.107 269.94 130.35C270.435 130.583 270.841 130.91 271.158 131.33C271.476 131.75 271.662 132.221 271.718 132.744H269.702C269.628 132.492 269.464 132.287 269.212 132.128C268.96 131.96 268.671 131.876 268.344 131.876C267.878 131.876 267.49 132.039 267.182 132.366C266.874 132.683 266.72 133.085 266.72 133.57C266.72 134.046 266.874 134.447 267.182 134.774C267.5 135.091 267.887 135.25 268.344 135.25C268.68 135.25 268.974 135.166 269.226 134.998C269.488 134.821 269.656 134.597 269.73 134.326H271.718C271.672 134.858 271.49 135.339 271.172 135.768C270.864 136.197 270.458 136.533 269.954 136.776C269.46 137.019 268.923 137.14 268.344 137.14ZM276.015 129.986C276.677 129.986 277.279 130.145 277.821 130.462C278.371 130.77 278.801 131.199 279.109 131.75C279.426 132.291 279.585 132.898 279.585 133.57C279.585 134.242 279.426 134.849 279.109 135.39C278.801 135.931 278.371 136.361 277.821 136.678C277.279 136.986 276.677 137.14 276.015 137.14C275.343 137.14 274.736 136.986 274.195 136.678C273.653 136.361 273.224 135.931 272.907 135.39C272.599 134.849 272.445 134.242 272.445 133.57C272.445 132.898 272.599 132.291 272.907 131.75C273.224 131.199 273.653 130.77 274.195 130.462C274.736 130.145 275.343 129.986 276.015 129.986ZM276.015 131.876C275.548 131.876 275.156 132.039 274.839 132.366C274.521 132.683 274.363 133.085 274.363 133.57C274.363 134.046 274.521 134.447 274.839 134.774C275.156 135.091 275.548 135.25 276.015 135.25C276.481 135.25 276.869 135.091 277.177 134.774C277.494 134.447 277.653 134.046 277.653 133.57C277.653 133.085 277.494 132.683 277.177 132.366C276.869 132.039 276.481 131.876 276.015 131.876ZM284.205 137H282.525L279.683 130.126H281.825L283.365 134.312L284.891 130.126H287.047L284.205 137ZM290.754 137.14C290.091 137.14 289.484 136.981 288.934 136.664C288.383 136.347 287.949 135.913 287.632 135.362C287.314 134.802 287.156 134.191 287.156 133.528C287.156 132.875 287.31 132.277 287.618 131.736C287.935 131.195 288.364 130.77 288.906 130.462C289.456 130.145 290.063 129.986 290.726 129.986C291.342 129.986 291.906 130.135 292.42 130.434C292.942 130.723 293.353 131.125 293.652 131.638C293.96 132.151 294.114 132.721 294.114 133.346C294.114 133.607 294.1 133.85 294.072 134.074H288.99C289.064 134.513 289.256 134.858 289.564 135.11C289.881 135.362 290.268 135.488 290.726 135.488C291.09 135.488 291.388 135.418 291.622 135.278C291.864 135.129 292.018 134.933 292.084 134.69H294.016C293.904 135.437 293.549 136.034 292.952 136.482C292.354 136.921 291.622 137.14 290.754 137.14ZM292.042 132.758C292.004 132.422 291.85 132.147 291.58 131.932C291.318 131.717 291.001 131.61 290.628 131.61C290.245 131.61 289.918 131.708 289.648 131.904C289.377 132.091 289.186 132.375 289.074 132.758H292.042ZM295.216 130.126H297.19V130.938C297.386 130.639 297.638 130.406 297.946 130.238C298.254 130.07 298.595 129.986 298.968 129.986C299.118 129.986 299.332 130.014 299.612 130.07V131.862C299.351 131.797 299.118 131.764 298.912 131.764C298.408 131.764 297.993 131.923 297.666 132.24C297.349 132.548 297.19 133.005 297.19 133.612V137H295.216V130.126ZM302.522 136.44L299.876 130.126H302.004L303.53 134.144L305.056 130.126H307.184L303.138 139.8H301.01L302.522 136.44Z" fill="#4F6D5D"></path>
  <path d="M234.35 75.36C232.766 75.36 231.326 75.06 230.03 74.46C228.734 73.836 227.69 72.972 226.898 71.868C226.106 70.74 225.65 69.468 225.53 68.052H229.742C229.934 68.988 230.438 69.756 231.254 70.356C232.07 70.956 233.102 71.256 234.35 71.256C235.694 71.256 236.798 70.848 237.662 70.032C238.55 69.192 238.994 68.112 238.994 66.792C238.994 65.496 238.526 64.488 237.59 63.768C236.654 63.048 235.442 62.688 233.954 62.688C233.066 62.688 232.178 62.808 231.29 63.048V60.276L237.194 53.832H226.214V49.8H243.134V52.608L236.366 59.772C237.662 59.772 238.838 60.084 239.894 60.708C240.95 61.308 241.778 62.16 242.378 63.264C243.002 64.344 243.314 65.556 243.314 66.9C243.314 68.532 242.93 69.996 242.162 71.292C241.394 72.564 240.326 73.56 238.958 74.28C237.614 75 236.078 75.36 234.35 75.36ZM262.766 49.8V52.68L252.146 75H247.43L257.618 53.868H245.63V49.8H262.766ZM264.846 71.94L273.63 63.264C275.046 61.872 276.042 60.756 276.618 59.916C277.194 59.076 277.482 58.212 277.482 57.324C277.482 56.22 277.098 55.32 276.33 54.624C275.586 53.904 274.626 53.544 273.45 53.544C272.01 53.544 270.87 54 270.03 54.912C269.214 55.824 268.83 57.048 268.878 58.584H264.63C264.582 56.784 264.918 55.188 265.638 53.796C266.382 52.404 267.438 51.336 268.806 50.592C270.174 49.824 271.722 49.44 273.45 49.44C275.034 49.44 276.462 49.776 277.734 50.448C279.006 51.096 280.002 52.008 280.722 53.184C281.442 54.336 281.802 55.656 281.802 57.144C281.802 58.608 281.358 60.036 280.47 61.428C279.606 62.82 278.322 64.32 276.618 65.928L271.65 70.896H281.982V75H264.846V71.94ZM228.646 100.216C226.654 100.216 225.07 99.628 223.894 98.452C222.742 97.252 222.166 95.56 222.166 93.376V86.212H218.818V82.396H222.166V77.68H226.198V82.396H230.806V86.212H226.198V93.304C226.198 94.384 226.486 95.176 227.062 95.68C227.662 96.184 228.478 96.436 229.51 96.436C230.014 96.436 230.446 96.388 230.806 96.292V100C230.206 100.144 229.486 100.216 228.646 100.216ZM241.621 82.036C243.301 82.036 244.837 82.444 246.229 83.26C247.621 84.052 248.713 85.156 249.505 86.572C250.321 87.964 250.729 89.512 250.729 91.216C250.729 92.92 250.321 94.468 249.505 95.86C248.713 97.252 247.621 98.356 246.229 99.172C244.837 99.964 243.301 100.36 241.621 100.36C239.917 100.36 238.369 99.964 236.977 99.172C235.585 98.356 234.481 97.252 233.665 95.86C232.873 94.468 232.477 92.92 232.477 91.216C232.477 89.512 232.873 87.964 233.665 86.572C234.481 85.156 235.585 84.052 236.977 83.26C238.369 82.444 239.917 82.036 241.621 82.036ZM241.621 85.852C240.661 85.852 239.773 86.092 238.957 86.572C238.165 87.028 237.529 87.676 237.049 88.516C236.593 89.332 236.365 90.232 236.365 91.216C236.365 92.2 236.593 93.1 237.049 93.916C237.529 94.708 238.165 95.344 238.957 95.824C239.773 96.28 240.661 96.508 241.621 96.508C242.581 96.508 243.457 96.28 244.249 95.824C245.041 95.344 245.665 94.708 246.121 93.916C246.601 93.1 246.841 92.2 246.841 91.216C246.841 90.232 246.601 89.332 246.121 88.516C245.665 87.676 245.029 87.028 244.213 86.572C243.421 86.092 242.557 85.852 241.621 85.852ZM258.189 85.168C258.741 84.16 259.473 83.392 260.385 82.864C261.321 82.312 262.365 82.036 263.517 82.036C265.773 82.036 267.549 82.744 268.845 84.16C270.165 85.576 270.825 87.508 270.825 89.956V100H266.793V90.46C266.793 89.068 266.397 87.964 265.605 87.148C264.837 86.308 263.817 85.888 262.545 85.888C261.225 85.888 260.169 86.308 259.377 87.148C258.585 87.964 258.189 89.068 258.189 90.46V100H254.193V82.396H258.189V85.168ZM281.485 100.36C279.325 100.36 277.561 99.832 276.193 98.776C274.825 97.696 274.057 96.22 273.889 94.348H277.777C277.849 95.092 278.221 95.692 278.893 96.148C279.565 96.58 280.405 96.796 281.413 96.796C282.349 96.796 283.069 96.628 283.573 96.292C284.101 95.932 284.365 95.476 284.365 94.924C284.365 94.276 284.053 93.808 283.429 93.52C282.805 93.208 281.845 92.92 280.549 92.656C279.253 92.392 278.185 92.116 277.345 91.828C276.505 91.516 275.785 91.012 275.185 90.316C274.585 89.62 274.285 88.672 274.285 87.472C274.285 86.44 274.561 85.516 275.113 84.7C275.665 83.86 276.445 83.212 277.453 82.756C278.485 82.276 279.661 82.036 280.981 82.036C282.877 82.036 284.497 82.528 285.841 83.512C287.209 84.472 288.001 85.828 288.217 87.58H284.149C284.077 86.956 283.741 86.464 283.141 86.104C282.565 85.72 281.821 85.528 280.909 85.528C280.069 85.528 279.409 85.684 278.929 85.996C278.449 86.284 278.209 86.704 278.209 87.256C278.209 87.856 278.497 88.288 279.073 88.552C279.673 88.816 280.609 89.092 281.881 89.38C283.225 89.668 284.329 89.98 285.193 90.316C286.057 90.652 286.801 91.192 287.425 91.936C288.049 92.656 288.361 93.652 288.361 94.924C288.361 95.932 288.061 96.856 287.461 97.696C286.861 98.512 286.033 99.16 284.977 99.64C283.921 100.12 282.757 100.36 281.485 100.36Z" fill="#4F6D5D"></path>
  <path d="M46.7656 136H42.4414L38.6445 129.59H36.8281V136H33.2773V119.195H39.7578C40.6953 119.195 41.5703 119.426 42.3828 119.887C43.1953 120.348 43.8438 120.98 44.3281 121.785C44.8125 122.582 45.0547 123.449 45.0547 124.387C45.0547 125.449 44.8164 126.387 44.3398 127.199C43.8633 128.012 43.207 128.625 42.3711 129.039L46.7656 136ZM36.8281 122.629V126.52H39.3945C39.9727 126.52 40.4609 126.332 40.8594 125.957C41.2578 125.582 41.457 125.113 41.457 124.551C41.457 124.012 41.2578 123.559 40.8594 123.191C40.4609 122.816 39.9727 122.629 39.3945 122.629H36.8281ZM58.3555 129.707C58.3555 130.121 58.332 130.523 58.2852 130.914H49.5312C49.6484 131.68 49.9805 132.293 50.5273 132.754C51.0742 133.207 51.7422 133.434 52.5312 133.434C53.1797 133.434 53.707 133.309 54.1133 133.059C54.5273 132.801 54.7812 132.461 54.875 132.039H58.1914C57.9961 133.305 57.3906 134.32 56.375 135.086C55.3594 135.852 54.1094 136.234 52.625 136.234C51.4844 136.234 50.4375 135.965 49.4844 135.426C48.5391 134.879 47.793 134.133 47.2461 133.188C46.6992 132.234 46.4258 131.188 46.4258 130.047C46.4258 128.336 47.0156 126.898 48.1953 125.734C49.3828 124.562 50.8359 123.977 52.5547 123.977C53.6016 123.977 54.5703 124.227 55.4609 124.727C56.3516 125.227 57.0547 125.918 57.5703 126.801C58.0938 127.684 58.3555 128.652 58.3555 129.707ZM49.6953 128.758H54.8281C54.7812 128.172 54.5234 127.684 54.0547 127.293C53.5859 126.902 53.0352 126.707 52.4023 126.707C51.7383 126.707 51.1719 126.879 50.7031 127.223C50.2344 127.566 49.8984 128.078 49.6953 128.758ZM65.7266 136.234C63.9844 136.234 62.5273 135.652 61.3555 134.488C60.1836 133.324 59.5977 131.867 59.5977 130.117C59.5977 128.367 60.1836 126.906 61.3555 125.734C62.5273 124.562 63.9844 123.977 65.7266 123.977C67.2031 123.977 68.4922 124.426 69.5938 125.324C70.6953 126.223 71.3242 127.348 71.4805 128.699H68.0469C67.9297 128.262 67.6523 127.906 67.2148 127.633C66.7852 127.352 66.2891 127.211 65.7266 127.211C64.9219 127.211 64.25 127.488 63.7109 128.043C63.1797 128.59 62.9141 129.281 62.9141 130.117C62.9141 130.93 63.1797 131.613 63.7109 132.168C64.25 132.723 64.9219 133 65.7266 133C66.2891 133 66.7891 132.852 67.2266 132.555C67.6719 132.258 67.9531 131.879 68.0703 131.418H71.5039C71.418 132.34 71.1055 133.172 70.5664 133.914C70.0273 134.648 69.332 135.219 68.4805 135.625C67.6367 136.031 66.7188 136.234 65.7266 136.234ZM78.7812 123.977C79.6328 123.977 80.4336 124.133 81.1836 124.445C81.9414 124.758 82.5898 125.188 83.1289 125.734C83.6758 126.273 84.1055 126.926 84.418 127.691C84.7383 128.449 84.8984 129.258 84.8984 130.117C84.8984 131.266 84.6289 132.309 84.0898 133.246C83.5586 134.184 82.8242 134.918 81.8867 135.449C80.957 135.973 79.9219 136.234 78.7812 136.234C77.0391 136.234 75.582 135.652 74.4102 134.488C73.2383 133.324 72.6523 131.867 72.6523 130.117C72.6523 128.367 73.2383 126.906 74.4102 125.734C75.582 124.562 77.0391 123.977 78.7812 123.977ZM78.7812 127.211C77.9766 127.211 77.3047 127.488 76.7656 128.043C76.2344 128.59 75.9688 129.281 75.9688 130.117C75.9688 130.93 76.2344 131.613 76.7656 132.168C77.3047 132.723 77.9766 133 78.7812 133C79.5703 133 80.2344 132.723 80.7734 132.168C81.3125 131.613 81.582 130.93 81.582 130.117C81.582 129.281 81.3125 128.59 80.7734 128.043C80.2422 127.488 79.5781 127.211 78.7812 127.211ZM97.7422 124.211L92.8672 136H89.9844L85.0859 124.211H88.7656L91.4258 131.395L94.0391 124.211H97.7422ZM109.848 129.707C109.848 130.121 109.824 130.523 109.777 130.914H101.023C101.141 131.68 101.473 132.293 102.02 132.754C102.566 133.207 103.234 133.434 104.023 133.434C104.672 133.434 105.199 133.309 105.605 133.059C106.02 132.801 106.273 132.461 106.367 132.039H109.684C109.488 133.305 108.883 134.32 107.867 135.086C106.852 135.852 105.602 136.234 104.117 136.234C102.977 136.234 101.93 135.965 100.977 135.426C100.031 134.879 99.2852 134.133 98.7383 133.188C98.1914 132.234 97.918 131.188 97.918 130.047C97.918 128.336 98.5078 126.898 99.6875 125.734C100.875 124.562 102.328 123.977 104.047 123.977C105.094 123.977 106.062 124.227 106.953 124.727C107.844 125.227 108.547 125.918 109.062 126.801C109.586 127.684 109.848 128.652 109.848 129.707ZM101.188 128.758H106.32C106.273 128.172 106.016 127.684 105.547 127.293C105.078 126.902 104.527 126.707 103.895 126.707C103.23 126.707 102.664 126.879 102.195 127.223C101.727 127.566 101.391 128.078 101.188 128.758ZM118.168 123.977C118.41 123.977 118.789 124.023 119.305 124.117V127.188C118.828 127.078 118.418 127.023 118.074 127.023C117.207 127.023 116.496 127.293 115.941 127.832C115.395 128.363 115.121 129.148 115.121 130.188V136H111.734V124.211H115.121V125.559C115.848 124.504 116.863 123.977 118.168 123.977ZM131.48 129.707C131.48 130.121 131.457 130.523 131.41 130.914H122.656C122.773 131.68 123.105 132.293 123.652 132.754C124.199 133.207 124.867 133.434 125.656 133.434C126.305 133.434 126.832 133.309 127.238 133.059C127.652 132.801 127.906 132.461 128 132.039H131.316C131.121 133.305 130.516 134.32 129.5 135.086C128.484 135.852 127.234 136.234 125.75 136.234C124.609 136.234 123.562 135.965 122.609 135.426C121.664 134.879 120.918 134.133 120.371 133.188C119.824 132.234 119.551 131.188 119.551 130.047C119.551 128.336 120.141 126.898 121.32 125.734C122.508 124.562 123.961 123.977 125.68 123.977C126.727 123.977 127.695 124.227 128.586 124.727C129.477 125.227 130.18 125.918 130.695 126.801C131.219 127.684 131.48 128.652 131.48 129.707ZM122.82 128.758H127.953C127.906 128.172 127.648 127.684 127.18 127.293C126.711 126.902 126.16 126.707 125.527 126.707C124.863 126.707 124.297 126.879 123.828 127.223C123.359 127.566 123.023 128.078 122.82 128.758ZM141.945 119.195H145.332V136H141.945V134.324C141.086 135.598 139.836 136.234 138.195 136.234C137.195 136.234 136.273 135.961 135.43 135.414C134.594 134.859 133.934 134.113 133.449 133.176C132.965 132.23 132.723 131.203 132.723 130.094C132.723 128.984 132.965 127.961 133.449 127.023C133.934 126.078 134.594 125.336 135.43 124.797C136.273 124.25 137.195 123.977 138.195 123.977C139.836 123.977 141.086 124.617 141.945 125.898V119.195ZM138.992 133C139.82 133 140.52 132.723 141.09 132.168C141.66 131.605 141.945 130.914 141.945 130.094C141.945 129.281 141.66 128.594 141.09 128.031C140.52 127.469 139.82 127.188 138.992 127.188C138.18 127.188 137.484 127.473 136.906 128.043C136.328 128.605 136.039 129.289 136.039 130.094C136.039 130.906 136.324 131.594 136.895 132.156C137.473 132.719 138.172 133 138.992 133Z" fill="#4F6D5D"></path>
  <path d="M37.3981 91.7951L41.6514 84.451L47.8962 73.6826L51.9242 75.9895L48.3828 63.2656L35.5688 66.5727L39.6779 68.9337L34.2802 78.2693C32.5771 81.2069 32.46 84.7934 33.9648 87.8392C34.7578 89.4612 35.9563 90.8039 37.4161 91.7771C37.4432 91.8041 37.4702 91.8222 37.4972 91.8312C38.9841 92.8134 40.7322 93.4081 42.5886 93.5072L51.3114 93.9668C52.1585 94.0119 52.8703 93.336 52.8703 92.489V86.4244C52.8703 85.6405 52.2576 84.9917 51.4646 84.9466L41.6694 84.433" fill="#4F6D5D"></path>
  <path d="M88.7506 84.5708H80.2531H67.7815V79.939L58.5 89.3557L67.7815 98.7634V94.0326H78.595C81.9922 94.0326 85.1732 92.3475 87.0745 89.5179C88.0838 88.0221 88.6515 86.3099 88.7687 84.5708C88.7687 84.5347 88.7687 84.4987 88.7687 84.4717C88.8858 82.6965 88.5163 80.8852 87.6783 79.2452L83.7134 71.4865C83.3259 70.7296 82.3887 70.4592 81.6498 70.8737L76.3873 73.9015C75.7024 74.298 75.4501 75.1541 75.8105 75.8479L80.2621 84.5618" fill="#4F6D5D"></path>
  <path d="M56.7591 43.9288L61.0034 51.273L67.2391 62.0504L63.2111 64.3753L76.0341 67.6824L79.5665 54.9586L75.4574 57.3195L70.0506 47.9929C68.3475 45.0552 65.2927 43.1539 61.8955 42.9286C60.0932 42.8024 58.318 43.1719 56.7501 43.9378C56.714 43.9378 56.687 43.9649 56.66 43.9829C55.056 44.7759 53.6773 45.9924 52.668 47.5423L47.9101 54.8504C47.4505 55.5623 47.6758 56.5085 48.4147 56.932L53.6773 59.9598C54.3621 60.3563 55.2272 60.14 55.6597 59.4822L61.0034 51.282" fill="#4F6D5D"></path>
</svg>
