<?xml version="1.0" encoding="UTF-8"?>
<svg xmlns="http://www.w3.org/2000/svg" width="257" height="131" viewBox="0 0 257 131" fill="none">
  <rect width="257" height="131" rx="20" fill="#D6E8BA"></rect>
  <path d="M107.446 68.06C108.389 68.06 109.238 68.2793 109.994 68.718C110.759 69.1567 111.357 69.7633 111.786 70.538C112.225 71.3033 112.444 72.1573 112.444 73.1C112.444 74.0427 112.225 74.9013 111.786 75.676C111.357 76.4413 110.759 77.0433 109.994 77.482C109.238 77.9207 108.389 78.14 107.446 78.14C106.503 78.14 105.649 77.9207 104.884 77.482C104.128 77.0433 103.531 76.4413 103.092 75.676C102.663 74.9013 102.448 74.0427 102.448 73.1C102.448 72.1573 102.663 71.3033 103.092 70.538C103.531 69.7633 104.128 69.1567 104.884 68.718C105.649 68.2793 106.503 68.06 107.446 68.06ZM107.446 70.076C106.905 70.076 106.415 70.2113 105.976 70.482C105.547 70.7433 105.206 71.1027 104.954 71.56C104.702 72.0173 104.576 72.5307 104.576 73.1C104.576 73.6693 104.702 74.1827 104.954 74.64C105.206 75.0973 105.547 75.4613 105.976 75.732C106.415 75.9933 106.905 76.124 107.446 76.124C107.987 76.124 108.473 75.9933 108.902 75.732C109.341 75.4613 109.686 75.0973 109.938 74.64C110.19 74.1827 110.316 73.6693 110.316 73.1C110.316 72.5307 110.19 72.0173 109.938 71.56C109.686 71.1027 109.341 70.7433 108.902 70.482C108.473 70.2113 107.987 70.076 107.446 70.076ZM114.38 70.748C114.38 69.8427 114.623 69.1333 115.108 68.62C115.603 68.1067 116.261 67.85 117.082 67.85C117.446 67.85 117.768 67.8873 118.048 67.962V69.782C117.908 69.7447 117.74 69.726 117.544 69.726C117.18 69.726 116.891 69.8147 116.676 69.992C116.462 70.1693 116.354 70.4353 116.354 70.79V71.126H118.048V73.002H116.354V78H114.38V73.002H113.106V71.126H114.38V70.748ZM132.525 78H130.551V74.192C130.551 73.7907 130.444 73.4733 130.229 73.24C130.014 72.9973 129.73 72.876 129.375 72.876C129.02 72.876 128.722 72.9927 128.479 73.226C128.246 73.45 128.129 73.772 128.129 74.192V78H126.155V74.192C126.155 73.7907 126.048 73.4733 125.833 73.24C125.618 72.9973 125.324 72.876 124.951 72.876C124.615 72.876 124.33 72.9927 124.097 73.226C123.864 73.45 123.747 73.772 123.747 74.192V78H121.773V71.126H123.747V71.938C123.98 71.602 124.274 71.3593 124.629 71.21C124.984 71.0607 125.343 70.986 125.707 70.986C126.155 70.986 126.538 71.07 126.855 71.238C127.182 71.3967 127.448 71.6487 127.653 71.994C127.858 71.6953 128.148 71.4527 128.521 71.266C128.894 71.0793 129.296 70.986 129.725 70.986C130.266 70.986 130.747 71.1027 131.167 71.336C131.596 71.56 131.928 71.8773 132.161 72.288C132.404 72.6987 132.525 73.1793 132.525 73.73V78ZM140.9 78H138.926V77.034C138.683 77.398 138.38 77.6733 138.016 77.86C137.652 78.0467 137.232 78.14 136.756 78.14C136.177 78.14 135.641 77.9813 135.146 77.664C134.661 77.3373 134.273 76.8987 133.984 76.348C133.704 75.7973 133.564 75.2 133.564 74.556C133.564 73.912 133.704 73.3147 133.984 72.764C134.273 72.2133 134.661 71.7793 135.146 71.462C135.641 71.1447 136.177 70.986 136.756 70.986C137.232 70.986 137.652 71.0793 138.016 71.266C138.38 71.4527 138.683 71.728 138.926 72.092V71.126H140.9V78ZM137.204 76.25C137.689 76.25 138.095 76.0913 138.422 75.774C138.758 75.4473 138.926 75.0413 138.926 74.556C138.926 74.08 138.758 73.6787 138.422 73.352C138.095 73.0253 137.689 72.862 137.204 72.862C136.728 72.862 136.322 73.03 135.986 73.366C135.659 73.6927 135.496 74.0893 135.496 74.556C135.496 75.032 135.659 75.4333 135.986 75.76C136.322 76.0867 136.728 76.25 137.204 76.25ZM144.323 72.022C144.538 71.686 144.804 71.4293 145.121 71.252C145.438 71.0747 145.793 70.986 146.185 70.986C147.062 70.986 147.748 71.266 148.243 71.826C148.747 72.3767 148.999 73.1373 148.999 74.108V78H147.025V74.36C147.025 73.912 146.899 73.5527 146.647 73.282C146.404 73.0113 146.082 72.876 145.681 72.876C145.27 72.876 144.939 73.0113 144.687 73.282C144.444 73.5527 144.323 73.912 144.323 74.36V78H142.349V71.126H144.323V72.022ZM157.374 78H155.4V77.034C155.158 77.398 154.854 77.6733 154.49 77.86C154.126 78.0467 153.706 78.14 153.23 78.14C152.652 78.14 152.115 77.9813 151.62 77.664C151.135 77.3373 150.748 76.8987 150.458 76.348C150.178 75.7973 150.038 75.2 150.038 74.556C150.038 73.912 150.178 73.3147 150.458 72.764C150.748 72.2133 151.135 71.7793 151.62 71.462C152.115 71.1447 152.652 70.986 153.23 70.986C153.706 70.986 154.126 71.0793 154.49 71.266C154.854 71.4527 155.158 71.728 155.4 72.092V71.126H157.374V78ZM153.678 76.25C154.164 76.25 154.57 76.0913 154.896 75.774C155.232 75.4473 155.4 75.0413 155.4 74.556C155.4 74.08 155.232 73.6787 154.896 73.352C154.57 73.0253 154.164 72.862 153.678 72.862C153.202 72.862 152.796 73.03 152.46 73.366C152.134 73.6927 151.97 74.0893 151.97 74.556C151.97 75.032 152.134 75.4333 152.46 75.76C152.796 76.0867 153.202 76.25 153.678 76.25ZM162.296 80.828C161.792 80.828 161.274 80.7533 160.742 80.604C160.219 80.4547 159.762 80.1887 159.37 79.806C158.978 79.4233 158.763 78.91 158.726 78.266H160.686C160.723 78.5647 160.886 78.7933 161.176 78.952C161.465 79.1107 161.815 79.19 162.226 79.19C162.674 79.19 163.061 79.0593 163.388 78.798C163.714 78.5367 163.878 78.2007 163.878 77.79V76.838C163.383 77.566 162.66 77.93 161.708 77.93C161.12 77.93 160.578 77.776 160.084 77.468C159.598 77.1507 159.211 76.726 158.922 76.194C158.642 75.662 158.502 75.0833 158.502 74.458C158.502 73.8233 158.642 73.24 158.922 72.708C159.211 72.176 159.598 71.756 160.084 71.448C160.578 71.14 161.12 70.986 161.708 70.986C162.66 70.986 163.383 71.3453 163.878 72.064V71.126H165.852V77.706C165.852 78.3407 165.693 78.8913 165.376 79.358C165.068 79.834 164.643 80.198 164.102 80.45C163.57 80.702 162.968 80.828 162.296 80.828ZM162.156 76.11C162.641 76.11 163.047 75.9513 163.374 75.634C163.71 75.3167 163.878 74.9247 163.878 74.458C163.878 73.982 163.71 73.5853 163.374 73.268C163.047 72.9507 162.641 72.792 162.156 72.792C161.68 72.792 161.274 72.9553 160.938 73.282C160.602 73.5993 160.434 73.9913 160.434 74.458C160.434 74.9153 160.602 75.3073 160.938 75.634C161.274 75.9513 161.68 76.11 162.156 76.11ZM170.535 78.14C169.872 78.14 169.266 77.9813 168.715 77.664C168.164 77.3467 167.73 76.9127 167.413 76.362C167.096 75.802 166.937 75.1907 166.937 74.528C166.937 73.8747 167.091 73.2773 167.399 72.736C167.716 72.1947 168.146 71.77 168.687 71.462C169.238 71.1447 169.844 70.986 170.507 70.986C171.123 70.986 171.688 71.1353 172.201 71.434C172.724 71.7233 173.134 72.1247 173.433 72.638C173.741 73.1513 173.895 73.7207 173.895 74.346C173.895 74.6073 173.881 74.85 173.853 75.074H168.771C168.846 75.5127 169.037 75.858 169.345 76.11C169.662 76.362 170.05 76.488 170.507 76.488C170.871 76.488 171.17 76.418 171.403 76.278C171.646 76.1287 171.8 75.9327 171.865 75.69H173.797C173.685 76.4367 173.33 77.034 172.733 77.482C172.136 77.9207 171.403 78.14 170.535 78.14ZM171.823 73.758C171.786 73.422 171.632 73.1467 171.361 72.932C171.1 72.7173 170.782 72.61 170.409 72.61C170.026 72.61 169.7 72.708 169.429 72.904C169.158 73.0907 168.967 73.3753 168.855 73.758H171.823ZM174.998 71.126H176.972V71.938C177.168 71.6393 177.42 71.406 177.728 71.238C178.036 71.07 178.376 70.986 178.75 70.986C178.899 70.986 179.114 71.014 179.394 71.07V72.862C179.132 72.7967 178.899 72.764 178.694 72.764C178.19 72.764 177.774 72.9227 177.448 73.24C177.13 73.548 176.972 74.0053 176.972 74.612V78H174.998V71.126ZM182.938 78.14C182.032 78.14 181.295 77.9207 180.726 77.482C180.166 77.0433 179.848 76.4367 179.774 75.662H181.664C181.682 75.8953 181.804 76.082 182.028 76.222C182.252 76.362 182.527 76.432 182.854 76.432C183.143 76.432 183.367 76.3853 183.526 76.292C183.684 76.1893 183.764 76.0633 183.764 75.914C183.764 75.7273 183.656 75.592 183.442 75.508C183.236 75.424 182.91 75.3447 182.462 75.27C181.948 75.1767 181.519 75.074 181.174 74.962C180.838 74.85 180.544 74.6587 180.292 74.388C180.049 74.1173 179.928 73.7393 179.928 73.254C179.928 72.8247 180.035 72.4373 180.25 72.092C180.474 71.7467 180.791 71.476 181.202 71.28C181.622 71.084 182.107 70.986 182.658 70.986C183.432 70.986 184.1 71.1867 184.66 71.588C185.229 71.9893 185.556 72.5587 185.64 73.296H183.652C183.633 73.1187 183.53 72.9693 183.344 72.848C183.157 72.7173 182.91 72.652 182.602 72.652C182.368 72.652 182.182 72.694 182.042 72.778C181.902 72.8527 181.832 72.9693 181.832 73.128C181.832 73.296 181.925 73.4173 182.112 73.492C182.308 73.5667 182.625 73.646 183.064 73.73C183.596 73.8233 184.034 73.9307 184.38 74.052C184.734 74.164 185.042 74.3693 185.304 74.668C185.565 74.9667 185.696 75.3867 185.696 75.928C185.696 76.3387 185.574 76.7167 185.332 77.062C185.089 77.398 184.758 77.664 184.338 77.86C183.918 78.0467 183.451 78.14 182.938 78.14ZM191.86 71.126V78H189.886V71.126H191.86ZM190.866 70.188C190.54 70.188 190.255 70.0713 190.012 69.838C189.779 69.6047 189.662 69.3247 189.662 68.998C189.662 68.6713 189.779 68.3913 190.012 68.158C190.255 67.9153 190.54 67.794 190.866 67.794C191.202 67.794 191.487 67.9153 191.72 68.158C191.954 68.3913 192.07 68.6713 192.07 68.998C192.07 69.3247 191.954 69.6047 191.72 69.838C191.487 70.0713 191.202 70.188 190.866 70.188ZM195.278 72.022C195.493 71.686 195.759 71.4293 196.076 71.252C196.394 71.0747 196.748 70.986 197.14 70.986C198.018 70.986 198.704 71.266 199.198 71.826C199.702 72.3767 199.954 73.1373 199.954 74.108V78H197.98V74.36C197.98 73.912 197.854 73.5527 197.602 73.282C197.36 73.0113 197.038 72.876 196.636 72.876C196.226 72.876 195.894 73.0113 195.642 73.282C195.4 73.5527 195.278 73.912 195.278 74.36V78H193.304V71.126H195.278V72.022ZM104.618 85.2L108.622 90.912V85.2H110.694V95H108.958L104.94 89.288V95H102.868V85.2H104.618ZM116.781 94.104C116.557 94.44 116.286 94.6967 115.969 94.874C115.661 95.0513 115.311 95.14 114.919 95.14C114.042 95.14 113.351 94.86 112.847 94.3C112.343 93.74 112.091 92.9747 112.091 92.004V88.126H114.065V91.752C114.065 92.2093 114.186 92.5733 114.429 92.844C114.681 93.1147 115.012 93.25 115.423 93.25C115.834 93.25 116.16 93.1147 116.403 92.844C116.655 92.5733 116.781 92.2093 116.781 91.752V88.126H118.755V95H116.781V94.104ZM120.214 88.126H122.188V88.938C122.384 88.6393 122.636 88.406 122.944 88.238C123.252 88.07 123.593 87.986 123.966 87.986C124.116 87.986 124.33 88.014 124.61 88.07V89.862C124.349 89.7967 124.116 89.764 123.91 89.764C123.406 89.764 122.991 89.9227 122.664 90.24C122.347 90.548 122.188 91.0053 122.188 91.612V95H120.214V88.126ZM130.138 94.104C129.914 94.44 129.644 94.6967 129.326 94.874C129.018 95.0513 128.668 95.14 128.276 95.14C127.399 95.14 126.708 94.86 126.204 94.3C125.7 93.74 125.448 92.9747 125.448 92.004V88.126H127.422V91.752C127.422 92.2093 127.544 92.5733 127.786 92.844C128.038 93.1147 128.37 93.25 128.78 93.25C129.191 93.25 129.518 93.1147 129.76 92.844C130.012 92.5733 130.138 92.2093 130.138 91.752V88.126H132.112V95H130.138V94.104ZM136.358 95.14C135.452 95.14 134.715 94.9207 134.146 94.482C133.586 94.0433 133.268 93.4367 133.194 92.662H135.084C135.102 92.8953 135.224 93.082 135.448 93.222C135.672 93.362 135.947 93.432 136.274 93.432C136.563 93.432 136.787 93.3853 136.946 93.292C137.104 93.1893 137.184 93.0633 137.184 92.914C137.184 92.7273 137.076 92.592 136.862 92.508C136.656 92.424 136.33 92.3447 135.882 92.27C135.368 92.1767 134.939 92.074 134.594 91.962C134.258 91.85 133.964 91.6587 133.712 91.388C133.469 91.1173 133.348 90.7393 133.348 90.254C133.348 89.8247 133.455 89.4373 133.67 89.092C133.894 88.7467 134.211 88.476 134.622 88.28C135.042 88.084 135.527 87.986 136.078 87.986C136.852 87.986 137.52 88.1867 138.08 88.588C138.649 88.9893 138.976 89.5587 139.06 90.296H137.072C137.053 90.1187 136.95 89.9693 136.764 89.848C136.577 89.7173 136.33 89.652 136.022 89.652C135.788 89.652 135.602 89.694 135.462 89.778C135.322 89.8527 135.252 89.9693 135.252 90.128C135.252 90.296 135.345 90.4173 135.532 90.492C135.728 90.5667 136.045 90.646 136.484 90.73C137.016 90.8233 137.454 90.9307 137.8 91.052C138.154 91.164 138.462 91.3693 138.724 91.668C138.985 91.9667 139.116 92.3867 139.116 92.928C139.116 93.3387 138.994 93.7167 138.752 94.062C138.509 94.398 138.178 94.664 137.758 94.86C137.338 95.0467 136.871 95.14 136.358 95.14ZM146.568 95.14C145.905 95.14 145.299 94.9813 144.748 94.664C144.197 94.3467 143.763 93.9127 143.446 93.362C143.129 92.802 142.97 92.1907 142.97 91.528C142.97 90.8747 143.124 90.2773 143.432 89.736C143.749 89.1947 144.179 88.77 144.72 88.462C145.271 88.1447 145.877 87.986 146.54 87.986C147.156 87.986 147.721 88.1353 148.234 88.434C148.757 88.7233 149.167 89.1247 149.466 89.638C149.774 90.1513 149.928 90.7207 149.928 91.346C149.928 91.6073 149.914 91.85 149.886 92.074H144.804C144.879 92.5127 145.07 92.858 145.378 93.11C145.695 93.362 146.083 93.488 146.54 93.488C146.904 93.488 147.203 93.418 147.436 93.278C147.679 93.1287 147.833 92.9327 147.898 92.69H149.83C149.718 93.4367 149.363 94.034 148.766 94.482C148.169 94.9207 147.436 95.14 146.568 95.14ZM147.856 90.758C147.819 90.422 147.665 90.1467 147.394 89.932C147.133 89.7173 146.815 89.61 146.442 89.61C146.059 89.61 145.733 89.708 145.462 89.904C145.191 90.0907 145 90.3753 144.888 90.758H147.856ZM153.49 93.152L152.188 95H149.836L152.314 91.458L149.976 88.126H152.356L153.504 89.75L154.638 88.126H156.99L154.68 91.444L157.172 95H154.778L153.49 93.152ZM160.609 95.14C159.946 95.14 159.34 94.9813 158.789 94.664C158.238 94.3467 157.804 93.9127 157.487 93.362C157.17 92.802 157.011 92.1907 157.011 91.528C157.011 90.8747 157.165 90.2773 157.473 89.736C157.79 89.1947 158.22 88.77 158.761 88.462C159.312 88.1447 159.918 87.986 160.581 87.986C161.197 87.986 161.762 88.1353 162.275 88.434C162.798 88.7233 163.208 89.1247 163.507 89.638C163.815 90.1513 163.969 90.7207 163.969 91.346C163.969 91.6073 163.955 91.85 163.927 92.074H158.845C158.92 92.5127 159.111 92.858 159.419 93.11C159.736 93.362 160.124 93.488 160.581 93.488C160.945 93.488 161.244 93.418 161.477 93.278C161.72 93.1287 161.874 92.9327 161.939 92.69H163.871C163.759 93.4367 163.404 94.034 162.807 94.482C162.21 94.9207 161.477 95.14 160.609 95.14ZM161.897 90.758C161.86 90.422 161.706 90.1467 161.435 89.932C161.174 89.7173 160.856 89.61 160.483 89.61C160.1 89.61 159.774 89.708 159.503 89.904C159.232 90.0907 159.041 90.3753 158.929 90.758H161.897ZM168.292 95.14C167.629 95.14 167.027 94.986 166.486 94.678C165.944 94.3607 165.515 93.9313 165.198 93.39C164.89 92.8487 164.736 92.242 164.736 91.57C164.736 90.898 164.89 90.2913 165.198 89.75C165.515 89.1993 165.944 88.77 166.486 88.462C167.027 88.1447 167.629 87.986 168.292 87.986C168.861 87.986 169.393 88.1073 169.888 88.35C170.382 88.5833 170.788 88.91 171.106 89.33C171.423 89.75 171.61 90.2213 171.666 90.744H169.65C169.575 90.492 169.412 90.2867 169.16 90.128C168.908 89.96 168.618 89.876 168.292 89.876C167.825 89.876 167.438 90.0393 167.13 90.366C166.822 90.6833 166.668 91.0847 166.668 91.57C166.668 92.046 166.822 92.4473 167.13 92.774C167.447 93.0913 167.834 93.25 168.292 93.25C168.628 93.25 168.922 93.166 169.174 92.998C169.435 92.8207 169.603 92.5967 169.678 92.326H171.666C171.619 92.858 171.437 93.3387 171.12 93.768C170.812 94.1973 170.406 94.5333 169.902 94.776C169.407 95.0187 168.87 95.14 168.292 95.14ZM177.32 94.104C177.096 94.44 176.825 94.6967 176.508 94.874C176.2 95.0513 175.85 95.14 175.458 95.14C174.581 95.14 173.89 94.86 173.386 94.3C172.882 93.74 172.63 92.9747 172.63 92.004V88.126H174.604V91.752C174.604 92.2093 174.725 92.5733 174.968 92.844C175.22 93.1147 175.551 93.25 175.962 93.25C176.373 93.25 176.699 93.1147 176.942 92.844C177.194 92.5733 177.32 92.2093 177.32 91.752V88.126H179.294V95H177.32V94.104ZM184.155 95.098C183.334 95.098 182.676 94.8413 182.181 94.328C181.696 93.8147 181.453 93.1053 181.453 92.2V90.002H180.179V88.126H181.453V86.32H183.427V88.126H185.121V90.002H183.427V92.172C183.427 92.5267 183.535 92.7927 183.749 92.97C183.964 93.1473 184.253 93.236 184.617 93.236C184.813 93.236 184.981 93.2173 185.121 93.18V95C184.869 95.0653 184.547 95.098 184.155 95.098ZM188.182 88.126V95H186.208V88.126H188.182ZM187.188 87.188C186.862 87.188 186.577 87.0713 186.334 86.838C186.101 86.6047 185.984 86.3247 185.984 85.998C185.984 85.6713 186.101 85.3913 186.334 85.158C186.577 84.9153 186.862 84.794 187.188 84.794C187.524 84.794 187.809 84.9153 188.042 85.158C188.276 85.3913 188.392 85.6713 188.392 85.998C188.392 86.3247 188.276 86.6047 188.042 86.838C187.809 87.0713 187.524 87.188 187.188 87.188ZM193.462 95H191.782L188.94 88.126H191.082L192.622 92.312L194.148 88.126H196.304L193.462 95ZM200.011 95.14C199.349 95.14 198.742 94.9813 198.191 94.664C197.641 94.3467 197.207 93.9127 196.889 93.362C196.572 92.802 196.413 92.1907 196.413 91.528C196.413 90.8747 196.567 90.2773 196.875 89.736C197.193 89.1947 197.622 88.77 198.163 88.462C198.714 88.1447 199.321 87.986 199.983 87.986C200.599 87.986 201.164 88.1353 201.677 88.434C202.2 88.7233 202.611 89.1247 202.909 89.638C203.217 90.1513 203.371 90.7207 203.371 91.346C203.371 91.6073 203.357 91.85 203.329 92.074H198.247C198.322 92.5127 198.513 92.858 198.821 93.11C199.139 93.362 199.526 93.488 199.983 93.488C200.347 93.488 200.646 93.418 200.879 93.278C201.122 93.1287 201.276 92.9327 201.341 92.69H203.273C203.161 93.4367 202.807 94.034 202.209 94.482C201.612 94.9207 200.879 95.14 200.011 95.14ZM201.299 90.758C201.262 90.422 201.108 90.1467 200.837 89.932C200.576 89.7173 200.259 89.61 199.885 89.61C199.503 89.61 199.176 89.708 198.905 89.904C198.635 90.0907 198.443 90.3753 198.331 90.758H201.299ZM106.13 112.098C105.309 112.098 104.651 111.841 104.156 111.328C103.671 110.815 103.428 110.105 103.428 109.2V107.002H102.154V105.126H103.428V103.32H105.402V105.126H107.096V107.002H105.402V109.172C105.402 109.527 105.509 109.793 105.724 109.97C105.939 110.147 106.228 110.236 106.592 110.236C106.788 110.236 106.956 110.217 107.096 110.18V112C106.844 112.065 106.522 112.098 106.13 112.098ZM111.295 112.14C110.632 112.14 110.025 111.981 109.475 111.664C108.924 111.347 108.49 110.913 108.173 110.362C107.855 109.802 107.697 109.191 107.697 108.528C107.697 107.875 107.851 107.277 108.159 106.736C108.476 106.195 108.905 105.77 109.447 105.462C109.997 105.145 110.604 104.986 111.267 104.986C111.883 104.986 112.447 105.135 112.961 105.434C113.483 105.723 113.894 106.125 114.193 106.638C114.501 107.151 114.655 107.721 114.655 108.346C114.655 108.607 114.641 108.85 114.613 109.074H109.531C109.605 109.513 109.797 109.858 110.105 110.11C110.422 110.362 110.809 110.488 111.267 110.488C111.631 110.488 111.929 110.418 112.163 110.278C112.405 110.129 112.559 109.933 112.625 109.69H114.557C114.445 110.437 114.09 111.034 113.493 111.482C112.895 111.921 112.163 112.14 111.295 112.14ZM112.583 107.758C112.545 107.422 112.391 107.147 112.121 106.932C111.859 106.717 111.542 106.61 111.169 106.61C110.786 106.61 110.459 106.708 110.189 106.904C109.918 107.091 109.727 107.375 109.615 107.758H112.583ZM122.757 112H120.783V111.034C120.541 111.398 120.237 111.673 119.873 111.86C119.509 112.047 119.089 112.14 118.613 112.14C118.035 112.14 117.498 111.981 117.003 111.664C116.518 111.337 116.131 110.899 115.841 110.348C115.561 109.797 115.421 109.2 115.421 108.556C115.421 107.912 115.561 107.315 115.841 106.764C116.131 106.213 116.518 105.779 117.003 105.462C117.498 105.145 118.035 104.986 118.613 104.986C119.089 104.986 119.509 105.079 119.873 105.266C120.237 105.453 120.541 105.728 120.783 106.092V105.126H122.757V112ZM119.061 110.25C119.547 110.25 119.953 110.091 120.279 109.774C120.615 109.447 120.783 109.041 120.783 108.556C120.783 108.08 120.615 107.679 120.279 107.352C119.953 107.025 119.547 106.862 119.061 106.862C118.585 106.862 118.179 107.03 117.843 107.366C117.517 107.693 117.353 108.089 117.353 108.556C117.353 109.032 117.517 109.433 117.843 109.76C118.179 110.087 118.585 110.25 119.061 110.25ZM134.959 112H132.985V108.192C132.985 107.791 132.877 107.473 132.663 107.24C132.448 106.997 132.163 106.876 131.809 106.876C131.454 106.876 131.155 106.993 130.913 107.226C130.679 107.45 130.563 107.772 130.563 108.192V112H128.589V108.192C128.589 107.791 128.481 107.473 128.267 107.24C128.052 106.997 127.758 106.876 127.385 106.876C127.049 106.876 126.764 106.993 126.531 107.226C126.297 107.45 126.181 107.772 126.181 108.192V112H124.207V105.126H126.181V105.938C126.414 105.602 126.708 105.359 127.063 105.21C127.417 105.061 127.777 104.986 128.141 104.986C128.589 104.986 128.971 105.07 129.289 105.238C129.615 105.397 129.881 105.649 130.087 105.994C130.292 105.695 130.581 105.453 130.955 105.266C131.328 105.079 131.729 104.986 132.159 104.986C132.7 104.986 133.181 105.103 133.601 105.336C134.03 105.56 134.361 105.877 134.595 106.288C134.837 106.699 134.959 107.179 134.959 107.73V112ZM139.119 112.14C138.214 112.14 137.477 111.921 136.907 111.482C136.347 111.043 136.03 110.437 135.955 109.662H137.845C137.864 109.895 137.985 110.082 138.209 110.222C138.433 110.362 138.709 110.432 139.035 110.432C139.325 110.432 139.549 110.385 139.707 110.292C139.866 110.189 139.945 110.063 139.945 109.914C139.945 109.727 139.838 109.592 139.623 109.508C139.418 109.424 139.091 109.345 138.643 109.27C138.13 109.177 137.701 109.074 137.355 108.962C137.019 108.85 136.725 108.659 136.473 108.388C136.231 108.117 136.109 107.739 136.109 107.254C136.109 106.825 136.217 106.437 136.431 106.092C136.655 105.747 136.973 105.476 137.383 105.28C137.803 105.084 138.289 104.986 138.839 104.986C139.614 104.986 140.281 105.187 140.841 105.588C141.411 105.989 141.737 106.559 141.821 107.296H139.833C139.815 107.119 139.712 106.969 139.525 106.848C139.339 106.717 139.091 106.652 138.783 106.652C138.55 106.652 138.363 106.694 138.223 106.778C138.083 106.853 138.013 106.969 138.013 107.128C138.013 107.296 138.107 107.417 138.293 107.492C138.489 107.567 138.807 107.646 139.245 107.73C139.777 107.823 140.216 107.931 140.561 108.052C140.916 108.164 141.224 108.369 141.485 108.668C141.747 108.967 141.877 109.387 141.877 109.928C141.877 110.339 141.756 110.717 141.513 111.062C141.271 111.398 140.939 111.664 140.519 111.86C140.099 112.047 139.633 112.14 139.119 112.14ZM153.068 112H151.094V111.034C150.851 111.398 150.548 111.673 150.184 111.86C149.82 112.047 149.4 112.14 148.924 112.14C148.345 112.14 147.809 111.981 147.314 111.664C146.829 111.337 146.441 110.899 146.152 110.348C145.872 109.797 145.732 109.2 145.732 108.556C145.732 107.912 145.872 107.315 146.152 106.764C146.441 106.213 146.829 105.779 147.314 105.462C147.809 105.145 148.345 104.986 148.924 104.986C149.4 104.986 149.82 105.079 150.184 105.266C150.548 105.453 150.851 105.728 151.094 106.092V105.126H153.068V112ZM149.372 110.25C149.857 110.25 150.263 110.091 150.59 109.774C150.926 109.447 151.094 109.041 151.094 108.556C151.094 108.08 150.926 107.679 150.59 107.352C150.263 107.025 149.857 106.862 149.372 106.862C148.896 106.862 148.49 107.03 148.154 107.366C147.827 107.693 147.664 108.089 147.664 108.556C147.664 109.032 147.827 109.433 148.154 109.76C148.49 110.087 148.896 110.25 149.372 110.25ZM154.517 105.126H156.491V105.938C156.687 105.639 156.939 105.406 157.247 105.238C157.555 105.07 157.896 104.986 158.269 104.986C158.418 104.986 158.633 105.014 158.913 105.07V106.862C158.652 106.797 158.418 106.764 158.213 106.764C157.709 106.764 157.294 106.923 156.967 107.24C156.65 107.548 156.491 108.005 156.491 108.612V112H154.517V105.126ZM162.81 112.14C162.148 112.14 161.541 111.981 160.99 111.664C160.44 111.347 160.006 110.913 159.688 110.362C159.371 109.802 159.212 109.191 159.212 108.528C159.212 107.875 159.366 107.277 159.674 106.736C159.992 106.195 160.421 105.77 160.962 105.462C161.513 105.145 162.12 104.986 162.782 104.986C163.398 104.986 163.963 105.135 164.476 105.434C164.999 105.723 165.41 106.125 165.708 106.638C166.016 107.151 166.17 107.721 166.17 108.346C166.17 108.607 166.156 108.85 166.128 109.074H161.046C161.121 109.513 161.312 109.858 161.62 110.11C161.938 110.362 162.325 110.488 162.782 110.488C163.146 110.488 163.445 110.418 163.678 110.278C163.921 110.129 164.075 109.933 164.14 109.69H166.072C165.96 110.437 165.606 111.034 165.008 111.482C164.411 111.921 163.678 112.14 162.81 112.14ZM164.098 107.758C164.061 107.422 163.907 107.147 163.636 106.932C163.375 106.717 163.058 106.61 162.684 106.61C162.302 106.61 161.975 106.708 161.704 106.904C161.434 107.091 161.242 107.375 161.13 107.758H164.098ZM169.404 105.126H171.518L172.666 108.892L174.038 105.126H175.578L176.964 108.892L178.098 105.126H180.226L177.748 112H176.194L174.808 108.234L173.408 112H171.882L169.404 105.126ZM183.987 104.986C184.65 104.986 185.252 105.145 185.793 105.462C186.344 105.77 186.773 106.199 187.081 106.75C187.399 107.291 187.557 107.898 187.557 108.57C187.557 109.242 187.399 109.849 187.081 110.39C186.773 110.931 186.344 111.361 185.793 111.678C185.252 111.986 184.65 112.14 183.987 112.14C183.315 112.14 182.709 111.986 182.167 111.678C181.626 111.361 181.197 110.931 180.879 110.39C180.571 109.849 180.417 109.242 180.417 108.57C180.417 107.898 180.571 107.291 180.879 106.75C181.197 106.199 181.626 105.77 182.167 105.462C182.709 105.145 183.315 104.986 183.987 104.986ZM183.987 106.876C183.521 106.876 183.129 107.039 182.811 107.366C182.494 107.683 182.335 108.085 182.335 108.57C182.335 109.046 182.494 109.447 182.811 109.774C183.129 110.091 183.521 110.25 183.987 110.25C184.454 110.25 184.841 110.091 185.149 109.774C185.467 109.447 185.625 109.046 185.625 108.57C185.625 108.085 185.467 107.683 185.149 107.366C184.841 107.039 184.454 106.876 183.987 106.876ZM199.421 112H197.447V108.192C197.447 107.791 197.34 107.473 197.125 107.24C196.911 106.997 196.626 106.876 196.271 106.876C195.917 106.876 195.618 106.993 195.375 107.226C195.142 107.45 195.025 107.772 195.025 108.192V112H193.051V108.192C193.051 107.791 192.944 107.473 192.729 107.24C192.515 106.997 192.221 106.876 191.847 106.876C191.511 106.876 191.227 106.993 190.993 107.226C190.76 107.45 190.643 107.772 190.643 108.192V112H188.669V105.126H190.643V105.938C190.877 105.602 191.171 105.359 191.525 105.21C191.88 105.061 192.239 104.986 192.603 104.986C193.051 104.986 193.434 105.07 193.751 105.238C194.078 105.397 194.344 105.649 194.549 105.994C194.755 105.695 195.044 105.453 195.417 105.266C195.791 105.079 196.192 104.986 196.621 104.986C197.163 104.986 197.643 105.103 198.063 105.336C198.493 105.56 198.824 105.877 199.057 106.288C199.3 106.699 199.421 107.179 199.421 107.73V112ZM204.058 112.14C203.396 112.14 202.789 111.981 202.238 111.664C201.688 111.347 201.254 110.913 200.936 110.362C200.619 109.802 200.46 109.191 200.46 108.528C200.46 107.875 200.614 107.277 200.922 106.736C201.24 106.195 201.669 105.77 202.21 105.462C202.761 105.145 203.368 104.986 204.03 104.986C204.646 104.986 205.211 105.135 205.724 105.434C206.247 105.723 206.658 106.125 206.956 106.638C207.264 107.151 207.418 107.721 207.418 108.346C207.418 108.607 207.404 108.85 207.376 109.074H202.294C202.369 109.513 202.56 109.858 202.868 110.11C203.186 110.362 203.573 110.488 204.03 110.488C204.394 110.488 204.693 110.418 204.926 110.278C205.169 110.129 205.323 109.933 205.388 109.69H207.32C207.208 110.437 206.854 111.034 206.256 111.482C205.659 111.921 204.926 112.14 204.058 112.14ZM205.346 107.758C205.309 107.422 205.155 107.147 204.884 106.932C204.623 106.717 204.306 106.61 203.932 106.61C203.55 106.61 203.223 106.708 202.952 106.904C202.682 107.091 202.49 107.375 202.378 107.758H205.346ZM210.495 106.022C210.71 105.686 210.976 105.429 211.293 105.252C211.61 105.075 211.965 104.986 212.357 104.986C213.234 104.986 213.92 105.266 214.415 105.826C214.919 106.377 215.171 107.137 215.171 108.108V112H213.197V108.36C213.197 107.912 213.071 107.553 212.819 107.282C212.576 107.011 212.254 106.876 211.853 106.876C211.442 106.876 211.111 107.011 210.859 107.282C210.616 107.553 210.495 107.912 210.495 108.36V112H208.521V105.126H210.495V106.022ZM217.624 112.14C217.26 112.14 216.952 112.019 216.7 111.776C216.458 111.533 216.336 111.235 216.336 110.88C216.336 110.525 216.458 110.231 216.7 109.998C216.952 109.755 217.26 109.634 217.624 109.634C217.979 109.634 218.278 109.755 218.52 109.998C218.772 110.241 218.898 110.535 218.898 110.88C218.898 111.235 218.772 111.533 218.52 111.776C218.278 112.019 217.979 112.14 217.624 112.14Z" fill="#4F6D5D"></path>
  <path d="M46.4922 28.0683C46.4922 34.2036 49.6583 39.1797 53.5595 39.1797C57.4606 39.1797 60.6268 34.213 60.6268 28.0683C60.6268 24.1666 57.4606 21 53.5595 21C49.6583 21 46.4922 24.1666 46.4922 28.0683Z" stroke="#4F6D5D" stroke-width="1.68" stroke-linecap="round" stroke-linejoin="round"></path>
  <path d="M67.6927 49.2743V45.9852L58.3639 42.1212C57.9587 41.9516 57.5912 41.7066 57.2802 41.405C56.6771 40.8018 56.3096 39.9725 56.3096 39.0583V38.2949C55.4616 38.8604 54.5287 39.1808 53.5487 39.1808C52.5687 39.1808 51.6358 38.8698 50.7877 38.2949V39.0583C50.7877 39.9725 50.4202 40.8018 49.8171 41.405C49.5062 41.7066 49.1481 41.9516 48.7335 42.1212L39.4141 45.9852V49.2743H67.6833H67.6927Z" stroke="#4F6D5D" stroke-width="1.68" stroke-linecap="round" stroke-linejoin="round"></path>
  <path d="M43.1328 41.8751C43.9903 42.4594 44.9232 42.94 45.922 43.2887L48.7395 42.1201C49.1447 41.9505 49.5122 41.7055 49.8232 41.4039C50.4263 40.8007 50.7938 39.9714 50.7938 39.0572V38.2938C48.259 36.5974 46.4874 32.658 46.4874 28.0684C46.4874 32.8183 45.3661 37.5587 43.1328 41.8751Z" stroke="#4F6D5D" stroke-width="1.68" stroke-linecap="round" stroke-linejoin="round"></path>
  <path d="M63.9907 41.8751C63.1238 42.4594 62.2003 42.94 61.2015 43.2887L58.3745 42.1201C57.9694 41.9505 57.6018 41.7055 57.2909 41.4039C56.6878 40.8007 56.3203 39.9714 56.3203 39.0572V38.2938C58.8551 36.5974 60.6267 32.658 60.6267 28.0684C60.6267 32.8183 61.748 37.5587 63.9907 41.8751Z" stroke="#4F6D5D" stroke-width="1.68" stroke-linecap="round" stroke-linejoin="round"></path>
  <path d="M65.3389 56.3418H41.7812V96.3955H65.3389V56.3418Z" stroke="#4F6D5D" stroke-width="1.68" stroke-linecap="round" stroke-linejoin="round"></path>
  <path d="M30 49.2734L37.0673 65.7661H41.7788V56.3417H65.3365V65.7661H70.0481L77.1154 49.2734H30Z" stroke="#4F6D5D" stroke-width="1.68" stroke-linecap="round" stroke-linejoin="round"></path>
  <path d="M115.248 53.48C113.2 53.48 111.312 53.096 109.584 52.328C107.856 51.528 106.448 50.392 105.36 48.92C104.272 47.448 103.664 45.72 103.536 43.736H109.152C109.472 45.016 110.176 46.056 111.264 46.856C112.352 47.624 113.68 48.008 115.248 48.008C116.976 48.008 118.416 47.432 119.568 46.28C120.752 45.128 121.344 43.72 121.344 42.056C121.344 40.296 120.752 38.84 119.568 37.688C118.416 36.504 116.976 35.912 115.248 35.912C114.16 35.912 113.136 36.104 112.176 36.488C111.248 36.84 110.496 37.336 109.92 37.976H105.024L106.56 19.4H124.896V24.68H111.6L110.784 32.888C111.392 32.376 112.192 31.976 113.184 31.688C114.176 31.368 115.216 31.208 116.304 31.208C118.32 31.208 120.144 31.656 121.776 32.552C123.44 33.448 124.736 34.728 125.664 36.392C126.624 38.056 127.104 39.976 127.104 42.152C127.104 44.296 126.576 46.232 125.52 47.96C124.464 49.688 123.024 51.048 121.2 52.04C119.408 53 117.424 53.48 115.248 53.48ZM142.061 53.48C140.013 53.48 138.125 53.096 136.397 52.328C134.669 51.528 133.261 50.392 132.173 48.92C131.085 47.448 130.477 45.72 130.349 43.736H135.965C136.285 45.016 136.989 46.056 138.077 46.856C139.165 47.624 140.493 48.008 142.061 48.008C143.789 48.008 145.229 47.432 146.381 46.28C147.565 45.128 148.157 43.72 148.157 42.056C148.157 40.296 147.565 38.84 146.381 37.688C145.229 36.504 143.789 35.912 142.061 35.912C140.973 35.912 139.949 36.104 138.989 36.488C138.061 36.84 137.309 37.336 136.733 37.976H131.837L133.373 19.4H151.709V24.68H138.413L137.597 32.888C138.205 32.376 139.005 31.976 139.997 31.688C140.989 31.368 142.029 31.208 143.117 31.208C145.133 31.208 146.957 31.656 148.589 32.552C150.253 33.448 151.549 34.728 152.477 36.392C153.437 38.056 153.917 39.976 153.917 42.152C153.917 44.296 153.389 46.232 152.333 47.96C151.277 49.688 149.837 51.048 148.013 52.04C146.221 53 144.237 53.48 142.061 53.48ZM186.393 46.28C186.393 48.36 185.737 50.088 184.425 51.464C183.113 52.808 181.465 53.48 179.481 53.48C177.497 53.48 175.849 52.808 174.537 51.464C173.257 50.088 172.617 48.36 172.617 46.28C172.617 44.232 173.257 42.536 174.537 41.192C175.849 39.848 177.497 39.176 179.481 39.176C181.465 39.176 183.113 39.848 184.425 41.192C185.737 42.536 186.393 44.232 186.393 46.28ZM182.793 46.28C182.793 45.192 182.489 44.312 181.881 43.64C181.305 42.936 180.505 42.584 179.481 42.584C178.489 42.584 177.689 42.936 177.081 43.64C176.505 44.312 176.217 45.192 176.217 46.28C176.217 47.4 176.505 48.312 177.081 49.016C177.689 49.72 178.489 50.072 179.481 50.072C180.505 50.072 181.305 49.72 181.881 49.016C182.489 48.312 182.793 47.4 182.793 46.28ZM170.601 26.024C170.601 28.104 169.945 29.832 168.633 31.208C167.353 32.552 165.721 33.224 163.737 33.224C161.785 33.224 160.153 32.552 158.841 31.208C157.529 29.832 156.873 28.104 156.873 26.024C156.873 23.976 157.513 22.28 158.793 20.936C160.105 19.592 161.753 18.92 163.737 18.92C165.721 18.92 167.353 19.592 168.633 20.936C169.945 22.28 170.601 23.976 170.601 26.024ZM167.049 26.024C167.049 24.936 166.745 24.04 166.137 23.336C165.529 22.632 164.729 22.28 163.737 22.28C162.745 22.28 161.945 22.632 161.337 23.336C160.729 24.04 160.425 24.936 160.425 26.024C160.425 27.144 160.729 28.056 161.337 28.76C161.945 29.464 162.745 29.816 163.737 29.816C164.729 29.816 165.529 29.464 166.137 28.76C166.745 28.056 167.049 27.144 167.049 26.024ZM184.953 19.4L162.633 53H158.313L180.633 19.4H184.953Z" fill="#4F6D5D"></path>
</svg>
