<?xml version="1.0" encoding="UTF-8"?>
<svg xmlns="http://www.w3.org/2000/svg" width="207" height="179" viewBox="0 0 207 179" fill="none">
  <rect width="207" height="179" rx="20" fill="white"></rect>
  <path d="M53.7843 140.014L55.1703 141.848L54.3863 142.52L52.9723 140.658L51.5443 142.52L50.7463 141.848L52.1603 140.028L50.0743 139.384L50.4103 138.376L52.4403 139.006V136.92H53.4903V139.006L55.5063 138.376L55.8563 139.384L53.7843 140.014ZM60.5259 137.2C61.4405 137.2 62.2712 137.41 63.0179 137.83C63.7645 138.25 64.3525 138.833 64.7819 139.58C65.2112 140.317 65.4259 141.143 65.4259 142.058C65.4259 142.982 65.2112 143.822 64.7819 144.578C64.3525 145.334 63.7645 145.927 63.0179 146.356C62.2712 146.785 61.4405 147 60.5259 147H57.3059V137.2H60.5259ZM60.6379 145.432C61.2259 145.432 61.7532 145.287 62.2199 144.998C62.6959 144.699 63.0692 144.293 63.3399 143.78C63.6105 143.267 63.7459 142.693 63.7459 142.058C63.7459 141.423 63.6105 140.859 63.3399 140.364C63.0785 139.86 62.7099 139.468 62.2339 139.188C61.7579 138.908 61.2259 138.768 60.6379 138.768H58.9439V145.432H60.6379ZM69.9409 147.14C69.2782 147.14 68.6762 146.986 68.1349 146.678C67.5935 146.361 67.1642 145.927 66.8469 145.376C66.5389 144.825 66.3849 144.219 66.3849 143.556C66.3849 142.903 66.5389 142.305 66.8469 141.764C67.1642 141.223 67.5889 140.798 68.1209 140.49C68.6622 140.173 69.2595 140.014 69.9129 140.014C70.5195 140.014 71.0749 140.163 71.5789 140.462C72.0922 140.751 72.4982 141.153 72.7969 141.666C73.0955 142.17 73.2449 142.735 73.2449 143.36L73.2169 143.948H67.8549C67.9295 144.508 68.1535 144.961 68.5269 145.306C68.9002 145.642 69.3669 145.81 69.9269 145.81C70.3655 145.81 70.7389 145.712 71.0469 145.516C71.3642 145.32 71.5555 145.063 71.6209 144.746H73.1609C73.0395 145.474 72.6849 146.057 72.0969 146.496C71.5089 146.925 70.7902 147.14 69.9409 147.14ZM71.5929 142.814C71.5462 142.385 71.3595 142.03 71.0329 141.75C70.7062 141.47 70.3142 141.33 69.8569 141.33C69.3809 141.33 68.9702 141.461 68.6249 141.722C68.2889 141.974 68.0602 142.338 67.9389 142.814H71.5929ZM77.7061 147.14C77.0435 147.14 76.4415 146.986 75.9001 146.678C75.3681 146.37 74.9435 145.945 74.6261 145.404C74.3181 144.853 74.1641 144.247 74.1641 143.584C74.1641 142.921 74.3181 142.319 74.6261 141.778C74.9435 141.227 75.3681 140.798 75.9001 140.49C76.4415 140.173 77.0435 140.014 77.7061 140.014C78.2475 140.014 78.7561 140.126 79.2321 140.35C79.7081 140.574 80.1001 140.887 80.4081 141.288C80.7255 141.68 80.9168 142.119 80.9821 142.604H79.3861C79.3021 142.287 79.1015 142.025 78.7841 141.82C78.4668 141.615 78.1075 141.512 77.7061 141.512C77.3328 141.512 76.9921 141.605 76.6841 141.792C76.3855 141.969 76.1475 142.217 75.9701 142.534C75.7928 142.851 75.7041 143.201 75.7041 143.584C75.7041 143.967 75.7928 144.317 75.9701 144.634C76.1475 144.942 76.3855 145.189 76.6841 145.376C76.9921 145.553 77.3328 145.642 77.7061 145.642C78.1075 145.642 78.4668 145.535 78.7841 145.32C79.1108 145.105 79.3161 144.83 79.4001 144.494H80.9821C80.9261 144.998 80.7441 145.455 80.4361 145.866C80.1281 146.267 79.7315 146.58 79.2461 146.804C78.7701 147.028 78.2568 147.14 77.7061 147.14ZM82.2674 140.154H83.8214V141.106C84.0174 140.77 84.2741 140.504 84.5914 140.308C84.9181 140.112 85.2774 140.014 85.6694 140.014C85.8187 140.014 86.0334 140.042 86.3134 140.098V141.526C86.0521 141.461 85.8234 141.428 85.6274 141.428C85.1141 141.428 84.6847 141.601 84.3394 141.946C83.9941 142.282 83.8214 142.749 83.8214 143.346V147H82.2674V140.154ZM90.2026 147.14C89.5399 147.14 88.9379 146.986 88.3966 146.678C87.8552 146.361 87.4259 145.927 87.1086 145.376C86.8006 144.825 86.6466 144.219 86.6466 143.556C86.6466 142.903 86.8006 142.305 87.1086 141.764C87.4259 141.223 87.8506 140.798 88.3826 140.49C88.9239 140.173 89.5212 140.014 90.1746 140.014C90.7812 140.014 91.3366 140.163 91.8406 140.462C92.3539 140.751 92.7599 141.153 93.0586 141.666C93.3572 142.17 93.5066 142.735 93.5066 143.36L93.4786 143.948H88.1166C88.1912 144.508 88.4152 144.961 88.7886 145.306C89.1619 145.642 89.6286 145.81 90.1886 145.81C90.6272 145.81 91.0006 145.712 91.3086 145.516C91.6259 145.32 91.8172 145.063 91.8826 144.746H93.4226C93.3012 145.474 92.9466 146.057 92.3586 146.496C91.7706 146.925 91.0519 147.14 90.2026 147.14ZM91.8546 142.814C91.8079 142.385 91.6212 142.03 91.2946 141.75C90.9679 141.47 90.5759 141.33 90.1186 141.33C89.6426 141.33 89.2319 141.461 88.8866 141.722C88.5506 141.974 88.3219 142.338 88.2006 142.814H91.8546ZM101.692 147H100.124V145.796C99.8719 146.225 99.5405 146.557 99.1299 146.79C98.7192 147.023 98.2432 147.14 97.7019 147.14C97.1045 147.14 96.5539 146.981 96.0499 146.664C95.5459 146.347 95.1492 145.917 94.8599 145.376C94.5705 144.825 94.4259 144.223 94.4259 143.57C94.4259 142.926 94.5705 142.333 94.8599 141.792C95.1492 141.241 95.5459 140.807 96.0499 140.49C96.5539 140.173 97.1045 140.014 97.7019 140.014C98.2432 140.014 98.7192 140.131 99.1299 140.364C99.5405 140.597 99.8719 140.929 100.124 141.358V140.154H101.692V147ZM98.0379 145.656C98.4299 145.656 98.7845 145.567 99.1019 145.39C99.4192 145.203 99.6665 144.951 99.8439 144.634C100.031 144.317 100.124 143.962 100.124 143.57C100.124 143.187 100.031 142.837 99.8439 142.52C99.6665 142.203 99.4192 141.955 99.1019 141.778C98.7845 141.591 98.4299 141.498 98.0379 141.498C97.6552 141.498 97.3052 141.591 96.9879 141.778C96.6705 141.965 96.4185 142.217 96.2319 142.534C96.0545 142.851 95.9659 143.197 95.9659 143.57C95.9659 143.953 96.0545 144.303 96.2319 144.62C96.4185 144.937 96.6705 145.189 96.9879 145.376C97.3052 145.563 97.6552 145.656 98.0379 145.656ZM105.937 147.14C105.097 147.14 104.411 146.935 103.879 146.524C103.347 146.104 103.049 145.53 102.983 144.802H104.495C104.523 145.091 104.668 145.325 104.929 145.502C105.191 145.67 105.517 145.754 105.909 145.754C106.273 145.754 106.553 145.689 106.749 145.558C106.955 145.418 107.057 145.241 107.057 145.026C107.057 144.774 106.936 144.592 106.693 144.48C106.451 144.359 106.077 144.247 105.573 144.144C105.069 144.041 104.654 143.934 104.327 143.822C104.001 143.701 103.721 143.505 103.487 143.234C103.254 142.963 103.137 142.595 103.137 142.128C103.137 141.727 103.245 141.367 103.459 141.05C103.674 140.723 103.977 140.471 104.369 140.294C104.771 140.107 105.228 140.014 105.741 140.014C106.479 140.014 107.109 140.205 107.631 140.588C108.163 140.961 108.471 141.489 108.555 142.17H106.973C106.945 141.927 106.815 141.736 106.581 141.596C106.357 141.447 106.068 141.372 105.713 141.372C105.387 141.372 105.13 141.433 104.943 141.554C104.757 141.666 104.663 141.829 104.663 142.044C104.663 142.277 104.775 142.445 104.999 142.548C105.233 142.651 105.597 142.758 106.091 142.87C106.614 142.982 107.043 143.103 107.379 143.234C107.715 143.365 108.005 143.575 108.247 143.864C108.49 144.144 108.611 144.531 108.611 145.026C108.611 145.418 108.495 145.777 108.261 146.104C108.028 146.421 107.706 146.673 107.295 146.86C106.885 147.047 106.432 147.14 105.937 147.14ZM113.103 147.14C112.44 147.14 111.838 146.986 111.297 146.678C110.756 146.361 110.326 145.927 110.009 145.376C109.701 144.825 109.547 144.219 109.547 143.556C109.547 142.903 109.701 142.305 110.009 141.764C110.326 141.223 110.751 140.798 111.283 140.49C111.824 140.173 112.422 140.014 113.075 140.014C113.682 140.014 114.237 140.163 114.741 140.462C115.254 140.751 115.66 141.153 115.959 141.666C116.258 142.17 116.407 142.735 116.407 143.36L116.379 143.948H111.017C111.092 144.508 111.316 144.961 111.689 145.306C112.062 145.642 112.529 145.81 113.089 145.81C113.528 145.81 113.901 145.712 114.209 145.516C114.526 145.32 114.718 145.063 114.783 144.746H116.323C116.202 145.474 115.847 146.057 115.259 146.496C114.671 146.925 113.952 147.14 113.103 147.14ZM114.755 142.814C114.708 142.385 114.522 142.03 114.195 141.75C113.868 141.47 113.476 141.33 113.019 141.33C112.543 141.33 112.132 141.461 111.787 141.722C111.451 141.974 111.222 142.338 111.101 142.814H114.755ZM121.602 139.594C121.602 138.745 121.831 138.091 122.288 137.634C122.746 137.167 123.357 136.934 124.122 136.934C124.449 136.934 124.729 136.962 124.962 137.018V138.46C124.822 138.423 124.659 138.404 124.472 138.404C124.071 138.404 123.754 138.507 123.52 138.712C123.287 138.908 123.17 139.211 123.17 139.622V140.154H124.962V141.638H123.17V147H121.602V141.638H120.3V140.154H121.602V139.594ZM126.058 140.154H127.612V141.106C127.808 140.77 128.065 140.504 128.382 140.308C128.709 140.112 129.068 140.014 129.46 140.014C129.61 140.014 129.824 140.042 130.104 140.098V141.526C129.843 141.461 129.614 141.428 129.418 141.428C128.905 141.428 128.476 141.601 128.13 141.946C127.785 142.282 127.612 142.749 127.612 143.346V147H126.058V140.154ZM133.994 140.014C134.647 140.014 135.244 140.173 135.786 140.49C136.327 140.798 136.752 141.227 137.06 141.778C137.377 142.319 137.536 142.921 137.536 143.584C137.536 144.247 137.377 144.849 137.06 145.39C136.752 145.931 136.327 146.361 135.786 146.678C135.244 146.986 134.647 147.14 133.994 147.14C133.331 147.14 132.729 146.986 132.188 146.678C131.646 146.361 131.217 145.931 130.9 145.39C130.592 144.849 130.438 144.247 130.438 143.584C130.438 142.921 130.592 142.319 130.9 141.778C131.217 141.227 131.646 140.798 132.188 140.49C132.729 140.173 133.331 140.014 133.994 140.014ZM133.994 141.498C133.62 141.498 133.275 141.591 132.958 141.778C132.65 141.955 132.402 142.207 132.216 142.534C132.038 142.851 131.95 143.201 131.95 143.584C131.95 143.967 132.038 144.317 132.216 144.634C132.402 144.942 132.65 145.189 132.958 145.376C133.275 145.553 133.62 145.642 133.994 145.642C134.367 145.642 134.708 145.553 135.016 145.376C135.324 145.189 135.566 144.942 135.744 144.634C135.93 144.317 136.024 143.967 136.024 143.584C136.024 143.201 135.93 142.851 135.744 142.534C135.566 142.207 135.319 141.955 135.002 141.778C134.694 141.591 134.358 141.498 133.994 141.498ZM149.621 147H148.039V143.164C148.039 142.651 147.903 142.249 147.633 141.96C147.371 141.661 147.012 141.512 146.555 141.512C146.135 141.512 145.775 141.652 145.477 141.932C145.178 142.212 145.029 142.623 145.029 143.164V147H143.461V143.164C143.461 142.651 143.325 142.249 143.055 141.96C142.793 141.661 142.429 141.512 141.963 141.512C141.543 141.512 141.183 141.652 140.885 141.932C140.586 142.203 140.437 142.613 140.437 143.164V147H138.883V140.154H140.437V141.12C140.67 140.728 140.973 140.448 141.347 140.28C141.72 140.103 142.112 140.014 142.523 140.014C143.521 140.014 144.226 140.415 144.637 141.218C144.833 140.845 145.127 140.551 145.519 140.336C145.92 140.121 146.354 140.014 146.821 140.014C147.651 140.014 148.323 140.271 148.837 140.784C149.359 141.288 149.621 141.965 149.621 142.814V147ZM58.5196 162.81L61.9356 159.436C62.4863 158.895 62.8736 158.461 63.0976 158.134C63.3216 157.807 63.4336 157.471 63.4336 157.126C63.4336 156.697 63.2843 156.347 62.9856 156.076C62.6963 155.796 62.323 155.656 61.8656 155.656C61.3056 155.656 60.8623 155.833 60.5356 156.188C60.2183 156.543 60.069 157.019 60.0876 157.616H58.4356C58.417 156.916 58.5476 156.295 58.8276 155.754C59.117 155.213 59.5276 154.797 60.0596 154.508C60.5916 154.209 61.1936 154.06 61.8656 154.06C62.4816 154.06 63.037 154.191 63.5316 154.452C64.0263 154.704 64.4136 155.059 64.6936 155.516C64.9736 155.964 65.1136 156.477 65.1136 157.056C65.1136 157.625 64.941 158.181 64.5956 158.722C64.2596 159.263 63.7603 159.847 63.0976 160.472L61.1656 162.404H65.1836V164H58.5196V162.81ZM70.1053 164.14C69.34 164.14 68.6773 163.935 68.1173 163.524C67.5573 163.104 67.128 162.516 66.8293 161.76C66.54 161.004 66.3953 160.117 66.3953 159.1C66.3953 158.083 66.54 157.196 66.8293 156.44C67.128 155.684 67.5573 155.101 68.1173 154.69C68.6773 154.27 69.34 154.06 70.1053 154.06C70.8706 154.06 71.5286 154.27 72.0793 154.69C72.6393 155.101 73.064 155.684 73.3533 156.44C73.652 157.196 73.8013 158.083 73.8013 159.1C73.8013 160.117 73.652 161.004 73.3533 161.76C73.064 162.516 72.6393 163.104 72.0793 163.524C71.5286 163.935 70.8706 164.14 70.1053 164.14ZM70.1053 162.544C70.7493 162.544 71.244 162.255 71.5893 161.676C71.944 161.088 72.1213 160.229 72.1213 159.1C72.1213 157.971 71.944 157.117 71.5893 156.538C71.244 155.95 70.7493 155.656 70.1053 155.656C69.4613 155.656 68.962 155.95 68.6073 156.538C68.262 157.117 68.0893 157.971 68.0893 159.1C68.0893 160.229 68.262 161.088 68.6073 161.676C68.962 162.255 69.4613 162.544 70.1053 162.544ZM75.0216 162.81L78.4376 159.436C78.9883 158.895 79.3756 158.461 79.5996 158.134C79.8236 157.807 79.9356 157.471 79.9356 157.126C79.9356 156.697 79.7863 156.347 79.4876 156.076C79.1983 155.796 78.8249 155.656 78.3676 155.656C77.8076 155.656 77.3643 155.833 77.0376 156.188C76.7203 156.543 76.5709 157.019 76.5896 157.616H74.9376C74.9189 156.916 75.0496 156.295 75.3296 155.754C75.6189 155.213 76.0296 154.797 76.5616 154.508C77.0936 154.209 77.6956 154.06 78.3676 154.06C78.9836 154.06 79.5389 154.191 80.0336 154.452C80.5283 154.704 80.9156 155.059 81.1956 155.516C81.4756 155.964 81.6156 156.477 81.6156 157.056C81.6156 157.625 81.4429 158.181 81.0976 158.722C80.7616 159.263 80.2623 159.847 79.5996 160.472L77.6676 162.404H81.6856V164H75.0216V162.81ZM86.1173 164.14C85.5013 164.14 84.9413 164.023 84.4373 163.79C83.9333 163.547 83.5273 163.211 83.2193 162.782C82.9113 162.343 82.7339 161.849 82.6873 161.298H84.3253C84.3999 161.662 84.5959 161.961 84.9133 162.194C85.2306 162.427 85.6319 162.544 86.1173 162.544C86.6399 162.544 87.0693 162.385 87.4053 162.068C87.7506 161.741 87.9233 161.321 87.9233 160.808C87.9233 160.304 87.7413 159.912 87.3773 159.632C87.0133 159.352 86.5419 159.212 85.9633 159.212C85.6179 159.212 85.2726 159.259 84.9273 159.352V158.274L87.2233 155.768H82.9533V154.2H89.5333V155.292L86.9013 158.078C87.4053 158.078 87.8626 158.199 88.2733 158.442C88.6839 158.675 89.0059 159.007 89.2393 159.436C89.4819 159.856 89.6033 160.327 89.6033 160.85C89.6033 161.485 89.4539 162.054 89.1553 162.558C88.8566 163.053 88.4413 163.44 87.9093 163.72C87.3866 164 86.7893 164.14 86.1173 164.14ZM97.2358 164.084C96.4611 164.084 95.8451 163.855 95.3878 163.398C94.9398 162.931 94.7158 162.273 94.7158 161.424V158.638H93.4138V157.154H94.7158V155.32H96.2838V157.154H98.0758V158.638H96.2838V161.396C96.2838 161.816 96.3958 162.124 96.6198 162.32C96.8531 162.516 97.1704 162.614 97.5718 162.614C97.7678 162.614 97.9358 162.595 98.0758 162.558V164C97.8424 164.056 97.5624 164.084 97.2358 164.084ZM102.282 157.014C102.935 157.014 103.532 157.173 104.074 157.49C104.615 157.798 105.04 158.227 105.348 158.778C105.665 159.319 105.824 159.921 105.824 160.584C105.824 161.247 105.665 161.849 105.348 162.39C105.04 162.931 104.615 163.361 104.074 163.678C103.532 163.986 102.935 164.14 102.282 164.14C101.619 164.14 101.017 163.986 100.476 163.678C99.9343 163.361 99.505 162.931 99.1877 162.39C98.8797 161.849 98.7257 161.247 98.7257 160.584C98.7257 159.921 98.8797 159.319 99.1877 158.778C99.505 158.227 99.9343 157.798 100.476 157.49C101.017 157.173 101.619 157.014 102.282 157.014ZM102.282 158.498C101.908 158.498 101.563 158.591 101.246 158.778C100.938 158.955 100.69 159.207 100.504 159.534C100.326 159.851 100.238 160.201 100.238 160.584C100.238 160.967 100.326 161.317 100.504 161.634C100.69 161.942 100.938 162.189 101.246 162.376C101.563 162.553 101.908 162.642 102.282 162.642C102.655 162.642 102.996 162.553 103.304 162.376C103.612 162.189 103.854 161.942 104.032 161.634C104.218 161.317 104.312 160.967 104.312 160.584C104.312 160.201 104.218 159.851 104.032 159.534C103.854 159.207 103.607 158.955 103.29 158.778C102.982 158.591 102.646 158.498 102.282 158.498ZM110.131 162.81L113.547 159.436C114.098 158.895 114.485 158.461 114.709 158.134C114.933 157.807 115.045 157.471 115.045 157.126C115.045 156.697 114.896 156.347 114.597 156.076C114.308 155.796 113.934 155.656 113.477 155.656C112.917 155.656 112.474 155.833 112.147 156.188C111.83 156.543 111.68 157.019 111.699 157.616H110.047C110.028 156.916 110.159 156.295 110.439 155.754C110.728 155.213 111.139 154.797 111.671 154.508C112.203 154.209 112.805 154.06 113.477 154.06C114.093 154.06 114.648 154.191 115.143 154.452C115.638 154.704 116.025 155.059 116.305 155.516C116.585 155.964 116.725 156.477 116.725 157.056C116.725 157.625 116.552 158.181 116.207 158.722C115.871 159.263 115.372 159.847 114.709 160.472L112.777 162.404H116.795V164H110.131V162.81ZM121.717 164.14C120.951 164.14 120.289 163.935 119.729 163.524C119.169 163.104 118.739 162.516 118.441 161.76C118.151 161.004 118.007 160.117 118.007 159.1C118.007 158.083 118.151 157.196 118.441 156.44C118.739 155.684 119.169 155.101 119.729 154.69C120.289 154.27 120.951 154.06 121.717 154.06C122.482 154.06 123.14 154.27 123.691 154.69C124.251 155.101 124.675 155.684 124.965 156.44C125.263 157.196 125.413 158.083 125.413 159.1C125.413 160.117 125.263 161.004 124.965 161.76C124.675 162.516 124.251 163.104 123.691 163.524C123.14 163.935 122.482 164.14 121.717 164.14ZM121.717 162.544C122.361 162.544 122.855 162.255 123.201 161.676C123.555 161.088 123.733 160.229 123.733 159.1C123.733 157.971 123.555 157.117 123.201 156.538C122.855 155.95 122.361 155.656 121.717 155.656C121.073 155.656 120.573 155.95 120.219 156.538C119.873 157.117 119.701 157.971 119.701 159.1C119.701 160.229 119.873 161.088 120.219 161.676C120.573 162.255 121.073 162.544 121.717 162.544ZM126.633 162.81L130.049 159.436C130.6 158.895 130.987 158.461 131.211 158.134C131.435 157.807 131.547 157.471 131.547 157.126C131.547 156.697 131.398 156.347 131.099 156.076C130.81 155.796 130.436 155.656 129.979 155.656C129.419 155.656 128.976 155.833 128.649 156.188C128.332 156.543 128.182 157.019 128.201 157.616H126.549C126.53 156.916 126.661 156.295 126.941 155.754C127.23 155.213 127.641 154.797 128.173 154.508C128.705 154.209 129.307 154.06 129.979 154.06C130.595 154.06 131.15 154.191 131.645 154.452C132.14 154.704 132.527 155.059 132.807 155.516C133.087 155.964 133.227 156.477 133.227 157.056C133.227 157.625 133.054 158.181 132.709 158.722C132.373 159.263 131.874 159.847 131.211 160.472L129.279 162.404H133.297V164H126.633V162.81ZM134.118 160.78L137.618 154.2H139.466L136.162 160.416H138.99V157.658H140.628V160.416H141.79V161.9H140.628V164H138.99V161.9H134.118V160.78Z" fill="#4F6D5D"></path>
  <rect x="21" y="40" width="165" height="87" rx="20" fill="#A9B897"></rect>
  <path d="M51.5314 19.4227H55.1994C55.7408 19.4227 56.2401 19.5533 56.6974 19.8147C57.1641 20.0667 57.5328 20.4167 57.8034 20.8647C58.0741 21.3127 58.2094 21.8027 58.2094 22.3347C58.2094 23.0067 58.0414 23.59 57.7054 24.0847C57.3788 24.57 56.9308 24.9107 56.3614 25.1067L59.0354 29.2227H57.0474L54.6114 25.2887H53.1694V29.2227H51.5314V19.4227ZM54.9894 23.6787C55.4561 23.6787 55.8248 23.5573 56.0954 23.3147C56.3754 23.072 56.5154 22.7453 56.5154 22.3347C56.5154 21.9333 56.3754 21.616 56.0954 21.3827C55.8248 21.1493 55.4561 21.0327 54.9894 21.0327H53.1694V23.6787H54.9894ZM62.7309 29.3627C62.0682 29.3627 61.4662 29.2087 60.9249 28.9007C60.3836 28.5833 59.9542 28.1493 59.6369 27.5987C59.3289 27.048 59.1749 26.4413 59.1749 25.7787C59.1749 25.1253 59.3289 24.528 59.6369 23.9867C59.9542 23.4453 60.3789 23.0207 60.9109 22.7127C61.4522 22.3953 62.0496 22.2367 62.7029 22.2367C63.3096 22.2367 63.8649 22.386 64.3689 22.6847C64.8822 22.974 65.2882 23.3753 65.5869 23.8887C65.8856 24.3927 66.0349 24.9573 66.0349 25.5827L66.0069 26.1707H60.6449C60.7196 26.7307 60.9436 27.1833 61.3169 27.5287C61.6902 27.8647 62.1569 28.0327 62.7169 28.0327C63.1556 28.0327 63.5289 27.9347 63.8369 27.7387C64.1542 27.5427 64.3456 27.286 64.4109 26.9687H65.9509C65.8296 27.6967 65.4749 28.28 64.8869 28.7187C64.2989 29.148 63.5802 29.3627 62.7309 29.3627ZM64.3829 25.0367C64.3362 24.6073 64.1496 24.2527 63.8229 23.9727C63.4962 23.6927 63.1042 23.5527 62.6469 23.5527C62.1709 23.5527 61.7602 23.6833 61.4149 23.9447C61.0789 24.1967 60.8502 24.5607 60.7289 25.0367H64.3829ZM70.2302 29.3627C69.6329 29.3627 69.0822 29.204 68.5782 28.8867C68.0835 28.5693 67.6915 28.1353 67.4022 27.5847C67.1129 27.034 66.9682 26.4367 66.9682 25.7927C66.9682 25.1487 67.1129 24.556 67.4022 24.0147C67.6915 23.464 68.0835 23.03 68.5782 22.7127C69.0822 22.3953 69.6329 22.2367 70.2302 22.2367C70.7809 22.2367 71.2615 22.358 71.6722 22.6007C72.0829 22.834 72.4142 23.17 72.6662 23.6087V19.4227H74.2202V29.2227H72.6662V27.9907C72.4142 28.4293 72.0829 28.77 71.6722 29.0127C71.2615 29.246 70.7809 29.3627 70.2302 29.3627ZM70.5662 27.8787C70.9582 27.8787 71.3129 27.79 71.6302 27.6127C71.9569 27.426 72.2089 27.174 72.3862 26.8567C72.5729 26.5393 72.6662 26.1847 72.6662 25.7927C72.6662 25.41 72.5729 25.06 72.3862 24.7427C72.2089 24.4253 71.9569 24.178 71.6302 24.0007C71.3129 23.814 70.9582 23.7207 70.5662 23.7207C70.1835 23.7207 69.8335 23.814 69.5162 24.0007C69.1989 24.1873 68.9469 24.4393 68.7602 24.7567C68.5829 25.074 68.4942 25.4193 68.4942 25.7927C68.4942 26.1753 68.5829 26.5253 68.7602 26.8427C68.9469 27.16 69.1989 27.412 69.5162 27.5987C69.8335 27.7853 70.1835 27.8787 70.5662 27.8787ZM80.7618 28.1447C80.5378 28.5367 80.2485 28.84 79.8938 29.0547C79.5485 29.26 79.1518 29.3627 78.7038 29.3627C77.8171 29.3627 77.1171 29.0873 76.6038 28.5367C76.0998 27.986 75.8478 27.23 75.8478 26.2687V22.3767H77.4158V26.0867C77.4158 26.628 77.5651 27.062 77.8638 27.3887C78.1718 27.706 78.5778 27.8647 79.0818 27.8647C79.5858 27.8647 79.9918 27.706 80.2998 27.3887C80.6078 27.062 80.7618 26.628 80.7618 26.0867V22.3767H82.3298V29.2227H80.7618V28.1447ZM87.1895 29.3627C86.5269 29.3627 85.9249 29.2087 85.3835 28.9007C84.8515 28.5927 84.4269 28.168 84.1095 27.6267C83.8015 27.076 83.6475 26.4693 83.6475 25.8067C83.6475 25.144 83.8015 24.542 84.1095 24.0007C84.4269 23.45 84.8515 23.0207 85.3835 22.7127C85.9249 22.3953 86.5269 22.2367 87.1895 22.2367C87.7309 22.2367 88.2395 22.3487 88.7155 22.5727C89.1915 22.7967 89.5835 23.1093 89.8915 23.5107C90.2089 23.9027 90.4002 24.3413 90.4655 24.8267H88.8695C88.7855 24.5093 88.5849 24.248 88.2675 24.0427C87.9502 23.8373 87.5909 23.7347 87.1895 23.7347C86.8162 23.7347 86.4755 23.828 86.1675 24.0147C85.8689 24.192 85.6309 24.4393 85.4535 24.7567C85.2762 25.074 85.1875 25.424 85.1875 25.8067C85.1875 26.1893 85.2762 26.5393 85.4535 26.8567C85.6309 27.1647 85.8689 27.412 86.1675 27.5987C86.4755 27.776 86.8162 27.8647 87.1895 27.8647C87.5909 27.8647 87.9502 27.7573 88.2675 27.5427C88.5942 27.328 88.7995 27.0527 88.8835 26.7167H90.4655C90.4095 27.2207 90.2275 27.678 89.9195 28.0887C89.6115 28.49 89.2149 28.8027 88.7295 29.0267C88.2535 29.2507 87.7402 29.3627 87.1895 29.3627ZM94.7768 29.3067C94.0021 29.3067 93.3861 29.078 92.9288 28.6207C92.4808 28.154 92.2568 27.496 92.2568 26.6467V23.8607H90.9548V22.3767H92.2568V20.5427H93.8248V22.3767H95.6168V23.8607H93.8248V26.6187C93.8248 27.0387 93.9368 27.3467 94.1608 27.5427C94.3941 27.7387 94.7114 27.8367 95.1128 27.8367C95.3088 27.8367 95.4768 27.818 95.6168 27.7807V29.2227C95.3834 29.2787 95.1034 29.3067 94.7768 29.3067ZM98.4044 22.3767V29.2227H96.8504V22.3767H98.4044ZM97.6344 21.2007C97.3638 21.2007 97.1258 21.1027 96.9204 20.9067C96.7244 20.7107 96.6264 20.4773 96.6264 20.2067C96.6264 19.936 96.7244 19.7027 96.9204 19.5067C97.1258 19.3013 97.3638 19.1987 97.6344 19.1987C97.9144 19.1987 98.1524 19.3013 98.3484 19.5067C98.5444 19.7027 98.6424 19.936 98.6424 20.2067C98.6424 20.4773 98.5444 20.7107 98.3484 20.9067C98.1524 21.1027 97.9144 21.2007 97.6344 21.2007ZM103.295 22.2367C103.949 22.2367 104.546 22.3953 105.087 22.7127C105.629 23.0207 106.053 23.45 106.361 24.0007C106.679 24.542 106.837 25.144 106.837 25.8067C106.837 26.4693 106.679 27.0713 106.361 27.6127C106.053 28.154 105.629 28.5833 105.087 28.9007C104.546 29.2087 103.949 29.3627 103.295 29.3627C102.633 29.3627 102.031 29.2087 101.489 28.9007C100.948 28.5833 100.519 28.154 100.201 27.6127C99.8933 27.0713 99.7393 26.4693 99.7393 25.8067C99.7393 25.144 99.8933 24.542 100.201 24.0007C100.519 23.45 100.948 23.0207 101.489 22.7127C102.031 22.3953 102.633 22.2367 103.295 22.2367ZM103.295 23.7207C102.922 23.7207 102.577 23.814 102.259 24.0007C101.951 24.178 101.704 24.43 101.517 24.7567C101.34 25.074 101.251 25.424 101.251 25.8067C101.251 26.1893 101.34 26.5393 101.517 26.8567C101.704 27.1647 101.951 27.412 102.259 27.5987C102.577 27.776 102.922 27.8647 103.295 27.8647C103.669 27.8647 104.009 27.776 104.317 27.5987C104.625 27.412 104.868 27.1647 105.045 26.8567C105.232 26.5393 105.325 26.1893 105.325 25.8067C105.325 25.424 105.232 25.074 105.045 24.7567C104.868 24.43 104.621 24.178 104.303 24.0007C103.995 23.814 103.659 23.7207 103.295 23.7207ZM109.738 23.4547C109.953 23.0627 110.238 22.764 110.592 22.5587C110.956 22.344 111.362 22.2367 111.81 22.2367C112.688 22.2367 113.378 22.512 113.882 23.0627C114.396 23.6133 114.652 24.3647 114.652 25.3167V29.2227H113.084V25.5127C113.084 24.9713 112.93 24.542 112.622 24.2247C112.324 23.898 111.927 23.7347 111.432 23.7347C110.919 23.7347 110.508 23.898 110.2 24.2247C109.892 24.542 109.738 24.9713 109.738 25.5127V29.2227H108.184V22.3767H109.738V23.4547ZM122.682 22.2367C123.335 22.2367 123.933 22.3953 124.474 22.7127C125.015 23.0207 125.44 23.45 125.748 24.0007C126.065 24.542 126.224 25.144 126.224 25.8067C126.224 26.4693 126.065 27.0713 125.748 27.6127C125.44 28.154 125.015 28.5833 124.474 28.9007C123.933 29.2087 123.335 29.3627 122.682 29.3627C122.019 29.3627 121.417 29.2087 120.876 28.9007C120.335 28.5833 119.905 28.154 119.588 27.6127C119.28 27.0713 119.126 26.4693 119.126 25.8067C119.126 25.144 119.28 24.542 119.588 24.0007C119.905 23.45 120.335 23.0207 120.876 22.7127C121.417 22.3953 122.019 22.2367 122.682 22.2367ZM122.682 23.7207C122.309 23.7207 121.963 23.814 121.646 24.0007C121.338 24.178 121.091 24.43 120.904 24.7567C120.727 25.074 120.638 25.424 120.638 25.8067C120.638 26.1893 120.727 26.5393 120.904 26.8567C121.091 27.1647 121.338 27.412 121.646 27.5987C121.963 27.776 122.309 27.8647 122.682 27.8647C123.055 27.8647 123.396 27.776 123.704 27.5987C124.012 27.412 124.255 27.1647 124.432 26.8567C124.619 26.5393 124.712 26.1893 124.712 25.8067C124.712 25.424 124.619 25.074 124.432 24.7567C124.255 24.43 124.007 24.178 123.69 24.0007C123.382 23.814 123.046 23.7207 122.682 23.7207ZM128.078 21.8167C128.078 20.9673 128.307 20.314 128.764 19.8567C129.221 19.39 129.833 19.1567 130.598 19.1567C130.925 19.1567 131.205 19.1847 131.438 19.2407V20.6827C131.298 20.6453 131.135 20.6267 130.948 20.6267C130.547 20.6267 130.229 20.7293 129.996 20.9347C129.763 21.1307 129.646 21.434 129.646 21.8447V22.3767H131.438V23.8607H129.646V29.2227H128.078V23.8607H126.776V22.3767H128.078V21.8167ZM140.275 28.1447C140.051 28.5367 139.762 28.84 139.407 29.0547C139.062 29.26 138.665 29.3627 138.217 29.3627C137.331 29.3627 136.631 29.0873 136.117 28.5367C135.613 27.986 135.361 27.23 135.361 26.2687V22.3767H136.929V26.0867C136.929 26.628 137.079 27.062 137.377 27.3887C137.685 27.706 138.091 27.8647 138.595 27.8647C139.099 27.8647 139.505 27.706 139.813 27.3887C140.121 27.062 140.275 26.628 140.275 26.0867V22.3767H141.843V29.2227H140.275V28.1447ZM146.073 29.3627C145.233 29.3627 144.547 29.1573 144.015 28.7467C143.483 28.3267 143.185 27.7527 143.119 27.0247H144.631C144.659 27.314 144.804 27.5473 145.065 27.7247C145.327 27.8927 145.653 27.9767 146.045 27.9767C146.409 27.9767 146.689 27.9113 146.885 27.7807C147.091 27.6407 147.193 27.4633 147.193 27.2487C147.193 26.9967 147.072 26.8147 146.829 26.7027C146.587 26.5813 146.213 26.4693 145.709 26.3667C145.205 26.264 144.79 26.1567 144.463 26.0447C144.137 25.9233 143.857 25.7273 143.623 25.4567C143.39 25.186 143.273 24.8173 143.273 24.3507C143.273 23.9493 143.381 23.59 143.595 23.2727C143.81 22.946 144.113 22.694 144.505 22.5167C144.907 22.33 145.364 22.2367 145.877 22.2367C146.615 22.2367 147.245 22.428 147.767 22.8107C148.299 23.184 148.607 23.7113 148.691 24.3927H147.109C147.081 24.15 146.951 23.9587 146.717 23.8187C146.493 23.6693 146.204 23.5947 145.849 23.5947C145.523 23.5947 145.266 23.6553 145.079 23.7767C144.893 23.8887 144.799 24.052 144.799 24.2667C144.799 24.5 144.911 24.668 145.135 24.7707C145.369 24.8733 145.733 24.9807 146.227 25.0927C146.75 25.2047 147.179 25.326 147.515 25.4567C147.851 25.5873 148.141 25.7973 148.383 26.0867C148.626 26.3667 148.747 26.754 148.747 27.2487C148.747 27.6407 148.631 28 148.397 28.3267C148.164 28.644 147.842 28.896 147.431 29.0827C147.021 29.2693 146.568 29.3627 146.073 29.3627ZM153.239 29.3627C152.576 29.3627 151.974 29.2087 151.433 28.9007C150.891 28.5833 150.462 28.1493 150.145 27.5987C149.837 27.048 149.683 26.4413 149.683 25.7787C149.683 25.1253 149.837 24.528 150.145 23.9867C150.462 23.4453 150.887 23.0207 151.419 22.7127C151.96 22.3953 152.557 22.2367 153.211 22.2367C153.817 22.2367 154.373 22.386 154.877 22.6847C155.39 22.974 155.796 23.3753 156.095 23.8887C156.393 24.3927 156.543 24.9573 156.543 25.5827L156.515 26.1707H151.153C151.227 26.7307 151.451 27.1833 151.825 27.5287C152.198 27.8647 152.665 28.0327 153.225 28.0327C153.663 28.0327 154.037 27.9347 154.345 27.7387C154.662 27.5427 154.853 27.286 154.919 26.9687H156.459C156.337 27.6967 155.983 28.28 155.395 28.7187C154.807 29.148 154.088 29.3627 153.239 29.3627ZM154.891 25.0367C154.844 24.6073 154.657 24.2527 154.331 23.9727C154.004 23.6927 153.612 23.5527 153.155 23.5527C152.679 23.5527 152.268 23.6833 151.923 23.9447C151.587 24.1967 151.358 24.5607 151.237 25.0367H154.891Z" fill="#4F6D5D"></path>
  <path d="M77.312 69.24C75.712 69.24 74.256 68.864 72.944 68.112C71.648 67.36 70.624 66.328 69.872 65.016C69.136 63.688 68.768 62.216 68.768 60.6C68.768 58.984 69.136 57.52 69.872 56.208C70.624 54.88 71.648 53.84 72.944 53.088C74.256 52.336 75.72 51.96 77.336 51.96C78.648 51.96 79.888 52.232 81.056 52.776C82.224 53.304 83.192 54.016 83.96 54.912C84.728 55.792 85.192 56.744 85.352 57.768H81.344C81.072 57.064 80.56 56.496 79.808 56.064C79.056 55.632 78.232 55.416 77.336 55.416C76.408 55.416 75.568 55.648 74.816 56.112C74.08 56.56 73.496 57.176 73.064 57.96C72.632 58.744 72.416 59.624 72.416 60.6C72.416 61.576 72.632 62.456 73.064 63.24C73.496 64.024 74.08 64.648 74.816 65.112C75.568 65.56 76.4 65.784 77.312 65.784C78.16 65.784 78.904 65.64 79.544 65.352C80.184 65.048 80.688 64.656 81.056 64.176C81.44 63.68 81.664 63.136 81.728 62.544H76.616V59.136H85.376C85.472 59.824 85.52 60.496 85.52 61.152C85.52 62.672 85.16 64.048 84.44 65.28C83.736 66.512 82.76 67.48 81.512 68.184C80.264 68.888 78.864 69.24 77.312 69.24ZM99.4355 69H96.0515V67.344C95.6355 67.968 95.1155 68.44 94.4915 68.76C93.8675 69.08 93.1475 69.24 92.3315 69.24C91.3395 69.24 90.4195 68.968 89.5715 68.424C88.7395 67.864 88.0755 67.112 87.5795 66.168C87.0995 65.224 86.8595 64.2 86.8595 63.096C86.8595 61.992 87.0995 60.968 87.5795 60.024C88.0755 59.08 88.7395 58.336 89.5715 57.792C90.4195 57.248 91.3395 56.976 92.3315 56.976C93.1475 56.976 93.8675 57.136 94.4915 57.456C95.1155 57.776 95.6355 58.248 96.0515 58.872V57.216H99.4355V69ZM93.0995 66C93.9315 66 94.6275 65.728 95.1875 65.184C95.7635 64.624 96.0515 63.928 96.0515 63.096C96.0515 62.28 95.7635 61.592 95.1875 61.032C94.6275 60.472 93.9315 60.192 93.0995 60.192C92.2835 60.192 91.5875 60.48 91.0115 61.056C90.4515 61.616 90.1715 62.296 90.1715 63.096C90.1715 63.912 90.4515 64.6 91.0115 65.16C91.5875 65.72 92.2835 66 93.0995 66ZM106.696 69.24C105.144 69.24 103.88 68.864 102.904 68.112C101.944 67.36 101.4 66.32 101.272 64.992H104.512C104.544 65.392 104.752 65.712 105.136 65.952C105.52 66.192 105.992 66.312 106.552 66.312C107.048 66.312 107.432 66.232 107.704 66.072C107.976 65.896 108.112 65.68 108.112 65.424C108.112 65.104 107.928 64.872 107.56 64.728C107.208 64.584 106.648 64.448 105.88 64.32C105 64.16 104.264 63.984 103.672 63.792C103.096 63.6 102.592 63.272 102.16 62.808C101.744 62.344 101.536 61.696 101.536 60.864C101.536 60.128 101.72 59.464 102.088 58.872C102.472 58.28 103.016 57.816 103.72 57.48C104.44 57.144 105.272 56.976 106.216 56.976C107.544 56.976 108.688 57.32 109.648 58.008C110.624 58.696 111.184 59.672 111.328 60.936H107.92C107.888 60.632 107.712 60.376 107.392 60.168C107.072 59.944 106.648 59.832 106.12 59.832C105.72 59.832 105.4 59.904 105.16 60.048C104.92 60.176 104.8 60.376 104.8 60.648C104.8 60.936 104.96 61.144 105.28 61.272C105.616 61.4 106.16 61.536 106.912 61.68C107.824 61.84 108.576 62.024 109.168 62.232C109.776 62.424 110.304 62.776 110.752 63.288C111.2 63.8 111.424 64.52 111.424 65.448C111.424 66.152 111.216 66.8 110.8 67.392C110.384 67.968 109.816 68.424 109.096 68.76C108.376 69.08 107.576 69.24 106.696 69.24Z" fill="#4F6D5D"></path>
  <path d="M67.2449 111.36C65.6609 111.36 64.1849 110.976 62.8169 110.208C61.4729 109.416 60.4049 108.36 59.6129 107.04C58.8209 105.72 58.4249 104.292 58.4249 102.756C58.4249 101.868 58.5929 100.884 58.9289 99.804C59.2889 98.724 59.8049 97.644 60.4769 96.564L67.1369 85.8H71.9609L66.3089 94.728C66.8849 94.536 67.4369 94.44 67.9649 94.44C69.4769 94.44 70.8449 94.8 72.0689 95.52C73.2929 96.24 74.2529 97.236 74.9489 98.508C75.6689 99.78 76.0289 101.196 76.0289 102.756C76.0289 104.292 75.6329 105.72 74.8409 107.04C74.0489 108.36 72.9809 109.416 71.6369 110.208C70.2929 110.976 68.8289 111.36 67.2449 111.36ZM67.2449 107.364C68.5649 107.364 69.6809 106.92 70.5929 106.032C71.5049 105.12 71.9609 104.016 71.9609 102.72C71.9609 101.4 71.4929 100.284 70.5569 99.372C69.6449 98.46 68.5289 98.004 67.2089 98.004C65.8889 98.004 64.7729 98.46 63.8609 99.372C62.9729 100.284 62.5289 101.4 62.5289 102.72C62.5289 104.016 62.9849 105.12 63.8969 106.032C64.8089 106.92 65.9249 107.364 67.2449 107.364ZM81.385 111.36C80.593 111.36 79.933 111.096 79.405 110.568C78.877 110.04 78.613 109.392 78.613 108.624C78.613 107.856 78.877 107.208 79.405 106.68C79.933 106.152 80.593 105.888 81.385 105.888C82.177 105.888 82.837 106.152 83.365 106.68C83.893 107.208 84.157 107.856 84.157 108.624C84.157 109.392 83.893 110.04 83.365 110.568C82.837 111.096 82.177 111.36 81.385 111.36ZM95.6045 111.36C93.6365 111.36 91.9325 110.832 90.4925 109.776C89.0525 108.696 87.9485 107.184 87.1805 105.24C86.4365 103.296 86.0645 101.016 86.0645 98.4C86.0645 95.784 86.4365 93.504 87.1805 91.56C87.9485 89.616 89.0525 88.116 90.4925 87.06C91.9325 85.98 93.6365 85.44 95.6045 85.44C97.5725 85.44 99.2645 85.98 100.68 87.06C102.12 88.116 103.212 89.616 103.956 91.56C104.724 93.504 105.108 95.784 105.108 98.4C105.108 101.016 104.724 103.296 103.956 105.24C103.212 107.184 102.12 108.696 100.68 109.776C99.2645 110.832 97.5725 111.36 95.6045 111.36ZM95.6045 107.256C97.2605 107.256 98.5325 106.512 99.4205 105.024C100.332 103.512 100.788 101.304 100.788 98.4C100.788 95.496 100.332 93.3 99.4205 91.812C98.5325 90.3 97.2605 89.544 95.6045 89.544C93.9485 89.544 92.6645 90.3 91.7525 91.812C90.8645 93.3 90.4205 95.496 90.4205 98.4C90.4205 101.304 90.8645 103.512 91.7525 105.024C92.6645 106.512 93.9485 107.256 95.6045 107.256ZM116.85 111.36C115.266 111.36 113.79 110.976 112.422 110.208C111.078 109.416 110.01 108.36 109.218 107.04C108.426 105.72 108.03 104.292 108.03 102.756C108.03 101.868 108.198 100.884 108.534 99.804C108.894 98.724 109.41 97.644 110.082 96.564L116.742 85.8H121.566L115.914 94.728C116.49 94.536 117.042 94.44 117.57 94.44C119.082 94.44 120.45 94.8 121.674 95.52C122.898 96.24 123.858 97.236 124.554 98.508C125.274 99.78 125.634 101.196 125.634 102.756C125.634 104.292 125.238 105.72 124.446 107.04C123.654 108.36 122.586 109.416 121.242 110.208C119.898 110.976 118.434 111.36 116.85 111.36ZM116.85 107.364C118.17 107.364 119.286 106.92 120.198 106.032C121.11 105.12 121.566 104.016 121.566 102.72C121.566 101.4 121.098 100.284 120.162 99.372C119.25 98.46 118.134 98.004 116.814 98.004C115.494 98.004 114.378 98.46 113.466 99.372C112.578 100.284 112.134 101.4 112.134 102.72C112.134 104.016 112.59 105.12 113.502 106.032C114.414 106.92 115.53 107.364 116.85 107.364ZM148.971 105.96C148.971 107.52 148.479 108.816 147.495 109.848C146.511 110.856 145.275 111.36 143.787 111.36C142.299 111.36 141.063 110.856 140.079 109.848C139.119 108.816 138.639 107.52 138.639 105.96C138.639 104.424 139.119 103.152 140.079 102.144C141.063 101.136 142.299 100.632 143.787 100.632C145.275 100.632 146.511 101.136 147.495 102.144C148.479 103.152 148.971 104.424 148.971 105.96ZM146.271 105.96C146.271 105.144 146.043 104.484 145.587 103.98C145.155 103.452 144.555 103.188 143.787 103.188C143.043 103.188 142.443 103.452 141.987 103.98C141.555 104.484 141.339 105.144 141.339 105.96C141.339 106.8 141.555 107.484 141.987 108.012C142.443 108.54 143.043 108.804 143.787 108.804C144.555 108.804 145.155 108.54 145.587 108.012C146.043 107.484 146.271 106.8 146.271 105.96ZM137.127 90.768C137.127 92.328 136.635 93.624 135.651 94.656C134.691 95.664 133.467 96.168 131.979 96.168C130.515 96.168 129.291 95.664 128.307 94.656C127.323 93.624 126.831 92.328 126.831 90.768C126.831 89.232 127.311 87.96 128.271 86.952C129.255 85.944 130.491 85.44 131.979 85.44C133.467 85.44 134.691 85.944 135.651 86.952C136.635 87.96 137.127 89.232 137.127 90.768ZM134.463 90.768C134.463 89.952 134.235 89.28 133.779 88.752C133.323 88.224 132.723 87.96 131.979 87.96C131.235 87.96 130.635 88.224 130.179 88.752C129.723 89.28 129.495 89.952 129.495 90.768C129.495 91.608 129.723 92.292 130.179 92.82C130.635 93.348 131.235 93.612 131.979 93.612C132.723 93.612 133.323 93.348 133.779 92.82C134.235 92.292 134.463 91.608 134.463 90.768ZM147.891 85.8L131.151 111H127.911L144.651 85.8H147.891Z" fill="#D6E8BA"></path>
  <path d="M133.787 48C129.263 51.0906 128.339 56.5255 128.339 56.5255C126.636 55.6574 126.423 53.6403 126.423 53.6403C124.446 55.6616 122.593 58.1568 121.639 61.021C118.892 69.2571 125.524 74 131.517 74C140.674 74 141.875 64.3003 137.705 59.0165C132.041 51.8329 133.787 48 133.787 48ZM133.787 48C133.778 48.0042 133.77 48.0126 133.761 48.0168" stroke="#4F6D5D" stroke-width="1.62095" stroke-linecap="round" stroke-linejoin="round"></path>
  <path d="M131.149 58.2656C133.429 60.717 133.271 64.1245 133.271 64.1245C134.393 63.8164 134.781 62.6247 134.781 62.6247C135.691 64.1019 136.466 65.8509 136.659 67.7042C137.218 73.042 132.677 75.0584 129.126 74.2927C123.702 73.1145 124.247 67.0925 127.401 64.4281C131.69 60.8077 131.149 58.2656 131.149 58.2656C131.149 58.2656 131.158 58.2747 131.163 58.2792L131.149 58.2656Z" fill="#4F6D5D"></path>
</svg>
