<?xml version="1.0" encoding="UTF-8"?>
<svg xmlns="http://www.w3.org/2000/svg" width="257" height="153" viewBox="0 0 257 153" fill="none">
  <rect width="257" height="153" rx="20" fill="#4F6D5D"></rect>
  <path d="M52.9423 68.64C50.1263 68.64 47.5663 68.1067 45.2623 67.04C42.9583 65.9307 41.1023 64.3947 39.6943 62.432C38.2863 60.4267 37.4756 58.1653 37.2623 55.648H44.7503C45.0916 57.312 45.9876 58.6773 47.4383 59.744C48.8889 60.8107 50.7236 61.344 52.9423 61.344C55.3316 61.344 57.2943 60.6187 58.8303 59.168C60.4089 57.6747 61.1983 55.7547 61.1983 53.408C61.1983 51.104 60.3663 49.312 58.7023 48.032C57.0383 46.752 54.8836 46.112 52.2383 46.112C50.6596 46.112 49.0809 46.3253 47.5023 46.752V41.824L57.9983 30.368H38.4783V23.2H68.5583V28.192L56.5263 40.928C58.8303 40.928 60.9209 41.4827 62.7983 42.592C64.6756 43.6587 66.1476 45.1733 67.2143 47.136C68.3236 49.056 68.8783 51.2107 68.8783 53.6C68.8783 56.5013 68.1956 59.104 66.8303 61.408C65.4649 63.6693 63.5663 65.44 61.1343 66.72C58.7449 68 56.0143 68.64 52.9423 68.64ZM89.7638 68.64C86.8198 68.64 84.1744 68.064 81.8278 66.912C79.5238 65.76 77.7104 64.16 76.3878 62.112C75.1078 60.064 74.4678 57.7813 74.4678 55.264C74.4678 52.7467 75.1931 50.4427 76.6438 48.352C78.1371 46.2613 80.0784 44.7467 82.4678 43.808C80.6331 42.9973 79.1184 41.7173 77.9238 39.968C76.7291 38.2187 76.1318 36.384 76.1318 34.464C76.1318 32.2027 76.7078 30.176 77.8598 28.384C79.0544 26.5493 80.6758 25.12 82.7238 24.096C84.8144 23.072 87.1611 22.56 89.7638 22.56C92.3664 22.56 94.6918 23.072 96.7398 24.096C98.8304 25.12 100.452 26.5493 101.604 28.384C102.798 30.176 103.396 32.2027 103.396 34.464C103.396 36.4267 102.798 38.2827 101.604 40.032C100.452 41.7387 98.9371 42.9973 97.0598 43.808C99.4491 44.704 101.369 46.1973 102.82 48.288C104.313 50.3787 105.06 52.704 105.06 55.264C105.06 57.7813 104.398 60.064 103.076 62.112C101.796 64.16 99.9824 65.76 97.6358 66.912C95.3318 68.064 92.7078 68.64 89.7638 68.64ZM89.7638 61.664C92.0678 61.664 93.9664 61.024 95.4598 59.744C96.9531 58.4213 97.6998 56.7573 97.6998 54.752C97.6998 52.7467 96.9531 51.104 95.4598 49.824C93.9664 48.544 92.0678 47.904 89.7638 47.904C87.5024 47.904 85.6251 48.5653 84.1318 49.888C82.6384 51.168 81.8918 52.7893 81.8918 54.752C81.8918 56.7573 82.6384 58.4213 84.1318 59.744C85.6251 61.024 87.5024 61.664 89.7638 61.664ZM89.7638 40.352C91.6411 40.352 93.1558 39.8187 94.3078 38.752C95.5024 37.6853 96.0998 36.3627 96.0998 34.784C96.0998 33.1627 95.5024 31.84 94.3078 30.816C93.1558 29.7493 91.6411 29.216 89.7638 29.216C87.9291 29.216 86.4144 29.7493 85.2198 30.816C84.0251 31.84 83.4278 33.1627 83.4278 34.784C83.4278 36.3627 84.0251 37.6853 85.2198 38.752C86.4144 39.8187 87.9291 40.352 89.7638 40.352Z" fill="#D6E8BA"></path>
  <path d="M71.6588 96V88.188H68.7888V86.2H76.5868V88.188H73.7308V96H71.6588ZM79.1326 96.14C78.4699 96.14 77.8632 95.9813 77.3126 95.664C76.7619 95.3467 76.3279 94.9127 76.0106 94.362C75.6932 93.802 75.5346 93.1907 75.5346 92.528C75.5346 91.8747 75.6886 91.2773 75.9966 90.736C76.3139 90.1947 76.7432 89.77 77.2846 89.462C77.8352 89.1447 78.4419 88.986 79.1046 88.986C79.7206 88.986 80.2852 89.1353 80.7986 89.434C81.3212 89.7233 81.7319 90.1247 82.0306 90.638C82.3386 91.1513 82.4926 91.7207 82.4926 92.346C82.4926 92.6073 82.4786 92.85 82.4506 93.074H77.3686C77.4432 93.5127 77.6346 93.858 77.9426 94.11C78.2599 94.362 78.6472 94.488 79.1046 94.488C79.4686 94.488 79.7672 94.418 80.0006 94.278C80.2432 94.1287 80.3972 93.9327 80.4626 93.69H82.3946C82.2826 94.4367 81.9279 95.034 81.3306 95.482C80.7332 95.9207 80.0006 96.14 79.1326 96.14ZM80.4206 91.758C80.3832 91.422 80.2292 91.1467 79.9586 90.932C79.6972 90.7173 79.3799 90.61 79.0066 90.61C78.6239 90.61 78.2972 90.708 78.0266 90.904C77.7559 91.0907 77.5646 91.3753 77.4526 91.758H80.4206ZM90.5952 96H88.6212V95.034C88.3785 95.398 88.0752 95.6733 87.7112 95.86C87.3472 96.0467 86.9272 96.14 86.4512 96.14C85.8725 96.14 85.3359 95.9813 84.8412 95.664C84.3559 95.3373 83.9685 94.8987 83.6792 94.348C83.3992 93.7973 83.2592 93.2 83.2592 92.556C83.2592 91.912 83.3992 91.3147 83.6792 90.764C83.9685 90.2133 84.3559 89.7793 84.8412 89.462C85.3359 89.1447 85.8725 88.986 86.4512 88.986C86.9272 88.986 87.3472 89.0793 87.7112 89.266C88.0752 89.4527 88.3785 89.728 88.6212 90.092V89.126H90.5952V96ZM86.8992 94.25C87.3845 94.25 87.7905 94.0913 88.1172 93.774C88.4532 93.4473 88.6212 93.0413 88.6212 92.556C88.6212 92.08 88.4532 91.6787 88.1172 91.352C87.7905 91.0253 87.3845 90.862 86.8992 90.862C86.4232 90.862 86.0172 91.03 85.6812 91.366C85.3545 91.6927 85.1912 92.0893 85.1912 92.556C85.1912 93.032 85.3545 93.4333 85.6812 93.76C86.0172 94.0867 86.4232 94.25 86.8992 94.25ZM102.796 96H100.822V92.192C100.822 91.7907 100.715 91.4733 100.5 91.24C100.286 90.9973 100.001 90.876 99.6464 90.876C99.2917 90.876 98.9931 90.9927 98.7504 91.226C98.5171 91.45 98.4004 91.772 98.4004 92.192V96H96.4264V92.192C96.4264 91.7907 96.3191 91.4733 96.1044 91.24C95.8897 90.9973 95.5957 90.876 95.2224 90.876C94.8864 90.876 94.6017 90.9927 94.3684 91.226C94.1351 91.45 94.0184 91.772 94.0184 92.192V96H92.0444V89.126H94.0184V89.938C94.2517 89.602 94.5457 89.3593 94.9004 89.21C95.2551 89.0607 95.6144 88.986 95.9784 88.986C96.4264 88.986 96.8091 89.07 97.1264 89.238C97.4531 89.3967 97.7191 89.6487 97.9244 89.994C98.1297 89.6953 98.4191 89.4527 98.7924 89.266C99.1657 89.0793 99.5671 88.986 99.9964 88.986C100.538 88.986 101.018 89.1027 101.438 89.336C101.868 89.56 102.199 89.8773 102.432 90.288C102.675 90.6987 102.796 91.1793 102.796 91.73V96ZM110.468 88.986C111.131 88.986 111.733 89.1447 112.274 89.462C112.825 89.77 113.254 90.1993 113.562 90.75C113.879 91.2913 114.038 91.898 114.038 92.57C114.038 93.242 113.879 93.8487 113.562 94.39C113.254 94.9313 112.825 95.3607 112.274 95.678C111.733 95.986 111.131 96.14 110.468 96.14C109.796 96.14 109.189 95.986 108.648 95.678C108.107 95.3607 107.677 94.9313 107.36 94.39C107.052 93.8487 106.898 93.242 106.898 92.57C106.898 91.898 107.052 91.2913 107.36 90.75C107.677 90.1993 108.107 89.77 108.648 89.462C109.189 89.1447 109.796 88.986 110.468 88.986ZM110.468 90.876C110.001 90.876 109.609 91.0393 109.292 91.366C108.975 91.6833 108.816 92.0847 108.816 92.57C108.816 93.046 108.975 93.4473 109.292 93.774C109.609 94.0913 110.001 94.25 110.468 94.25C110.935 94.25 111.322 94.0913 111.63 93.774C111.947 93.4473 112.106 93.046 112.106 92.57C112.106 92.0847 111.947 91.6833 111.63 91.366C111.322 91.0393 110.935 90.876 110.468 90.876ZM115.783 88.748C115.783 87.8427 116.025 87.1333 116.511 86.62C117.005 86.1067 117.663 85.85 118.485 85.85C118.849 85.85 119.171 85.8873 119.451 85.962V87.782C119.311 87.7447 119.143 87.726 118.947 87.726C118.583 87.726 118.293 87.8147 118.079 87.992C117.864 88.1693 117.757 88.4353 117.757 88.79V89.126H119.451V91.002H117.757V96H115.783V91.002H114.509V89.126H115.783V88.748ZM126.437 96.14C125.775 96.14 125.168 95.9813 124.617 95.664C124.067 95.3467 123.633 94.9127 123.315 94.362C122.998 93.802 122.839 93.1907 122.839 92.528C122.839 91.8747 122.993 91.2773 123.301 90.736C123.619 90.1947 124.048 89.77 124.589 89.462C125.14 89.1447 125.747 88.986 126.409 88.986C127.025 88.986 127.59 89.1353 128.103 89.434C128.626 89.7233 129.037 90.1247 129.335 90.638C129.643 91.1513 129.797 91.7207 129.797 92.346C129.797 92.6073 129.783 92.85 129.755 93.074H124.673C124.748 93.5127 124.939 93.858 125.247 94.11C125.565 94.362 125.952 94.488 126.409 94.488C126.773 94.488 127.072 94.418 127.305 94.278C127.548 94.1287 127.702 93.9327 127.767 93.69H129.699C129.587 94.4367 129.233 95.034 128.635 95.482C128.038 95.9207 127.305 96.14 126.437 96.14ZM127.725 91.758C127.688 91.422 127.534 91.1467 127.263 90.932C127.002 90.7173 126.685 90.61 126.311 90.61C125.929 90.61 125.602 90.708 125.331 90.904C125.061 91.0907 124.869 91.3753 124.757 91.758H127.725ZM132.874 90.022C133.089 89.686 133.355 89.4293 133.672 89.252C133.989 89.0747 134.344 88.986 134.736 88.986C135.613 88.986 136.299 89.266 136.794 89.826C137.298 90.3767 137.55 91.1373 137.55 92.108V96H135.576V92.36C135.576 91.912 135.45 91.5527 135.198 91.282C134.955 91.0113 134.633 90.876 134.232 90.876C133.821 90.876 133.49 91.0113 133.238 91.282C132.995 91.5527 132.874 91.912 132.874 92.36V96H130.9V89.126H132.874V90.022ZM142.397 98.828C141.893 98.828 141.375 98.7533 140.843 98.604C140.321 98.4547 139.863 98.1887 139.471 97.806C139.079 97.4233 138.865 96.91 138.827 96.266H140.787C140.825 96.5647 140.988 96.7933 141.277 96.952C141.567 97.1107 141.917 97.19 142.327 97.19C142.775 97.19 143.163 97.0593 143.489 96.798C143.816 96.5367 143.979 96.2007 143.979 95.79V94.838C143.485 95.566 142.761 95.93 141.809 95.93C141.221 95.93 140.68 95.776 140.185 95.468C139.7 95.1507 139.313 94.726 139.023 94.194C138.743 93.662 138.603 93.0833 138.603 92.458C138.603 91.8233 138.743 91.24 139.023 90.708C139.313 90.176 139.7 89.756 140.185 89.448C140.68 89.14 141.221 88.986 141.809 88.986C142.761 88.986 143.485 89.3453 143.979 90.064V89.126H145.953V95.706C145.953 96.3407 145.795 96.8913 145.477 97.358C145.169 97.834 144.745 98.198 144.203 98.45C143.671 98.702 143.069 98.828 142.397 98.828ZM142.257 94.11C142.743 94.11 143.149 93.9513 143.475 93.634C143.811 93.3167 143.979 92.9247 143.979 92.458C143.979 91.982 143.811 91.5853 143.475 91.268C143.149 90.9507 142.743 90.792 142.257 90.792C141.781 90.792 141.375 90.9553 141.039 91.282C140.703 91.5993 140.535 91.9913 140.535 92.458C140.535 92.9153 140.703 93.3073 141.039 93.634C141.375 93.9513 141.781 94.11 142.257 94.11ZM149.348 89.126V96H147.374V89.126H149.348ZM148.354 88.188C148.028 88.188 147.743 88.0713 147.5 87.838C147.267 87.6047 147.15 87.3247 147.15 86.998C147.15 86.6713 147.267 86.3913 147.5 86.158C147.743 85.9153 148.028 85.794 148.354 85.794C148.69 85.794 148.975 85.9153 149.208 86.158C149.442 86.3913 149.558 86.6713 149.558 86.998C149.558 87.3247 149.442 87.6047 149.208 87.838C148.975 88.0713 148.69 88.188 148.354 88.188ZM152.766 90.022C152.981 89.686 153.247 89.4293 153.564 89.252C153.882 89.0747 154.236 88.986 154.628 88.986C155.506 88.986 156.192 89.266 156.686 89.826C157.19 90.3767 157.442 91.1373 157.442 92.108V96H155.468V92.36C155.468 91.912 155.342 91.5527 155.09 91.282C154.848 91.0113 154.526 90.876 154.124 90.876C153.714 90.876 153.382 91.0113 153.13 91.282C152.888 91.5527 152.766 91.912 152.766 92.36V96H150.792V89.126H152.766V90.022ZM162.08 96.14C161.417 96.14 160.811 95.9813 160.26 95.664C159.709 95.3467 159.275 94.9127 158.958 94.362C158.641 93.802 158.482 93.1907 158.482 92.528C158.482 91.8747 158.636 91.2773 158.944 90.736C159.261 90.1947 159.691 89.77 160.232 89.462C160.783 89.1447 161.389 88.986 162.052 88.986C162.668 88.986 163.233 89.1353 163.746 89.434C164.269 89.7233 164.679 90.1247 164.978 90.638C165.286 91.1513 165.44 91.7207 165.44 92.346C165.44 92.6073 165.426 92.85 165.398 93.074H160.316C160.391 93.5127 160.582 93.858 160.89 94.11C161.207 94.362 161.595 94.488 162.052 94.488C162.416 94.488 162.715 94.418 162.948 94.278C163.191 94.1287 163.345 93.9327 163.41 93.69H165.342C165.23 94.4367 164.875 95.034 164.278 95.482C163.681 95.9207 162.948 96.14 162.08 96.14ZM163.368 91.758C163.331 91.422 163.177 91.1467 162.906 90.932C162.645 90.7173 162.327 90.61 161.954 90.61C161.571 90.61 161.245 90.708 160.974 90.904C160.703 91.0907 160.512 91.3753 160.4 91.758H163.368ZM169.804 96.14C169.142 96.14 168.535 95.9813 167.984 95.664C167.434 95.3467 167 94.9127 166.682 94.362C166.365 93.802 166.206 93.1907 166.206 92.528C166.206 91.8747 166.36 91.2773 166.668 90.736C166.986 90.1947 167.415 89.77 167.956 89.462C168.507 89.1447 169.114 88.986 169.776 88.986C170.392 88.986 170.957 89.1353 171.47 89.434C171.993 89.7233 172.404 90.1247 172.702 90.638C173.01 91.1513 173.164 91.7207 173.164 92.346C173.164 92.6073 173.15 92.85 173.122 93.074H168.04C168.115 93.5127 168.306 93.858 168.614 94.11C168.932 94.362 169.319 94.488 169.776 94.488C170.14 94.488 170.439 94.418 170.672 94.278C170.915 94.1287 171.069 93.9327 171.134 93.69H173.066C172.954 94.4367 172.6 95.034 172.002 95.482C171.405 95.9207 170.672 96.14 169.804 96.14ZM171.092 91.758C171.055 91.422 170.901 91.1467 170.63 90.932C170.369 90.7173 170.052 90.61 169.678 90.61C169.296 90.61 168.969 90.708 168.698 90.904C168.428 91.0907 168.236 91.3753 168.124 91.758H171.092ZM174.267 89.126H176.241V89.938C176.437 89.6393 176.689 89.406 176.997 89.238C177.305 89.07 177.646 88.986 178.019 88.986C178.168 88.986 178.383 89.014 178.663 89.07V90.862C178.402 90.7967 178.168 90.764 177.963 90.764C177.459 90.764 177.044 90.9227 176.717 91.24C176.4 91.548 176.241 92.0053 176.241 92.612V96H174.267V89.126ZM182.207 96.14C181.302 96.14 180.565 95.9207 179.995 95.482C179.435 95.0433 179.118 94.4367 179.043 93.662H180.933C180.952 93.8953 181.073 94.082 181.297 94.222C181.521 94.362 181.797 94.432 182.123 94.432C182.413 94.432 182.637 94.3853 182.795 94.292C182.954 94.1893 183.033 94.0633 183.033 93.914C183.033 93.7273 182.926 93.592 182.711 93.508C182.506 93.424 182.179 93.3447 181.731 93.27C181.218 93.1767 180.789 93.074 180.443 92.962C180.107 92.85 179.813 92.6587 179.561 92.388C179.319 92.1173 179.197 91.7393 179.197 91.254C179.197 90.8247 179.305 90.4373 179.519 90.092C179.743 89.7467 180.061 89.476 180.471 89.28C180.891 89.084 181.377 88.986 181.927 88.986C182.702 88.986 183.369 89.1867 183.929 89.588C184.499 89.9893 184.825 90.5587 184.909 91.296H182.921C182.903 91.1187 182.8 90.9693 182.613 90.848C182.427 90.7173 182.179 90.652 181.871 90.652C181.638 90.652 181.451 90.694 181.311 90.778C181.171 90.8527 181.101 90.9693 181.101 91.128C181.101 91.296 181.195 91.4173 181.381 91.492C181.577 91.5667 181.895 91.646 182.333 91.73C182.865 91.8233 183.304 91.9307 183.649 92.052C184.004 92.164 184.312 92.3693 184.573 92.668C184.835 92.9667 184.965 93.3867 184.965 93.928C184.965 94.3387 184.844 94.7167 184.601 95.062C184.359 95.398 184.027 95.664 183.607 95.86C183.187 96.0467 182.721 96.14 182.207 96.14ZM78.4665 106.126H80.5805L81.7285 109.892L83.1005 106.126H84.6405L86.0265 109.892L87.1605 106.126H89.2885L86.8105 113H85.2565L83.8705 109.234L82.4705 113H80.9445L78.4665 106.126ZM93.0499 105.986C93.7126 105.986 94.3146 106.145 94.8559 106.462C95.4066 106.77 95.8359 107.199 96.1439 107.75C96.4612 108.291 96.6199 108.898 96.6199 109.57C96.6199 110.242 96.4612 110.849 96.1439 111.39C95.8359 111.931 95.4066 112.361 94.8559 112.678C94.3146 112.986 93.7126 113.14 93.0499 113.14C92.3779 113.14 91.7712 112.986 91.2299 112.678C90.6886 112.361 90.2592 111.931 89.9419 111.39C89.6339 110.849 89.4799 110.242 89.4799 109.57C89.4799 108.898 89.6339 108.291 89.9419 107.75C90.2592 107.199 90.6886 106.77 91.2299 106.462C91.7712 106.145 92.3779 105.986 93.0499 105.986ZM93.0499 107.876C92.5832 107.876 92.1912 108.039 91.8739 108.366C91.5566 108.683 91.3979 109.085 91.3979 109.57C91.3979 110.046 91.5566 110.447 91.8739 110.774C92.1912 111.091 92.5832 111.25 93.0499 111.25C93.5166 111.25 93.9039 111.091 94.2119 110.774C94.5292 110.447 94.6879 110.046 94.6879 109.57C94.6879 109.085 94.5292 108.683 94.2119 108.366C93.9039 108.039 93.5166 107.876 93.0499 107.876ZM97.7319 106.126H99.7059V106.938C99.9019 106.639 100.154 106.406 100.462 106.238C100.77 106.07 101.111 105.986 101.484 105.986C101.633 105.986 101.848 106.014 102.128 106.07V107.862C101.867 107.797 101.633 107.764 101.428 107.764C100.924 107.764 100.509 107.923 100.182 108.24C99.8646 108.548 99.7059 109.005 99.7059 109.612V113H97.7319V106.126ZM105.038 108.352L107.488 106.126H109.924L107.138 108.66L110.148 113H107.642L105.696 109.976L105.038 110.564V113H103.064V103.2H105.038V108.352ZM112.667 106.126V113H110.693V106.126H112.667ZM111.673 105.188C111.346 105.188 111.062 105.071 110.819 104.838C110.586 104.605 110.469 104.325 110.469 103.998C110.469 103.671 110.586 103.391 110.819 103.158C111.062 102.915 111.346 102.794 111.673 102.794C112.009 102.794 112.294 102.915 112.527 103.158C112.76 103.391 112.877 103.671 112.877 103.998C112.877 104.325 112.76 104.605 112.527 104.838C112.294 105.071 112.009 105.188 111.673 105.188ZM116.085 107.022C116.299 106.686 116.565 106.429 116.883 106.252C117.2 106.075 117.555 105.986 117.947 105.986C118.824 105.986 119.51 106.266 120.005 106.826C120.509 107.377 120.761 108.137 120.761 109.108V113H118.787V109.36C118.787 108.912 118.661 108.553 118.409 108.282C118.166 108.011 117.844 107.876 117.443 107.876C117.032 107.876 116.701 108.011 116.449 108.282C116.206 108.553 116.085 108.912 116.085 109.36V113H114.111V106.126H116.085V107.022ZM125.608 115.828C125.104 115.828 124.586 115.753 124.054 115.604C123.532 115.455 123.074 115.189 122.682 114.806C122.29 114.423 122.076 113.91 122.038 113.266H123.998C124.036 113.565 124.199 113.793 124.488 113.952C124.778 114.111 125.128 114.19 125.538 114.19C125.986 114.19 126.374 114.059 126.7 113.798C127.027 113.537 127.19 113.201 127.19 112.79V111.838C126.696 112.566 125.972 112.93 125.02 112.93C124.432 112.93 123.891 112.776 123.396 112.468C122.911 112.151 122.524 111.726 122.234 111.194C121.954 110.662 121.814 110.083 121.814 109.458C121.814 108.823 121.954 108.24 122.234 107.708C122.524 107.176 122.911 106.756 123.396 106.448C123.891 106.14 124.432 105.986 125.02 105.986C125.972 105.986 126.696 106.345 127.19 107.064V106.126H129.164V112.706C129.164 113.341 129.006 113.891 128.688 114.358C128.38 114.834 127.956 115.198 127.414 115.45C126.882 115.702 126.28 115.828 125.608 115.828ZM125.468 111.11C125.954 111.11 126.36 110.951 126.686 110.634C127.022 110.317 127.19 109.925 127.19 109.458C127.19 108.982 127.022 108.585 126.686 108.268C126.36 107.951 125.954 107.792 125.468 107.792C124.992 107.792 124.586 107.955 124.25 108.282C123.914 108.599 123.746 108.991 123.746 109.458C123.746 109.915 123.914 110.307 124.25 110.634C124.586 110.951 124.992 111.11 125.468 111.11ZM135.622 106.126V113H133.648V106.126H135.622ZM134.628 105.188C134.301 105.188 134.017 105.071 133.774 104.838C133.541 104.605 133.424 104.325 133.424 103.998C133.424 103.671 133.541 103.391 133.774 103.158C134.017 102.915 134.301 102.794 134.628 102.794C134.964 102.794 135.249 102.915 135.482 103.158C135.715 103.391 135.832 103.671 135.832 103.998C135.832 104.325 135.715 104.605 135.482 104.838C135.249 105.071 134.964 105.188 134.628 105.188ZM139.04 107.022C139.255 106.686 139.521 106.429 139.838 106.252C140.155 106.075 140.51 105.986 140.902 105.986C141.779 105.986 142.465 106.266 142.96 106.826C143.464 107.377 143.716 108.137 143.716 109.108V113H141.742V109.36C141.742 108.912 141.616 108.553 141.364 108.282C141.121 108.011 140.799 107.876 140.398 107.876C139.987 107.876 139.656 108.011 139.404 108.282C139.161 108.553 139.04 108.912 139.04 109.36V113H137.066V106.126H139.04V107.022ZM148.294 103.2H152.06C152.601 103.2 153.11 103.335 153.586 103.606C154.062 103.877 154.44 104.245 154.72 104.712C155.009 105.169 155.154 105.673 155.154 106.224C155.154 106.859 155.014 107.409 154.734 107.876C154.463 108.343 154.08 108.697 153.586 108.94L156.162 113H153.642L151.43 109.262H150.366V113H148.294V103.2ZM151.78 107.232C152.162 107.232 152.461 107.143 152.676 106.966C152.89 106.789 152.998 106.541 152.998 106.224C152.998 105.916 152.89 105.678 152.676 105.51C152.461 105.333 152.162 105.244 151.78 105.244H150.366V107.232H151.78ZM159.609 113.14C159.012 113.14 158.47 113.019 157.985 112.776C157.509 112.524 157.131 112.183 156.851 111.754C156.58 111.325 156.445 110.839 156.445 110.298C156.445 109.626 156.604 109.085 156.921 108.674C157.248 108.263 157.686 107.918 158.237 107.638C158.013 107.349 157.836 107.05 157.705 106.742C157.584 106.434 157.523 106.093 157.523 105.72C157.523 105.235 157.644 104.791 157.887 104.39C158.13 103.979 158.461 103.657 158.881 103.424C159.301 103.181 159.768 103.06 160.281 103.06C160.785 103.06 161.242 103.181 161.653 103.424C162.073 103.657 162.404 103.979 162.647 104.39C162.89 104.791 163.011 105.235 163.011 105.72C163.011 106.336 162.866 106.84 162.577 107.232C162.288 107.615 161.891 107.932 161.387 108.184L162.381 109.248L163.179 108.408H165.881L163.725 110.704L165.867 113H163.193L162.339 112.09C161.499 112.79 160.589 113.14 159.609 113.14ZM158.573 110.144C158.573 110.433 158.68 110.671 158.895 110.858C159.119 111.035 159.422 111.124 159.805 111.124C160.225 111.124 160.626 110.965 161.009 110.648L159.497 109.01C159.198 109.169 158.97 109.337 158.811 109.514C158.652 109.682 158.573 109.892 158.573 110.144ZM159.413 105.678C159.413 105.846 159.469 106.019 159.581 106.196C159.702 106.373 159.88 106.588 160.113 106.84C160.44 106.681 160.687 106.513 160.855 106.336C161.023 106.159 161.107 105.939 161.107 105.678C161.107 105.445 161.028 105.253 160.869 105.104C160.71 104.945 160.514 104.866 160.281 104.866C160.038 104.866 159.833 104.945 159.665 105.104C159.497 105.253 159.413 105.445 159.413 105.678ZM170.193 103.2C171.117 103.2 171.957 103.41 172.713 103.83C173.469 104.25 174.062 104.833 174.491 105.58C174.93 106.317 175.149 107.143 175.149 108.058C175.149 108.991 174.93 109.836 174.491 110.592C174.062 111.339 173.469 111.927 172.713 112.356C171.957 112.785 171.117 113 170.193 113H166.833V103.2H170.193ZM170.333 111.012C170.846 111.012 171.304 110.886 171.705 110.634C172.116 110.373 172.438 110.018 172.671 109.57C172.904 109.122 173.021 108.618 173.021 108.058C173.021 107.507 172.904 107.017 172.671 106.588C172.447 106.149 172.13 105.809 171.719 105.566C171.308 105.314 170.846 105.188 170.333 105.188H168.905V111.012H170.333ZM88.7344 130.14C88.1557 130.14 87.6191 129.981 87.1244 129.664C86.6391 129.337 86.2517 128.899 85.9624 128.348C85.6824 127.797 85.5424 127.2 85.5424 126.556C85.5424 125.912 85.6824 125.315 85.9624 124.764C86.2517 124.213 86.6391 123.779 87.1244 123.462C87.6191 123.145 88.1557 122.986 88.7344 122.986C89.2104 122.986 89.6304 123.079 89.9944 123.266C90.3584 123.453 90.6617 123.728 90.9044 124.092V120.2H92.8784V130H90.9044V129.034C90.6617 129.398 90.3584 129.673 89.9944 129.86C89.6304 130.047 89.2104 130.14 88.7344 130.14ZM89.1824 128.25C89.6771 128.25 90.0877 128.091 90.4144 127.774C90.7411 127.447 90.9044 127.041 90.9044 126.556C90.9044 126.08 90.7364 125.679 90.4004 125.352C90.0737 125.025 89.6677 124.862 89.1824 124.862C88.7064 124.862 88.3004 125.03 87.9644 125.366C87.6377 125.693 87.4744 126.089 87.4744 126.556C87.4744 127.032 87.6377 127.433 87.9644 127.76C88.3004 128.087 88.7064 128.25 89.1824 128.25ZM97.5896 130.14C96.9269 130.14 96.3203 129.981 95.7696 129.664C95.2189 129.347 94.7849 128.913 94.4676 128.362C94.1503 127.802 93.9916 127.191 93.9916 126.528C93.9916 125.875 94.1456 125.277 94.4536 124.736C94.7709 124.195 95.2003 123.77 95.7416 123.462C96.2923 123.145 96.8989 122.986 97.5616 122.986C98.1776 122.986 98.7423 123.135 99.2556 123.434C99.7783 123.723 100.189 124.125 100.488 124.638C100.796 125.151 100.95 125.721 100.95 126.346C100.95 126.607 100.936 126.85 100.908 127.074H95.8256C95.9003 127.513 96.0916 127.858 96.3996 128.11C96.7169 128.362 97.1043 128.488 97.5616 128.488C97.9256 128.488 98.2243 128.418 98.4576 128.278C98.7003 128.129 98.8543 127.933 98.9196 127.69H100.852C100.74 128.437 100.385 129.034 99.7876 129.482C99.1903 129.921 98.4576 130.14 97.5896 130.14ZM98.8776 125.758C98.8403 125.422 98.6863 125.147 98.4156 124.932C98.1543 124.717 97.8369 124.61 97.4636 124.61C97.0809 124.61 96.7543 124.708 96.4836 124.904C96.2129 125.091 96.0216 125.375 95.9096 125.758H98.8776ZM106.196 122.986C106.775 122.986 107.307 123.145 107.792 123.462C108.287 123.779 108.674 124.213 108.954 124.764C109.244 125.315 109.388 125.912 109.388 126.556C109.388 127.2 109.244 127.797 108.954 128.348C108.674 128.899 108.287 129.337 107.792 129.664C107.307 129.981 106.775 130.14 106.196 130.14C105.72 130.14 105.3 130.047 104.936 129.86C104.572 129.673 104.269 129.398 104.026 129.034V132.786H102.052V123.126H104.026V124.092C104.269 123.728 104.572 123.453 104.936 123.266C105.3 123.079 105.72 122.986 106.196 122.986ZM105.748 124.862C105.263 124.862 104.852 125.025 104.516 125.352C104.19 125.679 104.026 126.08 104.026 126.556C104.026 127.041 104.19 127.447 104.516 127.774C104.843 128.091 105.254 128.25 105.748 128.25C106.224 128.25 106.626 128.087 106.952 127.76C107.288 127.433 107.456 127.032 107.456 126.556C107.456 126.089 107.288 125.693 106.952 125.366C106.626 125.03 106.224 124.862 105.748 124.862ZM117.501 130H115.527V129.034C115.285 129.398 114.981 129.673 114.617 129.86C114.253 130.047 113.833 130.14 113.357 130.14C112.779 130.14 112.242 129.981 111.747 129.664C111.262 129.337 110.875 128.899 110.585 128.348C110.305 127.797 110.165 127.2 110.165 126.556C110.165 125.912 110.305 125.315 110.585 124.764C110.875 124.213 111.262 123.779 111.747 123.462C112.242 123.145 112.779 122.986 113.357 122.986C113.833 122.986 114.253 123.079 114.617 123.266C114.981 123.453 115.285 123.728 115.527 124.092V123.126H117.501V130ZM113.805 128.25C114.291 128.25 114.697 128.091 115.023 127.774C115.359 127.447 115.527 127.041 115.527 126.556C115.527 126.08 115.359 125.679 115.023 125.352C114.697 125.025 114.291 124.862 113.805 124.862C113.329 124.862 112.923 125.03 112.587 125.366C112.261 125.693 112.097 126.089 112.097 126.556C112.097 127.032 112.261 127.433 112.587 127.76C112.923 128.087 113.329 128.25 113.805 128.25ZM118.951 123.126H120.925V123.938C121.121 123.639 121.373 123.406 121.681 123.238C121.989 123.07 122.329 122.986 122.703 122.986C122.852 122.986 123.067 123.014 123.347 123.07V124.862C123.085 124.797 122.852 124.764 122.647 124.764C122.143 124.764 121.727 124.923 121.401 125.24C121.083 125.548 120.925 126.005 120.925 126.612V130H118.951V123.126ZM127.685 130.098C126.863 130.098 126.205 129.841 125.711 129.328C125.225 128.815 124.983 128.105 124.983 127.2V125.002H123.709V123.126H124.983V121.32H126.957V123.126H128.651V125.002H126.957V127.172C126.957 127.527 127.064 127.793 127.279 127.97C127.493 128.147 127.783 128.236 128.147 128.236C128.343 128.236 128.511 128.217 128.651 128.18V130C128.399 130.065 128.077 130.098 127.685 130.098ZM140.49 130H138.516V126.192C138.516 125.791 138.408 125.473 138.194 125.24C137.979 124.997 137.694 124.876 137.34 124.876C136.985 124.876 136.686 124.993 136.444 125.226C136.21 125.45 136.094 125.772 136.094 126.192V130H134.12V126.192C134.12 125.791 134.012 125.473 133.798 125.24C133.583 124.997 133.289 124.876 132.916 124.876C132.58 124.876 132.295 124.993 132.062 125.226C131.828 125.45 131.712 125.772 131.712 126.192V130H129.738V123.126H131.712V123.938C131.945 123.602 132.239 123.359 132.594 123.21C132.948 123.061 133.308 122.986 133.672 122.986C134.12 122.986 134.502 123.07 134.82 123.238C135.146 123.397 135.412 123.649 135.618 123.994C135.823 123.695 136.112 123.453 136.486 123.266C136.859 123.079 137.26 122.986 137.69 122.986C138.231 122.986 138.712 123.103 139.132 123.336C139.561 123.56 139.892 123.877 140.126 124.288C140.368 124.699 140.49 125.179 140.49 125.73V130ZM145.127 130.14C144.464 130.14 143.857 129.981 143.307 129.664C142.756 129.347 142.322 128.913 142.005 128.362C141.687 127.802 141.529 127.191 141.529 126.528C141.529 125.875 141.683 125.277 141.991 124.736C142.308 124.195 142.737 123.77 143.279 123.462C143.829 123.145 144.436 122.986 145.099 122.986C145.715 122.986 146.279 123.135 146.793 123.434C147.315 123.723 147.726 124.125 148.025 124.638C148.333 125.151 148.487 125.721 148.487 126.346C148.487 126.607 148.473 126.85 148.445 127.074H143.363C143.437 127.513 143.629 127.858 143.937 128.11C144.254 128.362 144.641 128.488 145.099 128.488C145.463 128.488 145.761 128.418 145.995 128.278C146.237 128.129 146.391 127.933 146.457 127.69H148.389C148.277 128.437 147.922 129.034 147.325 129.482C146.727 129.921 145.995 130.14 145.127 130.14ZM146.415 125.758C146.377 125.422 146.223 125.147 145.953 124.932C145.691 124.717 145.374 124.61 145.001 124.61C144.618 124.61 144.291 124.708 144.021 124.904C143.75 125.091 143.559 125.375 143.447 125.758H146.415ZM151.563 124.022C151.778 123.686 152.044 123.429 152.361 123.252C152.679 123.075 153.033 122.986 153.425 122.986C154.303 122.986 154.989 123.266 155.483 123.826C155.987 124.377 156.239 125.137 156.239 126.108V130H154.265V126.36C154.265 125.912 154.139 125.553 153.887 125.282C153.645 125.011 153.323 124.876 152.921 124.876C152.511 124.876 152.179 125.011 151.927 125.282C151.685 125.553 151.563 125.912 151.563 126.36V130H149.589V123.126H151.563V124.022ZM160.894 130.098C160.072 130.098 159.414 129.841 158.92 129.328C158.434 128.815 158.192 128.105 158.192 127.2V125.002H156.918V123.126H158.192V121.32H160.166V123.126H161.86V125.002H160.166V127.172C160.166 127.527 160.273 127.793 160.488 127.97C160.702 128.147 160.992 128.236 161.356 128.236C161.552 128.236 161.72 128.217 161.86 128.18V130C161.608 130.065 161.286 130.098 160.894 130.098ZM165.692 130.14C164.786 130.14 164.049 129.921 163.48 129.482C162.92 129.043 162.602 128.437 162.528 127.662H164.418C164.436 127.895 164.558 128.082 164.782 128.222C165.006 128.362 165.281 128.432 165.608 128.432C165.897 128.432 166.121 128.385 166.28 128.292C166.438 128.189 166.518 128.063 166.518 127.914C166.518 127.727 166.41 127.592 166.196 127.508C165.99 127.424 165.664 127.345 165.216 127.27C164.702 127.177 164.273 127.074 163.928 126.962C163.592 126.85 163.298 126.659 163.046 126.388C162.803 126.117 162.682 125.739 162.682 125.254C162.682 124.825 162.789 124.437 163.004 124.092C163.228 123.747 163.545 123.476 163.956 123.28C164.376 123.084 164.861 122.986 165.412 122.986C166.186 122.986 166.854 123.187 167.414 123.588C167.983 123.989 168.31 124.559 168.394 125.296H166.406C166.387 125.119 166.284 124.969 166.098 124.848C165.911 124.717 165.664 124.652 165.356 124.652C165.122 124.652 164.936 124.694 164.796 124.778C164.656 124.853 164.586 124.969 164.586 125.128C164.586 125.296 164.679 125.417 164.866 125.492C165.062 125.567 165.379 125.646 165.818 125.73C166.35 125.823 166.788 125.931 167.134 126.052C167.488 126.164 167.796 126.369 168.058 126.668C168.319 126.967 168.45 127.387 168.45 127.928C168.45 128.339 168.328 128.717 168.086 129.062C167.843 129.398 167.512 129.664 167.092 129.86C166.672 130.047 166.205 130.14 165.692 130.14Z" fill="#D6E8BA"></path>
  <path d="M142.729 48.1655C143.597 46.5988 143.968 44.6481 143.677 42.9574C143.656 42.8352 143.636 42.7186 143.623 42.604L142.82 36.0333H142.818C143.445 35.8823 143.892 35.3435 143.914 34.7131C143.937 34.0825 143.529 33.5151 142.914 33.3221V32.8139C142.912 32.1395 142.451 31.551 141.786 31.3733C141.065 27.7164 138.353 24.7645 134.864 23.8342C134.667 22.7738 133.724 22.0019 132.621 22H132.379C131.276 22.0019 130.333 22.7738 130.136 23.8342C126.647 24.7646 123.935 27.7165 123.215 31.3733C122.549 31.551 122.088 32.1395 122.086 32.8139V33.3221C121.502 33.5055 121.1 34.0309 121.085 34.6309C121.071 35.2289 121.444 35.7734 122.018 35.9836L121.583 41.5511C121.542 42.0765 121.495 42.6344 121.419 43.1789C121.19 44.8259 121.547 46.6524 122.358 48.1463H122.36C119.82 48.666 118 50.8575 118 53.3964V68.4268C118 68.744 118.262 69 118.586 69H146.414C146.738 69 147 68.744 147 68.4268V64.3095C147 63.9923 146.738 63.7363 146.414 63.7363C146.09 63.7363 145.829 63.9923 145.829 64.3095V67.8536H142.506V57.8117C142.506 57.5576 142.402 57.315 142.221 57.1354C142.037 56.9558 141.789 56.8564 141.53 56.8564H141.371V49.1798H141.522C143.9 49.1798 145.829 51.0675 145.829 53.3965L145.829 64.3095C145.829 64.6266 146.09 63.7363 146.414 63.7363C146.738 63.7363 147 64.6267 147 64.3095L147 53.3965C147 50.8898 145.226 48.7175 142.729 48.1655ZM141.745 32.8138V33.2532H135.743C135.692 32.9915 135.645 32.7278 135.599 32.4641H141.385L141.387 32.466C141.481 32.466 141.573 32.5023 141.639 32.5673C141.705 32.6342 141.742 32.7221 141.742 32.8138L141.745 32.8138ZM140.581 31.3197H135.415C135.107 29.2391 134.937 27.1431 134.907 25.0415C137.715 25.9299 139.896 28.3391 140.579 31.3197H140.581ZM131.27 24.3978V24.2316C131.27 23.6335 131.766 23.1463 132.379 23.1463H132.621C133.234 23.1463 133.73 23.6335 133.73 24.2316V24.3978C133.73 26.0256 133.814 27.6573 133.98 29.2794C133.154 28.5018 131.846 28.5018 131.02 29.2794C131.186 27.6573 131.27 26.0257 131.27 24.3978ZM133.471 30.7924C133.471 31.1745 133.234 31.5223 132.871 31.6675C132.51 31.8146 132.092 31.7344 131.815 31.4631C131.538 31.1918 131.456 30.7829 131.604 30.4294C131.754 30.0741 132.108 29.8429 132.5 29.8429C133.035 29.8429 133.469 30.267 133.471 30.7924ZM130.683 31.8967C131.073 32.5119 131.76 32.8864 132.5 32.8864C133.24 32.8864 133.927 32.5119 134.318 31.8967C134.388 32.3515 134.466 32.8043 134.552 33.2551H130.448C130.532 32.8042 130.61 32.3514 130.683 31.8967ZM130.093 25.0414C130.064 27.143 129.894 29.2408 129.585 31.3196H124.422C125.105 28.339 127.285 25.9296 130.093 25.0414ZM123.258 32.8138C123.258 32.6228 123.418 32.4661 123.613 32.4661H129.402C129.357 32.7298 129.308 32.9915 129.257 33.2552H123.258L123.258 32.8138ZM123.629 56.8546H123.592L123.594 56.8565C123.055 56.8565 122.617 57.2845 122.617 57.8118V67.8537H119.172V53.3961C119.176 51.069 121.102 49.1813 123.48 49.1794H123.631L123.629 56.8546ZM122.582 43.3331C122.662 42.758 122.711 42.181 122.752 41.6385L123.039 37.9625C123.318 38.5051 123.793 38.9255 124.371 39.1452C124.523 41.8582 126.075 44.3097 128.49 45.6508V48.0333H123.644C122.781 46.6978 122.366 44.8864 122.582 43.3331ZM132.504 53.7057C134.72 53.7038 136.516 51.946 136.518 49.7775V49.1795H137.803V56.8561H127.196V49.1795H128.49V49.7775C128.492 51.9461 130.288 53.7038 132.504 53.7057ZM129.662 49.7775V46.1856C131.495 46.8562 133.515 46.8562 135.347 46.1837V49.7775C135.339 51.3079 134.068 52.5441 132.504 52.5441C130.94 52.5441 129.671 51.3079 129.662 49.7775ZM132.502 45.5418C128.654 45.5379 125.535 42.4867 125.531 38.7211V38.7096C125.531 38.4307 125.326 38.1919 125.046 38.1441C124.681 38.0811 124.361 37.8728 124.158 37.569C123.955 37.2652 123.891 36.8946 123.979 36.5411C124.022 36.3558 124.131 36.1915 124.285 36.0768H140.716C140.87 36.1915 140.977 36.3558 141.02 36.5411C141.11 36.8927 141.046 37.2652 140.843 37.5671C140.642 37.8709 140.321 38.0792 139.958 38.1441C139.677 38.1919 139.474 38.4307 139.474 38.7077V38.7211C139.47 42.4869 136.35 45.5383 132.502 45.5418ZM126.024 49.1795V56.8561H124.8V49.1795H126.024ZM136.953 67.8537H128.047V65.3241H136.953V67.8537ZM136.953 64.1778H128.047V63.2951H136.953V64.1778ZM141.334 67.8537H138.125V62.722C138.125 62.4048 137.861 62.1488 137.539 62.1488H127.461C127.139 62.1488 126.876 62.4048 126.876 62.722V67.8537H123.789V58.0026H141.334L141.334 67.8537ZM138.976 56.8566V49.18H140.2V56.8566H138.976ZM141.45 48.0335H136.518V45.6491C138.933 44.3079 140.483 41.8566 140.634 39.1435C141.163 38.9428 141.606 38.5722 141.891 38.0926L142.459 42.7392C142.476 42.8806 142.5 43.0162 142.523 43.1519C142.793 44.7262 142.365 46.6445 141.45 48.0335ZM142.473 34.9307H122.528C122.379 34.9269 122.262 34.8104 122.262 34.6652C122.262 34.5219 122.379 34.4034 122.528 34.4015H142.473C142.621 34.4034 142.738 34.5219 142.738 34.6652C142.738 34.8104 142.621 34.9269 142.473 34.9307Z" fill="#D6E8BA"></path>
  <path d="M202.729 48.1655C203.597 46.5988 203.968 44.6481 203.677 42.9574C203.656 42.8352 203.636 42.7186 203.623 42.604L202.82 36.0333H202.818C203.445 35.8823 203.892 35.3435 203.914 34.7131C203.937 34.0825 203.529 33.5151 202.914 33.3221V32.8139C202.912 32.1395 202.451 31.551 201.786 31.3733C201.065 27.7164 198.353 24.7645 194.864 23.8342C194.667 22.7738 193.724 22.0019 192.621 22H192.379C191.276 22.0019 190.333 22.7738 190.136 23.8342C186.647 24.7646 183.935 27.7165 183.215 31.3733C182.549 31.551 182.088 32.1395 182.086 32.8139V33.3221C181.502 33.5055 181.1 34.0309 181.085 34.6309C181.071 35.2289 181.444 35.7734 182.018 35.9836L181.583 41.5511C181.542 42.0765 181.495 42.6344 181.419 43.1789C181.19 44.8259 181.547 46.6524 182.358 48.1463H182.36C179.82 48.666 178 50.8575 178 53.3964V68.4268C178 68.744 178.262 69 178.586 69H206.414C206.738 69 207 68.744 207 68.4268V64.3095C207 63.9923 206.738 63.7363 206.414 63.7363C206.09 63.7363 205.829 63.9923 205.829 64.3095V67.8536H202.506V57.8117C202.506 57.5576 202.402 57.315 202.221 57.1354C202.037 56.9558 201.789 56.8564 201.53 56.8564H201.371V49.1798H201.522C203.9 49.1798 205.829 51.0675 205.829 53.3965L205.829 64.3095C205.829 64.6266 206.09 63.7363 206.414 63.7363C206.738 63.7363 207 64.6267 207 64.3095L207 53.3965C207 50.8898 205.226 48.7175 202.729 48.1655ZM201.745 32.8138V33.2532H195.743C195.692 32.9915 195.645 32.7278 195.599 32.4641H201.385L201.387 32.466C201.481 32.466 201.573 32.5023 201.639 32.5673C201.705 32.6342 201.742 32.7221 201.742 32.8138L201.745 32.8138ZM200.581 31.3197H195.415C195.107 29.2391 194.937 27.1431 194.907 25.0415C197.715 25.9299 199.896 28.3391 200.579 31.3197H200.581ZM191.27 24.3978V24.2316C191.27 23.6335 191.766 23.1463 192.379 23.1463H192.621C193.234 23.1463 193.73 23.6335 193.73 24.2316V24.3978C193.73 26.0256 193.814 27.6573 193.98 29.2794C193.154 28.5018 191.846 28.5018 191.02 29.2794C191.186 27.6573 191.27 26.0257 191.27 24.3978ZM193.471 30.7924C193.471 31.1745 193.234 31.5223 192.871 31.6675C192.51 31.8146 192.092 31.7344 191.815 31.4631C191.538 31.1918 191.456 30.7829 191.604 30.4294C191.754 30.0741 192.108 29.8429 192.5 29.8429C193.035 29.8429 193.469 30.267 193.471 30.7924ZM190.683 31.8967C191.073 32.5119 191.76 32.8864 192.5 32.8864C193.24 32.8864 193.927 32.5119 194.318 31.8967C194.388 32.3515 194.466 32.8043 194.552 33.2551H190.448C190.532 32.8042 190.61 32.3514 190.683 31.8967ZM190.093 25.0414C190.064 27.143 189.894 29.2408 189.585 31.3196H184.422C185.105 28.339 187.285 25.9296 190.093 25.0414ZM183.258 32.8138C183.258 32.6228 183.418 32.4661 183.613 32.4661H189.402C189.357 32.7298 189.308 32.9915 189.257 33.2552H183.258L183.258 32.8138ZM183.629 56.8546H183.592L183.594 56.8565C183.055 56.8565 182.617 57.2845 182.617 57.8118V67.8537H179.172V53.3961C179.176 51.069 181.102 49.1813 183.48 49.1794H183.631L183.629 56.8546ZM182.582 43.3331C182.662 42.758 182.711 42.181 182.752 41.6385L183.039 37.9625C183.318 38.5051 183.793 38.9255 184.371 39.1452C184.523 41.8582 186.075 44.3097 188.49 45.6508V48.0333H183.644C182.781 46.6978 182.366 44.8864 182.582 43.3331ZM192.504 53.7057C194.72 53.7038 196.516 51.946 196.518 49.7775V49.1795H197.803V56.8561H187.196V49.1795H188.49V49.7775C188.492 51.9461 190.288 53.7038 192.504 53.7057ZM189.662 49.7775V46.1856C191.495 46.8562 193.515 46.8562 195.347 46.1837V49.7775C195.339 51.3079 194.068 52.5441 192.504 52.5441C190.94 52.5441 189.671 51.3079 189.662 49.7775ZM192.502 45.5418C188.654 45.5379 185.535 42.4867 185.531 38.7211V38.7096C185.531 38.4307 185.326 38.1919 185.046 38.1441C184.681 38.0811 184.361 37.8728 184.158 37.569C183.955 37.2652 183.891 36.8946 183.979 36.5411C184.022 36.3558 184.131 36.1915 184.285 36.0768H200.716C200.87 36.1915 200.977 36.3558 201.02 36.5411C201.11 36.8927 201.046 37.2652 200.843 37.5671C200.642 37.8709 200.321 38.0792 199.958 38.1441C199.677 38.1919 199.474 38.4307 199.474 38.7077V38.7211C199.47 42.4869 196.35 45.5383 192.502 45.5418ZM186.024 49.1795V56.8561H184.8V49.1795H186.024ZM196.953 67.8537H188.047V65.3241H196.953V67.8537ZM196.953 64.1778H188.047V63.2951H196.953V64.1778ZM201.334 67.8537H198.125V62.722C198.125 62.4048 197.861 62.1488 197.539 62.1488H187.461C187.139 62.1488 186.876 62.4048 186.876 62.722V67.8537H183.789V58.0026H201.334L201.334 67.8537ZM198.976 56.8566V49.18H200.2V56.8566H198.976ZM201.45 48.0335H196.518V45.6491C198.933 44.3079 200.483 41.8566 200.634 39.1435C201.163 38.9428 201.606 38.5722 201.891 38.0926L202.459 42.7392C202.476 42.8806 202.5 43.0162 202.523 43.1519C202.793 44.7262 202.365 46.6445 201.45 48.0335ZM202.473 34.9307H182.528C182.379 34.9269 182.262 34.8104 182.262 34.6652C182.262 34.5219 182.379 34.4034 182.528 34.4015H202.473C202.621 34.4034 202.738 34.5219 202.738 34.6652C202.738 34.8104 202.621 34.9269 202.473 34.9307Z" fill="#D6E8BA"></path>
  <mask id="path-6-inside-1_1373_5925" fill="white">
    <path d="M148.586 69H176.414C176.738 69 177 68.744 177 68.4268V64.3095C177 63.9924 176.738 63.7363 176.414 63.7363C176.09 63.7363 175.829 63.9924 175.829 64.3095V67.8536H172.506V57.8118C172.506 57.5577 172.402 57.315 172.221 57.1354C172.037 56.9559 171.789 56.8565 171.53 56.8565H171.371V49.18H171.522C173.9 49.18 175.829 51.0676 175.829 53.3966L175.829 64.3095C175.829 64.6267 176.09 63.7363 176.414 63.7363C176.738 63.7363 177 64.6267 177 64.3095L177 53.3966C177 50.4352 174.548 48.0336 171.522 48.0336H166.518V45.6492C168.933 44.3079 170.483 41.8567 170.633 39.1435C171.807 38.6946 172.459 37.4661 172.158 36.27C172.142 36.2051 172.121 36.1401 172.1 36.0771H172.474H172.472C173.183 36.0771 173.788 35.5708 173.898 34.8849C174.007 34.1971 173.589 33.5341 172.914 33.322V32.8138C172.912 32.1394 172.451 31.5509 171.785 31.3732C171.065 27.7164 168.353 24.7644 164.864 23.8342C164.667 22.7738 163.724 22.0019 162.621 22H162.379C161.276 22.0019 160.333 22.7738 160.136 23.8342C156.647 24.7646 153.935 27.7164 153.214 31.3732C152.549 31.5509 152.088 32.1394 152.086 32.8138V33.322C151.411 33.5341 150.993 34.1971 151.102 34.883C151.211 35.5708 151.817 36.0771 152.527 36.0771H152.902C152.879 36.1401 152.859 36.2032 152.844 36.27H152.842C152.541 37.468 153.197 38.6984 154.37 39.1455C154.523 41.8585 156.075 44.3099 158.49 45.6511V48.0336H153.48C150.454 48.0336 148 50.4352 148 53.3966V68.4269C148 68.5797 148.062 68.7249 148.172 68.8319C148.281 68.9389 148.432 69 148.586 69ZM166.953 67.8536H158.047V65.324H166.953V67.8536ZM166.953 64.1777H158.047V63.295H166.953V64.1777ZM168.976 49.1797H170.2V56.8563H168.976V49.1797ZM171.742 32.8137V33.2532L165.743 33.2551C165.692 32.9933 165.645 32.7297 165.598 32.466H171.387C171.582 32.466 171.742 32.6227 171.742 32.8137ZM170.579 31.3197H165.415C165.106 29.241 164.937 27.1431 164.907 25.0415C167.715 25.9299 169.895 28.3391 170.579 31.3197ZM161.27 24.3978V24.2316C161.27 23.6336 161.766 23.1464 162.379 23.1464H162.621C163.234 23.1464 163.73 23.6336 163.73 24.2316V24.3978C163.73 26.0256 163.814 27.6573 163.98 29.2793C163.154 28.5018 161.846 28.5018 161.02 29.2793C161.186 27.6573 161.27 26.0257 161.27 24.3978ZM163.47 30.7924C163.47 31.1745 163.234 31.5203 162.871 31.6675C162.51 31.8146 162.092 31.7343 161.815 31.463C161.538 31.1917 161.456 30.7829 161.604 30.4294C161.754 30.074 162.108 29.8429 162.5 29.8429C163.035 29.8429 163.468 30.267 163.47 30.7924ZM160.682 31.8967C161.073 32.5119 161.76 32.8864 162.5 32.8864C163.24 32.8864 163.927 32.5119 164.318 31.8967C164.388 32.3514 164.466 32.8042 164.552 33.2551H160.448C160.532 32.8042 160.61 32.3514 160.682 31.8967ZM160.093 25.0414C160.064 27.143 159.894 29.2408 159.585 31.3196H154.421C155.105 28.339 157.285 25.9296 160.093 25.0414ZM153.258 32.8138C153.258 32.6227 153.418 32.4661 153.613 32.4661H159.402C159.357 32.7297 159.308 32.9915 159.257 33.2551H153.258L153.258 32.8138ZM152.528 34.9288V34.9307C152.379 34.9269 152.262 34.8103 152.262 34.6651C152.262 34.5218 152.379 34.4034 152.528 34.4015H172.472C172.621 34.4034 172.738 34.5218 172.738 34.6651C172.738 34.8103 172.621 34.9269 172.472 34.9307L152.528 34.9288ZM155.532 38.7194V38.7079L155.53 38.7098C155.53 38.4309 155.327 38.192 155.046 38.1443C154.681 38.0812 154.361 37.873 154.158 37.5692C153.957 37.2654 153.892 36.8948 153.98 36.5413C154.023 36.356 154.13 36.1917 154.285 36.077H170.715C170.869 36.1917 170.977 36.356 171.02 36.5413C171.108 36.8928 171.045 37.2654 170.842 37.5673C170.641 37.8711 170.321 38.0793 169.958 38.1443C169.677 38.1921 169.474 38.4309 169.474 38.7079V38.7213C169.474 42.4889 166.352 45.5419 162.502 45.5419C158.652 45.5419 155.53 42.4888 155.53 38.7213L155.532 38.7194ZM165.349 46.1841V49.7779H165.347C165.339 51.3083 164.068 52.5444 162.504 52.5444C160.94 52.5444 159.671 51.3083 159.661 49.7779V46.186C161.495 46.8566 163.515 46.8566 165.347 46.186L165.349 46.1841ZM157.197 49.178H158.492V49.776L158.49 49.7779C158.502 51.9407 160.296 53.687 162.504 53.687C164.714 53.687 166.508 51.9407 166.518 49.7779V49.1799H167.802V56.8564H157.195L157.197 49.178ZM154.802 49.178H156.026V56.8545L154.8 56.8564L154.802 49.178ZM153.789 58.001L171.334 58.0029V67.854H168.124V62.7223C168.124 62.4051 167.861 62.1491 167.539 62.1491H157.461C157.139 62.1491 156.875 62.4051 156.875 62.7223V67.854H153.788L153.789 58.001ZM149.173 53.3946L149.171 53.3965C149.175 51.0694 151.102 49.1817 153.48 49.1798H153.631V56.8564H153.593C153.055 56.8564 152.617 57.2843 152.617 57.8116V67.8535H149.171L149.173 53.3946Z"></path>
  </mask>
  <path d="M148.586 69H176.414C176.738 69 177 68.744 177 68.4268V64.3095C177 63.9924 176.738 63.7363 176.414 63.7363C176.09 63.7363 175.829 63.9924 175.829 64.3095V67.8536H172.506V57.8118C172.506 57.5577 172.402 57.315 172.221 57.1354C172.037 56.9559 171.789 56.8565 171.53 56.8565H171.371V49.18H171.522C173.9 49.18 175.829 51.0676 175.829 53.3966L175.829 64.3095C175.829 64.6267 176.09 63.7363 176.414 63.7363C176.738 63.7363 177 64.6267 177 64.3095L177 53.3966C177 50.4352 174.548 48.0336 171.522 48.0336H166.518V45.6492C168.933 44.3079 170.483 41.8567 170.633 39.1435C171.807 38.6946 172.459 37.4661 172.158 36.27C172.142 36.2051 172.121 36.1401 172.1 36.0771H172.474H172.472C173.183 36.0771 173.788 35.5708 173.898 34.8849C174.007 34.1971 173.589 33.5341 172.914 33.322V32.8138C172.912 32.1394 172.451 31.5509 171.785 31.3732C171.065 27.7164 168.353 24.7644 164.864 23.8342C164.667 22.7738 163.724 22.0019 162.621 22H162.379C161.276 22.0019 160.333 22.7738 160.136 23.8342C156.647 24.7646 153.935 27.7164 153.214 31.3732C152.549 31.5509 152.088 32.1394 152.086 32.8138V33.322C151.411 33.5341 150.993 34.1971 151.102 34.883C151.211 35.5708 151.817 36.0771 152.527 36.0771H152.902C152.879 36.1401 152.859 36.2032 152.844 36.27H152.842C152.541 37.468 153.197 38.6984 154.37 39.1455C154.523 41.8585 156.075 44.3099 158.49 45.6511V48.0336H153.48C150.454 48.0336 148 50.4352 148 53.3966V68.4269C148 68.5797 148.062 68.7249 148.172 68.8319C148.281 68.9389 148.432 69 148.586 69ZM166.953 67.8536H158.047V65.324H166.953V67.8536ZM166.953 64.1777H158.047V63.295H166.953V64.1777ZM168.976 49.1797H170.2V56.8563H168.976V49.1797ZM171.742 32.8137V33.2532L165.743 33.2551C165.692 32.9933 165.645 32.7297 165.598 32.466H171.387C171.582 32.466 171.742 32.6227 171.742 32.8137ZM170.579 31.3197H165.415C165.106 29.241 164.937 27.1431 164.907 25.0415C167.715 25.9299 169.895 28.3391 170.579 31.3197ZM161.27 24.3978V24.2316C161.27 23.6336 161.766 23.1464 162.379 23.1464H162.621C163.234 23.1464 163.73 23.6336 163.73 24.2316V24.3978C163.73 26.0256 163.814 27.6573 163.98 29.2793C163.154 28.5018 161.846 28.5018 161.02 29.2793C161.186 27.6573 161.27 26.0257 161.27 24.3978ZM163.47 30.7924C163.47 31.1745 163.234 31.5203 162.871 31.6675C162.51 31.8146 162.092 31.7343 161.815 31.463C161.538 31.1917 161.456 30.7829 161.604 30.4294C161.754 30.074 162.108 29.8429 162.5 29.8429C163.035 29.8429 163.468 30.267 163.47 30.7924ZM160.682 31.8967C161.073 32.5119 161.76 32.8864 162.5 32.8864C163.24 32.8864 163.927 32.5119 164.318 31.8967C164.388 32.3514 164.466 32.8042 164.552 33.2551H160.448C160.532 32.8042 160.61 32.3514 160.682 31.8967ZM160.093 25.0414C160.064 27.143 159.894 29.2408 159.585 31.3196H154.421C155.105 28.339 157.285 25.9296 160.093 25.0414ZM153.258 32.8138C153.258 32.6227 153.418 32.4661 153.613 32.4661H159.402C159.357 32.7297 159.308 32.9915 159.257 33.2551H153.258L153.258 32.8138ZM152.528 34.9288V34.9307C152.379 34.9269 152.262 34.8103 152.262 34.6651C152.262 34.5218 152.379 34.4034 152.528 34.4015H172.472C172.621 34.4034 172.738 34.5218 172.738 34.6651C172.738 34.8103 172.621 34.9269 172.472 34.9307L152.528 34.9288ZM155.532 38.7194V38.7079L155.53 38.7098C155.53 38.4309 155.327 38.192 155.046 38.1443C154.681 38.0812 154.361 37.873 154.158 37.5692C153.957 37.2654 153.892 36.8948 153.98 36.5413C154.023 36.356 154.13 36.1917 154.285 36.077H170.715C170.869 36.1917 170.977 36.356 171.02 36.5413C171.108 36.8928 171.045 37.2654 170.842 37.5673C170.641 37.8711 170.321 38.0793 169.958 38.1443C169.677 38.1921 169.474 38.4309 169.474 38.7079V38.7213C169.474 42.4889 166.352 45.5419 162.502 45.5419C158.652 45.5419 155.53 42.4888 155.53 38.7213L155.532 38.7194ZM165.349 46.1841V49.7779H165.347C165.339 51.3083 164.068 52.5444 162.504 52.5444C160.94 52.5444 159.671 51.3083 159.661 49.7779V46.186C161.495 46.8566 163.515 46.8566 165.347 46.186L165.349 46.1841ZM157.197 49.178H158.492V49.776L158.49 49.7779C158.502 51.9407 160.296 53.687 162.504 53.687C164.714 53.687 166.508 51.9407 166.518 49.7779V49.1799H167.802V56.8564H157.195L157.197 49.178ZM154.802 49.178H156.026V56.8545L154.8 56.8564L154.802 49.178ZM153.789 58.001L171.334 58.0029V67.854H168.124V62.7223C168.124 62.4051 167.861 62.1491 167.539 62.1491H157.461C157.139 62.1491 156.875 62.4051 156.875 62.7223V67.854H153.788L153.789 58.001ZM149.173 53.3946L149.171 53.3965C149.175 51.0694 151.102 49.1817 153.48 49.1798H153.631V56.8564H153.593C153.055 56.8564 152.617 57.2843 152.617 57.8116V67.8535H149.171L149.173 53.3946Z" fill="#D6E8BA"></path>
  <path d="M175.829 67.8536V70.8536H178.829V67.8536H175.829ZM172.506 67.8536H169.506V70.8536H172.506V67.8536ZM172.221 57.1354L174.33 55.0026L174.325 54.997L174.319 54.9913L172.221 57.1354ZM171.371 56.8565H168.371V59.8565H171.371V56.8565ZM171.371 49.18V46.18H168.371V49.18H171.371ZM175.829 53.3966L178.829 53.3966V53.3966H175.829ZM177 53.3966L180 53.3966V53.3966H177ZM166.518 48.0336H163.518V51.0336H166.518V48.0336ZM166.518 45.6492L165.061 43.0265L163.518 43.8837V45.6492H166.518ZM170.633 39.1435L169.561 36.3417L167.746 37.0365L167.638 38.9776L170.633 39.1435ZM172.158 36.27L169.241 36.9714L169.245 36.9864L169.249 37.0014L172.158 36.27ZM172.1 36.0771V33.0771H167.908L169.26 37.0444L172.1 36.0771ZM173.898 34.8849L176.86 35.3572L176.86 35.3558L173.898 34.8849ZM172.914 33.322H169.914V35.5246L172.015 36.1843L172.914 33.322ZM172.914 32.8138H175.914L175.914 32.8051L172.914 32.8138ZM171.785 31.3732L168.842 31.9531L169.204 33.7892L171.012 34.2718L171.785 31.3732ZM164.864 23.8342L161.915 24.3826L162.261 26.2449L164.091 26.7329L164.864 23.8342ZM162.621 22L162.626 19H162.621V22ZM162.379 22V19L162.374 19L162.379 22ZM160.136 23.8342L160.909 26.7328L162.739 26.2448L163.085 24.3826L160.136 23.8342ZM153.214 31.3732L153.988 34.2718L155.796 33.7892L156.158 31.9533L153.214 31.3732ZM152.086 32.8138L149.086 32.8051V32.8138H152.086ZM152.086 33.322L152.985 36.1843L155.086 35.5246V33.322H152.086ZM151.102 34.883L154.065 34.412L154.065 34.4108L151.102 34.883ZM152.902 36.0771L155.714 37.122L157.217 33.0771H152.902V36.0771ZM152.844 36.27V39.27H155.224L155.765 36.9524L152.844 36.27ZM152.842 36.27V33.27H150.501L149.932 35.5398L152.842 36.27ZM154.37 39.1455L157.366 38.9773L157.256 37.0348L155.438 36.3421L154.37 39.1455ZM158.49 45.6511H161.49V43.8855L159.946 43.0284L158.49 45.6511ZM158.49 48.0336V51.0336H161.49V48.0336H158.49ZM166.953 67.8536V70.8536H169.953V67.8536H166.953ZM158.047 67.8536H155.047V70.8536H158.047V67.8536ZM158.047 65.324V62.324H155.047V65.324H158.047ZM166.953 65.324H169.953V62.324H166.953V65.324ZM166.953 64.1777V67.1777H169.953V64.1777H166.953ZM158.047 64.1777H155.047V67.1777H158.047V64.1777ZM158.047 63.295V60.295H155.047V63.295H158.047ZM166.953 63.295H169.953V60.295H166.953V63.295ZM168.976 49.1797V46.1797H165.976V49.1797H168.976ZM170.2 49.1797H173.2V46.1797H170.2V49.1797ZM170.2 56.8563V59.8563H173.2V56.8563H170.2ZM168.976 56.8563H165.976V59.8563H168.976V56.8563ZM171.742 33.2532L171.743 36.2532L174.742 36.2522V33.2532H171.742ZM165.743 33.2551L162.798 33.8262L163.269 36.2559L165.744 36.2551L165.743 33.2551ZM165.598 32.466V29.466H162.018L162.645 32.9909L165.598 32.466ZM170.579 31.3197V34.3197H174.344L173.503 30.6491L170.579 31.3197ZM165.415 31.3197L162.447 31.76L162.827 34.3197H165.415V31.3197ZM164.907 25.0415L165.812 22.1813L161.85 20.9273L161.908 25.0833L164.907 25.0415ZM163.98 29.2793L161.923 31.4635L167.784 36.9815L166.964 28.974L163.98 29.2793ZM161.02 29.2793L158.036 28.974L157.217 36.9811L163.077 31.4635L161.02 29.2793ZM163.47 30.7924H166.47L166.47 30.7813L163.47 30.7924ZM162.871 31.6675L161.744 28.887L161.739 28.8891L162.871 31.6675ZM161.815 31.463L159.716 33.6071L159.716 33.6072L161.815 31.463ZM161.604 30.4294L158.841 29.2606L158.838 29.2683L161.604 30.4294ZM160.682 31.8967L163.215 30.2891L158.964 23.5913L157.72 31.426L160.682 31.8967ZM164.318 31.8967L167.282 31.4385L166.063 23.5482L161.785 30.2891L164.318 31.8967ZM164.552 33.2551V36.2551H168.177L167.499 32.6936L164.552 33.2551ZM160.448 33.2551L157.499 32.706L156.838 36.2551H160.448V33.2551ZM160.093 25.0414L163.093 25.0832L163.15 20.9275L159.188 22.1811L160.093 25.0414ZM159.585 31.3196V34.3196H162.173L162.553 31.7599L159.585 31.3196ZM154.421 31.3196L151.497 30.6492L150.656 34.3196H154.421V31.3196ZM153.258 32.8138L156.258 32.8142V32.8138H153.258ZM159.402 32.4661L162.359 32.9697L162.956 29.4661H159.402V32.4661ZM159.257 33.2551V36.2551H161.735L162.203 33.8222L159.257 33.2551ZM153.258 33.2551L150.258 33.2547L150.257 36.2551H153.258V33.2551ZM152.528 34.9288L152.528 31.9288L149.528 31.9285V34.9288H152.528ZM152.528 34.9307L152.45 37.9297L155.528 38.0089V34.9307H152.528ZM152.528 34.4015V31.4015H152.508L152.489 31.4017L152.528 34.4015ZM172.472 34.4015L172.511 31.4017L172.492 31.4015H172.472V34.4015ZM172.472 34.9307L172.472 37.9307L172.511 37.9307L172.549 37.9297L172.472 34.9307ZM155.532 38.7194L157.779 40.7066L158.532 39.8555V38.7194H155.532ZM155.532 38.7079H158.532V31.579L153.435 36.5628L155.532 38.7079ZM155.53 38.7098H152.53V45.8387L157.627 40.8549L155.53 38.7098ZM155.046 38.1443L154.535 41.1005L154.544 41.102L155.046 38.1443ZM154.158 37.5692L151.656 39.2251L151.663 39.2361L154.158 37.5692ZM153.98 36.5413L156.891 37.2649L156.897 37.2418L156.903 37.2186L153.98 36.5413ZM154.285 36.077V33.077H153.292L152.495 33.6693L154.285 36.077ZM170.715 36.077L172.505 33.6693L171.708 33.077H170.715V36.077ZM171.02 36.5413L168.097 37.2186L168.103 37.2437L168.109 37.2686L171.02 36.5413ZM170.842 37.5673L168.353 35.893L168.347 35.9022L168.341 35.9114L170.842 37.5673ZM169.958 38.1443L170.46 41.1019L170.473 41.0997L170.486 41.0974L169.958 38.1443ZM155.53 38.7213L153.283 36.734L152.53 37.5851V38.7213H155.53ZM165.349 46.1841H168.349V39.0528L163.251 44.0395L165.349 46.1841ZM165.349 49.7779V52.7779H168.349V49.7779H165.349ZM165.347 49.7779V46.7779H162.362L162.347 49.7626L165.347 49.7779ZM159.661 49.7779H156.661V49.7875L156.662 49.797L159.661 49.7779ZM159.661 46.186L160.692 43.3686L156.661 41.8942V46.186H159.661ZM165.347 46.186L166.378 49.0031L166.984 48.7814L167.444 48.3306L165.347 46.186ZM157.197 49.178V46.178H154.198L154.197 49.1771L157.197 49.178ZM158.492 49.178H161.492V46.178H158.492V49.178ZM158.492 49.776L160.59 51.92L161.492 51.0376V49.776H158.492ZM158.49 49.7779L156.391 47.6339L155.483 48.523L155.49 49.7942L158.49 49.7779ZM166.518 49.7779L169.518 49.7914V49.7779H166.518ZM166.518 49.1799V46.1799H163.518V49.1799H166.518ZM167.802 49.1799H170.802V46.1799H167.802V49.1799ZM167.802 56.8564V59.8564H170.802V56.8564H167.802ZM157.195 56.8564L154.195 56.8556L154.194 59.8564H157.195V56.8564ZM154.802 49.178V46.178H151.803L151.802 49.1772L154.802 49.178ZM156.026 49.178H159.026V46.178H156.026V49.178ZM156.026 56.8545L156.031 59.8545L159.026 59.8498V56.8545H156.026ZM154.8 56.8564L151.8 56.8557L151.799 59.8611L154.805 59.8564L154.8 56.8564ZM153.789 58.001L153.789 55.001L150.789 55.0006L150.789 58.0009L153.789 58.001ZM171.334 58.0029H174.334V55.0032L171.334 55.0029L171.334 58.0029ZM171.334 67.854V70.854H174.334V67.854H171.334ZM168.124 67.854H165.124V70.854H168.124V67.854ZM156.875 67.854V70.854H159.875V67.854H156.875ZM153.788 67.854L150.788 67.8539L150.788 70.854H153.788V67.854ZM149.173 53.3946L152.173 53.395L152.174 46.2654L147.076 51.2494L149.173 53.3946ZM149.171 53.3965L146.171 53.3914L146.159 60.5364L151.269 55.5417L149.171 53.3965ZM153.48 49.1798V46.1798L153.478 46.1798L153.48 49.1798ZM153.631 49.1798H156.631V46.1798H153.631V49.1798ZM153.631 56.8564V59.8564H156.631V56.8564H153.631ZM152.617 67.8535V70.8535H155.617V67.8535H152.617ZM149.171 67.8535L146.171 67.8531L146.171 70.8535H149.171V67.8535ZM148.586 69V72H176.414V69V66H148.586V69ZM176.414 69V72C178.334 72 180 70.4617 180 68.4268H177H174C174 67.0263 175.143 66 176.414 66V69ZM177 68.4268H180V64.3095H177H174V68.4268H177ZM177 64.3095H180C180 62.2747 178.334 60.7363 176.414 60.7363V63.7363V66.7363C175.143 66.7363 174 65.71 174 64.3095H177ZM176.414 63.7363V60.7363C174.495 60.7363 172.829 62.2747 172.829 64.3095H175.829H178.829C178.829 65.71 177.686 66.7363 176.414 66.7363V63.7363ZM175.829 64.3095H172.829V67.8536H175.829H178.829V64.3095H175.829ZM175.829 67.8536V64.8536H172.506V67.8536V70.8536H175.829V67.8536ZM172.506 67.8536H175.506V57.8118H172.506H169.506V67.8536H172.506ZM172.506 57.8118H175.506C175.506 56.7367 175.068 55.7318 174.33 55.0026L172.221 57.1354L170.111 59.2683C169.737 58.8983 169.506 58.3786 169.506 57.8118H172.506ZM172.221 57.1354L174.319 54.9913C173.561 54.25 172.555 53.8565 171.53 53.8565V56.8565V59.8565C171.024 59.8565 170.513 59.6617 170.122 59.2796L172.221 57.1354ZM171.53 56.8565V53.8565H171.371V56.8565V59.8565H171.53V56.8565ZM171.371 56.8565H174.371V49.18H171.371H168.371V56.8565H171.371ZM171.371 49.18V52.18H171.522V49.18V46.18H171.371V49.18ZM171.522 49.18V52.18C172.303 52.18 172.829 52.7844 172.829 53.3966H175.829H178.829C178.829 49.3509 175.496 46.18 171.522 46.18V49.18ZM175.829 53.3966L172.829 53.3966L172.829 64.3095L175.829 64.3095L178.829 64.3095L178.829 53.3966L175.829 53.3966ZM175.829 64.3095H172.829C172.829 64.3997 172.831 64.6232 172.881 64.8955C172.906 65.0333 172.96 65.2773 173.083 65.5612C173.198 65.8267 173.459 66.3276 174.008 66.7512C174.642 67.2408 175.43 67.4467 176.195 67.3575C176.853 67.2808 177.317 67.0081 177.541 66.8558C177.965 66.5674 178.212 66.2361 178.262 66.1709C178.413 65.9722 178.522 65.7748 178.531 65.7594C178.601 65.6379 178.555 65.716 178.596 65.645C178.636 65.576 178.572 65.7029 178.424 65.8685C178.378 65.9204 177.689 66.7363 176.414 66.7363V63.7363V60.7363C174.977 60.7363 174.135 61.6636 173.948 61.8724C173.66 62.1951 173.47 62.5247 173.404 62.6387C173.382 62.6762 173.363 62.71 173.35 62.7329C173.334 62.7608 173.33 62.7682 173.326 62.7757C173.292 62.8336 173.366 62.6964 173.487 62.5366C173.522 62.4908 173.756 62.1736 174.169 61.893C174.387 61.7446 174.846 61.4742 175.499 61.398C176.259 61.3094 177.042 61.5141 177.673 62.0007C178.218 62.4213 178.476 62.9174 178.588 63.1761C178.708 63.4531 178.759 63.6883 178.783 63.8152C178.828 64.0657 178.829 64.259 178.829 64.3095H175.829ZM176.414 63.7363V66.7363C175.139 66.7363 174.451 65.9203 174.405 65.8685C174.257 65.7029 174.192 65.5761 174.232 65.645C174.274 65.7161 174.228 65.6379 174.297 65.7594C174.306 65.7748 174.416 65.9723 174.567 66.171C174.617 66.2362 174.863 66.5675 175.288 66.8559C175.512 67.0081 175.976 67.2808 176.634 67.3576C177.398 67.4467 178.186 67.2407 178.821 66.7511C179.37 66.3276 179.631 65.8266 179.746 65.5611C179.869 65.2773 179.923 65.0333 179.948 64.8955C179.998 64.6232 180 64.3997 180 64.3095H177H174C174 64.259 174 64.0657 174.046 63.8152C174.069 63.6883 174.12 63.4531 174.24 63.1761C174.353 62.9174 174.61 62.4213 175.155 62.0008C175.786 61.5142 176.57 61.3094 177.329 61.3979C177.982 61.4741 178.441 61.7445 178.66 61.8929C179.073 62.1736 179.306 62.4908 179.341 62.5365C179.463 62.6964 179.536 62.8336 179.503 62.7757C179.499 62.7682 179.494 62.7607 179.479 62.7329C179.466 62.71 179.447 62.6762 179.425 62.6387C179.359 62.5247 179.168 62.1951 178.88 61.8725C178.694 61.6636 177.851 60.7363 176.414 60.7363V63.7363ZM177 64.3095L180 64.3095L180 53.3966L177 53.3966L174 53.3966L174 64.3095L177 64.3095ZM177 53.3966H180C180 48.719 176.145 45.0336 171.522 45.0336V48.0336V51.0336C172.951 51.0336 174 52.1514 174 53.3966H177ZM171.522 48.0336V45.0336H166.518V48.0336V51.0336H171.522V48.0336ZM166.518 48.0336H169.518V45.6492H166.518H163.518V48.0336H166.518ZM166.518 45.6492L167.974 48.2718C171.273 46.4401 173.42 43.0715 173.629 39.3095L170.633 39.1435L167.638 38.9776C167.546 40.6418 166.593 42.1757 165.061 43.0265L166.518 45.6492ZM170.633 39.1435L171.705 41.9454C174.256 40.9696 175.749 38.2508 175.068 35.5387L172.158 36.27L169.249 37.0014C169.168 36.6813 169.358 36.4195 169.561 36.3417L170.633 39.1435ZM172.158 36.27L175.075 35.5687C175.024 35.3557 174.961 35.1746 174.939 35.1098L172.1 36.0771L169.26 37.0444C169.264 37.0563 169.266 37.0624 169.267 37.0659C169.268 37.0692 169.267 37.0674 169.266 37.062C169.263 37.0525 169.253 37.0198 169.241 36.9714L172.158 36.27ZM172.1 36.0771V39.0771H172.474V36.0771V33.0771H172.1V36.0771ZM172.474 36.0771V33.0771H172.472V36.0771V39.0771H172.474V36.0771ZM172.472 36.0771V39.0771C174.606 39.0771 176.511 37.5494 176.86 35.3572L173.898 34.8849L170.935 34.4125C171.066 33.5921 171.76 33.0771 172.472 33.0771V36.0771ZM173.898 34.8849L176.86 35.3558C177.21 33.1596 175.869 31.1054 173.812 30.4598L172.914 33.322L172.015 36.1843C171.309 35.9628 170.804 35.2346 170.935 34.4139L173.898 34.8849ZM172.914 33.322H175.914V32.8138H172.914H169.914V33.322H172.914ZM172.914 32.8138L175.914 32.8051C175.908 30.7349 174.495 28.9916 172.559 28.4747L171.785 31.3732L171.012 34.2718C170.407 34.1103 169.916 33.5438 169.914 32.8225L172.914 32.8138ZM171.785 31.3732L174.729 30.7934C173.796 26.0572 170.276 22.1724 165.637 20.9354L164.864 23.8342L164.091 26.7329C166.43 27.3565 168.334 29.3755 168.842 31.9531L171.785 31.3732ZM164.864 23.8342L167.814 23.2857C167.344 20.7617 165.127 19.0043 162.626 19L162.621 22L162.616 25C162.321 24.9995 161.99 24.7858 161.915 24.3826L164.864 23.8342ZM162.621 22V19H162.379V22V25H162.621V22ZM162.379 22L162.374 19C159.873 19.0043 157.655 20.7616 157.186 23.2857L160.136 23.8342L163.085 24.3826C163.01 24.7859 162.678 24.9995 162.384 25L162.379 22ZM160.136 23.8342L159.363 20.9355C154.724 22.1726 151.204 26.0573 150.271 30.7931L153.214 31.3732L156.158 31.9533C156.666 29.3756 158.57 27.3565 160.909 26.7328L160.136 23.8342ZM153.214 31.3732L152.441 28.4747C150.504 28.9915 149.092 30.7349 149.086 32.8051L152.086 32.8138L155.086 32.8225C155.084 33.5438 154.593 34.1103 153.988 34.2718L153.214 31.3732ZM152.086 32.8138H149.086V33.322H152.086H155.086V32.8138H152.086ZM152.086 33.322L151.187 30.4598C149.133 31.1046 147.789 33.1575 148.139 35.3551L151.102 34.883L154.065 34.4108C154.196 35.2367 153.688 35.9636 152.985 36.1843L152.086 33.322ZM151.102 34.883L148.139 35.3539C148.488 37.547 150.391 39.0771 152.527 39.0771V36.0771V33.0771C153.242 33.0771 153.935 33.5945 154.065 34.412L151.102 34.883ZM152.527 36.0771V39.0771H152.902V36.0771V33.0771H152.527V36.0771ZM152.902 36.0771L150.09 35.0322C150.027 35.2003 149.97 35.3847 149.922 35.5877L152.844 36.27L155.765 36.9524C155.749 37.0217 155.73 37.0799 155.714 37.122L152.902 36.0771ZM152.844 36.27V33.27H152.842V36.27V39.27H152.844V36.27ZM152.842 36.27L149.932 35.5398C149.25 38.2562 150.751 40.9769 153.302 41.9488L154.37 39.1455L155.438 36.3421C155.643 36.4198 155.832 36.6797 155.751 37.0003L152.842 36.27ZM154.37 39.1455L151.375 39.3136C151.586 43.0751 153.736 46.4428 157.033 48.2738L158.49 45.6511L159.946 43.0284C158.413 42.1771 157.459 40.6419 157.366 38.9773L154.37 39.1455ZM158.49 45.6511H155.49V48.0336H158.49H161.49V45.6511H158.49ZM158.49 48.0336V45.0336H153.48V48.0336V51.0336H158.49V48.0336ZM153.48 48.0336V45.0336C148.859 45.0336 145 48.7175 145 53.3966H148H151C151 52.1528 152.05 51.0336 153.48 51.0336V48.0336ZM148 53.3966H145V68.4269H148H151V53.3966H148ZM148 68.4269H145C145 69.4057 145.401 70.3182 146.074 70.976L148.172 68.8319L150.27 66.6878C150.724 67.1316 151 67.7537 151 68.4269H148ZM148.172 68.8319L146.074 70.976C146.749 71.6366 147.654 72 148.586 72V69V66C149.209 66 149.814 66.2412 150.27 66.6878L148.172 68.8319ZM166.953 67.8536V64.8536H158.047V67.8536V70.8536H166.953V67.8536ZM158.047 67.8536H161.047V65.324H158.047H155.047V67.8536H158.047ZM158.047 65.324V68.324H166.953V65.324V62.324H158.047V65.324ZM166.953 65.324H163.953V67.8536H166.953H169.953V65.324H166.953ZM166.953 64.1777V61.1777H158.047V64.1777V67.1777H166.953V64.1777ZM158.047 64.1777H161.047V63.295H158.047H155.047V64.1777H158.047ZM158.047 63.295V66.295H166.953V63.295V60.295H158.047V63.295ZM166.953 63.295H163.953V64.1777H166.953H169.953V63.295H166.953ZM168.976 49.1797V52.1797H170.2V49.1797V46.1797H168.976V49.1797ZM170.2 49.1797H167.2V56.8563H170.2H173.2V49.1797H170.2ZM170.2 56.8563V53.8563H168.976V56.8563V59.8563H170.2V56.8563ZM168.976 56.8563H171.976V49.1797H168.976H165.976V56.8563H168.976ZM171.742 32.8137H168.742V33.2532H171.742H174.742V32.8137H171.742ZM171.742 33.2532L171.741 30.2532L165.742 30.2551L165.743 33.2551L165.744 36.2551L171.743 36.2532L171.742 33.2532ZM165.743 33.2551L168.688 32.684C168.642 32.4491 168.6 32.2087 168.552 31.9411L165.598 32.466L162.645 32.9909C162.691 33.2507 162.742 33.5375 162.798 33.8262L165.743 33.2551ZM165.598 32.466V35.466H171.387V32.466V29.466H165.598V32.466ZM171.387 32.466V35.466C169.987 35.466 168.742 34.341 168.742 32.8137H171.742H174.742C174.742 30.9044 173.177 29.466 171.387 29.466V32.466ZM170.579 31.3197V28.3197H165.415V31.3197V34.3197H170.579V31.3197ZM165.415 31.3197L168.382 30.8793C168.093 28.9323 167.934 26.9676 167.907 24.9997L164.907 25.0415L161.908 25.0833C161.939 27.3187 162.119 29.5496 162.447 31.76L165.415 31.3197ZM164.907 25.0415L164.002 27.9017C165.753 28.4557 167.198 30.0007 167.655 31.9902L170.579 31.3197L173.503 30.6491C172.592 26.6776 169.676 23.4041 165.812 22.1813L164.907 25.0415ZM161.27 24.3978H164.27V24.2316H161.27H158.27V24.3978H161.27ZM161.27 24.2316H164.27C164.27 25.3478 163.365 26.1464 162.379 26.1464V23.1464V20.1464C160.167 20.1464 158.27 21.9193 158.27 24.2316H161.27ZM162.379 23.1464V26.1464H162.621V23.1464V20.1464H162.379V23.1464ZM162.621 23.1464V26.1464C161.635 26.1464 160.73 25.3478 160.73 24.2316H163.73H166.73C166.73 21.9193 164.833 20.1464 162.621 20.1464V23.1464ZM163.73 24.2316H160.73V24.3978H163.73H166.73V24.2316H163.73ZM163.73 24.3978H160.73C160.73 26.1285 160.819 27.8621 160.996 29.5847L163.98 29.2793L166.964 28.974C166.809 27.4524 166.73 25.9227 166.73 24.3978H163.73ZM163.98 29.2793L166.037 27.0952C164.055 25.2298 160.945 25.2299 158.964 27.0952L161.02 29.2793L163.077 31.4635C162.747 31.7737 162.253 31.7738 161.923 31.4635L163.98 29.2793ZM161.02 29.2793L164.005 29.5847C164.181 27.862 164.27 26.1285 164.27 24.3978H161.27H158.27C158.27 25.9228 158.191 27.4525 158.036 28.974L161.02 29.2793ZM163.47 30.7924H160.47C160.47 29.9178 161.008 29.1855 161.744 28.887L162.871 31.6675L163.998 34.4479C165.46 33.8552 166.47 32.4312 166.47 30.7924H163.47ZM162.871 31.6675L161.739 28.8891C162.471 28.591 163.325 28.7439 163.913 29.3189L161.815 31.463L159.716 33.6072C160.859 34.7248 162.548 35.0382 164.003 34.4458L162.871 31.6675ZM161.815 31.463L163.913 29.3189C164.512 29.9051 164.7 30.8055 164.37 31.5905L161.604 30.4294L158.838 29.2683C158.211 30.7602 158.563 32.4783 159.716 33.6071L161.815 31.463ZM161.604 30.4294L164.367 31.5982C164.037 32.3784 163.285 32.8429 162.5 32.8429V29.8429V26.8429C160.93 26.8429 159.472 27.7697 158.841 29.2606L161.604 30.4294ZM162.5 29.8429V32.8429C161.433 32.8429 160.475 31.981 160.47 30.8035L163.47 30.7924L166.47 30.7813C166.462 28.553 164.637 26.8429 162.5 26.8429V29.8429ZM160.682 31.8967L158.15 33.5043C159.1 35.0017 160.751 35.8864 162.5 35.8864V32.8864V29.8864C162.769 29.8864 163.046 30.0221 163.215 30.2891L160.682 31.8967ZM162.5 32.8864V35.8864C164.249 35.8864 165.9 35.0017 166.851 33.5043L164.318 31.8967L161.785 30.2891C161.954 30.0221 162.231 29.8864 162.5 29.8864V32.8864ZM164.318 31.8967L161.353 32.3549C161.428 32.8441 161.512 33.3313 161.605 33.8166L164.552 33.2551L167.499 32.6936C167.42 32.2772 167.347 31.8588 167.282 31.4385L164.318 31.8967ZM164.552 33.2551V30.2551H160.448V33.2551V36.2551H164.552V33.2551ZM160.448 33.2551L163.397 33.8042C163.486 33.3271 163.569 32.8482 163.645 32.3674L160.682 31.8967L157.72 31.426C157.651 31.8546 157.578 32.2813 157.499 32.706L160.448 33.2551ZM160.093 25.0414L157.093 24.9996C157.066 26.9675 156.907 28.9321 156.618 30.8792L159.585 31.3196L162.553 31.7599C162.881 29.5495 163.061 27.3186 163.093 25.0832L160.093 25.0414ZM159.585 31.3196V28.3196H154.421V31.3196V34.3196H159.585V31.3196ZM154.421 31.3196L157.346 31.9899C157.802 30.0005 159.247 28.4555 160.998 27.9017L160.093 25.0414L159.188 22.1811C155.323 23.4037 152.408 26.6776 151.497 30.6492L154.421 31.3196ZM153.258 32.8138H156.258C156.258 34.3404 155.013 35.4661 153.613 35.4661V32.4661V29.4661C151.822 29.4661 150.258 30.9051 150.258 32.8138H153.258ZM153.613 32.4661V35.4661H159.402V32.4661V29.4661H153.613V32.4661ZM159.402 32.4661L156.444 31.9624C156.404 32.1962 156.36 32.4346 156.311 32.688L159.257 33.2551L162.203 33.8222C162.256 33.5483 162.309 33.2632 162.359 32.9697L159.402 32.4661ZM159.257 33.2551V30.2551H153.258V33.2551V36.2551H159.257V33.2551ZM153.258 33.2551L156.258 33.2555L156.258 32.8142L153.258 32.8138L150.258 32.8134L150.258 33.2547L153.258 33.2551ZM152.528 34.9288H149.528V34.9307H152.528H155.528V34.9288H152.528ZM152.528 34.9307L152.605 31.9317C154.006 31.9678 155.262 33.1083 155.262 34.6651H152.262H149.262C149.262 36.5124 150.752 37.886 152.45 37.9297L152.528 34.9307ZM152.262 34.6651H155.262C155.262 36.2036 154.019 37.3825 152.566 37.4012L152.528 34.4015L152.489 31.4017C150.739 31.4242 149.262 32.84 149.262 34.6651H152.262ZM152.528 34.4015V37.4015H172.472V34.4015V31.4015H152.528V34.4015ZM172.472 34.4015L172.434 37.4012C170.981 37.3825 169.738 36.2036 169.738 34.6651H172.738H175.738C175.738 32.84 174.261 31.4242 172.511 31.4017L172.472 34.4015ZM172.738 34.6651H169.738C169.738 33.1083 170.993 31.9678 172.395 31.9317L172.472 34.9307L172.549 37.9297C174.248 37.886 175.738 36.5124 175.738 34.6651H172.738ZM172.472 34.9307L172.472 31.9307L152.528 31.9288L152.528 34.9288L152.527 37.9288L172.472 37.9307L172.472 34.9307ZM155.532 38.7194H158.532V38.7079H155.532H152.532V38.7194H155.532ZM155.532 38.7079L153.435 36.5628L153.433 36.5647L155.53 38.7098L157.627 40.8549L157.629 40.853L155.532 38.7079ZM155.53 38.7098H158.53C158.53 36.9378 157.242 35.4742 155.548 35.1866L155.046 38.1443L154.544 41.102C153.412 40.9098 152.53 39.9239 152.53 38.7098H155.53ZM155.046 38.1443L155.557 35.1881C155.996 35.264 156.395 35.5183 156.652 35.9023L154.158 37.5692L151.663 39.2361C152.326 40.2277 153.366 40.8985 154.535 41.1005L155.046 38.1443ZM154.158 37.5692L156.659 35.9133C156.92 36.3072 157.007 36.7993 156.891 37.2649L153.98 36.5413L151.069 35.8177C150.777 36.9903 150.993 38.2236 151.656 39.2251L154.158 37.5692ZM153.98 36.5413L156.903 37.2186C156.785 37.7281 156.489 38.1763 156.074 38.4848L154.285 36.077L152.495 33.6693C151.772 34.207 151.261 34.9839 151.058 35.864L153.98 36.5413ZM154.285 36.077V39.077H170.715V36.077V33.077H154.285V36.077ZM170.715 36.077L168.926 38.4848C168.511 38.1763 168.215 37.7281 168.097 37.2186L171.02 36.5413L173.942 35.864C173.738 34.9839 173.228 34.207 172.505 33.6693L170.715 36.077ZM171.02 36.5413L168.109 37.2686C167.995 36.8113 168.073 36.3088 168.353 35.893L170.842 37.5673L173.331 39.2416C174.017 38.222 174.22 36.9744 173.93 35.8139L171.02 36.5413ZM170.842 37.5673L168.341 35.9114C168.601 35.5173 169.002 35.2677 169.43 35.1912L169.958 38.1443L170.486 41.0974C171.64 40.891 172.681 40.2248 173.344 39.2232L170.842 37.5673ZM169.958 38.1443L169.455 35.1867C167.768 35.4734 166.474 36.9316 166.474 38.7079H169.474H172.474C172.474 39.9301 171.585 40.9108 170.46 41.1019L169.958 38.1443ZM169.474 38.7079H166.474V38.7213H169.474H172.474V38.7079H169.474ZM169.474 38.7213H166.474C166.474 40.7701 164.758 42.5419 162.502 42.5419V45.5419V48.5419C167.946 48.5419 172.474 44.2077 172.474 38.7213H169.474ZM162.502 45.5419V42.5419C160.246 42.5419 158.53 40.77 158.53 38.7213H155.53H152.53C152.53 44.2075 157.058 48.5419 162.502 48.5419V45.5419ZM155.53 38.7213L157.778 40.7086L157.779 40.7066L155.532 38.7194L153.285 36.7321L153.283 36.734L155.53 38.7213ZM165.349 46.1841H162.349V49.7779H165.349H168.349V46.1841H165.349ZM165.349 49.7779V46.7779H165.347V49.7779V52.7779H165.349V49.7779ZM165.347 49.7779L162.347 49.7626C162.347 49.7281 162.355 49.6894 162.37 49.6545C162.384 49.6218 162.402 49.5994 162.417 49.5849C162.447 49.5557 162.483 49.5444 162.504 49.5444V52.5444V55.5444C165.656 55.5444 168.33 53.0368 168.347 49.7932L165.347 49.7779ZM162.504 52.5444V49.5444C162.526 49.5444 162.562 49.556 162.593 49.5854C162.607 49.5999 162.625 49.622 162.639 49.6539C162.653 49.688 162.661 49.7256 162.661 49.7588L159.661 49.7779L156.662 49.797C156.682 53.0342 159.349 55.5444 162.504 55.5444V52.5444ZM159.661 49.7779H162.661V46.186H159.661H156.661V49.7779H159.661ZM159.661 46.186L158.631 49.0034C161.129 49.9174 163.88 49.9177 166.378 49.0031L165.347 46.186L164.315 43.369C163.15 43.7955 161.86 43.7959 160.692 43.3686L159.661 46.186ZM165.347 46.186L167.444 48.3306L167.446 48.3287L165.349 46.1841L163.251 44.0395L163.249 44.0415L165.347 46.186ZM157.197 49.178V52.178H158.492V49.178V46.178H157.197V49.178ZM158.492 49.178H155.492V49.776H158.492H161.492V49.178H158.492ZM158.492 49.776L156.393 47.632L156.391 47.6339L158.49 49.7779L160.588 51.922L160.59 51.92L158.492 49.776ZM158.49 49.7779L155.49 49.7942C155.511 53.667 158.705 56.687 162.504 56.687V53.687V50.687C161.886 50.687 161.492 50.2144 161.49 49.7617L158.49 49.7779ZM162.504 53.687V56.687C166.303 56.687 169.5 53.6679 169.518 49.7914L166.518 49.7779L163.518 49.7644C163.516 50.2135 163.125 50.687 162.504 50.687V53.687ZM166.518 49.7779H169.518V49.1799H166.518H163.518V49.7779H166.518ZM166.518 49.1799V52.1799H167.802V49.1799V46.1799H166.518V49.1799ZM167.802 49.1799H164.802V56.8564H167.802H170.802V49.1799H167.802ZM167.802 56.8564V53.8564H157.195V56.8564V59.8564H167.802V56.8564ZM157.195 56.8564L160.195 56.8573L160.197 49.1788L157.197 49.178L154.197 49.1771L154.195 56.8556L157.195 56.8564ZM154.802 49.178V52.178H156.026V49.178V46.178H154.802V49.178ZM156.026 49.178H153.026V56.8545H156.026H159.026V49.178H156.026ZM156.026 56.8545L156.021 53.8545L154.795 53.8564L154.8 56.8564L154.805 59.8564L156.031 59.8545L156.026 56.8545ZM154.8 56.8564L157.8 56.8572L157.802 49.1787L154.802 49.178L151.802 49.1772L151.8 56.8557L154.8 56.8564ZM153.789 58.001L153.788 61.001L171.334 61.0029L171.334 58.0029L171.334 55.0029L153.789 55.001L153.789 58.001ZM171.334 58.0029H168.334V67.854H171.334H174.334V58.0029H171.334ZM171.334 67.854V64.854H168.124V67.854V70.854H171.334V67.854ZM168.124 67.854H171.124V62.7223H168.124H165.124V67.854H168.124ZM168.124 62.7223H171.124C171.124 60.6811 169.45 59.1491 167.539 59.1491V62.1491V65.1491C166.272 65.1491 165.124 64.1291 165.124 62.7223H168.124ZM167.539 62.1491V59.1491H157.461V62.1491V65.1491H167.539V62.1491ZM157.461 62.1491V59.1491C155.55 59.1491 153.875 60.681 153.875 62.7223H156.875H159.875C159.875 64.1292 158.727 65.1491 157.461 65.1491V62.1491ZM156.875 62.7223H153.875V67.854H156.875H159.875V62.7223H156.875ZM156.875 67.854V64.854H153.788V67.854V70.854H156.875V67.854ZM153.788 67.854L156.788 67.8541L156.789 58.001L153.789 58.001L150.789 58.0009L150.788 67.8539L153.788 67.854ZM149.173 53.3946L147.076 51.2494L147.074 51.2513L149.171 53.3965L151.269 55.5417L151.271 55.5398L149.173 53.3946ZM149.171 53.3965L152.171 53.4015C152.172 52.7858 152.701 52.1805 153.483 52.1798L153.48 49.1798L153.478 46.1798C149.504 46.183 146.178 49.353 146.171 53.3914L149.171 53.3965ZM153.48 49.1798V52.1798H153.631V49.1798V46.1798H153.48V49.1798ZM153.631 49.1798H150.631V56.8564H153.631H156.631V49.1798H153.631ZM153.631 56.8564V53.8564H153.593V56.8564V59.8564H153.631V56.8564ZM153.593 56.8564V53.8564C151.459 53.8564 149.617 55.5667 149.617 57.8116H152.617H155.617C155.617 59.002 154.65 59.8564 153.593 59.8564V56.8564ZM152.617 57.8116H149.617V67.8535H152.617H155.617V57.8116H152.617ZM152.617 67.8535V64.8535H149.171V67.8535V70.8535H152.617V67.8535ZM149.171 67.8535L152.171 67.8539L152.173 53.395L149.173 53.3946L146.173 53.3942L146.171 67.8531L149.171 67.8535Z" fill="#D6E8BA" mask="url(#path-6-inside-1_1373_5925)"></path>
</svg>
