<?xml version="1.0" encoding="UTF-8"?>
<svg xmlns="http://www.w3.org/2000/svg" width="416" height="179" viewBox="0 0 416 179" fill="none">
  <path d="M0 20C0 8.9543 8.95431 0 20 0H396C407.046 0 416 8.9543 416 20V159C416 170.046 407.046 179 396 179H20C8.95431 179 0 170.046 0 159V20Z" fill="#D6E8BA"></path>
  <path d="M80.4773 104.2V109.32L61.5973 149H53.2133L71.3253 111.432H50.0133V104.2H80.4773ZM100.762 149.64C97.2636 149.64 94.2343 148.701 91.6743 146.824C89.1143 144.904 87.1516 142.216 85.7863 138.76C84.4636 135.304 83.8023 131.251 83.8023 126.6C83.8023 121.949 84.4636 117.896 85.7863 114.44C87.1516 110.984 89.1143 108.317 91.6743 106.44C94.2343 104.52 97.2636 103.56 100.762 103.56C104.261 103.56 107.269 104.52 109.786 106.44C112.346 108.317 114.288 110.984 115.61 114.44C116.976 117.896 117.658 121.949 117.658 126.6C117.658 131.251 116.976 135.304 115.61 138.76C114.288 142.216 112.346 144.904 109.786 146.824C107.269 148.701 104.261 149.64 100.762 149.64ZM100.762 142.344C103.706 142.344 105.968 141.021 107.546 138.376C109.168 135.688 109.978 131.763 109.978 126.6C109.978 121.437 109.168 117.533 107.546 114.888C105.968 112.2 103.706 110.856 100.762 110.856C97.8183 110.856 95.5356 112.2 93.9143 114.888C92.3356 117.533 91.5463 121.437 91.5463 126.6C91.5463 131.763 92.3356 135.688 93.9143 138.376C95.5356 141.021 97.8183 142.344 100.762 142.344ZM161.573 140.04C161.573 142.813 160.698 145.117 158.949 146.952C157.199 148.744 155.002 149.64 152.357 149.64C149.711 149.64 147.514 148.744 145.765 146.952C144.058 145.117 143.205 142.813 143.205 140.04C143.205 137.309 144.058 135.048 145.765 133.256C147.514 131.464 149.711 130.568 152.357 130.568C155.002 130.568 157.199 131.464 158.949 133.256C160.698 135.048 161.573 137.309 161.573 140.04ZM156.773 140.04C156.773 138.589 156.367 137.416 155.557 136.52C154.789 135.581 153.722 135.112 152.357 135.112C151.034 135.112 149.967 135.581 149.157 136.52C148.389 137.416 148.005 138.589 148.005 140.04C148.005 141.533 148.389 142.749 149.157 143.688C149.967 144.627 151.034 145.096 152.357 145.096C153.722 145.096 154.789 144.627 155.557 143.688C156.367 142.749 156.773 141.533 156.773 140.04ZM140.517 113.032C140.517 115.805 139.642 118.109 137.893 119.944C136.186 121.736 134.01 122.632 131.365 122.632C128.762 122.632 126.586 121.736 124.837 119.944C123.087 118.109 122.213 115.805 122.213 113.032C122.213 110.301 123.066 108.04 124.773 106.248C126.522 104.456 128.719 103.56 131.365 103.56C134.01 103.56 136.186 104.456 137.893 106.248C139.642 108.04 140.517 110.301 140.517 113.032ZM135.781 113.032C135.781 111.581 135.375 110.387 134.565 109.448C133.754 108.509 132.687 108.04 131.365 108.04C130.042 108.04 128.975 108.509 128.165 109.448C127.354 110.387 126.949 111.581 126.949 113.032C126.949 114.525 127.354 115.741 128.165 116.68C128.975 117.619 130.042 118.088 131.365 118.088C132.687 118.088 133.754 117.619 134.565 116.68C135.375 115.741 135.781 114.525 135.781 113.032ZM159.653 104.2L129.893 149H124.133L153.893 104.2H159.653Z" fill="#4F6D5D"></path>
  <path d="M207.06 46.028C207.713 46.028 208.306 46.1867 208.838 46.504C209.379 46.812 209.804 47.2413 210.112 47.792C210.429 48.3333 210.588 48.9353 210.588 49.598C210.588 50.2513 210.429 50.8487 210.112 51.39C209.804 51.9313 209.379 52.3607 208.838 52.678C208.306 52.986 207.713 53.14 207.06 53.14C206.407 53.14 205.809 52.986 205.268 52.678C204.727 52.3607 204.297 51.9313 203.98 51.39C203.672 50.8487 203.518 50.2513 203.518 49.598C203.518 48.9353 203.672 48.3333 203.98 47.792C204.297 47.2413 204.722 46.812 205.254 46.504C205.795 46.1867 206.397 46.028 207.06 46.028ZM207.06 47.26C206.64 47.26 206.253 47.3627 205.898 47.568C205.553 47.7733 205.277 48.058 205.072 48.422C204.867 48.7767 204.764 49.1687 204.764 49.598C204.764 50.0273 204.867 50.4193 205.072 50.774C205.277 51.1193 205.553 51.3947 205.898 51.6C206.253 51.8053 206.64 51.908 207.06 51.908C207.471 51.908 207.849 51.8053 208.194 51.6C208.549 51.3947 208.829 51.1193 209.034 50.774C209.239 50.4193 209.342 50.0273 209.342 49.598C209.342 49.1687 209.239 48.7767 209.034 48.422C208.829 48.058 208.549 47.7733 208.194 47.568C207.849 47.3627 207.471 47.26 207.06 47.26ZM212.524 45.482C212.524 44.67 212.739 44.0493 213.168 43.62C213.597 43.1907 214.181 42.976 214.918 42.976C215.207 42.976 215.455 43.004 215.66 43.06V44.25C215.539 44.2127 215.375 44.194 215.17 44.194C214.265 44.194 213.812 44.628 213.812 45.496V46.168H215.66V47.4H213.812V53H212.524V47.4H211.194V46.168H212.524V45.482ZM222.546 53.084C221.809 53.084 221.225 52.8693 220.796 52.44C220.367 52.0107 220.152 51.39 220.152 50.578V47.4H218.822V46.168H220.152V44.32H221.44V46.168H223.288V47.4H221.44V50.55C221.44 51.0073 221.561 51.3433 221.804 51.558C222.047 51.7633 222.383 51.866 222.812 51.866C223.008 51.866 223.167 51.8473 223.288 51.81V53C223.083 53.056 222.835 53.084 222.546 53.084ZM229.664 49.234C229.664 48.6367 229.496 48.1607 229.16 47.806C228.824 47.442 228.372 47.26 227.802 47.26C227.233 47.26 226.776 47.442 226.43 47.806C226.085 48.1607 225.912 48.6367 225.912 49.234V53H224.61V43.2H225.912V47.358C226.127 46.938 226.421 46.6113 226.794 46.378C227.177 46.1447 227.611 46.028 228.096 46.028C228.974 46.028 229.669 46.3033 230.182 46.854C230.696 47.4047 230.952 48.1513 230.952 49.094V53H229.664V49.234ZM235.839 53.14C235.185 53.14 234.593 52.986 234.061 52.678C233.529 52.3607 233.104 51.9267 232.787 51.376C232.479 50.8253 232.325 50.2187 232.325 49.556C232.325 48.912 232.479 48.324 232.787 47.792C233.095 47.2507 233.515 46.826 234.047 46.518C234.588 46.2007 235.181 46.042 235.825 46.042C236.431 46.042 236.982 46.1867 237.477 46.476C237.981 46.7653 238.377 47.162 238.667 47.666C238.965 48.17 239.115 48.7347 239.115 49.36L239.101 49.864H233.571C233.627 50.508 233.86 51.0307 234.271 51.432C234.681 51.824 235.209 52.02 235.853 52.02C236.338 52.02 236.758 51.908 237.113 51.684C237.467 51.46 237.687 51.166 237.771 50.802H239.045C238.923 51.5113 238.564 52.0807 237.967 52.51C237.379 52.93 236.669 53.14 235.839 53.14ZM237.743 48.87C237.696 48.366 237.486 47.9553 237.113 47.638C236.749 47.3113 236.301 47.148 235.769 47.148C235.227 47.148 234.765 47.302 234.383 47.61C234 47.9087 233.748 48.3287 233.627 48.87H237.743ZM244.475 45.482C244.475 44.67 244.69 44.0493 245.119 43.62C245.549 43.1907 246.132 42.976 246.869 42.976C247.159 42.976 247.406 43.004 247.611 43.06V44.25C247.49 44.2127 247.327 44.194 247.121 44.194C246.216 44.194 245.763 44.628 245.763 45.496V46.168H247.611V47.4H245.763V53H244.475V47.4H243.145V46.168H244.475V45.482ZM255.312 53H254.024V51.6C253.772 52.0947 253.422 52.4773 252.974 52.748C252.535 53.0093 252.017 53.14 251.42 53.14C250.813 53.14 250.253 52.9813 249.74 52.664C249.236 52.3467 248.835 51.9173 248.536 51.376C248.247 50.8253 248.102 50.228 248.102 49.584C248.102 48.94 248.247 48.3473 248.536 47.806C248.835 47.2553 249.236 46.8213 249.74 46.504C250.253 46.1867 250.813 46.028 251.42 46.028C252.017 46.028 252.535 46.1633 252.974 46.434C253.422 46.6953 253.772 47.0733 254.024 47.568V46.168H255.312V53ZM251.686 51.908C252.125 51.908 252.521 51.81 252.876 51.614C253.24 51.4087 253.52 51.1287 253.716 50.774C253.921 50.4193 254.024 50.0227 254.024 49.584C254.024 49.1453 253.921 48.7487 253.716 48.394C253.52 48.0393 253.24 47.764 252.876 47.568C252.521 47.3627 252.125 47.26 251.686 47.26C251.257 47.26 250.865 47.3627 250.51 47.568C250.155 47.7733 249.875 48.0533 249.67 48.408C249.465 48.7627 249.362 49.1547 249.362 49.584C249.362 50.0133 249.465 50.4053 249.67 50.76C249.875 51.1147 250.155 51.3947 250.51 51.6C250.865 51.8053 251.257 51.908 251.686 51.908ZM260.312 53.14C259.658 53.14 259.061 52.986 258.52 52.678C257.988 52.3607 257.563 51.9313 257.246 51.39C256.938 50.8487 256.784 50.2513 256.784 49.598C256.784 48.9353 256.938 48.3333 257.246 47.792C257.563 47.2413 257.988 46.812 258.52 46.504C259.061 46.1867 259.658 46.028 260.312 46.028C260.834 46.028 261.329 46.1353 261.796 46.35C262.262 46.5647 262.645 46.8633 262.944 47.246C263.252 47.6287 263.443 48.0533 263.518 48.52H262.202C262.108 48.156 261.88 47.8573 261.516 47.624C261.161 47.3813 260.76 47.26 260.312 47.26C259.892 47.26 259.509 47.3627 259.164 47.568C258.818 47.7733 258.543 48.0533 258.338 48.408C258.142 48.7627 258.044 49.1593 258.044 49.598C258.044 50.0273 258.142 50.4193 258.338 50.774C258.543 51.1193 258.818 51.3947 259.164 51.6C259.509 51.8053 259.892 51.908 260.312 51.908C260.769 51.908 261.175 51.7867 261.53 51.544C261.894 51.292 262.122 50.9747 262.216 50.592H263.532C263.466 51.0773 263.28 51.516 262.972 51.908C262.664 52.2907 262.276 52.594 261.81 52.818C261.343 53.0327 260.844 53.14 260.312 53.14ZM266.244 46.168V53H264.942V46.168H266.244ZM265.6 44.838C265.358 44.838 265.152 44.754 264.984 44.586C264.816 44.4087 264.732 44.2033 264.732 43.97C264.732 43.7367 264.816 43.536 264.984 43.368C265.162 43.1907 265.367 43.102 265.6 43.102C265.834 43.102 266.034 43.1907 266.202 43.368C266.38 43.536 266.468 43.7367 266.468 43.97C266.468 44.2033 266.384 44.4087 266.216 44.586C266.048 44.754 265.843 44.838 265.6 44.838ZM268.141 43.2H269.443V53H268.141V43.2ZM272.643 46.168V53H271.341V46.168H272.643ZM271.999 44.838C271.756 44.838 271.551 44.754 271.383 44.586C271.215 44.4087 271.131 44.2033 271.131 43.97C271.131 43.7367 271.215 43.536 271.383 43.368C271.56 43.1907 271.765 43.102 271.999 43.102C272.232 43.102 272.433 43.1907 272.601 43.368C272.778 43.536 272.867 43.7367 272.867 43.97C272.867 44.2033 272.783 44.4087 272.615 44.586C272.447 44.754 272.241 44.838 271.999 44.838ZM277.466 53.084C276.729 53.084 276.145 52.8693 275.716 52.44C275.287 52.0107 275.072 51.39 275.072 50.578V47.4H273.742V46.168H275.072V44.32H276.36V46.168H278.208V47.4H276.36V50.55C276.36 51.0073 276.481 51.3433 276.724 51.558C276.967 51.7633 277.303 51.866 277.732 51.866C277.928 51.866 278.087 51.8473 278.208 51.81V53C278.003 53.056 277.755 53.084 277.466 53.084ZM281.463 52.762L278.705 46.168H280.091L282.121 51.264L284.165 46.168H285.551L281.519 55.8H280.133L281.463 52.762ZM286.513 43.2H287.815L287.717 46.42H286.611L286.513 43.2ZM291.397 53.14C290.594 53.14 289.941 52.944 289.437 52.552C288.933 52.1507 288.648 51.6 288.583 50.9H289.843C289.88 51.2267 290.044 51.488 290.333 51.684C290.622 51.88 290.982 51.978 291.411 51.978C291.822 51.978 292.139 51.8987 292.363 51.74C292.596 51.5813 292.713 51.3713 292.713 51.11C292.713 50.9047 292.643 50.7367 292.503 50.606C292.363 50.4753 292.19 50.3773 291.985 50.312C291.78 50.2373 291.49 50.158 291.117 50.074C290.604 49.9527 290.188 49.8313 289.871 49.71C289.563 49.5887 289.297 49.3973 289.073 49.136C288.849 48.8653 288.737 48.5013 288.737 48.044C288.737 47.652 288.844 47.3067 289.059 47.008C289.274 46.7 289.572 46.462 289.955 46.294C290.338 46.1167 290.772 46.028 291.257 46.028C291.966 46.028 292.573 46.21 293.077 46.574C293.581 46.938 293.875 47.442 293.959 48.086H292.657C292.62 47.8153 292.47 47.6007 292.209 47.442C291.948 47.274 291.626 47.19 291.243 47.19C290.86 47.19 290.557 47.26 290.333 47.4C290.118 47.54 290.011 47.7407 290.011 48.002C290.011 48.2727 290.132 48.4733 290.375 48.604C290.627 48.7253 291.024 48.8513 291.565 48.982C292.088 49.1127 292.508 49.2433 292.825 49.374C293.152 49.4953 293.432 49.696 293.665 49.976C293.898 50.2467 294.015 50.62 294.015 51.096C294.015 51.4787 293.898 51.8287 293.665 52.146C293.441 52.454 293.128 52.6967 292.727 52.874C292.326 53.0513 291.882 53.14 291.397 53.14ZM301.515 53.084C300.777 53.084 300.194 52.8693 299.765 52.44C299.335 52.0107 299.121 51.39 299.121 50.578V47.4H297.791V46.168H299.121V44.32H300.409V46.168H302.257V47.4H300.409V50.55C300.409 51.0073 300.53 51.3433 300.773 51.558C301.015 51.7633 301.351 51.866 301.781 51.866C301.977 51.866 302.135 51.8473 302.257 51.81V53C302.051 53.056 301.804 53.084 301.515 53.084ZM306.496 46.028C307.149 46.028 307.742 46.1867 308.274 46.504C308.815 46.812 309.24 47.2413 309.548 47.792C309.865 48.3333 310.024 48.9353 310.024 49.598C310.024 50.2513 309.865 50.8487 309.548 51.39C309.24 51.9313 308.815 52.3607 308.274 52.678C307.742 52.986 307.149 53.14 306.496 53.14C305.842 53.14 305.245 52.986 304.704 52.678C304.162 52.3607 303.733 51.9313 303.416 51.39C303.108 50.8487 302.954 50.2513 302.954 49.598C302.954 48.9353 303.108 48.3333 303.416 47.792C303.733 47.2413 304.158 46.812 304.69 46.504C305.231 46.1867 305.833 46.028 306.496 46.028ZM306.496 47.26C306.076 47.26 305.688 47.3627 305.334 47.568C304.988 47.7733 304.713 48.058 304.508 48.422C304.302 48.7767 304.2 49.1687 304.2 49.598C304.2 50.0273 304.302 50.4193 304.508 50.774C304.713 51.1193 304.988 51.3947 305.334 51.6C305.688 51.8053 306.076 51.908 306.496 51.908C306.906 51.908 307.284 51.8053 307.63 51.6C307.984 51.3947 308.264 51.1193 308.47 50.774C308.675 50.4193 308.778 50.0273 308.778 49.598C308.778 49.1687 308.675 48.7767 308.47 48.422C308.264 48.058 307.984 47.7733 307.63 47.568C307.284 47.3627 306.906 47.26 306.496 47.26ZM314.298 53.084C313.561 53.084 312.977 52.8693 312.548 52.44C312.119 52.0107 311.904 51.39 311.904 50.578V47.4H310.574V46.168H311.904V44.32H313.192V46.168H315.04V47.4H313.192V50.55C313.192 51.0073 313.313 51.3433 313.556 51.558C313.799 51.7633 314.135 51.866 314.564 51.866C314.76 51.866 314.919 51.8473 315.04 51.81V53C314.835 53.056 314.587 53.084 314.298 53.084ZM322.947 53H321.659V51.6C321.407 52.0947 321.057 52.4773 320.609 52.748C320.17 53.0093 319.652 53.14 319.055 53.14C318.448 53.14 317.888 52.9813 317.375 52.664C316.871 52.3467 316.469 51.9173 316.171 51.376C315.881 50.8253 315.737 50.228 315.737 49.584C315.737 48.94 315.881 48.3473 316.171 47.806C316.469 47.2553 316.871 46.8213 317.375 46.504C317.888 46.1867 318.448 46.028 319.055 46.028C319.652 46.028 320.17 46.1633 320.609 46.434C321.057 46.6953 321.407 47.0733 321.659 47.568V46.168H322.947V53ZM319.321 51.908C319.759 51.908 320.156 51.81 320.511 51.614C320.875 51.4087 321.155 51.1287 321.351 50.774C321.556 50.4193 321.659 50.0227 321.659 49.584C321.659 49.1453 321.556 48.7487 321.351 48.394C321.155 48.0393 320.875 47.764 320.511 47.568C320.156 47.3627 319.759 47.26 319.321 47.26C318.891 47.26 318.499 47.3627 318.145 47.568C317.79 47.7733 317.51 48.0533 317.305 48.408C317.099 48.7627 316.997 49.1547 316.997 49.584C316.997 50.0133 317.099 50.4053 317.305 50.76C317.51 51.1147 317.79 51.3947 318.145 51.6C318.499 51.8053 318.891 51.908 319.321 51.908ZM324.852 43.2H326.154V53H324.852V43.2ZM334.468 53.14C333.814 53.14 333.222 52.986 332.69 52.678C332.158 52.3607 331.733 51.9267 331.416 51.376C331.108 50.8253 330.954 50.2187 330.954 49.556C330.954 48.912 331.108 48.324 331.416 47.792C331.724 47.2507 332.144 46.826 332.676 46.518C333.217 46.2007 333.81 46.042 334.454 46.042C335.06 46.042 335.611 46.1867 336.106 46.476C336.61 46.7653 337.006 47.162 337.296 47.666C337.594 48.17 337.744 48.7347 337.744 49.36L337.73 49.864H332.2C332.256 50.508 332.489 51.0307 332.9 51.432C333.31 51.824 333.838 52.02 334.482 52.02C334.967 52.02 335.387 51.908 335.742 51.684C336.096 51.46 336.316 51.166 336.4 50.802H337.674C337.552 51.5113 337.193 52.0807 336.596 52.51C336.008 52.93 335.298 53.14 334.468 53.14ZM336.372 48.87C336.325 48.366 336.115 47.9553 335.742 47.638C335.378 47.3113 334.93 47.148 334.398 47.148C333.856 47.148 333.394 47.302 333.012 47.61C332.629 47.9087 332.377 48.3287 332.256 48.87H336.372ZM340.496 47.358C340.711 46.938 341.005 46.6113 341.378 46.378C341.761 46.1447 342.195 46.028 342.68 46.028C343.558 46.028 344.253 46.3033 344.766 46.854C345.28 47.4047 345.536 48.1513 345.536 49.094V53H344.248V49.234C344.248 48.6367 344.08 48.1607 343.744 47.806C343.408 47.442 342.956 47.26 342.386 47.26C341.817 47.26 341.36 47.442 341.014 47.806C340.669 48.1607 340.496 48.6367 340.496 49.234V53H339.194V46.168H340.496V47.358ZM350.423 53.14C349.769 53.14 349.177 52.986 348.645 52.678C348.113 52.3607 347.688 51.9267 347.371 51.376C347.063 50.8253 346.909 50.2187 346.909 49.556C346.909 48.912 347.063 48.324 347.371 47.792C347.679 47.2507 348.099 46.826 348.631 46.518C349.172 46.2007 349.765 46.042 350.409 46.042C351.015 46.042 351.566 46.1867 352.061 46.476C352.565 46.7653 352.961 47.162 353.251 47.666C353.549 48.17 353.699 48.7347 353.699 49.36L353.685 49.864H348.155C348.211 50.508 348.444 51.0307 348.855 51.432C349.265 51.824 349.793 52.02 350.437 52.02C350.922 52.02 351.342 51.908 351.697 51.684C352.051 51.46 352.271 51.166 352.355 50.802H353.629C353.507 51.5113 353.148 52.0807 352.551 52.51C351.963 52.93 351.253 53.14 350.423 53.14ZM352.327 48.87C352.28 48.366 352.07 47.9553 351.697 47.638C351.333 47.3113 350.885 47.148 350.353 47.148C349.811 47.148 349.349 47.302 348.967 47.61C348.584 47.9087 348.332 48.3287 348.211 48.87H352.327ZM355.149 46.168H356.451V47.204C356.638 46.8493 356.895 46.5693 357.221 46.364C357.548 46.1493 357.912 46.042 358.313 46.042C358.547 46.042 358.761 46.07 358.957 46.126V47.316C358.733 47.2413 358.509 47.204 358.285 47.204C357.763 47.204 357.324 47.386 356.969 47.75C356.624 48.1047 356.451 48.5713 356.451 49.15V53H355.149V46.168ZM363.13 55.87C362.608 55.87 362.094 55.786 361.59 55.618C361.086 55.45 360.662 55.184 360.316 54.82C359.98 54.456 359.803 53.994 359.784 53.434H361.058C361.077 53.8447 361.278 54.1713 361.66 54.414C362.052 54.666 362.528 54.792 363.088 54.792C363.723 54.792 364.246 54.61 364.656 54.246C365.067 53.882 365.272 53.406 365.272 52.818V51.502C365.02 51.9873 364.67 52.3607 364.222 52.622C363.784 52.8833 363.27 53.014 362.682 53.014C362.076 53.014 361.516 52.86 361.002 52.552C360.489 52.2347 360.083 51.81 359.784 51.278C359.495 50.746 359.35 50.1627 359.35 49.528C359.35 48.884 359.495 48.296 359.784 47.764C360.083 47.2227 360.489 46.798 361.002 46.49C361.516 46.182 362.076 46.028 362.682 46.028C363.27 46.028 363.784 46.1587 364.222 46.42C364.67 46.6813 365.02 47.0547 365.272 47.54V46.168H366.574V52.776C366.574 53.4013 366.425 53.9473 366.126 54.414C365.837 54.8807 365.431 55.24 364.908 55.492C364.386 55.744 363.793 55.87 363.13 55.87ZM362.948 51.824C363.387 51.824 363.784 51.726 364.138 51.53C364.493 51.3247 364.768 51.0493 364.964 50.704C365.17 50.3493 365.272 49.9573 365.272 49.528C365.272 49.0893 365.17 48.6927 364.964 48.338C364.768 47.9833 364.493 47.708 364.138 47.512C363.784 47.316 363.387 47.218 362.948 47.218C362.519 47.218 362.127 47.3207 361.772 47.526C361.418 47.7313 361.138 48.0113 360.932 48.366C360.727 48.7113 360.624 49.0987 360.624 49.528C360.624 49.948 360.727 50.3353 360.932 50.69C361.138 51.0353 361.418 51.3107 361.772 51.516C362.127 51.7213 362.519 51.824 362.948 51.824ZM370.44 52.762L367.682 46.168H369.068L371.098 51.264L373.142 46.168H374.528L370.496 55.8H369.11L370.44 52.762ZM207.046 70.14C206.393 70.14 205.795 69.986 205.254 69.678C204.722 69.3607 204.297 68.9313 203.98 68.39C203.672 67.8487 203.518 67.2513 203.518 66.598C203.518 65.9353 203.672 65.3333 203.98 64.792C204.297 64.2413 204.722 63.812 205.254 63.504C205.795 63.1867 206.393 63.028 207.046 63.028C207.569 63.028 208.063 63.1353 208.53 63.35C208.997 63.5647 209.379 63.8633 209.678 64.246C209.986 64.6287 210.177 65.0533 210.252 65.52H208.936C208.843 65.156 208.614 64.8573 208.25 64.624C207.895 64.3813 207.494 64.26 207.046 64.26C206.626 64.26 206.243 64.3627 205.898 64.568C205.553 64.7733 205.277 65.0533 205.072 65.408C204.876 65.7627 204.778 66.1593 204.778 66.598C204.778 67.0273 204.876 67.4193 205.072 67.774C205.277 68.1193 205.553 68.3947 205.898 68.6C206.243 68.8053 206.626 68.908 207.046 68.908C207.503 68.908 207.909 68.7867 208.264 68.544C208.628 68.292 208.857 67.9747 208.95 67.592H210.266C210.201 68.0773 210.014 68.516 209.706 68.908C209.398 69.2907 209.011 69.594 208.544 69.818C208.077 70.0327 207.578 70.14 207.046 70.14ZM214.785 63.028C215.438 63.028 216.031 63.1867 216.563 63.504C217.104 63.812 217.529 64.2413 217.837 64.792C218.154 65.3333 218.313 65.9353 218.313 66.598C218.313 67.2513 218.154 67.8487 217.837 68.39C217.529 68.9313 217.104 69.3607 216.563 69.678C216.031 69.986 215.438 70.14 214.785 70.14C214.131 70.14 213.534 69.986 212.993 69.678C212.451 69.3607 212.022 68.9313 211.705 68.39C211.397 67.8487 211.243 67.2513 211.243 66.598C211.243 65.9353 211.397 65.3333 211.705 64.792C212.022 64.2413 212.447 63.812 212.979 63.504C213.52 63.1867 214.122 63.028 214.785 63.028ZM214.785 64.26C214.365 64.26 213.977 64.3627 213.623 64.568C213.277 64.7733 213.002 65.058 212.797 65.422C212.591 65.7767 212.489 66.1687 212.489 66.598C212.489 67.0273 212.591 67.4193 212.797 67.774C213.002 68.1193 213.277 68.3947 213.623 68.6C213.977 68.8053 214.365 68.908 214.785 68.908C215.195 68.908 215.573 68.8053 215.919 68.6C216.273 68.3947 216.553 68.1193 216.759 67.774C216.964 67.4193 217.067 67.0273 217.067 66.598C217.067 66.1687 216.964 65.7767 216.759 65.422C216.553 65.058 216.273 64.7733 215.919 64.568C215.573 64.3627 215.195 64.26 214.785 64.26ZM221.086 64.358C221.301 63.938 221.595 63.6113 221.968 63.378C222.351 63.1447 222.785 63.028 223.27 63.028C224.147 63.028 224.843 63.3033 225.356 63.854C225.869 64.4047 226.126 65.1513 226.126 66.094V70H224.838V66.234C224.838 65.6367 224.67 65.1607 224.334 64.806C223.998 64.442 223.545 64.26 222.976 64.26C222.407 64.26 221.949 64.442 221.604 64.806C221.259 65.1607 221.086 65.6367 221.086 66.234V70H219.784V63.168H221.086V64.358ZM230.256 70.14C229.454 70.14 228.8 69.944 228.296 69.552C227.792 69.1507 227.508 68.6 227.442 67.9H228.702C228.74 68.2267 228.903 68.488 229.192 68.684C229.482 68.88 229.841 68.978 230.27 68.978C230.681 68.978 230.998 68.8987 231.222 68.74C231.456 68.5813 231.572 68.3713 231.572 68.11C231.572 67.9047 231.502 67.7367 231.362 67.606C231.222 67.4753 231.05 67.3773 230.844 67.312C230.639 67.2373 230.35 67.158 229.976 67.074C229.463 66.9527 229.048 66.8313 228.73 66.71C228.422 66.5887 228.156 66.3973 227.932 66.136C227.708 65.8653 227.596 65.5013 227.596 65.044C227.596 64.652 227.704 64.3067 227.918 64.008C228.133 63.7 228.432 63.462 228.814 63.294C229.197 63.1167 229.631 63.028 230.116 63.028C230.826 63.028 231.432 63.21 231.936 63.574C232.44 63.938 232.734 64.442 232.818 65.086H231.516C231.479 64.8153 231.33 64.6007 231.068 64.442C230.807 64.274 230.485 64.19 230.102 64.19C229.72 64.19 229.416 64.26 229.192 64.4C228.978 64.54 228.87 64.7407 228.87 65.002C228.87 65.2727 228.992 65.4733 229.234 65.604C229.486 65.7253 229.883 65.8513 230.424 65.982C230.947 66.1127 231.367 66.2433 231.684 66.374C232.011 66.4953 232.291 66.696 232.524 66.976C232.758 67.2467 232.874 67.62 232.874 68.096C232.874 68.4787 232.758 68.8287 232.524 69.146C232.3 69.454 231.988 69.6967 231.586 69.874C231.185 70.0513 230.742 70.14 230.256 70.14ZM239.3 68.81C239.086 69.23 238.787 69.5567 238.404 69.79C238.031 70.0233 237.602 70.14 237.116 70.14C236.239 70.14 235.544 69.8693 235.03 69.328C234.517 68.7773 234.26 68.0307 234.26 67.088V63.168H235.548V66.934C235.548 67.5313 235.716 68.012 236.052 68.376C236.388 68.7307 236.841 68.908 237.41 68.908C237.98 68.908 238.437 68.7307 238.782 68.376C239.128 68.012 239.3 67.5313 239.3 66.934V63.168H240.602V70H239.3V68.81ZM253.231 70H251.943V66.136C251.943 65.5573 251.789 65.1 251.481 64.764C251.182 64.428 250.771 64.26 250.249 64.26C249.773 64.26 249.362 64.4187 249.017 64.736C248.681 65.0533 248.513 65.52 248.513 66.136V70H247.225V66.136C247.225 65.5573 247.071 65.1 246.763 64.764C246.464 64.428 246.049 64.26 245.517 64.26C245.05 64.26 244.649 64.4187 244.313 64.736C243.977 65.044 243.809 65.5107 243.809 66.136V70H242.507V63.168H243.809V64.232C244.033 63.812 244.336 63.5087 244.719 63.322C245.111 63.126 245.521 63.028 245.951 63.028C247.043 63.028 247.789 63.476 248.191 64.372C248.387 63.9613 248.69 63.6347 249.101 63.392C249.511 63.1493 249.959 63.028 250.445 63.028C251.285 63.028 251.957 63.2847 252.461 63.798C252.974 64.3113 253.231 65.002 253.231 65.87V70ZM258.922 63.028C259.529 63.028 260.089 63.1867 260.602 63.504C261.115 63.8213 261.517 64.2553 261.806 64.806C262.105 65.3473 262.254 65.94 262.254 66.584C262.254 67.228 262.105 67.8253 261.806 68.376C261.517 68.9173 261.115 69.3467 260.602 69.664C260.089 69.9813 259.529 70.14 258.922 70.14C258.334 70.14 257.816 70.0093 257.368 69.748C256.929 69.4867 256.584 69.1133 256.332 68.628V72.786H255.03V63.168H256.332V64.54C256.584 64.0547 256.929 63.6813 257.368 63.42C257.816 63.1587 258.334 63.028 258.922 63.028ZM258.656 64.26C258.217 64.26 257.821 64.3627 257.466 64.568C257.111 64.764 256.831 65.0393 256.626 65.394C256.43 65.7487 256.332 66.1453 256.332 66.584C256.332 67.0227 256.43 67.4193 256.626 67.774C256.831 68.1287 257.111 68.4087 257.466 68.614C257.821 68.81 258.217 68.908 258.656 68.908C259.085 68.908 259.477 68.8053 259.832 68.6C260.187 68.3947 260.467 68.1147 260.672 67.76C260.877 67.4053 260.98 67.0133 260.98 66.584C260.98 66.1547 260.877 65.7627 260.672 65.408C260.467 65.0533 260.187 64.7733 259.832 64.568C259.477 64.3627 259.085 64.26 258.656 64.26ZM266.515 70.084C265.777 70.084 265.194 69.8693 264.765 69.44C264.335 69.0107 264.121 68.39 264.121 67.578V64.4H262.791V63.168H264.121V61.32H265.409V63.168H267.257V64.4H265.409V67.55C265.409 68.0073 265.53 68.3433 265.773 68.558C266.015 68.7633 266.351 68.866 266.781 68.866C266.977 68.866 267.135 68.8473 267.257 68.81V70C267.051 70.056 266.804 70.084 266.515 70.084ZM269.881 63.168V70H268.579V63.168H269.881ZM269.237 61.838C268.994 61.838 268.789 61.754 268.621 61.586C268.453 61.4087 268.369 61.2033 268.369 60.97C268.369 60.7367 268.453 60.536 268.621 60.368C268.798 60.1907 269.004 60.102 269.237 60.102C269.47 60.102 269.671 60.1907 269.839 60.368C270.016 60.536 270.105 60.7367 270.105 60.97C270.105 61.2033 270.021 61.4087 269.853 61.586C269.685 61.754 269.48 61.838 269.237 61.838ZM274.886 63.028C275.54 63.028 276.132 63.1867 276.664 63.504C277.206 63.812 277.63 64.2413 277.938 64.792C278.256 65.3333 278.414 65.9353 278.414 66.598C278.414 67.2513 278.256 67.8487 277.938 68.39C277.63 68.9313 277.206 69.3607 276.664 69.678C276.132 69.986 275.54 70.14 274.886 70.14C274.233 70.14 273.636 69.986 273.094 69.678C272.553 69.3607 272.124 68.9313 271.806 68.39C271.498 67.8487 271.344 67.2513 271.344 66.598C271.344 65.9353 271.498 65.3333 271.806 64.792C272.124 64.2413 272.548 63.812 273.08 63.504C273.622 63.1867 274.224 63.028 274.886 63.028ZM274.886 64.26C274.466 64.26 274.079 64.3627 273.724 64.568C273.379 64.7733 273.104 65.058 272.898 65.422C272.693 65.7767 272.59 66.1687 272.59 66.598C272.59 67.0273 272.693 67.4193 272.898 67.774C273.104 68.1193 273.379 68.3947 273.724 68.6C274.079 68.8053 274.466 68.908 274.886 68.908C275.297 68.908 275.675 68.8053 276.02 68.6C276.375 68.3947 276.655 68.1193 276.86 67.774C277.066 67.4193 277.168 67.0273 277.168 66.598C277.168 66.1687 277.066 65.7767 276.86 65.422C276.655 65.058 276.375 64.7733 276.02 64.568C275.675 64.3627 275.297 64.26 274.886 64.26ZM281.188 64.358C281.402 63.938 281.696 63.6113 282.07 63.378C282.452 63.1447 282.886 63.028 283.372 63.028C284.249 63.028 284.944 63.3033 285.458 63.854C285.971 64.4047 286.228 65.1513 286.228 66.094V70H284.94V66.234C284.94 65.6367 284.772 65.1607 284.436 64.806C284.1 64.442 283.647 64.26 283.078 64.26C282.508 64.26 282.051 64.442 281.706 64.806C281.36 65.1607 281.188 65.6367 281.188 66.234V70H279.886V63.168H281.188V64.358ZM294.464 70.14C293.811 70.14 293.213 69.986 292.672 69.678C292.14 69.3607 291.715 68.9313 291.398 68.39C291.09 67.8487 290.936 67.2513 290.936 66.598C290.936 65.9353 291.09 65.3333 291.398 64.792C291.715 64.2413 292.14 63.812 292.672 63.504C293.213 63.1867 293.811 63.028 294.464 63.028C294.987 63.028 295.481 63.1353 295.948 63.35C296.415 63.5647 296.797 63.8633 297.096 64.246C297.404 64.6287 297.595 65.0533 297.67 65.52H296.354C296.261 65.156 296.032 64.8573 295.668 64.624C295.313 64.3813 294.912 64.26 294.464 64.26C294.044 64.26 293.661 64.3627 293.316 64.568C292.971 64.7733 292.695 65.0533 292.49 65.408C292.294 65.7627 292.196 66.1593 292.196 66.598C292.196 67.0273 292.294 67.4193 292.49 67.774C292.695 68.1193 292.971 68.3947 293.316 68.6C293.661 68.8053 294.044 68.908 294.464 68.908C294.921 68.908 295.327 68.7867 295.682 68.544C296.046 68.292 296.275 67.9747 296.368 67.592H297.684C297.619 68.0773 297.432 68.516 297.124 68.908C296.816 69.2907 296.429 69.594 295.962 69.818C295.495 70.0327 294.996 70.14 294.464 70.14ZM302.203 63.028C302.856 63.028 303.449 63.1867 303.981 63.504C304.522 63.812 304.947 64.2413 305.255 64.792C305.572 65.3333 305.731 65.9353 305.731 66.598C305.731 67.2513 305.572 67.8487 305.255 68.39C304.947 68.9313 304.522 69.3607 303.981 69.678C303.449 69.986 302.856 70.14 302.203 70.14C301.549 70.14 300.952 69.986 300.411 69.678C299.869 69.3607 299.44 68.9313 299.123 68.39C298.815 67.8487 298.661 67.2513 298.661 66.598C298.661 65.9353 298.815 65.3333 299.123 64.792C299.44 64.2413 299.865 63.812 300.397 63.504C300.938 63.1867 301.54 63.028 302.203 63.028ZM302.203 64.26C301.783 64.26 301.395 64.3627 301.041 64.568C300.695 64.7733 300.42 65.058 300.215 65.422C300.009 65.7767 299.907 66.1687 299.907 66.598C299.907 67.0273 300.009 67.4193 300.215 67.774C300.42 68.1193 300.695 68.3947 301.041 68.6C301.395 68.8053 301.783 68.908 302.203 68.908C302.613 68.908 302.991 68.8053 303.337 68.6C303.691 68.3947 303.971 68.1193 304.177 67.774C304.382 67.4193 304.485 67.0273 304.485 66.598C304.485 66.1687 304.382 65.7767 304.177 65.422C303.971 65.058 303.691 64.7733 303.337 64.568C302.991 64.3627 302.613 64.26 302.203 64.26ZM317.926 70H316.638V66.136C316.638 65.5573 316.484 65.1 316.176 64.764C315.877 64.428 315.467 64.26 314.944 64.26C314.468 64.26 314.057 64.4187 313.712 64.736C313.376 65.0533 313.208 65.52 313.208 66.136V70H311.92V66.136C311.92 65.5573 311.766 65.1 311.458 64.764C311.159 64.428 310.744 64.26 310.212 64.26C309.745 64.26 309.344 64.4187 309.008 64.736C308.672 65.044 308.504 65.5107 308.504 66.136V70H307.202V63.168H308.504V64.232C308.728 63.812 309.031 63.5087 309.414 63.322C309.806 63.126 310.217 63.028 310.646 63.028C311.738 63.028 312.485 63.476 312.886 64.372C313.082 63.9613 313.385 63.6347 313.796 63.392C314.207 63.1493 314.655 63.028 315.14 63.028C315.98 63.028 316.652 63.2847 317.156 63.798C317.669 64.3113 317.926 65.002 317.926 65.87V70ZM322.805 70.14C322.152 70.14 321.559 69.986 321.027 69.678C320.495 69.3607 320.071 68.9267 319.753 68.376C319.445 67.8253 319.291 67.2187 319.291 66.556C319.291 65.912 319.445 65.324 319.753 64.792C320.061 64.2507 320.481 63.826 321.013 63.518C321.555 63.2007 322.147 63.042 322.791 63.042C323.398 63.042 323.949 63.1867 324.443 63.476C324.947 63.7653 325.344 64.162 325.633 64.666C325.932 65.17 326.081 65.7347 326.081 66.36L326.067 66.864H320.537C320.593 67.508 320.827 68.0307 321.237 68.432C321.648 68.824 322.175 69.02 322.819 69.02C323.305 69.02 323.725 68.908 324.079 68.684C324.434 68.46 324.653 68.166 324.737 67.802H326.011C325.89 68.5113 325.531 69.0807 324.933 69.51C324.345 69.93 323.636 70.14 322.805 70.14ZM324.709 65.87C324.663 65.366 324.453 64.9553 324.079 64.638C323.715 64.3113 323.267 64.148 322.735 64.148C322.194 64.148 321.732 64.302 321.349 64.61C320.967 64.9087 320.715 65.3287 320.593 65.87H324.709ZM329.856 70.14C329.053 70.14 328.4 69.944 327.896 69.552C327.392 69.1507 327.107 68.6 327.042 67.9H328.302C328.339 68.2267 328.503 68.488 328.792 68.684C329.081 68.88 329.441 68.978 329.87 68.978C330.281 68.978 330.598 68.8987 330.822 68.74C331.055 68.5813 331.172 68.3713 331.172 68.11C331.172 67.9047 331.102 67.7367 330.962 67.606C330.822 67.4753 330.649 67.3773 330.444 67.312C330.239 67.2373 329.949 67.158 329.576 67.074C329.063 66.9527 328.647 66.8313 328.33 66.71C328.022 66.5887 327.756 66.3973 327.532 66.136C327.308 65.8653 327.196 65.5013 327.196 65.044C327.196 64.652 327.303 64.3067 327.518 64.008C327.733 63.7 328.031 63.462 328.414 63.294C328.797 63.1167 329.231 63.028 329.716 63.028C330.425 63.028 331.032 63.21 331.536 63.574C332.04 63.938 332.334 64.442 332.418 65.086H331.116C331.079 64.8153 330.929 64.6007 330.668 64.442C330.407 64.274 330.085 64.19 329.702 64.19C329.319 64.19 329.016 64.26 328.792 64.4C328.577 64.54 328.47 64.7407 328.47 65.002C328.47 65.2727 328.591 65.4733 328.834 65.604C329.086 65.7253 329.483 65.8513 330.024 65.982C330.547 66.1127 330.967 66.2433 331.284 66.374C331.611 66.4953 331.891 66.696 332.124 66.976C332.357 67.2467 332.474 67.62 332.474 68.096C332.474 68.4787 332.357 68.8287 332.124 69.146C331.9 69.454 331.587 69.6967 331.186 69.874C330.785 70.0513 330.341 70.14 329.856 70.14ZM337.868 62.482C337.868 61.67 338.082 61.0493 338.512 60.62C338.941 60.1907 339.524 59.976 340.262 59.976C340.551 59.976 340.798 60.004 341.004 60.06V61.25C340.882 61.2127 340.719 61.194 340.514 61.194C339.608 61.194 339.156 61.628 339.156 62.496V63.168H341.004V64.4H339.156V70H337.868V64.4H336.538V63.168H337.868V62.482ZM342.188 63.168H343.49V64.204C343.677 63.8493 343.934 63.5693 344.26 63.364C344.587 63.1493 344.951 63.042 345.352 63.042C345.586 63.042 345.8 63.07 345.996 63.126V64.316C345.772 64.2413 345.548 64.204 345.324 64.204C344.802 64.204 344.363 64.386 344.008 64.75C343.663 65.1047 343.49 65.5713 343.49 66.15V70H342.188V63.168ZM349.931 63.028C350.584 63.028 351.177 63.1867 351.709 63.504C352.25 63.812 352.675 64.2413 352.983 64.792C353.3 65.3333 353.459 65.9353 353.459 66.598C353.459 67.2513 353.3 67.8487 352.983 68.39C352.675 68.9313 352.25 69.3607 351.709 69.678C351.177 69.986 350.584 70.14 349.931 70.14C349.278 70.14 348.68 69.986 348.139 69.678C347.598 69.3607 347.168 68.9313 346.851 68.39C346.543 67.8487 346.389 67.2513 346.389 66.598C346.389 65.9353 346.543 65.3333 346.851 64.792C347.168 64.2413 347.593 63.812 348.125 63.504C348.666 63.1867 349.268 63.028 349.931 63.028ZM349.931 64.26C349.511 64.26 349.124 64.3627 348.769 64.568C348.424 64.7733 348.148 65.058 347.943 65.422C347.738 65.7767 347.635 66.1687 347.635 66.598C347.635 67.0273 347.738 67.4193 347.943 67.774C348.148 68.1193 348.424 68.3947 348.769 68.6C349.124 68.8053 349.511 68.908 349.931 68.908C350.342 68.908 350.72 68.8053 351.065 68.6C351.42 68.3947 351.7 68.1193 351.905 67.774C352.11 67.4193 352.213 67.0273 352.213 66.598C352.213 66.1687 352.11 65.7767 351.905 65.422C351.7 65.058 351.42 64.7733 351.065 64.568C350.72 64.3627 350.342 64.26 349.931 64.26ZM365.655 70H364.367V66.136C364.367 65.5573 364.213 65.1 363.905 64.764C363.606 64.428 363.195 64.26 362.673 64.26C362.197 64.26 361.786 64.4187 361.441 64.736C361.105 65.0533 360.937 65.52 360.937 66.136V70H359.649V66.136C359.649 65.5573 359.495 65.1 359.187 64.764C358.888 64.428 358.473 64.26 357.941 64.26C357.474 64.26 357.073 64.4187 356.737 64.736C356.401 65.044 356.233 65.5107 356.233 66.136V70H354.931V63.168H356.233V64.232C356.457 63.812 356.76 63.5087 357.143 63.322C357.535 63.126 357.945 63.028 358.375 63.028C359.467 63.028 360.213 63.476 360.615 64.372C360.811 63.9613 361.114 63.6347 361.525 63.392C361.935 63.1493 362.383 63.028 362.869 63.028C363.709 63.028 364.381 63.2847 364.885 63.798C365.398 64.3113 365.655 65.002 365.655 65.87V70ZM203.952 80.168H205.254V81.204C205.441 80.8493 205.697 80.5693 206.024 80.364C206.351 80.1493 206.715 80.042 207.116 80.042C207.349 80.042 207.564 80.07 207.76 80.126V81.316C207.536 81.2413 207.312 81.204 207.088 81.204C206.565 81.204 206.127 81.386 205.772 81.75C205.427 82.1047 205.254 82.5713 205.254 83.15V87H203.952V80.168ZM211.667 87.14C211.013 87.14 210.421 86.986 209.889 86.678C209.357 86.3607 208.932 85.9267 208.615 85.376C208.307 84.8253 208.153 84.2187 208.153 83.556C208.153 82.912 208.307 82.324 208.615 81.792C208.923 81.2507 209.343 80.826 209.875 80.518C210.416 80.2007 211.009 80.042 211.653 80.042C212.259 80.042 212.81 80.1867 213.305 80.476C213.809 80.7653 214.205 81.162 214.495 81.666C214.793 82.17 214.943 82.7347 214.943 83.36L214.929 83.864H209.399C209.455 84.508 209.688 85.0307 210.099 85.432C210.509 85.824 211.037 86.02 211.681 86.02C212.166 86.02 212.586 85.908 212.941 85.684C213.295 85.46 213.515 85.166 213.599 84.802H214.873C214.751 85.5113 214.392 86.0807 213.795 86.51C213.207 86.93 212.497 87.14 211.667 87.14ZM213.571 82.87C213.524 82.366 213.314 81.9553 212.941 81.638C212.577 81.3113 212.129 81.148 211.597 81.148C211.055 81.148 210.593 81.302 210.211 81.61C209.828 81.9087 209.576 82.3287 209.455 82.87H213.571ZM217.695 81.358C217.91 80.938 218.204 80.6113 218.577 80.378C218.96 80.1447 219.394 80.028 219.879 80.028C220.757 80.028 221.452 80.3033 221.965 80.854C222.479 81.4047 222.735 82.1513 222.735 83.094V87H221.447V83.234C221.447 82.6367 221.279 82.1607 220.943 81.806C220.607 81.442 220.155 81.26 219.585 81.26C219.016 81.26 218.559 81.442 218.213 81.806C217.868 82.1607 217.695 82.6367 217.695 83.234V87H216.393V80.168H217.695V81.358ZM227.622 87.14C226.969 87.14 226.376 86.986 225.844 86.678C225.312 86.3607 224.887 85.9267 224.57 85.376C224.262 84.8253 224.108 84.2187 224.108 83.556C224.108 82.912 224.262 82.324 224.57 81.792C224.878 81.2507 225.298 80.826 225.83 80.518C226.371 80.2007 226.964 80.042 227.608 80.042C228.215 80.042 228.765 80.1867 229.26 80.476C229.764 80.7653 230.161 81.162 230.45 81.666C230.749 82.17 230.898 82.7347 230.898 83.36L230.884 83.864H225.354C225.41 84.508 225.643 85.0307 226.054 85.432C226.465 85.824 226.992 86.02 227.636 86.02C228.121 86.02 228.541 85.908 228.896 85.684C229.251 85.46 229.47 85.166 229.554 84.802H230.828C230.707 85.5113 230.347 86.0807 229.75 86.51C229.162 86.93 228.453 87.14 227.622 87.14ZM229.526 82.87C229.479 82.366 229.269 81.9553 228.896 81.638C228.532 81.3113 228.084 81.148 227.552 81.148C227.011 81.148 226.549 81.302 226.166 81.61C225.783 81.9087 225.531 82.3287 225.41 82.87H229.526ZM231.415 80.168H232.801L234.425 85.068L236.189 80.168H237.225L239.003 85.068L240.627 80.168H242.013L239.535 87H238.485L236.707 82.1L234.929 87H233.893L231.415 80.168ZM249.761 87H248.473V85.6C248.221 86.0947 247.871 86.4773 247.423 86.748C246.985 87.0093 246.467 87.14 245.869 87.14C245.263 87.14 244.703 86.9813 244.189 86.664C243.685 86.3467 243.284 85.9173 242.985 85.376C242.696 84.8253 242.551 84.228 242.551 83.584C242.551 82.94 242.696 82.3473 242.985 81.806C243.284 81.2553 243.685 80.8213 244.189 80.504C244.703 80.1867 245.263 80.028 245.869 80.028C246.467 80.028 246.985 80.1633 247.423 80.434C247.871 80.6953 248.221 81.0733 248.473 81.568V80.168H249.761V87ZM246.135 85.908C246.574 85.908 246.971 85.81 247.325 85.614C247.689 85.4087 247.969 85.1287 248.165 84.774C248.371 84.4193 248.473 84.0227 248.473 83.584C248.473 83.1453 248.371 82.7487 248.165 82.394C247.969 82.0393 247.689 81.764 247.325 81.568C246.971 81.3627 246.574 81.26 246.135 81.26C245.706 81.26 245.314 81.3627 244.959 81.568C244.605 81.7733 244.325 82.0533 244.119 82.408C243.914 82.7627 243.811 83.1547 243.811 83.584C243.811 84.0133 243.914 84.4053 244.119 84.76C244.325 85.1147 244.605 85.3947 244.959 85.6C245.314 85.8053 245.706 85.908 246.135 85.908ZM251.667 77.2H252.969V81.61C253.221 81.1247 253.566 80.7513 254.005 80.49C254.453 80.2287 254.971 80.098 255.559 80.098C256.166 80.098 256.726 80.2567 257.239 80.574C257.752 80.8913 258.154 81.3253 258.443 81.876C258.742 82.4173 258.891 83.01 258.891 83.654C258.891 84.298 258.742 84.8953 258.443 85.446C258.154 85.9873 257.752 86.4167 257.239 86.734C256.726 87.0513 256.166 87.21 255.559 87.21C254.971 87.21 254.453 87.0793 254.005 86.818C253.566 86.5567 253.221 86.1833 252.969 85.698V87H251.667V77.2ZM255.293 81.33C254.854 81.33 254.458 81.4327 254.103 81.638C253.748 81.834 253.468 82.1093 253.263 82.464C253.067 82.8187 252.969 83.2153 252.969 83.654C252.969 84.0927 253.067 84.4893 253.263 84.844C253.468 85.1987 253.748 85.4787 254.103 85.684C254.458 85.88 254.854 85.978 255.293 85.978C255.722 85.978 256.114 85.8753 256.469 85.67C256.824 85.4647 257.104 85.1847 257.309 84.83C257.514 84.4753 257.617 84.0833 257.617 83.654C257.617 83.2247 257.514 82.8327 257.309 82.478C257.104 82.1233 256.824 81.8433 256.469 81.638C256.114 81.4327 255.722 81.33 255.293 81.33ZM260.348 77.2H261.65V87H260.348V77.2ZM266.628 87.14C265.974 87.14 265.382 86.986 264.85 86.678C264.318 86.3607 263.893 85.9267 263.576 85.376C263.268 84.8253 263.114 84.2187 263.114 83.556C263.114 82.912 263.268 82.324 263.576 81.792C263.884 81.2507 264.304 80.826 264.836 80.518C265.377 80.2007 265.97 80.042 266.614 80.042C267.22 80.042 267.771 80.1867 268.266 80.476C268.77 80.7653 269.166 81.162 269.456 81.666C269.754 82.17 269.904 82.7347 269.904 83.36L269.89 83.864H264.36C264.416 84.508 264.649 85.0307 265.06 85.432C265.47 85.824 265.998 86.02 266.642 86.02C267.127 86.02 267.547 85.908 267.902 85.684C268.256 85.46 268.476 85.166 268.56 84.802H269.834C269.712 85.5113 269.353 86.0807 268.756 86.51C268.168 86.93 267.458 87.14 266.628 87.14ZM268.532 82.87C268.485 82.366 268.275 81.9553 267.902 81.638C267.538 81.3113 267.09 81.148 266.558 81.148C266.016 81.148 265.554 81.302 265.172 81.61C264.789 81.9087 264.537 82.3287 264.416 82.87H268.532ZM277.014 87.14C276.212 87.14 275.558 86.944 275.054 86.552C274.55 86.1507 274.266 85.6 274.2 84.9H275.46C275.498 85.2267 275.661 85.488 275.95 85.684C276.24 85.88 276.599 85.978 277.028 85.978C277.439 85.978 277.756 85.8987 277.98 85.74C278.214 85.5813 278.33 85.3713 278.33 85.11C278.33 84.9047 278.26 84.7367 278.12 84.606C277.98 84.4753 277.808 84.3773 277.602 84.312C277.397 84.2373 277.108 84.158 276.734 84.074C276.221 83.9527 275.806 83.8313 275.488 83.71C275.18 83.5887 274.914 83.3973 274.69 83.136C274.466 82.8653 274.354 82.5013 274.354 82.044C274.354 81.652 274.462 81.3067 274.676 81.008C274.891 80.7 275.19 80.462 275.572 80.294C275.955 80.1167 276.389 80.028 276.874 80.028C277.584 80.028 278.19 80.21 278.694 80.574C279.198 80.938 279.492 81.442 279.576 82.086H278.274C278.237 81.8153 278.088 81.6007 277.826 81.442C277.565 81.274 277.243 81.19 276.86 81.19C276.478 81.19 276.174 81.26 275.95 81.4C275.736 81.54 275.628 81.7407 275.628 82.002C275.628 82.2727 275.75 82.4733 275.992 82.604C276.244 82.7253 276.641 82.8513 277.182 82.982C277.705 83.1127 278.125 83.2433 278.442 83.374C278.769 83.4953 279.049 83.696 279.282 83.976C279.516 84.2467 279.632 84.62 279.632 85.096C279.632 85.4787 279.516 85.8287 279.282 86.146C279.058 86.454 278.746 86.6967 278.344 86.874C277.943 87.0513 277.5 87.14 277.014 87.14ZM284.224 80.028C284.877 80.028 285.47 80.1867 286.002 80.504C286.543 80.812 286.968 81.2413 287.276 81.792C287.593 82.3333 287.752 82.9353 287.752 83.598C287.752 84.2513 287.593 84.8487 287.276 85.39C286.968 85.9313 286.543 86.3607 286.002 86.678C285.47 86.986 284.877 87.14 284.224 87.14C283.571 87.14 282.973 86.986 282.432 86.678C281.891 86.3607 281.461 85.9313 281.144 85.39C280.836 84.8487 280.682 84.2513 280.682 83.598C280.682 82.9353 280.836 82.3333 281.144 81.792C281.461 81.2413 281.886 80.812 282.418 80.504C282.959 80.1867 283.561 80.028 284.224 80.028ZM284.224 81.26C283.804 81.26 283.417 81.3627 283.062 81.568C282.717 81.7733 282.441 82.058 282.236 82.422C282.031 82.7767 281.928 83.1687 281.928 83.598C281.928 84.0273 282.031 84.4193 282.236 84.774C282.441 85.1193 282.717 85.3947 283.062 85.6C283.417 85.8053 283.804 85.908 284.224 85.908C284.635 85.908 285.013 85.8053 285.358 85.6C285.713 85.3947 285.993 85.1193 286.198 84.774C286.403 84.4193 286.506 84.0273 286.506 83.598C286.506 83.1687 286.403 82.7767 286.198 82.422C285.993 82.058 285.713 81.7733 285.358 81.568C285.013 81.3627 284.635 81.26 284.224 81.26ZM294.165 85.81C293.951 86.23 293.652 86.5567 293.269 86.79C292.896 87.0233 292.467 87.14 291.981 87.14C291.104 87.14 290.409 86.8693 289.895 86.328C289.382 85.7773 289.125 85.0307 289.125 84.088V80.168H290.413V83.934C290.413 84.5313 290.581 85.012 290.917 85.376C291.253 85.7307 291.706 85.908 292.275 85.908C292.845 85.908 293.302 85.7307 293.647 85.376C293.993 85.012 294.165 84.5313 294.165 83.934V80.168H295.467V87H294.165V85.81ZM297.372 80.168H298.674V81.204C298.861 80.8493 299.117 80.5693 299.444 80.364C299.771 80.1493 300.135 80.042 300.536 80.042C300.769 80.042 300.984 80.07 301.18 80.126V81.316C300.956 81.2413 300.732 81.204 300.508 81.204C299.985 81.204 299.547 81.386 299.192 81.75C298.847 82.1047 298.674 82.5713 298.674 83.15V87H297.372V80.168ZM305.101 87.14C304.447 87.14 303.85 86.986 303.309 86.678C302.777 86.3607 302.352 85.9313 302.035 85.39C301.727 84.8487 301.573 84.2513 301.573 83.598C301.573 82.9353 301.727 82.3333 302.035 81.792C302.352 81.2413 302.777 80.812 303.309 80.504C303.85 80.1867 304.447 80.028 305.101 80.028C305.623 80.028 306.118 80.1353 306.585 80.35C307.051 80.5647 307.434 80.8633 307.733 81.246C308.041 81.6287 308.232 82.0533 308.307 82.52H306.991C306.897 82.156 306.669 81.8573 306.305 81.624C305.95 81.3813 305.549 81.26 305.101 81.26C304.681 81.26 304.298 81.3627 303.953 81.568C303.607 81.7733 303.332 82.0533 303.127 82.408C302.931 82.7627 302.833 83.1593 302.833 83.598C302.833 84.0273 302.931 84.4193 303.127 84.774C303.332 85.1193 303.607 85.3947 303.953 85.6C304.298 85.8053 304.681 85.908 305.101 85.908C305.558 85.908 305.964 85.7867 306.319 85.544C306.683 85.292 306.911 84.9747 307.005 84.592H308.321C308.255 85.0773 308.069 85.516 307.761 85.908C307.453 86.2907 307.065 86.594 306.599 86.818C306.132 87.0327 305.633 87.14 305.101 87.14ZM312.811 87.14C312.158 87.14 311.565 86.986 311.033 86.678C310.501 86.3607 310.077 85.9267 309.759 85.376C309.451 84.8253 309.297 84.2187 309.297 83.556C309.297 82.912 309.451 82.324 309.759 81.792C310.067 81.2507 310.487 80.826 311.019 80.518C311.561 80.2007 312.153 80.042 312.797 80.042C313.404 80.042 313.955 80.1867 314.449 80.476C314.953 80.7653 315.35 81.162 315.639 81.666C315.938 82.17 316.087 82.7347 316.087 83.36L316.073 83.864H310.543C310.599 84.508 310.833 85.0307 311.243 85.432C311.654 85.824 312.181 86.02 312.825 86.02C313.311 86.02 313.731 85.908 314.085 85.684C314.44 85.46 314.659 85.166 314.743 84.802H316.017C315.896 85.5113 315.537 86.0807 314.939 86.51C314.351 86.93 313.642 87.14 312.811 87.14ZM314.715 82.87C314.669 82.366 314.459 81.9553 314.085 81.638C313.721 81.3113 313.273 81.148 312.741 81.148C312.2 81.148 311.738 81.302 311.355 81.61C310.973 81.9087 310.721 82.3287 310.599 82.87H314.715ZM319.862 87.14C319.059 87.14 318.406 86.944 317.902 86.552C317.398 86.1507 317.113 85.6 317.048 84.9H318.308C318.345 85.2267 318.509 85.488 318.798 85.684C319.087 85.88 319.447 85.978 319.876 85.978C320.287 85.978 320.604 85.8987 320.828 85.74C321.061 85.5813 321.178 85.3713 321.178 85.11C321.178 84.9047 321.108 84.7367 320.968 84.606C320.828 84.4753 320.655 84.3773 320.45 84.312C320.245 84.2373 319.955 84.158 319.582 84.074C319.069 83.9527 318.653 83.8313 318.336 83.71C318.028 83.5887 317.762 83.3973 317.538 83.136C317.314 82.8653 317.202 82.5013 317.202 82.044C317.202 81.652 317.309 81.3067 317.524 81.008C317.739 80.7 318.037 80.462 318.42 80.294C318.803 80.1167 319.237 80.028 319.722 80.028C320.431 80.028 321.038 80.21 321.542 80.574C322.046 80.938 322.34 81.442 322.424 82.086H321.122C321.085 81.8153 320.935 81.6007 320.674 81.442C320.413 81.274 320.091 81.19 319.708 81.19C319.325 81.19 319.022 81.26 318.798 81.4C318.583 81.54 318.476 81.7407 318.476 82.002C318.476 82.2727 318.597 82.4733 318.84 82.604C319.092 82.7253 319.489 82.8513 320.03 82.982C320.553 83.1127 320.973 83.2433 321.29 83.374C321.617 83.4953 321.897 83.696 322.13 83.976C322.363 84.2467 322.48 84.62 322.48 85.096C322.48 85.4787 322.363 85.8287 322.13 86.146C321.906 86.454 321.593 86.6967 321.192 86.874C320.791 87.0513 320.347 87.14 319.862 87.14ZM324.678 87.14C324.407 87.14 324.178 87.0513 323.992 86.874C323.814 86.6873 323.726 86.4633 323.726 86.202C323.726 85.9407 323.819 85.7213 324.006 85.544C324.192 85.3573 324.416 85.264 324.678 85.264C324.948 85.264 325.172 85.3573 325.35 85.544C325.536 85.7213 325.63 85.9407 325.63 86.202C325.63 86.4727 325.536 86.6967 325.35 86.874C325.172 87.0513 324.948 87.14 324.678 87.14ZM212.128 104H210.658L209.804 101.816H205.422L204.554 104H203.126L207.046 94.2H208.208L212.128 104ZM209.314 100.584L207.62 96.244L205.898 100.584H209.314ZM215.642 104.084C214.904 104.084 214.321 103.869 213.892 103.44C213.462 103.011 213.248 102.39 213.248 101.578V98.4H211.918V97.168H213.248V95.32H214.536V97.168H216.384V98.4H214.536V101.55C214.536 102.007 214.657 102.343 214.9 102.558C215.142 102.763 215.478 102.866 215.908 102.866C216.104 102.866 216.262 102.847 216.384 102.81V104C216.178 104.056 215.931 104.084 215.642 104.084ZM222.4 94.2L227.468 101.452V94.2H228.826V104H227.622L222.54 96.762V104H221.182V94.2H222.4ZM235.718 102.81C235.504 103.23 235.205 103.557 234.822 103.79C234.449 104.023 234.02 104.14 233.534 104.14C232.657 104.14 231.962 103.869 231.448 103.328C230.935 102.777 230.678 102.031 230.678 101.088V97.168H231.966V100.934C231.966 101.531 232.134 102.012 232.47 102.376C232.806 102.731 233.259 102.908 233.828 102.908C234.398 102.908 234.855 102.731 235.2 102.376C235.546 102.012 235.718 101.531 235.718 100.934V97.168H237.02V104H235.718V102.81ZM238.925 97.168H240.227V98.204C240.413 97.8493 240.67 97.5693 240.997 97.364C241.323 97.1493 241.687 97.042 242.089 97.042C242.322 97.042 242.537 97.07 242.733 97.126V98.316C242.509 98.2413 242.285 98.204 242.061 98.204C241.538 98.204 241.099 98.386 240.745 98.75C240.399 99.1047 240.227 99.5713 240.227 100.15V104H238.925V97.168ZM248.884 102.81C248.67 103.23 248.371 103.557 247.988 103.79C247.615 104.023 247.186 104.14 246.7 104.14C245.823 104.14 245.128 103.869 244.614 103.328C244.101 102.777 243.844 102.031 243.844 101.088V97.168H245.132V100.934C245.132 101.531 245.3 102.012 245.636 102.376C245.972 102.731 246.425 102.908 246.994 102.908C247.564 102.908 248.021 102.731 248.366 102.376C248.712 102.012 248.884 101.531 248.884 100.934V97.168H250.186V104H248.884V102.81ZM254.415 104.14C253.612 104.14 252.959 103.944 252.455 103.552C251.951 103.151 251.666 102.6 251.601 101.9H252.861C252.898 102.227 253.061 102.488 253.351 102.684C253.64 102.88 253.999 102.978 254.429 102.978C254.839 102.978 255.157 102.899 255.381 102.74C255.614 102.581 255.731 102.371 255.731 102.11C255.731 101.905 255.661 101.737 255.521 101.606C255.381 101.475 255.208 101.377 255.003 101.312C254.797 101.237 254.508 101.158 254.135 101.074C253.621 100.953 253.206 100.831 252.889 100.71C252.581 100.589 252.315 100.397 252.091 100.136C251.867 99.8653 251.755 99.5013 251.755 99.044C251.755 98.652 251.862 98.3067 252.077 98.008C252.291 97.7 252.59 97.462 252.973 97.294C253.355 97.1167 253.789 97.028 254.275 97.028C254.984 97.028 255.591 97.21 256.095 97.574C256.599 97.938 256.893 98.442 256.977 99.086H255.675C255.637 98.8153 255.488 98.6007 255.227 98.442C254.965 98.274 254.643 98.19 254.261 98.19C253.878 98.19 253.575 98.26 253.351 98.4C253.136 98.54 253.029 98.7407 253.029 99.002C253.029 99.2727 253.15 99.4733 253.393 99.604C253.645 99.7253 254.041 99.8513 254.583 99.982C255.105 100.113 255.525 100.243 255.843 100.374C256.169 100.495 256.449 100.696 256.683 100.976C256.916 101.247 257.033 101.62 257.033 102.096C257.033 102.479 256.916 102.829 256.683 103.146C256.459 103.454 256.146 103.697 255.745 103.874C255.343 104.051 254.9 104.14 254.415 104.14ZM269.832 94.2V104H268.474V99.562H263.35V104H261.992V94.2H263.35V98.274H268.474V94.2H269.832ZM279.238 103.314C278.389 103.865 277.46 104.14 276.452 104.14C275.528 104.14 274.688 103.921 273.932 103.482C273.176 103.034 272.579 102.423 272.14 101.648C271.711 100.873 271.496 100.015 271.496 99.072C271.496 98.1387 271.711 97.294 272.14 96.538C272.579 95.7727 273.176 95.1707 273.932 94.732C274.688 94.284 275.528 94.06 276.452 94.06C277.376 94.06 278.216 94.284 278.972 94.732C279.728 95.1707 280.325 95.7727 280.764 96.538C281.203 97.294 281.422 98.1387 281.422 99.072C281.422 99.7253 281.315 100.346 281.1 100.934C280.885 101.513 280.577 102.026 280.176 102.474L281.492 104H279.826L279.238 103.314ZM276.452 95.362C275.789 95.362 275.183 95.5253 274.632 95.852C274.091 96.1787 273.661 96.6267 273.344 97.196C273.036 97.7653 272.882 98.3907 272.882 99.072C272.882 99.772 273.036 100.411 273.344 100.99C273.661 101.559 274.091 102.012 274.632 102.348C275.183 102.675 275.789 102.838 276.452 102.838C277.143 102.838 277.773 102.656 278.342 102.292L275.906 99.464H277.572L279.266 101.424C279.509 101.107 279.695 100.747 279.826 100.346C279.957 99.9353 280.022 99.5107 280.022 99.072C280.022 98.3907 279.863 97.7653 279.546 97.196C279.238 96.6267 278.809 96.1787 278.258 95.852C277.717 95.5253 277.115 95.362 276.452 95.362ZM283.357 105.596H282.307L282.881 102.558H284.267L283.357 105.596ZM295.63 104H294.342V102.6C294.09 103.095 293.74 103.477 293.292 103.748C292.854 104.009 292.336 104.14 291.738 104.14C291.132 104.14 290.572 103.981 290.058 103.664C289.554 103.347 289.153 102.917 288.854 102.376C288.565 101.825 288.42 101.228 288.42 100.584C288.42 99.94 288.565 99.3473 288.854 98.806C289.153 98.2553 289.554 97.8213 290.058 97.504C290.572 97.1867 291.132 97.028 291.738 97.028C292.336 97.028 292.854 97.1633 293.292 97.434C293.74 97.6953 294.09 98.0733 294.342 98.568V97.168H295.63V104ZM292.004 102.908C292.443 102.908 292.84 102.81 293.194 102.614C293.558 102.409 293.838 102.129 294.034 101.774C294.24 101.419 294.342 101.023 294.342 100.584C294.342 100.145 294.24 99.7487 294.034 99.394C293.838 99.0393 293.558 98.764 293.194 98.568C292.84 98.3627 292.443 98.26 292.004 98.26C291.575 98.26 291.183 98.3627 290.828 98.568C290.474 98.7733 290.194 99.0533 289.988 99.408C289.783 99.7627 289.68 100.155 289.68 100.584C289.68 101.013 289.783 101.405 289.988 101.76C290.194 102.115 290.474 102.395 290.828 102.6C291.183 102.805 291.575 102.908 292.004 102.908ZM300.872 94.2H302.174V104H300.872V94.2ZM310.847 104H309.559V102.6C309.307 103.095 308.957 103.477 308.509 103.748C308.07 104.009 307.552 104.14 306.955 104.14C306.348 104.14 305.788 103.981 305.275 103.664C304.771 103.347 304.37 102.917 304.071 102.376C303.782 101.825 303.637 101.228 303.637 100.584C303.637 99.94 303.782 99.3473 304.071 98.806C304.37 98.2553 304.771 97.8213 305.275 97.504C305.788 97.1867 306.348 97.028 306.955 97.028C307.552 97.028 308.07 97.1633 308.509 97.434C308.957 97.6953 309.307 98.0733 309.559 98.568V97.168H310.847V104ZM307.221 102.908C307.66 102.908 308.056 102.81 308.411 102.614C308.775 102.409 309.055 102.129 309.251 101.774C309.456 101.419 309.559 101.023 309.559 100.584C309.559 100.145 309.456 99.7487 309.251 99.394C309.055 99.0393 308.775 98.764 308.411 98.568C308.056 98.3627 307.66 98.26 307.221 98.26C306.792 98.26 306.4 98.3627 306.045 98.568C305.69 98.7733 305.41 99.0533 305.205 99.408C305 99.7627 304.897 100.155 304.897 100.584C304.897 101.013 305 101.405 305.205 101.76C305.41 102.115 305.69 102.395 306.045 102.6C306.4 102.805 306.792 102.908 307.221 102.908ZM312.753 97.168H314.055V98.204C314.241 97.8493 314.498 97.5693 314.825 97.364C315.151 97.1493 315.515 97.042 315.917 97.042C316.15 97.042 316.365 97.07 316.561 97.126V98.316C316.337 98.2413 316.113 98.204 315.889 98.204C315.366 98.204 314.927 98.386 314.573 98.75C314.227 99.1047 314.055 99.5713 314.055 100.15V104H312.753V97.168ZM320.734 106.87C320.211 106.87 319.698 106.786 319.194 106.618C318.69 106.45 318.265 106.184 317.92 105.82C317.584 105.456 317.407 104.994 317.388 104.434H318.662C318.681 104.845 318.881 105.171 319.264 105.414C319.656 105.666 320.132 105.792 320.692 105.792C321.327 105.792 321.849 105.61 322.26 105.246C322.671 104.882 322.876 104.406 322.876 103.818V102.502C322.624 102.987 322.274 103.361 321.826 103.622C321.387 103.883 320.874 104.014 320.286 104.014C319.679 104.014 319.119 103.86 318.606 103.552C318.093 103.235 317.687 102.81 317.388 102.278C317.099 101.746 316.954 101.163 316.954 100.528C316.954 99.884 317.099 99.296 317.388 98.764C317.687 98.2227 318.093 97.798 318.606 97.49C319.119 97.182 319.679 97.028 320.286 97.028C320.874 97.028 321.387 97.1587 321.826 97.42C322.274 97.6813 322.624 98.0547 322.876 98.54V97.168H324.178V103.776C324.178 104.401 324.029 104.947 323.73 105.414C323.441 105.881 323.035 106.24 322.512 106.492C321.989 106.744 321.397 106.87 320.734 106.87ZM320.552 102.824C320.991 102.824 321.387 102.726 321.742 102.53C322.097 102.325 322.372 102.049 322.568 101.704C322.773 101.349 322.876 100.957 322.876 100.528C322.876 100.089 322.773 99.6927 322.568 99.338C322.372 98.9833 322.097 98.708 321.742 98.512C321.387 98.316 320.991 98.218 320.552 98.218C320.123 98.218 319.731 98.3207 319.376 98.526C319.021 98.7313 318.741 99.0113 318.536 99.366C318.331 99.7113 318.228 100.099 318.228 100.528C318.228 100.948 318.331 101.335 318.536 101.69C318.741 102.035 319.021 102.311 319.376 102.516C319.731 102.721 320.123 102.824 320.552 102.824ZM329.149 104.14C328.496 104.14 327.903 103.986 327.371 103.678C326.839 103.361 326.415 102.927 326.097 102.376C325.789 101.825 325.635 101.219 325.635 100.556C325.635 99.912 325.789 99.324 326.097 98.792C326.405 98.2507 326.825 97.826 327.357 97.518C327.899 97.2007 328.491 97.042 329.135 97.042C329.742 97.042 330.293 97.1867 330.787 97.476C331.291 97.7653 331.688 98.162 331.977 98.666C332.276 99.17 332.425 99.7347 332.425 100.36L332.411 100.864H326.881C326.937 101.508 327.171 102.031 327.581 102.432C327.992 102.824 328.519 103.02 329.163 103.02C329.649 103.02 330.069 102.908 330.423 102.684C330.778 102.46 330.997 102.166 331.081 101.802H332.355C332.234 102.511 331.875 103.081 331.277 103.51C330.689 103.93 329.98 104.14 329.149 104.14ZM331.053 99.87C331.007 99.366 330.797 98.9553 330.423 98.638C330.059 98.3113 329.611 98.148 329.079 98.148C328.538 98.148 328.076 98.302 327.693 98.61C327.311 98.9087 327.059 99.3287 326.937 99.87H331.053ZM337.212 97.168H338.514V98.204C338.7 97.8493 338.957 97.5693 339.284 97.364C339.61 97.1493 339.974 97.042 340.376 97.042C340.609 97.042 340.824 97.07 341.02 97.126V98.316C340.796 98.2413 340.572 98.204 340.348 98.204C339.825 98.204 339.386 98.386 339.032 98.75C338.686 99.1047 338.514 99.5713 338.514 100.15V104H337.212V97.168ZM344.955 97.028C345.608 97.028 346.201 97.1867 346.733 97.504C347.274 97.812 347.699 98.2413 348.007 98.792C348.324 99.3333 348.483 99.9353 348.483 100.598C348.483 101.251 348.324 101.849 348.007 102.39C347.699 102.931 347.274 103.361 346.733 103.678C346.201 103.986 345.608 104.14 344.955 104.14C344.301 104.14 343.704 103.986 343.163 103.678C342.621 103.361 342.192 102.931 341.875 102.39C341.567 101.849 341.413 101.251 341.413 100.598C341.413 99.9353 341.567 99.3333 341.875 98.792C342.192 98.2413 342.617 97.812 343.149 97.504C343.69 97.1867 344.292 97.028 344.955 97.028ZM344.955 98.26C344.535 98.26 344.147 98.3627 343.793 98.568C343.447 98.7733 343.172 99.058 342.967 99.422C342.761 99.7767 342.659 100.169 342.659 100.598C342.659 101.027 342.761 101.419 342.967 101.774C343.172 102.119 343.447 102.395 343.793 102.6C344.147 102.805 344.535 102.908 344.955 102.908C345.365 102.908 345.743 102.805 346.089 102.6C346.443 102.395 346.723 102.119 346.929 101.774C347.134 101.419 347.237 101.027 347.237 100.598C347.237 100.169 347.134 99.7767 346.929 99.422C346.723 99.058 346.443 98.7733 346.089 98.568C345.743 98.3627 345.365 98.26 344.955 98.26ZM353.062 97.028C353.715 97.028 354.308 97.1867 354.84 97.504C355.381 97.812 355.806 98.2413 356.114 98.792C356.431 99.3333 356.59 99.9353 356.59 100.598C356.59 101.251 356.431 101.849 356.114 102.39C355.806 102.931 355.381 103.361 354.84 103.678C354.308 103.986 353.715 104.14 353.062 104.14C352.409 104.14 351.811 103.986 351.27 103.678C350.729 103.361 350.299 102.931 349.982 102.39C349.674 101.849 349.52 101.251 349.52 100.598C349.52 99.9353 349.674 99.3333 349.982 98.792C350.299 98.2413 350.724 97.812 351.256 97.504C351.797 97.1867 352.399 97.028 353.062 97.028ZM353.062 98.26C352.642 98.26 352.255 98.3627 351.9 98.568C351.555 98.7733 351.279 99.058 351.074 99.422C350.869 99.7767 350.766 100.169 350.766 100.598C350.766 101.027 350.869 101.419 351.074 101.774C351.279 102.119 351.555 102.395 351.9 102.6C352.255 102.805 352.642 102.908 353.062 102.908C353.473 102.908 353.851 102.805 354.196 102.6C354.551 102.395 354.831 102.119 355.036 101.774C355.241 101.419 355.344 101.027 355.344 100.598C355.344 100.169 355.241 99.7767 355.036 99.422C354.831 99.058 354.551 98.7733 354.196 98.568C353.851 98.3627 353.473 98.26 353.062 98.26ZM358.526 96.482C358.526 95.67 358.741 95.0493 359.17 94.62C359.599 94.1907 360.183 93.976 360.92 93.976C361.209 93.976 361.457 94.004 361.662 94.06V95.25C361.541 95.2127 361.377 95.194 361.172 95.194C360.267 95.194 359.814 95.628 359.814 96.496V97.168H361.662V98.4H359.814V104H358.526V98.4H357.196V97.168H358.526V96.482ZM365.773 104.084C365.035 104.084 364.452 103.869 364.023 103.44C363.593 103.011 363.379 102.39 363.379 101.578V98.4H362.049V97.168H363.379V95.32H364.667V97.168H366.515V98.4H364.667V101.55C364.667 102.007 364.788 102.343 365.031 102.558C365.273 102.763 365.609 102.866 366.039 102.866C366.235 102.866 366.393 102.847 366.515 102.81V104C366.309 104.056 366.062 104.084 365.773 104.084ZM370.753 97.028C371.407 97.028 371.999 97.1867 372.531 97.504C373.073 97.812 373.497 98.2413 373.805 98.792C374.123 99.3333 374.281 99.9353 374.281 100.598C374.281 101.251 374.123 101.849 373.805 102.39C373.497 102.931 373.073 103.361 372.531 103.678C371.999 103.986 371.407 104.14 370.753 104.14C370.1 104.14 369.503 103.986 368.961 103.678C368.42 103.361 367.991 102.931 367.673 102.39C367.365 101.849 367.211 101.251 367.211 100.598C367.211 99.9353 367.365 99.3333 367.673 98.792C367.991 98.2413 368.415 97.812 368.947 97.504C369.489 97.1867 370.091 97.028 370.753 97.028ZM370.753 98.26C370.333 98.26 369.946 98.3627 369.591 98.568C369.246 98.7733 368.971 99.058 368.765 99.422C368.56 99.7767 368.457 100.169 368.457 100.598C368.457 101.027 368.56 101.419 368.765 101.774C368.971 102.119 369.246 102.395 369.591 102.6C369.946 102.805 370.333 102.908 370.753 102.908C371.164 102.908 371.542 102.805 371.887 102.6C372.242 102.395 372.522 102.119 372.727 101.774C372.933 101.419 373.035 101.027 373.035 100.598C373.035 100.169 372.933 99.7767 372.727 99.422C372.522 99.058 372.242 98.7733 371.887 98.568C371.542 98.3627 371.164 98.26 370.753 98.26ZM379.645 97.028C380.251 97.028 380.811 97.1867 381.325 97.504C381.838 97.8213 382.239 98.2553 382.529 98.806C382.827 99.3473 382.977 99.94 382.977 100.584C382.977 101.228 382.827 101.825 382.529 102.376C382.239 102.917 381.838 103.347 381.325 103.664C380.811 103.981 380.251 104.14 379.645 104.14C379.057 104.14 378.539 104.009 378.091 103.748C377.652 103.487 377.307 103.113 377.055 102.628V106.786H375.753V97.168H377.055V98.54C377.307 98.0547 377.652 97.6813 378.091 97.42C378.539 97.1587 379.057 97.028 379.645 97.028ZM379.379 98.26C378.94 98.26 378.543 98.3627 378.189 98.568C377.834 98.764 377.554 99.0393 377.349 99.394C377.153 99.7487 377.055 100.145 377.055 100.584C377.055 101.023 377.153 101.419 377.349 101.774C377.554 102.129 377.834 102.409 378.189 102.614C378.543 102.81 378.94 102.908 379.379 102.908C379.808 102.908 380.2 102.805 380.555 102.6C380.909 102.395 381.189 102.115 381.395 101.76C381.6 101.405 381.703 101.013 381.703 100.584C381.703 100.155 381.6 99.7627 381.395 99.408C381.189 99.0533 380.909 98.7733 380.555 98.568C380.2 98.3627 379.808 98.26 379.379 98.26ZM206.276 121.14C205.473 121.14 204.82 120.944 204.316 120.552C203.812 120.151 203.527 119.6 203.462 118.9H204.722C204.759 119.227 204.923 119.488 205.212 119.684C205.501 119.88 205.861 119.978 206.29 119.978C206.701 119.978 207.018 119.899 207.242 119.74C207.475 119.581 207.592 119.371 207.592 119.11C207.592 118.905 207.522 118.737 207.382 118.606C207.242 118.475 207.069 118.377 206.864 118.312C206.659 118.237 206.369 118.158 205.996 118.074C205.483 117.953 205.067 117.831 204.75 117.71C204.442 117.589 204.176 117.397 203.952 117.136C203.728 116.865 203.616 116.501 203.616 116.044C203.616 115.652 203.723 115.307 203.938 115.008C204.153 114.7 204.451 114.462 204.834 114.294C205.217 114.117 205.651 114.028 206.136 114.028C206.845 114.028 207.452 114.21 207.956 114.574C208.46 114.938 208.754 115.442 208.838 116.086H207.536C207.499 115.815 207.349 115.601 207.088 115.442C206.827 115.274 206.505 115.19 206.122 115.19C205.739 115.19 205.436 115.26 205.212 115.4C204.997 115.54 204.89 115.741 204.89 116.002C204.89 116.273 205.011 116.473 205.254 116.604C205.506 116.725 205.903 116.851 206.444 116.982C206.967 117.113 207.387 117.243 207.704 117.374C208.031 117.495 208.311 117.696 208.544 117.976C208.777 118.247 208.894 118.62 208.894 119.096C208.894 119.479 208.777 119.829 208.544 120.146C208.32 120.454 208.007 120.697 207.606 120.874C207.205 121.051 206.761 121.14 206.276 121.14ZM213.486 114.028C214.139 114.028 214.732 114.187 215.264 114.504C215.805 114.812 216.23 115.241 216.538 115.792C216.855 116.333 217.014 116.935 217.014 117.598C217.014 118.251 216.855 118.849 216.538 119.39C216.23 119.931 215.805 120.361 215.264 120.678C214.732 120.986 214.139 121.14 213.486 121.14C212.832 121.14 212.235 120.986 211.694 120.678C211.152 120.361 210.723 119.931 210.406 119.39C210.098 118.849 209.944 118.251 209.944 117.598C209.944 116.935 210.098 116.333 210.406 115.792C210.723 115.241 211.148 114.812 211.68 114.504C212.221 114.187 212.823 114.028 213.486 114.028ZM213.486 115.26C213.066 115.26 212.678 115.363 212.324 115.568C211.978 115.773 211.703 116.058 211.498 116.422C211.292 116.777 211.19 117.169 211.19 117.598C211.19 118.027 211.292 118.419 211.498 118.774C211.703 119.119 211.978 119.395 212.324 119.6C212.678 119.805 213.066 119.908 213.486 119.908C213.896 119.908 214.274 119.805 214.62 119.6C214.974 119.395 215.254 119.119 215.46 118.774C215.665 118.419 215.768 118.027 215.768 117.598C215.768 117.169 215.665 116.777 215.46 116.422C215.254 116.058 214.974 115.773 214.62 115.568C214.274 115.363 213.896 115.26 213.486 115.26ZM218.485 111.2H219.787V121H218.485V111.2ZM228.46 121H227.172V119.6C226.92 120.095 226.57 120.477 226.122 120.748C225.684 121.009 225.166 121.14 224.568 121.14C223.962 121.14 223.402 120.981 222.888 120.664C222.384 120.347 221.983 119.917 221.684 119.376C221.395 118.825 221.25 118.228 221.25 117.584C221.25 116.94 221.395 116.347 221.684 115.806C221.983 115.255 222.384 114.821 222.888 114.504C223.402 114.187 223.962 114.028 224.568 114.028C225.166 114.028 225.684 114.163 226.122 114.434C226.57 114.695 226.92 115.073 227.172 115.568V114.168H228.46V121ZM224.834 119.908C225.273 119.908 225.67 119.81 226.024 119.614C226.388 119.409 226.668 119.129 226.864 118.774C227.07 118.419 227.172 118.023 227.172 117.584C227.172 117.145 227.07 116.749 226.864 116.394C226.668 116.039 226.388 115.764 226.024 115.568C225.67 115.363 225.273 115.26 224.834 115.26C224.405 115.26 224.013 115.363 223.658 115.568C223.304 115.773 223.024 116.053 222.818 116.408C222.613 116.763 222.51 117.155 222.51 117.584C222.51 118.013 222.613 118.405 222.818 118.76C223.024 119.115 223.304 119.395 223.658 119.6C224.013 119.805 224.405 119.908 224.834 119.908ZM230.366 114.168H231.668V115.204C231.855 114.849 232.111 114.569 232.438 114.364C232.765 114.149 233.129 114.042 233.53 114.042C233.763 114.042 233.978 114.07 234.174 114.126V115.316C233.95 115.241 233.726 115.204 233.502 115.204C232.979 115.204 232.541 115.386 232.186 115.75C231.841 116.105 231.668 116.571 231.668 117.15V121H230.366V114.168ZM242.297 114.028C242.904 114.028 243.464 114.187 243.977 114.504C244.49 114.821 244.892 115.255 245.181 115.806C245.48 116.347 245.629 116.94 245.629 117.584C245.629 118.228 245.48 118.825 245.181 119.376C244.892 119.917 244.49 120.347 243.977 120.664C243.464 120.981 242.904 121.14 242.297 121.14C241.709 121.14 241.191 121.009 240.743 120.748C240.304 120.487 239.959 120.113 239.707 119.628V123.786H238.405V114.168H239.707V115.54C239.959 115.055 240.304 114.681 240.743 114.42C241.191 114.159 241.709 114.028 242.297 114.028ZM242.031 115.26C241.592 115.26 241.196 115.363 240.841 115.568C240.486 115.764 240.206 116.039 240.001 116.394C239.805 116.749 239.707 117.145 239.707 117.584C239.707 118.023 239.805 118.419 240.001 118.774C240.206 119.129 240.486 119.409 240.841 119.614C241.196 119.81 241.592 119.908 242.031 119.908C242.46 119.908 242.852 119.805 243.207 119.6C243.562 119.395 243.842 119.115 244.047 118.76C244.252 118.405 244.355 118.013 244.355 117.584C244.355 117.155 244.252 116.763 244.047 116.408C243.842 116.053 243.562 115.773 243.207 115.568C242.852 115.363 242.46 115.26 242.031 115.26ZM250.195 114.028C250.848 114.028 251.441 114.187 251.973 114.504C252.514 114.812 252.939 115.241 253.247 115.792C253.564 116.333 253.723 116.935 253.723 117.598C253.723 118.251 253.564 118.849 253.247 119.39C252.939 119.931 252.514 120.361 251.973 120.678C251.441 120.986 250.848 121.14 250.195 121.14C249.541 121.14 248.944 120.986 248.403 120.678C247.861 120.361 247.432 119.931 247.115 119.39C246.807 118.849 246.653 118.251 246.653 117.598C246.653 116.935 246.807 116.333 247.115 115.792C247.432 115.241 247.857 114.812 248.389 114.504C248.93 114.187 249.532 114.028 250.195 114.028ZM250.195 115.26C249.775 115.26 249.387 115.363 249.033 115.568C248.687 115.773 248.412 116.058 248.207 116.422C248.001 116.777 247.899 117.169 247.899 117.598C247.899 118.027 248.001 118.419 248.207 118.774C248.412 119.119 248.687 119.395 249.033 119.6C249.387 119.805 249.775 119.908 250.195 119.908C250.605 119.908 250.983 119.805 251.329 119.6C251.683 119.395 251.963 119.119 252.169 118.774C252.374 118.419 252.477 118.027 252.477 117.598C252.477 117.169 252.374 116.777 252.169 116.422C251.963 116.058 251.683 115.773 251.329 115.568C250.983 115.363 250.605 115.26 250.195 115.26ZM254.247 114.168H255.633L257.257 119.068L259.021 114.168H260.057L261.835 119.068L263.459 114.168H264.845L262.367 121H261.317L259.539 116.1L257.761 121H256.725L254.247 114.168ZM268.897 121.14C268.244 121.14 267.651 120.986 267.119 120.678C266.587 120.361 266.163 119.927 265.845 119.376C265.537 118.825 265.383 118.219 265.383 117.556C265.383 116.912 265.537 116.324 265.845 115.792C266.153 115.251 266.573 114.826 267.105 114.518C267.647 114.201 268.239 114.042 268.883 114.042C269.49 114.042 270.041 114.187 270.535 114.476C271.039 114.765 271.436 115.162 271.725 115.666C272.024 116.17 272.173 116.735 272.173 117.36L272.159 117.864H266.629C266.685 118.508 266.919 119.031 267.329 119.432C267.74 119.824 268.267 120.02 268.911 120.02C269.397 120.02 269.817 119.908 270.171 119.684C270.526 119.46 270.745 119.166 270.829 118.802H272.103C271.982 119.511 271.623 120.081 271.025 120.51C270.437 120.93 269.728 121.14 268.897 121.14ZM270.801 116.87C270.755 116.366 270.545 115.955 270.171 115.638C269.807 115.311 269.359 115.148 268.827 115.148C268.286 115.148 267.824 115.302 267.441 115.61C267.059 115.909 266.807 116.329 266.685 116.87H270.801ZM273.624 114.168H274.926V115.204C275.113 114.849 275.369 114.569 275.696 114.364C276.023 114.149 276.387 114.042 276.788 114.042C277.021 114.042 277.236 114.07 277.432 114.126V115.316C277.208 115.241 276.984 115.204 276.76 115.204C276.237 115.204 275.799 115.386 275.444 115.75C275.099 116.105 274.926 116.571 274.926 117.15V121H273.624V114.168ZM285.555 114.028C286.162 114.028 286.722 114.187 287.235 114.504C287.748 114.821 288.15 115.255 288.439 115.806C288.738 116.347 288.887 116.94 288.887 117.584C288.887 118.228 288.738 118.825 288.439 119.376C288.15 119.917 287.748 120.347 287.235 120.664C286.722 120.981 286.162 121.14 285.555 121.14C284.967 121.14 284.449 121.009 284.001 120.748C283.562 120.487 283.217 120.113 282.965 119.628V123.786H281.663V114.168H282.965V115.54C283.217 115.055 283.562 114.681 284.001 114.42C284.449 114.159 284.967 114.028 285.555 114.028ZM285.289 115.26C284.85 115.26 284.454 115.363 284.099 115.568C283.744 115.764 283.464 116.039 283.259 116.394C283.063 116.749 282.965 117.145 282.965 117.584C282.965 118.023 283.063 118.419 283.259 118.774C283.464 119.129 283.744 119.409 284.099 119.614C284.454 119.81 284.85 119.908 285.289 119.908C285.718 119.908 286.11 119.805 286.465 119.6C286.82 119.395 287.1 119.115 287.305 118.76C287.51 118.405 287.613 118.013 287.613 117.584C287.613 117.155 287.51 116.763 287.305 116.408C287.1 116.053 286.82 115.773 286.465 115.568C286.11 115.363 285.718 115.26 285.289 115.26ZM290.345 111.2H291.647V121H290.345V111.2ZM300.32 121H299.032V119.6C298.78 120.095 298.43 120.477 297.982 120.748C297.543 121.009 297.025 121.14 296.428 121.14C295.821 121.14 295.261 120.981 294.748 120.664C294.244 120.347 293.842 119.917 293.544 119.376C293.254 118.825 293.11 118.228 293.11 117.584C293.11 116.94 293.254 116.347 293.544 115.806C293.842 115.255 294.244 114.821 294.748 114.504C295.261 114.187 295.821 114.028 296.428 114.028C297.025 114.028 297.543 114.163 297.982 114.434C298.43 114.695 298.78 115.073 299.032 115.568V114.168H300.32V121ZM296.694 119.908C297.132 119.908 297.529 119.81 297.884 119.614C298.248 119.409 298.528 119.129 298.724 118.774C298.929 118.419 299.032 118.023 299.032 117.584C299.032 117.145 298.929 116.749 298.724 116.394C298.528 116.039 298.248 115.764 297.884 115.568C297.529 115.363 297.132 115.26 296.694 115.26C296.264 115.26 295.872 115.363 295.518 115.568C295.163 115.773 294.883 116.053 294.678 116.408C294.472 116.763 294.37 117.155 294.37 117.584C294.37 118.013 294.472 118.405 294.678 118.76C294.883 119.115 295.163 119.395 295.518 119.6C295.872 119.805 296.264 119.908 296.694 119.908ZM303.527 115.358C303.742 114.938 304.036 114.611 304.409 114.378C304.792 114.145 305.226 114.028 305.711 114.028C306.589 114.028 307.284 114.303 307.797 114.854C308.311 115.405 308.567 116.151 308.567 117.094V121H307.279V117.234C307.279 116.637 307.111 116.161 306.775 115.806C306.439 115.442 305.987 115.26 305.417 115.26C304.848 115.26 304.391 115.442 304.045 115.806C303.7 116.161 303.527 116.637 303.527 117.234V121H302.225V114.168H303.527V115.358ZM313.163 121.084C312.426 121.084 311.842 120.869 311.413 120.44C310.984 120.011 310.769 119.39 310.769 118.578V115.4H309.439V114.168H310.769V112.32H312.057V114.168H313.905V115.4H312.057V118.55C312.057 119.007 312.178 119.343 312.421 119.558C312.664 119.763 313 119.866 313.429 119.866C313.625 119.866 313.784 119.847 313.905 119.81V121C313.7 121.056 313.452 121.084 313.163 121.084ZM323.617 117.234C323.617 116.637 323.449 116.161 323.113 115.806C322.777 115.442 322.325 115.26 321.755 115.26C321.186 115.26 320.729 115.442 320.383 115.806C320.038 116.161 319.865 116.637 319.865 117.234V121H318.563V111.2H319.865V115.358C320.08 114.938 320.374 114.611 320.747 114.378C321.13 114.145 321.564 114.028 322.049 114.028C322.927 114.028 323.622 114.303 324.135 114.854C324.649 115.405 324.905 116.151 324.905 117.094V121H323.617V117.234ZM329.792 121.14C329.138 121.14 328.546 120.986 328.014 120.678C327.482 120.361 327.057 119.927 326.74 119.376C326.432 118.825 326.278 118.219 326.278 117.556C326.278 116.912 326.432 116.324 326.74 115.792C327.048 115.251 327.468 114.826 328 114.518C328.541 114.201 329.134 114.042 329.778 114.042C330.384 114.042 330.935 114.187 331.43 114.476C331.934 114.765 332.33 115.162 332.62 115.666C332.918 116.17 333.068 116.735 333.068 117.36L333.054 117.864H327.524C327.58 118.508 327.813 119.031 328.224 119.432C328.634 119.824 329.162 120.02 329.806 120.02C330.291 120.02 330.711 119.908 331.066 119.684C331.42 119.46 331.64 119.166 331.724 118.802H332.998C332.876 119.511 332.517 120.081 331.92 120.51C331.332 120.93 330.622 121.14 329.792 121.14ZM331.696 116.87C331.649 116.366 331.439 115.955 331.066 115.638C330.702 115.311 330.254 115.148 329.722 115.148C329.18 115.148 328.718 115.302 328.336 115.61C327.953 115.909 327.701 116.329 327.58 116.87H331.696ZM334.518 111.2H335.82V121H334.518V111.2ZM341.61 114.028C342.216 114.028 342.776 114.187 343.29 114.504C343.803 114.821 344.204 115.255 344.494 115.806C344.792 116.347 344.942 116.94 344.942 117.584C344.942 118.228 344.792 118.825 344.494 119.376C344.204 119.917 343.803 120.347 343.29 120.664C342.776 120.981 342.216 121.14 341.61 121.14C341.022 121.14 340.504 121.009 340.056 120.748C339.617 120.487 339.272 120.113 339.02 119.628V123.786H337.718V114.168H339.02V115.54C339.272 115.055 339.617 114.681 340.056 114.42C340.504 114.159 341.022 114.028 341.61 114.028ZM341.344 115.26C340.905 115.26 340.508 115.363 340.154 115.568C339.799 115.764 339.519 116.039 339.314 116.394C339.118 116.749 339.02 117.145 339.02 117.584C339.02 118.023 339.118 118.419 339.314 118.774C339.519 119.129 339.799 119.409 340.154 119.614C340.508 119.81 340.905 119.908 341.344 119.908C341.773 119.908 342.165 119.805 342.52 119.6C342.874 119.395 343.154 119.115 343.36 118.76C343.565 118.405 343.668 118.013 343.668 117.584C343.668 117.155 343.565 116.763 343.36 116.408C343.154 116.053 342.874 115.773 342.52 115.568C342.165 115.363 341.773 115.26 341.344 115.26ZM348.723 121.14C347.921 121.14 347.267 120.944 346.763 120.552C346.259 120.151 345.975 119.6 345.909 118.9H347.169C347.207 119.227 347.37 119.488 347.659 119.684C347.949 119.88 348.308 119.978 348.737 119.978C349.148 119.978 349.465 119.899 349.689 119.74C349.923 119.581 350.039 119.371 350.039 119.11C350.039 118.905 349.969 118.737 349.829 118.606C349.689 118.475 349.517 118.377 349.311 118.312C349.106 118.237 348.817 118.158 348.443 118.074C347.93 117.953 347.515 117.831 347.197 117.71C346.889 117.589 346.623 117.397 346.399 117.136C346.175 116.865 346.063 116.501 346.063 116.044C346.063 115.652 346.171 115.307 346.385 115.008C346.6 114.7 346.899 114.462 347.281 114.294C347.664 114.117 348.098 114.028 348.583 114.028C349.293 114.028 349.899 114.21 350.403 114.574C350.907 114.938 351.201 115.442 351.285 116.086H349.983C349.946 115.815 349.797 115.601 349.535 115.442C349.274 115.274 348.952 115.19 348.569 115.19C348.187 115.19 347.883 115.26 347.659 115.4C347.445 115.54 347.337 115.741 347.337 116.002C347.337 116.273 347.459 116.473 347.701 116.604C347.953 116.725 348.35 116.851 348.891 116.982C349.414 117.113 349.834 117.243 350.151 117.374C350.478 117.495 350.758 117.696 350.991 117.976C351.225 118.247 351.341 118.62 351.341 119.096C351.341 119.479 351.225 119.829 350.991 120.146C350.767 120.454 350.455 120.697 350.053 120.874C349.652 121.051 349.209 121.14 348.723 121.14ZM207.312 140.87C206.789 140.87 206.276 140.786 205.772 140.618C205.268 140.45 204.843 140.184 204.498 139.82C204.162 139.456 203.985 138.994 203.966 138.434H205.24C205.259 138.845 205.459 139.171 205.842 139.414C206.234 139.666 206.71 139.792 207.27 139.792C207.905 139.792 208.427 139.61 208.838 139.246C209.249 138.882 209.454 138.406 209.454 137.818V136.502C209.202 136.987 208.852 137.361 208.404 137.622C207.965 137.883 207.452 138.014 206.864 138.014C206.257 138.014 205.697 137.86 205.184 137.552C204.671 137.235 204.265 136.81 203.966 136.278C203.677 135.746 203.532 135.163 203.532 134.528C203.532 133.884 203.677 133.296 203.966 132.764C204.265 132.223 204.671 131.798 205.184 131.49C205.697 131.182 206.257 131.028 206.864 131.028C207.452 131.028 207.965 131.159 208.404 131.42C208.852 131.681 209.202 132.055 209.454 132.54V131.168H210.756V137.776C210.756 138.401 210.607 138.947 210.308 139.414C210.019 139.881 209.613 140.24 209.09 140.492C208.567 140.744 207.975 140.87 207.312 140.87ZM207.13 136.824C207.569 136.824 207.965 136.726 208.32 136.53C208.675 136.325 208.95 136.049 209.146 135.704C209.351 135.349 209.454 134.957 209.454 134.528C209.454 134.089 209.351 133.693 209.146 133.338C208.95 132.983 208.675 132.708 208.32 132.512C207.965 132.316 207.569 132.218 207.13 132.218C206.701 132.218 206.309 132.321 205.954 132.526C205.599 132.731 205.319 133.011 205.114 133.366C204.909 133.711 204.806 134.099 204.806 134.528C204.806 134.948 204.909 135.335 205.114 135.69C205.319 136.035 205.599 136.311 205.954 136.516C206.309 136.721 206.701 136.824 207.13 136.824ZM215.727 138.14C215.074 138.14 214.481 137.986 213.949 137.678C213.417 137.361 212.993 136.927 212.675 136.376C212.367 135.825 212.213 135.219 212.213 134.556C212.213 133.912 212.367 133.324 212.675 132.792C212.983 132.251 213.403 131.826 213.935 131.518C214.477 131.201 215.069 131.042 215.713 131.042C216.32 131.042 216.871 131.187 217.365 131.476C217.869 131.765 218.266 132.162 218.555 132.666C218.854 133.17 219.003 133.735 219.003 134.36L218.989 134.864H213.459C213.515 135.508 213.749 136.031 214.159 136.432C214.57 136.824 215.097 137.02 215.741 137.02C216.227 137.02 216.647 136.908 217.001 136.684C217.356 136.46 217.575 136.166 217.659 135.802H218.933C218.812 136.511 218.453 137.081 217.855 137.51C217.267 137.93 216.558 138.14 215.727 138.14ZM217.631 133.87C217.585 133.366 217.375 132.955 217.001 132.638C216.637 132.311 216.189 132.148 215.657 132.148C215.116 132.148 214.654 132.302 214.271 132.61C213.889 132.909 213.637 133.329 213.515 133.87H217.631ZM221.756 132.358C221.971 131.938 222.265 131.611 222.638 131.378C223.021 131.145 223.455 131.028 223.94 131.028C224.817 131.028 225.513 131.303 226.026 131.854C226.539 132.405 226.796 133.151 226.796 134.094V138H225.508V134.234C225.508 133.637 225.34 133.161 225.004 132.806C224.668 132.442 224.215 132.26 223.646 132.26C223.077 132.26 222.619 132.442 222.274 132.806C221.929 133.161 221.756 133.637 221.756 134.234V138H220.454V131.168H221.756V132.358ZM231.682 138.14C231.029 138.14 230.436 137.986 229.904 137.678C229.372 137.361 228.948 136.927 228.63 136.376C228.322 135.825 228.168 135.219 228.168 134.556C228.168 133.912 228.322 133.324 228.63 132.792C228.938 132.251 229.358 131.826 229.89 131.518C230.432 131.201 231.024 131.042 231.668 131.042C232.275 131.042 232.826 131.187 233.32 131.476C233.824 131.765 234.221 132.162 234.51 132.666C234.809 133.17 234.958 133.735 234.958 134.36L234.944 134.864H229.414C229.47 135.508 229.704 136.031 230.114 136.432C230.525 136.824 231.052 137.02 231.696 137.02C232.182 137.02 232.602 136.908 232.956 136.684C233.311 136.46 233.53 136.166 233.614 135.802H234.888C234.767 136.511 234.408 137.081 233.81 137.51C233.222 137.93 232.513 138.14 231.682 138.14ZM233.586 133.87C233.54 133.366 233.33 132.955 232.956 132.638C232.592 132.311 232.144 132.148 231.612 132.148C231.071 132.148 230.609 132.302 230.226 132.61C229.844 132.909 229.592 133.329 229.47 133.87H233.586ZM236.409 131.168H237.711V132.204C237.898 131.849 238.154 131.569 238.481 131.364C238.808 131.149 239.172 131.042 239.573 131.042C239.806 131.042 240.021 131.07 240.217 131.126V132.316C239.993 132.241 239.769 132.204 239.545 132.204C239.022 132.204 238.584 132.386 238.229 132.75C237.884 133.105 237.711 133.571 237.711 134.15V138H236.409V131.168ZM247.806 138H246.518V136.6C246.266 137.095 245.916 137.477 245.468 137.748C245.029 138.009 244.511 138.14 243.914 138.14C243.307 138.14 242.747 137.981 242.234 137.664C241.73 137.347 241.329 136.917 241.03 136.376C240.741 135.825 240.596 135.228 240.596 134.584C240.596 133.94 240.741 133.347 241.03 132.806C241.329 132.255 241.73 131.821 242.234 131.504C242.747 131.187 243.307 131.028 243.914 131.028C244.511 131.028 245.029 131.163 245.468 131.434C245.916 131.695 246.266 132.073 246.518 132.568V131.168H247.806V138ZM244.18 136.908C244.619 136.908 245.015 136.81 245.37 136.614C245.734 136.409 246.014 136.129 246.21 135.774C246.415 135.419 246.518 135.023 246.518 134.584C246.518 134.145 246.415 133.749 246.21 133.394C246.014 133.039 245.734 132.764 245.37 132.568C245.015 132.363 244.619 132.26 244.18 132.26C243.751 132.26 243.359 132.363 243.004 132.568C242.649 132.773 242.369 133.053 242.164 133.408C241.959 133.763 241.856 134.155 241.856 134.584C241.856 135.013 241.959 135.405 242.164 135.76C242.369 136.115 242.649 136.395 243.004 136.6C243.359 136.805 243.751 136.908 244.18 136.908ZM252.638 138.084C251.9 138.084 251.317 137.869 250.888 137.44C250.458 137.011 250.244 136.39 250.244 135.578V132.4H248.914V131.168H250.244V129.32H251.532V131.168H253.38V132.4H251.532V135.55C251.532 136.007 251.653 136.343 251.896 136.558C252.138 136.763 252.474 136.866 252.904 136.866C253.1 136.866 253.258 136.847 253.38 136.81V138C253.174 138.056 252.927 138.084 252.638 138.084ZM257.591 138.14C256.937 138.14 256.345 137.986 255.813 137.678C255.281 137.361 254.856 136.927 254.539 136.376C254.231 135.825 254.077 135.219 254.077 134.556C254.077 133.912 254.231 133.324 254.539 132.792C254.847 132.251 255.267 131.826 255.799 131.518C256.34 131.201 256.933 131.042 257.577 131.042C258.183 131.042 258.734 131.187 259.229 131.476C259.733 131.765 260.129 132.162 260.419 132.666C260.717 133.17 260.867 133.735 260.867 134.36L260.853 134.864H255.323C255.379 135.508 255.612 136.031 256.023 136.432C256.433 136.824 256.961 137.02 257.605 137.02C258.09 137.02 258.51 136.908 258.865 136.684C259.219 136.46 259.439 136.166 259.523 135.802H260.797C260.675 136.511 260.316 137.081 259.719 137.51C259.131 137.93 258.421 138.14 257.591 138.14ZM259.495 133.87C259.448 133.366 259.238 132.955 258.865 132.638C258.501 132.311 258.053 132.148 257.521 132.148C256.979 132.148 256.517 132.302 256.135 132.61C255.752 132.909 255.5 133.329 255.379 133.87H259.495ZM268.747 138.14C268.094 138.14 267.497 137.986 266.955 137.678C266.423 137.361 265.999 136.931 265.681 136.39C265.373 135.849 265.219 135.251 265.219 134.598C265.219 133.935 265.373 133.333 265.681 132.792C265.999 132.241 266.423 131.812 266.955 131.504C267.497 131.187 268.094 131.028 268.747 131.028C269.27 131.028 269.765 131.135 270.231 131.35C270.698 131.565 271.081 131.863 271.379 132.246C271.687 132.629 271.879 133.053 271.953 133.52H270.637C270.544 133.156 270.315 132.857 269.951 132.624C269.597 132.381 269.195 132.26 268.747 132.26C268.327 132.26 267.945 132.363 267.599 132.568C267.254 132.773 266.979 133.053 266.773 133.408C266.577 133.763 266.479 134.159 266.479 134.598C266.479 135.027 266.577 135.419 266.773 135.774C266.979 136.119 267.254 136.395 267.599 136.6C267.945 136.805 268.327 136.908 268.747 136.908C269.205 136.908 269.611 136.787 269.965 136.544C270.329 136.292 270.558 135.975 270.651 135.592H271.967C271.902 136.077 271.715 136.516 271.407 136.908C271.099 137.291 270.712 137.594 270.245 137.818C269.779 138.033 269.279 138.14 268.747 138.14ZM273.378 128.2H274.68V138H273.378V128.2ZM279.657 138.14C279.004 138.14 278.411 137.986 277.879 137.678C277.347 137.361 276.922 136.927 276.605 136.376C276.297 135.825 276.143 135.219 276.143 134.556C276.143 133.912 276.297 133.324 276.605 132.792C276.913 132.251 277.333 131.826 277.865 131.518C278.406 131.201 278.999 131.042 279.643 131.042C280.25 131.042 280.8 131.187 281.295 131.476C281.799 131.765 282.196 132.162 282.485 132.666C282.784 133.17 282.933 133.735 282.933 134.36L282.919 134.864H277.389C277.445 135.508 277.678 136.031 278.089 136.432C278.5 136.824 279.027 137.02 279.671 137.02C280.156 137.02 280.576 136.908 280.931 136.684C281.286 136.46 281.505 136.166 281.589 135.802H282.863C282.742 136.511 282.382 137.081 281.785 137.51C281.197 137.93 280.488 138.14 279.657 138.14ZM281.561 133.87C281.514 133.366 281.304 132.955 280.931 132.638C280.567 132.311 280.119 132.148 279.587 132.148C279.046 132.148 278.584 132.302 278.201 132.61C277.818 132.909 277.566 133.329 277.445 133.87H281.561ZM291.16 138H289.872V136.6C289.62 137.095 289.27 137.477 288.822 137.748C288.383 138.009 287.865 138.14 287.268 138.14C286.661 138.14 286.101 137.981 285.588 137.664C285.084 137.347 284.682 136.917 284.384 136.376C284.094 135.825 283.95 135.228 283.95 134.584C283.95 133.94 284.094 133.347 284.384 132.806C284.682 132.255 285.084 131.821 285.588 131.504C286.101 131.187 286.661 131.028 287.268 131.028C287.865 131.028 288.383 131.163 288.822 131.434C289.27 131.695 289.62 132.073 289.872 132.568V131.168H291.16V138ZM287.534 136.908C287.972 136.908 288.369 136.81 288.724 136.614C289.088 136.409 289.368 136.129 289.564 135.774C289.769 135.419 289.872 135.023 289.872 134.584C289.872 134.145 289.769 133.749 289.564 133.394C289.368 133.039 289.088 132.764 288.724 132.568C288.369 132.363 287.972 132.26 287.534 132.26C287.104 132.26 286.712 132.363 286.358 132.568C286.003 132.773 285.723 133.053 285.518 133.408C285.312 133.763 285.21 134.155 285.21 134.584C285.21 135.013 285.312 135.405 285.518 135.76C285.723 136.115 286.003 136.395 286.358 136.6C286.712 136.805 287.104 136.908 287.534 136.908ZM294.367 132.358C294.582 131.938 294.876 131.611 295.249 131.378C295.632 131.145 296.066 131.028 296.551 131.028C297.429 131.028 298.124 131.303 298.637 131.854C299.151 132.405 299.407 133.151 299.407 134.094V138H298.119V134.234C298.119 133.637 297.951 133.161 297.615 132.806C297.279 132.442 296.827 132.26 296.257 132.26C295.688 132.26 295.231 132.442 294.885 132.806C294.54 133.161 294.367 133.637 294.367 134.234V138H293.065V131.168H294.367V132.358ZM307.63 138.14C306.976 138.14 306.384 137.986 305.852 137.678C305.32 137.361 304.895 136.927 304.578 136.376C304.27 135.825 304.116 135.219 304.116 134.556C304.116 133.912 304.27 133.324 304.578 132.792C304.886 132.251 305.306 131.826 305.838 131.518C306.379 131.201 306.972 131.042 307.616 131.042C308.222 131.042 308.773 131.187 309.268 131.476C309.772 131.765 310.168 132.162 310.458 132.666C310.756 133.17 310.906 133.735 310.906 134.36L310.892 134.864H305.362C305.418 135.508 305.651 136.031 306.062 136.432C306.472 136.824 307 137.02 307.644 137.02C308.129 137.02 308.549 136.908 308.904 136.684C309.258 136.46 309.478 136.166 309.562 135.802H310.836C310.714 136.511 310.355 137.081 309.758 137.51C309.17 137.93 308.46 138.14 307.63 138.14ZM309.534 133.87C309.487 133.366 309.277 132.955 308.904 132.638C308.54 132.311 308.092 132.148 307.56 132.148C307.018 132.148 306.556 132.302 306.174 132.61C305.791 132.909 305.539 133.329 305.418 133.87H309.534ZM313.658 132.358C313.873 131.938 314.167 131.611 314.54 131.378C314.923 131.145 315.357 131.028 315.842 131.028C316.72 131.028 317.415 131.303 317.928 131.854C318.442 132.405 318.698 133.151 318.698 134.094V138H317.41V134.234C317.41 133.637 317.242 133.161 316.906 132.806C316.57 132.442 316.118 132.26 315.548 132.26C314.979 132.26 314.522 132.442 314.176 132.806C313.831 133.161 313.658 133.637 313.658 134.234V138H312.356V131.168H313.658V132.358ZM323.585 138.14C322.931 138.14 322.339 137.986 321.807 137.678C321.275 137.361 320.85 136.927 320.533 136.376C320.225 135.825 320.071 135.219 320.071 134.556C320.071 133.912 320.225 133.324 320.533 132.792C320.841 132.251 321.261 131.826 321.793 131.518C322.334 131.201 322.927 131.042 323.571 131.042C324.177 131.042 324.728 131.187 325.223 131.476C325.727 131.765 326.123 132.162 326.413 132.666C326.711 133.17 326.861 133.735 326.861 134.36L326.847 134.864H321.317C321.373 135.508 321.606 136.031 322.017 136.432C322.427 136.824 322.955 137.02 323.599 137.02C324.084 137.02 324.504 136.908 324.859 136.684C325.213 136.46 325.433 136.166 325.517 135.802H326.791C326.669 136.511 326.31 137.081 325.713 137.51C325.125 137.93 324.415 138.14 323.585 138.14ZM325.489 133.87C325.442 133.366 325.232 132.955 324.859 132.638C324.495 132.311 324.047 132.148 323.515 132.148C322.973 132.148 322.511 132.302 322.129 132.61C321.746 132.909 321.494 133.329 321.373 133.87H325.489ZM328.311 131.168H329.613V132.204C329.8 131.849 330.057 131.569 330.383 131.364C330.71 131.149 331.074 131.042 331.475 131.042C331.709 131.042 331.923 131.07 332.119 131.126V132.316C331.895 132.241 331.671 132.204 331.447 132.204C330.925 132.204 330.486 132.386 330.131 132.75C329.786 133.105 329.613 133.571 329.613 134.15V138H328.311V131.168ZM336.292 140.87C335.77 140.87 335.256 140.786 334.752 140.618C334.248 140.45 333.824 140.184 333.478 139.82C333.142 139.456 332.965 138.994 332.946 138.434H334.22C334.239 138.845 334.44 139.171 334.822 139.414C335.214 139.666 335.69 139.792 336.25 139.792C336.885 139.792 337.408 139.61 337.818 139.246C338.229 138.882 338.434 138.406 338.434 137.818V136.502C338.182 136.987 337.832 137.361 337.384 137.622C336.946 137.883 336.432 138.014 335.844 138.014C335.238 138.014 334.678 137.86 334.164 137.552C333.651 137.235 333.245 136.81 332.946 136.278C332.657 135.746 332.512 135.163 332.512 134.528C332.512 133.884 332.657 133.296 332.946 132.764C333.245 132.223 333.651 131.798 334.164 131.49C334.678 131.182 335.238 131.028 335.844 131.028C336.432 131.028 336.946 131.159 337.384 131.42C337.832 131.681 338.182 132.055 338.434 132.54V131.168H339.736V137.776C339.736 138.401 339.587 138.947 339.288 139.414C338.999 139.881 338.593 140.24 338.07 140.492C337.548 140.744 336.955 140.87 336.292 140.87ZM336.11 136.824C336.549 136.824 336.946 136.726 337.3 136.53C337.655 136.325 337.93 136.049 338.126 135.704C338.332 135.349 338.434 134.957 338.434 134.528C338.434 134.089 338.332 133.693 338.126 133.338C337.93 132.983 337.655 132.708 337.3 132.512C336.946 132.316 336.549 132.218 336.11 132.218C335.681 132.218 335.289 132.321 334.934 132.526C334.58 132.731 334.3 133.011 334.094 133.366C333.889 133.711 333.786 134.099 333.786 134.528C333.786 134.948 333.889 135.335 334.094 135.69C334.3 136.035 334.58 136.311 334.934 136.516C335.289 136.721 335.681 136.824 336.11 136.824ZM343.602 137.762L340.844 131.168H342.23L344.26 136.264L346.304 131.168H347.69L343.658 140.8H342.272L343.602 137.762ZM348.508 138.14C348.237 138.14 348.008 138.051 347.822 137.874C347.644 137.687 347.556 137.463 347.556 137.202C347.556 136.941 347.649 136.721 347.836 136.544C348.022 136.357 348.246 136.264 348.508 136.264C348.778 136.264 349.002 136.357 349.18 136.544C349.366 136.721 349.46 136.941 349.46 137.202C349.46 137.473 349.366 137.697 349.18 137.874C349.002 138.051 348.778 138.14 348.508 138.14Z" fill="#4F6D5D"></path>
  <g clip-path="url(#clip0_1364_6016)">
    <path d="M117.531 74.9095C124.245 70.7872 125.487 63.8888 124.193 57.6289C122.427 48.9956 118.353 41.2922 114.629 33.1585C113.073 29.7579 110.87 23.97 105.485 23.4425C98.2469 22.7346 95.0998 30.7295 92.9144 34.7547C88.2462 43.3742 83.5956 52.5211 83.7704 62.0705C83.8578 67.0257 86.3055 71.842 91.3234 74.9234C98.9637 79.6148 109.874 79.6148 117.531 74.9234V74.9095Z" stroke="#4F6D5D" stroke-width="1.92016" stroke-linecap="round" stroke-linejoin="round"></path>
    <path d="M121.277 71.7332C122.326 72.913 123.602 73.9956 125.088 74.9117C132.729 79.6031 143.656 79.6031 151.296 74.9117C158.01 70.7754 159.251 63.891 157.958 57.6311C156.174 48.9977 152.118 41.2943 148.394 33.1468C146.838 29.7601 144.635 23.9582 139.25 23.4308C132.012 22.7229 128.865 30.7178 126.679 34.743C124.564 38.6433 122.466 42.6546 120.805 46.7631" stroke="#4F6D5D" stroke-width="1.92016" stroke-linecap="round" stroke-linejoin="round"></path>
    <path d="M87.7644 71.9672C86.8203 73.0498 85.6664 74.0353 84.2502 74.9097C76.6098 79.6012 65.7 79.6012 58.0421 74.9097C53.0243 71.8284 50.5766 67.012 50.4892 62.043C50.3143 52.5074 54.965 43.3605 59.6331 34.741C61.8186 30.7158 64.9657 22.721 72.2039 23.4288C77.5889 23.9563 79.7918 29.7581 81.3479 33.1448C83.3585 37.5587 85.4915 41.8476 87.2749 46.2198" stroke="#4F6D5D" stroke-width="1.92016" stroke-linecap="round" stroke-linejoin="round"></path>
    <path d="M104.445 36.4219V51.0791V83.8637" stroke="#4F6D5D" stroke-width="1.92016" stroke-linecap="round" stroke-linejoin="round"></path>
    <path d="M104.443 58.4199L95.4219 51.2578" stroke="#4F6D5D" stroke-width="1.92016" stroke-linecap="round" stroke-linejoin="round"></path>
    <path d="M103.604 71.4136L95.4219 64.9316" stroke="#4F6D5D" stroke-width="1.92016" stroke-linecap="round" stroke-linejoin="round"></path>
    <path d="M104.445 51.5918L113.467 44.4297" stroke="#4F6D5D" stroke-width="1.92016" stroke-linecap="round" stroke-linejoin="round"></path>
    <path d="M104.445 65.25L113.467 58.0879" stroke="#4F6D5D" stroke-width="1.92016" stroke-linecap="round" stroke-linejoin="round"></path>
    <path d="M70.9219 36.4219V51.0791V86.9173" stroke="#4F6D5D" stroke-width="1.92016" stroke-linecap="round" stroke-linejoin="round"></path>
    <path d="M70.9235 58.4195L62.8984 52.0625" stroke="#4F6D5D" stroke-width="1.92016" stroke-linecap="round" stroke-linejoin="round"></path>
    <path d="M70.6787 71.8953L62.8984 65.7188" stroke="#4F6D5D" stroke-width="1.92016" stroke-linecap="round" stroke-linejoin="round"></path>
    <path d="M70.9219 51.5925L78.5098 45.5547" stroke="#4F6D5D" stroke-width="1.92016" stroke-linecap="round" stroke-linejoin="round"></path>
    <path d="M70.9219 65.2507L78.5098 59.2129" stroke="#4F6D5D" stroke-width="1.92016" stroke-linecap="round" stroke-linejoin="round"></path>
    <path d="M137.953 36.4219V51.0791V86.9173" stroke="#4F6D5D" stroke-width="1.92016" stroke-linecap="round" stroke-linejoin="round"></path>
    <path d="M137.956 58.4238L130.578 52.5664" stroke="#4F6D5D" stroke-width="1.92016" stroke-linecap="round" stroke-linejoin="round"></path>
    <path d="M137.607 71.8182L130.578 66.2246" stroke="#4F6D5D" stroke-width="1.92016" stroke-linecap="round" stroke-linejoin="round"></path>
    <path d="M137.953 51.5925L145.559 45.5547" stroke="#4F6D5D" stroke-width="1.92016" stroke-linecap="round" stroke-linejoin="round"></path>
    <path d="M137.953 65.2507L145.559 59.2129" stroke="#4F6D5D" stroke-width="1.92016" stroke-linecap="round" stroke-linejoin="round"></path>
    <path d="M50.2422 91.565C57.7427 89.5802 77.2021 85.0137 104.442 85.0137C131.681 85.0137 151.141 89.5802 158.641 91.565" stroke="#4F6D5D" stroke-width="1.92016" stroke-linecap="round" stroke-linejoin="round"></path>
  </g>
  <defs>
    <clipPath id="clip0_1364_6016">
      <rect width="111.896" height="70.9545" fill="white" transform="translate(48.4922 22)"></rect>
    </clipPath>
  </defs>
</svg>
