<?xml version="1.0" encoding="UTF-8"?>
<svg xmlns="http://www.w3.org/2000/svg" width="326" height="188" viewBox="0 0 326 188" fill="none">
  <rect width="326" height="188" rx="20" fill="#D6E8BA"></rect>
  <path d="M139.109 76V71.9219L150.828 60.3438C152.109 59.0781 153.078 58.0625 153.734 57.2969C154.391 56.5312 154.922 55.7266 155.328 54.8828C155.75 54.0391 155.961 53.1875 155.961 52.3281C155.961 50.8906 155.438 49.7109 154.391 48.7891C153.344 47.8516 152.039 47.3828 150.477 47.3828C148.57 47.3828 147.078 47.9922 146 49.2109C144.922 50.4141 144.414 52.0469 144.477 54.1094H138.828C138.719 50.4844 139.773 47.5469 141.992 45.2969C144.211 43.0469 147.078 41.9219 150.594 41.9219C153.812 41.9219 156.469 42.8906 158.562 44.8281C160.672 46.75 161.727 49.2031 161.727 52.1875C161.727 54.1562 161.141 56.0625 159.969 57.9062C158.812 59.75 157.094 61.75 154.812 63.9062L148.18 70.5391H161.961V76H139.109ZM165.969 76V71.9219L177.688 60.3438C178.969 59.0781 179.938 58.0625 180.594 57.2969C181.25 56.5312 181.781 55.7266 182.188 54.8828C182.609 54.0391 182.82 53.1875 182.82 52.3281C182.82 50.8906 182.297 49.7109 181.25 48.7891C180.203 47.8516 178.898 47.3828 177.336 47.3828C175.43 47.3828 173.938 47.9922 172.859 49.2109C171.781 50.4141 171.273 52.0469 171.336 54.1094H165.688C165.578 50.4844 166.633 47.5469 168.852 45.2969C171.07 43.0469 173.938 41.9219 177.453 41.9219C180.672 41.9219 183.328 42.8906 185.422 44.8281C187.531 46.75 188.586 49.2031 188.586 52.1875C188.586 54.1562 188 56.0625 186.828 57.9062C185.672 59.75 183.953 61.75 181.672 63.9062L175.039 70.5391H188.82V76H165.969ZM197 76.4688C195.969 76.4688 195.094 76.1172 194.375 75.4141C193.672 74.7109 193.32 73.8516 193.32 72.8359C193.32 71.8047 193.672 70.9375 194.375 70.2344C195.094 69.5312 195.969 69.1797 197 69.1797C198.047 69.1797 198.922 69.5312 199.625 70.2344C200.344 70.9375 200.703 71.8047 200.703 72.8359C200.703 73.8516 200.344 74.7109 199.625 75.4141C198.922 76.1172 198.047 76.4688 197 76.4688ZM217.766 76.4688C215.141 76.4688 212.867 75.7578 210.945 74.3359C209.039 72.9141 207.586 70.9062 206.586 68.3125C205.602 65.7188 205.109 62.6797 205.109 59.1953C205.109 55.7109 205.602 52.6719 206.586 50.0781C207.586 47.4844 209.039 45.4766 210.945 44.0547C212.867 42.6328 215.141 41.9219 217.766 41.9219C221.734 41.9219 224.844 43.4844 227.094 46.6094C229.359 49.7188 230.492 53.9141 230.492 59.1953C230.492 64.4766 229.359 68.6797 227.094 71.8047C224.844 74.9141 221.734 76.4688 217.766 76.4688ZM217.766 71.0078C219.984 71.0078 221.695 70.0078 222.898 68.0078C224.117 66.0078 224.727 63.0703 224.727 59.1953C224.727 55.3203 224.117 52.3828 222.898 50.3828C221.695 48.3828 219.984 47.3828 217.766 47.3828C215.578 47.3828 213.883 48.3828 212.68 50.3828C211.477 52.3828 210.875 55.3203 210.875 59.1953C210.875 63.0703 211.477 66.0078 212.68 68.0078C213.883 70.0078 215.578 71.0078 217.766 71.0078ZM240.359 56.3594L248.234 47.7812H233.656V42.3906H256.156V46.1406L247.18 55.7031C249.805 55.6719 252.008 56.5703 253.789 58.3984C255.57 60.2109 256.461 62.4766 256.461 65.1953C256.461 68.4766 255.336 71.1797 253.086 73.3047C250.836 75.4141 247.977 76.4688 244.508 76.4688C241.32 76.4688 238.625 75.5703 236.422 73.7734C234.234 71.9609 233.008 69.6172 232.742 66.7422H238.344C238.594 67.9766 239.266 69 240.359 69.8125C241.453 70.6094 242.836 71.0078 244.508 71.0078C246.32 71.0078 247.805 70.4531 248.961 69.3438C250.117 68.2344 250.695 66.8047 250.695 65.0547C250.695 63.9297 250.406 62.9531 249.828 62.125C249.266 61.2812 248.508 60.6641 247.555 60.2734C246.602 59.8828 245.5 59.6484 244.25 59.5703C243.016 59.4922 241.719 59.6562 240.359 60.0625V56.3594ZM272.68 49.0234C272.68 51.0859 272.023 52.8047 270.711 54.1797C269.414 55.5391 267.781 56.2188 265.812 56.2188C263.828 56.2188 262.188 55.5391 260.891 54.1797C259.594 52.8047 258.945 51.0859 258.945 49.0234C258.945 46.9766 259.594 45.2812 260.891 43.9375C262.188 42.5938 263.828 41.9219 265.812 41.9219C267.781 41.9219 269.414 42.6016 270.711 43.9609C272.023 45.3047 272.68 46.9922 272.68 49.0234ZM282.711 42.3906H287.023L264.711 76H260.375L282.711 42.3906ZM269.07 49.0234C269.07 47.9297 268.773 47.0312 268.18 46.3281C267.586 45.625 266.797 45.2734 265.812 45.2734C264.797 45.2734 263.984 45.625 263.375 46.3281C262.781 47.0312 262.484 47.9297 262.484 49.0234C262.484 50.1484 262.781 51.0625 263.375 51.7656C263.984 52.4688 264.797 52.8203 265.812 52.8203C266.812 52.8203 267.602 52.4688 268.18 51.7656C268.773 51.0625 269.07 50.1484 269.07 49.0234ZM288.453 69.2734C288.453 71.3516 287.797 73.0703 286.484 74.4297C285.188 75.7891 283.539 76.4688 281.539 76.4688C279.57 76.4688 277.938 75.7891 276.641 74.4297C275.344 73.0703 274.695 71.3516 274.695 69.2734C274.695 67.2266 275.344 65.5312 276.641 64.1875C277.938 62.8438 279.57 62.1719 281.539 62.1719C283.523 62.1719 285.172 62.8438 286.484 64.1875C287.797 65.5312 288.453 67.2266 288.453 69.2734ZM284.867 69.2734C284.867 68.1797 284.562 67.2969 283.953 66.625C283.344 65.9375 282.539 65.5938 281.539 65.5938C280.539 65.5938 279.734 65.9375 279.125 66.625C278.531 67.2969 278.234 68.1797 278.234 69.2734C278.234 70.3828 278.531 71.2969 279.125 72.0156C279.734 72.7188 280.539 73.0703 281.539 73.0703C282.539 73.0703 283.344 72.7188 283.953 72.0156C284.562 71.2969 284.867 70.3828 284.867 69.2734Z" fill="#4F6D5D"></path>
  <path d="M142.477 98.1673C141.553 98.1673 140.713 97.948 139.957 97.5093C139.211 97.0613 138.623 96.4547 138.193 95.6893C137.764 94.9147 137.549 94.056 137.549 93.1133C137.549 92.1707 137.764 91.3167 138.193 90.5513C138.623 89.786 139.211 89.184 139.957 88.7453C140.713 88.3067 141.553 88.0873 142.477 88.0873C143.224 88.0873 143.924 88.2367 144.577 88.5353C145.231 88.834 145.777 89.2493 146.215 89.7813C146.654 90.304 146.925 90.8967 147.027 91.5593H145.221C145.063 91.0087 144.727 90.5607 144.213 90.2153C143.709 89.8607 143.131 89.6833 142.477 89.6833C141.871 89.6833 141.32 89.8327 140.825 90.1313C140.331 90.43 139.939 90.8453 139.649 91.3773C139.369 91.9 139.229 92.4787 139.229 93.1133C139.229 93.7573 139.369 94.3453 139.649 94.8773C139.939 95.4 140.331 95.8153 140.825 96.1233C141.32 96.422 141.871 96.5713 142.477 96.5713C143.14 96.5713 143.723 96.3893 144.227 96.0253C144.741 95.652 145.072 95.1667 145.221 94.5693H147.055C146.925 95.2693 146.645 95.8947 146.215 96.4453C145.786 96.9867 145.245 97.4113 144.591 97.7193C143.947 98.018 143.243 98.1673 142.477 98.1673ZM152.965 88.0873C153.898 88.0873 154.743 88.3067 155.499 88.7453C156.264 89.184 156.861 89.786 157.291 90.5513C157.729 91.3167 157.949 92.1707 157.949 93.1133C157.949 94.056 157.729 94.9147 157.291 95.6893C156.861 96.4547 156.264 97.0613 155.499 97.5093C154.743 97.948 153.898 98.1673 152.965 98.1673C152.041 98.1673 151.196 97.948 150.431 97.5093C149.675 97.0613 149.077 96.4547 148.639 95.6893C148.209 94.9147 147.995 94.056 147.995 93.1133C147.995 92.18 148.209 91.3307 148.639 90.5653C149.077 89.7907 149.675 89.184 150.431 88.7453C151.196 88.3067 152.041 88.0873 152.965 88.0873ZM152.965 89.6833C152.349 89.6833 151.789 89.8327 151.285 90.1313C150.79 90.43 150.398 90.8453 150.109 91.3773C149.819 91.9 149.675 92.4787 149.675 93.1133C149.675 93.7573 149.819 94.3453 150.109 94.8773C150.398 95.4 150.79 95.8153 151.285 96.1233C151.789 96.422 152.349 96.5713 152.965 96.5713C153.581 96.5713 154.141 96.422 154.645 96.1233C155.149 95.8153 155.545 95.4 155.835 94.8773C156.124 94.3453 156.269 93.7573 156.269 93.1133C156.269 92.4693 156.124 91.886 155.835 91.3633C155.545 90.8407 155.149 90.43 154.645 90.1313C154.141 89.8327 153.581 89.6833 152.965 89.6833ZM159.057 96.8373L162.473 93.4633C163.023 92.922 163.411 92.488 163.635 92.1613C163.859 91.8347 163.971 91.4987 163.971 91.1533C163.971 90.724 163.821 90.374 163.523 90.1033C163.233 89.8233 162.86 89.6833 162.403 89.6833C161.843 89.6833 161.399 89.8607 161.073 90.2153C160.755 90.57 160.606 91.046 160.625 91.6433H158.973C158.954 90.9433 159.085 90.3227 159.365 89.7813C159.654 89.24 160.065 88.8247 160.597 88.5353C161.129 88.2367 161.731 88.0873 162.403 88.0873C163.019 88.0873 163.574 88.218 164.069 88.4793C164.563 88.7313 164.951 89.086 165.231 89.5433C165.511 89.9913 165.651 90.5047 165.651 91.0833C165.651 91.6527 165.478 92.208 165.133 92.7493C164.797 93.2907 164.297 93.874 163.635 94.4993L161.703 96.4313H165.721V98.0273H159.057V96.8373ZM173.575 98.1673C172.912 98.1673 172.31 98.0133 171.769 97.7053C171.227 97.388 170.798 96.954 170.481 96.4033C170.173 95.8527 170.019 95.246 170.019 94.5833C170.019 93.93 170.173 93.3327 170.481 92.7913C170.798 92.25 171.223 91.8253 171.755 91.5173C172.296 91.2 172.893 91.0413 173.547 91.0413C174.153 91.0413 174.709 91.1907 175.213 91.4893C175.726 91.7787 176.132 92.18 176.431 92.6933C176.729 93.1973 176.879 93.762 176.879 94.3873L176.851 94.9753H171.489C171.563 95.5353 171.787 95.988 172.161 96.3333C172.534 96.6693 173.001 96.8373 173.561 96.8373C173.999 96.8373 174.373 96.7393 174.681 96.5433C174.998 96.3473 175.189 96.0907 175.255 95.7733H176.795C176.673 96.5013 176.319 97.0847 175.731 97.5233C175.143 97.9527 174.424 98.1673 173.575 98.1673ZM175.227 93.8413C175.18 93.412 174.993 93.0573 174.667 92.7773C174.34 92.4973 173.948 92.3573 173.491 92.3573C173.015 92.3573 172.604 92.488 172.259 92.7493C171.923 93.0013 171.694 93.3653 171.573 93.8413H175.227ZM188.942 98.0273H187.36V94.1913C187.36 93.678 187.225 93.2767 186.954 92.9873C186.693 92.6887 186.333 92.5393 185.876 92.5393C185.456 92.5393 185.097 92.6793 184.798 92.9593C184.499 93.2393 184.35 93.65 184.35 94.1913V98.0273H182.782V94.1913C182.782 93.678 182.647 93.2767 182.376 92.9873C182.115 92.6887 181.751 92.5393 181.284 92.5393C180.864 92.5393 180.505 92.6793 180.206 92.9593C179.907 93.23 179.758 93.6407 179.758 94.1913V98.0273H178.204V91.1813H179.758V92.1473C179.991 91.7553 180.295 91.4753 180.668 91.3073C181.041 91.13 181.433 91.0413 181.844 91.0413C182.843 91.0413 183.547 91.4427 183.958 92.2453C184.154 91.872 184.448 91.578 184.84 91.3633C185.241 91.1487 185.675 91.0413 186.142 91.0413C186.973 91.0413 187.645 91.298 188.158 91.8113C188.681 92.3153 188.942 92.992 188.942 93.8413V98.0273ZM192.131 91.1813V98.0273H190.577V91.1813H192.131ZM191.361 90.0053C191.09 90.0053 190.852 89.9073 190.647 89.7113C190.451 89.5153 190.353 89.282 190.353 89.0113C190.353 88.7407 190.451 88.5073 190.647 88.3113C190.852 88.106 191.09 88.0033 191.361 88.0033C191.641 88.0033 191.879 88.106 192.075 88.3113C192.271 88.5073 192.369 88.7407 192.369 89.0113C192.369 89.282 192.271 89.5153 192.075 89.7113C191.879 89.9073 191.641 90.0053 191.361 90.0053ZM196.378 98.1673C195.538 98.1673 194.852 97.962 194.32 97.5513C193.788 97.1313 193.489 96.5573 193.424 95.8293H194.936C194.964 96.1187 195.109 96.352 195.37 96.5293C195.631 96.6973 195.958 96.7813 196.35 96.7813C196.714 96.7813 196.994 96.716 197.19 96.5853C197.395 96.4453 197.498 96.268 197.498 96.0533C197.498 95.8013 197.377 95.6193 197.134 95.5073C196.891 95.386 196.518 95.274 196.014 95.1713C195.51 95.0687 195.095 94.9613 194.768 94.8493C194.441 94.728 194.161 94.532 193.928 94.2613C193.695 93.9907 193.578 93.622 193.578 93.1553C193.578 92.754 193.685 92.3947 193.9 92.0773C194.115 91.7507 194.418 91.4987 194.81 91.3213C195.211 91.1347 195.669 91.0413 196.182 91.0413C196.919 91.0413 197.549 91.2327 198.072 91.6153C198.604 91.9887 198.912 92.516 198.996 93.1973H197.414C197.386 92.9547 197.255 92.7633 197.022 92.6233C196.798 92.474 196.509 92.3993 196.154 92.3993C195.827 92.3993 195.571 92.46 195.384 92.5813C195.197 92.6933 195.104 92.8567 195.104 93.0713C195.104 93.3047 195.216 93.4727 195.44 93.5753C195.673 93.678 196.037 93.7853 196.532 93.8973C197.055 94.0093 197.484 94.1307 197.82 94.2613C198.156 94.392 198.445 94.602 198.688 94.8913C198.931 95.1713 199.052 95.5587 199.052 96.0533C199.052 96.4453 198.935 96.8047 198.702 97.1313C198.469 97.4487 198.147 97.7007 197.736 97.8873C197.325 98.074 196.873 98.1673 196.378 98.1673ZM202.899 98.1673C202.059 98.1673 201.373 97.962 200.841 97.5513C200.309 97.1313 200.011 96.5573 199.945 95.8293H201.457C201.485 96.1187 201.63 96.352 201.891 96.5293C202.153 96.6973 202.479 96.7813 202.871 96.7813C203.235 96.7813 203.515 96.716 203.711 96.5853C203.917 96.4453 204.019 96.268 204.019 96.0533C204.019 95.8013 203.898 95.6193 203.655 95.5073C203.413 95.386 203.039 95.274 202.535 95.1713C202.031 95.0687 201.616 94.9613 201.289 94.8493C200.963 94.728 200.683 94.532 200.449 94.2613C200.216 93.9907 200.099 93.622 200.099 93.1553C200.099 92.754 200.207 92.3947 200.421 92.0773C200.636 91.7507 200.939 91.4987 201.331 91.3213C201.733 91.1347 202.19 91.0413 202.703 91.0413C203.441 91.0413 204.071 91.2327 204.593 91.6153C205.125 91.9887 205.433 92.516 205.517 93.1973H203.935C203.907 92.9547 203.777 92.7633 203.543 92.6233C203.319 92.474 203.03 92.3993 202.675 92.3993C202.349 92.3993 202.092 92.46 201.905 92.5813C201.719 92.6933 201.625 92.8567 201.625 93.0713C201.625 93.3047 201.737 93.4727 201.961 93.5753C202.195 93.678 202.559 93.7853 203.053 93.8973C203.576 94.0093 204.005 94.1307 204.341 94.2613C204.677 94.392 204.967 94.602 205.209 94.8913C205.452 95.1713 205.573 95.5587 205.573 96.0533C205.573 96.4453 205.457 96.8047 205.223 97.1313C204.99 97.4487 204.668 97.7007 204.257 97.8873C203.847 98.074 203.394 98.1673 202.899 98.1673ZM208.469 91.1813V98.0273H206.915V91.1813H208.469ZM207.699 90.0053C207.428 90.0053 207.19 89.9073 206.985 89.7113C206.789 89.5153 206.691 89.282 206.691 89.0113C206.691 88.7407 206.789 88.5073 206.985 88.3113C207.19 88.106 207.428 88.0033 207.699 88.0033C207.979 88.0033 208.217 88.106 208.413 88.3113C208.609 88.5073 208.707 88.7407 208.707 89.0113C208.707 89.282 208.609 89.5153 208.413 89.7113C208.217 89.9073 207.979 90.0053 207.699 90.0053ZM213.36 91.0413C214.013 91.0413 214.61 91.2 215.152 91.5173C215.693 91.8253 216.118 92.2547 216.426 92.8053C216.743 93.3467 216.902 93.9487 216.902 94.6113C216.902 95.274 216.743 95.876 216.426 96.4173C216.118 96.9587 215.693 97.388 215.152 97.7053C214.61 98.0133 214.013 98.1673 213.36 98.1673C212.697 98.1673 212.095 98.0133 211.554 97.7053C211.012 97.388 210.583 96.9587 210.266 96.4173C209.958 95.876 209.804 95.274 209.804 94.6113C209.804 93.9487 209.958 93.3467 210.266 92.8053C210.583 92.2547 211.012 91.8253 211.554 91.5173C212.095 91.2 212.697 91.0413 213.36 91.0413ZM213.36 92.5253C212.986 92.5253 212.641 92.6187 212.324 92.8053C212.016 92.9827 211.768 93.2347 211.582 93.5613C211.404 93.8787 211.316 94.2287 211.316 94.6113C211.316 94.994 211.404 95.344 211.582 95.6613C211.768 95.9693 212.016 96.2167 212.324 96.4033C212.641 96.5807 212.986 96.6693 213.36 96.6693C213.733 96.6693 214.074 96.5807 214.382 96.4033C214.69 96.2167 214.932 95.9693 215.11 95.6613C215.296 95.344 215.39 94.994 215.39 94.6113C215.39 94.2287 215.296 93.8787 215.11 93.5613C214.932 93.2347 214.685 92.9827 214.368 92.8053C214.06 92.6187 213.724 92.5253 213.36 92.5253ZM219.803 92.2593C220.018 91.8673 220.302 91.5687 220.657 91.3633C221.021 91.1487 221.427 91.0413 221.875 91.0413C222.752 91.0413 223.443 91.3167 223.947 91.8673C224.46 92.418 224.717 93.1693 224.717 94.1213V98.0273H223.149V94.3173C223.149 93.776 222.995 93.3467 222.687 93.0293C222.388 92.7027 221.992 92.5393 221.497 92.5393C220.984 92.5393 220.573 92.7027 220.265 93.0293C219.957 93.3467 219.803 93.776 219.803 94.3173V98.0273H218.249V91.1813H219.803V92.2593ZM137.899 108.181H139.453V109.133C139.649 108.797 139.906 108.531 140.223 108.335C140.55 108.139 140.909 108.041 141.301 108.041C141.451 108.041 141.665 108.069 141.945 108.125V109.553C141.684 109.488 141.455 109.455 141.259 109.455C140.746 109.455 140.317 109.628 139.971 109.973C139.626 110.309 139.453 110.776 139.453 111.373V115.027H137.899V108.181ZM145.834 115.167C145.172 115.167 144.57 115.013 144.028 114.705C143.487 114.388 143.058 113.954 142.74 113.403C142.432 112.853 142.278 112.246 142.278 111.583C142.278 110.93 142.432 110.333 142.74 109.791C143.058 109.25 143.482 108.825 144.014 108.517C144.556 108.2 145.153 108.041 145.806 108.041C146.413 108.041 146.968 108.191 147.472 108.489C147.986 108.779 148.392 109.18 148.69 109.693C148.989 110.197 149.138 110.762 149.138 111.387L149.11 111.975H143.748C143.823 112.535 144.047 112.988 144.42 113.333C144.794 113.669 145.26 113.837 145.82 113.837C146.259 113.837 146.632 113.739 146.94 113.543C147.258 113.347 147.449 113.091 147.514 112.773H149.054C148.933 113.501 148.578 114.085 147.99 114.523C147.402 114.953 146.684 115.167 145.834 115.167ZM147.486 110.841C147.44 110.412 147.253 110.057 146.926 109.777C146.6 109.497 146.208 109.357 145.75 109.357C145.274 109.357 144.864 109.488 144.518 109.749C144.182 110.001 143.954 110.365 143.832 110.841H147.486ZM153.334 115.167C152.736 115.167 152.186 115.009 151.682 114.691C151.187 114.374 150.795 113.94 150.506 113.389C150.216 112.839 150.072 112.241 150.072 111.597C150.072 110.953 150.216 110.361 150.506 109.819C150.795 109.269 151.187 108.835 151.682 108.517C152.186 108.2 152.736 108.041 153.334 108.041C153.884 108.041 154.365 108.163 154.776 108.405C155.186 108.639 155.518 108.975 155.77 109.413V105.227H157.324V115.027H155.77V113.795C155.518 114.234 155.186 114.575 154.776 114.817C154.365 115.051 153.884 115.167 153.334 115.167ZM153.67 113.683C154.062 113.683 154.416 113.595 154.734 113.417C155.06 113.231 155.312 112.979 155.49 112.661C155.676 112.344 155.77 111.989 155.77 111.597C155.77 111.215 155.676 110.865 155.49 110.547C155.312 110.23 155.06 109.983 154.734 109.805C154.416 109.619 154.062 109.525 153.67 109.525C153.287 109.525 152.937 109.619 152.62 109.805C152.302 109.992 152.05 110.244 151.864 110.561C151.686 110.879 151.598 111.224 151.598 111.597C151.598 111.98 151.686 112.33 151.864 112.647C152.05 112.965 152.302 113.217 152.62 113.403C152.937 113.59 153.287 113.683 153.67 113.683ZM163.865 113.949C163.641 114.341 163.352 114.645 162.997 114.859C162.652 115.065 162.255 115.167 161.807 115.167C160.921 115.167 160.221 114.892 159.707 114.341C159.203 113.791 158.951 113.035 158.951 112.073V108.181H160.519V111.891C160.519 112.433 160.669 112.867 160.967 113.193C161.275 113.511 161.681 113.669 162.185 113.669C162.689 113.669 163.095 113.511 163.403 113.193C163.711 112.867 163.865 112.433 163.865 111.891V108.181H165.433V115.027H163.865V113.949ZM170.293 115.167C169.63 115.167 169.028 115.013 168.487 114.705C167.955 114.397 167.53 113.973 167.213 113.431C166.905 112.881 166.751 112.274 166.751 111.611C166.751 110.949 166.905 110.347 167.213 109.805C167.53 109.255 167.955 108.825 168.487 108.517C169.028 108.2 169.63 108.041 170.293 108.041C170.834 108.041 171.343 108.153 171.819 108.377C172.295 108.601 172.687 108.914 172.995 109.315C173.312 109.707 173.504 110.146 173.569 110.631H171.973C171.889 110.314 171.688 110.053 171.371 109.847C171.054 109.642 170.694 109.539 170.293 109.539C169.92 109.539 169.579 109.633 169.271 109.819C168.972 109.997 168.734 110.244 168.557 110.561C168.38 110.879 168.291 111.229 168.291 111.611C168.291 111.994 168.38 112.344 168.557 112.661C168.734 112.969 168.972 113.217 169.271 113.403C169.579 113.581 169.92 113.669 170.293 113.669C170.694 113.669 171.054 113.562 171.371 113.347C171.698 113.133 171.903 112.857 171.987 112.521H173.569C173.513 113.025 173.331 113.483 173.023 113.893C172.715 114.295 172.318 114.607 171.833 114.831C171.357 115.055 170.844 115.167 170.293 115.167ZM177.88 115.111C177.106 115.111 176.49 114.883 176.032 114.425C175.584 113.959 175.36 113.301 175.36 112.451V109.665H174.058V108.181H175.36V106.347H176.928V108.181H178.72V109.665H176.928V112.423C176.928 112.843 177.04 113.151 177.264 113.347C177.498 113.543 177.815 113.641 178.216 113.641C178.412 113.641 178.58 113.623 178.72 113.585V115.027C178.487 115.083 178.207 115.111 177.88 115.111ZM181.508 108.181V115.027H179.954V108.181H181.508ZM180.738 107.005C180.467 107.005 180.229 106.907 180.024 106.711C179.828 106.515 179.73 106.282 179.73 106.011C179.73 105.741 179.828 105.507 180.024 105.311C180.229 105.106 180.467 105.003 180.738 105.003C181.018 105.003 181.256 105.106 181.452 105.311C181.648 105.507 181.746 105.741 181.746 106.011C181.746 106.282 181.648 106.515 181.452 106.711C181.256 106.907 181.018 107.005 180.738 107.005ZM186.399 108.041C187.052 108.041 187.65 108.2 188.191 108.517C188.732 108.825 189.157 109.255 189.465 109.805C189.782 110.347 189.941 110.949 189.941 111.611C189.941 112.274 189.782 112.876 189.465 113.417C189.157 113.959 188.732 114.388 188.191 114.705C187.65 115.013 187.052 115.167 186.399 115.167C185.736 115.167 185.134 115.013 184.593 114.705C184.052 114.388 183.622 113.959 183.305 113.417C182.997 112.876 182.843 112.274 182.843 111.611C182.843 110.949 182.997 110.347 183.305 109.805C183.622 109.255 184.052 108.825 184.593 108.517C185.134 108.2 185.736 108.041 186.399 108.041ZM186.399 109.525C186.026 109.525 185.68 109.619 185.363 109.805C185.055 109.983 184.808 110.235 184.621 110.561C184.444 110.879 184.355 111.229 184.355 111.611C184.355 111.994 184.444 112.344 184.621 112.661C184.808 112.969 185.055 113.217 185.363 113.403C185.68 113.581 186.026 113.669 186.399 113.669C186.772 113.669 187.113 113.581 187.421 113.403C187.729 113.217 187.972 112.969 188.149 112.661C188.336 112.344 188.429 111.994 188.429 111.611C188.429 111.229 188.336 110.879 188.149 110.561C187.972 110.235 187.724 109.983 187.407 109.805C187.099 109.619 186.763 109.525 186.399 109.525ZM192.842 109.259C193.057 108.867 193.341 108.569 193.696 108.363C194.06 108.149 194.466 108.041 194.914 108.041C195.791 108.041 196.482 108.317 196.986 108.867C197.499 109.418 197.756 110.169 197.756 111.121V115.027H196.188V111.317C196.188 110.776 196.034 110.347 195.726 110.029C195.427 109.703 195.031 109.539 194.536 109.539C194.023 109.539 193.612 109.703 193.304 110.029C192.996 110.347 192.842 110.776 192.842 111.317V115.027H191.288V108.181H192.842V109.259ZM202.636 108.181H204.19V109.133C204.386 108.797 204.642 108.531 204.96 108.335C205.286 108.139 205.646 108.041 206.038 108.041C206.187 108.041 206.402 108.069 206.682 108.125V109.553C206.42 109.488 206.192 109.455 205.996 109.455C205.482 109.455 205.053 109.628 204.708 109.973C204.362 110.309 204.19 110.776 204.19 111.373V115.027H202.636V108.181ZM214.281 115.027H212.713V113.823C212.461 114.253 212.129 114.584 211.719 114.817C211.308 115.051 210.832 115.167 210.291 115.167C209.693 115.167 209.143 115.009 208.639 114.691C208.135 114.374 207.738 113.945 207.449 113.403C207.159 112.853 207.015 112.251 207.015 111.597C207.015 110.953 207.159 110.361 207.449 109.819C207.738 109.269 208.135 108.835 208.639 108.517C209.143 108.2 209.693 108.041 210.291 108.041C210.832 108.041 211.308 108.158 211.719 108.391C212.129 108.625 212.461 108.956 212.713 109.385V108.181H214.281V115.027ZM210.627 113.683C211.019 113.683 211.373 113.595 211.691 113.417C212.008 113.231 212.255 112.979 212.433 112.661C212.619 112.344 212.713 111.989 212.713 111.597C212.713 111.215 212.619 110.865 212.433 110.547C212.255 110.23 212.008 109.983 211.691 109.805C211.373 109.619 211.019 109.525 210.627 109.525C210.244 109.525 209.894 109.619 209.577 109.805C209.259 109.992 209.007 110.244 208.821 110.561C208.643 110.879 208.555 111.224 208.555 111.597C208.555 111.98 208.643 112.33 208.821 112.647C209.007 112.965 209.259 113.217 209.577 113.403C209.894 113.59 210.244 113.683 210.627 113.683ZM219.128 115.111C218.354 115.111 217.738 114.883 217.28 114.425C216.832 113.959 216.608 113.301 216.608 112.451V109.665H215.306V108.181H216.608V106.347H218.176V108.181H219.968V109.665H218.176V112.423C218.176 112.843 218.288 113.151 218.512 113.347C218.746 113.543 219.063 113.641 219.464 113.641C219.66 113.641 219.828 113.623 219.968 113.585V115.027C219.735 115.083 219.455 115.111 219.128 115.111ZM224.174 115.167C223.512 115.167 222.91 115.013 222.368 114.705C221.827 114.388 221.398 113.954 221.08 113.403C220.772 112.853 220.618 112.246 220.618 111.583C220.618 110.93 220.772 110.333 221.08 109.791C221.398 109.25 221.822 108.825 222.354 108.517C222.896 108.2 223.493 108.041 224.146 108.041C224.753 108.041 225.308 108.191 225.812 108.489C226.326 108.779 226.732 109.18 227.03 109.693C227.329 110.197 227.478 110.762 227.478 111.387L227.45 111.975H222.088C222.163 112.535 222.387 112.988 222.76 113.333C223.134 113.669 223.6 113.837 224.16 113.837C224.599 113.837 224.972 113.739 225.28 113.543C225.598 113.347 225.789 113.091 225.854 112.773H227.394C227.273 113.501 226.918 114.085 226.33 114.523C225.742 114.953 225.024 115.167 224.174 115.167ZM225.826 110.841C225.78 110.412 225.593 110.057 225.266 109.777C224.94 109.497 224.548 109.357 224.09 109.357C223.614 109.357 223.204 109.488 222.858 109.749C222.522 110.001 222.294 110.365 222.172 110.841H225.826ZM232.674 107.621C232.674 106.772 232.902 106.119 233.36 105.661C233.817 105.195 234.428 104.961 235.194 104.961C235.52 104.961 235.8 104.989 236.034 105.045V106.487C235.894 106.45 235.73 106.431 235.544 106.431C235.142 106.431 234.825 106.534 234.592 106.739C234.358 106.935 234.242 107.239 234.242 107.649V108.181H236.034V109.665H234.242V115.027H232.674V109.665H231.372V108.181H232.674V107.621ZM237.13 108.181H238.684V109.133C238.88 108.797 239.136 108.531 239.454 108.335C239.78 108.139 240.14 108.041 240.532 108.041C240.681 108.041 240.896 108.069 241.176 108.125V109.553C240.914 109.488 240.686 109.455 240.49 109.455C239.976 109.455 239.547 109.628 239.202 109.973C238.856 110.309 238.684 110.776 238.684 111.373V115.027H237.13V108.181ZM245.065 108.041C245.718 108.041 246.316 108.2 246.857 108.517C247.398 108.825 247.823 109.255 248.131 109.805C248.448 110.347 248.607 110.949 248.607 111.611C248.607 112.274 248.448 112.876 248.131 113.417C247.823 113.959 247.398 114.388 246.857 114.705C246.316 115.013 245.718 115.167 245.065 115.167C244.402 115.167 243.8 115.013 243.259 114.705C242.718 114.388 242.288 113.959 241.971 113.417C241.663 112.876 241.509 112.274 241.509 111.611C241.509 110.949 241.663 110.347 241.971 109.805C242.288 109.255 242.718 108.825 243.259 108.517C243.8 108.2 244.402 108.041 245.065 108.041ZM245.065 109.525C244.692 109.525 244.346 109.619 244.029 109.805C243.721 109.983 243.474 110.235 243.287 110.561C243.11 110.879 243.021 111.229 243.021 111.611C243.021 111.994 243.11 112.344 243.287 112.661C243.474 112.969 243.721 113.217 244.029 113.403C244.346 113.581 244.692 113.669 245.065 113.669C245.438 113.669 245.779 113.581 246.087 113.403C246.395 113.217 246.638 112.969 246.815 112.661C247.002 112.344 247.095 111.994 247.095 111.611C247.095 111.229 247.002 110.879 246.815 110.561C246.638 110.235 246.39 109.983 246.073 109.805C245.765 109.619 245.429 109.525 245.065 109.525ZM260.692 115.027H259.11V111.191C259.11 110.678 258.975 110.277 258.704 109.987C258.443 109.689 258.083 109.539 257.626 109.539C257.206 109.539 256.847 109.679 256.548 109.959C256.249 110.239 256.1 110.65 256.1 111.191V115.027H254.532V111.191C254.532 110.678 254.397 110.277 254.126 109.987C253.865 109.689 253.501 109.539 253.034 109.539C252.614 109.539 252.255 109.679 251.956 109.959C251.657 110.23 251.508 110.641 251.508 111.191V115.027H249.954V108.181H251.508V109.147C251.741 108.755 252.045 108.475 252.418 108.307C252.791 108.13 253.183 108.041 253.594 108.041C254.593 108.041 255.297 108.443 255.708 109.245C255.904 108.872 256.198 108.578 256.59 108.363C256.991 108.149 257.425 108.041 257.892 108.041C258.723 108.041 259.395 108.298 259.908 108.811C260.431 109.315 260.692 109.992 260.692 110.841V115.027ZM265.567 108.181H267.121V109.133C267.317 108.797 267.574 108.531 267.891 108.335C268.218 108.139 268.577 108.041 268.969 108.041C269.119 108.041 269.333 108.069 269.613 108.125V109.553C269.352 109.488 269.123 109.455 268.927 109.455C268.414 109.455 267.985 109.628 267.639 109.973C267.294 110.309 267.121 110.776 267.121 111.373V115.027H265.567V108.181ZM277.212 115.027H275.644V113.823C275.392 114.253 275.061 114.584 274.65 114.817C274.24 115.051 273.764 115.167 273.222 115.167C272.625 115.167 272.074 115.009 271.57 114.691C271.066 114.374 270.67 113.945 270.38 113.403C270.091 112.853 269.946 112.251 269.946 111.597C269.946 110.953 270.091 110.361 270.38 109.819C270.67 109.269 271.066 108.835 271.57 108.517C272.074 108.2 272.625 108.041 273.222 108.041C273.764 108.041 274.24 108.158 274.65 108.391C275.061 108.625 275.392 108.956 275.644 109.385V108.181H277.212V115.027ZM273.558 113.683C273.95 113.683 274.305 113.595 274.622 113.417C274.94 113.231 275.187 112.979 275.364 112.661C275.551 112.344 275.644 111.989 275.644 111.597C275.644 111.215 275.551 110.865 275.364 110.547C275.187 110.23 274.94 109.983 274.622 109.805C274.305 109.619 273.95 109.525 273.558 109.525C273.176 109.525 272.826 109.619 272.508 109.805C272.191 109.992 271.939 110.244 271.752 110.561C271.575 110.879 271.486 111.224 271.486 111.597C271.486 111.98 271.575 112.33 271.752 112.647C271.939 112.965 272.191 113.217 272.508 113.403C272.826 113.59 273.176 113.683 273.558 113.683ZM278.238 108.181H279.904L281.346 112.633L282.942 108.181H284.188L285.812 112.633L287.24 108.181H288.92L286.428 115.027H285.196L283.572 110.589L281.934 115.027H280.716L278.238 108.181ZM148.637 132.027H147.055V128.191C147.055 127.678 146.92 127.277 146.649 126.987C146.388 126.689 146.029 126.539 145.571 126.539C145.151 126.539 144.792 126.679 144.493 126.959C144.195 127.239 144.045 127.65 144.045 128.191V132.027H142.477V128.191C142.477 127.678 142.342 127.277 142.071 126.987C141.81 126.689 141.446 126.539 140.979 126.539C140.559 126.539 140.2 126.679 139.901 126.959C139.603 127.23 139.453 127.641 139.453 128.191V132.027H137.899V125.181H139.453V126.147C139.687 125.755 139.99 125.475 140.363 125.307C140.737 125.13 141.129 125.041 141.539 125.041C142.538 125.041 143.243 125.443 143.653 126.245C143.849 125.872 144.143 125.578 144.535 125.363C144.937 125.149 145.371 125.041 145.837 125.041C146.668 125.041 147.34 125.298 147.853 125.811C148.376 126.315 148.637 126.992 148.637 127.841V132.027ZM157.132 132.027H155.564V130.823C155.312 131.253 154.981 131.584 154.57 131.817C154.16 132.051 153.684 132.167 153.142 132.167C152.545 132.167 151.994 132.009 151.49 131.691C150.986 131.374 150.59 130.945 150.3 130.403C150.011 129.853 149.866 129.251 149.866 128.597C149.866 127.953 150.011 127.361 150.3 126.819C150.59 126.269 150.986 125.835 151.49 125.517C151.994 125.2 152.545 125.041 153.142 125.041C153.684 125.041 154.16 125.158 154.57 125.391C154.981 125.625 155.312 125.956 155.564 126.385V125.181H157.132V132.027ZM153.478 130.683C153.87 130.683 154.225 130.595 154.542 130.417C154.86 130.231 155.107 129.979 155.284 129.661C155.471 129.344 155.564 128.989 155.564 128.597C155.564 128.215 155.471 127.865 155.284 127.547C155.107 127.23 154.86 126.983 154.542 126.805C154.225 126.619 153.87 126.525 153.478 126.525C153.096 126.525 152.746 126.619 152.428 126.805C152.111 126.992 151.859 127.244 151.672 127.561C151.495 127.879 151.406 128.224 151.406 128.597C151.406 128.98 151.495 129.33 151.672 129.647C151.859 129.965 152.111 130.217 152.428 130.403C152.746 130.59 153.096 130.683 153.478 130.683ZM161.98 132.111C161.205 132.111 160.589 131.883 160.132 131.425C159.684 130.959 159.46 130.301 159.46 129.451V126.665H158.158V125.181H159.46V123.347H161.028V125.181H162.82V126.665H161.028V129.423C161.028 129.843 161.14 130.151 161.364 130.347C161.597 130.543 161.915 130.641 162.316 130.641C162.512 130.641 162.68 130.623 162.82 130.585V132.027C162.587 132.083 162.307 132.111 161.98 132.111ZM167.026 132.167C166.363 132.167 165.761 132.013 165.22 131.705C164.678 131.388 164.249 130.954 163.932 130.403C163.624 129.853 163.47 129.246 163.47 128.583C163.47 127.93 163.624 127.333 163.932 126.791C164.249 126.25 164.674 125.825 165.206 125.517C165.747 125.2 166.344 125.041 166.998 125.041C167.604 125.041 168.16 125.191 168.664 125.489C169.177 125.779 169.583 126.18 169.882 126.693C170.18 127.197 170.33 127.762 170.33 128.387L170.302 128.975H164.94C165.014 129.535 165.238 129.988 165.612 130.333C165.985 130.669 166.452 130.837 167.012 130.837C167.45 130.837 167.824 130.739 168.132 130.543C168.449 130.347 168.64 130.091 168.706 129.773H170.246C170.124 130.501 169.77 131.085 169.182 131.523C168.594 131.953 167.875 132.167 167.026 132.167ZM168.678 127.841C168.631 127.412 168.444 127.057 168.118 126.777C167.791 126.497 167.399 126.357 166.942 126.357C166.466 126.357 166.055 126.488 165.71 126.749C165.374 127.001 165.145 127.365 165.024 127.841H168.678ZM171.655 125.181H173.209V126.133C173.405 125.797 173.662 125.531 173.979 125.335C174.306 125.139 174.665 125.041 175.057 125.041C175.206 125.041 175.421 125.069 175.701 125.125V126.553C175.44 126.488 175.211 126.455 175.015 126.455C174.502 126.455 174.072 126.628 173.727 126.973C173.382 127.309 173.209 127.776 173.209 128.373V132.027H171.655V125.181ZM178.35 125.181V132.027H176.796V125.181H178.35ZM177.58 124.005C177.309 124.005 177.071 123.907 176.866 123.711C176.67 123.515 176.572 123.282 176.572 123.011C176.572 122.741 176.67 122.507 176.866 122.311C177.071 122.106 177.309 122.003 177.58 122.003C177.86 122.003 178.098 122.106 178.294 122.311C178.49 122.507 178.588 122.741 178.588 123.011C178.588 123.282 178.49 123.515 178.294 123.711C178.098 123.907 177.86 124.005 177.58 124.005ZM186.951 132.027H185.383V130.823C185.131 131.253 184.799 131.584 184.389 131.817C183.978 132.051 183.502 132.167 182.961 132.167C182.363 132.167 181.813 132.009 181.309 131.691C180.805 131.374 180.408 130.945 180.119 130.403C179.829 129.853 179.685 129.251 179.685 128.597C179.685 127.953 179.829 127.361 180.119 126.819C180.408 126.269 180.805 125.835 181.309 125.517C181.813 125.2 182.363 125.041 182.961 125.041C183.502 125.041 183.978 125.158 184.389 125.391C184.799 125.625 185.131 125.956 185.383 126.385V125.181H186.951V132.027ZM183.297 130.683C183.689 130.683 184.043 130.595 184.361 130.417C184.678 130.231 184.925 129.979 185.103 129.661C185.289 129.344 185.383 128.989 185.383 128.597C185.383 128.215 185.289 127.865 185.103 127.547C184.925 127.23 184.678 126.983 184.361 126.805C184.043 126.619 183.689 126.525 183.297 126.525C182.914 126.525 182.564 126.619 182.247 126.805C181.929 126.992 181.677 127.244 181.491 127.561C181.313 127.879 181.225 128.224 181.225 128.597C181.225 128.98 181.313 129.33 181.491 129.647C181.677 129.965 181.929 130.217 182.247 130.403C182.564 130.59 182.914 130.683 183.297 130.683ZM188.69 122.227H190.244V132.027H188.69V122.227ZM198.101 132.111C197.326 132.111 196.71 131.883 196.253 131.425C195.805 130.959 195.581 130.301 195.581 129.451V126.665H194.279V125.181H195.581V123.347H197.149V125.181H198.941V126.665H197.149V129.423C197.149 129.843 197.261 130.151 197.485 130.347C197.718 130.543 198.036 130.641 198.437 130.641C198.633 130.641 198.801 130.623 198.941 130.585V132.027C198.708 132.083 198.428 132.111 198.101 132.111ZM200.175 125.181H201.729V126.133C201.925 125.797 202.181 125.531 202.499 125.335C202.825 125.139 203.185 125.041 203.577 125.041C203.726 125.041 203.941 125.069 204.221 125.125V126.553C203.959 126.488 203.731 126.455 203.535 126.455C203.021 126.455 202.592 126.628 202.247 126.973C201.901 127.309 201.729 127.776 201.729 128.373V132.027H200.175V125.181ZM211.82 132.027H210.252V130.823C210 131.253 209.668 131.584 209.258 131.817C208.847 132.051 208.371 132.167 207.83 132.167C207.232 132.167 206.682 132.009 206.178 131.691C205.674 131.374 205.277 130.945 204.988 130.403C204.698 129.853 204.554 129.251 204.554 128.597C204.554 127.953 204.698 127.361 204.988 126.819C205.277 126.269 205.674 125.835 206.178 125.517C206.682 125.2 207.232 125.041 207.83 125.041C208.371 125.041 208.847 125.158 209.258 125.391C209.668 125.625 210 125.956 210.252 126.385V125.181H211.82V132.027ZM208.166 130.683C208.558 130.683 208.912 130.595 209.23 130.417C209.547 130.231 209.794 129.979 209.972 129.661C210.158 129.344 210.252 128.989 210.252 128.597C210.252 128.215 210.158 127.865 209.972 127.547C209.794 127.23 209.547 126.983 209.23 126.805C208.912 126.619 208.558 126.525 208.166 126.525C207.783 126.525 207.433 126.619 207.116 126.805C206.798 126.992 206.546 127.244 206.36 127.561C206.182 127.879 206.094 128.224 206.094 128.597C206.094 128.98 206.182 129.33 206.36 129.647C206.546 129.965 206.798 130.217 207.116 130.403C207.433 130.59 207.783 130.683 208.166 130.683ZM215.113 126.259C215.328 125.867 215.613 125.569 215.967 125.363C216.331 125.149 216.737 125.041 217.185 125.041C218.063 125.041 218.753 125.317 219.257 125.867C219.771 126.418 220.027 127.169 220.027 128.121V132.027H218.459V128.317C218.459 127.776 218.305 127.347 217.997 127.029C217.699 126.703 217.302 126.539 216.807 126.539C216.294 126.539 215.883 126.703 215.575 127.029C215.267 127.347 215.113 127.776 215.113 128.317V132.027H213.559V125.181H215.113V126.259ZM224.173 132.167C223.333 132.167 222.647 131.962 222.115 131.551C221.583 131.131 221.284 130.557 221.219 129.829H222.731C222.759 130.119 222.903 130.352 223.165 130.529C223.426 130.697 223.753 130.781 224.145 130.781C224.509 130.781 224.789 130.716 224.985 130.585C225.19 130.445 225.293 130.268 225.293 130.053C225.293 129.801 225.171 129.619 224.929 129.507C224.686 129.386 224.313 129.274 223.809 129.171C223.305 129.069 222.889 128.961 222.563 128.849C222.236 128.728 221.956 128.532 221.723 128.261C221.489 127.991 221.373 127.622 221.373 127.155C221.373 126.754 221.48 126.395 221.695 126.077C221.909 125.751 222.213 125.499 222.605 125.321C223.006 125.135 223.463 125.041 223.977 125.041C224.714 125.041 225.344 125.233 225.867 125.615C226.399 125.989 226.707 126.516 226.791 127.197H225.209C225.181 126.955 225.05 126.763 224.817 126.623C224.593 126.474 224.303 126.399 223.949 126.399C223.622 126.399 223.365 126.46 223.179 126.581C222.992 126.693 222.899 126.857 222.899 127.071C222.899 127.305 223.011 127.473 223.235 127.575C223.468 127.678 223.832 127.785 224.327 127.897C224.849 128.009 225.279 128.131 225.615 128.261C225.951 128.392 226.24 128.602 226.483 128.891C226.725 129.171 226.847 129.559 226.847 130.053C226.847 130.445 226.73 130.805 226.497 131.131C226.263 131.449 225.941 131.701 225.531 131.887C225.12 132.074 224.667 132.167 224.173 132.167ZM232.178 125.041C232.776 125.041 233.322 125.205 233.816 125.531C234.32 125.849 234.717 126.283 235.006 126.833C235.305 127.375 235.454 127.967 235.454 128.611C235.454 129.255 235.305 129.853 235.006 130.403C234.717 130.945 234.32 131.374 233.816 131.691C233.322 132.009 232.776 132.167 232.178 132.167C231.628 132.167 231.147 132.051 230.736 131.817C230.326 131.575 229.994 131.234 229.742 130.795V134.813H228.188V125.181H229.742V126.413C229.994 125.975 230.326 125.639 230.736 125.405C231.147 125.163 231.628 125.041 232.178 125.041ZM231.842 126.525C231.45 126.525 231.091 126.619 230.764 126.805C230.447 126.983 230.195 127.23 230.008 127.547C229.831 127.865 229.742 128.219 229.742 128.611C229.742 128.994 229.831 129.344 230.008 129.661C230.195 129.979 230.447 130.231 230.764 130.417C231.091 130.595 231.45 130.683 231.842 130.683C232.225 130.683 232.575 130.59 232.892 130.403C233.21 130.217 233.457 129.965 233.634 129.647C233.821 129.33 233.914 128.985 233.914 128.611C233.914 128.229 233.821 127.879 233.634 127.561C233.457 127.244 233.21 126.992 232.892 126.805C232.575 126.619 232.225 126.525 231.842 126.525ZM239.938 125.041C240.591 125.041 241.189 125.2 241.73 125.517C242.271 125.825 242.696 126.255 243.004 126.805C243.321 127.347 243.48 127.949 243.48 128.611C243.48 129.274 243.321 129.876 243.004 130.417C242.696 130.959 242.271 131.388 241.73 131.705C241.189 132.013 240.591 132.167 239.938 132.167C239.275 132.167 238.673 132.013 238.132 131.705C237.591 131.388 237.161 130.959 236.844 130.417C236.536 129.876 236.382 129.274 236.382 128.611C236.382 127.949 236.536 127.347 236.844 126.805C237.161 126.255 237.591 125.825 238.132 125.517C238.673 125.2 239.275 125.041 239.938 125.041ZM239.938 126.525C239.565 126.525 239.219 126.619 238.902 126.805C238.594 126.983 238.347 127.235 238.16 127.561C237.983 127.879 237.894 128.229 237.894 128.611C237.894 128.994 237.983 129.344 238.16 129.661C238.347 129.969 238.594 130.217 238.902 130.403C239.219 130.581 239.565 130.669 239.938 130.669C240.311 130.669 240.652 130.581 240.96 130.403C241.268 130.217 241.511 129.969 241.688 129.661C241.875 129.344 241.968 128.994 241.968 128.611C241.968 128.229 241.875 127.879 241.688 127.561C241.511 127.235 241.263 126.983 240.946 126.805C240.638 126.619 240.302 126.525 239.938 126.525ZM244.827 125.181H246.381V126.133C246.577 125.797 246.834 125.531 247.151 125.335C247.478 125.139 247.837 125.041 248.229 125.041C248.378 125.041 248.593 125.069 248.873 125.125V126.553C248.612 126.488 248.383 126.455 248.187 126.455C247.674 126.455 247.244 126.628 246.899 126.973C246.554 127.309 246.381 127.776 246.381 128.373V132.027H244.827V125.181ZM253.076 132.111C252.301 132.111 251.685 131.883 251.228 131.425C250.78 130.959 250.556 130.301 250.556 129.451V126.665H249.254V125.181H250.556V123.347H252.124V125.181H253.916V126.665H252.124V129.423C252.124 129.843 252.236 130.151 252.46 130.347C252.693 130.543 253.01 130.641 253.412 130.641C253.608 130.641 253.776 130.623 253.916 130.585V132.027C253.682 132.083 253.402 132.111 253.076 132.111ZM261.832 132.027H260.264V130.823C260.012 131.253 259.68 131.584 259.27 131.817C258.859 132.051 258.383 132.167 257.842 132.167C257.244 132.167 256.694 132.009 256.19 131.691C255.686 131.374 255.289 130.945 255 130.403C254.71 129.853 254.566 129.251 254.566 128.597C254.566 127.953 254.71 127.361 255 126.819C255.289 126.269 255.686 125.835 256.19 125.517C256.694 125.2 257.244 125.041 257.842 125.041C258.383 125.041 258.859 125.158 259.27 125.391C259.68 125.625 260.012 125.956 260.264 126.385V125.181H261.832V132.027ZM258.178 130.683C258.57 130.683 258.924 130.595 259.242 130.417C259.559 130.231 259.806 129.979 259.984 129.661C260.17 129.344 260.264 128.989 260.264 128.597C260.264 128.215 260.17 127.865 259.984 127.547C259.806 127.23 259.559 126.983 259.242 126.805C258.924 126.619 258.57 126.525 258.178 126.525C257.795 126.525 257.445 126.619 257.128 126.805C256.81 126.992 256.558 127.244 256.372 127.561C256.194 127.879 256.106 128.224 256.106 128.597C256.106 128.98 256.194 129.33 256.372 129.647C256.558 129.965 256.81 130.217 257.128 130.403C257.445 130.59 257.795 130.683 258.178 130.683ZM266.679 132.111C265.904 132.111 265.288 131.883 264.831 131.425C264.383 130.959 264.159 130.301 264.159 129.451V126.665H262.857V125.181H264.159V123.347H265.727V125.181H267.519V126.665H265.727V129.423C265.727 129.843 265.839 130.151 266.063 130.347C266.296 130.543 266.614 130.641 267.015 130.641C267.211 130.641 267.379 130.623 267.519 130.585V132.027C267.286 132.083 267.006 132.111 266.679 132.111ZM270.307 125.181V132.027H268.753V125.181H270.307ZM269.537 124.005C269.266 124.005 269.028 123.907 268.823 123.711C268.627 123.515 268.529 123.282 268.529 123.011C268.529 122.741 268.627 122.507 268.823 122.311C269.028 122.106 269.266 122.003 269.537 122.003C269.817 122.003 270.055 122.106 270.251 122.311C270.447 122.507 270.545 122.741 270.545 123.011C270.545 123.282 270.447 123.515 270.251 123.711C270.055 123.907 269.817 124.005 269.537 124.005ZM275.198 125.041C275.851 125.041 276.448 125.2 276.99 125.517C277.531 125.825 277.956 126.255 278.264 126.805C278.581 127.347 278.74 127.949 278.74 128.611C278.74 129.274 278.581 129.876 278.264 130.417C277.956 130.959 277.531 131.388 276.99 131.705C276.448 132.013 275.851 132.167 275.198 132.167C274.535 132.167 273.933 132.013 273.392 131.705C272.85 131.388 272.421 130.959 272.104 130.417C271.796 129.876 271.642 129.274 271.642 128.611C271.642 127.949 271.796 127.347 272.104 126.805C272.421 126.255 272.85 125.825 273.392 125.517C273.933 125.2 274.535 125.041 275.198 125.041ZM275.198 126.525C274.824 126.525 274.479 126.619 274.162 126.805C273.854 126.983 273.606 127.235 273.42 127.561C273.242 127.879 273.154 128.229 273.154 128.611C273.154 128.994 273.242 129.344 273.42 129.661C273.606 129.969 273.854 130.217 274.162 130.403C274.479 130.581 274.824 130.669 275.198 130.669C275.571 130.669 275.912 130.581 276.22 130.403C276.528 130.217 276.77 129.969 276.948 129.661C277.134 129.344 277.228 128.994 277.228 128.611C277.228 128.229 277.134 127.879 276.948 127.561C276.77 127.235 276.523 126.983 276.206 126.805C275.898 126.619 275.562 126.525 275.198 126.525ZM281.641 126.259C281.855 125.867 282.14 125.569 282.495 125.363C282.859 125.149 283.265 125.041 283.713 125.041C284.59 125.041 285.281 125.317 285.785 125.867C286.298 126.418 286.555 127.169 286.555 128.121V132.027H284.987V128.317C284.987 127.776 284.833 127.347 284.525 127.029C284.226 126.703 283.829 126.539 283.335 126.539C282.821 126.539 282.411 126.703 282.103 127.029C281.795 127.347 281.641 127.776 281.641 128.317V132.027H280.087V125.181H281.641V126.259Z" fill="#4F6D5D"></path>
  <path d="M85.612 134.596C85.0592 131.468 84.8569 127.827 85.9087 124.955C86.5694 123.148 88.3088 121.975 90.2235 121.908C91.6258 121.854 93.5135 121.921 95.6574 122.393C96.1833 122.514 96.7226 122.568 97.262 122.568C98.4485 122.568 99.6486 122.272 100.727 121.732C103.855 120.168 104.907 116.541 105.352 113.332C105.716 110.703 105.797 108.06 105.878 105.404C105.918 104.311 105.945 103.219 105.918 102.127C105.892 101.224 105.878 100.32 106.067 99.4304C106.229 98.6213 106.62 97.8123 107.402 97.4213L110.112 96.046C111.811 95.21 112.364 93.0526 111.298 91.4885L106.148 83.8971C105.19 82.4679 104.611 80.8229 104.476 79.1239C104.314 77.3036 104.139 75.4698 103.559 73.7439C99.4463 61.676 89.1583 52.8442 77.0769 51.2531C67.018 49.9317 57.7682 53.9094 51.0938 60.2737" stroke="#4F6D5D" stroke-width="2.30463" stroke-linecap="round" stroke-linejoin="round"></path>
  <path d="M41.4981 80.207C40.7026 86.4095 42.0509 91.6952 43.0892 94.7829C45.5702 100.999 47.7276 104.896 49.2243 108.361C50.1142 110.384 50.7749 112.258 51.1389 114.375C51.9345 118.905 51.3951 124.501 48.8467 134.937" stroke="#4F6D5D" stroke-width="2.30463" stroke-linecap="round" stroke-linejoin="round"></path>
  <path d="M53.1887 74.7056C46.9583 65.1996 32.6759 60.5055 29.9053 71.5285C29.7985 71.9534 29.7028 72.3832 29.6192 72.8179C27.5562 83.5374 30.6979 93.1378 38.3027 100.406C44.1161 105.933 53.0119 104.035 55.3488 96.3609C55.8589 94.6861 56.2988 92.853 56.6136 90.8726C57.5574 84.9802 56.708 80.0856 53.1887 74.7056Z" stroke="#4F6D5D" stroke-width="2.30463" stroke-linecap="round" stroke-linejoin="round"></path>
  <path d="M143.302 148.014L144.688 149.848L143.904 150.52L142.49 148.658L141.062 150.52L140.264 149.848L141.678 148.028L139.592 147.384L139.928 146.376L141.958 147.006V144.92H143.008V147.006L145.024 146.376L145.374 147.384L143.302 148.014ZM152.591 145.2V146.768H148.461V149.302H152.157V150.87H148.461V155H146.823V145.2H152.591ZM153.492 148.154H155.046V149.106C155.242 148.77 155.499 148.504 155.816 148.308C156.143 148.112 156.502 148.014 156.894 148.014C157.043 148.014 157.258 148.042 157.538 148.098V149.526C157.277 149.461 157.048 149.428 156.852 149.428C156.339 149.428 155.909 149.601 155.564 149.946C155.219 150.282 155.046 150.749 155.046 151.346V155H153.492V148.154ZM161.427 148.014C162.081 148.014 162.678 148.173 163.219 148.49C163.761 148.798 164.185 149.227 164.493 149.778C164.811 150.319 164.969 150.921 164.969 151.584C164.969 152.247 164.811 152.849 164.493 153.39C164.185 153.931 163.761 154.361 163.219 154.678C162.678 154.986 162.081 155.14 161.427 155.14C160.765 155.14 160.163 154.986 159.621 154.678C159.08 154.361 158.651 153.931 158.333 153.39C158.025 152.849 157.871 152.247 157.871 151.584C157.871 150.921 158.025 150.319 158.333 149.778C158.651 149.227 159.08 148.798 159.621 148.49C160.163 148.173 160.765 148.014 161.427 148.014ZM161.427 149.498C161.054 149.498 160.709 149.591 160.391 149.778C160.083 149.955 159.836 150.207 159.649 150.534C159.472 150.851 159.383 151.201 159.383 151.584C159.383 151.967 159.472 152.317 159.649 152.634C159.836 152.942 160.083 153.189 160.391 153.376C160.709 153.553 161.054 153.642 161.427 153.642C161.801 153.642 162.141 153.553 162.449 153.376C162.757 153.189 163 152.942 163.177 152.634C163.364 152.317 163.457 151.967 163.457 151.584C163.457 151.201 163.364 150.851 163.177 150.534C163 150.207 162.753 149.955 162.435 149.778C162.127 149.591 161.791 149.498 161.427 149.498ZM177.054 155H175.472V151.164C175.472 150.651 175.337 150.249 175.066 149.96C174.805 149.661 174.446 149.512 173.988 149.512C173.568 149.512 173.209 149.652 172.91 149.932C172.612 150.212 172.462 150.623 172.462 151.164V155H170.894V151.164C170.894 150.651 170.759 150.249 170.488 149.96C170.227 149.661 169.863 149.512 169.396 149.512C168.976 149.512 168.617 149.652 168.318 149.932C168.02 150.203 167.87 150.613 167.87 151.164V155H166.316V148.154H167.87V149.12C168.104 148.728 168.407 148.448 168.78 148.28C169.154 148.103 169.546 148.014 169.956 148.014C170.955 148.014 171.66 148.415 172.07 149.218C172.266 148.845 172.56 148.551 172.952 148.336C173.354 148.121 173.788 148.014 174.254 148.014C175.085 148.014 175.757 148.271 176.27 148.784C176.793 149.288 177.054 149.965 177.054 150.814V155ZM181.65 153.81L185.066 150.436C185.616 149.895 186.004 149.461 186.228 149.134C186.452 148.807 186.564 148.471 186.564 148.126C186.564 147.697 186.414 147.347 186.116 147.076C185.826 146.796 185.453 146.656 184.996 146.656C184.436 146.656 183.992 146.833 183.666 147.188C183.348 147.543 183.199 148.019 183.218 148.616H181.566C181.547 147.916 181.678 147.295 181.958 146.754C182.247 146.213 182.658 145.797 183.19 145.508C183.722 145.209 184.324 145.06 184.996 145.06C185.612 145.06 186.167 145.191 186.662 145.452C187.156 145.704 187.544 146.059 187.824 146.516C188.104 146.964 188.244 147.477 188.244 148.056C188.244 148.625 188.071 149.181 187.726 149.722C187.39 150.263 186.89 150.847 186.228 151.472L184.296 153.404H188.314V155H181.65V153.81ZM193.235 155.14C192.47 155.14 191.807 154.935 191.247 154.524C190.687 154.104 190.258 153.516 189.959 152.76C189.67 152.004 189.525 151.117 189.525 150.1C189.525 149.083 189.67 148.196 189.959 147.44C190.258 146.684 190.687 146.101 191.247 145.69C191.807 145.27 192.47 145.06 193.235 145.06C194.001 145.06 194.659 145.27 195.209 145.69C195.769 146.101 196.194 146.684 196.483 147.44C196.782 148.196 196.931 149.083 196.931 150.1C196.931 151.117 196.782 152.004 196.483 152.76C196.194 153.516 195.769 154.104 195.209 154.524C194.659 154.935 194.001 155.14 193.235 155.14ZM193.235 153.544C193.879 153.544 194.374 153.255 194.719 152.676C195.074 152.088 195.251 151.229 195.251 150.1C195.251 148.971 195.074 148.117 194.719 147.538C194.374 146.95 193.879 146.656 193.235 146.656C192.591 146.656 192.092 146.95 191.737 147.538C191.392 148.117 191.219 148.971 191.219 150.1C191.219 151.229 191.392 152.088 191.737 152.676C192.092 153.255 192.591 153.544 193.235 153.544ZM198.151 153.81L201.567 150.436C202.118 149.895 202.505 149.461 202.729 149.134C202.953 148.807 203.065 148.471 203.065 148.126C203.065 147.697 202.916 147.347 202.617 147.076C202.328 146.796 201.955 146.656 201.497 146.656C200.937 146.656 200.494 146.833 200.167 147.188C199.85 147.543 199.701 148.019 199.719 148.616H198.067C198.049 147.916 198.179 147.295 198.459 146.754C198.749 146.213 199.159 145.797 199.691 145.508C200.223 145.209 200.825 145.06 201.497 145.06C202.113 145.06 202.669 145.191 203.163 145.452C203.658 145.704 204.045 146.059 204.325 146.516C204.605 146.964 204.745 147.477 204.745 148.056C204.745 148.625 204.573 149.181 204.227 149.722C203.891 150.263 203.392 150.847 202.729 151.472L200.797 153.404H204.815V155H198.151V153.81ZM205.999 153.81L209.415 150.436C209.966 149.895 210.353 149.461 210.577 149.134C210.801 148.807 210.913 148.471 210.913 148.126C210.913 147.697 210.764 147.347 210.465 147.076C210.176 146.796 209.802 146.656 209.345 146.656C208.785 146.656 208.342 146.833 208.015 147.188C207.698 147.543 207.548 148.019 207.567 148.616H205.915C205.896 147.916 206.027 147.295 206.307 146.754C206.596 146.213 207.007 145.797 207.539 145.508C208.071 145.209 208.673 145.06 209.345 145.06C209.961 145.06 210.516 145.191 211.011 145.452C211.506 145.704 211.893 146.059 212.173 146.516C212.453 146.964 212.593 147.477 212.593 148.056C212.593 148.625 212.42 149.181 212.075 149.722C211.739 150.263 211.24 150.847 210.577 151.472L208.645 153.404H212.663V155H205.999V153.81ZM220.243 155.084C219.468 155.084 218.852 154.855 218.395 154.398C217.947 153.931 217.723 153.273 217.723 152.424V149.638H216.421V148.154H217.723V146.32H219.291V148.154H221.083V149.638H219.291V152.396C219.291 152.816 219.403 153.124 219.627 153.32C219.86 153.516 220.177 153.614 220.579 153.614C220.775 153.614 220.943 153.595 221.083 153.558V155C220.849 155.056 220.569 155.084 220.243 155.084ZM225.289 148.014C225.942 148.014 226.539 148.173 227.081 148.49C227.622 148.798 228.047 149.227 228.355 149.778C228.672 150.319 228.831 150.921 228.831 151.584C228.831 152.247 228.672 152.849 228.355 153.39C228.047 153.931 227.622 154.361 227.081 154.678C226.539 154.986 225.942 155.14 225.289 155.14C224.626 155.14 224.024 154.986 223.483 154.678C222.941 154.361 222.512 153.931 222.195 153.39C221.887 152.849 221.733 152.247 221.733 151.584C221.733 150.921 221.887 150.319 222.195 149.778C222.512 149.227 222.941 148.798 223.483 148.49C224.024 148.173 224.626 148.014 225.289 148.014ZM225.289 149.498C224.915 149.498 224.57 149.591 224.253 149.778C223.945 149.955 223.697 150.207 223.511 150.534C223.333 150.851 223.245 151.201 223.245 151.584C223.245 151.967 223.333 152.317 223.511 152.634C223.697 152.942 223.945 153.189 224.253 153.376C224.57 153.553 224.915 153.642 225.289 153.642C225.662 153.642 226.003 153.553 226.311 153.376C226.619 153.189 226.861 152.942 227.039 152.634C227.225 152.317 227.319 151.967 227.319 151.584C227.319 151.201 227.225 150.851 227.039 150.534C226.861 150.207 226.614 149.955 226.297 149.778C225.989 149.591 225.653 149.498 225.289 149.498ZM233.138 153.81L236.554 150.436C237.104 149.895 237.492 149.461 237.716 149.134C237.94 148.807 238.052 148.471 238.052 148.126C238.052 147.697 237.902 147.347 237.604 147.076C237.314 146.796 236.941 146.656 236.484 146.656C235.924 146.656 235.48 146.833 235.154 147.188C234.836 147.543 234.687 148.019 234.706 148.616H233.054C233.035 147.916 233.166 147.295 233.446 146.754C233.735 146.213 234.146 145.797 234.678 145.508C235.21 145.209 235.812 145.06 236.484 145.06C237.1 145.06 237.655 145.191 238.15 145.452C238.644 145.704 239.032 146.059 239.312 146.516C239.592 146.964 239.732 147.477 239.732 148.056C239.732 148.625 239.559 149.181 239.214 149.722C238.878 150.263 238.378 150.847 237.716 151.472L235.784 153.404H239.802V155H233.138V153.81ZM244.723 155.14C243.958 155.14 243.295 154.935 242.735 154.524C242.175 154.104 241.746 153.516 241.447 152.76C241.158 152.004 241.013 151.117 241.013 150.1C241.013 149.083 241.158 148.196 241.447 147.44C241.746 146.684 242.175 146.101 242.735 145.69C243.295 145.27 243.958 145.06 244.723 145.06C245.489 145.06 246.147 145.27 246.697 145.69C247.257 146.101 247.682 146.684 247.971 147.44C248.27 148.196 248.419 149.083 248.419 150.1C248.419 151.117 248.27 152.004 247.971 152.76C247.682 153.516 247.257 154.104 246.697 154.524C246.147 154.935 245.489 155.14 244.723 155.14ZM244.723 153.544C245.367 153.544 245.862 153.255 246.207 152.676C246.562 152.088 246.739 151.229 246.739 150.1C246.739 148.971 246.562 148.117 246.207 147.538C245.862 146.95 245.367 146.656 244.723 146.656C244.079 146.656 243.58 146.95 243.225 147.538C242.88 148.117 242.707 148.971 242.707 150.1C242.707 151.229 242.88 152.088 243.225 152.676C243.58 153.255 244.079 153.544 244.723 153.544ZM249.64 153.81L253.056 150.436C253.606 149.895 253.994 149.461 254.218 149.134C254.442 148.807 254.554 148.471 254.554 148.126C254.554 147.697 254.404 147.347 254.106 147.076C253.816 146.796 253.443 146.656 252.986 146.656C252.426 146.656 251.982 146.833 251.656 147.188C251.338 147.543 251.189 148.019 251.208 148.616H249.556C249.537 147.916 249.668 147.295 249.948 146.754C250.237 146.213 250.648 145.797 251.18 145.508C251.712 145.209 252.314 145.06 252.986 145.06C253.602 145.06 254.157 145.191 254.652 145.452C255.146 145.704 255.534 146.059 255.814 146.516C256.094 146.964 256.234 147.477 256.234 148.056C256.234 148.625 256.061 149.181 255.716 149.722C255.38 150.263 254.88 150.847 254.218 151.472L252.286 153.404H256.304V155H249.64V153.81ZM260.735 155.14C260.119 155.14 259.559 155.023 259.055 154.79C258.551 154.547 258.145 154.211 257.837 153.782C257.529 153.343 257.352 152.849 257.305 152.298H258.943C259.018 152.662 259.214 152.961 259.531 153.194C259.849 153.427 260.25 153.544 260.735 153.544C261.258 153.544 261.687 153.385 262.023 153.068C262.369 152.741 262.541 152.321 262.541 151.808C262.541 151.304 262.359 150.912 261.995 150.632C261.631 150.352 261.16 150.212 260.581 150.212C260.236 150.212 259.891 150.259 259.545 150.352V149.274L261.841 146.768H257.571V145.2H264.151V146.292L261.519 149.078C262.023 149.078 262.481 149.199 262.891 149.442C263.302 149.675 263.624 150.007 263.857 150.436C264.1 150.856 264.221 151.327 264.221 151.85C264.221 152.485 264.072 153.054 263.773 153.558C263.475 154.053 263.059 154.44 262.527 154.72C262.005 155 261.407 155.14 260.735 155.14Z" fill="#4F6D5D"></path>
</svg>
