<?xml version="1.0" encoding="UTF-8"?>
<svg xmlns="http://www.w3.org/2000/svg" width="468" height="179" viewBox="0 0 468 179" fill="none">
  <rect width="468" height="179" rx="20" fill="#4F6D5D"></rect>
  <path d="M187.406 57.625C189.802 56.25 192.406 55.5625 195.219 55.5625C198.031 55.5625 200.635 56.25 203.031 57.625C205.448 59 207.365 60.8646 208.781 63.2188C210.198 65.5521 210.906 68.0938 210.906 70.8438C210.906 74.2812 209.688 77.9583 207.25 81.875L195.344 101H186.781L196.875 85.125C195.833 85.4583 194.854 85.625 193.938 85.625C189.833 85.625 186.417 84.2292 183.688 81.4375C180.958 78.625 179.594 75.0938 179.594 70.8438C179.594 68.0938 180.292 65.5521 181.688 63.2188C183.104 60.8646 185.01 59 187.406 57.625ZM195.281 79.3125C197.573 79.3125 199.521 78.5 201.125 76.875C202.729 75.2292 203.531 73.2396 203.531 70.9062C203.531 68.5938 202.729 66.6458 201.125 65.0625C199.521 63.4583 197.552 62.6562 195.219 62.6562C192.844 62.6562 190.854 63.4583 189.25 65.0625C187.646 66.6458 186.844 68.5938 186.844 70.9062C186.844 73.2604 187.656 75.25 189.281 76.875C190.906 78.5 192.906 79.3125 195.281 79.3125ZM228.406 101.625C225.656 101.625 223.135 101.125 220.844 100.125C218.573 99.1042 216.708 97.6042 215.25 95.625C213.792 93.625 212.969 91.3021 212.781 88.6562H220.25C220.646 90.3854 221.573 91.7708 223.031 92.8125C224.49 93.8333 226.281 94.3438 228.406 94.3438C230.656 94.3438 232.562 93.5729 234.125 92.0312C235.688 90.4896 236.469 88.6146 236.469 86.4062C236.469 84.0521 235.698 82.1042 234.156 80.5625C232.615 79 230.698 78.2188 228.406 78.2188C226.927 78.2188 225.552 78.4688 224.281 78.9688C223.01 79.4479 222.01 80.1146 221.281 80.9688H214.75L216.812 56.1875H241.25V63.25H223.469L222.375 74.1875C223.208 73.5208 224.271 72.9792 225.562 72.5625C226.854 72.1458 228.135 71.9375 229.406 71.9375C233.677 71.9375 237.198 73.2708 239.969 75.9375C242.74 78.5833 244.125 82.1146 244.125 86.5312C244.125 90.7396 242.604 94.3125 239.562 97.25C236.521 100.167 232.802 101.625 228.406 101.625ZM265.594 65.0312C265.594 67.7812 264.719 70.0729 262.969 71.9062C261.24 73.7188 259.062 74.625 256.438 74.625C253.792 74.625 251.604 73.7188 249.875 71.9062C248.146 70.0729 247.281 67.7812 247.281 65.0312C247.281 62.3021 248.146 60.0417 249.875 58.25C251.604 56.4583 253.792 55.5625 256.438 55.5625C259.062 55.5625 261.24 56.4688 262.969 58.2812C264.719 60.0729 265.594 62.3229 265.594 65.0312ZM278.969 56.1875H284.719L254.969 101H249.188L278.969 56.1875ZM260.781 65.0312C260.781 63.5729 260.385 62.375 259.594 61.4375C258.802 60.5 257.75 60.0312 256.438 60.0312C255.083 60.0312 254 60.5 253.188 61.4375C252.396 62.375 252 63.5729 252 65.0312C252 66.5312 252.396 67.75 253.188 68.6875C254 69.625 255.083 70.0938 256.438 70.0938C257.771 70.0938 258.823 69.625 259.594 68.6875C260.385 67.75 260.781 66.5312 260.781 65.0312ZM286.625 92.0312C286.625 94.8021 285.75 97.0938 284 98.9062C282.271 100.719 280.073 101.625 277.406 101.625C274.781 101.625 272.604 100.719 270.875 98.9062C269.146 97.0938 268.281 94.8021 268.281 92.0312C268.281 89.3021 269.146 87.0417 270.875 85.25C272.604 83.4583 274.781 82.5625 277.406 82.5625C280.052 82.5625 282.25 83.4583 284 85.25C285.75 87.0417 286.625 89.3021 286.625 92.0312ZM281.844 92.0312C281.844 90.5729 281.438 89.3958 280.625 88.5C279.812 87.5833 278.74 87.125 277.406 87.125C276.073 87.125 275 87.5833 274.188 88.5C273.396 89.3958 273 90.5729 273 92.0312C273 93.5104 273.396 94.7292 274.188 95.6875C275 96.625 276.073 97.0938 277.406 97.0938C278.74 97.0938 279.812 96.625 280.625 95.6875C281.438 94.7292 281.844 93.5104 281.844 92.0312Z" fill="#F6F6F6"></path>
  <path d="M184.2 109.877V123.877H181.24V109.877H184.2ZM189.192 115.337C189.499 114.857 189.879 114.49 190.332 114.237C190.785 113.984 191.292 113.857 191.852 113.857C193.105 113.857 194.085 114.257 194.792 115.057C195.512 115.844 195.872 116.93 195.872 118.317V123.877H193.052V118.677C193.052 118.037 192.872 117.524 192.512 117.137C192.165 116.75 191.705 116.557 191.132 116.557C190.545 116.557 190.072 116.75 189.712 117.137C189.365 117.524 189.192 118.037 189.192 118.677V123.877H186.372V114.057H189.192V115.337ZM201.917 124.077C201.09 124.077 200.324 123.85 199.617 123.397C198.924 122.93 198.37 122.304 197.957 121.517C197.557 120.73 197.357 119.877 197.357 118.957C197.357 118.037 197.557 117.184 197.957 116.397C198.37 115.61 198.924 114.99 199.617 114.537C200.324 114.084 201.09 113.857 201.917 113.857C202.597 113.857 203.197 113.99 203.717 114.257C204.237 114.524 204.67 114.917 205.017 115.437V109.877H207.837V123.877H205.017V122.497C204.67 123.017 204.237 123.41 203.717 123.677C203.197 123.944 202.597 124.077 201.917 124.077ZM202.557 121.377C203.264 121.377 203.85 121.15 204.317 120.697C204.784 120.23 205.017 119.65 205.017 118.957C205.017 118.277 204.777 117.704 204.297 117.237C203.83 116.77 203.25 116.537 202.557 116.537C201.877 116.537 201.297 116.777 200.817 117.257C200.35 117.724 200.117 118.29 200.117 118.957C200.117 119.637 200.35 120.21 200.817 120.677C201.297 121.144 201.877 121.377 202.557 121.377ZM214.567 124.077C213.621 124.077 212.754 123.85 211.967 123.397C211.181 122.944 210.561 122.324 210.107 121.537C209.654 120.737 209.427 119.864 209.427 118.917C209.427 117.984 209.647 117.13 210.087 116.357C210.541 115.584 211.154 114.977 211.927 114.537C212.714 114.084 213.581 113.857 214.527 113.857C215.407 113.857 216.214 114.07 216.947 114.497C217.694 114.91 218.281 115.484 218.707 116.217C219.147 116.95 219.367 117.764 219.367 118.657C219.367 119.03 219.347 119.377 219.307 119.697H212.047C212.154 120.324 212.427 120.817 212.867 121.177C213.321 121.537 213.874 121.717 214.527 121.717C215.047 121.717 215.474 121.617 215.807 121.417C216.154 121.204 216.374 120.924 216.467 120.577H219.227C219.067 121.644 218.561 122.497 217.707 123.137C216.854 123.764 215.807 124.077 214.567 124.077ZM216.407 117.817C216.354 117.337 216.134 116.944 215.747 116.637C215.374 116.33 214.921 116.177 214.387 116.177C213.841 116.177 213.374 116.317 212.987 116.597C212.601 116.864 212.327 117.27 212.167 117.817H216.407ZM226.862 113.857C227.689 113.857 228.449 114.084 229.142 114.537C229.849 114.99 230.402 115.61 230.802 116.397C231.216 117.184 231.422 118.037 231.422 118.957C231.422 119.877 231.216 120.73 230.802 121.517C230.402 122.304 229.849 122.93 229.142 123.397C228.449 123.85 227.689 124.077 226.862 124.077C226.182 124.077 225.582 123.944 225.062 123.677C224.542 123.41 224.109 123.017 223.762 122.497V127.857H220.942V114.057H223.762V115.437C224.109 114.917 224.542 114.524 225.062 114.257C225.582 113.99 226.182 113.857 226.862 113.857ZM226.222 116.537C225.529 116.537 224.942 116.77 224.462 117.237C223.996 117.704 223.762 118.277 223.762 118.957C223.762 119.65 223.996 120.23 224.462 120.697C224.929 121.15 225.516 121.377 226.222 121.377C226.902 121.377 227.476 121.144 227.942 120.677C228.422 120.21 228.662 119.637 228.662 118.957C228.662 118.29 228.422 117.724 227.942 117.257C227.476 116.777 226.902 116.537 226.222 116.537ZM237.673 124.077C236.726 124.077 235.859 123.85 235.073 123.397C234.286 122.944 233.666 122.324 233.213 121.537C232.759 120.737 232.533 119.864 232.533 118.917C232.533 117.984 232.753 117.13 233.193 116.357C233.646 115.584 234.259 114.977 235.033 114.537C235.819 114.084 236.686 113.857 237.633 113.857C238.513 113.857 239.319 114.07 240.053 114.497C240.799 114.91 241.386 115.484 241.813 116.217C242.253 116.95 242.473 117.764 242.473 118.657C242.473 119.03 242.453 119.377 242.413 119.697H235.153C235.259 120.324 235.533 120.817 235.973 121.177C236.426 121.537 236.979 121.717 237.633 121.717C238.153 121.717 238.579 121.617 238.913 121.417C239.259 121.204 239.479 120.924 239.573 120.577H242.333C242.173 121.644 241.666 122.497 240.813 123.137C239.959 123.764 238.913 124.077 237.673 124.077ZM239.513 117.817C239.459 117.337 239.239 116.944 238.853 116.637C238.479 116.33 238.026 116.177 237.493 116.177C236.946 116.177 236.479 116.317 236.093 116.597C235.706 116.864 235.433 117.27 235.273 117.817H239.513ZM246.868 115.337C247.174 114.857 247.554 114.49 248.008 114.237C248.461 113.984 248.968 113.857 249.528 113.857C250.781 113.857 251.761 114.257 252.468 115.057C253.188 115.844 253.548 116.93 253.548 118.317V123.877H250.728V118.677C250.728 118.037 250.548 117.524 250.188 117.137C249.841 116.75 249.381 116.557 248.808 116.557C248.221 116.557 247.748 116.75 247.388 117.137C247.041 117.524 246.868 118.037 246.868 118.677V123.877H244.048V114.057H246.868V115.337ZM259.593 124.077C258.766 124.077 257.999 123.85 257.293 123.397C256.599 122.93 256.046 122.304 255.633 121.517C255.233 120.73 255.033 119.877 255.033 118.957C255.033 118.037 255.233 117.184 255.633 116.397C256.046 115.61 256.599 114.99 257.293 114.537C257.999 114.084 258.766 113.857 259.593 113.857C260.273 113.857 260.873 113.99 261.393 114.257C261.913 114.524 262.346 114.917 262.693 115.437V109.877H265.513V123.877H262.693V122.497C262.346 123.017 261.913 123.41 261.393 123.677C260.873 123.944 260.273 124.077 259.593 124.077ZM260.233 121.377C260.939 121.377 261.526 121.15 261.993 120.697C262.459 120.23 262.693 119.65 262.693 118.957C262.693 118.277 262.453 117.704 261.973 117.237C261.506 116.77 260.926 116.537 260.233 116.537C259.553 116.537 258.973 116.777 258.493 117.257C258.026 117.724 257.793 118.29 257.793 118.957C257.793 119.637 258.026 120.21 258.493 120.677C258.973 121.144 259.553 121.377 260.233 121.377ZM272.243 124.077C271.296 124.077 270.43 123.85 269.643 123.397C268.856 122.944 268.236 122.324 267.783 121.537C267.33 120.737 267.103 119.864 267.103 118.917C267.103 117.984 267.323 117.13 267.763 116.357C268.216 115.584 268.83 114.977 269.603 114.537C270.39 114.084 271.256 113.857 272.203 113.857C273.083 113.857 273.89 114.07 274.623 114.497C275.37 114.91 275.956 115.484 276.383 116.217C276.823 116.95 277.043 117.764 277.043 118.657C277.043 119.03 277.023 119.377 276.983 119.697H269.723C269.83 120.324 270.103 120.817 270.543 121.177C270.996 121.537 271.55 121.717 272.203 121.717C272.723 121.717 273.15 121.617 273.483 121.417C273.83 121.204 274.05 120.924 274.143 120.577H276.903C276.743 121.644 276.236 122.497 275.383 123.137C274.53 123.764 273.483 124.077 272.243 124.077ZM274.083 117.817C274.03 117.337 273.81 116.944 273.423 116.637C273.05 116.33 272.596 116.177 272.063 116.177C271.516 116.177 271.05 116.317 270.663 116.597C270.276 116.864 270.003 117.27 269.843 117.817H274.083ZM281.438 115.337C281.745 114.857 282.125 114.49 282.578 114.237C283.031 113.984 283.538 113.857 284.098 113.857C285.351 113.857 286.331 114.257 287.038 115.057C287.758 115.844 288.118 116.93 288.118 118.317V123.877H285.298V118.677C285.298 118.037 285.118 117.524 284.758 117.137C284.411 116.75 283.951 116.557 283.378 116.557C282.791 116.557 282.318 116.75 281.958 117.137C281.611 117.524 281.438 118.037 281.438 118.677V123.877H278.618V114.057H281.438V115.337ZM294.767 124.017C293.594 124.017 292.654 123.65 291.947 122.917C291.254 122.184 290.907 121.17 290.907 119.877V116.737H289.087V114.057H290.907V111.477H293.727V114.057H296.147V116.737H293.727V119.837C293.727 120.344 293.881 120.724 294.187 120.977C294.494 121.23 294.907 121.357 295.427 121.357C295.707 121.357 295.947 121.33 296.147 121.277V123.877C295.787 123.97 295.327 124.017 294.767 124.017ZM307.595 116.057C308.102 116.057 308.522 115.897 308.855 115.577C309.202 115.257 309.375 114.85 309.375 114.357C309.375 113.89 309.202 113.504 308.855 113.197C308.522 112.877 308.102 112.717 307.595 112.717H305.235V116.057H307.595ZM307.595 109.877C308.502 109.877 309.315 110.07 310.035 110.457C310.768 110.844 311.335 111.377 311.735 112.057C312.148 112.737 312.355 113.504 312.355 114.357C312.355 115.224 312.148 116.004 311.735 116.697C311.335 117.377 310.768 117.917 310.035 118.317C309.315 118.704 308.502 118.897 307.595 118.897H305.235V123.877H302.275V109.877H307.595ZM313.618 114.057H316.438V115.217C316.718 114.79 317.078 114.457 317.518 114.217C317.958 113.977 318.445 113.857 318.978 113.857C319.191 113.857 319.498 113.897 319.898 113.977V116.537C319.525 116.444 319.191 116.397 318.898 116.397C318.178 116.397 317.585 116.624 317.118 117.077C316.665 117.517 316.438 118.17 316.438 119.037V123.877H313.618V114.057ZM325.426 113.857C326.372 113.857 327.232 114.084 328.006 114.537C328.792 114.977 329.406 115.59 329.846 116.377C330.299 117.15 330.526 118.017 330.526 118.977C330.526 119.937 330.299 120.804 329.846 121.577C329.406 122.35 328.792 122.964 328.006 123.417C327.232 123.857 326.372 124.077 325.426 124.077C324.466 124.077 323.599 123.857 322.826 123.417C322.052 122.964 321.439 122.35 320.986 121.577C320.546 120.804 320.326 119.937 320.326 118.977C320.326 118.017 320.546 117.15 320.986 116.377C321.439 115.59 322.052 114.977 322.826 114.537C323.599 114.084 324.466 113.857 325.426 113.857ZM325.426 116.557C324.759 116.557 324.199 116.79 323.746 117.257C323.292 117.71 323.066 118.284 323.066 118.977C323.066 119.657 323.292 120.23 323.746 120.697C324.199 121.15 324.759 121.377 325.426 121.377C326.092 121.377 326.646 121.15 327.086 120.697C327.539 120.23 327.766 119.657 327.766 118.977C327.766 118.284 327.539 117.71 327.086 117.257C326.646 116.79 326.092 116.557 325.426 116.557ZM336.194 124.077C335.368 124.077 334.601 123.85 333.894 123.397C333.201 122.93 332.648 122.304 332.234 121.517C331.834 120.73 331.634 119.877 331.634 118.957C331.634 118.037 331.834 117.184 332.234 116.397C332.648 115.61 333.201 114.99 333.894 114.537C334.601 114.084 335.368 113.857 336.194 113.857C336.874 113.857 337.474 113.99 337.994 114.257C338.514 114.524 338.948 114.917 339.294 115.437V109.877H342.114V123.877H339.294V122.497C338.948 123.017 338.514 123.41 337.994 123.677C337.474 123.944 336.874 124.077 336.194 124.077ZM336.834 121.377C337.541 121.377 338.128 121.15 338.594 120.697C339.061 120.23 339.294 119.65 339.294 118.957C339.294 118.277 339.054 117.704 338.574 117.237C338.108 116.77 337.528 116.537 336.834 116.537C336.154 116.537 335.574 116.777 335.094 117.257C334.628 117.724 334.394 118.29 334.394 118.957C334.394 119.637 334.628 120.21 335.094 120.677C335.574 121.144 336.154 121.377 336.834 121.377ZM350.745 122.597C350.425 123.077 350.038 123.444 349.585 123.697C349.145 123.95 348.645 124.077 348.085 124.077C346.831 124.077 345.845 123.677 345.125 122.877C344.405 122.077 344.045 120.984 344.045 119.597V114.057H346.865V119.237C346.865 119.89 347.038 120.41 347.385 120.797C347.745 121.184 348.218 121.377 348.805 121.377C349.391 121.377 349.858 121.184 350.205 120.797C350.565 120.41 350.745 119.89 350.745 119.237V114.057H353.565V123.877H350.745V122.597ZM360.249 124.077C359.303 124.077 358.443 123.857 357.669 123.417C356.896 122.964 356.283 122.35 355.829 121.577C355.389 120.804 355.169 119.937 355.169 118.977C355.169 118.017 355.389 117.15 355.829 116.377C356.283 115.59 356.896 114.977 357.669 114.537C358.443 114.084 359.303 113.857 360.249 113.857C361.063 113.857 361.823 114.03 362.529 114.377C363.236 114.71 363.816 115.177 364.269 115.777C364.723 116.377 364.989 117.05 365.069 117.797H362.189C362.083 117.437 361.849 117.144 361.489 116.917C361.129 116.677 360.716 116.557 360.249 116.557C359.583 116.557 359.029 116.79 358.589 117.257C358.149 117.71 357.929 118.284 357.929 118.977C357.929 119.657 358.149 120.23 358.589 120.697C359.043 121.15 359.596 121.377 360.249 121.377C360.729 121.377 361.149 121.257 361.509 121.017C361.883 120.764 362.123 120.444 362.229 120.057H365.069C365.003 120.817 364.743 121.504 364.289 122.117C363.849 122.73 363.269 123.21 362.549 123.557C361.843 123.904 361.076 124.077 360.249 124.077ZM371.31 124.017C370.137 124.017 369.197 123.65 368.49 122.917C367.797 122.184 367.45 121.17 367.45 119.877V116.737H365.63V114.057H367.45V111.477H370.27V114.057H372.69V116.737H370.27V119.837C370.27 120.344 370.423 120.724 370.73 120.977C371.037 121.23 371.45 121.357 371.97 121.357C372.25 121.357 372.49 121.33 372.69 121.277V123.877C372.33 123.97 371.87 124.017 371.31 124.017ZM377.063 114.057V123.877H374.243V114.057H377.063ZM375.643 112.717C375.176 112.717 374.77 112.55 374.423 112.217C374.09 111.884 373.923 111.484 373.923 111.017C373.923 110.55 374.09 110.15 374.423 109.817C374.77 109.47 375.176 109.297 375.643 109.297C376.123 109.297 376.53 109.47 376.863 109.817C377.196 110.15 377.363 110.55 377.363 111.017C377.363 111.484 377.196 111.884 376.863 112.217C376.53 112.55 376.123 112.717 375.643 112.717ZM383.746 113.857C384.693 113.857 385.553 114.084 386.326 114.537C387.113 114.977 387.726 115.59 388.166 116.377C388.619 117.15 388.846 118.017 388.846 118.977C388.846 119.937 388.619 120.804 388.166 121.577C387.726 122.35 387.113 122.964 386.326 123.417C385.553 123.857 384.693 124.077 383.746 124.077C382.786 124.077 381.919 123.857 381.146 123.417C380.373 122.964 379.759 122.35 379.306 121.577C378.866 120.804 378.646 119.937 378.646 118.977C378.646 118.017 378.866 117.15 379.306 116.377C379.759 115.59 380.373 114.977 381.146 114.537C381.919 114.084 382.786 113.857 383.746 113.857ZM383.746 116.557C383.079 116.557 382.519 116.79 382.066 117.257C381.613 117.71 381.386 118.284 381.386 118.977C381.386 119.657 381.613 120.23 382.066 120.697C382.519 121.15 383.079 121.377 383.746 121.377C384.413 121.377 384.966 121.15 385.406 120.697C385.859 120.23 386.086 119.657 386.086 118.977C386.086 118.284 385.859 117.71 385.406 117.257C384.966 116.79 384.413 116.557 383.746 116.557ZM393.255 115.337C393.561 114.857 393.941 114.49 394.395 114.237C394.848 113.984 395.355 113.857 395.915 113.857C397.168 113.857 398.148 114.257 398.855 115.057C399.575 115.844 399.935 116.93 399.935 118.317V123.877H397.115V118.677C397.115 118.037 396.935 117.524 396.575 117.137C396.228 116.75 395.768 116.557 395.195 116.557C394.608 116.557 394.135 116.75 393.775 117.137C393.428 117.524 393.255 118.037 393.255 118.677V123.877H390.435V114.057H393.255V115.337Z" fill="#F6F6F6"></path>
  <path d="M305.156 62.0977H308.34L311.641 71.2578L314.941 62.0977H318.076L312.822 76.1016H310.439L305.156 62.0977ZM326.963 70.8574C326.963 71.2025 326.943 71.5378 326.904 71.8633H319.609C319.707 72.5013 319.984 73.0124 320.439 73.3965C320.895 73.7741 321.452 73.9629 322.109 73.9629C322.65 73.9629 323.089 73.8587 323.428 73.6504C323.773 73.4355 323.984 73.1523 324.062 72.8008H326.826C326.663 73.8555 326.159 74.7018 325.312 75.3398C324.466 75.9779 323.424 76.2969 322.188 76.2969C321.237 76.2969 320.365 76.0723 319.57 75.623C318.783 75.1673 318.161 74.5456 317.705 73.7578C317.249 72.9635 317.021 72.0911 317.021 71.1406C317.021 69.7148 317.513 68.5169 318.496 67.5469C319.486 66.5703 320.697 66.082 322.129 66.082C323.001 66.082 323.809 66.2904 324.551 66.707C325.293 67.1237 325.879 67.6999 326.309 68.4355C326.745 69.1712 326.963 69.9785 326.963 70.8574ZM319.746 70.0664H324.023C323.984 69.5781 323.77 69.1712 323.379 68.8457C322.988 68.5202 322.529 68.3574 322.002 68.3574C321.449 68.3574 320.977 68.5007 320.586 68.7871C320.195 69.0736 319.915 69.5 319.746 70.0664ZM333.896 66.082C334.098 66.082 334.414 66.1211 334.844 66.1992V68.7578C334.447 68.6667 334.105 68.6211 333.818 68.6211C333.096 68.6211 332.503 68.8457 332.041 69.2949C331.585 69.7376 331.357 70.3919 331.357 71.2578V76.1016H328.535V66.2773H331.357V67.4004C331.963 66.5215 332.809 66.082 333.896 66.082ZM342.607 68.9629H340.195V72.0586C340.195 72.5664 340.348 72.9473 340.654 73.2012C340.967 73.4551 341.38 73.582 341.895 73.582C342.168 73.582 342.406 73.556 342.607 73.5039V76.1016C342.204 76.2057 341.751 76.2578 341.25 76.2578C340.072 76.2578 339.131 75.89 338.428 75.1543C337.725 74.4186 337.373 73.3997 337.373 72.0977V68.9629H335.547V66.2773H337.373V63.6992H340.195V66.2773H342.607V68.9629ZM344.355 62.0293C344.694 61.6908 345.098 61.5215 345.566 61.5215C346.035 61.5215 346.439 61.6908 346.777 62.0293C347.116 62.3613 347.285 62.7585 347.285 63.2207C347.285 63.6895 347.116 64.0931 346.777 64.4316C346.439 64.7702 346.035 64.9395 345.566 64.9395C345.098 64.9395 344.694 64.7702 344.355 64.4316C344.017 64.0931 343.848 63.6895 343.848 63.2207C343.848 62.7585 344.017 62.3613 344.355 62.0293ZM344.16 66.2773H346.982V76.1016H344.16V66.2773ZM353.672 76.2969C352.22 76.2969 351.006 75.8118 350.029 74.8418C349.053 73.8717 348.564 72.6576 348.564 71.1992C348.564 69.7409 349.053 68.5234 350.029 67.5469C351.006 66.5703 352.22 66.082 353.672 66.082C354.902 66.082 355.977 66.4564 356.895 67.2051C357.812 67.9538 358.337 68.8913 358.467 70.0176H355.605C355.508 69.653 355.277 69.3568 354.912 69.1289C354.554 68.8945 354.141 68.7773 353.672 68.7773C353.001 68.7773 352.441 69.0085 351.992 69.4707C351.549 69.9264 351.328 70.5026 351.328 71.1992C351.328 71.8763 351.549 72.446 351.992 72.9082C352.441 73.3704 353.001 73.6016 353.672 73.6016C354.141 73.6016 354.557 73.4779 354.922 73.2305C355.293 72.9831 355.527 72.6673 355.625 72.2832H358.486C358.415 73.0514 358.154 73.7448 357.705 74.3633C357.256 74.9753 356.676 75.4505 355.967 75.7891C355.264 76.1276 354.499 76.2969 353.672 76.2969ZM367.129 66.2773H369.951V76.1016H367.129V74.7051C366.413 75.7663 365.371 76.2969 364.004 76.2969C363.171 76.2969 362.402 76.069 361.699 75.6133C361.003 75.151 360.452 74.5293 360.049 73.748C359.645 72.9603 359.443 72.1042 359.443 71.1797C359.443 70.2552 359.645 69.4023 360.049 68.6211C360.452 67.8333 361.003 67.2148 361.699 66.7656C362.402 66.3099 363.171 66.082 364.004 66.082C365.371 66.082 366.413 66.6159 367.129 67.6836V66.2773ZM364.668 73.6016C365.358 73.6016 365.941 73.3704 366.416 72.9082C366.891 72.4395 367.129 71.8633 367.129 71.1797C367.129 70.5026 366.891 69.9297 366.416 69.4609C365.941 68.9922 365.358 68.7578 364.668 68.7578C363.991 68.7578 363.411 68.9954 362.93 69.4707C362.448 69.9395 362.207 70.5091 362.207 71.1797C362.207 71.8568 362.445 72.4297 362.92 72.8984C363.402 73.3672 363.984 73.6016 364.668 73.6016ZM374.736 62.0977V76.1016H371.914V62.0977H374.736ZM379.561 62.0977V76.1016H376.738V62.0977H379.561ZM388.125 66.2773H391.162L385.703 79.3633H382.686L384.502 75.3008L380.723 66.2773H383.77L385.947 72.0195L388.125 66.2773ZM306.064 86.0977H309.023V100.102H306.064V86.0977ZM316.562 90.082C317.819 90.082 318.805 90.4792 319.521 91.2734C320.238 92.0612 320.596 93.1517 320.596 94.5449V100.102H317.773V94.9062C317.773 94.2682 317.594 93.7539 317.236 93.3633C316.885 92.9727 316.419 92.7773 315.84 92.7773C315.254 92.7773 314.782 92.9727 314.424 93.3633C314.072 93.7474 313.896 94.2617 313.896 94.9062V100.102H311.074V90.2773H313.896V91.5664C314.548 90.5768 315.436 90.082 316.562 90.082ZM328.506 92.9629H326.094V96.0586C326.094 96.5664 326.247 96.9473 326.553 97.2012C326.865 97.4551 327.279 97.582 327.793 97.582C328.066 97.582 328.304 97.556 328.506 97.5039V100.102C328.102 100.206 327.65 100.258 327.148 100.258C325.97 100.258 325.029 99.89 324.326 99.1543C323.623 98.4186 323.271 97.3997 323.271 96.0977V92.9629H321.445V90.2773H323.271V87.6992H326.094V90.2773H328.506V92.9629ZM339.15 94.8574C339.15 95.2025 339.131 95.5378 339.092 95.8633H331.797C331.895 96.5013 332.171 97.0124 332.627 97.3965C333.083 97.7741 333.639 97.9629 334.297 97.9629C334.837 97.9629 335.277 97.8587 335.615 97.6504C335.96 97.4355 336.172 97.1523 336.25 96.8008H339.014C338.851 97.8555 338.346 98.7018 337.5 99.3398C336.654 99.9779 335.612 100.297 334.375 100.297C333.424 100.297 332.552 100.072 331.758 99.623C330.97 99.1673 330.348 98.5456 329.893 97.7578C329.437 96.9635 329.209 96.0911 329.209 95.1406C329.209 93.7148 329.701 92.5169 330.684 91.5469C331.673 90.5703 332.884 90.082 334.316 90.082C335.189 90.082 335.996 90.2904 336.738 90.707C337.48 91.1237 338.066 91.6999 338.496 92.4355C338.932 93.1712 339.15 93.9785 339.15 94.8574ZM331.934 94.0664H336.211C336.172 93.5781 335.957 93.1712 335.566 92.8457C335.176 92.5202 334.717 92.3574 334.189 92.3574C333.636 92.3574 333.164 92.5007 332.773 92.7871C332.383 93.0736 332.103 93.5 331.934 94.0664ZM347.871 90.2578H350.693V99.6816C350.693 100.587 350.465 101.381 350.01 102.064C349.554 102.748 348.942 103.266 348.174 103.617C347.412 103.969 346.556 104.145 345.605 104.145C345.202 104.145 344.795 104.115 344.385 104.057C343.981 103.998 343.545 103.884 343.076 103.715C342.607 103.546 342.194 103.331 341.836 103.07C341.478 102.81 341.172 102.455 340.918 102.006C340.664 101.563 340.521 101.055 340.488 100.482H343.311C343.35 100.906 343.577 101.231 343.994 101.459C344.411 101.687 344.915 101.801 345.508 101.801C346.139 101.801 346.689 101.612 347.158 101.234C347.633 100.857 347.871 100.378 347.871 99.7988V98.3828C347.168 99.4115 346.126 99.9258 344.746 99.9258C343.913 99.9258 343.145 99.7044 342.441 99.2617C341.745 98.819 341.195 98.2201 340.791 97.4648C340.387 96.7096 340.186 95.8893 340.186 95.0039C340.186 94.112 340.387 93.2884 340.791 92.5332C341.195 91.778 341.745 91.1823 342.441 90.7461C343.145 90.3034 343.913 90.082 344.746 90.082C346.126 90.082 347.168 90.5964 347.871 91.625V90.2578ZM345.41 97.3184C346.1 97.3184 346.683 97.097 347.158 96.6543C347.633 96.2116 347.871 95.6615 347.871 95.0039C347.871 94.3464 347.633 93.793 347.158 93.3438C346.683 92.888 346.1 92.6602 345.41 92.6602C344.733 92.6602 344.154 92.888 343.672 93.3438C343.19 93.7995 342.949 94.3529 342.949 95.0039C342.949 95.6484 343.187 96.1953 343.662 96.6445C344.144 97.0938 344.727 97.3184 345.41 97.3184ZM358.018 90.082C358.219 90.082 358.535 90.1211 358.965 90.1992V92.7578C358.568 92.6667 358.226 92.6211 357.939 92.6211C357.217 92.6211 356.624 92.8457 356.162 93.2949C355.706 93.7376 355.479 94.3919 355.479 95.2578V100.102H352.656V90.2773H355.479V91.4004C356.084 90.5215 356.93 90.082 358.018 90.082ZM366.855 90.2773H369.678V100.102H366.855V98.7051C366.139 99.7663 365.098 100.297 363.73 100.297C362.897 100.297 362.129 100.069 361.426 99.6133C360.729 99.151 360.179 98.5293 359.775 97.748C359.372 96.9603 359.17 96.1042 359.17 95.1797C359.17 94.2552 359.372 93.4023 359.775 92.6211C360.179 91.8333 360.729 91.2148 361.426 90.7656C362.129 90.3099 362.897 90.082 363.73 90.082C365.098 90.082 366.139 90.6159 366.855 91.6836V90.2773ZM364.395 97.6016C365.085 97.6016 365.667 97.3704 366.143 96.9082C366.618 96.4395 366.855 95.8633 366.855 95.1797C366.855 94.5026 366.618 93.9297 366.143 93.4609C365.667 92.9922 365.085 92.7578 364.395 92.7578C363.717 92.7578 363.138 92.9954 362.656 93.4707C362.174 93.9395 361.934 94.5091 361.934 95.1797C361.934 95.8568 362.171 96.4297 362.646 96.8984C363.128 97.3672 363.711 97.6016 364.395 97.6016ZM377.9 92.9629H375.488V96.0586C375.488 96.5664 375.641 96.9473 375.947 97.2012C376.26 97.4551 376.673 97.582 377.188 97.582C377.461 97.582 377.699 97.556 377.9 97.5039V100.102C377.497 100.206 377.044 100.258 376.543 100.258C375.365 100.258 374.424 99.89 373.721 99.1543C373.018 98.4186 372.666 97.3997 372.666 96.0977V92.9629H370.84V90.2773H372.666V87.6992H375.488V90.2773H377.9V92.9629ZM388.545 94.8574C388.545 95.2025 388.525 95.5378 388.486 95.8633H381.191C381.289 96.5013 381.566 97.0124 382.021 97.3965C382.477 97.7741 383.034 97.9629 383.691 97.9629C384.232 97.9629 384.671 97.8587 385.01 97.6504C385.355 97.4355 385.566 97.1523 385.645 96.8008H388.408C388.245 97.8555 387.741 98.7018 386.895 99.3398C386.048 99.9779 385.007 100.297 383.77 100.297C382.819 100.297 381.947 100.072 381.152 99.623C380.365 99.1673 379.743 98.5456 379.287 97.7578C378.831 96.9635 378.604 96.0911 378.604 95.1406C378.604 93.7148 379.095 92.5169 380.078 91.5469C381.068 90.5703 382.279 90.082 383.711 90.082C384.583 90.082 385.391 90.2904 386.133 90.707C386.875 91.1237 387.461 91.6999 387.891 92.4355C388.327 93.1712 388.545 93.9785 388.545 94.8574ZM381.328 94.0664H385.605C385.566 93.5781 385.352 93.1712 384.961 92.8457C384.57 92.5202 384.111 92.3574 383.584 92.3574C383.031 92.3574 382.559 92.5007 382.168 92.7871C381.777 93.0736 381.497 93.5 381.328 94.0664ZM397.266 86.0977H400.088V100.102H397.266V98.7051C396.549 99.7663 395.508 100.297 394.141 100.297C393.307 100.297 392.539 100.069 391.836 99.6133C391.139 99.151 390.589 98.5293 390.186 97.748C389.782 96.9603 389.58 96.1042 389.58 95.1797C389.58 94.2552 389.782 93.4023 390.186 92.6211C390.589 91.8333 391.139 91.2148 391.836 90.7656C392.539 90.3099 393.307 90.082 394.141 90.082C395.508 90.082 396.549 90.6159 397.266 91.6836V86.0977ZM394.805 97.6016C395.495 97.6016 396.077 97.3704 396.553 96.9082C397.028 96.4395 397.266 95.8633 397.266 95.1797C397.266 94.5026 397.028 93.9297 396.553 93.4609C396.077 92.9922 395.495 92.7578 394.805 92.7578C394.128 92.7578 393.548 92.9954 393.066 93.4707C392.585 93.9395 392.344 94.5091 392.344 95.1797C392.344 95.8568 392.581 96.4297 393.057 96.8984C393.538 97.3672 394.121 97.6016 394.805 97.6016ZM405.674 97.7188L404.414 102.797H402.07L402.852 97.7188H405.674Z" fill="#F6F6F6"></path>
  <g clip-path="url(#clip0_1364_5992)">
    <path d="M125.779 124.28H46.94C46.4245 124.28 46 123.874 46 123.38C46 122.887 46.4245 122.48 46.94 122.48H125.779C126.295 122.48 126.719 122.887 126.719 123.38C126.719 123.874 126.295 124.28 125.779 124.28Z" fill="#F6F6F6"></path>
    <path d="M98.4873 124.281H74.2291C73.7136 124.281 73.2891 123.875 73.2891 123.382V116.125C73.2891 109.217 79.1565 103.615 86.3582 103.615C93.5598 103.615 99.4273 109.232 99.4273 116.125V123.382C99.4273 123.89 99.0028 124.281 98.4873 124.281ZM75.1691 122.467H97.5321V116.111C97.5321 110.204 92.5137 105.4 86.343 105.4C80.1723 105.4 75.1539 110.204 75.1539 116.111V122.467H75.1691Z" fill="#F6F6F6"></path>
    <path d="M118.2 93.8045C113.5 93.8045 109.68 90.1473 109.68 85.6484C109.68 81.1494 113.5 77.4922 118.2 77.4922C122.9 77.4922 126.721 81.1494 126.721 85.6484C126.721 90.1473 122.9 93.8045 118.2 93.8045ZM118.2 79.2918C114.546 79.2918 111.56 82.1363 111.56 85.6484C111.56 89.1605 114.531 92.005 118.2 92.005C121.869 92.005 124.841 89.1605 124.841 85.6484C124.841 82.1363 121.869 79.2918 118.2 79.2918Z" fill="#F6F6F6"></path>
    <path d="M118.196 87.0861C119.033 87.0861 119.712 86.4364 119.712 85.6349C119.712 84.8334 119.033 84.1836 118.196 84.1836C117.358 84.1836 116.68 84.8334 116.68 85.6349C116.68 86.4364 117.358 87.0861 118.196 87.0861Z" fill="#F6F6F6"></path>
    <path d="M86.3566 63.3269C81.6566 63.3269 77.8359 59.6696 77.8359 55.1707C77.8359 50.6717 81.6566 47 86.3566 47C91.0567 47 94.8773 50.6572 94.8773 55.1562C94.8773 59.6551 91.0567 63.3124 86.3566 63.3124V63.3269ZM86.3566 48.8141C82.7027 48.8141 79.7159 51.6586 79.7159 55.1707C79.7159 58.6828 82.6876 61.5273 86.3566 61.5273C90.0257 61.5273 92.9973 58.6828 92.9973 55.1707C92.9973 51.6586 90.0257 48.8141 86.3566 48.8141Z" fill="#F6F6F6"></path>
    <path d="M86.3599 56.6096C87.1972 56.6096 87.876 55.9598 87.876 55.1583C87.876 54.3568 87.1972 53.707 86.3599 53.707C85.5225 53.707 84.8438 54.3568 84.8438 55.1583C84.8438 55.9598 85.5225 56.6096 86.3599 56.6096Z" fill="#F6F6F6"></path>
    <path d="M54.5207 93.8045C49.8207 93.8045 46 90.1473 46 85.6484C46 81.1494 49.8207 77.4922 54.5207 77.4922C59.2207 77.4922 63.0414 81.1494 63.0414 85.6484C63.0414 90.1473 59.2207 93.8045 54.5207 93.8045ZM54.5207 79.2918C50.8668 79.2918 47.88 82.1363 47.88 85.6484C47.88 89.1605 50.8516 92.005 54.5207 92.005C58.1898 92.005 61.1614 89.1605 61.1614 85.6484C61.1614 82.1363 58.1898 79.2918 54.5207 79.2918Z" fill="#F6F6F6"></path>
    <path d="M54.524 87.0861C55.3613 87.0861 56.0401 86.4364 56.0401 85.6349C56.0401 84.8334 55.3613 84.1836 54.524 84.1836C53.6866 84.1836 53.0078 84.8334 53.0078 85.6349C53.0078 86.4364 53.6866 87.0861 54.524 87.0861Z" fill="#F6F6F6"></path>
    <path d="M91.8306 106.664C91.588 106.664 91.3455 106.577 91.1635 106.403C90.7997 106.055 90.7997 105.474 91.1635 105.126L110.237 86.8687C110.6 86.5203 111.207 86.5203 111.571 86.8687C111.935 87.217 111.935 87.7975 111.571 88.1458L92.4977 106.403C92.3158 106.577 92.0732 106.664 91.8306 106.664Z" fill="#F6F6F6"></path>
    <path d="M97.19 111.801C96.9474 111.801 96.7048 111.714 96.5229 111.54C96.159 111.191 96.159 110.611 96.5229 110.262L115.596 92.0054C115.96 91.6571 116.566 91.6571 116.93 92.0054C117.294 92.3537 117.294 92.9342 116.93 93.2825L97.8571 111.54C97.6752 111.714 97.4326 111.801 97.19 111.801Z" fill="#F6F6F6"></path>
    <path d="M61.8306 84.6901C61.588 84.6901 61.3455 84.603 61.1635 84.4288C60.7997 84.0805 60.7997 83.5 61.1635 83.1517L83.7692 61.5132C84.133 61.1649 84.7395 61.1649 85.1034 61.5132C85.4672 61.8615 85.4672 62.442 85.1034 62.7903L62.4977 84.4288C62.3158 84.603 62.0732 84.6901 61.8306 84.6901Z" fill="#F6F6F6"></path>
    <path d="M56.4634 79.567C56.2209 79.567 55.9783 79.4799 55.7963 79.3058C55.4325 78.9575 55.4325 78.377 55.7963 78.0287L78.402 56.3901C78.7658 56.0418 79.3723 56.0418 79.7362 56.3901C80.1 56.7384 80.1 57.319 79.7362 57.6673L57.1305 79.3058C56.9486 79.4799 56.706 79.567 56.4634 79.567Z" fill="#F6F6F6"></path>
    <path d="M110.905 84.6901C110.662 84.6901 110.42 84.603 110.238 84.4288L87.6323 62.7903C87.2684 62.442 87.2684 61.8615 87.6323 61.5132C87.9962 61.1649 88.6026 61.1649 88.9665 61.5132L111.572 83.1517C111.936 83.5 111.936 84.0805 111.572 84.4288C111.39 84.603 111.148 84.6901 110.905 84.6901Z" fill="#F6F6F6"></path>
    <path d="M116.272 79.567C116.03 79.567 115.787 79.4799 115.605 79.3058L92.9995 57.6673C92.6356 57.319 92.6356 56.7384 92.9995 56.3901C93.3633 56.0418 93.9698 56.0418 94.3337 56.3901L116.939 78.0287C117.303 78.377 117.303 78.9575 116.939 79.3058C116.757 79.4799 116.515 79.567 116.272 79.567Z" fill="#F6F6F6"></path>
    <path d="M66.6487 105.415C66.5426 105.415 66.4516 105.401 66.3455 105.372L57.2487 102.469C56.9151 102.368 56.6726 102.092 56.6119 101.772L54.929 92.9487C54.838 92.4553 55.1716 91.9764 55.6871 91.8893C56.1874 91.8022 56.6877 92.1215 56.7938 92.6149L58.3706 100.916L66.9368 103.645C67.4371 103.804 67.6949 104.312 67.5433 104.791C67.4068 105.168 67.0429 105.415 66.6487 105.415Z" fill="#F6F6F6"></path>
    <path d="M74.2256 98.1598C73.8314 98.1598 73.4523 97.9131 73.331 97.5358L70.4807 89.3361L61.8084 87.8267C61.2929 87.7397 60.9442 87.2608 61.0503 86.7673C61.1413 86.2739 61.6416 85.9401 62.1571 86.0417L71.3752 87.6526C71.7088 87.7106 71.9968 87.9429 72.103 88.2621L75.1352 96.9698C75.302 97.4487 75.0291 97.9567 74.5288 98.1163C74.4226 98.1453 74.3317 98.1598 74.2256 98.1598Z" fill="#F6F6F6"></path>
    <path d="M98.4873 117.026H74.2291C73.7136 117.026 73.2891 116.62 73.2891 116.126C73.2891 115.633 73.7136 115.227 74.2291 115.227H98.4873C99.0028 115.227 99.4273 115.633 99.4273 116.126C99.4273 116.62 99.0028 117.026 98.4873 117.026Z" fill="#F6F6F6"></path>
  </g>
  <defs>
    <clipPath id="clip0_1364_5992">
      <rect width="80.7344" height="77.2805" fill="white" transform="translate(46 47)"></rect>
    </clipPath>
  </defs>
</svg>
