<?xml version="1.0" encoding="UTF-8"?>
<svg xmlns="http://www.w3.org/2000/svg" width="326" height="309" viewBox="0 0 326 309" fill="none">
  <rect width="326" height="309" rx="20" fill="white"></rect>
  <path d="M129.966 205.48C127.822 205.48 125.838 205.08 124.014 204.28C122.222 203.448 120.766 202.248 119.646 200.68C118.526 199.08 117.902 197.208 117.774 195.064H124.926C125.214 196.152 125.79 197.016 126.654 197.656C127.55 198.264 128.654 198.568 129.966 198.568C131.374 198.568 132.542 198.088 133.47 197.128C134.43 196.168 134.91 195 134.91 193.624C134.91 192.152 134.446 190.952 133.518 190.024C132.59 189.096 131.406 188.632 129.966 188.632C129.006 188.632 128.11 188.792 127.278 189.112C126.478 189.432 125.838 189.896 125.358 190.504H119.118L120.654 171.4H139.998V178.12H127.038L126.414 184.12C126.99 183.704 127.71 183.368 128.574 183.112C129.47 182.856 130.414 182.728 131.406 182.728C133.454 182.728 135.294 183.176 136.926 184.072C138.558 184.936 139.838 186.216 140.766 187.912C141.726 189.576 142.206 191.544 142.206 193.816C142.206 196.056 141.662 198.072 140.574 199.864C139.486 201.624 138.014 203 136.158 203.992C134.302 204.984 132.238 205.48 129.966 205.48ZM158.734 205.48C156.014 205.48 153.662 204.76 151.678 203.32C149.694 201.88 148.174 199.864 147.118 197.272C146.094 194.68 145.582 191.656 145.582 188.2C145.582 184.744 146.094 181.72 147.118 179.128C148.174 176.504 149.694 174.488 151.678 173.08C153.662 171.64 156.014 170.92 158.734 170.92C161.454 170.92 163.79 171.64 165.742 173.08C167.726 174.488 169.23 176.504 170.254 179.128C171.31 181.72 171.838 184.744 171.838 188.2C171.838 191.656 171.31 194.68 170.254 197.272C169.23 199.864 167.726 201.88 165.742 203.32C163.79 204.76 161.454 205.48 158.734 205.48ZM158.734 198.568C160.59 198.568 162.014 197.704 163.006 195.976C164.03 194.248 164.542 191.656 164.542 188.2C164.542 184.744 164.03 182.152 163.006 180.424C162.014 178.696 160.59 177.832 158.734 177.832C156.878 177.832 155.438 178.696 154.414 180.424C153.39 182.12 152.878 184.712 152.878 188.2C152.878 191.688 153.39 194.296 154.414 196.024C155.438 197.72 156.878 198.568 158.734 198.568ZM188.64 205.48C185.92 205.48 183.568 204.76 181.584 203.32C179.6 201.88 178.08 199.864 177.024 197.272C176 194.68 175.488 191.656 175.488 188.2C175.488 184.744 176 181.72 177.024 179.128C178.08 176.504 179.6 174.488 181.584 173.08C183.568 171.64 185.92 170.92 188.64 170.92C191.36 170.92 193.696 171.64 195.648 173.08C197.632 174.488 199.136 176.504 200.16 179.128C201.216 181.72 201.744 184.744 201.744 188.2C201.744 191.656 201.216 194.68 200.16 197.272C199.136 199.864 197.632 201.88 195.648 203.32C193.696 204.76 191.36 205.48 188.64 205.48ZM188.64 198.568C190.496 198.568 191.92 197.704 192.912 195.976C193.936 194.248 194.448 191.656 194.448 188.2C194.448 184.744 193.936 182.152 192.912 180.424C191.92 178.696 190.496 177.832 188.64 177.832C186.784 177.832 185.344 178.696 184.32 180.424C183.296 182.12 182.784 184.712 182.784 188.2C182.784 191.688 183.296 194.296 184.32 196.024C185.344 197.72 186.784 198.568 188.64 198.568ZM102.01 243.232C103.226 243.232 104.234 242.848 105.034 242.08C105.866 241.312 106.282 240.336 106.282 239.152C106.282 238.032 105.866 237.104 105.034 236.368C104.234 235.6 103.226 235.216 102.01 235.216H96.3456V243.232H102.01ZM102.01 228.4C104.186 228.4 106.138 228.864 107.866 229.792C109.626 230.72 110.986 232 111.946 233.632C112.938 235.264 113.434 237.104 113.434 239.152C113.434 241.232 112.938 243.104 111.946 244.768C110.986 246.4 109.626 247.696 107.866 248.656C106.138 249.584 104.186 250.048 102.01 250.048H96.3456V262H89.2416V228.4H102.01ZM126.618 262.48C124.346 262.48 122.266 261.936 120.378 260.848C118.49 259.76 117.002 258.272 115.914 256.384C114.826 254.464 114.282 252.368 114.282 250.096C114.282 247.856 114.81 245.808 115.866 243.952C116.954 242.096 118.426 240.64 120.282 239.584C122.17 238.496 124.25 237.952 126.522 237.952C128.634 237.952 130.57 238.464 132.33 239.488C134.122 240.48 135.53 241.856 136.554 243.616C137.61 245.376 138.138 247.328 138.138 249.472C138.138 250.368 138.09 251.2 137.994 251.968H120.57C120.826 253.472 121.482 254.656 122.538 255.52C123.626 256.384 124.954 256.816 126.522 256.816C127.77 256.816 128.794 256.576 129.594 256.096C130.426 255.584 130.954 254.912 131.178 254.08H137.802C137.418 256.64 136.202 258.688 134.154 260.224C132.106 261.728 129.594 262.48 126.618 262.48ZM131.034 247.456C130.906 246.304 130.378 245.36 129.45 244.624C128.554 243.888 127.466 243.52 126.186 243.52C124.874 243.52 123.754 243.856 122.826 244.528C121.898 245.168 121.242 246.144 120.858 247.456H131.034ZM153.006 237.952C155.278 237.952 157.342 238.496 159.198 239.584C161.086 240.64 162.558 242.112 163.614 244C164.702 245.856 165.246 247.936 165.246 250.24C165.246 252.544 164.702 254.624 163.614 256.48C162.558 258.336 161.086 259.808 159.198 260.896C157.342 261.952 155.278 262.48 153.006 262.48C150.702 262.48 148.622 261.952 146.766 260.896C144.91 259.808 143.438 258.336 142.35 256.48C141.294 254.624 140.766 252.544 140.766 250.24C140.766 247.936 141.294 245.856 142.35 244C143.438 242.112 144.91 240.64 146.766 239.584C148.622 238.496 150.702 237.952 153.006 237.952ZM153.006 244.432C151.406 244.432 150.062 244.992 148.974 246.112C147.886 247.2 147.342 248.576 147.342 250.24C147.342 251.872 147.886 253.248 148.974 254.368C150.062 255.456 151.406 256 153.006 256C154.606 256 155.934 255.456 156.99 254.368C158.078 253.248 158.622 251.872 158.622 250.24C158.622 248.576 158.078 247.2 156.99 246.112C155.934 244.992 154.606 244.432 153.006 244.432ZM183.267 237.952C185.251 237.952 187.075 238.496 188.739 239.584C190.435 240.672 191.763 242.16 192.723 244.048C193.715 245.936 194.211 247.984 194.211 250.192C194.211 252.4 193.715 254.448 192.723 256.336C191.763 258.224 190.435 259.728 188.739 260.848C187.075 261.936 185.251 262.48 183.267 262.48C181.635 262.48 180.195 262.16 178.947 261.52C177.699 260.88 176.659 259.936 175.827 258.688V271.552H169.059V238.432H175.827V241.744C176.659 240.496 177.699 239.552 178.947 238.912C180.195 238.272 181.635 237.952 183.267 237.952ZM181.731 244.384C180.067 244.384 178.659 244.944 177.507 246.064C176.387 247.184 175.827 248.56 175.827 250.192C175.827 251.856 176.387 253.248 177.507 254.368C178.627 255.456 180.035 256 181.731 256C183.363 256 184.739 255.44 185.859 254.32C187.011 253.2 187.587 251.824 187.587 250.192C187.587 248.592 187.011 247.232 185.859 246.112C184.739 244.96 183.363 244.384 181.731 244.384ZM198.027 228.4H204.795V262H198.027V228.4ZM220.93 262.48C218.658 262.48 216.578 261.936 214.69 260.848C212.802 259.76 211.314 258.272 210.226 256.384C209.138 254.464 208.594 252.368 208.594 250.096C208.594 247.856 209.122 245.808 210.178 243.952C211.266 242.096 212.738 240.64 214.594 239.584C216.482 238.496 218.562 237.952 220.834 237.952C222.946 237.952 224.882 238.464 226.642 239.488C228.434 240.48 229.842 241.856 230.866 243.616C231.922 245.376 232.45 247.328 232.45 249.472C232.45 250.368 232.402 251.2 232.306 251.968H214.882C215.138 253.472 215.794 254.656 216.85 255.52C217.938 256.384 219.266 256.816 220.834 256.816C222.082 256.816 223.106 256.576 223.906 256.096C224.738 255.584 225.266 254.912 225.49 254.08H232.114C231.73 256.64 230.514 258.688 228.466 260.224C226.418 261.728 223.906 262.48 220.93 262.48ZM225.346 247.456C225.218 246.304 224.69 245.36 223.762 244.624C222.866 243.888 221.778 243.52 220.498 243.52C219.186 243.52 218.066 243.856 217.138 244.528C216.21 245.168 215.554 246.144 215.17 247.456H225.346Z" fill="#A9B897"></path>
  <path d="M120.205 110H115.59L114.329 106.646H106.589L105.299 110H100.799L108.768 89.9341H112.208L120.205 110ZM112.896 102.948L110.488 96.5845L108.023 102.948H112.896ZM134.369 115.79C133.337 115.79 132.276 115.638 131.187 115.332C130.117 115.026 129.18 114.481 128.378 113.698C127.575 112.914 127.136 111.863 127.059 110.545H131.072C131.149 111.156 131.483 111.624 132.076 111.949C132.668 112.274 133.385 112.437 134.226 112.437C135.143 112.437 135.936 112.169 136.605 111.634C137.274 111.099 137.608 110.411 137.608 109.57V107.621C136.595 109.111 135.114 109.857 133.165 109.857C131.961 109.857 130.853 109.541 129.84 108.911C128.846 108.261 128.053 107.391 127.46 106.302C126.887 105.213 126.6 104.028 126.6 102.748C126.6 101.448 126.887 100.254 127.46 99.1644C128.053 98.0751 128.846 97.2152 129.84 96.5845C130.853 95.9539 131.961 95.6386 133.165 95.6386C135.114 95.6386 136.595 96.3743 137.608 97.8458V95.9252H141.65V109.398C141.65 110.698 141.325 111.825 140.675 112.781C140.045 113.755 139.175 114.5 138.067 115.016C136.977 115.532 135.745 115.79 134.369 115.79ZM134.082 106.13C135.076 106.13 135.907 105.805 136.576 105.156C137.264 104.506 137.608 103.703 137.608 102.748C137.608 101.773 137.264 100.961 136.576 100.311C135.907 99.6613 135.076 99.3364 134.082 99.3364C133.108 99.3364 132.276 99.6709 131.588 100.34C130.9 100.989 130.556 101.792 130.556 102.748C130.556 103.684 130.9 104.487 131.588 105.156C132.276 105.805 133.108 106.13 134.082 106.13ZM144.56 95.9252H148.602V97.5878C149.003 96.9763 149.519 96.4985 150.15 96.1545C150.78 95.8106 151.478 95.6386 152.242 95.6386C152.548 95.6386 152.988 95.6959 153.561 95.8106V99.4797C153.026 99.346 152.548 99.2791 152.128 99.2791C151.096 99.2791 150.245 99.604 149.576 100.254C148.927 100.884 148.602 101.821 148.602 103.063V110H144.56V95.9252ZM161.483 95.6386C162.84 95.6386 164.073 95.9634 165.181 96.6132C166.309 97.2438 167.188 98.1229 167.818 99.2504C168.468 100.359 168.793 101.601 168.793 102.977C168.793 104.353 168.468 105.595 167.818 106.703C167.188 107.812 166.309 108.691 165.181 109.341C164.073 109.971 162.84 110.287 161.483 110.287C160.107 110.287 158.865 109.971 157.757 109.341C156.648 108.691 155.769 107.812 155.12 106.703C154.489 105.595 154.174 104.353 154.174 102.977C154.174 101.601 154.489 100.359 155.12 99.2504C155.769 98.1229 156.648 97.2438 157.757 96.6132C158.865 95.9634 160.107 95.6386 161.483 95.6386ZM161.483 99.5084C160.528 99.5084 159.725 99.8428 159.075 100.512C158.426 101.161 158.101 101.983 158.101 102.977C158.101 103.952 158.426 104.773 159.075 105.442C159.725 106.092 160.528 106.417 161.483 106.417C162.439 106.417 163.232 106.092 163.863 105.442C164.512 104.773 164.837 103.952 164.837 102.977C164.837 101.983 164.512 101.161 163.863 100.512C163.232 99.8428 162.439 99.5084 161.483 99.5084ZM169.163 95.9252H173.491L175.842 103.636L178.651 95.9252H181.804L184.642 103.636L186.964 95.9252H191.321L186.247 110H183.066L180.228 102.289L177.361 110H174.237L169.163 95.9252ZM197.003 95.9252V110H192.961V95.9252H197.003ZM194.968 94.0046C194.299 94.0046 193.716 93.7658 193.219 93.288C192.741 92.8102 192.502 92.2369 192.502 91.5681C192.502 90.8992 192.741 90.3259 193.219 89.8481C193.716 89.3513 194.299 89.1028 194.968 89.1028C195.656 89.1028 196.238 89.3513 196.716 89.8481C197.194 90.3259 197.433 90.8992 197.433 91.5681C197.433 92.2369 197.194 92.8102 196.716 93.288C196.238 93.7658 195.656 94.0046 194.968 94.0046ZM204.001 97.7598C204.441 97.0718 204.985 96.5463 205.635 96.1832C206.285 95.8201 207.011 95.6386 207.814 95.6386C209.61 95.6386 211.015 96.2119 212.028 97.3585C213.06 98.486 213.576 100.044 213.576 102.031V110H209.534V102.547C209.534 101.63 209.276 100.894 208.76 100.34C208.263 99.7855 207.604 99.5084 206.782 99.5084C205.941 99.5084 205.263 99.7855 204.747 100.34C204.25 100.894 204.001 101.63 204.001 102.547V110H199.959V95.9252H204.001V97.7598ZM223.501 115.79C222.469 115.79 221.408 115.638 220.319 115.332C219.249 115.026 218.312 114.481 217.51 113.698C216.707 112.914 216.267 111.863 216.191 110.545H220.204C220.281 111.156 220.615 111.624 221.207 111.949C221.8 112.274 222.517 112.437 223.357 112.437C224.275 112.437 225.068 112.169 225.737 111.634C226.406 111.099 226.74 110.411 226.74 109.57V107.621C225.727 109.111 224.246 109.857 222.297 109.857C221.093 109.857 219.984 109.541 218.972 108.911C217.978 108.261 217.185 107.391 216.592 106.302C216.019 105.213 215.732 104.028 215.732 102.748C215.732 101.448 216.019 100.254 216.592 99.1644C217.185 98.0751 217.978 97.2152 218.972 96.5845C219.984 95.9539 221.093 95.6386 222.297 95.6386C224.246 95.6386 225.727 96.3743 226.74 97.8458V95.9252H230.782V109.398C230.782 110.698 230.457 111.825 229.807 112.781C229.177 113.755 228.307 114.5 227.199 115.016C226.109 115.532 224.877 115.79 223.501 115.79ZM223.214 106.13C224.208 106.13 225.039 105.805 225.708 105.156C226.396 104.506 226.74 103.703 226.74 102.748C226.74 101.773 226.396 100.961 225.708 100.311C225.039 99.6613 224.208 99.3364 223.214 99.3364C222.239 99.3364 221.408 99.6709 220.72 100.34C220.032 100.989 219.688 101.792 219.688 102.748C219.688 103.684 220.032 104.487 220.72 105.156C221.408 105.805 222.239 106.13 223.214 106.13ZM84.514 144.287C83.1572 144.287 81.9246 143.971 80.8162 143.341C79.7078 142.691 78.8287 141.812 78.1789 140.703C77.5483 139.595 77.233 138.353 77.233 136.977C77.233 135.601 77.5483 134.359 78.1789 133.25C78.8287 132.123 79.7078 131.244 80.8162 130.613C81.9246 129.963 83.1572 129.639 84.514 129.639C85.6797 129.639 86.769 129.887 87.7819 130.384C88.7947 130.862 89.626 131.53 90.2758 132.39C90.9255 133.25 91.3077 134.215 91.4224 135.286H87.2946C87.1417 134.77 86.8073 134.349 86.2913 134.024C85.7753 133.68 85.1829 133.508 84.514 133.508C83.5585 133.508 82.7654 133.843 82.1348 134.512C81.5041 135.161 81.1888 135.983 81.1888 136.977C81.1888 137.952 81.5041 138.773 82.1348 139.442C82.7845 140.092 83.5776 140.417 84.514 140.417C85.202 140.417 85.804 140.245 86.3199 139.901C86.855 139.538 87.199 139.079 87.3519 138.525H91.4224C91.3268 139.614 90.9542 140.598 90.3044 141.477C89.6738 142.357 88.8425 143.044 87.8105 143.541C86.7977 144.038 85.6989 144.287 84.514 144.287ZM100.219 129.639C101.576 129.639 102.809 129.963 103.917 130.613C105.045 131.244 105.924 132.123 106.554 133.25C107.204 134.359 107.529 135.601 107.529 136.977C107.529 138.353 107.204 139.595 106.554 140.703C105.924 141.812 105.045 142.691 103.917 143.341C102.809 143.971 101.576 144.287 100.219 144.287C98.8432 144.287 97.601 143.971 96.4926 143.341C95.3842 142.691 94.5051 141.812 93.8554 140.703C93.2247 139.595 92.9094 138.353 92.9094 136.977C92.9094 135.601 93.2247 134.359 93.8554 133.25C94.5051 132.123 95.3842 131.244 96.4926 130.613C97.601 129.963 98.8432 129.639 100.219 129.639ZM100.219 133.508C99.2636 133.508 98.461 133.843 97.8112 134.512C97.1615 135.161 96.8366 135.983 96.8366 136.977C96.8366 137.952 97.1615 138.773 97.8112 139.442C98.461 140.092 99.2636 140.417 100.219 140.417C101.175 140.417 101.968 140.092 102.598 139.442C103.248 138.773 103.573 137.952 103.573 136.977C103.573 135.983 103.248 135.161 102.598 134.512C101.968 133.843 101.175 133.508 100.219 133.508ZM131.821 144H127.779V136.203C127.779 135.381 127.559 134.731 127.12 134.254C126.68 133.757 126.097 133.508 125.371 133.508C124.645 133.508 124.033 133.747 123.537 134.225C123.059 134.684 122.82 135.343 122.82 136.203V144H118.778V136.203C118.778 135.381 118.558 134.731 118.119 134.254C117.679 133.757 117.077 133.508 116.313 133.508C115.625 133.508 115.042 133.747 114.564 134.225C114.086 134.684 113.848 135.343 113.848 136.203V144H109.806V129.925H113.848V131.588C114.325 130.9 114.927 130.403 115.654 130.097C116.38 129.791 117.115 129.639 117.861 129.639C118.778 129.639 119.562 129.811 120.211 130.155C120.88 130.479 121.425 130.995 121.845 131.702C122.266 131.091 122.858 130.594 123.623 130.212C124.387 129.83 125.209 129.639 126.088 129.639C127.196 129.639 128.18 129.877 129.04 130.355C129.919 130.814 130.598 131.464 131.076 132.304C131.572 133.145 131.821 134.13 131.821 135.257V144ZM156.651 144H152.609V136.203C152.609 135.381 152.39 134.731 151.95 134.254C151.511 133.757 150.928 133.508 150.202 133.508C149.475 133.508 148.864 133.747 148.367 134.225C147.889 134.684 147.65 135.343 147.65 136.203V144H143.608V136.203C143.608 135.381 143.389 134.731 142.949 134.254C142.51 133.757 141.908 133.508 141.143 133.508C140.455 133.508 139.872 133.747 139.395 134.225C138.917 134.684 138.678 135.343 138.678 136.203V144H134.636V129.925H138.678V131.588C139.156 130.9 139.758 130.403 140.484 130.097C141.21 129.791 141.946 129.639 142.691 129.639C143.608 129.639 144.392 129.811 145.042 130.155C145.711 130.479 146.255 130.995 146.676 131.702C147.096 131.091 147.689 130.594 148.453 130.212C149.217 129.83 150.039 129.639 150.918 129.639C152.027 129.639 153.011 129.877 153.871 130.355C154.75 130.814 155.428 131.464 155.906 132.304C156.403 133.145 156.651 134.13 156.651 135.257V144ZM168.869 142.165C168.41 142.853 167.856 143.379 167.206 143.742C166.576 144.105 165.859 144.287 165.056 144.287C163.26 144.287 161.846 143.713 160.814 142.567C159.782 141.42 159.266 139.853 159.266 137.866V129.925H163.308V137.35C163.308 138.286 163.556 139.031 164.053 139.586C164.569 140.14 165.247 140.417 166.088 140.417C166.929 140.417 167.598 140.14 168.095 139.586C168.611 139.031 168.869 138.286 168.869 137.35V129.925H172.911V144H168.869V142.165ZM179.941 131.76C180.38 131.072 180.925 130.546 181.575 130.183C182.224 129.82 182.951 129.639 183.753 129.639C185.55 129.639 186.954 130.212 187.967 131.359C188.999 132.486 189.515 134.044 189.515 136.031V144H185.473V136.547C185.473 135.63 185.215 134.894 184.699 134.34C184.202 133.786 183.543 133.508 182.721 133.508C181.88 133.508 181.202 133.786 180.686 134.34C180.189 134.894 179.941 135.63 179.941 136.547V144H175.899V129.925H179.941V131.76ZM196.373 129.925V144H192.331V129.925H196.373ZM194.338 128.005C193.669 128.005 193.086 127.766 192.589 127.288C192.111 126.81 191.872 126.237 191.872 125.568C191.872 124.899 192.111 124.326 192.589 123.848C193.086 123.351 193.669 123.103 194.338 123.103C195.026 123.103 195.609 123.351 196.086 123.848C196.564 124.326 196.803 124.899 196.803 125.568C196.803 126.237 196.564 126.81 196.086 127.288C195.609 127.766 195.026 128.005 194.338 128.005ZM206.295 144.201C204.614 144.201 203.266 143.675 202.253 142.624C201.26 141.573 200.763 140.121 200.763 138.267V133.766H198.154V129.925H200.763V126.227H204.805V129.925H208.273V133.766H204.805V138.21C204.805 138.936 205.024 139.48 205.464 139.843C205.903 140.207 206.496 140.388 207.241 140.388C207.643 140.388 207.987 140.35 208.273 140.273V144C207.757 144.134 207.098 144.201 206.295 144.201ZM214.401 142.853L208.983 129.925H213.34L216.465 138.152L219.589 129.925H223.947L215.662 149.733H211.305L214.401 142.853ZM237.78 129.639C239.137 129.639 240.37 129.963 241.478 130.613C242.605 131.244 243.485 132.123 244.115 133.25C244.765 134.359 245.09 135.601 245.09 136.977C245.09 138.353 244.765 139.595 244.115 140.703C243.485 141.812 242.605 142.691 241.478 143.341C240.37 143.971 239.137 144.287 237.78 144.287C236.404 144.287 235.162 143.971 234.054 143.341C232.945 142.691 232.066 141.812 231.416 140.703C230.786 139.595 230.47 138.353 230.47 136.977C230.47 135.601 230.786 134.359 231.416 133.25C232.066 132.123 232.945 131.244 234.054 130.613C235.162 129.963 236.404 129.639 237.78 129.639ZM237.78 133.508C236.825 133.508 236.022 133.843 235.372 134.512C234.722 135.161 234.398 135.983 234.398 136.977C234.398 137.952 234.722 138.773 235.372 139.442C236.022 140.092 236.825 140.417 237.78 140.417C238.736 140.417 239.529 140.092 240.159 139.442C240.809 138.773 241.134 137.952 241.134 136.977C241.134 135.983 240.809 135.161 240.159 134.512C239.529 133.843 238.736 133.508 237.78 133.508ZM248.663 129.151C248.663 127.298 249.16 125.845 250.153 124.794C251.166 123.743 252.513 123.217 254.195 123.217C254.94 123.217 255.6 123.294 256.173 123.447V127.173C255.886 127.097 255.542 127.059 255.141 127.059C254.396 127.059 253.803 127.24 253.364 127.603C252.924 127.966 252.705 128.511 252.705 129.237V129.925H256.173V133.766H252.705V144H248.663V133.766H246.054V129.925H248.663V129.151Z" fill="#4F6D5D"></path>
  <rect x="111.634" y="40.6336" width="96.7327" height="25.9549" rx="3.59291" stroke="#4F6D5D" stroke-width="1.26728"></rect>
  <mask id="mask0_1364_6123" style="mask-type:alpha" maskUnits="userSpaceOnUse" x="179" y="40" width="27" height="26">
    <rect x="179.969" y="40.0176" width="25.4074" height="25.4074" fill="#D9D9D9"></rect>
  </mask>
  <g mask="url(#mask0_1364_6123)">
    <path d="M188.169 82.362V71.0015C187.143 71.0015 186.312 70.1706 186.312 69.1454V62.6209C186.312 59.4216 188.906 56.8281 192.105 56.8281C195.305 56.8281 197.898 59.4216 197.898 62.6209V69.1454C197.898 70.1706 197.067 71.0015 196.042 71.0015V82.362" stroke="#4F6D5D" stroke-width="1.26728" stroke-miterlimit="10"></path>
    <path d="M192.112 54.3922C194.327 54.3922 196.123 52.5966 196.123 50.3816C196.123 48.1667 194.327 46.3711 192.112 46.3711C189.897 46.3711 188.102 48.1667 188.102 50.3816C188.102 52.5966 189.897 54.3922 192.112 54.3922Z" stroke="#4F6D5D" stroke-width="1.26728" stroke-miterlimit="10"></path>
  </g>
  <mask id="mask1_1364_6123" style="mask-type:alpha" maskUnits="userSpaceOnUse" x="167" y="40" width="26" height="26">
    <rect x="167.266" y="40.0176" width="25.4074" height="25.4074" fill="#D9D9D9"></rect>
  </mask>
  <g mask="url(#mask1_1364_6123)">
    <path d="M175.466 82.36V70.9996C174.44 70.9996 173.609 70.1687 173.609 69.1434V62.6189C173.609 59.4196 176.203 56.8262 179.402 56.8262C182.601 56.8262 185.195 59.4196 185.195 62.6189V69.1434C185.195 70.1687 184.364 70.9996 183.339 70.9996V82.36" stroke="#4F6D5D" stroke-width="1.26728" stroke-miterlimit="10"></path>
    <path d="M179.409 54.3902C181.624 54.3902 183.42 52.5946 183.42 50.3797C183.42 48.1647 181.624 46.3691 179.409 46.3691C177.194 46.3691 175.398 48.1647 175.398 50.3797C175.398 52.5946 177.194 54.3902 179.409 54.3902Z" stroke="#4F6D5D" stroke-width="1.26728" stroke-miterlimit="10"></path>
  </g>
  <mask id="mask2_1364_6123" style="mask-type:alpha" maskUnits="userSpaceOnUse" x="154" y="40" width="26" height="26">
    <rect x="154.547" y="40.0176" width="25.4074" height="25.4074" fill="#D9D9D9"></rect>
  </mask>
  <g mask="url(#mask2_1364_6123)">
    <path d="M162.747 82.362V71.0015C161.722 71.0015 160.891 70.1706 160.891 69.1454V62.6209C160.891 59.4216 163.484 56.8281 166.683 56.8281C169.883 56.8281 172.476 59.4216 172.476 62.6209V69.1454C172.476 70.1706 171.645 71.0015 170.62 71.0015V82.362" stroke="#4F6D5D" stroke-width="1.26728" stroke-miterlimit="10"></path>
    <path d="M166.69 54.3922C168.905 54.3922 170.701 52.5966 170.701 50.3816C170.701 48.1667 168.905 46.3711 166.69 46.3711C164.475 46.3711 162.68 48.1667 162.68 50.3816C162.68 52.5966 164.475 54.3922 166.69 54.3922Z" stroke="#4F6D5D" stroke-width="1.26728" stroke-miterlimit="10"></path>
  </g>
  <mask id="mask3_1364_6123" style="mask-type:alpha" maskUnits="userSpaceOnUse" x="141" y="40" width="27" height="26">
    <rect x="141.852" y="40.0176" width="25.4074" height="25.4074" fill="#D9D9D9"></rect>
  </mask>
  <g mask="url(#mask3_1364_6123)">
    <path d="M150.083 82.36V70.9996C149.057 70.9996 148.227 70.1687 148.227 69.1434V62.6189C148.227 59.4196 150.82 56.8262 154.019 56.8262C157.219 56.8262 159.812 59.4196 159.812 62.6189V69.1434C159.812 70.1687 158.981 70.9996 157.956 70.9996V82.36" stroke="#4F6D5D" stroke-width="1.26728" stroke-miterlimit="10"></path>
    <path d="M154.026 54.3902C156.241 54.3902 158.037 52.5946 158.037 50.3797C158.037 48.1647 156.241 46.3691 154.026 46.3691C151.811 46.3691 150.016 48.1647 150.016 50.3797C150.016 52.5946 151.811 54.3902 154.026 54.3902Z" stroke="#4F6D5D" stroke-width="1.26728" stroke-miterlimit="10"></path>
  </g>
  <mask id="mask4_1364_6123" style="mask-type:alpha" maskUnits="userSpaceOnUse" x="129" y="40" width="26" height="26">
    <rect x="129.141" y="40.0176" width="25.4074" height="25.4074" fill="#D9D9D9"></rect>
  </mask>
  <g mask="url(#mask4_1364_6123)">
    <path d="M137.348 82.362V71.0015C136.323 71.0015 135.492 70.1706 135.492 69.1454V62.6209C135.492 59.4216 138.086 56.8281 141.285 56.8281C144.484 56.8281 147.078 59.4216 147.078 62.6209V69.1454C147.078 70.1706 146.247 71.0015 145.221 71.0015V82.362" stroke="#4F6D5D" stroke-width="1.26728" stroke-miterlimit="10"></path>
    <path d="M141.292 54.3922C143.507 54.3922 145.302 52.5966 145.302 50.3816C145.302 48.1667 143.507 46.3711 141.292 46.3711C139.077 46.3711 137.281 48.1667 137.281 50.3816C137.281 52.5966 139.077 54.3922 141.292 54.3922Z" stroke="#4F6D5D" stroke-width="1.26728" stroke-miterlimit="10"></path>
  </g>
  <mask id="mask5_1364_6123" style="mask-type:alpha" maskUnits="userSpaceOnUse" x="116" y="40" width="26" height="26">
    <rect x="116.438" y="40.0176" width="25.4074" height="25.4074" fill="#D9D9D9"></rect>
  </mask>
  <g mask="url(#mask5_1364_6123)">
    <path d="M124.645 82.36V70.9996C123.62 70.9996 122.789 70.1687 122.789 69.1434V62.6189C122.789 59.4196 125.382 56.8262 128.582 56.8262C131.781 56.8262 134.375 59.4196 134.375 62.6189V69.1434C134.375 70.1687 133.544 70.9996 132.518 70.9996V82.36" stroke="#4F6D5D" stroke-width="1.26728" stroke-miterlimit="10"></path>
    <path d="M128.589 54.3902C130.804 54.3902 132.599 52.5946 132.599 50.3797C132.599 48.1647 130.804 46.3691 128.589 46.3691C126.374 46.3691 124.578 48.1647 124.578 50.3797C124.578 52.5946 126.374 54.3902 128.589 54.3902Z" stroke="#4F6D5D" stroke-width="1.26728" stroke-miterlimit="10"></path>
  </g>
</svg>
