<?xml version="1.0" encoding="UTF-8"?>
<svg xmlns="http://www.w3.org/2000/svg" width="776" height="185" viewBox="0 0 776 185" fill="none">
  <rect width="776" height="185" rx="20" fill="#EBF1E0"></rect>
  <path d="M21.736 117.4H29.268C30.3507 117.4 31.368 117.671 32.32 118.212C33.272 118.753 34.028 119.491 34.588 120.424C35.1667 121.339 35.456 122.347 35.456 123.448C35.456 124.717 35.176 125.819 34.616 126.752C34.0747 127.685 33.3093 128.395 32.32 128.88L37.472 137H32.432L28.008 129.524H25.88V137H21.736V117.4ZM28.708 125.464C29.4733 125.464 30.0707 125.287 30.5 124.932C30.9293 124.577 31.144 124.083 31.144 123.448C31.144 122.832 30.9293 122.356 30.5 122.02C30.0707 121.665 29.4733 121.488 28.708 121.488H25.88V125.464H28.708ZM44.4136 137.28C43.0883 137.28 41.8749 136.963 40.7736 136.328C39.6723 135.693 38.8043 134.825 38.1696 133.724C37.5349 132.604 37.2176 131.381 37.2176 130.056C37.2176 128.749 37.5256 127.555 38.1416 126.472C38.7763 125.389 39.6349 124.54 40.7176 123.924C41.8189 123.289 43.0323 122.972 44.3576 122.972C45.5896 122.972 46.7189 123.271 47.7456 123.868C48.7909 124.447 49.6123 125.249 50.2096 126.276C50.8256 127.303 51.1336 128.441 51.1336 129.692C51.1336 130.215 51.1056 130.7 51.0496 131.148H40.8856C41.0349 132.025 41.4176 132.716 42.0336 133.22C42.6683 133.724 43.4429 133.976 44.3576 133.976C45.0856 133.976 45.6829 133.836 46.1496 133.556C46.6349 133.257 46.9429 132.865 47.0736 132.38H50.9376C50.7136 133.873 50.0043 135.068 48.8096 135.964C47.6149 136.841 46.1496 137.28 44.4136 137.28ZM46.9896 128.516C46.9149 127.844 46.6069 127.293 46.0656 126.864C45.5429 126.435 44.9083 126.22 44.1616 126.22C43.3963 126.22 42.7429 126.416 42.2016 126.808C41.6603 127.181 41.2776 127.751 41.0536 128.516H46.9896ZM59.7788 137.28C58.4535 137.28 57.2495 136.972 56.1668 136.356C55.0841 135.721 54.2255 134.863 53.5908 133.78C52.9748 132.697 52.6668 131.484 52.6668 130.14C52.6668 128.796 52.9748 127.583 53.5908 126.5C54.2255 125.399 55.0841 124.54 56.1668 123.924C57.2495 123.289 58.4535 122.972 59.7788 122.972C60.9175 122.972 61.9815 123.215 62.9708 123.7C63.9601 124.167 64.7721 124.82 65.4068 125.66C66.0415 126.5 66.4148 127.443 66.5268 128.488H62.4948C62.3455 127.984 62.0188 127.573 61.5148 127.256C61.0108 126.92 60.4321 126.752 59.7788 126.752C58.8455 126.752 58.0708 127.079 57.4548 127.732C56.8388 128.367 56.5308 129.169 56.5308 130.14C56.5308 131.092 56.8388 131.895 57.4548 132.548C58.0895 133.183 58.8641 133.5 59.7788 133.5C60.4508 133.5 61.0388 133.332 61.5428 132.996C62.0655 132.641 62.4015 132.193 62.5508 131.652H66.5268C66.4335 132.716 66.0695 133.677 65.4348 134.536C64.8188 135.395 64.0068 136.067 62.9988 136.552C62.0095 137.037 60.9361 137.28 59.7788 137.28ZM71.9704 135.88L66.6784 123.252H70.9344L73.9864 131.288L77.0384 123.252H81.2944L73.2024 142.6H68.9464L71.9704 135.88ZM88.5991 137.28C87.2738 137.28 86.0698 136.972 84.9871 136.356C83.9045 135.721 83.0458 134.863 82.4111 133.78C81.7951 132.697 81.4871 131.484 81.4871 130.14C81.4871 128.796 81.7951 127.583 82.4111 126.5C83.0458 125.399 83.9045 124.54 84.9871 123.924C86.0698 123.289 87.2738 122.972 88.5991 122.972C89.7378 122.972 90.8018 123.215 91.7911 123.7C92.7805 124.167 93.5925 124.82 94.2271 125.66C94.8618 126.5 95.2351 127.443 95.3471 128.488H91.3151C91.1658 127.984 90.8391 127.573 90.3351 127.256C89.8311 126.92 89.2525 126.752 88.5991 126.752C87.6658 126.752 86.8911 127.079 86.2751 127.732C85.6591 128.367 85.3511 129.169 85.3511 130.14C85.3511 131.092 85.6591 131.895 86.2751 132.548C86.9098 133.183 87.6845 133.5 88.5991 133.5C89.2711 133.5 89.8591 133.332 90.3631 132.996C90.8858 132.641 91.2218 132.193 91.3711 131.652H95.3471C95.2538 132.716 94.8898 133.677 94.2551 134.536C93.6391 135.395 92.8271 136.067 91.8191 136.552C90.8298 137.037 89.7565 137.28 88.5991 137.28ZM97.4716 117.4H101.42V137H97.4716V117.4ZM110.832 137.28C109.506 137.28 108.293 136.963 107.192 136.328C106.09 135.693 105.222 134.825 104.588 133.724C103.953 132.604 103.636 131.381 103.636 130.056C103.636 128.749 103.944 127.555 104.56 126.472C105.194 125.389 106.053 124.54 107.136 123.924C108.237 123.289 109.45 122.972 110.776 122.972C112.008 122.972 113.137 123.271 114.164 123.868C115.209 124.447 116.03 125.249 116.628 126.276C117.244 127.303 117.552 128.441 117.552 129.692C117.552 130.215 117.524 130.7 117.468 131.148H107.304C107.453 132.025 107.836 132.716 108.452 133.22C109.086 133.724 109.861 133.976 110.776 133.976C111.504 133.976 112.101 133.836 112.568 133.556C113.053 133.257 113.361 132.865 113.492 132.38H117.356C117.132 133.873 116.422 135.068 115.228 135.964C114.033 136.841 112.568 137.28 110.832 137.28ZM113.408 128.516C113.333 127.844 113.025 127.293 112.484 126.864C111.961 126.435 111.326 126.22 110.58 126.22C109.814 126.22 109.161 126.416 108.62 126.808C108.078 127.181 107.696 127.751 107.472 128.516H113.408ZM125.469 137.28C124.311 137.28 123.238 136.963 122.249 136.328C121.278 135.675 120.503 134.797 119.925 133.696C119.365 132.595 119.085 131.4 119.085 130.112C119.085 128.824 119.365 127.629 119.925 126.528C120.503 125.427 121.278 124.559 122.249 123.924C123.238 123.289 124.311 122.972 125.469 122.972C126.421 122.972 127.261 123.159 127.989 123.532C128.717 123.905 129.323 124.456 129.809 125.184V117.4H133.757V137H129.809V135.068C129.323 135.796 128.717 136.347 127.989 136.72C127.261 137.093 126.421 137.28 125.469 137.28ZM126.365 133.5C127.354 133.5 128.175 133.183 128.829 132.548C129.482 131.895 129.809 131.083 129.809 130.112C129.809 129.16 129.473 128.357 128.801 127.704C128.147 127.051 127.335 126.724 126.365 126.724C125.413 126.724 124.601 127.06 123.929 127.732C123.275 128.385 122.949 129.179 122.949 130.112C122.949 131.064 123.275 131.867 123.929 132.52C124.601 133.173 125.413 133.5 126.365 133.5Z" fill="#4F6D5D"></path>
  <rect x="571" y="24" width="181" height="138" rx="20" fill="#A9B897"></rect>
  <rect x="157" y="24" width="181" height="138" rx="20" fill="#A9B897"></rect>
  <rect x="363" y="24" width="183" height="138" rx="20" fill="#D1DEB7"></rect>
  <path d="M178.007 110.2H180.527L183.425 116.948L186.477 110.2H188.605V120H186.519V114.246L184.027 120H182.515L180.079 114.246V120H178.007V110.2ZM193.324 120.14C192.661 120.14 192.055 119.981 191.504 119.664C190.953 119.347 190.519 118.913 190.202 118.362C189.885 117.802 189.726 117.191 189.726 116.528C189.726 115.875 189.88 115.277 190.188 114.736C190.505 114.195 190.935 113.77 191.476 113.462C192.027 113.145 192.633 112.986 193.296 112.986C193.912 112.986 194.477 113.135 194.99 113.434C195.513 113.723 195.923 114.125 196.222 114.638C196.53 115.151 196.684 115.721 196.684 116.346C196.684 116.607 196.67 116.85 196.642 117.074H191.56C191.635 117.513 191.826 117.858 192.134 118.11C192.451 118.362 192.839 118.488 193.296 118.488C193.66 118.488 193.959 118.418 194.192 118.278C194.435 118.129 194.589 117.933 194.654 117.69H196.586C196.474 118.437 196.119 119.034 195.522 119.482C194.925 119.921 194.192 120.14 193.324 120.14ZM194.612 115.758C194.575 115.422 194.421 115.147 194.15 114.932C193.889 114.717 193.571 114.61 193.198 114.61C192.815 114.61 192.489 114.708 192.218 114.904C191.947 115.091 191.756 115.375 191.644 115.758H194.612ZM201.079 120.098C200.258 120.098 199.6 119.841 199.105 119.328C198.62 118.815 198.377 118.105 198.377 117.2V115.002H197.103V113.126H198.377V111.32H200.351V113.126H202.045V115.002H200.351V117.172C200.351 117.527 200.459 117.793 200.673 117.97C200.888 118.147 201.177 118.236 201.541 118.236C201.737 118.236 201.905 118.217 202.045 118.18V120C201.793 120.065 201.471 120.098 201.079 120.098ZM209.982 120H208.008V119.034C207.765 119.398 207.462 119.673 207.098 119.86C206.734 120.047 206.314 120.14 205.838 120.14C205.259 120.14 204.723 119.981 204.228 119.664C203.743 119.337 203.355 118.899 203.066 118.348C202.786 117.797 202.646 117.2 202.646 116.556C202.646 115.912 202.786 115.315 203.066 114.764C203.355 114.213 203.743 113.779 204.228 113.462C204.723 113.145 205.259 112.986 205.838 112.986C206.314 112.986 206.734 113.079 207.098 113.266C207.462 113.453 207.765 113.728 208.008 114.092V113.126H209.982V120ZM206.286 118.25C206.771 118.25 207.177 118.091 207.504 117.774C207.84 117.447 208.008 117.041 208.008 116.556C208.008 116.08 207.84 115.679 207.504 115.352C207.177 115.025 206.771 114.862 206.286 114.862C205.81 114.862 205.404 115.03 205.068 115.366C204.741 115.693 204.578 116.089 204.578 116.556C204.578 117.032 204.741 117.433 205.068 117.76C205.404 118.087 205.81 118.25 206.286 118.25ZM211.431 110.2H213.405V120H211.431V110.2ZM224.912 120H222.938V119.034C222.695 119.398 222.392 119.673 222.028 119.86C221.664 120.047 221.244 120.14 220.768 120.14C220.189 120.14 219.652 119.981 219.158 119.664C218.672 119.337 218.285 118.899 217.996 118.348C217.716 117.797 217.576 117.2 217.576 116.556C217.576 115.912 217.716 115.315 217.996 114.764C218.285 114.213 218.672 113.779 219.158 113.462C219.652 113.145 220.189 112.986 220.768 112.986C221.244 112.986 221.664 113.079 222.028 113.266C222.392 113.453 222.695 113.728 222.938 114.092V113.126H224.912V120ZM221.216 118.25C221.701 118.25 222.107 118.091 222.434 117.774C222.77 117.447 222.938 117.041 222.938 116.556C222.938 116.08 222.77 115.679 222.434 115.352C222.107 115.025 221.701 114.862 221.216 114.862C220.74 114.862 220.334 115.03 219.998 115.366C219.671 115.693 219.508 116.089 219.508 116.556C219.508 117.032 219.671 117.433 219.998 117.76C220.334 118.087 220.74 118.25 221.216 118.25ZM228.335 114.022C228.549 113.686 228.815 113.429 229.133 113.252C229.45 113.075 229.805 112.986 230.197 112.986C231.074 112.986 231.76 113.266 232.255 113.826C232.759 114.377 233.011 115.137 233.011 116.108V120H231.037V116.36C231.037 115.912 230.911 115.553 230.659 115.282C230.416 115.011 230.094 114.876 229.693 114.876C229.282 114.876 228.951 115.011 228.699 115.282C228.456 115.553 228.335 115.912 228.335 116.36V120H226.361V113.126H228.335V114.022ZM237.242 120.14C236.664 120.14 236.127 119.981 235.632 119.664C235.147 119.337 234.76 118.899 234.47 118.348C234.19 117.797 234.05 117.2 234.05 116.556C234.05 115.912 234.19 115.315 234.47 114.764C234.76 114.213 235.147 113.779 235.632 113.462C236.127 113.145 236.664 112.986 237.242 112.986C237.718 112.986 238.138 113.079 238.502 113.266C238.866 113.453 239.17 113.728 239.412 114.092V110.2H241.386V120H239.412V119.034C239.17 119.398 238.866 119.673 238.502 119.86C238.138 120.047 237.718 120.14 237.242 120.14ZM237.69 118.25C238.185 118.25 238.596 118.091 238.922 117.774C239.249 117.447 239.412 117.041 239.412 116.556C239.412 116.08 239.244 115.679 238.908 115.352C238.582 115.025 238.176 114.862 237.69 114.862C237.214 114.862 236.808 115.03 236.472 115.366C236.146 115.693 235.982 116.089 235.982 116.556C235.982 117.032 236.146 117.433 236.472 117.76C236.808 118.087 237.214 118.25 237.69 118.25ZM246.038 110.2H248.558L251.456 116.948L254.508 110.2H256.636V120H254.55V114.246L252.058 120H250.546L248.11 114.246V120H246.038V110.2ZM261.355 120.14C260.693 120.14 260.086 119.981 259.535 119.664C258.985 119.347 258.551 118.913 258.233 118.362C257.916 117.802 257.757 117.191 257.757 116.528C257.757 115.875 257.911 115.277 258.219 114.736C258.537 114.195 258.966 113.77 259.507 113.462C260.058 113.145 260.665 112.986 261.327 112.986C261.943 112.986 262.508 113.135 263.021 113.434C263.544 113.723 263.955 114.125 264.253 114.638C264.561 115.151 264.715 115.721 264.715 116.346C264.715 116.607 264.701 116.85 264.673 117.074H259.591C259.666 117.513 259.857 117.858 260.165 118.11C260.483 118.362 260.87 118.488 261.327 118.488C261.691 118.488 261.99 118.418 262.223 118.278C262.466 118.129 262.62 117.933 262.685 117.69H264.617C264.505 118.437 264.151 119.034 263.553 119.482C262.956 119.921 262.223 120.14 261.355 120.14ZM262.643 115.758C262.606 115.422 262.452 115.147 262.181 114.932C261.92 114.717 261.603 114.61 261.229 114.61C260.847 114.61 260.52 114.708 260.249 114.904C259.979 115.091 259.787 115.375 259.675 115.758H262.643ZM269.11 120.098C268.289 120.098 267.631 119.841 267.136 119.328C266.651 118.815 266.408 118.105 266.408 117.2V115.002H265.134V113.126H266.408V111.32H268.382V113.126H270.076V115.002H268.382V117.172C268.382 117.527 268.49 117.793 268.704 117.97C268.919 118.147 269.208 118.236 269.572 118.236C269.768 118.236 269.936 118.217 270.076 118.18V120C269.824 120.065 269.502 120.098 269.11 120.098ZM278.013 120H276.039V119.034C275.796 119.398 275.493 119.673 275.129 119.86C274.765 120.047 274.345 120.14 273.869 120.14C273.29 120.14 272.754 119.981 272.259 119.664C271.774 119.337 271.386 118.899 271.097 118.348C270.817 117.797 270.677 117.2 270.677 116.556C270.677 115.912 270.817 115.315 271.097 114.764C271.386 114.213 271.774 113.779 272.259 113.462C272.754 113.145 273.29 112.986 273.869 112.986C274.345 112.986 274.765 113.079 275.129 113.266C275.493 113.453 275.796 113.728 276.039 114.092V113.126H278.013V120ZM274.317 118.25C274.802 118.25 275.208 118.091 275.535 117.774C275.871 117.447 276.039 117.041 276.039 116.556C276.039 116.08 275.871 115.679 275.535 115.352C275.208 115.025 274.802 114.862 274.317 114.862C273.841 114.862 273.435 115.03 273.099 115.366C272.772 115.693 272.609 116.089 272.609 116.556C272.609 117.032 272.772 117.433 273.099 117.76C273.435 118.087 273.841 118.25 274.317 118.25ZM279.462 110.2H281.436V120H279.462V110.2ZM289.807 114.526C290.162 114.526 290.456 114.414 290.689 114.19C290.932 113.966 291.053 113.681 291.053 113.336C291.053 113.009 290.932 112.739 290.689 112.524C290.456 112.3 290.162 112.188 289.807 112.188H288.155V114.526H289.807ZM289.807 110.2C290.442 110.2 291.011 110.335 291.515 110.606C292.028 110.877 292.425 111.25 292.705 111.726C292.994 112.202 293.139 112.739 293.139 113.336C293.139 113.943 292.994 114.489 292.705 114.974C292.425 115.45 292.028 115.828 291.515 116.108C291.011 116.379 290.442 116.514 289.807 116.514H288.155V120H286.083V110.2H289.807ZM300.722 120H298.748V119.034C298.505 119.398 298.202 119.673 297.838 119.86C297.474 120.047 297.054 120.14 296.578 120.14C295.999 120.14 295.463 119.981 294.968 119.664C294.483 119.337 294.095 118.899 293.806 118.348C293.526 117.797 293.386 117.2 293.386 116.556C293.386 115.912 293.526 115.315 293.806 114.764C294.095 114.213 294.483 113.779 294.968 113.462C295.463 113.145 295.999 112.986 296.578 112.986C297.054 112.986 297.474 113.079 297.838 113.266C298.202 113.453 298.505 113.728 298.748 114.092V113.126H300.722V120ZM297.026 118.25C297.511 118.25 297.917 118.091 298.244 117.774C298.58 117.447 298.748 117.041 298.748 116.556C298.748 116.08 298.58 115.679 298.244 115.352C297.917 115.025 297.511 114.862 297.026 114.862C296.55 114.862 296.144 115.03 295.808 115.366C295.481 115.693 295.318 116.089 295.318 116.556C295.318 117.032 295.481 117.433 295.808 117.76C296.144 118.087 296.55 118.25 297.026 118.25ZM302.171 113.126H304.145V113.938C304.341 113.639 304.593 113.406 304.901 113.238C305.209 113.07 305.55 112.986 305.923 112.986C306.073 112.986 306.287 113.014 306.567 113.07V114.862C306.306 114.797 306.073 114.764 305.867 114.764C305.363 114.764 304.948 114.923 304.621 115.24C304.304 115.548 304.145 116.005 304.145 116.612V120H302.171V113.126ZM310.905 120.098C310.084 120.098 309.426 119.841 308.931 119.328C308.446 118.815 308.203 118.105 308.203 117.2V115.002H306.929V113.126H308.203V111.32H310.177V113.126H311.871V115.002H310.177V117.172C310.177 117.527 310.285 117.793 310.499 117.97C310.714 118.147 311.003 118.236 311.367 118.236C311.563 118.236 311.731 118.217 311.871 118.18V120C311.619 120.065 311.297 120.098 310.905 120.098ZM315.703 120.14C314.798 120.14 314.061 119.921 313.491 119.482C312.931 119.043 312.614 118.437 312.539 117.662H314.429C314.448 117.895 314.569 118.082 314.793 118.222C315.017 118.362 315.293 118.432 315.619 118.432C315.909 118.432 316.133 118.385 316.291 118.292C316.45 118.189 316.529 118.063 316.529 117.914C316.529 117.727 316.422 117.592 316.207 117.508C316.002 117.424 315.675 117.345 315.227 117.27C314.714 117.177 314.285 117.074 313.939 116.962C313.603 116.85 313.309 116.659 313.057 116.388C312.815 116.117 312.693 115.739 312.693 115.254C312.693 114.825 312.801 114.437 313.015 114.092C313.239 113.747 313.557 113.476 313.967 113.28C314.387 113.084 314.873 112.986 315.423 112.986C316.198 112.986 316.865 113.187 317.425 113.588C317.995 113.989 318.321 114.559 318.405 115.296H316.417C316.399 115.119 316.296 114.969 316.109 114.848C315.923 114.717 315.675 114.652 315.367 114.652C315.134 114.652 314.947 114.694 314.807 114.778C314.667 114.853 314.597 114.969 314.597 115.128C314.597 115.296 314.691 115.417 314.877 115.492C315.073 115.567 315.391 115.646 315.829 115.73C316.361 115.823 316.8 115.931 317.145 116.052C317.5 116.164 317.808 116.369 318.069 116.668C318.331 116.967 318.461 117.387 318.461 117.928C318.461 118.339 318.34 118.717 318.097 119.062C317.855 119.398 317.523 119.664 317.103 119.86C316.683 120.047 316.217 120.14 315.703 120.14ZM220.068 127.2H223.834C224.376 127.2 224.884 127.335 225.36 127.606C225.836 127.877 226.214 128.245 226.494 128.712C226.784 129.169 226.928 129.673 226.928 130.224C226.928 130.859 226.788 131.409 226.508 131.876C226.238 132.343 225.855 132.697 225.36 132.94L227.936 137H225.416L223.204 133.262H222.14V137H220.068V127.2ZM223.554 131.232C223.937 131.232 224.236 131.143 224.45 130.966C224.665 130.789 224.772 130.541 224.772 130.224C224.772 129.916 224.665 129.678 224.45 129.51C224.236 129.333 223.937 129.244 223.554 129.244H222.14V131.232H223.554ZM231.407 137.14C230.744 137.14 230.138 136.981 229.587 136.664C229.036 136.347 228.602 135.913 228.285 135.362C227.968 134.802 227.809 134.191 227.809 133.528C227.809 132.875 227.963 132.277 228.271 131.736C228.588 131.195 229.018 130.77 229.559 130.462C230.11 130.145 230.716 129.986 231.379 129.986C231.995 129.986 232.56 130.135 233.073 130.434C233.596 130.723 234.006 131.125 234.305 131.638C234.613 132.151 234.767 132.721 234.767 133.346C234.767 133.607 234.753 133.85 234.725 134.074H229.643C229.718 134.513 229.909 134.858 230.217 135.11C230.534 135.362 230.922 135.488 231.379 135.488C231.743 135.488 232.042 135.418 232.275 135.278C232.518 135.129 232.672 134.933 232.737 134.69H234.669C234.557 135.437 234.202 136.034 233.605 136.482C233.008 136.921 232.275 137.14 231.407 137.14ZM232.695 132.758C232.658 132.422 232.504 132.147 232.233 131.932C231.972 131.717 231.654 131.61 231.281 131.61C230.898 131.61 230.572 131.708 230.301 131.904C230.03 132.091 229.839 132.375 229.727 132.758H232.695ZM239.09 137.14C238.427 137.14 237.825 136.986 237.284 136.678C236.742 136.361 236.313 135.931 235.996 135.39C235.688 134.849 235.534 134.242 235.534 133.57C235.534 132.898 235.688 132.291 235.996 131.75C236.313 131.199 236.742 130.77 237.284 130.462C237.825 130.145 238.427 129.986 239.09 129.986C239.659 129.986 240.191 130.107 240.686 130.35C241.18 130.583 241.586 130.91 241.904 131.33C242.221 131.75 242.408 132.221 242.464 132.744H240.448C240.373 132.492 240.21 132.287 239.958 132.128C239.706 131.96 239.416 131.876 239.09 131.876C238.623 131.876 238.236 132.039 237.928 132.366C237.62 132.683 237.466 133.085 237.466 133.57C237.466 134.046 237.62 134.447 237.928 134.774C238.245 135.091 238.632 135.25 239.09 135.25C239.426 135.25 239.72 135.166 239.972 134.998C240.233 134.821 240.401 134.597 240.476 134.326H242.464C242.417 134.858 242.235 135.339 241.918 135.768C241.61 136.197 241.204 136.533 240.7 136.776C240.205 137.019 239.668 137.14 239.09 137.14ZM245.185 136.44L242.539 130.126H244.667L246.193 134.144L247.719 130.126H249.847L245.801 139.8H243.673L245.185 136.44ZM253.5 137.14C252.837 137.14 252.235 136.986 251.694 136.678C251.152 136.361 250.723 135.931 250.406 135.39C250.098 134.849 249.944 134.242 249.944 133.57C249.944 132.898 250.098 132.291 250.406 131.75C250.723 131.199 251.152 130.77 251.694 130.462C252.235 130.145 252.837 129.986 253.5 129.986C254.069 129.986 254.601 130.107 255.096 130.35C255.59 130.583 255.996 130.91 256.314 131.33C256.631 131.75 256.818 132.221 256.874 132.744H254.858C254.783 132.492 254.62 132.287 254.368 132.128C254.116 131.96 253.826 131.876 253.5 131.876C253.033 131.876 252.646 132.039 252.338 132.366C252.03 132.683 251.876 133.085 251.876 133.57C251.876 134.046 252.03 134.447 252.338 134.774C252.655 135.091 253.042 135.25 253.5 135.25C253.836 135.25 254.13 135.166 254.382 134.998C254.643 134.821 254.811 134.597 254.886 134.326H256.874C256.827 134.858 256.645 135.339 256.328 135.768C256.02 136.197 255.614 136.533 255.11 136.776C254.615 137.019 254.078 137.14 253.5 137.14ZM257.936 127.2H259.91V137H257.936V127.2ZM264.616 137.14C263.953 137.14 263.347 136.981 262.796 136.664C262.245 136.347 261.811 135.913 261.494 135.362C261.177 134.802 261.018 134.191 261.018 133.528C261.018 132.875 261.172 132.277 261.48 131.736C261.797 131.195 262.227 130.77 262.768 130.462C263.319 130.145 263.925 129.986 264.588 129.986C265.204 129.986 265.769 130.135 266.282 130.434C266.805 130.723 267.215 131.125 267.514 131.638C267.822 132.151 267.976 132.721 267.976 133.346C267.976 133.607 267.962 133.85 267.934 134.074H262.852C262.927 134.513 263.118 134.858 263.426 135.11C263.743 135.362 264.131 135.488 264.588 135.488C264.952 135.488 265.251 135.418 265.484 135.278C265.727 135.129 265.881 134.933 265.946 134.69H267.878C267.766 135.437 267.411 136.034 266.814 136.482C266.217 136.921 265.484 137.14 264.616 137.14ZM265.904 132.758C265.867 132.422 265.713 132.147 265.442 131.932C265.181 131.717 264.863 131.61 264.49 131.61C264.107 131.61 263.781 131.708 263.51 131.904C263.239 132.091 263.048 132.375 262.936 132.758H265.904ZM271.935 137.14C271.356 137.14 270.819 136.981 270.325 136.664C269.839 136.337 269.452 135.899 269.163 135.348C268.883 134.797 268.743 134.2 268.743 133.556C268.743 132.912 268.883 132.315 269.163 131.764C269.452 131.213 269.839 130.779 270.325 130.462C270.819 130.145 271.356 129.986 271.935 129.986C272.411 129.986 272.831 130.079 273.195 130.266C273.559 130.453 273.862 130.728 274.105 131.092V127.2H276.079V137H274.105V136.034C273.862 136.398 273.559 136.673 273.195 136.86C272.831 137.047 272.411 137.14 271.935 137.14ZM272.383 135.25C272.877 135.25 273.288 135.091 273.615 134.774C273.941 134.447 274.105 134.041 274.105 133.556C274.105 133.08 273.937 132.679 273.601 132.352C273.274 132.025 272.868 131.862 272.383 131.862C271.907 131.862 271.501 132.03 271.165 132.366C270.838 132.693 270.675 133.089 270.675 133.556C270.675 134.032 270.838 134.433 271.165 134.76C271.501 135.087 271.907 135.25 272.383 135.25Z" fill="#4F6D5D"></path>
  <path d="M396.673 117.526C397.028 117.526 397.322 117.414 397.555 117.19C397.798 116.966 397.919 116.681 397.919 116.336C397.919 116.009 397.798 115.739 397.555 115.524C397.322 115.3 397.028 115.188 396.673 115.188H395.021V117.526H396.673ZM396.673 113.2C397.308 113.2 397.877 113.335 398.381 113.606C398.894 113.877 399.291 114.25 399.571 114.726C399.86 115.202 400.005 115.739 400.005 116.336C400.005 116.943 399.86 117.489 399.571 117.974C399.291 118.45 398.894 118.828 398.381 119.108C397.877 119.379 397.308 119.514 396.673 119.514H395.021V123H392.949V113.2H396.673ZM407.588 123H405.614V122.034C405.372 122.398 405.068 122.673 404.704 122.86C404.34 123.047 403.92 123.14 403.444 123.14C402.866 123.14 402.329 122.981 401.834 122.664C401.349 122.337 400.962 121.899 400.672 121.348C400.392 120.797 400.252 120.2 400.252 119.556C400.252 118.912 400.392 118.315 400.672 117.764C400.962 117.213 401.349 116.779 401.834 116.462C402.329 116.145 402.866 115.986 403.444 115.986C403.92 115.986 404.34 116.079 404.704 116.266C405.068 116.453 405.372 116.728 405.614 117.092V116.126H407.588V123ZM403.892 121.25C404.378 121.25 404.784 121.091 405.11 120.774C405.446 120.447 405.614 120.041 405.614 119.556C405.614 119.08 405.446 118.679 405.11 118.352C404.784 118.025 404.378 117.862 403.892 117.862C403.416 117.862 403.01 118.03 402.674 118.366C402.348 118.693 402.184 119.089 402.184 119.556C402.184 120.032 402.348 120.433 402.674 120.76C403.01 121.087 403.416 121.25 403.892 121.25ZM412.258 123.14C411.595 123.14 410.993 122.986 410.452 122.678C409.91 122.361 409.481 121.931 409.164 121.39C408.856 120.849 408.702 120.242 408.702 119.57C408.702 118.898 408.856 118.291 409.164 117.75C409.481 117.199 409.91 116.77 410.452 116.462C410.993 116.145 411.595 115.986 412.258 115.986C412.827 115.986 413.359 116.107 413.854 116.35C414.348 116.583 414.754 116.91 415.072 117.33C415.389 117.75 415.576 118.221 415.632 118.744H413.616C413.541 118.492 413.378 118.287 413.126 118.128C412.874 117.96 412.584 117.876 412.258 117.876C411.791 117.876 411.404 118.039 411.096 118.366C410.788 118.683 410.634 119.085 410.634 119.57C410.634 120.046 410.788 120.447 411.096 120.774C411.413 121.091 411.8 121.25 412.258 121.25C412.594 121.25 412.888 121.166 413.14 120.998C413.401 120.821 413.569 120.597 413.644 120.326H415.632C415.585 120.858 415.403 121.339 415.086 121.768C414.778 122.197 414.372 122.533 413.868 122.776C413.373 123.019 412.836 123.14 412.258 123.14ZM418.668 118.352L421.118 116.126H423.554L420.768 118.66L423.778 123H421.272L419.326 119.976L418.668 120.564V123H416.694V113.2H418.668V118.352ZM430.831 123H428.857V122.034C428.614 122.398 428.311 122.673 427.947 122.86C427.583 123.047 427.163 123.14 426.687 123.14C426.108 123.14 425.571 122.981 425.077 122.664C424.591 122.337 424.204 121.899 423.915 121.348C423.635 120.797 423.495 120.2 423.495 119.556C423.495 118.912 423.635 118.315 423.915 117.764C424.204 117.213 424.591 116.779 425.077 116.462C425.571 116.145 426.108 115.986 426.687 115.986C427.163 115.986 427.583 116.079 427.947 116.266C428.311 116.453 428.614 116.728 428.857 117.092V116.126H430.831V123ZM427.135 121.25C427.62 121.25 428.026 121.091 428.353 120.774C428.689 120.447 428.857 120.041 428.857 119.556C428.857 119.08 428.689 118.679 428.353 118.352C428.026 118.025 427.62 117.862 427.135 117.862C426.659 117.862 426.253 118.03 425.917 118.366C425.59 118.693 425.427 119.089 425.427 119.556C425.427 120.032 425.59 120.433 425.917 120.76C426.253 121.087 426.659 121.25 427.135 121.25ZM435.752 125.828C435.248 125.828 434.73 125.753 434.198 125.604C433.675 125.455 433.218 125.189 432.826 124.806C432.434 124.423 432.219 123.91 432.182 123.266H434.142C434.179 123.565 434.342 123.793 434.632 123.952C434.921 124.111 435.271 124.19 435.682 124.19C436.13 124.19 436.517 124.059 436.844 123.798C437.17 123.537 437.334 123.201 437.334 122.79V121.838C436.839 122.566 436.116 122.93 435.164 122.93C434.576 122.93 434.034 122.776 433.54 122.468C433.054 122.151 432.667 121.726 432.378 121.194C432.098 120.662 431.958 120.083 431.958 119.458C431.958 118.823 432.098 118.24 432.378 117.708C432.667 117.176 433.054 116.756 433.54 116.448C434.034 116.14 434.576 115.986 435.164 115.986C436.116 115.986 436.839 116.345 437.334 117.064V116.126H439.308V122.706C439.308 123.341 439.149 123.891 438.832 124.358C438.524 124.834 438.099 125.198 437.558 125.45C437.026 125.702 436.424 125.828 435.752 125.828ZM435.612 121.11C436.097 121.11 436.503 120.951 436.83 120.634C437.166 120.317 437.334 119.925 437.334 119.458C437.334 118.982 437.166 118.585 436.83 118.268C436.503 117.951 436.097 117.792 435.612 117.792C435.136 117.792 434.73 117.955 434.394 118.282C434.058 118.599 433.89 118.991 433.89 119.458C433.89 119.915 434.058 120.307 434.394 120.634C434.73 120.951 435.136 121.11 435.612 121.11ZM442.703 116.126V123H440.729V116.126H442.703ZM441.709 115.188C441.382 115.188 441.098 115.071 440.855 114.838C440.622 114.605 440.505 114.325 440.505 113.998C440.505 113.671 440.622 113.391 440.855 113.158C441.098 112.915 441.382 112.794 441.709 112.794C442.045 112.794 442.33 112.915 442.563 113.158C442.796 113.391 442.913 113.671 442.913 113.998C442.913 114.325 442.796 114.605 442.563 114.838C442.33 115.071 442.045 115.188 441.709 115.188ZM446.121 117.022C446.336 116.686 446.602 116.429 446.919 116.252C447.236 116.075 447.591 115.986 447.983 115.986C448.86 115.986 449.546 116.266 450.041 116.826C450.545 117.377 450.797 118.137 450.797 119.108V123H448.823V119.36C448.823 118.912 448.697 118.553 448.445 118.282C448.202 118.011 447.88 117.876 447.479 117.876C447.068 117.876 446.737 118.011 446.485 118.282C446.242 118.553 446.121 118.912 446.121 119.36V123H444.147V116.126H446.121V117.022ZM455.644 125.828C455.14 125.828 454.622 125.753 454.09 125.604C453.568 125.455 453.11 125.189 452.718 124.806C452.326 124.423 452.112 123.91 452.074 123.266H454.034C454.072 123.565 454.235 123.793 454.524 123.952C454.814 124.111 455.164 124.19 455.574 124.19C456.022 124.19 456.41 124.059 456.736 123.798C457.063 123.537 457.226 123.201 457.226 122.79V121.838C456.732 122.566 456.008 122.93 455.056 122.93C454.468 122.93 453.927 122.776 453.432 122.468C452.947 122.151 452.56 121.726 452.27 121.194C451.99 120.662 451.85 120.083 451.85 119.458C451.85 118.823 451.99 118.24 452.27 117.708C452.56 117.176 452.947 116.756 453.432 116.448C453.927 116.14 454.468 115.986 455.056 115.986C456.008 115.986 456.732 116.345 457.226 117.064V116.126H459.2V122.706C459.2 123.341 459.042 123.891 458.724 124.358C458.416 124.834 457.992 125.198 457.45 125.45C456.918 125.702 456.316 125.828 455.644 125.828ZM455.504 121.11C455.99 121.11 456.396 120.951 456.722 120.634C457.058 120.317 457.226 119.925 457.226 119.458C457.226 118.982 457.058 118.585 456.722 118.268C456.396 117.951 455.99 117.792 455.504 117.792C455.028 117.792 454.622 117.955 454.286 118.282C453.95 118.599 453.782 118.991 453.782 119.458C453.782 119.915 453.95 120.307 454.286 120.634C454.622 120.951 455.028 121.11 455.504 121.11ZM463.824 113.2H466.344L469.242 119.948L472.294 113.2H474.422V123H472.336V117.246L469.844 123H468.332L465.896 117.246V123H463.824V113.2ZM482.879 123H480.905V122.034C480.663 122.398 480.359 122.673 479.995 122.86C479.631 123.047 479.211 123.14 478.735 123.14C478.157 123.14 477.62 122.981 477.125 122.664C476.64 122.337 476.253 121.899 475.963 121.348C475.683 120.797 475.543 120.2 475.543 119.556C475.543 118.912 475.683 118.315 475.963 117.764C476.253 117.213 476.64 116.779 477.125 116.462C477.62 116.145 478.157 115.986 478.735 115.986C479.211 115.986 479.631 116.079 479.995 116.266C480.359 116.453 480.663 116.728 480.905 117.092V116.126H482.879V123ZM479.183 121.25C479.669 121.25 480.075 121.091 480.401 120.774C480.737 120.447 480.905 120.041 480.905 119.556C480.905 119.08 480.737 118.679 480.401 118.352C480.075 118.025 479.669 117.862 479.183 117.862C478.707 117.862 478.301 118.03 477.965 118.366C477.639 118.693 477.475 119.089 477.475 119.556C477.475 120.032 477.639 120.433 477.965 120.76C478.301 121.087 478.707 121.25 479.183 121.25ZM487.731 123.098C486.909 123.098 486.251 122.841 485.757 122.328C485.271 121.815 485.029 121.105 485.029 120.2V118.002H483.755V116.126H485.029V114.32H487.003V116.126H488.697V118.002H487.003V120.172C487.003 120.527 487.11 120.793 487.325 120.97C487.539 121.147 487.829 121.236 488.193 121.236C488.389 121.236 488.557 121.217 488.697 121.18V123C488.445 123.065 488.123 123.098 487.731 123.098ZM492.895 123.14C492.233 123.14 491.626 122.981 491.075 122.664C490.525 122.347 490.091 121.913 489.773 121.362C489.456 120.802 489.297 120.191 489.297 119.528C489.297 118.875 489.451 118.277 489.759 117.736C490.077 117.195 490.506 116.77 491.047 116.462C491.598 116.145 492.205 115.986 492.867 115.986C493.483 115.986 494.048 116.135 494.561 116.434C495.084 116.723 495.495 117.125 495.793 117.638C496.101 118.151 496.255 118.721 496.255 119.346C496.255 119.607 496.241 119.85 496.213 120.074H491.131C491.206 120.513 491.397 120.858 491.705 121.11C492.023 121.362 492.41 121.488 492.867 121.488C493.231 121.488 493.53 121.418 493.763 121.278C494.006 121.129 494.16 120.933 494.225 120.69H496.157C496.045 121.437 495.691 122.034 495.093 122.482C494.496 122.921 493.763 123.14 492.895 123.14ZM494.183 118.758C494.146 118.422 493.992 118.147 493.721 117.932C493.46 117.717 493.143 117.61 492.769 117.61C492.387 117.61 492.06 117.708 491.789 117.904C491.519 118.091 491.327 118.375 491.215 118.758H494.183ZM497.358 116.126H499.332V116.938C499.528 116.639 499.78 116.406 500.088 116.238C500.396 116.07 500.737 115.986 501.11 115.986C501.259 115.986 501.474 116.014 501.754 116.07V117.862C501.493 117.797 501.259 117.764 501.054 117.764C500.55 117.764 500.135 117.923 499.808 118.24C499.491 118.548 499.332 119.005 499.332 119.612V123H497.358V116.126ZM504.664 116.126V123H502.69V116.126H504.664ZM503.67 115.188C503.343 115.188 503.059 115.071 502.816 114.838C502.583 114.605 502.466 114.325 502.466 113.998C502.466 113.671 502.583 113.391 502.816 113.158C503.059 112.915 503.343 112.794 503.67 112.794C504.006 112.794 504.291 112.915 504.524 113.158C504.757 113.391 504.874 113.671 504.874 113.998C504.874 114.325 504.757 114.605 504.524 114.838C504.291 115.071 504.006 115.188 503.67 115.188ZM513.108 123H511.134V122.034C510.891 122.398 510.588 122.673 510.224 122.86C509.86 123.047 509.44 123.14 508.964 123.14C508.385 123.14 507.849 122.981 507.354 122.664C506.869 122.337 506.481 121.899 506.192 121.348C505.912 120.797 505.772 120.2 505.772 119.556C505.772 118.912 505.912 118.315 506.192 117.764C506.481 117.213 506.869 116.779 507.354 116.462C507.849 116.145 508.385 115.986 508.964 115.986C509.44 115.986 509.86 116.079 510.224 116.266C510.588 116.453 510.891 116.728 511.134 117.092V116.126H513.108V123ZM509.412 121.25C509.897 121.25 510.303 121.091 510.63 120.774C510.966 120.447 511.134 120.041 511.134 119.556C511.134 119.08 510.966 118.679 510.63 118.352C510.303 118.025 509.897 117.862 509.412 117.862C508.936 117.862 508.53 118.03 508.194 118.366C507.867 118.693 507.704 119.089 507.704 119.556C507.704 120.032 507.867 120.433 508.194 120.76C508.53 121.087 508.936 121.25 509.412 121.25ZM514.557 113.2H516.531V123H514.557V113.2ZM520.761 123.14C519.856 123.14 519.118 122.921 518.549 122.482C517.989 122.043 517.672 121.437 517.597 120.662H519.487C519.506 120.895 519.627 121.082 519.851 121.222C520.075 121.362 520.35 121.432 520.677 121.432C520.966 121.432 521.19 121.385 521.349 121.292C521.508 121.189 521.587 121.063 521.587 120.914C521.587 120.727 521.48 120.592 521.265 120.508C521.06 120.424 520.733 120.345 520.285 120.27C519.772 120.177 519.342 120.074 518.997 119.962C518.661 119.85 518.367 119.659 518.115 119.388C517.872 119.117 517.751 118.739 517.751 118.254C517.751 117.825 517.858 117.437 518.073 117.092C518.297 116.747 518.614 116.476 519.025 116.28C519.445 116.084 519.93 115.986 520.481 115.986C521.256 115.986 521.923 116.187 522.483 116.588C523.052 116.989 523.379 117.559 523.463 118.296H521.475C521.456 118.119 521.354 117.969 521.167 117.848C520.98 117.717 520.733 117.652 520.425 117.652C520.192 117.652 520.005 117.694 519.865 117.778C519.725 117.853 519.655 117.969 519.655 118.128C519.655 118.296 519.748 118.417 519.935 118.492C520.131 118.567 520.448 118.646 520.887 118.73C521.419 118.823 521.858 118.931 522.203 119.052C522.558 119.164 522.866 119.369 523.127 119.668C523.388 119.967 523.519 120.387 523.519 120.928C523.519 121.339 523.398 121.717 523.155 122.062C522.912 122.398 522.581 122.664 522.161 122.86C521.741 123.047 521.274 123.14 520.761 123.14ZM430.068 130.2H433.834C434.376 130.2 434.884 130.335 435.36 130.606C435.836 130.877 436.214 131.245 436.494 131.712C436.784 132.169 436.928 132.673 436.928 133.224C436.928 133.859 436.788 134.409 436.508 134.876C436.238 135.343 435.855 135.697 435.36 135.94L437.936 140H435.416L433.204 136.262H432.14V140H430.068V130.2ZM433.554 134.232C433.937 134.232 434.236 134.143 434.45 133.966C434.665 133.789 434.772 133.541 434.772 133.224C434.772 132.916 434.665 132.678 434.45 132.51C434.236 132.333 433.937 132.244 433.554 132.244H432.14V134.232H433.554ZM441.407 140.14C440.744 140.14 440.138 139.981 439.587 139.664C439.036 139.347 438.602 138.913 438.285 138.362C437.968 137.802 437.809 137.191 437.809 136.528C437.809 135.875 437.963 135.277 438.271 134.736C438.588 134.195 439.018 133.77 439.559 133.462C440.11 133.145 440.716 132.986 441.379 132.986C441.995 132.986 442.56 133.135 443.073 133.434C443.596 133.723 444.006 134.125 444.305 134.638C444.613 135.151 444.767 135.721 444.767 136.346C444.767 136.607 444.753 136.85 444.725 137.074H439.643C439.718 137.513 439.909 137.858 440.217 138.11C440.534 138.362 440.922 138.488 441.379 138.488C441.743 138.488 442.042 138.418 442.275 138.278C442.518 138.129 442.672 137.933 442.737 137.69H444.669C444.557 138.437 444.202 139.034 443.605 139.482C443.008 139.921 442.275 140.14 441.407 140.14ZM442.695 135.758C442.658 135.422 442.504 135.147 442.233 134.932C441.972 134.717 441.654 134.61 441.281 134.61C440.898 134.61 440.572 134.708 440.301 134.904C440.03 135.091 439.839 135.375 439.727 135.758H442.695ZM449.09 140.14C448.427 140.14 447.825 139.986 447.284 139.678C446.742 139.361 446.313 138.931 445.996 138.39C445.688 137.849 445.534 137.242 445.534 136.57C445.534 135.898 445.688 135.291 445.996 134.75C446.313 134.199 446.742 133.77 447.284 133.462C447.825 133.145 448.427 132.986 449.09 132.986C449.659 132.986 450.191 133.107 450.686 133.35C451.18 133.583 451.586 133.91 451.904 134.33C452.221 134.75 452.408 135.221 452.464 135.744H450.448C450.373 135.492 450.21 135.287 449.958 135.128C449.706 134.96 449.416 134.876 449.09 134.876C448.623 134.876 448.236 135.039 447.928 135.366C447.62 135.683 447.466 136.085 447.466 136.57C447.466 137.046 447.62 137.447 447.928 137.774C448.245 138.091 448.632 138.25 449.09 138.25C449.426 138.25 449.72 138.166 449.972 137.998C450.233 137.821 450.401 137.597 450.476 137.326H452.464C452.417 137.858 452.235 138.339 451.918 138.768C451.61 139.197 451.204 139.533 450.7 139.776C450.205 140.019 449.668 140.14 449.09 140.14ZM455.185 139.44L452.539 133.126H454.667L456.193 137.144L457.719 133.126H459.847L455.801 142.8H453.673L455.185 139.44ZM463.5 140.14C462.837 140.14 462.235 139.986 461.694 139.678C461.152 139.361 460.723 138.931 460.406 138.39C460.098 137.849 459.944 137.242 459.944 136.57C459.944 135.898 460.098 135.291 460.406 134.75C460.723 134.199 461.152 133.77 461.694 133.462C462.235 133.145 462.837 132.986 463.5 132.986C464.069 132.986 464.601 133.107 465.096 133.35C465.59 133.583 465.996 133.91 466.314 134.33C466.631 134.75 466.818 135.221 466.874 135.744H464.858C464.783 135.492 464.62 135.287 464.368 135.128C464.116 134.96 463.826 134.876 463.5 134.876C463.033 134.876 462.646 135.039 462.338 135.366C462.03 135.683 461.876 136.085 461.876 136.57C461.876 137.046 462.03 137.447 462.338 137.774C462.655 138.091 463.042 138.25 463.5 138.25C463.836 138.25 464.13 138.166 464.382 137.998C464.643 137.821 464.811 137.597 464.886 137.326H466.874C466.827 137.858 466.645 138.339 466.328 138.768C466.02 139.197 465.614 139.533 465.11 139.776C464.615 140.019 464.078 140.14 463.5 140.14ZM467.936 130.2H469.91V140H467.936V130.2ZM474.616 140.14C473.953 140.14 473.347 139.981 472.796 139.664C472.245 139.347 471.811 138.913 471.494 138.362C471.177 137.802 471.018 137.191 471.018 136.528C471.018 135.875 471.172 135.277 471.48 134.736C471.797 134.195 472.227 133.77 472.768 133.462C473.319 133.145 473.925 132.986 474.588 132.986C475.204 132.986 475.769 133.135 476.282 133.434C476.805 133.723 477.215 134.125 477.514 134.638C477.822 135.151 477.976 135.721 477.976 136.346C477.976 136.607 477.962 136.85 477.934 137.074H472.852C472.927 137.513 473.118 137.858 473.426 138.11C473.743 138.362 474.131 138.488 474.588 138.488C474.952 138.488 475.251 138.418 475.484 138.278C475.727 138.129 475.881 137.933 475.946 137.69H477.878C477.766 138.437 477.411 139.034 476.814 139.482C476.217 139.921 475.484 140.14 474.616 140.14ZM475.904 135.758C475.867 135.422 475.713 135.147 475.442 134.932C475.181 134.717 474.863 134.61 474.49 134.61C474.107 134.61 473.781 134.708 473.51 134.904C473.239 135.091 473.048 135.375 472.936 135.758H475.904ZM481.935 140.14C481.356 140.14 480.819 139.981 480.325 139.664C479.839 139.337 479.452 138.899 479.163 138.348C478.883 137.797 478.743 137.2 478.743 136.556C478.743 135.912 478.883 135.315 479.163 134.764C479.452 134.213 479.839 133.779 480.325 133.462C480.819 133.145 481.356 132.986 481.935 132.986C482.411 132.986 482.831 133.079 483.195 133.266C483.559 133.453 483.862 133.728 484.105 134.092V130.2H486.079V140H484.105V139.034C483.862 139.398 483.559 139.673 483.195 139.86C482.831 140.047 482.411 140.14 481.935 140.14ZM482.383 138.25C482.877 138.25 483.288 138.091 483.615 137.774C483.941 137.447 484.105 137.041 484.105 136.556C484.105 136.08 483.937 135.679 483.601 135.352C483.274 135.025 482.868 134.862 482.383 134.862C481.907 134.862 481.501 135.03 481.165 135.366C480.838 135.693 480.675 136.089 480.675 136.556C480.675 137.032 480.838 137.433 481.165 137.76C481.501 138.087 481.907 138.25 482.383 138.25Z" fill="#4F6D5D"></path>
  <path d="M624.947 114.526C625.302 114.526 625.596 114.414 625.829 114.19C626.072 113.966 626.193 113.681 626.193 113.336C626.193 113.009 626.072 112.739 625.829 112.524C625.596 112.3 625.302 112.188 624.947 112.188H623.295V114.526H624.947ZM624.947 110.2C625.582 110.2 626.151 110.335 626.655 110.606C627.169 110.877 627.565 111.25 627.845 111.726C628.135 112.202 628.279 112.739 628.279 113.336C628.279 113.943 628.135 114.489 627.845 114.974C627.565 115.45 627.169 115.828 626.655 116.108C626.151 116.379 625.582 116.514 624.947 116.514H623.295V120H621.223V110.2H624.947ZM632.097 112.986C632.759 112.986 633.361 113.145 633.903 113.462C634.453 113.77 634.883 114.199 635.191 114.75C635.508 115.291 635.667 115.898 635.667 116.57C635.667 117.242 635.508 117.849 635.191 118.39C634.883 118.931 634.453 119.361 633.903 119.678C633.361 119.986 632.759 120.14 632.097 120.14C631.425 120.14 630.818 119.986 630.277 119.678C629.735 119.361 629.306 118.931 628.989 118.39C628.681 117.849 628.527 117.242 628.527 116.57C628.527 115.898 628.681 115.291 628.989 114.75C629.306 114.199 629.735 113.77 630.277 113.462C630.818 113.145 631.425 112.986 632.097 112.986ZM632.097 114.876C631.63 114.876 631.238 115.039 630.921 115.366C630.603 115.683 630.445 116.085 630.445 116.57C630.445 117.046 630.603 117.447 630.921 117.774C631.238 118.091 631.63 118.25 632.097 118.25C632.563 118.25 632.951 118.091 633.259 117.774C633.576 117.447 633.735 117.046 633.735 116.57C633.735 116.085 633.576 115.683 633.259 115.366C632.951 115.039 632.563 114.876 632.097 114.876ZM636.779 110.2H638.753V120H636.779V110.2ZM642.171 119.44L639.525 113.126H641.653L643.179 117.144L644.705 113.126H646.833L642.787 122.8H640.659L642.171 119.44ZM651.737 112.986C652.316 112.986 652.848 113.145 653.333 113.462C653.828 113.779 654.215 114.213 654.495 114.764C654.785 115.315 654.929 115.912 654.929 116.556C654.929 117.2 654.785 117.797 654.495 118.348C654.215 118.899 653.828 119.337 653.333 119.664C652.848 119.981 652.316 120.14 651.737 120.14C651.261 120.14 650.841 120.047 650.477 119.86C650.113 119.673 649.81 119.398 649.567 119.034V122.786H647.593V113.126H649.567V114.092C649.81 113.728 650.113 113.453 650.477 113.266C650.841 113.079 651.261 112.986 651.737 112.986ZM651.289 114.862C650.804 114.862 650.393 115.025 650.057 115.352C649.731 115.679 649.567 116.08 649.567 116.556C649.567 117.041 649.731 117.447 650.057 117.774C650.384 118.091 650.795 118.25 651.289 118.25C651.765 118.25 652.167 118.087 652.493 117.76C652.829 117.433 652.997 117.032 652.997 116.556C652.997 116.089 652.829 115.693 652.493 115.366C652.167 115.03 651.765 114.862 651.289 114.862ZM656.042 113.126H658.016V113.938C658.212 113.639 658.464 113.406 658.772 113.238C659.08 113.07 659.421 112.986 659.794 112.986C659.944 112.986 660.158 113.014 660.438 113.07V114.862C660.177 114.797 659.944 114.764 659.738 114.764C659.234 114.764 658.819 114.923 658.492 115.24C658.175 115.548 658.016 116.005 658.016 116.612V120H656.042V113.126ZM664.308 112.986C664.97 112.986 665.572 113.145 666.114 113.462C666.664 113.77 667.094 114.199 667.402 114.75C667.719 115.291 667.878 115.898 667.878 116.57C667.878 117.242 667.719 117.849 667.402 118.39C667.094 118.931 666.664 119.361 666.114 119.678C665.572 119.986 664.97 120.14 664.308 120.14C663.636 120.14 663.029 119.986 662.488 119.678C661.946 119.361 661.517 118.931 661.2 118.39C660.892 117.849 660.738 117.242 660.738 116.57C660.738 115.898 660.892 115.291 661.2 114.75C661.517 114.199 661.946 113.77 662.488 113.462C663.029 113.145 663.636 112.986 664.308 112.986ZM664.308 114.876C663.841 114.876 663.449 115.039 663.132 115.366C662.814 115.683 662.656 116.085 662.656 116.57C662.656 117.046 662.814 117.447 663.132 117.774C663.449 118.091 663.841 118.25 664.308 118.25C664.774 118.25 665.162 118.091 665.47 117.774C665.787 117.447 665.946 117.046 665.946 116.57C665.946 116.085 665.787 115.683 665.47 115.366C665.162 115.039 664.774 114.876 664.308 114.876ZM673.134 112.986C673.712 112.986 674.244 113.145 674.73 113.462C675.224 113.779 675.612 114.213 675.892 114.764C676.181 115.315 676.326 115.912 676.326 116.556C676.326 117.2 676.181 117.797 675.892 118.348C675.612 118.899 675.224 119.337 674.73 119.664C674.244 119.981 673.712 120.14 673.134 120.14C672.658 120.14 672.238 120.047 671.874 119.86C671.51 119.673 671.206 119.398 670.964 119.034V122.786H668.99V113.126H670.964V114.092C671.206 113.728 671.51 113.453 671.874 113.266C672.238 113.079 672.658 112.986 673.134 112.986ZM672.686 114.862C672.2 114.862 671.79 115.025 671.454 115.352C671.127 115.679 670.964 116.08 670.964 116.556C670.964 117.041 671.127 117.447 671.454 117.774C671.78 118.091 672.191 118.25 672.686 118.25C673.162 118.25 673.563 118.087 673.89 117.76C674.226 117.433 674.394 117.032 674.394 116.556C674.394 116.089 674.226 115.693 673.89 115.366C673.563 115.03 673.162 114.862 672.686 114.862ZM679.057 119.44L676.411 113.126H678.539L680.065 117.144L681.591 113.126H683.719L679.673 122.8H677.545L679.057 119.44ZM684.48 110.2H686.454V120H684.48V110.2ZM691.16 120.14C690.497 120.14 689.891 119.981 689.34 119.664C688.789 119.347 688.355 118.913 688.038 118.362C687.721 117.802 687.562 117.191 687.562 116.528C687.562 115.875 687.716 115.277 688.024 114.736C688.341 114.195 688.771 113.77 689.312 113.462C689.863 113.145 690.469 112.986 691.132 112.986C691.748 112.986 692.313 113.135 692.826 113.434C693.349 113.723 693.759 114.125 694.058 114.638C694.366 115.151 694.52 115.721 694.52 116.346C694.52 116.607 694.506 116.85 694.478 117.074H689.396C689.471 117.513 689.662 117.858 689.97 118.11C690.287 118.362 690.675 118.488 691.132 118.488C691.496 118.488 691.795 118.418 692.028 118.278C692.271 118.129 692.425 117.933 692.49 117.69H694.422C694.31 118.437 693.955 119.034 693.358 119.482C692.761 119.921 692.028 120.14 691.16 120.14ZM692.448 115.758C692.411 115.422 692.257 115.147 691.986 114.932C691.725 114.717 691.407 114.61 691.034 114.61C690.651 114.61 690.325 114.708 690.054 114.904C689.783 115.091 689.592 115.375 689.48 115.758H692.448ZM697.597 114.022C697.811 113.686 698.077 113.429 698.395 113.252C698.712 113.075 699.067 112.986 699.459 112.986C700.336 112.986 701.022 113.266 701.517 113.826C702.021 114.377 702.273 115.137 702.273 116.108V120H700.299V116.36C700.299 115.912 700.173 115.553 699.921 115.282C699.678 115.011 699.356 114.876 698.955 114.876C698.544 114.876 698.213 115.011 697.961 115.282C697.718 115.553 697.597 115.912 697.597 116.36V120H695.623V113.126H697.597V114.022ZM706.91 120.14C706.247 120.14 705.641 119.981 705.09 119.664C704.539 119.347 704.105 118.913 703.788 118.362C703.471 117.802 703.312 117.191 703.312 116.528C703.312 115.875 703.466 115.277 703.774 114.736C704.091 114.195 704.521 113.77 705.062 113.462C705.613 113.145 706.219 112.986 706.882 112.986C707.498 112.986 708.063 113.135 708.576 113.434C709.099 113.723 709.509 114.125 709.808 114.638C710.116 115.151 710.27 115.721 710.27 116.346C710.27 116.607 710.256 116.85 710.228 117.074H705.146C705.221 117.513 705.412 117.858 705.72 118.11C706.037 118.362 706.425 118.488 706.882 118.488C707.246 118.488 707.545 118.418 707.778 118.278C708.021 118.129 708.175 117.933 708.24 117.69H710.172C710.06 118.437 709.705 119.034 709.108 119.482C708.511 119.921 707.778 120.14 706.91 120.14ZM708.198 115.758C708.161 115.422 708.007 115.147 707.736 114.932C707.475 114.717 707.157 114.61 706.784 114.61C706.401 114.61 706.075 114.708 705.804 114.904C705.533 115.091 705.342 115.375 705.23 115.758H708.198ZM637.568 127.2H641.334C641.876 127.2 642.384 127.335 642.86 127.606C643.336 127.877 643.714 128.245 643.994 128.712C644.284 129.169 644.428 129.673 644.428 130.224C644.428 130.859 644.288 131.409 644.008 131.876C643.738 132.343 643.355 132.697 642.86 132.94L645.436 137H642.916L640.704 133.262H639.64V137H637.568V127.2ZM641.054 131.232C641.437 131.232 641.736 131.143 641.95 130.966C642.165 130.789 642.272 130.541 642.272 130.224C642.272 129.916 642.165 129.678 641.95 129.51C641.736 129.333 641.437 129.244 641.054 129.244H639.64V131.232H641.054ZM648.907 137.14C648.244 137.14 647.638 136.981 647.087 136.664C646.536 136.347 646.102 135.913 645.785 135.362C645.468 134.802 645.309 134.191 645.309 133.528C645.309 132.875 645.463 132.277 645.771 131.736C646.088 131.195 646.518 130.77 647.059 130.462C647.61 130.145 648.216 129.986 648.879 129.986C649.495 129.986 650.06 130.135 650.573 130.434C651.096 130.723 651.506 131.125 651.805 131.638C652.113 132.151 652.267 132.721 652.267 133.346C652.267 133.607 652.253 133.85 652.225 134.074H647.143C647.218 134.513 647.409 134.858 647.717 135.11C648.034 135.362 648.422 135.488 648.879 135.488C649.243 135.488 649.542 135.418 649.775 135.278C650.018 135.129 650.172 134.933 650.237 134.69H652.169C652.057 135.437 651.702 136.034 651.105 136.482C650.508 136.921 649.775 137.14 648.907 137.14ZM650.195 132.758C650.158 132.422 650.004 132.147 649.733 131.932C649.472 131.717 649.154 131.61 648.781 131.61C648.398 131.61 648.072 131.708 647.801 131.904C647.53 132.091 647.339 132.375 647.227 132.758H650.195ZM656.59 137.14C655.927 137.14 655.325 136.986 654.784 136.678C654.242 136.361 653.813 135.931 653.496 135.39C653.188 134.849 653.034 134.242 653.034 133.57C653.034 132.898 653.188 132.291 653.496 131.75C653.813 131.199 654.242 130.77 654.784 130.462C655.325 130.145 655.927 129.986 656.59 129.986C657.159 129.986 657.691 130.107 658.186 130.35C658.68 130.583 659.086 130.91 659.404 131.33C659.721 131.75 659.908 132.221 659.964 132.744H657.948C657.873 132.492 657.71 132.287 657.458 132.128C657.206 131.96 656.916 131.876 656.59 131.876C656.123 131.876 655.736 132.039 655.428 132.366C655.12 132.683 654.966 133.085 654.966 133.57C654.966 134.046 655.12 134.447 655.428 134.774C655.745 135.091 656.132 135.25 656.59 135.25C656.926 135.25 657.22 135.166 657.472 134.998C657.733 134.821 657.901 134.597 657.976 134.326H659.964C659.917 134.858 659.735 135.339 659.418 135.768C659.11 136.197 658.704 136.533 658.2 136.776C657.705 137.019 657.168 137.14 656.59 137.14ZM662.685 136.44L660.039 130.126H662.167L663.693 134.144L665.219 130.126H667.347L663.301 139.8H661.173L662.685 136.44ZM671 137.14C670.337 137.14 669.735 136.986 669.194 136.678C668.652 136.361 668.223 135.931 667.906 135.39C667.598 134.849 667.444 134.242 667.444 133.57C667.444 132.898 667.598 132.291 667.906 131.75C668.223 131.199 668.652 130.77 669.194 130.462C669.735 130.145 670.337 129.986 671 129.986C671.569 129.986 672.101 130.107 672.596 130.35C673.09 130.583 673.496 130.91 673.814 131.33C674.131 131.75 674.318 132.221 674.374 132.744H672.358C672.283 132.492 672.12 132.287 671.868 132.128C671.616 131.96 671.326 131.876 671 131.876C670.533 131.876 670.146 132.039 669.838 132.366C669.53 132.683 669.376 133.085 669.376 133.57C669.376 134.046 669.53 134.447 669.838 134.774C670.155 135.091 670.542 135.25 671 135.25C671.336 135.25 671.63 135.166 671.882 134.998C672.143 134.821 672.311 134.597 672.386 134.326H674.374C674.327 134.858 674.145 135.339 673.828 135.768C673.52 136.197 673.114 136.533 672.61 136.776C672.115 137.019 671.578 137.14 671 137.14ZM675.436 127.2H677.41V137H675.436V127.2ZM682.116 137.14C681.453 137.14 680.847 136.981 680.296 136.664C679.745 136.347 679.311 135.913 678.994 135.362C678.677 134.802 678.518 134.191 678.518 133.528C678.518 132.875 678.672 132.277 678.98 131.736C679.297 131.195 679.727 130.77 680.268 130.462C680.819 130.145 681.425 129.986 682.088 129.986C682.704 129.986 683.269 130.135 683.782 130.434C684.305 130.723 684.715 131.125 685.014 131.638C685.322 132.151 685.476 132.721 685.476 133.346C685.476 133.607 685.462 133.85 685.434 134.074H680.352C680.427 134.513 680.618 134.858 680.926 135.11C681.243 135.362 681.631 135.488 682.088 135.488C682.452 135.488 682.751 135.418 682.984 135.278C683.227 135.129 683.381 134.933 683.446 134.69H685.378C685.266 135.437 684.911 136.034 684.314 136.482C683.717 136.921 682.984 137.14 682.116 137.14ZM683.404 132.758C683.367 132.422 683.213 132.147 682.942 131.932C682.681 131.717 682.363 131.61 681.99 131.61C681.607 131.61 681.281 131.708 681.01 131.904C680.739 132.091 680.548 132.375 680.436 132.758H683.404ZM689.435 137.14C688.856 137.14 688.319 136.981 687.825 136.664C687.339 136.337 686.952 135.899 686.663 135.348C686.383 134.797 686.243 134.2 686.243 133.556C686.243 132.912 686.383 132.315 686.663 131.764C686.952 131.213 687.339 130.779 687.825 130.462C688.319 130.145 688.856 129.986 689.435 129.986C689.911 129.986 690.331 130.079 690.695 130.266C691.059 130.453 691.362 130.728 691.605 131.092V127.2H693.579V137H691.605V136.034C691.362 136.398 691.059 136.673 690.695 136.86C690.331 137.047 689.911 137.14 689.435 137.14ZM689.883 135.25C690.377 135.25 690.788 135.091 691.115 134.774C691.441 134.447 691.605 134.041 691.605 133.556C691.605 133.08 691.437 132.679 691.101 132.352C690.774 132.025 690.368 131.862 689.883 131.862C689.407 131.862 689.001 132.03 688.665 132.366C688.338 132.693 688.175 133.089 688.175 133.556C688.175 134.032 688.338 134.433 688.665 134.76C689.001 135.087 689.407 135.25 689.883 135.25Z" fill="#4F6D5D"></path>
  <path d="M606.512 74.94L615.296 66.264C616.712 64.872 617.708 63.756 618.284 62.916C618.86 62.076 619.148 61.212 619.148 60.324C619.148 59.22 618.764 58.32 617.996 57.624C617.252 56.904 616.292 56.544 615.116 56.544C613.676 56.544 612.536 57 611.696 57.912C610.88 58.824 610.496 60.048 610.544 61.584H606.296C606.248 59.784 606.584 58.188 607.304 56.796C608.048 55.404 609.104 54.336 610.472 53.592C611.84 52.824 613.388 52.44 615.116 52.44C616.7 52.44 618.128 52.776 619.4 53.448C620.672 54.096 621.668 55.008 622.388 56.184C623.108 57.336 623.468 58.656 623.468 60.144C623.468 61.608 623.024 63.036 622.136 64.428C621.272 65.82 619.988 67.32 618.284 68.928L613.316 73.896H623.648V78H606.512V74.94ZM636.304 78.36C634.336 78.36 632.632 77.832 631.192 76.776C629.752 75.696 628.648 74.184 627.88 72.24C627.136 70.296 626.764 68.016 626.764 65.4C626.764 62.784 627.136 60.504 627.88 58.56C628.648 56.616 629.752 55.116 631.192 54.06C632.632 52.98 634.336 52.44 636.304 52.44C638.272 52.44 639.964 52.98 641.38 54.06C642.82 55.116 643.912 56.616 644.656 58.56C645.424 60.504 645.808 62.784 645.808 65.4C645.808 68.016 645.424 70.296 644.656 72.24C643.912 74.184 642.82 75.696 641.38 76.776C639.964 77.832 638.272 78.36 636.304 78.36ZM636.304 74.256C637.96 74.256 639.232 73.512 640.12 72.024C641.032 70.512 641.488 68.304 641.488 65.4C641.488 62.496 641.032 60.3 640.12 58.812C639.232 57.3 637.96 56.544 636.304 56.544C634.648 56.544 633.364 57.3 632.452 58.812C631.564 60.3 631.12 62.496 631.12 65.4C631.12 68.304 631.564 70.512 632.452 72.024C633.364 73.512 634.648 74.256 636.304 74.256ZM665.392 78.216C663.4 78.216 661.816 77.628 660.64 76.452C659.488 75.252 658.912 73.56 658.912 71.376V64.212H655.564V60.396H658.912V55.68H662.944V60.396H667.552V64.212H662.944V71.304C662.944 72.384 663.232 73.176 663.808 73.68C664.408 74.184 665.224 74.436 666.256 74.436C666.76 74.436 667.192 74.388 667.552 74.292V78C666.952 78.144 666.232 78.216 665.392 78.216ZM678.367 60.036C680.047 60.036 681.583 60.444 682.975 61.26C684.367 62.052 685.459 63.156 686.251 64.572C687.067 65.964 687.475 67.512 687.475 69.216C687.475 70.92 687.067 72.468 686.251 73.86C685.459 75.252 684.367 76.356 682.975 77.172C681.583 77.964 680.047 78.36 678.367 78.36C676.663 78.36 675.115 77.964 673.723 77.172C672.331 76.356 671.227 75.252 670.411 73.86C669.619 72.468 669.223 70.92 669.223 69.216C669.223 67.512 669.619 65.964 670.411 64.572C671.227 63.156 672.331 62.052 673.723 61.26C675.115 60.444 676.663 60.036 678.367 60.036ZM678.367 63.852C677.407 63.852 676.519 64.092 675.703 64.572C674.911 65.028 674.275 65.676 673.795 66.516C673.339 67.332 673.111 68.232 673.111 69.216C673.111 70.2 673.339 71.1 673.795 71.916C674.275 72.708 674.911 73.344 675.703 73.824C676.519 74.28 677.407 74.508 678.367 74.508C679.327 74.508 680.203 74.28 680.995 73.824C681.787 73.344 682.411 72.708 682.867 71.916C683.347 71.1 683.587 70.2 683.587 69.216C683.587 68.232 683.347 67.332 682.867 66.516C682.411 65.676 681.775 65.028 680.959 64.572C680.167 64.092 679.303 63.852 678.367 63.852ZM694.935 63.168C695.487 62.16 696.219 61.392 697.131 60.864C698.067 60.312 699.111 60.036 700.263 60.036C702.519 60.036 704.295 60.744 705.591 62.16C706.911 63.576 707.571 65.508 707.571 67.956V78H703.539V68.46C703.539 67.068 703.143 65.964 702.351 65.148C701.583 64.308 700.563 63.888 699.291 63.888C697.971 63.888 696.915 64.308 696.123 65.148C695.331 65.964 694.935 67.068 694.935 68.46V78H690.939V60.396H694.935V63.168ZM718.231 78.36C716.071 78.36 714.307 77.832 712.939 76.776C711.571 75.696 710.803 74.22 710.635 72.348H714.523C714.595 73.092 714.967 73.692 715.639 74.148C716.311 74.58 717.151 74.796 718.159 74.796C719.095 74.796 719.815 74.628 720.319 74.292C720.847 73.932 721.111 73.476 721.111 72.924C721.111 72.276 720.799 71.808 720.175 71.52C719.551 71.208 718.591 70.92 717.295 70.656C715.999 70.392 714.931 70.116 714.091 69.828C713.251 69.516 712.531 69.012 711.931 68.316C711.331 67.62 711.031 66.672 711.031 65.472C711.031 64.44 711.307 63.516 711.859 62.7C712.411 61.86 713.191 61.212 714.199 60.756C715.231 60.276 716.407 60.036 717.727 60.036C719.623 60.036 721.243 60.528 722.587 61.512C723.955 62.472 724.747 63.828 724.963 65.58H720.895C720.823 64.956 720.487 64.464 719.887 64.104C719.311 63.72 718.567 63.528 717.655 63.528C716.815 63.528 716.155 63.684 715.675 63.996C715.195 64.284 714.955 64.704 714.955 65.256C714.955 65.856 715.243 66.288 715.819 66.552C716.419 66.816 717.355 67.092 718.627 67.38C719.971 67.668 721.075 67.98 721.939 68.316C722.803 68.652 723.547 69.192 724.171 69.936C724.795 70.656 725.107 71.652 725.107 72.924C725.107 73.932 724.807 74.856 724.207 75.696C723.607 76.512 722.779 77.16 721.723 77.64C720.667 78.12 719.503 78.36 718.231 78.36Z" fill="white"></path>
  <path d="M179.512 74.94L188.296 66.264C189.712 64.872 190.708 63.756 191.284 62.916C191.86 62.076 192.148 61.212 192.148 60.324C192.148 59.22 191.764 58.32 190.996 57.624C190.252 56.904 189.292 56.544 188.116 56.544C186.676 56.544 185.536 57 184.696 57.912C183.88 58.824 183.496 60.048 183.544 61.584H179.296C179.248 59.784 179.584 58.188 180.304 56.796C181.048 55.404 182.104 54.336 183.472 53.592C184.84 52.824 186.388 52.44 188.116 52.44C189.7 52.44 191.128 52.776 192.4 53.448C193.672 54.096 194.668 55.008 195.388 56.184C196.108 57.336 196.468 58.656 196.468 60.144C196.468 61.608 196.024 63.036 195.136 64.428C194.272 65.82 192.988 67.32 191.284 68.928L186.316 73.896H196.648V78H179.512V74.94ZM208.044 78.36C206.46 78.36 205.02 78.06 203.724 77.46C202.428 76.836 201.384 75.972 200.592 74.868C199.8 73.74 199.344 72.468 199.224 71.052H203.436C203.628 71.988 204.132 72.756 204.948 73.356C205.764 73.956 206.796 74.256 208.044 74.256C209.388 74.256 210.492 73.848 211.356 73.032C212.244 72.192 212.688 71.112 212.688 69.792C212.688 68.496 212.22 67.488 211.284 66.768C210.348 66.048 209.136 65.688 207.648 65.688C206.76 65.688 205.872 65.808 204.984 66.048V63.276L210.888 56.832H199.908V52.8H216.828V55.608L210.06 62.772C211.356 62.772 212.532 63.084 213.588 63.708C214.644 64.308 215.472 65.16 216.072 66.264C216.696 67.344 217.008 68.556 217.008 69.9C217.008 71.532 216.624 72.996 215.856 74.292C215.088 75.564 214.02 76.56 212.652 77.28C211.308 78 209.772 78.36 208.044 78.36ZM228.612 78.36C227.076 78.36 225.66 78.072 224.364 77.496C223.068 76.896 222.012 76.044 221.196 74.94C220.38 73.836 219.924 72.54 219.828 71.052H224.04C224.28 72.012 224.808 72.792 225.624 73.392C226.44 73.968 227.436 74.256 228.612 74.256C229.908 74.256 230.988 73.824 231.852 72.96C232.74 72.096 233.184 71.04 233.184 69.792C233.184 68.472 232.74 67.38 231.852 66.516C230.988 65.628 229.908 65.184 228.612 65.184C227.796 65.184 227.028 65.328 226.308 65.616C225.612 65.88 225.048 66.252 224.616 66.732H220.944L222.096 52.8H235.848V56.76H225.876L225.264 62.916C225.72 62.532 226.32 62.232 227.064 62.016C227.808 61.776 228.588 61.656 229.404 61.656C230.916 61.656 232.284 61.992 233.508 62.664C234.756 63.336 235.728 64.296 236.424 65.544C237.144 66.792 237.504 68.232 237.504 69.864C237.504 71.472 237.108 72.924 236.316 74.22C235.524 75.516 234.444 76.536 233.076 77.28C231.732 78 230.244 78.36 228.612 78.36ZM256.744 78.216C254.752 78.216 253.168 77.628 251.992 76.452C250.84 75.252 250.264 73.56 250.264 71.376V64.212H246.916V60.396H250.264V55.68H254.296V60.396H258.904V64.212H254.296V71.304C254.296 72.384 254.584 73.176 255.16 73.68C255.76 74.184 256.576 74.436 257.608 74.436C258.112 74.436 258.544 74.388 258.904 74.292V78C258.304 78.144 257.584 78.216 256.744 78.216ZM269.719 60.036C271.399 60.036 272.935 60.444 274.327 61.26C275.719 62.052 276.811 63.156 277.603 64.572C278.419 65.964 278.827 67.512 278.827 69.216C278.827 70.92 278.419 72.468 277.603 73.86C276.811 75.252 275.719 76.356 274.327 77.172C272.935 77.964 271.399 78.36 269.719 78.36C268.015 78.36 266.467 77.964 265.075 77.172C263.683 76.356 262.579 75.252 261.763 73.86C260.971 72.468 260.575 70.92 260.575 69.216C260.575 67.512 260.971 65.964 261.763 64.572C262.579 63.156 263.683 62.052 265.075 61.26C266.467 60.444 268.015 60.036 269.719 60.036ZM269.719 63.852C268.759 63.852 267.871 64.092 267.055 64.572C266.263 65.028 265.627 65.676 265.147 66.516C264.691 67.332 264.463 68.232 264.463 69.216C264.463 70.2 264.691 71.1 265.147 71.916C265.627 72.708 266.263 73.344 267.055 73.824C267.871 74.28 268.759 74.508 269.719 74.508C270.679 74.508 271.555 74.28 272.347 73.824C273.139 73.344 273.763 72.708 274.219 71.916C274.699 71.1 274.939 70.2 274.939 69.216C274.939 68.232 274.699 67.332 274.219 66.516C273.763 65.676 273.127 65.028 272.311 64.572C271.519 64.092 270.655 63.852 269.719 63.852ZM286.287 63.168C286.839 62.16 287.571 61.392 288.483 60.864C289.419 60.312 290.463 60.036 291.615 60.036C293.871 60.036 295.647 60.744 296.943 62.16C298.263 63.576 298.923 65.508 298.923 67.956V78H294.891V68.46C294.891 67.068 294.495 65.964 293.703 65.148C292.935 64.308 291.915 63.888 290.643 63.888C289.323 63.888 288.267 64.308 287.475 65.148C286.683 65.964 286.287 67.068 286.287 68.46V78H282.291V60.396H286.287V63.168ZM309.582 78.36C307.422 78.36 305.658 77.832 304.29 76.776C302.922 75.696 302.154 74.22 301.986 72.348H305.874C305.946 73.092 306.318 73.692 306.99 74.148C307.662 74.58 308.502 74.796 309.51 74.796C310.446 74.796 311.166 74.628 311.67 74.292C312.198 73.932 312.462 73.476 312.462 72.924C312.462 72.276 312.15 71.808 311.526 71.52C310.902 71.208 309.942 70.92 308.646 70.656C307.35 70.392 306.282 70.116 305.442 69.828C304.602 69.516 303.882 69.012 303.282 68.316C302.682 67.62 302.382 66.672 302.382 65.472C302.382 64.44 302.658 63.516 303.21 62.7C303.762 61.86 304.542 61.212 305.55 60.756C306.582 60.276 307.758 60.036 309.078 60.036C310.974 60.036 312.594 60.528 313.938 61.512C315.306 62.472 316.098 63.828 316.314 65.58H312.246C312.174 64.956 311.838 64.464 311.238 64.104C310.662 63.72 309.918 63.528 309.006 63.528C308.166 63.528 307.506 63.684 307.026 63.996C306.546 64.284 306.306 64.704 306.306 65.256C306.306 65.856 306.594 66.288 307.17 66.552C307.77 66.816 308.706 67.092 309.978 67.38C311.322 67.668 312.426 67.98 313.29 68.316C314.154 68.652 314.898 69.192 315.522 69.936C316.146 70.656 316.458 71.652 316.458 72.924C316.458 73.932 316.158 74.856 315.558 75.696C314.958 76.512 314.13 77.16 313.074 77.64C312.018 78.12 310.854 78.36 309.582 78.36Z" fill="white"></path>
  <path d="M407.936 78.36C406.4 78.36 404.984 78.072 403.688 77.496C402.392 76.896 401.336 76.044 400.52 74.94C399.704 73.836 399.248 72.54 399.152 71.052H403.364C403.604 72.012 404.132 72.792 404.948 73.392C405.764 73.968 406.76 74.256 407.936 74.256C409.232 74.256 410.312 73.824 411.176 72.96C412.064 72.096 412.508 71.04 412.508 69.792C412.508 68.472 412.064 67.38 411.176 66.516C410.312 65.628 409.232 65.184 407.936 65.184C407.12 65.184 406.352 65.328 405.632 65.616C404.936 65.88 404.372 66.252 403.94 66.732H400.268L401.42 52.8H415.172V56.76H405.2L404.588 62.916C405.044 62.532 405.644 62.232 406.388 62.016C407.132 61.776 407.912 61.656 408.728 61.656C410.24 61.656 411.608 61.992 412.832 62.664C414.08 63.336 415.052 64.296 415.748 65.544C416.468 66.792 416.828 68.232 416.828 69.864C416.828 71.472 416.432 72.924 415.64 74.22C414.848 75.516 413.768 76.536 412.4 77.28C411.056 78 409.568 78.36 407.936 78.36ZM427.973 78.36C426.389 78.36 424.949 78.06 423.653 77.46C422.357 76.836 421.313 75.972 420.521 74.868C419.729 73.74 419.273 72.468 419.153 71.052H423.365C423.557 71.988 424.061 72.756 424.877 73.356C425.693 73.956 426.725 74.256 427.973 74.256C429.317 74.256 430.421 73.848 431.285 73.032C432.173 72.192 432.617 71.112 432.617 69.792C432.617 68.496 432.149 67.488 431.213 66.768C430.277 66.048 429.065 65.688 427.577 65.688C426.689 65.688 425.801 65.808 424.913 66.048V63.276L430.817 56.832H419.837V52.8H436.757V55.608L429.989 62.772C431.285 62.772 432.461 63.084 433.517 63.708C434.573 64.308 435.401 65.16 436.001 66.264C436.625 67.344 436.937 68.556 436.937 69.9C436.937 71.532 436.553 72.996 435.785 74.292C435.017 75.564 433.949 76.56 432.581 77.28C431.237 78 429.701 78.36 427.973 78.36ZM456.564 78.216C454.572 78.216 452.988 77.628 451.812 76.452C450.66 75.252 450.084 73.56 450.084 71.376V64.212H446.736V60.396H450.084V55.68H454.116V60.396H458.724V64.212H454.116V71.304C454.116 72.384 454.404 73.176 454.98 73.68C455.58 74.184 456.396 74.436 457.428 74.436C457.932 74.436 458.364 74.388 458.724 74.292V78C458.124 78.144 457.404 78.216 456.564 78.216ZM469.539 60.036C471.219 60.036 472.755 60.444 474.147 61.26C475.539 62.052 476.631 63.156 477.423 64.572C478.239 65.964 478.647 67.512 478.647 69.216C478.647 70.92 478.239 72.468 477.423 73.86C476.631 75.252 475.539 76.356 474.147 77.172C472.755 77.964 471.219 78.36 469.539 78.36C467.835 78.36 466.287 77.964 464.895 77.172C463.503 76.356 462.399 75.252 461.583 73.86C460.791 72.468 460.395 70.92 460.395 69.216C460.395 67.512 460.791 65.964 461.583 64.572C462.399 63.156 463.503 62.052 464.895 61.26C466.287 60.444 467.835 60.036 469.539 60.036ZM469.539 63.852C468.579 63.852 467.691 64.092 466.875 64.572C466.083 65.028 465.447 65.676 464.967 66.516C464.511 67.332 464.283 68.232 464.283 69.216C464.283 70.2 464.511 71.1 464.967 71.916C465.447 72.708 466.083 73.344 466.875 73.824C467.691 74.28 468.579 74.508 469.539 74.508C470.499 74.508 471.375 74.28 472.167 73.824C472.959 73.344 473.583 72.708 474.039 71.916C474.519 71.1 474.759 70.2 474.759 69.216C474.759 68.232 474.519 67.332 474.039 66.516C473.583 65.676 472.947 65.028 472.131 64.572C471.339 64.092 470.475 63.852 469.539 63.852ZM486.107 63.168C486.659 62.16 487.391 61.392 488.303 60.864C489.239 60.312 490.283 60.036 491.435 60.036C493.691 60.036 495.467 60.744 496.763 62.16C498.083 63.576 498.743 65.508 498.743 67.956V78H494.711V68.46C494.711 67.068 494.315 65.964 493.523 65.148C492.755 64.308 491.735 63.888 490.463 63.888C489.143 63.888 488.087 64.308 487.295 65.148C486.503 65.964 486.107 67.068 486.107 68.46V78H482.111V60.396H486.107V63.168ZM509.403 78.36C507.243 78.36 505.479 77.832 504.111 76.776C502.743 75.696 501.975 74.22 501.807 72.348H505.695C505.767 73.092 506.139 73.692 506.811 74.148C507.483 74.58 508.323 74.796 509.331 74.796C510.267 74.796 510.987 74.628 511.491 74.292C512.019 73.932 512.283 73.476 512.283 72.924C512.283 72.276 511.971 71.808 511.347 71.52C510.723 71.208 509.763 70.92 508.467 70.656C507.171 70.392 506.103 70.116 505.263 69.828C504.423 69.516 503.703 69.012 503.103 68.316C502.503 67.62 502.203 66.672 502.203 65.472C502.203 64.44 502.479 63.516 503.031 62.7C503.583 61.86 504.363 61.212 505.371 60.756C506.403 60.276 507.579 60.036 508.899 60.036C510.795 60.036 512.415 60.528 513.759 61.512C515.127 62.472 515.919 63.828 516.135 65.58H512.067C511.995 64.956 511.659 64.464 511.059 64.104C510.483 63.72 509.739 63.528 508.827 63.528C507.987 63.528 507.327 63.684 506.847 63.996C506.367 64.284 506.127 64.704 506.127 65.256C506.127 65.856 506.415 66.288 506.991 66.552C507.591 66.816 508.527 67.092 509.799 67.38C511.143 67.668 512.247 67.98 513.111 68.316C513.975 68.652 514.719 69.192 515.343 69.936C515.967 70.656 516.279 71.652 516.279 72.924C516.279 73.932 515.979 74.856 515.379 75.696C514.779 76.512 513.951 77.16 512.895 77.64C511.839 78.12 510.675 78.36 509.403 78.36Z" fill="white"></path>
  <path d="M25.3981 90.7951L29.6514 83.451L35.8962 72.6826L39.9242 74.9895L36.3828 62.2656L23.5688 65.5727L27.6779 67.9337L22.2802 77.2693C20.5771 80.2069 20.46 83.7934 21.9648 86.8392C22.7578 88.4612 23.9563 89.8039 25.4161 90.7771C25.4432 90.8041 25.4702 90.8222 25.4972 90.8312C26.9841 91.8134 28.7322 92.4081 30.5886 92.5072L39.3114 92.9668C40.1585 93.0119 40.8703 92.336 40.8703 91.489V85.4244C40.8703 84.6405 40.2576 83.9917 39.4646 83.9466L29.6694 83.433" fill="#4F6D5D"></path>
  <path d="M76.7506 83.5708H68.2531H55.7815V78.939L46.5 88.3557L55.7815 97.7634V93.0326H66.595C69.9922 93.0326 73.1732 91.3475 75.0745 88.5179C76.0838 87.0221 76.6515 85.3099 76.7687 83.5708C76.7687 83.5347 76.7687 83.4987 76.7687 83.4717C76.8858 81.6965 76.5163 79.8852 75.6783 78.2452L71.7134 70.4865C71.3259 69.7296 70.3887 69.4592 69.6498 69.8737L64.3873 72.9015C63.7024 73.298 63.4501 74.1541 63.8105 74.8479L68.2621 83.5618" fill="#4F6D5D"></path>
  <path d="M44.7591 42.9288L49.0034 50.273L55.2391 61.0504L51.2111 63.3753L64.0341 66.6824L67.5665 53.9586L63.4574 56.3195L58.0506 46.9929C56.3475 44.0552 53.2927 42.1539 49.8955 41.9286C48.0932 41.8024 46.318 42.1719 44.7501 42.9378C44.714 42.9378 44.687 42.9649 44.66 42.9829C43.056 43.7759 41.6773 44.9924 40.668 46.5423L35.9101 53.8504C35.4505 54.5623 35.6758 55.5085 36.4147 55.932L41.6773 58.9598C42.3621 59.3563 43.2272 59.14 43.6597 58.4822L49.0034 50.282" fill="#4F6D5D"></path>
</svg>
