<?xml version="1.0" encoding="UTF-8"?>
<svg xmlns="http://www.w3.org/2000/svg" width="207" height="376" viewBox="0 0 207 376" fill="none">
  <rect width="207" height="376" rx="20" fill="#EBF1E0"></rect>
  <path d="M45.44 209.48C43.232 209.48 41.248 209.048 39.488 208.184C37.76 207.32 36.4 206.12 35.408 204.584C34.448 203.048 33.968 201.336 33.968 199.448C33.968 197.56 34.512 195.832 35.6 194.264C36.72 192.696 38.176 191.56 39.968 190.856C38.592 190.248 37.456 189.288 36.56 187.976C35.664 186.664 35.216 185.288 35.216 183.848C35.216 182.152 35.648 180.632 36.512 179.288C37.408 177.912 38.624 176.84 40.16 176.072C41.728 175.304 43.488 174.92 45.44 174.92C47.392 174.92 49.136 175.304 50.672 176.072C52.24 176.84 53.456 177.912 54.32 179.288C55.216 180.632 55.664 182.152 55.664 183.848C55.664 185.32 55.216 186.712 54.32 188.024C53.456 189.304 52.32 190.248 50.912 190.856C52.704 191.528 54.144 192.648 55.232 194.216C56.352 195.784 56.912 197.528 56.912 199.448C56.912 201.336 56.416 203.048 55.424 204.584C54.464 206.12 53.104 207.32 51.344 208.184C49.616 209.048 47.648 209.48 45.44 209.48ZM45.44 204.248C47.168 204.248 48.592 203.768 49.712 202.808C50.832 201.816 51.392 200.568 51.392 199.064C51.392 197.56 50.832 196.328 49.712 195.368C48.592 194.408 47.168 193.928 45.44 193.928C43.744 193.928 42.336 194.424 41.216 195.416C40.096 196.376 39.536 197.592 39.536 199.064C39.536 200.568 40.096 201.816 41.216 202.808C42.336 203.768 43.744 204.248 45.44 204.248ZM45.44 188.264C46.848 188.264 47.984 187.864 48.848 187.064C49.744 186.264 50.192 185.272 50.192 184.088C50.192 182.872 49.744 181.88 48.848 181.112C47.984 180.312 46.848 179.912 45.44 179.912C44.064 179.912 42.928 180.312 42.032 181.112C41.136 181.88 40.688 182.872 40.688 184.088C40.688 185.272 41.136 186.264 42.032 187.064C42.928 187.864 44.064 188.264 45.44 188.264ZM71.9645 209.48C69.8525 209.48 67.9325 209.08 66.2045 208.28C64.4765 207.448 63.0845 206.296 62.0285 204.824C60.9725 203.32 60.3645 201.624 60.2045 199.736H65.8205C66.0765 200.984 66.7485 202.008 67.8365 202.808C68.9245 203.608 70.3005 204.008 71.9645 204.008C73.7565 204.008 75.2285 203.464 76.3805 202.376C77.5645 201.256 78.1565 199.816 78.1565 198.056C78.1565 196.328 77.5325 194.984 76.2845 194.024C75.0365 193.064 73.4205 192.584 71.4365 192.584C70.2525 192.584 69.0685 192.744 67.8845 193.064V189.368L75.7565 180.776H61.1165V175.4H83.6765V179.144L74.6525 188.696C76.3805 188.696 77.9485 189.112 79.3565 189.944C80.7645 190.744 81.8685 191.88 82.6685 193.352C83.5005 194.792 83.9165 196.408 83.9165 198.2C83.9165 200.376 83.4045 202.328 82.3805 204.056C81.3565 205.752 79.9325 207.08 78.1085 208.04C76.3165 209 74.2685 209.48 71.9645 209.48ZM90.9665 209.48C89.9105 209.48 89.0305 209.128 88.3265 208.424C87.6225 207.72 87.2705 206.856 87.2705 205.832C87.2705 204.808 87.6225 203.944 88.3265 203.24C89.0305 202.536 89.9105 202.184 90.9665 202.184C92.0225 202.184 92.9025 202.536 93.6065 203.24C94.3105 203.944 94.6625 204.808 94.6625 205.832C94.6625 206.856 94.3105 207.72 93.6065 208.424C92.9025 209.128 92.0225 209.48 90.9665 209.48ZM109.801 209.48C107.689 209.48 105.721 208.968 103.897 207.944C102.105 206.888 100.681 205.48 99.6245 203.72C98.5685 201.96 98.0405 200.056 98.0405 198.008C98.0405 196.824 98.2645 195.512 98.7125 194.072C99.1925 192.632 99.8805 191.192 100.777 189.752L109.657 175.4H116.089L108.553 187.304C109.321 187.048 110.057 186.92 110.761 186.92C112.777 186.92 114.601 187.4 116.233 188.36C117.865 189.32 119.145 190.648 120.073 192.344C121.033 194.04 121.513 195.928 121.513 198.008C121.513 200.056 120.985 201.96 119.929 203.72C118.873 205.48 117.449 206.888 115.657 207.944C113.865 208.968 111.913 209.48 109.801 209.48ZM109.801 204.152C111.561 204.152 113.049 203.56 114.265 202.376C115.481 201.16 116.089 199.688 116.089 197.96C116.089 196.2 115.465 194.712 114.217 193.496C113.001 192.28 111.513 191.672 109.753 191.672C107.993 191.672 106.505 192.28 105.289 193.496C104.105 194.712 103.513 196.2 103.513 197.96C103.513 199.688 104.121 201.16 105.337 202.376C106.553 203.56 108.041 204.152 109.801 204.152ZM137.582 209.48C134.958 209.48 132.686 208.776 130.766 207.368C128.846 205.928 127.374 203.912 126.35 201.32C125.358 198.728 124.862 195.688 124.862 192.2C124.862 188.712 125.358 185.672 126.35 183.08C127.374 180.488 128.846 178.488 130.766 177.08C132.686 175.64 134.958 174.92 137.582 174.92C140.206 174.92 142.462 175.64 144.35 177.08C146.27 178.488 147.726 180.488 148.718 183.08C149.742 185.672 150.254 188.712 150.254 192.2C150.254 195.688 149.742 198.728 148.718 201.32C147.726 203.912 146.27 205.928 144.35 207.368C142.462 208.776 140.206 209.48 137.582 209.48ZM137.582 204.008C139.79 204.008 141.486 203.016 142.67 201.032C143.886 199.016 144.494 196.072 144.494 192.2C144.494 188.328 143.886 185.4 142.67 183.416C141.486 181.4 139.79 180.392 137.582 180.392C135.374 180.392 133.662 181.4 132.446 183.416C131.262 185.4 130.67 188.328 130.67 192.2C130.67 196.072 131.262 199.016 132.446 201.032C133.662 203.016 135.374 204.008 137.582 204.008ZM183.19 202.28C183.19 204.36 182.534 206.088 181.222 207.464C179.91 208.808 178.262 209.48 176.278 209.48C174.294 209.48 172.646 208.808 171.334 207.464C170.054 206.088 169.414 204.36 169.414 202.28C169.414 200.232 170.054 198.536 171.334 197.192C172.646 195.848 174.294 195.176 176.278 195.176C178.262 195.176 179.91 195.848 181.222 197.192C182.534 198.536 183.19 200.232 183.19 202.28ZM179.59 202.28C179.59 201.192 179.286 200.312 178.678 199.64C178.102 198.936 177.302 198.584 176.278 198.584C175.286 198.584 174.486 198.936 173.878 199.64C173.302 200.312 173.014 201.192 173.014 202.28C173.014 203.4 173.302 204.312 173.878 205.016C174.486 205.72 175.286 206.072 176.278 206.072C177.302 206.072 178.102 205.72 178.678 205.016C179.286 204.312 179.59 203.4 179.59 202.28ZM167.398 182.024C167.398 184.104 166.742 185.832 165.43 187.208C164.15 188.552 162.518 189.224 160.534 189.224C158.582 189.224 156.95 188.552 155.638 187.208C154.326 185.832 153.67 184.104 153.67 182.024C153.67 179.976 154.31 178.28 155.59 176.936C156.902 175.592 158.55 174.92 160.534 174.92C162.518 174.92 164.15 175.592 165.43 176.936C166.742 178.28 167.398 179.976 167.398 182.024ZM163.846 182.024C163.846 180.936 163.542 180.04 162.934 179.336C162.326 178.632 161.526 178.28 160.534 178.28C159.542 178.28 158.742 178.632 158.134 179.336C157.526 180.04 157.222 180.936 157.222 182.024C157.222 183.144 157.526 184.056 158.134 184.76C158.742 185.464 159.542 185.816 160.534 185.816C161.526 185.816 162.326 185.464 162.934 184.76C163.542 184.056 163.846 183.144 163.846 182.024ZM181.75 175.4L159.43 209H155.11L177.43 175.4H181.75Z" fill="#4F6D5D"></path>
  <mask id="path-3-outside-1_1364_6104" maskUnits="userSpaceOnUse" x="53.8203" y="35.9609" width="102" height="102" fill="black">
    <rect fill="white" x="53.8203" y="35.9609" width="102" height="102"></rect>
    <path d="M128.23 64.4156C128.002 64.1871 128.002 63.8166 128.23 63.588L131.358 60.4515C131.586 60.2234 131.955 60.2229 132.183 60.4519C132.411 60.6804 132.411 61.0509 132.183 61.2795L129.055 64.416C128.941 64.5301 128.792 64.5871 128.642 64.5871C128.493 64.5871 128.344 64.5301 128.23 64.4156ZM139.065 77.1231C139.065 77.4462 138.804 77.7082 138.482 77.7082H134.061C133.739 77.7082 133.478 77.4461 133.478 77.1231C133.478 76.8002 133.739 76.5381 134.061 76.5381H138.482C138.804 76.5381 139.065 76.8001 139.065 77.1231ZM117.616 118.094C117.616 118.417 117.354 118.679 117.032 118.679H92.1474C91.8254 118.679 91.5642 118.417 91.5642 118.094C91.5642 117.771 91.8255 117.509 92.1474 117.509H117.032C117.354 117.509 117.616 117.771 117.616 118.094ZM120.271 85.3958C120.271 82.752 118.127 80.6014 115.491 80.6014C112.856 80.6014 110.712 82.752 110.712 85.3958C110.712 88.0396 112.856 90.1902 115.491 90.1902C118.127 90.1902 120.271 88.0397 120.271 85.3958ZM115.491 89.0201C113.499 89.0201 111.879 87.3941 111.879 85.3959C111.879 83.3977 113.499 81.7717 115.491 81.7717C117.483 81.7717 119.104 83.3977 119.104 85.3959C119.104 87.394 117.483 89.0201 115.491 89.0201ZM135.696 105.027H119.744C122.996 98.569 127.221 89.4267 127.221 85.5186C127.221 79.0691 121.991 73.822 115.561 73.822C109.132 73.822 103.902 79.0691 103.902 85.5186C103.902 89.4267 108.127 98.569 111.379 105.027H86.5094V84.921C88.0228 84.7426 92.3404 83.9802 95.4065 80.9049C99.0986 77.2006 99.4493 71.6618 99.4622 71.428C99.4718 71.2613 99.4093 71.0989 99.2921 70.9814C99.1749 70.8634 99.0109 70.8072 98.8469 70.8107C98.6142 70.8238 93.0925 71.176 89.3995 74.8794C87.4719 76.8134 86.4598 79.2431 85.9263 81.1612C85.393 79.243 84.381 76.8137 82.4535 74.8798C78.7605 71.1763 73.2388 70.8237 73.0062 70.8107C72.8456 70.8076 72.679 70.8634 72.5609 70.9814C72.4438 71.0989 72.3813 71.2613 72.3908 71.428C72.4039 71.6618 72.7544 77.2006 76.4458 80.9054C79.5122 83.9801 83.8297 84.7426 85.3429 84.9209V105.027H73.4837C73.1617 105.027 72.9005 105.289 72.9005 105.612C72.9005 105.935 73.1618 106.197 73.4837 106.197H111.972C113.129 108.463 114.106 110.289 114.636 111.268H79.7049C79.3829 111.268 79.1217 111.53 79.1217 111.853C79.1217 112.176 79.383 112.438 79.7049 112.438H129.475C129.797 112.438 130.058 112.176 130.058 111.853C130.058 111.53 129.797 111.268 129.475 111.268H116.486C117.016 110.289 117.993 108.463 119.15 106.197H135.696C136.018 106.197 136.279 105.935 136.279 105.612C136.279 105.289 136.018 105.027 135.696 105.027ZM90.2241 75.707C92.8687 73.0553 96.6745 72.2721 98.2211 72.0557C98.0059 73.6073 97.2248 77.4256 94.582 80.0777C91.9383 82.7284 88.1316 83.512 86.5849 83.7284C86.801 82.1769 87.5821 78.3581 90.2241 75.707ZM77.2704 80.0778C74.6284 77.4257 73.8473 73.6073 73.6321 72.0558C75.1787 72.2722 78.9845 73.0558 81.6291 75.707C84.2719 78.3586 85.0522 82.1787 85.2674 83.7294C83.7224 83.5152 79.9218 82.7355 77.2704 80.0778ZM115.561 74.9921C121.347 74.9921 126.054 79.7142 126.054 85.5185C126.054 90.6908 117.729 106.494 115.561 110.521C113.393 106.494 105.068 90.6909 105.068 85.5186C105.068 79.7143 109.776 74.9921 115.561 74.9921ZM114.978 58.5677V54.1316C114.978 53.8085 115.239 53.5465 115.561 53.5465C115.883 53.5465 116.144 53.8086 116.144 54.1316V58.5677C116.144 58.8907 115.883 59.1527 115.561 59.1527C115.239 59.1527 114.978 58.8907 114.978 58.5677ZM98.9423 61.2799C98.7141 61.0513 98.7141 60.6808 98.9423 60.4528C99.1697 60.2238 99.5395 60.2238 99.7668 60.4528L102.893 63.5898C103.121 63.8184 103.121 64.1889 102.893 64.4169C102.779 64.5315 102.63 64.5885 102.481 64.5885C102.331 64.5885 102.182 64.5315 102.068 64.4169L98.9423 61.2799ZM106.251 56.1067C106.128 55.8081 106.269 55.466 106.567 55.3422C106.863 55.2212 107.206 55.3601 107.329 55.6592L109.021 59.7575C109.144 60.0561 109.002 60.3982 108.705 60.522C108.632 60.552 108.556 60.5664 108.482 60.5664C108.253 60.5664 108.035 60.4306 107.943 60.205L106.251 56.1067ZM132.431 69.4838L136.517 67.7856C136.814 67.6642 137.156 67.8035 137.279 68.1025C137.402 68.4007 137.261 68.7433 136.963 68.867L132.877 70.5653C132.804 70.5953 132.729 70.6097 132.654 70.6097C132.426 70.6097 132.208 70.4739 132.115 70.2483C131.992 69.9501 132.133 69.6075 132.431 69.4838ZM122.102 59.7554L123.795 55.6576C123.917 55.3589 124.261 55.2183 124.557 55.3411C124.855 55.4653 124.996 55.8074 124.873 56.106L123.18 60.2038C123.087 60.4289 122.869 60.5647 122.641 60.5647C122.566 60.5647 122.491 60.5503 122.418 60.5203C122.12 60.3961 121.979 60.0539 122.102 59.7554ZM104.59 36.9609C77.105 36.9609 54.8203 59.3147 54.8203 86.8889C54.8203 114.463 77.105 136.817 104.59 136.817C132.078 136.817 154.36 114.463 154.36 86.8889C154.36 59.3147 132.078 36.9609 104.59 36.9609ZM104.59 135.647C77.7904 135.647 55.9868 113.774 55.9868 86.8889C55.9868 60.0038 77.7904 38.1312 104.59 38.1312C131.39 38.1312 153.194 60.0038 153.194 86.8889C153.194 113.774 131.39 135.647 104.59 135.647Z"></path>
  </mask>
  <path d="M128.23 64.4156C128.002 64.1871 128.002 63.8166 128.23 63.588L131.358 60.4515C131.586 60.2234 131.955 60.2229 132.183 60.4519C132.411 60.6804 132.411 61.0509 132.183 61.2795L129.055 64.416C128.941 64.5301 128.792 64.5871 128.642 64.5871C128.493 64.5871 128.344 64.5301 128.23 64.4156ZM139.065 77.1231C139.065 77.4462 138.804 77.7082 138.482 77.7082H134.061C133.739 77.7082 133.478 77.4461 133.478 77.1231C133.478 76.8002 133.739 76.5381 134.061 76.5381H138.482C138.804 76.5381 139.065 76.8001 139.065 77.1231ZM117.616 118.094C117.616 118.417 117.354 118.679 117.032 118.679H92.1474C91.8254 118.679 91.5642 118.417 91.5642 118.094C91.5642 117.771 91.8255 117.509 92.1474 117.509H117.032C117.354 117.509 117.616 117.771 117.616 118.094ZM120.271 85.3958C120.271 82.752 118.127 80.6014 115.491 80.6014C112.856 80.6014 110.712 82.752 110.712 85.3958C110.712 88.0396 112.856 90.1902 115.491 90.1902C118.127 90.1902 120.271 88.0397 120.271 85.3958ZM115.491 89.0201C113.499 89.0201 111.879 87.3941 111.879 85.3959C111.879 83.3977 113.499 81.7717 115.491 81.7717C117.483 81.7717 119.104 83.3977 119.104 85.3959C119.104 87.394 117.483 89.0201 115.491 89.0201ZM135.696 105.027H119.744C122.996 98.569 127.221 89.4267 127.221 85.5186C127.221 79.0691 121.991 73.822 115.561 73.822C109.132 73.822 103.902 79.0691 103.902 85.5186C103.902 89.4267 108.127 98.569 111.379 105.027H86.5094V84.921C88.0228 84.7426 92.3404 83.9802 95.4065 80.9049C99.0986 77.2006 99.4493 71.6618 99.4622 71.428C99.4718 71.2613 99.4093 71.0989 99.2921 70.9814C99.1749 70.8634 99.0109 70.8072 98.8469 70.8107C98.6142 70.8238 93.0925 71.176 89.3995 74.8794C87.4719 76.8134 86.4598 79.2431 85.9263 81.1612C85.393 79.243 84.381 76.8137 82.4535 74.8798C78.7605 71.1763 73.2388 70.8237 73.0062 70.8107C72.8456 70.8076 72.679 70.8634 72.5609 70.9814C72.4438 71.0989 72.3813 71.2613 72.3908 71.428C72.4039 71.6618 72.7544 77.2006 76.4458 80.9054C79.5122 83.9801 83.8297 84.7426 85.3429 84.9209V105.027H73.4837C73.1617 105.027 72.9005 105.289 72.9005 105.612C72.9005 105.935 73.1618 106.197 73.4837 106.197H111.972C113.129 108.463 114.106 110.289 114.636 111.268H79.7049C79.3829 111.268 79.1217 111.53 79.1217 111.853C79.1217 112.176 79.383 112.438 79.7049 112.438H129.475C129.797 112.438 130.058 112.176 130.058 111.853C130.058 111.53 129.797 111.268 129.475 111.268H116.486C117.016 110.289 117.993 108.463 119.15 106.197H135.696C136.018 106.197 136.279 105.935 136.279 105.612C136.279 105.289 136.018 105.027 135.696 105.027ZM90.2241 75.707C92.8687 73.0553 96.6745 72.2721 98.2211 72.0557C98.0059 73.6073 97.2248 77.4256 94.582 80.0777C91.9383 82.7284 88.1316 83.512 86.5849 83.7284C86.801 82.1769 87.5821 78.3581 90.2241 75.707ZM77.2704 80.0778C74.6284 77.4257 73.8473 73.6073 73.6321 72.0558C75.1787 72.2722 78.9845 73.0558 81.6291 75.707C84.2719 78.3586 85.0522 82.1787 85.2674 83.7294C83.7224 83.5152 79.9218 82.7355 77.2704 80.0778ZM115.561 74.9921C121.347 74.9921 126.054 79.7142 126.054 85.5185C126.054 90.6908 117.729 106.494 115.561 110.521C113.393 106.494 105.068 90.6909 105.068 85.5186C105.068 79.7143 109.776 74.9921 115.561 74.9921ZM114.978 58.5677V54.1316C114.978 53.8085 115.239 53.5465 115.561 53.5465C115.883 53.5465 116.144 53.8086 116.144 54.1316V58.5677C116.144 58.8907 115.883 59.1527 115.561 59.1527C115.239 59.1527 114.978 58.8907 114.978 58.5677ZM98.9423 61.2799C98.7141 61.0513 98.7141 60.6808 98.9423 60.4528C99.1697 60.2238 99.5395 60.2238 99.7668 60.4528L102.893 63.5898C103.121 63.8184 103.121 64.1889 102.893 64.4169C102.779 64.5315 102.63 64.5885 102.481 64.5885C102.331 64.5885 102.182 64.5315 102.068 64.4169L98.9423 61.2799ZM106.251 56.1067C106.128 55.8081 106.269 55.466 106.567 55.3422C106.863 55.2212 107.206 55.3601 107.329 55.6592L109.021 59.7575C109.144 60.0561 109.002 60.3982 108.705 60.522C108.632 60.552 108.556 60.5664 108.482 60.5664C108.253 60.5664 108.035 60.4306 107.943 60.205L106.251 56.1067ZM132.431 69.4838L136.517 67.7856C136.814 67.6642 137.156 67.8035 137.279 68.1025C137.402 68.4007 137.261 68.7433 136.963 68.867L132.877 70.5653C132.804 70.5953 132.729 70.6097 132.654 70.6097C132.426 70.6097 132.208 70.4739 132.115 70.2483C131.992 69.9501 132.133 69.6075 132.431 69.4838ZM122.102 59.7554L123.795 55.6576C123.917 55.3589 124.261 55.2183 124.557 55.3411C124.855 55.4653 124.996 55.8074 124.873 56.106L123.18 60.2038C123.087 60.4289 122.869 60.5647 122.641 60.5647C122.566 60.5647 122.491 60.5503 122.418 60.5203C122.12 60.3961 121.979 60.0539 122.102 59.7554ZM104.59 36.9609C77.105 36.9609 54.8203 59.3147 54.8203 86.8889C54.8203 114.463 77.105 136.817 104.59 136.817C132.078 136.817 154.36 114.463 154.36 86.8889C154.36 59.3147 132.078 36.9609 104.59 36.9609ZM104.59 135.647C77.7904 135.647 55.9868 113.774 55.9868 86.8889C55.9868 60.0038 77.7904 38.1312 104.59 38.1312C131.39 38.1312 153.194 60.0038 153.194 86.8889C153.194 113.774 131.39 135.647 104.59 135.647Z" fill="#78A22F"></path>
  <path d="M128.23 64.4156C128.002 64.1871 128.002 63.8166 128.23 63.588L131.358 60.4515C131.586 60.2234 131.955 60.2229 132.183 60.4519C132.411 60.6804 132.411 61.0509 132.183 61.2795L129.055 64.416C128.941 64.5301 128.792 64.5871 128.642 64.5871C128.493 64.5871 128.344 64.5301 128.23 64.4156ZM139.065 77.1231C139.065 77.4462 138.804 77.7082 138.482 77.7082H134.061C133.739 77.7082 133.478 77.4461 133.478 77.1231C133.478 76.8002 133.739 76.5381 134.061 76.5381H138.482C138.804 76.5381 139.065 76.8001 139.065 77.1231ZM117.616 118.094C117.616 118.417 117.354 118.679 117.032 118.679H92.1474C91.8254 118.679 91.5642 118.417 91.5642 118.094C91.5642 117.771 91.8255 117.509 92.1474 117.509H117.032C117.354 117.509 117.616 117.771 117.616 118.094ZM120.271 85.3958C120.271 82.752 118.127 80.6014 115.491 80.6014C112.856 80.6014 110.712 82.752 110.712 85.3958C110.712 88.0396 112.856 90.1902 115.491 90.1902C118.127 90.1902 120.271 88.0397 120.271 85.3958ZM115.491 89.0201C113.499 89.0201 111.879 87.3941 111.879 85.3959C111.879 83.3977 113.499 81.7717 115.491 81.7717C117.483 81.7717 119.104 83.3977 119.104 85.3959C119.104 87.394 117.483 89.0201 115.491 89.0201ZM135.696 105.027H119.744C122.996 98.569 127.221 89.4267 127.221 85.5186C127.221 79.0691 121.991 73.822 115.561 73.822C109.132 73.822 103.902 79.0691 103.902 85.5186C103.902 89.4267 108.127 98.569 111.379 105.027H86.5094V84.921C88.0228 84.7426 92.3404 83.9802 95.4065 80.9049C99.0986 77.2006 99.4493 71.6618 99.4622 71.428C99.4718 71.2613 99.4093 71.0989 99.2921 70.9814C99.1749 70.8634 99.0109 70.8072 98.8469 70.8107C98.6142 70.8238 93.0925 71.176 89.3995 74.8794C87.4719 76.8134 86.4598 79.2431 85.9263 81.1612C85.393 79.243 84.381 76.8137 82.4535 74.8798C78.7605 71.1763 73.2388 70.8237 73.0062 70.8107C72.8456 70.8076 72.679 70.8634 72.5609 70.9814C72.4438 71.0989 72.3813 71.2613 72.3908 71.428C72.4039 71.6618 72.7544 77.2006 76.4458 80.9054C79.5122 83.9801 83.8297 84.7426 85.3429 84.9209V105.027H73.4837C73.1617 105.027 72.9005 105.289 72.9005 105.612C72.9005 105.935 73.1618 106.197 73.4837 106.197H111.972C113.129 108.463 114.106 110.289 114.636 111.268H79.7049C79.3829 111.268 79.1217 111.53 79.1217 111.853C79.1217 112.176 79.383 112.438 79.7049 112.438H129.475C129.797 112.438 130.058 112.176 130.058 111.853C130.058 111.53 129.797 111.268 129.475 111.268H116.486C117.016 110.289 117.993 108.463 119.15 106.197H135.696C136.018 106.197 136.279 105.935 136.279 105.612C136.279 105.289 136.018 105.027 135.696 105.027ZM90.2241 75.707C92.8687 73.0553 96.6745 72.2721 98.2211 72.0557C98.0059 73.6073 97.2248 77.4256 94.582 80.0777C91.9383 82.7284 88.1316 83.512 86.5849 83.7284C86.801 82.1769 87.5821 78.3581 90.2241 75.707ZM77.2704 80.0778C74.6284 77.4257 73.8473 73.6073 73.6321 72.0558C75.1787 72.2722 78.9845 73.0558 81.6291 75.707C84.2719 78.3586 85.0522 82.1787 85.2674 83.7294C83.7224 83.5152 79.9218 82.7355 77.2704 80.0778ZM115.561 74.9921C121.347 74.9921 126.054 79.7142 126.054 85.5185C126.054 90.6908 117.729 106.494 115.561 110.521C113.393 106.494 105.068 90.6909 105.068 85.5186C105.068 79.7143 109.776 74.9921 115.561 74.9921ZM114.978 58.5677V54.1316C114.978 53.8085 115.239 53.5465 115.561 53.5465C115.883 53.5465 116.144 53.8086 116.144 54.1316V58.5677C116.144 58.8907 115.883 59.1527 115.561 59.1527C115.239 59.1527 114.978 58.8907 114.978 58.5677ZM98.9423 61.2799C98.7141 61.0513 98.7141 60.6808 98.9423 60.4528C99.1697 60.2238 99.5395 60.2238 99.7668 60.4528L102.893 63.5898C103.121 63.8184 103.121 64.1889 102.893 64.4169C102.779 64.5315 102.63 64.5885 102.481 64.5885C102.331 64.5885 102.182 64.5315 102.068 64.4169L98.9423 61.2799ZM106.251 56.1067C106.128 55.8081 106.269 55.466 106.567 55.3422C106.863 55.2212 107.206 55.3601 107.329 55.6592L109.021 59.7575C109.144 60.0561 109.002 60.3982 108.705 60.522C108.632 60.552 108.556 60.5664 108.482 60.5664C108.253 60.5664 108.035 60.4306 107.943 60.205L106.251 56.1067ZM132.431 69.4838L136.517 67.7856C136.814 67.6642 137.156 67.8035 137.279 68.1025C137.402 68.4007 137.261 68.7433 136.963 68.867L132.877 70.5653C132.804 70.5953 132.729 70.6097 132.654 70.6097C132.426 70.6097 132.208 70.4739 132.115 70.2483C131.992 69.9501 132.133 69.6075 132.431 69.4838ZM122.102 59.7554L123.795 55.6576C123.917 55.3589 124.261 55.2183 124.557 55.3411C124.855 55.4653 124.996 55.8074 124.873 56.106L123.18 60.2038C123.087 60.4289 122.869 60.5647 122.641 60.5647C122.566 60.5647 122.491 60.5503 122.418 60.5203C122.12 60.3961 121.979 60.0539 122.102 59.7554ZM104.59 36.9609C77.105 36.9609 54.8203 59.3147 54.8203 86.8889C54.8203 114.463 77.105 136.817 104.59 136.817C132.078 136.817 154.36 114.463 154.36 86.8889C154.36 59.3147 132.078 36.9609 104.59 36.9609ZM104.59 135.647C77.7904 135.647 55.9868 113.774 55.9868 86.8889C55.9868 60.0038 77.7904 38.1312 104.59 38.1312C131.39 38.1312 153.194 60.0038 153.194 86.8889C153.194 113.774 131.39 135.647 104.59 135.647Z" stroke="#78A22F" stroke-width="1.2" mask="url(#path-3-outside-1_1364_6104)"></path>
  <path d="M49.1774 247.06C50.1201 247.06 50.9694 247.279 51.7254 247.718C52.4908 248.157 53.0881 248.763 53.5174 249.538C53.9561 250.303 54.1754 251.157 54.1754 252.1C54.1754 253.043 53.9561 253.901 53.5174 254.676C53.0881 255.441 52.4908 256.043 51.7254 256.482C50.9694 256.921 50.1201 257.14 49.1774 257.14C48.2348 257.14 47.3808 256.921 46.6154 256.482C45.8594 256.043 45.2621 255.441 44.8234 254.676C44.3941 253.901 44.1794 253.043 44.1794 252.1C44.1794 251.157 44.3941 250.303 44.8234 249.538C45.2621 248.763 45.8594 248.157 46.6154 247.718C47.3808 247.279 48.2348 247.06 49.1774 247.06ZM49.1774 249.076C48.6361 249.076 48.1461 249.211 47.7074 249.482C47.2781 249.743 46.9374 250.103 46.6854 250.56C46.4334 251.017 46.3074 251.531 46.3074 252.1C46.3074 252.669 46.4334 253.183 46.6854 253.64C46.9374 254.097 47.2781 254.461 47.7074 254.732C48.1461 254.993 48.6361 255.124 49.1774 255.124C49.7188 255.124 50.2041 254.993 50.6334 254.732C51.0721 254.461 51.4174 254.097 51.6694 253.64C51.9214 253.183 52.0474 252.669 52.0474 252.1C52.0474 251.531 51.9214 251.017 51.6694 250.56C51.4174 250.103 51.0721 249.743 50.6334 249.482C50.2041 249.211 49.7188 249.076 49.1774 249.076ZM56.1119 249.748C56.1119 248.843 56.3546 248.133 56.8399 247.62C57.3346 247.107 57.9926 246.85 58.8139 246.85C59.1779 246.85 59.4999 246.887 59.7799 246.962V248.782C59.6399 248.745 59.4719 248.726 59.2759 248.726C58.9119 248.726 58.6226 248.815 58.4079 248.992C58.1933 249.169 58.0859 249.435 58.0859 249.79V250.126H59.7799V252.002H58.0859V257H56.1119V252.002H54.8379V250.126H56.1119V249.748ZM66.7384 249.986C67.401 249.986 68.003 250.145 68.5444 250.462C69.095 250.77 69.5244 251.199 69.8324 251.75C70.1497 252.291 70.3084 252.898 70.3084 253.57C70.3084 254.242 70.1497 254.849 69.8324 255.39C69.5244 255.931 69.095 256.361 68.5444 256.678C68.003 256.986 67.401 257.14 66.7384 257.14C66.0664 257.14 65.4597 256.986 64.9184 256.678C64.377 256.361 63.9477 255.931 63.6304 255.39C63.3224 254.849 63.1684 254.242 63.1684 253.57C63.1684 252.898 63.3224 252.291 63.6304 251.75C63.9477 251.199 64.377 250.77 64.9184 250.462C65.4597 250.145 66.0664 249.986 66.7384 249.986ZM66.7384 251.876C66.2717 251.876 65.8797 252.039 65.5624 252.366C65.245 252.683 65.0864 253.085 65.0864 253.57C65.0864 254.046 65.245 254.447 65.5624 254.774C65.8797 255.091 66.2717 255.25 66.7384 255.25C67.205 255.25 67.5924 255.091 67.9004 254.774C68.2177 254.447 68.3764 254.046 68.3764 253.57C68.3764 253.085 68.2177 252.683 67.9004 252.366C67.5924 252.039 67.205 251.876 66.7384 251.876ZM76.0124 256.104C75.7884 256.44 75.5177 256.697 75.2004 256.874C74.8924 257.051 74.5424 257.14 74.1504 257.14C73.273 257.14 72.5824 256.86 72.0784 256.3C71.5744 255.74 71.3224 254.975 71.3224 254.004V250.126H73.2964V253.752C73.2964 254.209 73.4177 254.573 73.6604 254.844C73.9124 255.115 74.2437 255.25 74.6544 255.25C75.065 255.25 75.3917 255.115 75.6344 254.844C75.8864 254.573 76.0124 254.209 76.0124 253.752V250.126H77.9864V257H76.0124V256.104ZM79.4458 250.126H81.4198V250.938C81.6158 250.639 81.8678 250.406 82.1758 250.238C82.4838 250.07 82.8244 249.986 83.1978 249.986C83.3471 249.986 83.5618 250.014 83.8418 250.07V251.862C83.5804 251.797 83.3471 251.764 83.1418 251.764C82.6378 251.764 82.2224 251.923 81.8958 252.24C81.5784 252.548 81.4198 253.005 81.4198 253.612V257H79.4458V250.126ZM87.5395 250.126H89.5135V250.938C89.7095 250.639 89.9615 250.406 90.2695 250.238C90.5775 250.07 90.9182 249.986 91.2915 249.986C91.4409 249.986 91.6555 250.014 91.9355 250.07V251.862C91.6742 251.797 91.4409 251.764 91.2355 251.764C90.7315 251.764 90.3162 251.923 89.9895 252.24C89.6722 252.548 89.5135 253.005 89.5135 253.612V257H87.5395V250.126ZM99.5708 257H97.5968V256.034C97.3541 256.398 97.0508 256.673 96.6868 256.86C96.3228 257.047 95.9028 257.14 95.4268 257.14C94.8481 257.14 94.3114 256.981 93.8168 256.664C93.3314 256.337 92.9441 255.899 92.6548 255.348C92.3748 254.797 92.2348 254.2 92.2348 253.556C92.2348 252.912 92.3748 252.315 92.6548 251.764C92.9441 251.213 93.3314 250.779 93.8168 250.462C94.3114 250.145 94.8481 249.986 95.4268 249.986C95.9028 249.986 96.3228 250.079 96.6868 250.266C97.0508 250.453 97.3541 250.728 97.5968 251.092V250.126H99.5708V257ZM95.8748 255.25C96.3601 255.25 96.7661 255.091 97.0928 254.774C97.4288 254.447 97.5968 254.041 97.5968 253.556C97.5968 253.08 97.4288 252.679 97.0928 252.352C96.7661 252.025 96.3601 251.862 95.8748 251.862C95.3988 251.862 94.9928 252.03 94.6568 252.366C94.3301 252.693 94.1668 253.089 94.1668 253.556C94.1668 254.032 94.3301 254.433 94.6568 254.76C94.9928 255.087 95.3988 255.25 95.8748 255.25ZM100.362 250.126H102.476L103.624 253.892L104.996 250.126H106.536L107.922 253.892L109.056 250.126H111.184L108.706 257H107.152L105.766 253.234L104.366 257H102.84L100.362 250.126ZM125.526 257H123.552V253.192C123.552 252.791 123.445 252.473 123.23 252.24C123.015 251.997 122.731 251.876 122.376 251.876C122.021 251.876 121.723 251.993 121.48 252.226C121.247 252.45 121.13 252.772 121.13 253.192V257H119.156V253.192C119.156 252.791 119.049 252.473 118.834 252.24C118.619 251.997 118.325 251.876 117.952 251.876C117.616 251.876 117.331 251.993 117.098 252.226C116.865 252.45 116.748 252.772 116.748 253.192V257H114.774V250.126H116.748V250.938C116.981 250.602 117.275 250.359 117.63 250.21C117.985 250.061 118.344 249.986 118.708 249.986C119.156 249.986 119.539 250.07 119.856 250.238C120.183 250.397 120.449 250.649 120.654 250.994C120.859 250.695 121.149 250.453 121.522 250.266C121.895 250.079 122.297 249.986 122.726 249.986C123.267 249.986 123.748 250.103 124.168 250.336C124.597 250.56 124.929 250.877 125.162 251.288C125.405 251.699 125.526 252.179 125.526 252.73V257ZM133.901 257H131.927V256.034C131.684 256.398 131.381 256.673 131.017 256.86C130.653 257.047 130.233 257.14 129.757 257.14C129.178 257.14 128.642 256.981 128.147 256.664C127.662 256.337 127.274 255.899 126.985 255.348C126.705 254.797 126.565 254.2 126.565 253.556C126.565 252.912 126.705 252.315 126.985 251.764C127.274 251.213 127.662 250.779 128.147 250.462C128.642 250.145 129.178 249.986 129.757 249.986C130.233 249.986 130.653 250.079 131.017 250.266C131.381 250.453 131.684 250.728 131.927 251.092V250.126H133.901V257ZM130.205 255.25C130.69 255.25 131.096 255.091 131.423 254.774C131.759 254.447 131.927 254.041 131.927 253.556C131.927 253.08 131.759 252.679 131.423 252.352C131.096 252.025 130.69 251.862 130.205 251.862C129.729 251.862 129.323 252.03 128.987 252.366C128.66 252.693 128.497 253.089 128.497 253.556C128.497 254.032 128.66 254.433 128.987 254.76C129.323 255.087 129.729 255.25 130.205 255.25ZM138.752 257.098C137.931 257.098 137.273 256.841 136.778 256.328C136.293 255.815 136.05 255.105 136.05 254.2V252.002H134.776V250.126H136.05V248.32H138.024V250.126H139.718V252.002H138.024V254.172C138.024 254.527 138.131 254.793 138.346 254.97C138.561 255.147 138.85 255.236 139.214 255.236C139.41 255.236 139.578 255.217 139.718 255.18V257C139.466 257.065 139.144 257.098 138.752 257.098ZM143.917 257.14C143.254 257.14 142.647 256.981 142.097 256.664C141.546 256.347 141.112 255.913 140.795 255.362C140.477 254.802 140.319 254.191 140.319 253.528C140.319 252.875 140.473 252.277 140.781 251.736C141.098 251.195 141.527 250.77 142.069 250.462C142.619 250.145 143.226 249.986 143.889 249.986C144.505 249.986 145.069 250.135 145.583 250.434C146.105 250.723 146.516 251.125 146.815 251.638C147.123 252.151 147.277 252.721 147.277 253.346C147.277 253.607 147.263 253.85 147.235 254.074H142.153C142.227 254.513 142.419 254.858 142.727 255.11C143.044 255.362 143.431 255.488 143.889 255.488C144.253 255.488 144.551 255.418 144.785 255.278C145.027 255.129 145.181 254.933 145.247 254.69H147.179C147.067 255.437 146.712 256.034 146.115 256.482C145.517 256.921 144.785 257.14 143.917 257.14ZM145.205 252.758C145.167 252.422 145.013 252.147 144.743 251.932C144.481 251.717 144.164 251.61 143.791 251.61C143.408 251.61 143.081 251.708 142.811 251.904C142.54 252.091 142.349 252.375 142.237 252.758H145.205ZM148.379 250.126H150.353V250.938C150.549 250.639 150.801 250.406 151.109 250.238C151.417 250.07 151.758 249.986 152.131 249.986C152.281 249.986 152.495 250.014 152.775 250.07V251.862C152.514 251.797 152.281 251.764 152.075 251.764C151.571 251.764 151.156 251.923 150.829 252.24C150.512 252.548 150.353 253.005 150.353 253.612V257H148.379V250.126ZM155.685 250.126V257H153.711V250.126H155.685ZM154.691 249.188C154.365 249.188 154.08 249.071 153.837 248.838C153.604 248.605 153.487 248.325 153.487 247.998C153.487 247.671 153.604 247.391 153.837 247.158C154.08 246.915 154.365 246.794 154.691 246.794C155.027 246.794 155.312 246.915 155.545 247.158C155.779 247.391 155.895 247.671 155.895 247.998C155.895 248.325 155.779 248.605 155.545 248.838C155.312 249.071 155.027 249.188 154.691 249.188ZM164.129 257H162.155V256.034C161.913 256.398 161.609 256.673 161.245 256.86C160.881 257.047 160.461 257.14 159.985 257.14C159.407 257.14 158.87 256.981 158.375 256.664C157.89 256.337 157.503 255.899 157.213 255.348C156.933 254.797 156.793 254.2 156.793 253.556C156.793 252.912 156.933 252.315 157.213 251.764C157.503 251.213 157.89 250.779 158.375 250.462C158.87 250.145 159.407 249.986 159.985 249.986C160.461 249.986 160.881 250.079 161.245 250.266C161.609 250.453 161.913 250.728 162.155 251.092V250.126H164.129V257ZM160.433 255.25C160.919 255.25 161.325 255.091 161.651 254.774C161.987 254.447 162.155 254.041 162.155 253.556C162.155 253.08 161.987 252.679 161.651 252.352C161.325 252.025 160.919 251.862 160.433 251.862C159.957 251.862 159.551 252.03 159.215 252.366C158.889 252.693 158.725 253.089 158.725 253.556C158.725 254.032 158.889 254.433 159.215 254.76C159.551 255.087 159.957 255.25 160.433 255.25ZM165.579 247.2H167.553V257H165.579V247.2ZM47.3411 274.14C46.4358 274.14 45.6985 273.921 45.1291 273.482C44.5691 273.043 44.2518 272.437 44.1771 271.662H46.0671C46.0858 271.895 46.2071 272.082 46.4311 272.222C46.6551 272.362 46.9305 272.432 47.2571 272.432C47.5465 272.432 47.7705 272.385 47.9291 272.292C48.0878 272.189 48.1671 272.063 48.1671 271.914C48.1671 271.727 48.0598 271.592 47.8451 271.508C47.6398 271.424 47.3131 271.345 46.8651 271.27C46.3518 271.177 45.9225 271.074 45.5771 270.962C45.2411 270.85 44.9471 270.659 44.6951 270.388C44.4525 270.117 44.3311 269.739 44.3311 269.254C44.3311 268.825 44.4385 268.437 44.6531 268.092C44.8771 267.747 45.1945 267.476 45.6051 267.28C46.0251 267.084 46.5105 266.986 47.0611 266.986C47.8358 266.986 48.5031 267.187 49.0631 267.588C49.6325 267.989 49.9591 268.559 50.0431 269.296H48.0551C48.0365 269.119 47.9338 268.969 47.7471 268.848C47.5605 268.717 47.3131 268.652 47.0051 268.652C46.7718 268.652 46.5851 268.694 46.4451 268.778C46.3051 268.853 46.2351 268.969 46.2351 269.128C46.2351 269.296 46.3285 269.417 46.5151 269.492C46.7111 269.567 47.0285 269.646 47.4671 269.73C47.9991 269.823 48.4378 269.931 48.7831 270.052C49.1378 270.164 49.4458 270.369 49.7071 270.668C49.9685 270.967 50.0991 271.387 50.0991 271.928C50.0991 272.339 49.9778 272.717 49.7351 273.062C49.4925 273.398 49.1611 273.664 48.7411 273.86C48.3211 274.047 47.8545 274.14 47.3411 274.14ZM55.819 273.104C55.595 273.44 55.3244 273.697 55.007 273.874C54.699 274.051 54.349 274.14 53.957 274.14C53.0797 274.14 52.389 273.86 51.885 273.3C51.381 272.74 51.129 271.975 51.129 271.004V267.126H53.103V270.752C53.103 271.209 53.2244 271.573 53.467 271.844C53.719 272.115 54.0504 272.25 54.461 272.25C54.8717 272.25 55.1984 272.115 55.441 271.844C55.693 271.573 55.819 271.209 55.819 270.752V267.126H57.793V274H55.819V273.104ZM63.3964 266.986C63.9751 266.986 64.5071 267.145 64.9924 267.462C65.4871 267.779 65.8744 268.213 66.1544 268.764C66.4437 269.315 66.5884 269.912 66.5884 270.556C66.5884 271.2 66.4437 271.797 66.1544 272.348C65.8744 272.899 65.4871 273.337 64.9924 273.664C64.5071 273.981 63.9751 274.14 63.3964 274.14C62.9204 274.14 62.5004 274.047 62.1364 273.86C61.7724 273.673 61.4691 273.398 61.2264 273.034V276.786H59.2524V267.126H61.2264V268.092C61.4691 267.728 61.7724 267.453 62.1364 267.266C62.5004 267.079 62.9204 266.986 63.3964 266.986ZM62.9484 268.862C62.4631 268.862 62.0524 269.025 61.7164 269.352C61.3897 269.679 61.2264 270.08 61.2264 270.556C61.2264 271.041 61.3897 271.447 61.7164 271.774C62.0431 272.091 62.4537 272.25 62.9484 272.25C63.4244 272.25 63.8257 272.087 64.1524 271.76C64.4884 271.433 64.6564 271.032 64.6564 270.556C64.6564 270.089 64.4884 269.693 64.1524 269.366C63.8257 269.03 63.4244 268.862 62.9484 268.862ZM71.8456 266.986C72.4243 266.986 72.9563 267.145 73.4416 267.462C73.9363 267.779 74.3236 268.213 74.6036 268.764C74.893 269.315 75.0376 269.912 75.0376 270.556C75.0376 271.2 74.893 271.797 74.6036 272.348C74.3236 272.899 73.9363 273.337 73.4416 273.664C72.9563 273.981 72.4243 274.14 71.8456 274.14C71.3696 274.14 70.9496 274.047 70.5856 273.86C70.2216 273.673 69.9183 273.398 69.6756 273.034V276.786H67.7016V267.126H69.6756V268.092C69.9183 267.728 70.2216 267.453 70.5856 267.266C70.9496 267.079 71.3696 266.986 71.8456 266.986ZM71.3976 268.862C70.9123 268.862 70.5016 269.025 70.1656 269.352C69.839 269.679 69.6756 270.08 69.6756 270.556C69.6756 271.041 69.839 271.447 70.1656 271.774C70.4923 272.091 70.903 272.25 71.3976 272.25C71.8736 272.25 72.275 272.087 72.6016 271.76C72.9376 271.433 73.1056 271.032 73.1056 270.556C73.1056 270.089 72.9376 269.693 72.6016 269.366C72.275 269.03 71.8736 268.862 71.3976 268.862ZM76.1509 264.2H78.1249V274H76.1509V264.2ZM81.5428 267.126V274H79.5688V267.126H81.5428ZM80.5488 266.188C80.2222 266.188 79.9375 266.071 79.6948 265.838C79.4615 265.605 79.3448 265.325 79.3448 264.998C79.3448 264.671 79.4615 264.391 79.6948 264.158C79.9375 263.915 80.2222 263.794 80.5488 263.794C80.8848 263.794 81.1695 263.915 81.4028 264.158C81.6362 264.391 81.7528 264.671 81.7528 264.998C81.7528 265.325 81.6362 265.605 81.4028 265.838C81.1695 266.071 80.8848 266.188 80.5488 266.188ZM86.2488 274.14C85.5861 274.14 84.9795 273.981 84.4288 273.664C83.8781 273.347 83.4441 272.913 83.1268 272.362C82.8095 271.802 82.6508 271.191 82.6508 270.528C82.6508 269.875 82.8048 269.277 83.1128 268.736C83.4301 268.195 83.8595 267.77 84.4008 267.462C84.9515 267.145 85.5581 266.986 86.2208 266.986C86.8368 266.986 87.4015 267.135 87.9148 267.434C88.4375 267.723 88.8481 268.125 89.1468 268.638C89.4548 269.151 89.6088 269.721 89.6088 270.346C89.6088 270.607 89.5948 270.85 89.5668 271.074H84.4848C84.5595 271.513 84.7508 271.858 85.0588 272.11C85.3761 272.362 85.7635 272.488 86.2208 272.488C86.5848 272.488 86.8835 272.418 87.1168 272.278C87.3595 272.129 87.5135 271.933 87.5788 271.69H89.5108C89.3988 272.437 89.0441 273.034 88.4468 273.482C87.8495 273.921 87.1168 274.14 86.2488 274.14ZM87.5368 269.758C87.4995 269.422 87.3455 269.147 87.0748 268.932C86.8135 268.717 86.4961 268.61 86.1228 268.61C85.7401 268.61 85.4135 268.708 85.1428 268.904C84.8721 269.091 84.6808 269.375 84.5688 269.758H87.5368ZM90.7114 267.126H92.6854V267.938C92.8814 267.639 93.1334 267.406 93.4414 267.238C93.7494 267.07 94.0901 266.986 94.4634 266.986C94.6127 266.986 94.8274 267.014 95.1074 267.07V268.862C94.8461 268.797 94.6127 268.764 94.4074 268.764C93.9034 268.764 93.4881 268.923 93.1614 269.24C92.8441 269.548 92.6854 270.005 92.6854 270.612V274H90.7114V267.126ZM98.6517 274.14C97.7464 274.14 97.009 273.921 96.4397 273.482C95.8797 273.043 95.5624 272.437 95.4877 271.662H97.3777C97.3964 271.895 97.5177 272.082 97.7417 272.222C97.9657 272.362 98.241 272.432 98.5677 272.432C98.857 272.432 99.081 272.385 99.2397 272.292C99.3984 272.189 99.4777 272.063 99.4777 271.914C99.4777 271.727 99.3704 271.592 99.1557 271.508C98.9504 271.424 98.6237 271.345 98.1757 271.27C97.6624 271.177 97.233 271.074 96.8877 270.962C96.5517 270.85 96.2577 270.659 96.0057 270.388C95.763 270.117 95.6417 269.739 95.6417 269.254C95.6417 268.825 95.749 268.437 95.9637 268.092C96.1877 267.747 96.505 267.476 96.9157 267.28C97.3357 267.084 97.821 266.986 98.3717 266.986C99.1464 266.986 99.8137 267.187 100.374 267.588C100.943 267.989 101.27 268.559 101.354 269.296H99.3657C99.347 269.119 99.2444 268.969 99.0577 268.848C98.871 268.717 98.6237 268.652 98.3157 268.652C98.0824 268.652 97.8957 268.694 97.7557 268.778C97.6157 268.853 97.5457 268.969 97.5457 269.128C97.5457 269.296 97.639 269.417 97.8257 269.492C98.0217 269.567 98.339 269.646 98.7777 269.73C99.3097 269.823 99.7484 269.931 100.094 270.052C100.448 270.164 100.756 270.369 101.018 270.668C101.279 270.967 101.41 271.387 101.41 271.928C101.41 272.339 101.288 272.717 101.046 273.062C100.803 273.398 100.472 273.664 100.052 273.86C99.6317 274.047 99.165 274.14 98.6517 274.14ZM112.6 274H110.626V273.034C110.383 273.398 110.08 273.673 109.716 273.86C109.352 274.047 108.932 274.14 108.456 274.14C107.877 274.14 107.341 273.981 106.846 273.664C106.361 273.337 105.973 272.899 105.684 272.348C105.404 271.797 105.264 271.2 105.264 270.556C105.264 269.912 105.404 269.315 105.684 268.764C105.973 268.213 106.361 267.779 106.846 267.462C107.341 267.145 107.877 266.986 108.456 266.986C108.932 266.986 109.352 267.079 109.716 267.266C110.08 267.453 110.383 267.728 110.626 268.092V267.126H112.6V274ZM108.904 272.25C109.389 272.25 109.795 272.091 110.122 271.774C110.458 271.447 110.626 271.041 110.626 270.556C110.626 270.08 110.458 269.679 110.122 269.352C109.795 269.025 109.389 268.862 108.904 268.862C108.428 268.862 108.022 269.03 107.686 269.366C107.359 269.693 107.196 270.089 107.196 270.556C107.196 271.032 107.359 271.433 107.686 271.76C108.022 272.087 108.428 272.25 108.904 272.25ZM114.049 267.126H116.023V267.938C116.219 267.639 116.471 267.406 116.779 267.238C117.087 267.07 117.428 266.986 117.801 266.986C117.951 266.986 118.165 267.014 118.445 267.07V268.862C118.184 268.797 117.951 268.764 117.745 268.764C117.241 268.764 116.826 268.923 116.499 269.24C116.182 269.548 116.023 270.005 116.023 270.612V274H114.049V267.126ZM122.343 274.14C121.68 274.14 121.073 273.981 120.523 273.664C119.972 273.347 119.538 272.913 119.221 272.362C118.903 271.802 118.745 271.191 118.745 270.528C118.745 269.875 118.899 269.277 119.207 268.736C119.524 268.195 119.953 267.77 120.495 267.462C121.045 267.145 121.652 266.986 122.315 266.986C122.931 266.986 123.495 267.135 124.009 267.434C124.531 267.723 124.942 268.125 125.241 268.638C125.549 269.151 125.703 269.721 125.703 270.346C125.703 270.607 125.689 270.85 125.661 271.074H120.579C120.653 271.513 120.845 271.858 121.153 272.11C121.47 272.362 121.857 272.488 122.315 272.488C122.679 272.488 122.977 272.418 123.211 272.278C123.453 272.129 123.607 271.933 123.673 271.69H125.605C125.493 272.437 125.138 273.034 124.541 273.482C123.943 273.921 123.211 274.14 122.343 274.14ZM123.631 269.758C123.593 269.422 123.439 269.147 123.169 268.932C122.907 268.717 122.59 268.61 122.217 268.61C121.834 268.61 121.507 268.708 121.237 268.904C120.966 269.091 120.775 269.375 120.663 269.758H123.631ZM128.936 267.126H131.05L132.198 270.892L133.57 267.126H135.11L136.496 270.892L137.63 267.126H139.758L137.28 274H135.726L134.34 270.234L132.94 274H131.414L128.936 267.126ZM142.533 267.126V274H140.559V267.126H142.533ZM141.539 266.188C141.212 266.188 140.928 266.071 140.685 265.838C140.452 265.605 140.335 265.325 140.335 264.998C140.335 264.671 140.452 264.391 140.685 264.158C140.928 263.915 141.212 263.794 141.539 263.794C141.875 263.794 142.16 263.915 142.393 264.158C142.626 264.391 142.743 264.671 142.743 264.998C142.743 265.325 142.626 265.605 142.393 265.838C142.16 266.071 141.875 266.188 141.539 266.188ZM147.379 274.098C146.558 274.098 145.9 273.841 145.405 273.328C144.92 272.815 144.677 272.105 144.677 271.2V269.002H143.403V267.126H144.677V265.32H146.651V267.126H148.345V269.002H146.651V271.172C146.651 271.527 146.758 271.793 146.973 271.97C147.188 272.147 147.477 272.236 147.841 272.236C148.037 272.236 148.205 272.217 148.345 272.18V274C148.093 274.065 147.771 274.098 147.379 274.098ZM154.108 270.36C154.108 269.912 153.982 269.553 153.73 269.282C153.487 269.011 153.165 268.876 152.764 268.876C152.353 268.876 152.022 269.011 151.77 269.282C151.527 269.553 151.406 269.912 151.406 270.36V274H149.432V264.2H151.406V268.022C151.621 267.686 151.887 267.429 152.204 267.252C152.521 267.075 152.876 266.986 153.268 266.986C154.145 266.986 154.831 267.266 155.326 267.826C155.83 268.377 156.082 269.137 156.082 270.108V274H154.108V270.36ZM159.431 267.126V274H157.457V267.126H159.431ZM158.437 266.188C158.111 266.188 157.826 266.071 157.583 265.838C157.35 265.605 157.233 265.325 157.233 264.998C157.233 264.671 157.35 264.391 157.583 264.158C157.826 263.915 158.111 263.794 158.437 263.794C158.773 263.794 159.058 263.915 159.291 264.158C159.525 264.391 159.641 264.671 159.641 264.998C159.641 265.325 159.525 265.605 159.291 265.838C159.058 266.071 158.773 266.188 158.437 266.188ZM162.849 268.022C163.064 267.686 163.33 267.429 163.647 267.252C163.965 267.075 164.319 266.986 164.711 266.986C165.589 266.986 166.275 267.266 166.769 267.826C167.273 268.377 167.525 269.137 167.525 270.108V274H165.551V270.36C165.551 269.912 165.425 269.553 165.173 269.282C164.931 269.011 164.609 268.876 164.207 268.876C163.797 268.876 163.465 269.011 163.213 269.282C162.971 269.553 162.849 269.912 162.849 270.36V274H160.875V267.126H162.849V268.022ZM65.8425 291.14C65.2172 291.14 64.6385 291.023 64.1065 290.79C63.5839 290.547 63.1592 290.197 62.8325 289.74C62.5059 289.273 62.3239 288.727 62.2865 288.102H64.3725C64.4565 288.419 64.6245 288.671 64.8765 288.858C65.1379 289.035 65.4599 289.124 65.8425 289.124C66.2532 289.124 66.5939 288.984 66.8645 288.704C67.1445 288.424 67.2845 288.083 67.2845 287.682C67.2845 287.253 67.1492 286.903 66.8785 286.632C66.6079 286.361 66.2625 286.226 65.8425 286.226C65.5625 286.226 65.3012 286.273 65.0585 286.366C64.8252 286.459 64.6385 286.595 64.4985 286.772H62.6785L63.1265 281.2H68.7685V283.16H64.9885L64.8065 284.91C64.9745 284.789 65.1845 284.691 65.4365 284.616C65.6979 284.541 65.9732 284.504 66.2625 284.504C66.8599 284.504 67.3965 284.635 67.8725 284.896C68.3485 285.148 68.7219 285.521 68.9925 286.016C69.2725 286.501 69.4125 287.075 69.4125 287.738C69.4125 288.391 69.2539 288.979 68.9365 289.502C68.6192 290.015 68.1899 290.417 67.6485 290.706C67.1072 290.995 66.5052 291.14 65.8425 291.14ZM74.2332 291.14C73.4399 291.14 72.7539 290.93 72.1752 290.51C71.5966 290.09 71.1532 289.502 70.8452 288.746C70.5466 287.99 70.3972 287.108 70.3972 286.1C70.3972 285.092 70.5466 284.21 70.8452 283.454C71.1532 282.689 71.5966 282.101 72.1752 281.69C72.7539 281.27 73.4399 281.06 74.2332 281.06C75.0266 281.06 75.7079 281.27 76.2772 281.69C76.8559 282.101 77.2946 282.689 77.5932 283.454C77.9012 284.21 78.0552 285.092 78.0552 286.1C78.0552 287.108 77.9012 287.99 77.5932 288.746C77.2946 289.502 76.8559 290.09 76.2772 290.51C75.7079 290.93 75.0266 291.14 74.2332 291.14ZM74.2332 289.124C74.7746 289.124 75.1899 288.872 75.4792 288.368C75.7779 287.864 75.9272 287.108 75.9272 286.1C75.9272 285.092 75.7779 284.336 75.4792 283.832C75.1899 283.328 74.7746 283.076 74.2332 283.076C73.6919 283.076 73.2719 283.328 72.9732 283.832C72.6746 284.327 72.5252 285.083 72.5252 286.1C72.5252 287.117 72.6746 287.878 72.9732 288.382C73.2719 288.877 73.6919 289.124 74.2332 289.124ZM82.9559 291.14C82.1626 291.14 81.4766 290.93 80.8979 290.51C80.3192 290.09 79.8759 289.502 79.5679 288.746C79.2692 287.99 79.1199 287.108 79.1199 286.1C79.1199 285.092 79.2692 284.21 79.5679 283.454C79.8759 282.689 80.3192 282.101 80.8979 281.69C81.4766 281.27 82.1626 281.06 82.9559 281.06C83.7492 281.06 84.4306 281.27 84.9999 281.69C85.5786 282.101 86.0172 282.689 86.3159 283.454C86.6239 284.21 86.7779 285.092 86.7779 286.1C86.7779 287.108 86.6239 287.99 86.3159 288.746C86.0172 289.502 85.5786 290.09 84.9999 290.51C84.4306 290.93 83.7492 291.14 82.9559 291.14ZM82.9559 289.124C83.4972 289.124 83.9126 288.872 84.2019 288.368C84.5006 287.864 84.6499 287.108 84.6499 286.1C84.6499 285.092 84.5006 284.336 84.2019 283.832C83.9126 283.328 83.4972 283.076 82.9559 283.076C82.4146 283.076 81.9946 283.328 81.6959 283.832C81.3972 284.327 81.2479 285.083 81.2479 286.1C81.2479 287.117 81.3972 287.878 81.6959 288.382C81.9946 288.877 82.4146 289.124 82.9559 289.124ZM93.075 286.352L95.525 284.126H97.961L95.175 286.66L98.185 291H95.679L93.733 287.976L93.075 288.564V291H91.101V281.2H93.075V286.352ZM109.482 291H107.508V287.192C107.508 286.791 107.401 286.473 107.186 286.24C106.971 285.997 106.687 285.876 106.332 285.876C105.977 285.876 105.679 285.993 105.436 286.226C105.203 286.45 105.086 286.772 105.086 287.192V291H103.112V287.192C103.112 286.791 103.005 286.473 102.79 286.24C102.575 285.997 102.281 285.876 101.908 285.876C101.572 285.876 101.287 285.993 101.054 286.226C100.821 286.45 100.704 286.772 100.704 287.192V291H98.73V284.126H100.704V284.938C100.937 284.602 101.231 284.359 101.586 284.21C101.941 284.061 102.3 283.986 102.664 283.986C103.112 283.986 103.495 284.07 103.812 284.238C104.139 284.397 104.405 284.649 104.61 284.994C104.815 284.695 105.105 284.453 105.478 284.266C105.851 284.079 106.253 283.986 106.682 283.986C107.223 283.986 107.704 284.103 108.124 284.336C108.553 284.56 108.885 284.877 109.118 285.288C109.361 285.699 109.482 286.179 109.482 286.73V291ZM117.153 283.986C117.816 283.986 118.418 284.145 118.959 284.462C119.51 284.77 119.939 285.199 120.247 285.75C120.565 286.291 120.723 286.898 120.723 287.57C120.723 288.242 120.565 288.849 120.247 289.39C119.939 289.931 119.51 290.361 118.959 290.678C118.418 290.986 117.816 291.14 117.153 291.14C116.481 291.14 115.875 290.986 115.333 290.678C114.792 290.361 114.363 289.931 114.045 289.39C113.737 288.849 113.583 288.242 113.583 287.57C113.583 286.898 113.737 286.291 114.045 285.75C114.363 285.199 114.792 284.77 115.333 284.462C115.875 284.145 116.481 283.986 117.153 283.986ZM117.153 285.876C116.687 285.876 116.295 286.039 115.977 286.366C115.66 286.683 115.501 287.085 115.501 287.57C115.501 288.046 115.66 288.447 115.977 288.774C116.295 289.091 116.687 289.25 117.153 289.25C117.62 289.25 118.007 289.091 118.315 288.774C118.633 288.447 118.791 288.046 118.791 287.57C118.791 287.085 118.633 286.683 118.315 286.366C118.007 286.039 117.62 285.876 117.153 285.876ZM122.468 283.748C122.468 282.843 122.711 282.133 123.196 281.62C123.691 281.107 124.349 280.85 125.17 280.85C125.534 280.85 125.856 280.887 126.136 280.962V282.782C125.996 282.745 125.828 282.726 125.632 282.726C125.268 282.726 124.979 282.815 124.764 282.992C124.55 283.169 124.442 283.435 124.442 283.79V284.126H126.136V286.002H124.442V291H122.468V286.002H121.194V284.126H122.468V283.748ZM133.095 283.986C133.757 283.986 134.359 284.145 134.901 284.462C135.451 284.77 135.881 285.199 136.189 285.75C136.506 286.291 136.665 286.898 136.665 287.57C136.665 288.242 136.506 288.849 136.189 289.39C135.881 289.931 135.451 290.361 134.901 290.678C134.359 290.986 133.757 291.14 133.095 291.14C132.423 291.14 131.816 290.986 131.275 290.678C130.733 290.361 130.304 289.931 129.987 289.39C129.679 288.849 129.525 288.242 129.525 287.57C129.525 286.898 129.679 286.291 129.987 285.75C130.304 285.199 130.733 284.77 131.275 284.462C131.816 284.145 132.423 283.986 133.095 283.986ZM133.095 285.876C132.628 285.876 132.236 286.039 131.919 286.366C131.601 286.683 131.443 287.085 131.443 287.57C131.443 288.046 131.601 288.447 131.919 288.774C132.236 289.091 132.628 289.25 133.095 289.25C133.561 289.25 133.949 289.091 134.257 288.774C134.574 288.447 134.733 288.046 134.733 287.57C134.733 287.085 134.574 286.683 134.257 286.366C133.949 286.039 133.561 285.876 133.095 285.876ZM142.369 290.104C142.145 290.44 141.874 290.697 141.557 290.874C141.249 291.051 140.899 291.14 140.507 291.14C139.629 291.14 138.939 290.86 138.435 290.3C137.931 289.74 137.679 288.975 137.679 288.004V284.126H139.653V287.752C139.653 288.209 139.774 288.573 140.017 288.844C140.269 289.115 140.6 289.25 141.011 289.25C141.421 289.25 141.748 289.115 141.991 288.844C142.243 288.573 142.369 288.209 142.369 287.752V284.126H144.343V291H142.369V290.104ZM145.802 284.126H147.776V284.938C147.972 284.639 148.224 284.406 148.532 284.238C148.84 284.07 149.181 283.986 149.554 283.986C149.704 283.986 149.918 284.014 150.198 284.07V285.862C149.937 285.797 149.704 285.764 149.498 285.764C148.994 285.764 148.579 285.923 148.252 286.24C147.935 286.548 147.776 287.005 147.776 287.612V291H145.802V284.126ZM43.4138 304.36C43.4138 303.912 43.2878 303.553 43.0358 303.282C42.7931 303.011 42.4711 302.876 42.0698 302.876C41.6591 302.876 41.3278 303.011 41.0758 303.282C40.8331 303.553 40.7118 303.912 40.7118 304.36V308H38.7378V298.2H40.7118V302.022C40.9264 301.686 41.1924 301.429 41.5098 301.252C41.8271 301.075 42.1818 300.986 42.5738 300.986C43.4511 300.986 44.1371 301.266 44.6318 301.826C45.1358 302.377 45.3878 303.137 45.3878 304.108V308H43.4138V304.36ZM50.0252 308.14C49.3625 308.14 48.7558 307.981 48.2052 307.664C47.6545 307.347 47.2205 306.913 46.9032 306.362C46.5858 305.802 46.4272 305.191 46.4272 304.528C46.4272 303.875 46.5812 303.277 46.8892 302.736C47.2065 302.195 47.6358 301.77 48.1772 301.462C48.7278 301.145 49.3345 300.986 49.9972 300.986C50.6132 300.986 51.1778 301.135 51.6912 301.434C52.2138 301.723 52.6245 302.125 52.9232 302.638C53.2312 303.151 53.3852 303.721 53.3852 304.346C53.3852 304.607 53.3712 304.85 53.3432 305.074H48.2612C48.3358 305.513 48.5272 305.858 48.8352 306.11C49.1525 306.362 49.5398 306.488 49.9972 306.488C50.3612 306.488 50.6598 306.418 50.8932 306.278C51.1358 306.129 51.2898 305.933 51.3552 305.69H53.2872C53.1752 306.437 52.8205 307.034 52.2232 307.482C51.6258 307.921 50.8932 308.14 50.0252 308.14ZM51.3132 303.758C51.2758 303.422 51.1218 303.147 50.8512 302.932C50.5898 302.717 50.2725 302.61 49.8992 302.61C49.5165 302.61 49.1898 302.708 48.9192 302.904C48.6485 303.091 48.4572 303.375 48.3452 303.758H51.3132ZM61.4878 308H59.5138V307.034C59.2711 307.398 58.9678 307.673 58.6038 307.86C58.2398 308.047 57.8198 308.14 57.3438 308.14C56.7651 308.14 56.2284 307.981 55.7338 307.664C55.2484 307.337 54.8611 306.899 54.5718 306.348C54.2918 305.797 54.1518 305.2 54.1518 304.556C54.1518 303.912 54.2918 303.315 54.5718 302.764C54.8611 302.213 55.2484 301.779 55.7338 301.462C56.2284 301.145 56.7651 300.986 57.3438 300.986C57.8198 300.986 58.2398 301.079 58.6038 301.266C58.9678 301.453 59.2711 301.728 59.5138 302.092V301.126H61.4878V308ZM57.7918 306.25C58.2771 306.25 58.6831 306.091 59.0098 305.774C59.3458 305.447 59.5138 305.041 59.5138 304.556C59.5138 304.08 59.3458 303.679 59.0098 303.352C58.6831 303.025 58.2771 302.862 57.7918 302.862C57.3158 302.862 56.9098 303.03 56.5738 303.366C56.2471 303.693 56.0838 304.089 56.0838 304.556C56.0838 305.032 56.2471 305.433 56.5738 305.76C56.9098 306.087 57.3158 306.25 57.7918 306.25ZM65.793 308.14C65.2143 308.14 64.6777 307.981 64.183 307.664C63.6977 307.337 63.3103 306.899 63.021 306.348C62.741 305.797 62.601 305.2 62.601 304.556C62.601 303.912 62.741 303.315 63.021 302.764C63.3103 302.213 63.6977 301.779 64.183 301.462C64.6777 301.145 65.2143 300.986 65.793 300.986C66.269 300.986 66.689 301.079 67.053 301.266C67.417 301.453 67.7203 301.728 67.963 302.092V298.2H69.937V308H67.963V307.034C67.7203 307.398 67.417 307.673 67.053 307.86C66.689 308.047 66.269 308.14 65.793 308.14ZM66.241 306.25C66.7357 306.25 67.1463 306.091 67.473 305.774C67.7997 305.447 67.963 305.041 67.963 304.556C67.963 304.08 67.795 303.679 67.459 303.352C67.1323 303.025 66.7263 302.862 66.241 302.862C65.765 302.862 65.359 303.03 65.023 303.366C64.6963 303.693 64.533 304.089 64.533 304.556C64.533 305.032 64.6963 305.433 65.023 305.76C65.359 306.087 65.765 306.25 66.241 306.25ZM74.2422 308.14C73.6635 308.14 73.1269 307.981 72.6322 307.664C72.1469 307.337 71.7595 306.899 71.4702 306.348C71.1902 305.797 71.0502 305.2 71.0502 304.556C71.0502 303.912 71.1902 303.315 71.4702 302.764C71.7595 302.213 72.1469 301.779 72.6322 301.462C73.1269 301.145 73.6635 300.986 74.2422 300.986C74.7182 300.986 75.1382 301.079 75.5022 301.266C75.8662 301.453 76.1695 301.728 76.4122 302.092V301.126H78.3862V310.786H76.4122V307.034C76.1695 307.398 75.8662 307.673 75.5022 307.86C75.1382 308.047 74.7182 308.14 74.2422 308.14ZM74.6902 306.25C75.1755 306.25 75.5815 306.091 75.9082 305.774C76.2442 305.447 76.4122 305.041 76.4122 304.556C76.4122 304.08 76.2442 303.679 75.9082 303.352C75.5815 303.025 75.1755 302.862 74.6902 302.862C74.2142 302.862 73.8082 303.03 73.4722 303.366C73.1455 303.693 72.9822 304.089 72.9822 304.556C72.9822 305.032 73.1455 305.433 73.4722 305.76C73.8082 306.087 74.2142 306.25 74.6902 306.25ZM84.4274 307.104C84.2034 307.44 83.9328 307.697 83.6154 307.874C83.3074 308.051 82.9574 308.14 82.5654 308.14C81.6881 308.14 80.9974 307.86 80.4934 307.3C79.9894 306.74 79.7374 305.975 79.7374 305.004V301.126H81.7114V304.752C81.7114 305.209 81.8328 305.573 82.0754 305.844C82.3274 306.115 82.6588 306.25 83.0694 306.25C83.4801 306.25 83.8068 306.115 84.0494 305.844C84.3014 305.573 84.4274 305.209 84.4274 304.752V301.126H86.4014V308H84.4274V307.104ZM94.8608 308H92.8868V307.034C92.6441 307.398 92.3408 307.673 91.9768 307.86C91.6128 308.047 91.1928 308.14 90.7168 308.14C90.1381 308.14 89.6015 307.981 89.1068 307.664C88.6215 307.337 88.2341 306.899 87.9448 306.348C87.6648 305.797 87.5248 305.2 87.5248 304.556C87.5248 303.912 87.6648 303.315 87.9448 302.764C88.2341 302.213 88.6215 301.779 89.1068 301.462C89.6015 301.145 90.1381 300.986 90.7168 300.986C91.1928 300.986 91.6128 301.079 91.9768 301.266C92.3408 301.453 92.6441 301.728 92.8868 302.092V301.126H94.8608V308ZM91.1648 306.25C91.6501 306.25 92.0561 306.091 92.3828 305.774C92.7188 305.447 92.8868 305.041 92.8868 304.556C92.8868 304.08 92.7188 303.679 92.3828 303.352C92.0561 303.025 91.6501 302.862 91.1648 302.862C90.6888 302.862 90.2828 303.03 89.9468 303.366C89.6201 303.693 89.4568 304.089 89.4568 304.556C89.4568 305.032 89.6201 305.433 89.9468 305.76C90.2828 306.087 90.6888 306.25 91.1648 306.25ZM96.31 301.126H98.284V301.938C98.48 301.639 98.732 301.406 99.04 301.238C99.348 301.07 99.6887 300.986 100.062 300.986C100.211 300.986 100.426 301.014 100.706 301.07V302.862C100.445 302.797 100.211 302.764 100.006 302.764C99.502 302.764 99.0867 302.923 98.76 303.24C98.4427 303.548 98.284 304.005 98.284 304.612V308H96.31V301.126ZM105.044 308.098C104.223 308.098 103.565 307.841 103.07 307.328C102.585 306.815 102.342 306.105 102.342 305.2V303.002H101.068V301.126H102.342V299.32H104.316V301.126H106.01V303.002H104.316V305.172C104.316 305.527 104.423 305.793 104.638 305.97C104.853 306.147 105.142 306.236 105.506 306.236C105.702 306.236 105.87 306.217 106.01 306.18V308C105.758 308.065 105.436 308.098 105.044 308.098ZM110.209 308.14C109.546 308.14 108.939 307.981 108.389 307.664C107.838 307.347 107.404 306.913 107.087 306.362C106.769 305.802 106.611 305.191 106.611 304.528C106.611 303.875 106.765 303.277 107.073 302.736C107.39 302.195 107.819 301.77 108.361 301.462C108.911 301.145 109.518 300.986 110.181 300.986C110.797 300.986 111.361 301.135 111.875 301.434C112.397 301.723 112.808 302.125 113.107 302.638C113.415 303.151 113.569 303.721 113.569 304.346C113.569 304.607 113.555 304.85 113.527 305.074H108.445C108.519 305.513 108.711 305.858 109.019 306.11C109.336 306.362 109.723 306.488 110.181 306.488C110.545 306.488 110.843 306.418 111.077 306.278C111.319 306.129 111.473 305.933 111.539 305.69H113.471C113.359 306.437 113.004 307.034 112.407 307.482C111.809 307.921 111.077 308.14 110.209 308.14ZM111.497 303.758C111.459 303.422 111.305 303.147 111.035 302.932C110.773 302.717 110.456 302.61 110.083 302.61C109.7 302.61 109.373 302.708 109.103 302.904C108.832 303.091 108.641 303.375 108.529 303.758H111.497ZM114.671 301.126H116.645V301.938C116.841 301.639 117.093 301.406 117.401 301.238C117.709 301.07 118.05 300.986 118.423 300.986C118.573 300.986 118.787 301.014 119.067 301.07V302.862C118.806 302.797 118.573 302.764 118.367 302.764C117.863 302.764 117.448 302.923 117.121 303.24C116.804 303.548 116.645 304.005 116.645 304.612V308H114.671V301.126ZM122.612 308.14C121.706 308.14 120.969 307.921 120.4 307.482C119.84 307.043 119.522 306.437 119.448 305.662H121.338C121.356 305.895 121.478 306.082 121.702 306.222C121.926 306.362 122.201 306.432 122.528 306.432C122.817 306.432 123.041 306.385 123.2 306.292C123.358 306.189 123.438 306.063 123.438 305.914C123.438 305.727 123.33 305.592 123.116 305.508C122.91 305.424 122.584 305.345 122.136 305.27C121.622 305.177 121.193 305.074 120.848 304.962C120.512 304.85 120.218 304.659 119.966 304.388C119.723 304.117 119.602 303.739 119.602 303.254C119.602 302.825 119.709 302.437 119.924 302.092C120.148 301.747 120.465 301.476 120.876 301.28C121.296 301.084 121.781 300.986 122.332 300.986C123.106 300.986 123.774 301.187 124.334 301.588C124.903 301.989 125.23 302.559 125.314 303.296H123.326C123.307 303.119 123.204 302.969 123.018 302.848C122.831 302.717 122.584 302.652 122.276 302.652C122.042 302.652 121.856 302.694 121.716 302.778C121.576 302.853 121.506 302.969 121.506 303.128C121.506 303.296 121.599 303.417 121.786 303.492C121.982 303.567 122.299 303.646 122.738 303.73C123.27 303.823 123.708 303.931 124.054 304.052C124.408 304.164 124.716 304.369 124.978 304.668C125.239 304.967 125.37 305.387 125.37 305.928C125.37 306.339 125.248 306.717 125.006 307.062C124.763 307.398 124.432 307.664 124.012 307.86C123.592 308.047 123.125 308.14 122.612 308.14ZM127.576 308.14C127.212 308.14 126.904 308.019 126.652 307.776C126.409 307.533 126.288 307.235 126.288 306.88C126.288 306.525 126.409 306.231 126.652 305.998C126.904 305.755 127.212 305.634 127.576 305.634C127.93 305.634 128.229 305.755 128.472 305.998C128.724 306.241 128.85 306.535 128.85 306.88C128.85 307.235 128.724 307.533 128.472 307.776C128.229 308.019 127.93 308.14 127.576 308.14ZM132.542 304.584L135.958 298.2H138.296L135.146 304.108H137.344V301.798H139.43V304.108H140.466V305.984H139.43V308H137.344V305.984H132.542V304.584ZM144.647 308.14C143.984 308.14 143.392 308.014 142.869 307.762C142.346 307.501 141.936 307.146 141.637 306.698C141.348 306.241 141.203 305.732 141.203 305.172C141.203 304.649 141.348 304.169 141.637 303.73C141.926 303.282 142.314 302.941 142.799 302.708C142.426 302.512 142.122 302.232 141.889 301.868C141.665 301.495 141.553 301.112 141.553 300.72C141.553 300.216 141.684 299.763 141.945 299.362C142.216 298.951 142.584 298.634 143.051 298.41C143.518 298.177 144.05 298.06 144.647 298.06C145.235 298.06 145.762 298.177 146.229 298.41C146.696 298.634 147.06 298.951 147.321 299.362C147.592 299.763 147.727 300.216 147.727 300.72C147.727 301.121 147.61 301.509 147.377 301.882C147.153 302.246 146.854 302.521 146.481 302.708C146.966 302.923 147.354 303.254 147.643 303.702C147.932 304.15 148.077 304.64 148.077 305.172C148.077 305.732 147.928 306.241 147.629 306.698C147.34 307.146 146.934 307.501 146.411 307.762C145.888 308.014 145.3 308.14 144.647 308.14ZM144.647 306.208C145.048 306.208 145.38 306.096 145.641 305.872C145.902 305.648 146.033 305.363 146.033 305.018C146.033 304.682 145.902 304.402 145.641 304.178C145.38 303.954 145.048 303.842 144.647 303.842C144.246 303.842 143.914 303.954 143.653 304.178C143.392 304.402 143.261 304.682 143.261 305.018C143.261 305.363 143.392 305.648 143.653 305.872C143.914 306.096 144.246 306.208 144.647 306.208ZM144.647 301.742C144.955 301.742 145.207 301.653 145.403 301.476C145.608 301.299 145.711 301.079 145.711 300.818C145.711 300.547 145.613 300.328 145.417 300.16C145.221 299.992 144.964 299.908 144.647 299.908C144.33 299.908 144.068 299.997 143.863 300.174C143.667 300.342 143.569 300.557 143.569 300.818C143.569 301.079 143.672 301.299 143.877 301.476C144.082 301.653 144.339 301.742 144.647 301.742ZM157.773 305.97C157.773 306.381 157.68 306.754 157.493 307.09C157.306 307.417 157.05 307.673 156.723 307.86C156.406 308.047 156.051 308.14 155.659 308.14C155.267 308.14 154.908 308.047 154.581 307.86C154.264 307.673 154.012 307.417 153.825 307.09C153.638 306.754 153.545 306.381 153.545 305.97C153.545 305.569 153.638 305.205 153.825 304.878C154.012 304.551 154.264 304.295 154.581 304.108C154.908 303.921 155.267 303.828 155.659 303.828C156.051 303.828 156.406 303.921 156.723 304.108C157.05 304.295 157.306 304.551 157.493 304.878C157.68 305.205 157.773 305.569 157.773 305.97ZM156.485 305.97C156.485 305.69 156.41 305.466 156.261 305.298C156.112 305.13 155.911 305.046 155.659 305.046C155.407 305.046 155.202 305.13 155.043 305.298C154.894 305.466 154.819 305.69 154.819 305.97C154.819 306.25 154.894 306.479 155.043 306.656C155.202 306.833 155.407 306.922 155.659 306.922C155.911 306.922 156.112 306.833 156.261 306.656C156.41 306.479 156.485 306.25 156.485 305.97ZM153.055 300.202C153.055 300.613 152.962 300.986 152.775 301.322C152.598 301.649 152.346 301.905 152.019 302.092C151.702 302.279 151.342 302.372 150.941 302.372C150.549 302.372 150.19 302.279 149.863 302.092C149.546 301.905 149.294 301.649 149.107 301.322C148.93 300.986 148.841 300.613 148.841 300.202C148.841 299.801 148.93 299.437 149.107 299.11C149.294 298.783 149.546 298.527 149.863 298.34C150.19 298.153 150.549 298.06 150.941 298.06C151.548 298.06 152.052 298.265 152.453 298.676C152.854 299.077 153.055 299.586 153.055 300.202ZM151.781 300.202C151.781 299.922 151.702 299.698 151.543 299.53C151.394 299.353 151.193 299.264 150.941 299.264C150.689 299.264 150.488 299.353 150.339 299.53C150.19 299.698 150.115 299.922 150.115 300.202C150.115 300.482 150.19 300.711 150.339 300.888C150.488 301.056 150.689 301.14 150.941 301.14C151.193 301.14 151.394 301.056 151.543 300.888C151.702 300.711 151.781 300.482 151.781 300.202ZM157.339 298.2L150.829 308H149.261L155.771 298.2H157.339ZM165.073 300.986C165.736 300.986 166.338 301.145 166.879 301.462C167.43 301.77 167.859 302.199 168.167 302.75C168.485 303.291 168.643 303.898 168.643 304.57C168.643 305.242 168.485 305.849 168.167 306.39C167.859 306.931 167.43 307.361 166.879 307.678C166.338 307.986 165.736 308.14 165.073 308.14C164.401 308.14 163.795 307.986 163.253 307.678C162.712 307.361 162.283 306.931 161.965 306.39C161.657 305.849 161.503 305.242 161.503 304.57C161.503 303.898 161.657 303.291 161.965 302.75C162.283 302.199 162.712 301.77 163.253 301.462C163.795 301.145 164.401 300.986 165.073 300.986ZM165.073 302.876C164.607 302.876 164.215 303.039 163.897 303.366C163.58 303.683 163.421 304.085 163.421 304.57C163.421 305.046 163.58 305.447 163.897 305.774C164.215 306.091 164.607 306.25 165.073 306.25C165.54 306.25 165.927 306.091 166.235 305.774C166.553 305.447 166.711 305.046 166.711 304.57C166.711 304.085 166.553 303.683 166.235 303.366C165.927 303.039 165.54 302.876 165.073 302.876ZM170.388 300.748C170.388 299.843 170.631 299.133 171.116 298.62C171.611 298.107 172.269 297.85 173.09 297.85C173.454 297.85 173.776 297.887 174.056 297.962V299.782C173.916 299.745 173.748 299.726 173.552 299.726C173.188 299.726 172.899 299.815 172.684 299.992C172.47 300.169 172.362 300.435 172.362 300.79V301.126H174.056V303.002H172.362V308H170.388V303.002H169.114V301.126H170.388V300.748ZM42.837 325.098C42.0157 325.098 41.3577 324.841 40.863 324.328C40.3777 323.815 40.135 323.105 40.135 322.2V320.002H38.861V318.126H40.135V316.32H42.109V318.126H43.803V320.002H42.109V322.172C42.109 322.527 42.2164 322.793 42.431 322.97C42.6457 323.147 42.935 323.236 43.299 323.236C43.495 323.236 43.663 323.217 43.803 323.18V325C43.551 325.065 43.229 325.098 42.837 325.098ZM49.5661 321.36C49.5661 320.912 49.4401 320.553 49.1881 320.282C48.9454 320.011 48.6234 319.876 48.2221 319.876C47.8114 319.876 47.4801 320.011 47.2281 320.282C46.9854 320.553 46.8641 320.912 46.8641 321.36V325H44.8901V315.2H46.8641V319.022C47.0788 318.686 47.3448 318.429 47.6621 318.252C47.9794 318.075 48.3341 317.986 48.7261 317.986C49.6034 317.986 50.2894 318.266 50.7841 318.826C51.2881 319.377 51.5401 320.137 51.5401 321.108V325H49.5661V321.36ZM56.1775 325.14C55.5148 325.14 54.9082 324.981 54.3575 324.664C53.8068 324.347 53.3728 323.913 53.0555 323.362C52.7382 322.802 52.5795 322.191 52.5795 321.528C52.5795 320.875 52.7335 320.277 53.0415 319.736C53.3588 319.195 53.7882 318.77 54.3295 318.462C54.8802 318.145 55.4868 317.986 56.1495 317.986C56.7655 317.986 57.3302 318.135 57.8435 318.434C58.3662 318.723 58.7768 319.125 59.0755 319.638C59.3835 320.151 59.5375 320.721 59.5375 321.346C59.5375 321.607 59.5235 321.85 59.4955 322.074H54.4135C54.4882 322.513 54.6795 322.858 54.9875 323.11C55.3048 323.362 55.6922 323.488 56.1495 323.488C56.5135 323.488 56.8122 323.418 57.0455 323.278C57.2882 323.129 57.4422 322.933 57.5075 322.69H59.4395C59.3275 323.437 58.9728 324.034 58.3755 324.482C57.7782 324.921 57.0455 325.14 56.1775 325.14ZM57.4655 320.758C57.4282 320.422 57.2742 320.147 57.0035 319.932C56.7422 319.717 56.4248 319.61 56.0515 319.61C55.6688 319.61 55.3422 319.708 55.0715 319.904C54.8008 320.091 54.6095 320.375 54.4975 320.758H57.4655ZM71.3921 325H69.4181V321.192C69.4181 320.791 69.3108 320.473 69.0961 320.24C68.8814 319.997 68.5968 319.876 68.2421 319.876C67.8874 319.876 67.5888 319.993 67.3461 320.226C67.1128 320.45 66.9961 320.772 66.9961 321.192V325H65.0221V321.192C65.0221 320.791 64.9148 320.473 64.7001 320.24C64.4854 319.997 64.1914 319.876 63.8181 319.876C63.4821 319.876 63.1974 319.993 62.9641 320.226C62.7308 320.45 62.6141 320.772 62.6141 321.192V325H60.6401V318.126H62.6141V318.938C62.8474 318.602 63.1414 318.359 63.4961 318.21C63.8508 318.061 64.2101 317.986 64.5741 317.986C65.0221 317.986 65.4048 318.07 65.7221 318.238C66.0488 318.397 66.3148 318.649 66.5201 318.994C66.7254 318.695 67.0148 318.453 67.3881 318.266C67.7614 318.079 68.1628 317.986 68.5921 317.986C69.1334 317.986 69.6141 318.103 70.0341 318.336C70.4634 318.56 70.7948 318.877 71.0281 319.288C71.2708 319.699 71.3921 320.179 71.3921 320.73V325ZM82.8296 325H80.8556V324.034C80.6129 324.398 80.3096 324.673 79.9456 324.86C79.5816 325.047 79.1616 325.14 78.6856 325.14C78.1069 325.14 77.5702 324.981 77.0756 324.664C76.5902 324.337 76.2029 323.899 75.9136 323.348C75.6336 322.797 75.4936 322.2 75.4936 321.556C75.4936 320.912 75.6336 320.315 75.9136 319.764C76.2029 319.213 76.5902 318.779 77.0756 318.462C77.5702 318.145 78.1069 317.986 78.6856 317.986C79.1616 317.986 79.5816 318.079 79.9456 318.266C80.3096 318.453 80.6129 318.728 80.8556 319.092V318.126H82.8296V325ZM79.1336 323.25C79.6189 323.25 80.0249 323.091 80.3516 322.774C80.6876 322.447 80.8556 322.041 80.8556 321.556C80.8556 321.08 80.6876 320.679 80.3516 320.352C80.0249 320.025 79.6189 319.862 79.1336 319.862C78.6576 319.862 78.2516 320.03 77.9156 320.366C77.5889 320.693 77.4256 321.089 77.4256 321.556C77.4256 322.032 77.5889 322.433 77.9156 322.76C78.2516 323.087 78.6576 323.25 79.1336 323.25ZM84.2788 318.126H86.2528V318.938C86.4488 318.639 86.7008 318.406 87.0088 318.238C87.3168 318.07 87.6574 317.986 88.0308 317.986C88.1801 317.986 88.3948 318.014 88.6748 318.07V319.862C88.4134 319.797 88.1801 319.764 87.9748 319.764C87.4708 319.764 87.0554 319.923 86.7288 320.24C86.4114 320.548 86.2528 321.005 86.2528 321.612V325H84.2788V318.126ZM92.572 325.14C91.9094 325.14 91.3027 324.981 90.752 324.664C90.2014 324.347 89.7674 323.913 89.45 323.362C89.1327 322.802 88.974 322.191 88.974 321.528C88.974 320.875 89.128 320.277 89.436 319.736C89.7534 319.195 90.1827 318.77 90.724 318.462C91.2747 318.145 91.8814 317.986 92.544 317.986C93.16 317.986 93.7247 318.135 94.238 318.434C94.7607 318.723 95.1714 319.125 95.47 319.638C95.778 320.151 95.932 320.721 95.932 321.346C95.932 321.607 95.918 321.85 95.89 322.074H90.808C90.8827 322.513 91.074 322.858 91.382 323.11C91.6994 323.362 92.0867 323.488 92.544 323.488C92.908 323.488 93.2067 323.418 93.44 323.278C93.6827 323.129 93.8367 322.933 93.902 322.69H95.834C95.722 323.437 95.3674 324.034 94.77 324.482C94.1727 324.921 93.44 325.14 92.572 325.14ZM93.86 320.758C93.8227 320.422 93.6687 320.147 93.398 319.932C93.1367 319.717 92.8194 319.61 92.446 319.61C92.0634 319.61 91.7367 319.708 91.466 319.904C91.1954 320.091 91.004 320.375 90.892 320.758H93.86ZM103.359 325.14C102.696 325.14 102.09 324.981 101.539 324.664C100.988 324.347 100.554 323.913 100.237 323.362C99.9198 322.802 99.7611 322.191 99.7611 321.528C99.7611 320.875 99.9151 320.277 100.223 319.736C100.54 319.195 100.97 318.77 101.511 318.462C102.062 318.145 102.668 317.986 103.331 317.986C103.947 317.986 104.512 318.135 105.025 318.434C105.548 318.723 105.958 319.125 106.257 319.638C106.565 320.151 106.719 320.721 106.719 321.346C106.719 321.607 106.705 321.85 106.677 322.074H101.595C101.67 322.513 101.861 322.858 102.169 323.11C102.486 323.362 102.874 323.488 103.331 323.488C103.695 323.488 103.994 323.418 104.227 323.278C104.47 323.129 104.624 322.933 104.689 322.69H106.621C106.509 323.437 106.154 324.034 105.557 324.482C104.96 324.921 104.227 325.14 103.359 325.14ZM104.647 320.758C104.61 320.422 104.456 320.147 104.185 319.932C103.924 319.717 103.606 319.61 103.233 319.61C102.85 319.61 102.524 319.708 102.253 319.904C101.982 320.091 101.791 320.375 101.679 320.758H104.647ZM111.343 325H109.663L106.821 318.126H108.963L110.503 322.312L112.029 318.126H114.185L111.343 325ZM117.892 325.14C117.23 325.14 116.623 324.981 116.072 324.664C115.522 324.347 115.088 323.913 114.77 323.362C114.453 322.802 114.294 322.191 114.294 321.528C114.294 320.875 114.448 320.277 114.756 319.736C115.074 319.195 115.503 318.77 116.044 318.462C116.595 318.145 117.202 317.986 117.864 317.986C118.48 317.986 119.045 318.135 119.558 318.434C120.081 318.723 120.492 319.125 120.79 319.638C121.098 320.151 121.252 320.721 121.252 321.346C121.252 321.607 121.238 321.85 121.21 322.074H116.128C116.203 322.513 116.394 322.858 116.702 323.11C117.02 323.362 117.407 323.488 117.864 323.488C118.228 323.488 118.527 323.418 118.76 323.278C119.003 323.129 119.157 322.933 119.222 322.69H121.154C121.042 323.437 120.688 324.034 120.09 324.482C119.493 324.921 118.76 325.14 117.892 325.14ZM119.18 320.758C119.143 320.422 118.989 320.147 118.718 319.932C118.457 319.717 118.14 319.61 117.766 319.61C117.384 319.61 117.057 319.708 116.786 319.904C116.516 320.091 116.324 320.375 116.212 320.758H119.18ZM124.329 319.022C124.544 318.686 124.81 318.429 125.127 318.252C125.444 318.075 125.799 317.986 126.191 317.986C127.068 317.986 127.754 318.266 128.249 318.826C128.753 319.377 129.005 320.137 129.005 321.108V325H127.031V321.36C127.031 320.912 126.905 320.553 126.653 320.282C126.41 320.011 126.088 319.876 125.687 319.876C125.276 319.876 124.945 320.011 124.693 320.282C124.45 320.553 124.329 320.912 124.329 321.36V325H122.355V318.126H124.329V319.022ZM136.663 325.14C136 325.14 135.398 324.986 134.857 324.678C134.316 324.361 133.886 323.931 133.569 323.39C133.261 322.849 133.107 322.242 133.107 321.57C133.107 320.898 133.261 320.291 133.569 319.75C133.886 319.199 134.316 318.77 134.857 318.462C135.398 318.145 136 317.986 136.663 317.986C137.232 317.986 137.764 318.107 138.259 318.35C138.754 318.583 139.16 318.91 139.477 319.33C139.794 319.75 139.981 320.221 140.037 320.744H138.021C137.946 320.492 137.783 320.287 137.531 320.128C137.279 319.96 136.99 319.876 136.663 319.876C136.196 319.876 135.809 320.039 135.501 320.366C135.193 320.683 135.039 321.085 135.039 321.57C135.039 322.046 135.193 322.447 135.501 322.774C135.818 323.091 136.206 323.25 136.663 323.25C136.999 323.25 137.293 323.166 137.545 322.998C137.806 322.821 137.974 322.597 138.049 322.326H140.037C139.99 322.858 139.808 323.339 139.491 323.768C139.183 324.197 138.777 324.533 138.273 324.776C137.778 325.019 137.242 325.14 136.663 325.14ZM141.099 315.2H143.073V325H141.099V315.2ZM147.751 317.986C148.414 317.986 149.016 318.145 149.557 318.462C150.108 318.77 150.537 319.199 150.845 319.75C151.162 320.291 151.321 320.898 151.321 321.57C151.321 322.242 151.162 322.849 150.845 323.39C150.537 323.931 150.108 324.361 149.557 324.678C149.016 324.986 148.414 325.14 147.751 325.14C147.079 325.14 146.472 324.986 145.931 324.678C145.39 324.361 144.96 323.931 144.643 323.39C144.335 322.849 144.181 322.242 144.181 321.57C144.181 320.898 144.335 320.291 144.643 319.75C144.96 319.199 145.39 318.77 145.931 318.462C146.472 318.145 147.079 317.986 147.751 317.986ZM147.751 319.876C147.284 319.876 146.892 320.039 146.575 320.366C146.258 320.683 146.099 321.085 146.099 321.57C146.099 322.046 146.258 322.447 146.575 322.774C146.892 323.091 147.284 323.25 147.751 323.25C148.218 323.25 148.605 323.091 148.913 322.774C149.23 322.447 149.389 322.046 149.389 321.57C149.389 321.085 149.23 320.683 148.913 320.366C148.605 320.039 148.218 319.876 147.751 319.876ZM155.219 325.14C154.314 325.14 153.576 324.921 153.007 324.482C152.447 324.043 152.13 323.437 152.055 322.662H153.945C153.964 322.895 154.085 323.082 154.309 323.222C154.533 323.362 154.808 323.432 155.135 323.432C155.424 323.432 155.648 323.385 155.807 323.292C155.966 323.189 156.045 323.063 156.045 322.914C156.045 322.727 155.938 322.592 155.723 322.508C155.518 322.424 155.191 322.345 154.743 322.27C154.23 322.177 153.8 322.074 153.455 321.962C153.119 321.85 152.825 321.659 152.573 321.388C152.33 321.117 152.209 320.739 152.209 320.254C152.209 319.825 152.316 319.437 152.531 319.092C152.755 318.747 153.072 318.476 153.483 318.28C153.903 318.084 154.388 317.986 154.939 317.986C155.714 317.986 156.381 318.187 156.941 318.588C157.51 318.989 157.837 319.559 157.921 320.296H155.933C155.914 320.119 155.812 319.969 155.625 319.848C155.438 319.717 155.191 319.652 154.883 319.652C154.65 319.652 154.463 319.694 154.323 319.778C154.183 319.853 154.113 319.969 154.113 320.128C154.113 320.296 154.206 320.417 154.393 320.492C154.589 320.567 154.906 320.646 155.345 320.73C155.877 320.823 156.316 320.931 156.661 321.052C157.016 321.164 157.324 321.369 157.585 321.668C157.846 321.967 157.977 322.387 157.977 322.928C157.977 323.339 157.856 323.717 157.613 324.062C157.37 324.398 157.039 324.664 156.619 324.86C156.199 325.047 155.732 325.14 155.219 325.14ZM162.367 325.14C161.704 325.14 161.098 324.981 160.547 324.664C159.996 324.347 159.562 323.913 159.245 323.362C158.928 322.802 158.769 322.191 158.769 321.528C158.769 320.875 158.923 320.277 159.231 319.736C159.548 319.195 159.978 318.77 160.519 318.462C161.07 318.145 161.676 317.986 162.339 317.986C162.955 317.986 163.52 318.135 164.033 318.434C164.556 318.723 164.966 319.125 165.265 319.638C165.573 320.151 165.727 320.721 165.727 321.346C165.727 321.607 165.713 321.85 165.685 322.074H160.603C160.678 322.513 160.869 322.858 161.177 323.11C161.494 323.362 161.882 323.488 162.339 323.488C162.703 323.488 163.002 323.418 163.235 323.278C163.478 323.129 163.632 322.933 163.697 322.69H165.629C165.517 323.437 165.162 324.034 164.565 324.482C163.968 324.921 163.235 325.14 162.367 325.14ZM163.655 320.758C163.618 320.422 163.464 320.147 163.193 319.932C162.932 319.717 162.614 319.61 162.241 319.61C161.858 319.61 161.532 319.708 161.261 319.904C160.99 320.091 160.799 320.375 160.687 320.758H163.655ZM166.83 318.126H168.804V318.938C169 318.639 169.252 318.406 169.56 318.238C169.868 318.07 170.208 317.986 170.582 317.986C170.731 317.986 170.946 318.014 171.226 318.07V319.862C170.964 319.797 170.731 319.764 170.526 319.764C170.022 319.764 169.606 319.923 169.28 320.24C168.962 320.548 168.804 321.005 168.804 321.612V325H166.83V318.126ZM172.203 326.876H170.565L171.111 323.334H173.085L172.203 326.876ZM58.9636 335.126H61.0776L62.2256 338.892L63.5976 335.126H65.1376L66.5236 338.892L67.6576 335.126H69.7856L67.3076 342H65.7536L64.3676 338.234L62.9676 342H61.4416L58.9636 335.126ZM72.5604 335.126V342H70.5864V335.126H72.5604ZM71.5664 334.188C71.2397 334.188 70.9551 334.071 70.7124 333.838C70.4791 333.605 70.3624 333.325 70.3624 332.998C70.3624 332.671 70.4791 332.391 70.7124 332.158C70.9551 331.915 71.2397 331.794 71.5664 331.794C71.9024 331.794 72.1871 331.915 72.4204 332.158C72.6537 332.391 72.7704 332.671 72.7704 332.998C72.7704 333.325 72.6537 333.605 72.4204 333.838C72.1871 334.071 71.9024 334.188 71.5664 334.188ZM77.4064 342.098C76.585 342.098 75.927 341.841 75.4324 341.328C74.947 340.815 74.7044 340.105 74.7044 339.2V337.002H73.4304V335.126H74.7044V333.32H76.6784V335.126H78.3724V337.002H76.6784V339.172C76.6784 339.527 76.7857 339.793 77.0004 339.97C77.215 340.147 77.5044 340.236 77.8684 340.236C78.0644 340.236 78.2324 340.217 78.3724 340.18V342C78.1204 342.065 77.7984 342.098 77.4064 342.098ZM84.1354 338.36C84.1354 337.912 84.0094 337.553 83.7574 337.282C83.5148 337.011 83.1928 336.876 82.7914 336.876C82.3808 336.876 82.0494 337.011 81.7974 337.282C81.5548 337.553 81.4334 337.912 81.4334 338.36V342H79.4594V332.2H81.4334V336.022C81.6481 335.686 81.9141 335.429 82.2314 335.252C82.5488 335.075 82.9034 334.986 83.2954 334.986C84.1728 334.986 84.8588 335.266 85.3534 335.826C85.8574 336.377 86.1094 337.137 86.1094 338.108V342H84.1354V338.36ZM89.4588 335.126V342H87.4848V335.126H89.4588ZM88.4648 334.188C88.1382 334.188 87.8535 334.071 87.6108 333.838C87.3775 333.605 87.2608 333.325 87.2608 332.998C87.2608 332.671 87.3775 332.391 87.6108 332.158C87.8535 331.915 88.1382 331.794 88.4648 331.794C88.8008 331.794 89.0855 331.915 89.3188 332.158C89.5522 332.391 89.6688 332.671 89.6688 332.998C89.6688 333.325 89.5522 333.605 89.3188 333.838C89.0855 334.071 88.8008 334.188 88.4648 334.188ZM92.8768 336.022C93.0915 335.686 93.3575 335.429 93.6748 335.252C93.9921 335.075 94.3468 334.986 94.7388 334.986C95.6161 334.986 96.3021 335.266 96.7968 335.826C97.3008 336.377 97.5528 337.137 97.5528 338.108V342H95.5788V338.36C95.5788 337.912 95.4528 337.553 95.2008 337.282C94.9581 337.011 94.6361 336.876 94.2348 336.876C93.8241 336.876 93.4928 337.011 93.2408 337.282C92.9981 337.553 92.8768 337.912 92.8768 338.36V342H90.9028V335.126H92.8768V336.022ZM101.837 340.516L104.987 337.436C105.444 336.997 105.761 336.685 105.939 336.498C106.116 336.302 106.256 336.106 106.359 335.91C106.461 335.714 106.513 335.499 106.513 335.266C106.513 334.921 106.391 334.636 106.149 334.412C105.906 334.188 105.598 334.076 105.225 334.076C104.749 334.076 104.38 334.239 104.119 334.566C103.857 334.883 103.741 335.308 103.769 335.84H101.683C101.655 335.103 101.785 334.449 102.075 333.88C102.373 333.301 102.798 332.853 103.349 332.536C103.899 332.219 104.525 332.06 105.225 332.06C105.878 332.06 106.461 332.195 106.975 332.466C107.497 332.727 107.903 333.096 108.193 333.572C108.491 334.039 108.641 334.571 108.641 335.168C108.641 335.793 108.459 336.381 108.095 336.932C107.731 337.473 107.185 338.08 106.457 338.752L105.225 339.984H108.669V342H101.837V340.516ZM113.615 342.14C112.822 342.14 112.136 341.93 111.557 341.51C110.978 341.09 110.535 340.502 110.227 339.746C109.928 338.99 109.779 338.108 109.779 337.1C109.779 336.092 109.928 335.21 110.227 334.454C110.535 333.689 110.978 333.101 111.557 332.69C112.136 332.27 112.822 332.06 113.615 332.06C114.408 332.06 115.09 332.27 115.659 332.69C116.238 333.101 116.676 333.689 116.975 334.454C117.283 335.21 117.437 336.092 117.437 337.1C117.437 338.108 117.283 338.99 116.975 339.746C116.676 340.502 116.238 341.09 115.659 341.51C115.09 341.93 114.408 342.14 113.615 342.14ZM113.615 340.124C114.156 340.124 114.572 339.872 114.861 339.368C115.16 338.864 115.309 338.108 115.309 337.1C115.309 336.092 115.16 335.336 114.861 334.832C114.572 334.328 114.156 334.076 113.615 334.076C113.074 334.076 112.654 334.328 112.355 334.832C112.056 335.327 111.907 336.083 111.907 337.1C111.907 338.117 112.056 338.878 112.355 339.382C112.654 339.877 113.074 340.124 113.615 340.124ZM122.338 342.14C121.544 342.14 120.858 341.93 120.28 341.51C119.701 341.09 119.258 340.502 118.95 339.746C118.651 338.99 118.502 338.108 118.502 337.1C118.502 336.092 118.651 335.21 118.95 334.454C119.258 333.689 119.701 333.101 120.28 332.69C120.858 332.27 121.544 332.06 122.338 332.06C123.131 332.06 123.812 332.27 124.382 332.69C124.96 333.101 125.399 333.689 125.698 334.454C126.006 335.21 126.16 336.092 126.16 337.1C126.16 338.108 126.006 338.99 125.698 339.746C125.399 340.502 124.96 341.09 124.382 341.51C123.812 341.93 123.131 342.14 122.338 342.14ZM122.338 340.124C122.879 340.124 123.294 339.872 123.584 339.368C123.882 338.864 124.032 338.108 124.032 337.1C124.032 336.092 123.882 335.336 123.584 334.832C123.294 334.328 122.879 334.076 122.338 334.076C121.796 334.076 121.376 334.328 121.078 334.832C120.779 335.327 120.63 336.083 120.63 337.1C120.63 338.117 120.779 338.878 121.078 339.382C121.376 339.877 121.796 340.124 122.338 340.124ZM132.457 337.352L134.907 335.126H137.343L134.557 337.66L137.567 342H135.061L133.115 338.976L132.457 339.564V342H130.483V332.2H132.457V337.352ZM148.864 342H146.89V338.192C146.89 337.791 146.782 337.473 146.568 337.24C146.353 336.997 146.068 336.876 145.714 336.876C145.359 336.876 145.06 336.993 144.818 337.226C144.584 337.45 144.468 337.772 144.468 338.192V342H142.494V338.192C142.494 337.791 142.386 337.473 142.172 337.24C141.957 336.997 141.663 336.876 141.29 336.876C140.954 336.876 140.669 336.993 140.436 337.226C140.202 337.45 140.086 337.772 140.086 338.192V342H138.112V335.126H140.086V335.938C140.319 335.602 140.613 335.359 140.968 335.21C141.322 335.061 141.682 334.986 142.046 334.986C142.494 334.986 142.876 335.07 143.194 335.238C143.52 335.397 143.786 335.649 143.992 335.994C144.197 335.695 144.486 335.453 144.86 335.266C145.233 335.079 145.634 334.986 146.064 334.986C146.605 334.986 147.086 335.103 147.506 335.336C147.935 335.56 148.266 335.877 148.5 336.288C148.742 336.699 148.864 337.179 148.864 337.73V342ZM151.317 342.14C150.953 342.14 150.645 342.019 150.393 341.776C150.15 341.533 150.029 341.235 150.029 340.88C150.029 340.525 150.15 340.231 150.393 339.998C150.645 339.755 150.953 339.634 151.317 339.634C151.671 339.634 151.97 339.755 152.213 339.998C152.465 340.241 152.591 340.535 152.591 340.88C152.591 341.235 152.465 341.533 152.213 341.776C151.97 342.019 151.671 342.14 151.317 342.14Z" fill="#4F6D5D"></path>
</svg>
