<?xml version="1.0" encoding="UTF-8"?>
<svg xmlns="http://www.w3.org/2000/svg" width="208" height="377" viewBox="0 0 208 377" fill="none">
  <rect width="208" height="377" rx="20" fill="white"></rect>
  <path d="M61.984 241.64C59.168 241.64 56.544 240.957 54.112 239.592C51.7227 238.184 49.824 236.307 48.416 233.96C47.008 231.613 46.304 229.075 46.304 226.344C46.304 224.765 46.6027 223.016 47.2 221.096C47.84 219.176 48.7573 217.256 49.952 215.336L61.792 196.2H70.368L60.32 212.072C61.344 211.731 62.3253 211.56 63.264 211.56C65.952 211.56 68.384 212.2 70.56 213.48C72.736 214.76 74.4427 216.531 75.68 218.792C76.96 221.053 77.6 223.571 77.6 226.344C77.6 229.075 76.896 231.613 75.488 233.96C74.08 236.307 72.1813 238.184 69.792 239.592C67.4027 240.957 64.8 241.64 61.984 241.64ZM61.984 234.536C64.3307 234.536 66.3147 233.747 67.936 232.168C69.5573 230.547 70.368 228.584 70.368 226.28C70.368 223.933 69.536 221.949 67.872 220.328C66.2507 218.707 64.2667 217.896 61.92 217.896C59.5733 217.896 57.5893 218.707 55.968 220.328C54.3893 221.949 53.6 223.933 53.6 226.28C53.6 228.584 54.4107 230.547 56.032 232.168C57.6533 233.747 59.6373 234.536 61.984 234.536ZM81.688 235.56L97.304 220.136C99.8213 217.661 101.592 215.677 102.616 214.184C103.64 212.691 104.152 211.155 104.152 209.576C104.152 207.613 103.469 206.013 102.104 204.776C100.781 203.496 99.0747 202.856 96.984 202.856C94.424 202.856 92.3973 203.667 90.904 205.288C89.4533 206.909 88.7707 209.085 88.856 211.816H81.304C81.2187 208.616 81.816 205.779 83.096 203.304C84.4187 200.829 86.296 198.931 88.728 197.608C91.16 196.243 93.912 195.56 96.984 195.56C99.8 195.56 102.339 196.157 104.6 197.352C106.861 198.504 108.632 200.125 109.912 202.216C111.192 204.264 111.832 206.611 111.832 209.256C111.832 211.859 111.043 214.397 109.464 216.872C107.928 219.347 105.645 222.013 102.616 224.872L93.784 233.704H112.152V241H81.688V235.56ZM155.899 232.04C155.899 234.813 155.024 237.117 153.275 238.952C151.526 240.744 149.328 241.64 146.683 241.64C144.038 241.64 141.84 240.744 140.091 238.952C138.384 237.117 137.531 234.813 137.531 232.04C137.531 229.309 138.384 227.048 140.091 225.256C141.84 223.464 144.038 222.568 146.683 222.568C149.328 222.568 151.526 223.464 153.275 225.256C155.024 227.048 155.899 229.309 155.899 232.04ZM151.099 232.04C151.099 230.589 150.694 229.416 149.883 228.52C149.115 227.581 148.048 227.112 146.683 227.112C145.36 227.112 144.294 227.581 143.483 228.52C142.715 229.416 142.331 230.589 142.331 232.04C142.331 233.533 142.715 234.749 143.483 235.688C144.294 236.627 145.36 237.096 146.683 237.096C148.048 237.096 149.115 236.627 149.883 235.688C150.694 234.749 151.099 233.533 151.099 232.04ZM134.843 205.032C134.843 207.805 133.968 210.109 132.219 211.944C130.512 213.736 128.336 214.632 125.691 214.632C123.088 214.632 120.912 213.736 119.163 211.944C117.414 210.109 116.539 207.805 116.539 205.032C116.539 202.301 117.392 200.04 119.099 198.248C120.848 196.456 123.046 195.56 125.691 195.56C128.336 195.56 130.512 196.456 132.219 198.248C133.968 200.04 134.843 202.301 134.843 205.032ZM130.107 205.032C130.107 203.581 129.702 202.387 128.891 201.448C128.08 200.509 127.014 200.04 125.691 200.04C124.368 200.04 123.302 200.509 122.491 201.448C121.68 202.387 121.275 203.581 121.275 205.032C121.275 206.525 121.68 207.741 122.491 208.68C123.302 209.619 124.368 210.088 125.691 210.088C127.014 210.088 128.08 209.619 128.891 208.68C129.702 207.741 130.107 206.525 130.107 205.032ZM153.979 196.2L124.219 241H118.459L148.219 196.2H153.979Z" fill="#4F6D5D"></path>
  <path d="M48.6608 301.06C49.6035 301.06 50.4528 301.279 51.2088 301.718C51.9742 302.157 52.5715 302.763 53.0008 303.538C53.4395 304.303 53.6588 305.157 53.6588 306.1C53.6588 307.043 53.4395 307.901 53.0008 308.676C52.5715 309.441 51.9742 310.043 51.2088 310.482C50.4528 310.921 49.6035 311.14 48.6608 311.14C47.7182 311.14 46.8642 310.921 46.0988 310.482C45.3428 310.043 44.7455 309.441 44.3068 308.676C43.8775 307.901 43.6628 307.043 43.6628 306.1C43.6628 305.157 43.8775 304.303 44.3068 303.538C44.7455 302.763 45.3428 302.157 46.0988 301.718C46.8642 301.279 47.7182 301.06 48.6608 301.06ZM48.6608 303.076C48.1195 303.076 47.6295 303.211 47.1908 303.482C46.7615 303.743 46.4208 304.103 46.1688 304.56C45.9168 305.017 45.7908 305.531 45.7908 306.1C45.7908 306.669 45.9168 307.183 46.1688 307.64C46.4208 308.097 46.7615 308.461 47.1908 308.732C47.6295 308.993 48.1195 309.124 48.6608 309.124C49.2022 309.124 49.6875 308.993 50.1168 308.732C50.5555 308.461 50.9008 308.097 51.1528 307.64C51.4048 307.183 51.5308 306.669 51.5308 306.1C51.5308 305.531 51.4048 305.017 51.1528 304.56C50.9008 304.103 50.5555 303.743 50.1168 303.482C49.6875 303.211 49.2022 303.076 48.6608 303.076ZM55.5953 303.748C55.5953 302.843 55.838 302.133 56.3233 301.62C56.818 301.107 57.476 300.85 58.2973 300.85C58.6613 300.85 58.9833 300.887 59.2633 300.962V302.782C59.1233 302.745 58.9553 302.726 58.7593 302.726C58.3953 302.726 58.106 302.815 57.8913 302.992C57.6767 303.169 57.5693 303.435 57.5693 303.79V304.126H59.2633V306.002H57.5693V311H55.5953V306.002H54.3213V304.126H55.5953V303.748ZM66.2218 303.986C66.8844 303.986 67.4864 304.145 68.0278 304.462C68.5784 304.77 69.0078 305.199 69.3158 305.75C69.6331 306.291 69.7918 306.898 69.7918 307.57C69.7918 308.242 69.6331 308.849 69.3158 309.39C69.0078 309.931 68.5784 310.361 68.0278 310.678C67.4864 310.986 66.8844 311.14 66.2218 311.14C65.5498 311.14 64.9431 310.986 64.4018 310.678C63.8604 310.361 63.4311 309.931 63.1138 309.39C62.8058 308.849 62.6518 308.242 62.6518 307.57C62.6518 306.898 62.8058 306.291 63.1138 305.75C63.4311 305.199 63.8604 304.77 64.4018 304.462C64.9431 304.145 65.5498 303.986 66.2218 303.986ZM66.2218 305.876C65.7551 305.876 65.3631 306.039 65.0458 306.366C64.7284 306.683 64.5698 307.085 64.5698 307.57C64.5698 308.046 64.7284 308.447 65.0458 308.774C65.3631 309.091 65.7551 309.25 66.2218 309.25C66.6884 309.25 67.0758 309.091 67.3838 308.774C67.7011 308.447 67.8598 308.046 67.8598 307.57C67.8598 307.085 67.7011 306.683 67.3838 306.366C67.0758 306.039 66.6884 305.876 66.2218 305.876ZM75.4958 310.104C75.2718 310.44 75.0011 310.697 74.6838 310.874C74.3758 311.051 74.0258 311.14 73.6338 311.14C72.7564 311.14 72.0658 310.86 71.5618 310.3C71.0578 309.74 70.8058 308.975 70.8058 308.004V304.126H72.7798V307.752C72.7798 308.209 72.9011 308.573 73.1438 308.844C73.3958 309.115 73.7271 309.25 74.1378 309.25C74.5484 309.25 74.8751 309.115 75.1178 308.844C75.3698 308.573 75.4958 308.209 75.4958 307.752V304.126H77.4698V311H75.4958V310.104ZM78.9292 304.126H80.9032V304.938C81.0992 304.639 81.3512 304.406 81.6592 304.238C81.9672 304.07 82.3078 303.986 82.6812 303.986C82.8305 303.986 83.0452 304.014 83.3252 304.07V305.862C83.0638 305.797 82.8305 305.764 82.6252 305.764C82.1212 305.764 81.7058 305.923 81.3792 306.24C81.0618 306.548 80.9032 307.005 80.9032 307.612V311H78.9292V304.126ZM92.5109 301.2H94.4849V311H92.5109V306.002H89.7529V311H87.7789V306.002H86.5049V304.126H87.7789V303.748C87.7789 302.843 88.0216 302.133 88.5069 301.62C89.0016 301.107 89.6596 300.85 90.4809 300.85C90.8449 300.85 91.1669 300.887 91.4469 300.962V302.782C91.3069 302.745 91.1389 302.726 90.9429 302.726C90.5789 302.726 90.2896 302.815 90.0749 302.992C89.8603 303.169 89.7529 303.435 89.7529 303.79V304.126H92.5109V301.2ZM99.199 311.14C98.5363 311.14 97.9297 310.981 97.379 310.664C96.8283 310.347 96.3943 309.913 96.077 309.362C95.7597 308.802 95.601 308.191 95.601 307.528C95.601 306.875 95.755 306.277 96.063 305.736C96.3803 305.195 96.8097 304.77 97.351 304.462C97.9017 304.145 98.5083 303.986 99.171 303.986C99.787 303.986 100.352 304.135 100.865 304.434C101.388 304.723 101.798 305.125 102.097 305.638C102.405 306.151 102.559 306.721 102.559 307.346C102.559 307.607 102.545 307.85 102.517 308.074H97.435C97.5097 308.513 97.701 308.858 98.009 309.11C98.3263 309.362 98.7137 309.488 99.171 309.488C99.535 309.488 99.8337 309.418 100.067 309.278C100.31 309.129 100.464 308.933 100.529 308.69H102.461C102.349 309.437 101.994 310.034 101.397 310.482C100.8 310.921 100.067 311.14 99.199 311.14ZM100.487 306.758C100.45 306.422 100.296 306.147 100.025 305.932C99.7637 305.717 99.4463 305.61 99.073 305.61C98.6903 305.61 98.3637 305.708 98.093 305.904C97.8223 306.091 97.631 306.375 97.519 306.758H100.487ZM106.924 311.14C106.261 311.14 105.654 310.981 105.104 310.664C104.553 310.347 104.119 309.913 103.802 309.362C103.484 308.802 103.326 308.191 103.326 307.528C103.326 306.875 103.48 306.277 103.788 305.736C104.105 305.195 104.534 304.77 105.076 304.462C105.626 304.145 106.233 303.986 106.896 303.986C107.512 303.986 108.076 304.135 108.59 304.434C109.112 304.723 109.523 305.125 109.822 305.638C110.13 306.151 110.284 306.721 110.284 307.346C110.284 307.607 110.27 307.85 110.242 308.074H105.16C105.234 308.513 105.426 308.858 105.734 309.11C106.051 309.362 106.438 309.488 106.896 309.488C107.26 309.488 107.558 309.418 107.792 309.278C108.034 309.129 108.188 308.933 108.254 308.69H110.186C110.074 309.437 109.719 310.034 109.122 310.482C108.524 310.921 107.792 311.14 106.924 311.14ZM108.212 306.758C108.174 306.422 108.02 306.147 107.75 305.932C107.488 305.717 107.171 305.61 106.798 305.61C106.415 305.61 106.088 305.708 105.818 305.904C105.547 306.091 105.356 306.375 105.244 306.758H108.212ZM114.679 311.098C113.857 311.098 113.199 310.841 112.705 310.328C112.219 309.815 111.977 309.105 111.977 308.2V306.002H110.703V304.126H111.977V302.32H113.951V304.126H115.645V306.002H113.951V308.172C113.951 308.527 114.058 308.793 114.273 308.97C114.487 309.147 114.777 309.236 115.141 309.236C115.337 309.236 115.505 309.217 115.645 309.18V311C115.393 311.065 115.071 311.098 114.679 311.098ZM123.014 311.14C122.352 311.14 121.75 310.986 121.208 310.678C120.667 310.361 120.238 309.931 119.92 309.39C119.612 308.849 119.458 308.242 119.458 307.57C119.458 306.898 119.612 306.291 119.92 305.75C120.238 305.199 120.667 304.77 121.208 304.462C121.75 304.145 122.352 303.986 123.014 303.986C123.584 303.986 124.116 304.107 124.61 304.35C125.105 304.583 125.511 304.91 125.828 305.33C126.146 305.75 126.332 306.221 126.388 306.744H124.372C124.298 306.492 124.134 306.287 123.882 306.128C123.63 305.96 123.341 305.876 123.014 305.876C122.548 305.876 122.16 306.039 121.852 306.366C121.544 306.683 121.39 307.085 121.39 307.57C121.39 308.046 121.544 308.447 121.852 308.774C122.17 309.091 122.557 309.25 123.014 309.25C123.35 309.25 123.644 309.166 123.896 308.998C124.158 308.821 124.326 308.597 124.4 308.326H126.388C126.342 308.858 126.16 309.339 125.842 309.768C125.534 310.197 125.128 310.533 124.624 310.776C124.13 311.019 123.593 311.14 123.014 311.14ZM130.685 303.986C131.347 303.986 131.949 304.145 132.491 304.462C133.041 304.77 133.471 305.199 133.779 305.75C134.096 306.291 134.255 306.898 134.255 307.57C134.255 308.242 134.096 308.849 133.779 309.39C133.471 309.931 133.041 310.361 132.491 310.678C131.949 310.986 131.347 311.14 130.685 311.14C130.013 311.14 129.406 310.986 128.865 310.678C128.323 310.361 127.894 309.931 127.577 309.39C127.269 308.849 127.115 308.242 127.115 307.57C127.115 306.898 127.269 306.291 127.577 305.75C127.894 305.199 128.323 304.77 128.865 304.462C129.406 304.145 130.013 303.986 130.685 303.986ZM130.685 305.876C130.218 305.876 129.826 306.039 129.509 306.366C129.191 306.683 129.033 307.085 129.033 307.57C129.033 308.046 129.191 308.447 129.509 308.774C129.826 309.091 130.218 309.25 130.685 309.25C131.151 309.25 131.539 309.091 131.847 308.774C132.164 308.447 132.323 308.046 132.323 307.57C132.323 307.085 132.164 306.683 131.847 306.366C131.539 306.039 131.151 305.876 130.685 305.876ZM137.341 305.022C137.555 304.686 137.821 304.429 138.139 304.252C138.456 304.075 138.811 303.986 139.203 303.986C140.08 303.986 140.766 304.266 141.261 304.826C141.765 305.377 142.017 306.137 142.017 307.108V311H140.043V307.36C140.043 306.912 139.917 306.553 139.665 306.282C139.422 306.011 139.1 305.876 138.699 305.876C138.288 305.876 137.957 306.011 137.705 306.282C137.462 306.553 137.341 306.912 137.341 307.36V311H135.367V304.126H137.341V305.022ZM146.178 311.14C145.273 311.14 144.535 310.921 143.966 310.482C143.406 310.043 143.089 309.437 143.014 308.662H144.904C144.923 308.895 145.044 309.082 145.268 309.222C145.492 309.362 145.767 309.432 146.094 309.432C146.383 309.432 146.607 309.385 146.766 309.292C146.925 309.189 147.004 309.063 147.004 308.914C147.004 308.727 146.897 308.592 146.682 308.508C146.477 308.424 146.15 308.345 145.702 308.27C145.189 308.177 144.759 308.074 144.414 307.962C144.078 307.85 143.784 307.659 143.532 307.388C143.289 307.117 143.168 306.739 143.168 306.254C143.168 305.825 143.275 305.437 143.49 305.092C143.714 304.747 144.031 304.476 144.442 304.28C144.862 304.084 145.347 303.986 145.898 303.986C146.673 303.986 147.34 304.187 147.9 304.588C148.469 304.989 148.796 305.559 148.88 306.296H146.892C146.873 306.119 146.771 305.969 146.584 305.848C146.397 305.717 146.15 305.652 145.842 305.652C145.609 305.652 145.422 305.694 145.282 305.778C145.142 305.853 145.072 305.969 145.072 306.128C145.072 306.296 145.165 306.417 145.352 306.492C145.548 306.567 145.865 306.646 146.304 306.73C146.836 306.823 147.275 306.931 147.62 307.052C147.975 307.164 148.283 307.369 148.544 307.668C148.805 307.967 148.936 308.387 148.936 308.928C148.936 309.339 148.815 309.717 148.572 310.062C148.329 310.398 147.998 310.664 147.578 310.86C147.158 311.047 146.691 311.14 146.178 311.14ZM152.038 304.126V311H150.064V304.126H152.038ZM151.044 303.188C150.717 303.188 150.433 303.071 150.19 302.838C149.957 302.605 149.84 302.325 149.84 301.998C149.84 301.671 149.957 301.391 150.19 301.158C150.433 300.915 150.717 300.794 151.044 300.794C151.38 300.794 151.665 300.915 151.898 301.158C152.131 301.391 152.248 301.671 152.248 301.998C152.248 302.325 152.131 302.605 151.898 302.838C151.665 303.071 151.38 303.188 151.044 303.188ZM156.268 311.14C155.363 311.14 154.625 310.921 154.056 310.482C153.496 310.043 153.179 309.437 153.104 308.662H154.994C155.013 308.895 155.134 309.082 155.358 309.222C155.582 309.362 155.857 309.432 156.184 309.432C156.473 309.432 156.697 309.385 156.856 309.292C157.015 309.189 157.094 309.063 157.094 308.914C157.094 308.727 156.987 308.592 156.772 308.508C156.567 308.424 156.24 308.345 155.792 308.27C155.279 308.177 154.849 308.074 154.504 307.962C154.168 307.85 153.874 307.659 153.622 307.388C153.379 307.117 153.258 306.739 153.258 306.254C153.258 305.825 153.365 305.437 153.58 305.092C153.804 304.747 154.121 304.476 154.532 304.28C154.952 304.084 155.437 303.986 155.988 303.986C156.763 303.986 157.43 304.187 157.99 304.588C158.559 304.989 158.886 305.559 158.97 306.296H156.982C156.963 306.119 156.861 305.969 156.674 305.848C156.487 305.717 156.24 305.652 155.932 305.652C155.699 305.652 155.512 305.694 155.372 305.778C155.232 305.853 155.162 305.969 155.162 306.128C155.162 306.296 155.255 306.417 155.442 306.492C155.638 306.567 155.955 306.646 156.394 306.73C156.926 306.823 157.365 306.931 157.71 307.052C158.065 307.164 158.373 307.369 158.634 307.668C158.895 307.967 159.026 308.387 159.026 308.928C159.026 309.339 158.905 309.717 158.662 310.062C158.419 310.398 158.088 310.664 157.668 310.86C157.248 311.047 156.781 311.14 156.268 311.14ZM163.46 311.098C162.639 311.098 161.981 310.841 161.486 310.328C161.001 309.815 160.758 309.105 160.758 308.2V306.002H159.484V304.126H160.758V302.32H162.732V304.126H164.426V306.002H162.732V308.172C162.732 308.527 162.839 308.793 163.054 308.97C163.269 309.147 163.558 309.236 163.922 309.236C164.118 309.236 164.286 309.217 164.426 309.18V311C164.174 311.065 163.852 311.098 163.46 311.098ZM51.2579 320.986C51.9206 320.986 52.5226 321.145 53.0639 321.462C53.6146 321.77 54.0439 322.199 54.3519 322.75C54.6692 323.291 54.8279 323.898 54.8279 324.57C54.8279 325.242 54.6692 325.849 54.3519 326.39C54.0439 326.931 53.6146 327.361 53.0639 327.678C52.5226 327.986 51.9206 328.14 51.2579 328.14C50.5859 328.14 49.9792 327.986 49.4379 327.678C48.8966 327.361 48.4672 326.931 48.1499 326.39C47.8419 325.849 47.6879 325.242 47.6879 324.57C47.6879 323.898 47.8419 323.291 48.1499 322.75C48.4672 322.199 48.8966 321.77 49.4379 321.462C49.9792 321.145 50.5859 320.986 51.2579 320.986ZM51.2579 322.876C50.7912 322.876 50.3992 323.039 50.0819 323.366C49.7646 323.683 49.6059 324.085 49.6059 324.57C49.6059 325.046 49.7646 325.447 50.0819 325.774C50.3992 326.091 50.7912 326.25 51.2579 326.25C51.7246 326.25 52.1119 326.091 52.4199 325.774C52.7372 325.447 52.8959 325.046 52.8959 324.57C52.8959 324.085 52.7372 323.683 52.4199 323.366C52.1119 323.039 51.7246 322.876 51.2579 322.876ZM56.5729 320.748C56.5729 319.843 56.8155 319.133 57.3009 318.62C57.7955 318.107 58.4535 317.85 59.2749 317.85C59.6389 317.85 59.9609 317.887 60.2409 317.962V319.782C60.1009 319.745 59.9329 319.726 59.7369 319.726C59.3729 319.726 59.0835 319.815 58.8689 319.992C58.6542 320.169 58.5469 320.435 58.5469 320.79V321.126H60.2409V323.002H58.5469V328H56.5729V323.002H55.2989V321.126H56.5729V320.748ZM67.2273 328.14C66.5646 328.14 65.958 327.981 65.4073 327.664C64.8566 327.347 64.4226 326.913 64.1053 326.362C63.788 325.802 63.6293 325.191 63.6293 324.528C63.6293 323.875 63.7833 323.277 64.0913 322.736C64.4086 322.195 64.838 321.77 65.3793 321.462C65.93 321.145 66.5366 320.986 67.1993 320.986C67.8153 320.986 68.38 321.135 68.8933 321.434C69.416 321.723 69.8266 322.125 70.1253 322.638C70.4333 323.151 70.5873 323.721 70.5873 324.346C70.5873 324.607 70.5733 324.85 70.5453 325.074H65.4633C65.538 325.513 65.7293 325.858 66.0373 326.11C66.3546 326.362 66.742 326.488 67.1993 326.488C67.5633 326.488 67.862 326.418 68.0953 326.278C68.338 326.129 68.492 325.933 68.5573 325.69H70.4893C70.3773 326.437 70.0226 327.034 69.4253 327.482C68.828 327.921 68.0953 328.14 67.2273 328.14ZM68.5153 323.758C68.478 323.422 68.324 323.147 68.0533 322.932C67.792 322.717 67.4746 322.61 67.1013 322.61C66.7186 322.61 66.392 322.708 66.1213 322.904C65.8506 323.091 65.6593 323.375 65.5473 323.758H68.5153ZM71.6899 318.2H73.6639V328H71.6899V318.2ZM78.3699 328.14C77.7072 328.14 77.1005 327.981 76.5499 327.664C75.9992 327.347 75.5652 326.913 75.2479 326.362C74.9305 325.802 74.7719 325.191 74.7719 324.528C74.7719 323.875 74.9259 323.277 75.2339 322.736C75.5512 322.195 75.9805 321.77 76.5219 321.462C77.0725 321.145 77.6792 320.986 78.3419 320.986C78.9579 320.986 79.5225 321.135 80.0359 321.434C80.5585 321.723 80.9692 322.125 81.2679 322.638C81.5759 323.151 81.7299 323.721 81.7299 324.346C81.7299 324.607 81.7159 324.85 81.6879 325.074H76.6059C76.6805 325.513 76.8719 325.858 77.1799 326.11C77.4972 326.362 77.8845 326.488 78.3419 326.488C78.7059 326.488 79.0045 326.418 79.2379 326.278C79.4805 326.129 79.6345 325.933 79.6999 325.69H81.6319C81.5199 326.437 81.1652 327.034 80.5679 327.482C79.9705 327.921 79.2379 328.14 78.3699 328.14ZM79.6579 323.758C79.6205 323.422 79.4665 323.147 79.1959 322.932C78.9345 322.717 78.6172 322.61 78.2439 322.61C77.8612 322.61 77.5345 322.708 77.2639 322.904C76.9932 323.091 76.8019 323.375 76.6899 323.758H79.6579ZM86.0525 328.14C85.3898 328.14 84.7878 327.986 84.2465 327.678C83.7052 327.361 83.2758 326.931 82.9585 326.39C82.6505 325.849 82.4965 325.242 82.4965 324.57C82.4965 323.898 82.6505 323.291 82.9585 322.75C83.2758 322.199 83.7052 321.77 84.2465 321.462C84.7878 321.145 85.3898 320.986 86.0525 320.986C86.6218 320.986 87.1538 321.107 87.6485 321.35C88.1432 321.583 88.5492 321.91 88.8665 322.33C89.1838 322.75 89.3705 323.221 89.4265 323.744H87.4105C87.3358 323.492 87.1725 323.287 86.9205 323.128C86.6685 322.96 86.3792 322.876 86.0525 322.876C85.5858 322.876 85.1985 323.039 84.8905 323.366C84.5825 323.683 84.4285 324.085 84.4285 324.57C84.4285 325.046 84.5825 325.447 84.8905 325.774C85.2078 326.091 85.5952 326.25 86.0525 326.25C86.3885 326.25 86.6825 326.166 86.9345 325.998C87.1958 325.821 87.3638 325.597 87.4385 325.326H89.4265C89.3798 325.858 89.1978 326.339 88.8805 326.768C88.5725 327.197 88.1665 327.533 87.6625 327.776C87.1678 328.019 86.6312 328.14 86.0525 328.14ZM93.795 328.098C92.9737 328.098 92.3157 327.841 91.821 327.328C91.3357 326.815 91.093 326.105 91.093 325.2V323.002H89.819V321.126H91.093V319.32H93.067V321.126H94.761V323.002H93.067V325.172C93.067 325.527 93.1744 325.793 93.389 325.97C93.6037 326.147 93.893 326.236 94.257 326.236C94.453 326.236 94.621 326.217 94.761 326.18V328C94.509 328.065 94.187 328.098 93.795 328.098ZM97.8221 321.126V328H95.8481V321.126H97.8221ZM96.8281 320.188C96.5015 320.188 96.2168 320.071 95.9741 319.838C95.7408 319.605 95.6241 319.325 95.6241 318.998C95.6241 318.671 95.7408 318.391 95.9741 318.158C96.2168 317.915 96.5015 317.794 96.8281 317.794C97.1641 317.794 97.4488 317.915 97.6821 318.158C97.9155 318.391 98.0321 318.671 98.0321 318.998C98.0321 319.325 97.9155 319.605 97.6821 319.838C97.4488 320.071 97.1641 320.188 96.8281 320.188ZM102.486 328.14C101.823 328.14 101.221 327.986 100.68 327.678C100.139 327.361 99.7094 326.931 99.3921 326.39C99.0841 325.849 98.9301 325.242 98.9301 324.57C98.9301 323.898 99.0841 323.291 99.3921 322.75C99.7094 322.199 100.139 321.77 100.68 321.462C101.221 321.145 101.823 320.986 102.486 320.986C103.055 320.986 103.587 321.107 104.082 321.35C104.577 321.583 104.983 321.91 105.3 322.33C105.617 322.75 105.804 323.221 105.86 323.744H103.844C103.769 323.492 103.606 323.287 103.354 323.128C103.102 322.96 102.813 322.876 102.486 322.876C102.019 322.876 101.632 323.039 101.324 323.366C101.016 323.683 100.862 324.085 100.862 324.57C100.862 325.046 101.016 325.447 101.324 325.774C101.641 326.091 102.029 326.25 102.486 326.25C102.822 326.25 103.116 326.166 103.368 325.998C103.629 325.821 103.797 325.597 103.872 325.326H105.86C105.813 325.858 105.631 326.339 105.314 326.768C105.006 327.197 104.6 327.533 104.096 327.776C103.601 328.019 103.065 328.14 102.486 328.14ZM113.506 328H111.826L108.984 321.126H111.126L112.666 325.312L114.192 321.126H116.348L113.506 328ZM120.055 328.14C119.393 328.14 118.786 327.981 118.235 327.664C117.685 327.347 117.251 326.913 116.933 326.362C116.616 325.802 116.457 325.191 116.457 324.528C116.457 323.875 116.611 323.277 116.919 322.736C117.237 322.195 117.666 321.77 118.207 321.462C118.758 321.145 119.365 320.986 120.027 320.986C120.643 320.986 121.208 321.135 121.721 321.434C122.244 321.723 122.655 322.125 122.953 322.638C123.261 323.151 123.415 323.721 123.415 324.346C123.415 324.607 123.401 324.85 123.373 325.074H118.291C118.366 325.513 118.557 325.858 118.865 326.11C119.183 326.362 119.57 326.488 120.027 326.488C120.391 326.488 120.69 326.418 120.923 326.278C121.166 326.129 121.32 325.933 121.385 325.69H123.317C123.205 326.437 122.851 327.034 122.253 327.482C121.656 327.921 120.923 328.14 120.055 328.14ZM121.343 323.758C121.306 323.422 121.152 323.147 120.881 322.932C120.62 322.717 120.303 322.61 119.929 322.61C119.547 322.61 119.22 322.708 118.949 322.904C118.679 323.091 118.487 323.375 118.375 323.758H121.343ZM129.194 324.36C129.194 323.912 129.068 323.553 128.816 323.282C128.573 323.011 128.251 322.876 127.85 322.876C127.439 322.876 127.108 323.011 126.856 323.282C126.613 323.553 126.492 323.912 126.492 324.36V328H124.518V318.2H126.492V322.022C126.707 321.686 126.973 321.429 127.29 321.252C127.607 321.075 127.962 320.986 128.354 320.986C129.231 320.986 129.917 321.266 130.412 321.826C130.916 322.377 131.168 323.137 131.168 324.108V328H129.194V324.36ZM134.517 321.126V328H132.543V321.126H134.517ZM133.523 320.188C133.197 320.188 132.912 320.071 132.669 319.838C132.436 319.605 132.319 319.325 132.319 318.998C132.319 318.671 132.436 318.391 132.669 318.158C132.912 317.915 133.197 317.794 133.523 317.794C133.859 317.794 134.144 317.915 134.377 318.158C134.611 318.391 134.727 318.671 134.727 318.998C134.727 319.325 134.611 319.605 134.377 319.838C134.144 320.071 133.859 320.188 133.523 320.188ZM139.181 328.14C138.519 328.14 137.917 327.986 137.375 327.678C136.834 327.361 136.405 326.931 136.087 326.39C135.779 325.849 135.625 325.242 135.625 324.57C135.625 323.898 135.779 323.291 136.087 322.75C136.405 322.199 136.834 321.77 137.375 321.462C137.917 321.145 138.519 320.986 139.181 320.986C139.751 320.986 140.283 321.107 140.777 321.35C141.272 321.583 141.678 321.91 141.995 322.33C142.313 322.75 142.499 323.221 142.555 323.744H140.539C140.465 323.492 140.301 323.287 140.049 323.128C139.797 322.96 139.508 322.876 139.181 322.876C138.715 322.876 138.327 323.039 138.019 323.366C137.711 323.683 137.557 324.085 137.557 324.57C137.557 325.046 137.711 325.447 138.019 325.774C138.337 326.091 138.724 326.25 139.181 326.25C139.517 326.25 139.811 326.166 140.063 325.998C140.325 325.821 140.493 325.597 140.567 325.326H142.555C142.509 325.858 142.327 326.339 142.009 326.768C141.701 327.197 141.295 327.533 140.791 327.776C140.297 328.019 139.76 328.14 139.181 328.14ZM143.618 318.2H145.592V328H143.618V318.2ZM150.298 328.14C149.635 328.14 149.028 327.981 148.478 327.664C147.927 327.347 147.493 326.913 147.176 326.362C146.858 325.802 146.7 325.191 146.7 324.528C146.7 323.875 146.854 323.277 147.162 322.736C147.479 322.195 147.908 321.77 148.45 321.462C149 321.145 149.607 320.986 150.27 320.986C150.886 320.986 151.45 321.135 151.964 321.434C152.486 321.723 152.897 322.125 153.196 322.638C153.504 323.151 153.658 323.721 153.658 324.346C153.658 324.607 153.644 324.85 153.616 325.074H148.534C148.608 325.513 148.8 325.858 149.108 326.11C149.425 326.362 149.812 326.488 150.27 326.488C150.634 326.488 150.932 326.418 151.166 326.278C151.408 326.129 151.562 325.933 151.628 325.69H153.56C153.448 326.437 153.093 327.034 152.496 327.482C151.898 327.921 151.166 328.14 150.298 328.14ZM151.586 323.758C151.548 323.422 151.394 323.147 151.124 322.932C150.862 322.717 150.545 322.61 150.172 322.61C149.789 322.61 149.462 322.708 149.192 322.904C148.921 323.091 148.73 323.375 148.618 323.758H151.586ZM157.546 328.14C156.641 328.14 155.904 327.921 155.334 327.482C154.774 327.043 154.457 326.437 154.382 325.662H156.272C156.291 325.895 156.412 326.082 156.636 326.222C156.86 326.362 157.136 326.432 157.462 326.432C157.752 326.432 157.976 326.385 158.134 326.292C158.293 326.189 158.372 326.063 158.372 325.914C158.372 325.727 158.265 325.592 158.05 325.508C157.845 325.424 157.518 325.345 157.07 325.27C156.557 325.177 156.128 325.074 155.782 324.962C155.446 324.85 155.152 324.659 154.9 324.388C154.658 324.117 154.536 323.739 154.536 323.254C154.536 322.825 154.644 322.437 154.858 322.092C155.082 321.747 155.4 321.476 155.81 321.28C156.23 321.084 156.716 320.986 157.266 320.986C158.041 320.986 158.708 321.187 159.268 321.588C159.838 321.989 160.164 322.559 160.248 323.296H158.26C158.242 323.119 158.139 322.969 157.952 322.848C157.766 322.717 157.518 322.652 157.21 322.652C156.977 322.652 156.79 322.694 156.65 322.778C156.51 322.853 156.44 322.969 156.44 323.128C156.44 323.296 156.534 323.417 156.72 323.492C156.916 323.567 157.234 323.646 157.672 323.73C158.204 323.823 158.643 323.931 158.988 324.052C159.343 324.164 159.651 324.369 159.912 324.668C160.174 324.967 160.304 325.387 160.304 325.928C160.304 326.339 160.183 326.717 159.94 327.062C159.698 327.398 159.366 327.664 158.946 327.86C158.526 328.047 158.06 328.14 157.546 328.14Z" fill="#4F6D5D"></path>
  <path d="M69.118 116.43V121.574C69.118 123.802 67.2873 125.605 65.0622 125.605H60.4541C58.2131 125.605 56.4141 123.802 56.4141 121.574V116.43" stroke="#A9B897" stroke-width="2.61207" stroke-linecap="round" stroke-linejoin="round"></path>
  <path d="M151.126 116.584V121.729C151.126 123.956 149.311 125.76 147.086 125.76H142.477C140.237 125.76 138.438 123.956 138.438 121.729V116.584" stroke="#A9B897" stroke-width="2.61207" stroke-linecap="round" stroke-linejoin="round"></path>
  <path d="M138.425 116.584H69.4141" stroke="#A9B897" stroke-width="2.61207" stroke-linecap="round" stroke-linejoin="round"></path>
  <path d="M119.852 80.791H144.312C148.068 80.791 151.114 83.8182 151.114 87.5512V116.584" stroke="#A9B897" stroke-width="2.61207" stroke-linecap="round" stroke-linejoin="round"></path>
  <path d="M56.6953 116.584V87.5512C56.6953 83.8182 59.7411 80.791 63.497 80.791H97.3162" stroke="#A9B897" stroke-width="2.61207" stroke-linecap="round" stroke-linejoin="round"></path>
  <path d="M97.145 80.7897H64.3516L74.5147 57.0272C75.3037 55.192 77.1186 54 79.1228 54H128.692C130.712 54 132.527 55.192 133.3 57.0429L143.384 80.7897H119.854" stroke="#A9B897" stroke-width="2.61207" stroke-linecap="round" stroke-linejoin="round"></path>
  <path d="M149.273 74.4404L145.438 75.1149C144.444 75.2874 143.56 75.8521 142.976 76.6677C141.919 78.1577 142.708 80.2438 144.507 80.683L145.233 80.8555C145.895 81.0124 146.59 81.0437 147.253 80.9183L150.314 80.385C152.476 80.0085 153.534 77.546 152.318 75.7423C151.656 74.7541 150.456 74.2365 149.273 74.4404Z" stroke="#A9B897" stroke-width="2.61207" stroke-linecap="round" stroke-linejoin="round"></path>
  <path d="M58.5581 74.4404L62.3929 75.1149C63.3872 75.2874 64.2709 75.8521 64.8548 76.6677C65.9122 78.1577 65.1231 80.2438 63.324 80.683L62.5981 80.8555C61.9353 81.0124 61.2409 81.0437 60.5781 80.9183L57.5165 80.385C55.3545 80.0085 54.2972 77.546 55.5123 75.7423C56.1751 74.7541 57.3745 74.2365 58.5581 74.4404Z" stroke="#A9B897" stroke-width="2.61207" stroke-linecap="round" stroke-linejoin="round"></path>
  <path d="M128.547 102.527C128.547 102.527 130.314 97.8688 134.654 95.8141C139.073 93.7123 143.381 94.7162 143.381 94.7162C143.381 94.7162 143.129 100.551 138.805 102.213C135.285 103.562 128.547 102.527 128.547 102.527Z" stroke="#A9B897" stroke-width="2.61207" stroke-linecap="round" stroke-linejoin="round"></path>
  <path d="M79.2797 102.527C79.2797 102.527 77.5122 97.8688 73.1723 95.8141C68.7536 93.7123 64.4453 94.7162 64.4453 94.7162C64.4453 94.7162 64.6978 100.551 69.0219 102.213C72.5411 103.562 79.2797 102.527 79.2797 102.527Z" stroke="#A9B897" stroke-width="2.61207" stroke-linecap="round" stroke-linejoin="round"></path>
  <path d="M121.705 67.5938C121.705 67.5938 113.199 67.8133 105.245 72.707C98.4591 76.8792 94.3087 84.204 93.8668 92.1405C93.709 94.9638 93.8668 98.1948 94.719 101.583C94.719 101.583 101.663 102.665 110.469 96.9871C115.187 93.9442 118.407 89.0192 119.385 83.4982C120.079 79.5769 120.932 74.1814 121.705 67.5938Z" stroke="#A9B897" stroke-width="2.61207" stroke-linecap="round" stroke-linejoin="round"></path>
  <path d="M78.4531 116.577C78.4531 116.577 91.7883 113.017 94.8183 100.328C96.6805 92.5169 105.297 89.8976 108.864 83.9844" stroke="#A9B897" stroke-width="2.61207" stroke-linecap="round" stroke-linejoin="round"></path>
</svg>
