<?xml version="1.0" encoding="UTF-8"?>
<svg xmlns="http://www.w3.org/2000/svg" width="272" height="309" viewBox="0 0 272 309" fill="none">
  <rect width="272" height="309" rx="20" fill="white"></rect>
  <g clip-path="url(#clip0_1364_6100)">
    <mask id="path-2-outside-1_1364_6100" maskUnits="userSpaceOnUse" x="94.8906" y="39.6211" width="92" height="85" fill="black">
      <rect fill="white" x="94.8906" y="39.6211" width="92" height="85"></rect>
      <path d="M105.446 95.7165L104.837 99.267C104.748 99.7843 104.957 100.298 105.382 100.606C105.808 100.915 106.36 100.957 106.825 100.709L109.932 99.0331C110.371 99.1996 113.309 100.978 113.759 100.868C114.574 100.886 115.272 100.075 115.109 99.2634L114.475 95.791L117.054 93.2788C117.43 92.9103 117.564 92.3752 117.401 91.872C117.238 91.3724 116.813 91.0146 116.296 90.9402L112.799 90.4689L111.204 87.2409C110.751 86.2346 109.199 86.2346 108.745 87.2409L107.218 90.4228L103.653 90.9402C103.132 91.0146 102.711 91.3724 102.548 91.872C102.385 92.3716 102.519 92.9102 102.895 93.2752L105.446 95.7165ZM107.427 91.8649C107.873 91.8011 108.26 91.5212 108.458 91.1172L109.95 87.992L111.491 91.1172C111.69 91.5247 112.076 91.8047 112.522 91.8684L115.913 92.361L113.458 94.7562C113.135 95.0716 112.99 95.5251 113.068 95.968L113.645 99.3448C113.206 99.1748 110.428 97.4881 109.975 97.5909C109.503 97.4917 106.761 99.1642 106.304 99.3448L106.881 95.968C106.959 95.5251 106.81 95.0715 106.488 94.7527L104.036 92.361L107.427 91.8649ZM113.564 58.7352H136.256C137.014 58.7352 137.631 58.1186 137.631 57.3604V49.0265C137.631 48.2682 137.014 47.6517 136.256 47.6517H113.564C112.806 47.6517 112.189 48.2682 112.189 49.0265V57.3604C112.189 58.1186 112.806 58.7352 113.564 58.7352ZM113.645 49.1082H136.178V57.2791H113.645V49.1082ZM138.47 65.0957H148.877C149.827 65.0992 149.83 66.5485 148.877 66.552H138.47C137.52 66.5485 137.517 65.0992 138.47 65.0957ZM148.877 73.8017H130.898C129.952 73.7981 129.942 72.3489 130.898 72.3453H148.877C149.823 72.3489 149.834 73.7946 148.877 73.8017ZM123.322 73.8017H119.29C118.34 73.7981 118.337 72.3489 119.29 72.3453H123.322C124.272 72.3489 124.276 73.7946 123.322 73.8017ZM130.898 66.552H112.916C111.97 66.5485 111.959 65.0992 112.916 65.0957H130.894C131.844 65.0992 131.851 66.5449 130.898 66.552ZM148.877 81.0474H140.153C139.752 81.0474 139.427 80.7214 139.427 80.321C139.427 79.9206 139.753 79.5946 140.153 79.5946H148.877C149.826 79.5946 149.83 81.0438 148.877 81.0474ZM135.259 81.0474H126.536C126.135 81.0474 125.809 80.7214 125.809 80.321C125.809 79.9206 126.135 79.5946 126.536 79.5946H135.259C136.209 79.5946 136.212 81.0438 135.259 81.0474ZM148.877 95.5463H144.331C143.381 95.5428 143.377 94.0935 144.331 94.09H148.877C149.826 94.0935 149.83 95.5428 148.877 95.5463ZM138.47 95.5463H134.108C133.158 95.5428 133.154 94.0935 134.108 94.09H138.47C139.419 94.0935 139.423 95.5428 138.47 95.5463ZM148.877 88.2967H129.846C128.9 88.2931 128.889 86.8439 129.846 86.8403H148.877C149.823 86.8439 149.833 88.2931 148.877 88.2967ZM184.625 50.0536C178.385 53.2675 172.932 56.7647 168.404 60.3609V53.4834C168.404 51.1305 166.49 49.2172 164.137 49.2172H153.33L144.943 40.8301C144.809 40.6849 144.631 40.6282 144.458 40.6246C144.451 40.6246 144.44 40.6211 144.433 40.6211H108.727C106.374 40.6211 104.461 42.5345 104.461 44.8872V80.7383C99.8511 82.6021 96.1731 86.9037 95.8932 93.6752C95.8117 97.6827 97.6613 101.428 100.531 104.051V123.053C100.531 123.323 100.68 123.571 100.918 123.698C101.155 123.826 101.446 123.808 101.669 123.656L109.978 118.015L118.287 123.656C118.411 123.741 118.553 123.78 118.695 123.78C119.084 123.787 119.432 123.443 119.421 123.053V120.07H164.138C166.491 120.07 168.404 118.156 168.404 115.804V91.1352C174.619 89.4131 177.053 84.658 177.762 76.6924C178.573 68.7979 181.415 58.4944 185.599 51.0426C185.95 50.4367 185.227 49.7206 184.625 50.0536ZM145.156 43.1051L156.736 54.6851H147.966C146.417 54.6851 145.156 53.4237 145.156 51.8752L145.156 43.1051ZM164.141 50.6737C165.69 50.6737 166.951 51.9351 166.951 53.4836V61.5482C163.868 64.1278 161.275 66.7463 159.23 69.3329L159.227 55.4181C159.227 55.3933 159.216 55.372 159.212 55.3508C159.209 55.2905 159.198 55.2338 159.177 55.1736C159.17 55.1559 159.166 55.1417 159.163 55.124C159.127 55.0425 159.081 54.9646 159.01 54.8972L154.787 50.6736L164.141 50.6737ZM105.917 44.8875C105.917 43.3391 107.178 42.0776 108.727 42.0776H143.703V51.8751C143.703 54.2279 145.617 56.1412 147.969 56.1412H157.774V71.2997C155.967 73.9323 154.748 76.5119 154.185 78.9709C153.721 80.9127 153.689 82.78 154.128 84.573C154.156 84.697 154.178 84.8245 154.213 84.945C154.22 84.9734 154.231 85.0017 154.241 85.03C154.266 85.1186 154.298 85.2072 154.326 85.2958C154.426 85.6147 154.543 85.9265 154.674 86.2384C154.677 86.249 154.681 86.2561 154.684 86.2667C155.329 87.7797 156.346 89.2041 157.728 90.5222C157.742 90.5364 157.756 90.5541 157.771 90.5683V93.155C156.569 96.5424 155.51 99.9794 154.606 103.462C154.479 103.916 154.844 104.376 155.311 104.373C155.634 104.373 155.932 104.157 156.017 103.827C156.545 101.79 157.133 99.7559 157.771 97.7398V107.208C157.771 108.756 156.509 110.018 154.961 110.018H119.424V104.115C122.266 101.5 123.683 98.3533 123.985 95.1962C123.995 95.097 123.999 94.9978 124.009 94.8951C124.034 94.5549 124.048 94.2112 124.045 93.871C124.045 93.8037 124.052 93.7399 124.052 93.6726C124.052 93.6372 124.045 93.6053 124.045 93.5699C124.02 92.5813 123.893 91.6033 123.666 90.6501C122.702 86.189 120.08 83.0922 116.802 81.3488C113.783 79.6125 110.024 78.9854 105.917 80.1866L105.917 44.8875ZM105.382 81.8941C105.403 81.887 105.428 81.8941 105.449 81.887C106.537 81.4725 107.66 81.2103 108.804 81.104H108.819C109.173 81.0721 109.527 81.0579 109.885 81.0544C109.914 81.0544 109.942 81.0508 109.974 81.0508C110.7 81.0508 111.402 81.1075 112.075 81.2174C119.923 82.4823 124.243 90.7346 121.96 97.6938C121.294 99.7171 120.075 101.634 118.215 103.236C116.511 104.756 114.406 105.709 112.202 106.088C108.528 106.722 104.577 105.773 101.732 103.243C94.1808 96.7477 97.0832 85.1043 105.382 81.8941ZM117.964 121.682L110.704 116.753V111.941C110.704 111.541 110.378 111.215 109.977 111.215C109.577 111.215 109.251 111.541 109.251 111.941V116.753L101.991 121.682L101.987 105.269C102.763 105.818 103.596 106.268 104.464 106.633C104.521 106.658 104.577 106.683 104.634 106.708C104.829 106.786 105.027 106.856 105.229 106.927C106.732 107.48 108.326 107.785 109.974 107.753C111.618 107.785 113.216 107.48 114.715 106.927C114.917 106.856 115.115 106.786 115.314 106.704C115.37 106.679 115.427 106.654 115.484 106.63C116.352 106.265 117.188 105.815 117.964 105.265L117.964 121.682ZM166.947 91.493V115.804C166.947 117.352 165.686 118.614 164.137 118.614H119.424V111.474H154.96C157.313 111.474 159.226 109.561 159.226 107.208V93.4283C159.425 92.872 159.623 92.3192 159.828 91.7665C160.367 91.8409 160.92 91.848 161.458 91.8515C161.625 91.8586 161.777 91.8515 161.94 91.8551C162.171 91.8586 162.401 91.8621 162.617 91.8763C162.72 91.8763 162.812 91.8657 162.915 91.8621C163.45 91.8551 163.967 91.8303 164.477 91.7948C164.499 91.7948 164.523 91.7913 164.548 91.7913C165.087 91.7523 165.604 91.6921 166.107 91.6141C166.21 91.5999 166.313 91.5858 166.416 91.568C166.593 91.5468 166.78 91.5284 166.947 91.493ZM176.319 76.4978C175.642 81.4798 175.196 84.7715 172.506 87.2877C171.181 88.5243 169.47 89.3924 167.397 89.8991C167.057 89.9842 166.688 90.0444 166.323 90.1082C166.104 90.1472 165.895 90.1932 165.668 90.2251C165.285 90.2783 164.874 90.3066 164.47 90.3385C164.25 90.3562 164.045 90.3846 163.822 90.3952C163.297 90.42 162.745 90.42 162.185 90.4094C162.061 90.4058 161.944 90.4129 161.82 90.4094C161.359 90.3952 160.87 90.3527 160.388 90.3173C160.859 89.1019 161.352 87.8936 161.866 86.6924C163.882 86.1715 170.515 84.0668 172.627 79.1203C172.981 78.2345 171.631 77.6994 171.273 78.5782C169.845 82.1286 165.058 84.1341 162.613 84.949C164.356 81.023 166.312 77.1927 168.46 73.4616C168.488 73.4652 168.513 73.4758 168.545 73.4758C168.796 73.5218 176.251 70.9565 174.324 69.2132C173.98 69.0006 173.534 69.1104 173.321 69.4506C172.906 70.1238 171.128 70.999 169.53 71.6191C170.734 69.6064 171.996 67.6293 173.314 65.6875C173.853 64.8832 172.634 64.1001 172.109 64.869C168.375 70.3647 165.097 76.1478 162.295 82.1464C161.784 80.6404 161.38 77.7987 163.131 73.6814C163.287 73.3129 163.117 72.8841 162.745 72.7282C162.376 72.5688 161.947 72.7424 161.788 73.1144C159.506 78.5499 160.505 82.423 161.487 83.907C160.626 85.8275 159.814 87.7693 159.052 89.7288C156.427 87.2413 155.265 84.4669 155.307 81.5295C155.442 78.631 156.714 75.3818 159.095 71.9623C160.413 70.0702 162.043 68.1639 163.946 66.2647C168.984 61.3359 175.801 56.5489 183.25 52.4243C179.614 59.3834 177.042 69.4289 176.319 76.4978Z"></path>
    </mask>
    <path d="M105.446 95.7165L104.837 99.267C104.748 99.7843 104.957 100.298 105.382 100.606C105.808 100.915 106.36 100.957 106.825 100.709L109.932 99.0331C110.371 99.1996 113.309 100.978 113.759 100.868C114.574 100.886 115.272 100.075 115.109 99.2634L114.475 95.791L117.054 93.2788C117.43 92.9103 117.564 92.3752 117.401 91.872C117.238 91.3724 116.813 91.0146 116.296 90.9402L112.799 90.4689L111.204 87.2409C110.751 86.2346 109.199 86.2346 108.745 87.2409L107.218 90.4228L103.653 90.9402C103.132 91.0146 102.711 91.3724 102.548 91.872C102.385 92.3716 102.519 92.9102 102.895 93.2752L105.446 95.7165ZM107.427 91.8649C107.873 91.8011 108.26 91.5212 108.458 91.1172L109.95 87.992L111.491 91.1172C111.69 91.5247 112.076 91.8047 112.522 91.8684L115.913 92.361L113.458 94.7562C113.135 95.0716 112.99 95.5251 113.068 95.968L113.645 99.3448C113.206 99.1748 110.428 97.4881 109.975 97.5909C109.503 97.4917 106.761 99.1642 106.304 99.3448L106.881 95.968C106.959 95.5251 106.81 95.0715 106.488 94.7527L104.036 92.361L107.427 91.8649ZM113.564 58.7352H136.256C137.014 58.7352 137.631 58.1186 137.631 57.3604V49.0265C137.631 48.2682 137.014 47.6517 136.256 47.6517H113.564C112.806 47.6517 112.189 48.2682 112.189 49.0265V57.3604C112.189 58.1186 112.806 58.7352 113.564 58.7352ZM113.645 49.1082H136.178V57.2791H113.645V49.1082ZM138.47 65.0957H148.877C149.827 65.0992 149.83 66.5485 148.877 66.552H138.47C137.52 66.5485 137.517 65.0992 138.47 65.0957ZM148.877 73.8017H130.898C129.952 73.7981 129.942 72.3489 130.898 72.3453H148.877C149.823 72.3489 149.834 73.7946 148.877 73.8017ZM123.322 73.8017H119.29C118.34 73.7981 118.337 72.3489 119.29 72.3453H123.322C124.272 72.3489 124.276 73.7946 123.322 73.8017ZM130.898 66.552H112.916C111.97 66.5485 111.959 65.0992 112.916 65.0957H130.894C131.844 65.0992 131.851 66.5449 130.898 66.552ZM148.877 81.0474H140.153C139.752 81.0474 139.427 80.7214 139.427 80.321C139.427 79.9206 139.753 79.5946 140.153 79.5946H148.877C149.826 79.5946 149.83 81.0438 148.877 81.0474ZM135.259 81.0474H126.536C126.135 81.0474 125.809 80.7214 125.809 80.321C125.809 79.9206 126.135 79.5946 126.536 79.5946H135.259C136.209 79.5946 136.212 81.0438 135.259 81.0474ZM148.877 95.5463H144.331C143.381 95.5428 143.377 94.0935 144.331 94.09H148.877C149.826 94.0935 149.83 95.5428 148.877 95.5463ZM138.47 95.5463H134.108C133.158 95.5428 133.154 94.0935 134.108 94.09H138.47C139.419 94.0935 139.423 95.5428 138.47 95.5463ZM148.877 88.2967H129.846C128.9 88.2931 128.889 86.8439 129.846 86.8403H148.877C149.823 86.8439 149.833 88.2931 148.877 88.2967ZM184.625 50.0536C178.385 53.2675 172.932 56.7647 168.404 60.3609V53.4834C168.404 51.1305 166.49 49.2172 164.137 49.2172H153.33L144.943 40.8301C144.809 40.6849 144.631 40.6282 144.458 40.6246C144.451 40.6246 144.44 40.6211 144.433 40.6211H108.727C106.374 40.6211 104.461 42.5345 104.461 44.8872V80.7383C99.8511 82.6021 96.1731 86.9037 95.8932 93.6752C95.8117 97.6827 97.6613 101.428 100.531 104.051V123.053C100.531 123.323 100.68 123.571 100.918 123.698C101.155 123.826 101.446 123.808 101.669 123.656L109.978 118.015L118.287 123.656C118.411 123.741 118.553 123.78 118.695 123.78C119.084 123.787 119.432 123.443 119.421 123.053V120.07H164.138C166.491 120.07 168.404 118.156 168.404 115.804V91.1352C174.619 89.4131 177.053 84.658 177.762 76.6924C178.573 68.7979 181.415 58.4944 185.599 51.0426C185.95 50.4367 185.227 49.7206 184.625 50.0536ZM145.156 43.1051L156.736 54.6851H147.966C146.417 54.6851 145.156 53.4237 145.156 51.8752L145.156 43.1051ZM164.141 50.6737C165.69 50.6737 166.951 51.9351 166.951 53.4836V61.5482C163.868 64.1278 161.275 66.7463 159.23 69.3329L159.227 55.4181C159.227 55.3933 159.216 55.372 159.212 55.3508C159.209 55.2905 159.198 55.2338 159.177 55.1736C159.17 55.1559 159.166 55.1417 159.163 55.124C159.127 55.0425 159.081 54.9646 159.01 54.8972L154.787 50.6736L164.141 50.6737ZM105.917 44.8875C105.917 43.3391 107.178 42.0776 108.727 42.0776H143.703V51.8751C143.703 54.2279 145.617 56.1412 147.969 56.1412H157.774V71.2997C155.967 73.9323 154.748 76.5119 154.185 78.9709C153.721 80.9127 153.689 82.78 154.128 84.573C154.156 84.697 154.178 84.8245 154.213 84.945C154.22 84.9734 154.231 85.0017 154.241 85.03C154.266 85.1186 154.298 85.2072 154.326 85.2958C154.426 85.6147 154.543 85.9265 154.674 86.2384C154.677 86.249 154.681 86.2561 154.684 86.2667C155.329 87.7797 156.346 89.2041 157.728 90.5222C157.742 90.5364 157.756 90.5541 157.771 90.5683V93.155C156.569 96.5424 155.51 99.9794 154.606 103.462C154.479 103.916 154.844 104.376 155.311 104.373C155.634 104.373 155.932 104.157 156.017 103.827C156.545 101.79 157.133 99.7559 157.771 97.7398V107.208C157.771 108.756 156.509 110.018 154.961 110.018H119.424V104.115C122.266 101.5 123.683 98.3533 123.985 95.1962C123.995 95.097 123.999 94.9978 124.009 94.8951C124.034 94.5549 124.048 94.2112 124.045 93.871C124.045 93.8037 124.052 93.7399 124.052 93.6726C124.052 93.6372 124.045 93.6053 124.045 93.5699C124.02 92.5813 123.893 91.6033 123.666 90.6501C122.702 86.189 120.08 83.0922 116.802 81.3488C113.783 79.6125 110.024 78.9854 105.917 80.1866L105.917 44.8875ZM105.382 81.8941C105.403 81.887 105.428 81.8941 105.449 81.887C106.537 81.4725 107.66 81.2103 108.804 81.104H108.819C109.173 81.0721 109.527 81.0579 109.885 81.0544C109.914 81.0544 109.942 81.0508 109.974 81.0508C110.7 81.0508 111.402 81.1075 112.075 81.2174C119.923 82.4823 124.243 90.7346 121.96 97.6938C121.294 99.7171 120.075 101.634 118.215 103.236C116.511 104.756 114.406 105.709 112.202 106.088C108.528 106.722 104.577 105.773 101.732 103.243C94.1808 96.7477 97.0832 85.1043 105.382 81.8941ZM117.964 121.682L110.704 116.753V111.941C110.704 111.541 110.378 111.215 109.977 111.215C109.577 111.215 109.251 111.541 109.251 111.941V116.753L101.991 121.682L101.987 105.269C102.763 105.818 103.596 106.268 104.464 106.633C104.521 106.658 104.577 106.683 104.634 106.708C104.829 106.786 105.027 106.856 105.229 106.927C106.732 107.48 108.326 107.785 109.974 107.753C111.618 107.785 113.216 107.48 114.715 106.927C114.917 106.856 115.115 106.786 115.314 106.704C115.37 106.679 115.427 106.654 115.484 106.63C116.352 106.265 117.188 105.815 117.964 105.265L117.964 121.682ZM166.947 91.493V115.804C166.947 117.352 165.686 118.614 164.137 118.614H119.424V111.474H154.96C157.313 111.474 159.226 109.561 159.226 107.208V93.4283C159.425 92.872 159.623 92.3192 159.828 91.7665C160.367 91.8409 160.92 91.848 161.458 91.8515C161.625 91.8586 161.777 91.8515 161.94 91.8551C162.171 91.8586 162.401 91.8621 162.617 91.8763C162.72 91.8763 162.812 91.8657 162.915 91.8621C163.45 91.8551 163.967 91.8303 164.477 91.7948C164.499 91.7948 164.523 91.7913 164.548 91.7913C165.087 91.7523 165.604 91.6921 166.107 91.6141C166.21 91.5999 166.313 91.5858 166.416 91.568C166.593 91.5468 166.78 91.5284 166.947 91.493ZM176.319 76.4978C175.642 81.4798 175.196 84.7715 172.506 87.2877C171.181 88.5243 169.47 89.3924 167.397 89.8991C167.057 89.9842 166.688 90.0444 166.323 90.1082C166.104 90.1472 165.895 90.1932 165.668 90.2251C165.285 90.2783 164.874 90.3066 164.47 90.3385C164.25 90.3562 164.045 90.3846 163.822 90.3952C163.297 90.42 162.745 90.42 162.185 90.4094C162.061 90.4058 161.944 90.4129 161.82 90.4094C161.359 90.3952 160.87 90.3527 160.388 90.3173C160.859 89.1019 161.352 87.8936 161.866 86.6924C163.882 86.1715 170.515 84.0668 172.627 79.1203C172.981 78.2345 171.631 77.6994 171.273 78.5782C169.845 82.1286 165.058 84.1341 162.613 84.949C164.356 81.023 166.312 77.1927 168.46 73.4616C168.488 73.4652 168.513 73.4758 168.545 73.4758C168.796 73.5218 176.251 70.9565 174.324 69.2132C173.98 69.0006 173.534 69.1104 173.321 69.4506C172.906 70.1238 171.128 70.999 169.53 71.6191C170.734 69.6064 171.996 67.6293 173.314 65.6875C173.853 64.8832 172.634 64.1001 172.109 64.869C168.375 70.3647 165.097 76.1478 162.295 82.1464C161.784 80.6404 161.38 77.7987 163.131 73.6814C163.287 73.3129 163.117 72.8841 162.745 72.7282C162.376 72.5688 161.947 72.7424 161.788 73.1144C159.506 78.5499 160.505 82.423 161.487 83.907C160.626 85.8275 159.814 87.7693 159.052 89.7288C156.427 87.2413 155.265 84.4669 155.307 81.5295C155.442 78.631 156.714 75.3818 159.095 71.9623C160.413 70.0702 162.043 68.1639 163.946 66.2647C168.984 61.3359 175.801 56.5489 183.25 52.4243C179.614 59.3834 177.042 69.4289 176.319 76.4978Z" fill="#78A22F"></path>
    <path d="M105.446 95.7165L104.837 99.267C104.748 99.7843 104.957 100.298 105.382 100.606C105.808 100.915 106.36 100.957 106.825 100.709L109.932 99.0331C110.371 99.1996 113.309 100.978 113.759 100.868C114.574 100.886 115.272 100.075 115.109 99.2634L114.475 95.791L117.054 93.2788C117.43 92.9103 117.564 92.3752 117.401 91.872C117.238 91.3724 116.813 91.0146 116.296 90.9402L112.799 90.4689L111.204 87.2409C110.751 86.2346 109.199 86.2346 108.745 87.2409L107.218 90.4228L103.653 90.9402C103.132 91.0146 102.711 91.3724 102.548 91.872C102.385 92.3716 102.519 92.9102 102.895 93.2752L105.446 95.7165ZM107.427 91.8649C107.873 91.8011 108.26 91.5212 108.458 91.1172L109.95 87.992L111.491 91.1172C111.69 91.5247 112.076 91.8047 112.522 91.8684L115.913 92.361L113.458 94.7562C113.135 95.0716 112.99 95.5251 113.068 95.968L113.645 99.3448C113.206 99.1748 110.428 97.4881 109.975 97.5909C109.503 97.4917 106.761 99.1642 106.304 99.3448L106.881 95.968C106.959 95.5251 106.81 95.0715 106.488 94.7527L104.036 92.361L107.427 91.8649ZM113.564 58.7352H136.256C137.014 58.7352 137.631 58.1186 137.631 57.3604V49.0265C137.631 48.2682 137.014 47.6517 136.256 47.6517H113.564C112.806 47.6517 112.189 48.2682 112.189 49.0265V57.3604C112.189 58.1186 112.806 58.7352 113.564 58.7352ZM113.645 49.1082H136.178V57.2791H113.645V49.1082ZM138.47 65.0957H148.877C149.827 65.0992 149.83 66.5485 148.877 66.552H138.47C137.52 66.5485 137.517 65.0992 138.47 65.0957ZM148.877 73.8017H130.898C129.952 73.7981 129.942 72.3489 130.898 72.3453H148.877C149.823 72.3489 149.834 73.7946 148.877 73.8017ZM123.322 73.8017H119.29C118.34 73.7981 118.337 72.3489 119.29 72.3453H123.322C124.272 72.3489 124.276 73.7946 123.322 73.8017ZM130.898 66.552H112.916C111.97 66.5485 111.959 65.0992 112.916 65.0957H130.894C131.844 65.0992 131.851 66.5449 130.898 66.552ZM148.877 81.0474H140.153C139.752 81.0474 139.427 80.7214 139.427 80.321C139.427 79.9206 139.753 79.5946 140.153 79.5946H148.877C149.826 79.5946 149.83 81.0438 148.877 81.0474ZM135.259 81.0474H126.536C126.135 81.0474 125.809 80.7214 125.809 80.321C125.809 79.9206 126.135 79.5946 126.536 79.5946H135.259C136.209 79.5946 136.212 81.0438 135.259 81.0474ZM148.877 95.5463H144.331C143.381 95.5428 143.377 94.0935 144.331 94.09H148.877C149.826 94.0935 149.83 95.5428 148.877 95.5463ZM138.47 95.5463H134.108C133.158 95.5428 133.154 94.0935 134.108 94.09H138.47C139.419 94.0935 139.423 95.5428 138.47 95.5463ZM148.877 88.2967H129.846C128.9 88.2931 128.889 86.8439 129.846 86.8403H148.877C149.823 86.8439 149.833 88.2931 148.877 88.2967ZM184.625 50.0536C178.385 53.2675 172.932 56.7647 168.404 60.3609V53.4834C168.404 51.1305 166.49 49.2172 164.137 49.2172H153.33L144.943 40.8301C144.809 40.6849 144.631 40.6282 144.458 40.6246C144.451 40.6246 144.44 40.6211 144.433 40.6211H108.727C106.374 40.6211 104.461 42.5345 104.461 44.8872V80.7383C99.8511 82.6021 96.1731 86.9037 95.8932 93.6752C95.8117 97.6827 97.6613 101.428 100.531 104.051V123.053C100.531 123.323 100.68 123.571 100.918 123.698C101.155 123.826 101.446 123.808 101.669 123.656L109.978 118.015L118.287 123.656C118.411 123.741 118.553 123.78 118.695 123.78C119.084 123.787 119.432 123.443 119.421 123.053V120.07H164.138C166.491 120.07 168.404 118.156 168.404 115.804V91.1352C174.619 89.4131 177.053 84.658 177.762 76.6924C178.573 68.7979 181.415 58.4944 185.599 51.0426C185.95 50.4367 185.227 49.7206 184.625 50.0536ZM145.156 43.1051L156.736 54.6851H147.966C146.417 54.6851 145.156 53.4237 145.156 51.8752L145.156 43.1051ZM164.141 50.6737C165.69 50.6737 166.951 51.9351 166.951 53.4836V61.5482C163.868 64.1278 161.275 66.7463 159.23 69.3329L159.227 55.4181C159.227 55.3933 159.216 55.372 159.212 55.3508C159.209 55.2905 159.198 55.2338 159.177 55.1736C159.17 55.1559 159.166 55.1417 159.163 55.124C159.127 55.0425 159.081 54.9646 159.01 54.8972L154.787 50.6736L164.141 50.6737ZM105.917 44.8875C105.917 43.3391 107.178 42.0776 108.727 42.0776H143.703V51.8751C143.703 54.2279 145.617 56.1412 147.969 56.1412H157.774V71.2997C155.967 73.9323 154.748 76.5119 154.185 78.9709C153.721 80.9127 153.689 82.78 154.128 84.573C154.156 84.697 154.178 84.8245 154.213 84.945C154.22 84.9734 154.231 85.0017 154.241 85.03C154.266 85.1186 154.298 85.2072 154.326 85.2958C154.426 85.6147 154.543 85.9265 154.674 86.2384C154.677 86.249 154.681 86.2561 154.684 86.2667C155.329 87.7797 156.346 89.2041 157.728 90.5222C157.742 90.5364 157.756 90.5541 157.771 90.5683V93.155C156.569 96.5424 155.51 99.9794 154.606 103.462C154.479 103.916 154.844 104.376 155.311 104.373C155.634 104.373 155.932 104.157 156.017 103.827C156.545 101.79 157.133 99.7559 157.771 97.7398V107.208C157.771 108.756 156.509 110.018 154.961 110.018H119.424V104.115C122.266 101.5 123.683 98.3533 123.985 95.1962C123.995 95.097 123.999 94.9978 124.009 94.8951C124.034 94.5549 124.048 94.2112 124.045 93.871C124.045 93.8037 124.052 93.7399 124.052 93.6726C124.052 93.6372 124.045 93.6053 124.045 93.5699C124.02 92.5813 123.893 91.6033 123.666 90.6501C122.702 86.189 120.08 83.0922 116.802 81.3488C113.783 79.6125 110.024 78.9854 105.917 80.1866L105.917 44.8875ZM105.382 81.8941C105.403 81.887 105.428 81.8941 105.449 81.887C106.537 81.4725 107.66 81.2103 108.804 81.104H108.819C109.173 81.0721 109.527 81.0579 109.885 81.0544C109.914 81.0544 109.942 81.0508 109.974 81.0508C110.7 81.0508 111.402 81.1075 112.075 81.2174C119.923 82.4823 124.243 90.7346 121.96 97.6938C121.294 99.7171 120.075 101.634 118.215 103.236C116.511 104.756 114.406 105.709 112.202 106.088C108.528 106.722 104.577 105.773 101.732 103.243C94.1808 96.7477 97.0832 85.1043 105.382 81.8941ZM117.964 121.682L110.704 116.753V111.941C110.704 111.541 110.378 111.215 109.977 111.215C109.577 111.215 109.251 111.541 109.251 111.941V116.753L101.991 121.682L101.987 105.269C102.763 105.818 103.596 106.268 104.464 106.633C104.521 106.658 104.577 106.683 104.634 106.708C104.829 106.786 105.027 106.856 105.229 106.927C106.732 107.48 108.326 107.785 109.974 107.753C111.618 107.785 113.216 107.48 114.715 106.927C114.917 106.856 115.115 106.786 115.314 106.704C115.37 106.679 115.427 106.654 115.484 106.63C116.352 106.265 117.188 105.815 117.964 105.265L117.964 121.682ZM166.947 91.493V115.804C166.947 117.352 165.686 118.614 164.137 118.614H119.424V111.474H154.96C157.313 111.474 159.226 109.561 159.226 107.208V93.4283C159.425 92.872 159.623 92.3192 159.828 91.7665C160.367 91.8409 160.92 91.848 161.458 91.8515C161.625 91.8586 161.777 91.8515 161.94 91.8551C162.171 91.8586 162.401 91.8621 162.617 91.8763C162.72 91.8763 162.812 91.8657 162.915 91.8621C163.45 91.8551 163.967 91.8303 164.477 91.7948C164.499 91.7948 164.523 91.7913 164.548 91.7913C165.087 91.7523 165.604 91.6921 166.107 91.6141C166.21 91.5999 166.313 91.5858 166.416 91.568C166.593 91.5468 166.78 91.5284 166.947 91.493ZM176.319 76.4978C175.642 81.4798 175.196 84.7715 172.506 87.2877C171.181 88.5243 169.47 89.3924 167.397 89.8991C167.057 89.9842 166.688 90.0444 166.323 90.1082C166.104 90.1472 165.895 90.1932 165.668 90.2251C165.285 90.2783 164.874 90.3066 164.47 90.3385C164.25 90.3562 164.045 90.3846 163.822 90.3952C163.297 90.42 162.745 90.42 162.185 90.4094C162.061 90.4058 161.944 90.4129 161.82 90.4094C161.359 90.3952 160.87 90.3527 160.388 90.3173C160.859 89.1019 161.352 87.8936 161.866 86.6924C163.882 86.1715 170.515 84.0668 172.627 79.1203C172.981 78.2345 171.631 77.6994 171.273 78.5782C169.845 82.1286 165.058 84.1341 162.613 84.949C164.356 81.023 166.312 77.1927 168.46 73.4616C168.488 73.4652 168.513 73.4758 168.545 73.4758C168.796 73.5218 176.251 70.9565 174.324 69.2132C173.98 69.0006 173.534 69.1104 173.321 69.4506C172.906 70.1238 171.128 70.999 169.53 71.6191C170.734 69.6064 171.996 67.6293 173.314 65.6875C173.853 64.8832 172.634 64.1001 172.109 64.869C168.375 70.3647 165.097 76.1478 162.295 82.1464C161.784 80.6404 161.38 77.7987 163.131 73.6814C163.287 73.3129 163.117 72.8841 162.745 72.7282C162.376 72.5688 161.947 72.7424 161.788 73.1144C159.506 78.5499 160.505 82.423 161.487 83.907C160.626 85.8275 159.814 87.7693 159.052 89.7288C156.427 87.2413 155.265 84.4669 155.307 81.5295C155.442 78.631 156.714 75.3818 159.095 71.9623C160.413 70.0702 162.043 68.1639 163.946 66.2647C168.984 61.3359 175.801 56.5489 183.25 52.4243C179.614 59.3834 177.042 69.4289 176.319 76.4978Z" stroke="#78A22F" stroke-width="1.08851" mask="url(#path-2-outside-1_1364_6100)"></path>
  </g>
  <path d="M127.157 193.387C124.603 193.387 122.281 192.903 120.191 191.936C118.101 190.93 116.418 189.536 115.14 187.756C113.863 185.937 113.128 183.886 112.934 181.602H119.727C120.036 183.112 120.849 184.35 122.165 185.318C123.481 186.285 125.145 186.769 127.157 186.769C129.325 186.769 131.105 186.111 132.498 184.795C133.93 183.441 134.646 181.699 134.646 179.57C134.646 177.48 133.892 175.855 132.382 174.694C130.873 173.533 128.918 172.952 126.519 172.952C125.087 172.952 123.655 173.146 122.223 173.533V169.063L131.744 158.671H114.037V152.169H141.323V156.697L130.409 168.25C132.498 168.25 134.395 168.753 136.098 169.759C137.801 170.727 139.136 172.101 140.104 173.881C141.11 175.623 141.613 177.577 141.613 179.745C141.613 182.376 140.994 184.737 139.755 186.827C138.517 188.878 136.794 190.484 134.588 191.646C132.421 192.807 129.944 193.387 127.157 193.387Z" fill="#4F6D5D"></path>
  <path d="M68.6774 221.533V223.5H64.7975V225.246H68.2617V227.214H64.7975V229.265H68.6774V231.232H62.7467V221.533H68.6774Z" fill="#4F6D5D"></path>
  <path d="M71.8151 225.316C72.0276 224.983 72.2908 224.729 72.6049 224.553C72.919 224.378 73.27 224.29 73.658 224.29C74.5264 224.29 75.2054 224.567 75.695 225.122C76.1938 225.667 76.4433 226.42 76.4433 227.38V231.232H74.4894V227.63C74.4894 227.186 74.3647 226.831 74.1153 226.563C73.8751 226.295 73.5564 226.161 73.1592 226.161C72.7527 226.161 72.4248 226.295 72.1754 226.563C71.9352 226.831 71.8151 227.186 71.8151 227.63V231.232H69.8613V224.429H71.8151V225.316Z" fill="#4F6D5D"></path>
  <path d="M81.2766 231.232H79.6138L76.8008 224.429H78.9209L80.4452 228.572L81.9555 224.429H84.0895L81.2766 231.232Z" fill="#4F6D5D"></path>
  <path d="M86.8086 224.429V231.232H84.8548V224.429H86.8086ZM85.8247 223.5C85.5014 223.5 85.2197 223.385 84.9795 223.154C84.7485 222.923 84.633 222.646 84.633 222.323C84.633 221.999 84.7485 221.722 84.9795 221.491C85.2197 221.251 85.5014 221.131 85.8247 221.131C86.1573 221.131 86.4391 221.251 86.67 221.491C86.9009 221.722 87.0164 221.999 87.0164 222.323C87.0164 222.646 86.9009 222.923 86.67 223.154C86.4391 223.385 86.1573 223.5 85.8247 223.5Z" fill="#4F6D5D"></path>
  <path d="M88.2378 224.429H90.1916V225.232C90.3856 224.937 90.635 224.706 90.9398 224.54C91.2447 224.373 91.5819 224.29 91.9514 224.29C92.0992 224.29 92.3117 224.318 92.5888 224.373V226.147C92.3301 226.082 92.0992 226.05 91.896 226.05C91.3971 226.05 90.986 226.207 90.6627 226.521C90.3486 226.826 90.1916 227.279 90.1916 227.879V231.232H88.2378V224.429Z" fill="#4F6D5D"></path>
  <path d="M96.4185 224.29C97.0744 224.29 97.6702 224.447 98.206 224.761C98.751 225.066 99.176 225.491 99.4808 226.036C99.7949 226.572 99.952 227.172 99.952 227.838C99.952 228.503 99.7949 229.103 99.4808 229.639C99.176 230.175 98.751 230.6 98.206 230.914C97.6702 231.219 97.0744 231.371 96.4185 231.371C95.7533 231.371 95.1529 231.219 94.6171 230.914C94.0813 230.6 93.6563 230.175 93.3423 229.639C93.0374 229.103 92.885 228.503 92.885 227.838C92.885 227.172 93.0374 226.572 93.3423 226.036C93.6563 225.491 94.0813 225.066 94.6171 224.761C95.1529 224.447 95.7533 224.29 96.4185 224.29ZM96.4185 226.161C95.9566 226.161 95.5686 226.323 95.2545 226.646C94.9404 226.96 94.7834 227.357 94.7834 227.838C94.7834 228.309 94.9404 228.706 95.2545 229.029C95.5686 229.343 95.9566 229.5 96.4185 229.5C96.8804 229.5 97.2637 229.343 97.5686 229.029C97.8827 228.706 98.0397 228.309 98.0397 227.838C98.0397 227.357 97.8827 226.96 97.5686 226.646C97.2637 226.323 96.8804 226.161 96.4185 226.161Z" fill="#4F6D5D"></path>
  <path d="M103.006 225.316C103.219 224.983 103.482 224.729 103.796 224.553C104.11 224.378 104.461 224.29 104.849 224.29C105.718 224.29 106.397 224.567 106.886 225.122C107.385 225.667 107.635 226.42 107.635 227.38V231.232H105.681V227.63C105.681 227.186 105.556 226.831 105.307 226.563C105.066 226.295 104.748 226.161 104.351 226.161C103.944 226.161 103.616 226.295 103.367 226.563C103.126 226.831 103.006 227.186 103.006 227.63V231.232H101.053V224.429H103.006V225.316Z" fill="#4F6D5D"></path>
  <path d="M119.638 231.232H117.684V227.463C117.684 227.066 117.578 226.752 117.365 226.521C117.153 226.281 116.871 226.161 116.52 226.161C116.169 226.161 115.873 226.276 115.633 226.507C115.402 226.729 115.287 227.048 115.287 227.463V231.232H113.333V227.463C113.333 227.066 113.227 226.752 113.014 226.521C112.802 226.281 112.511 226.161 112.141 226.161C111.809 226.161 111.527 226.276 111.296 226.507C111.065 226.729 110.95 227.048 110.95 227.463V231.232H108.996V224.429H110.95V225.232C111.181 224.9 111.472 224.66 111.823 224.512C112.174 224.364 112.529 224.29 112.89 224.29C113.333 224.29 113.712 224.373 114.026 224.54C114.349 224.697 114.613 224.946 114.816 225.288C115.019 224.992 115.305 224.752 115.675 224.567C116.044 224.383 116.442 224.29 116.867 224.29C117.402 224.29 117.878 224.406 118.294 224.637C118.719 224.858 119.047 225.172 119.278 225.579C119.518 225.985 119.638 226.461 119.638 227.006V231.232Z" fill="#4F6D5D"></path>
  <path d="M124.227 231.371C123.572 231.371 122.971 231.214 122.426 230.9C121.881 230.586 121.451 230.156 121.137 229.611C120.823 229.057 120.666 228.452 120.666 227.796C120.666 227.149 120.819 226.558 121.124 226.022C121.438 225.487 121.863 225.066 122.398 224.761C122.943 224.447 123.544 224.29 124.2 224.29C124.809 224.29 125.368 224.438 125.876 224.734C126.394 225.02 126.8 225.417 127.096 225.925C127.401 226.433 127.553 226.997 127.553 227.616C127.553 227.874 127.539 228.115 127.511 228.336H122.481C122.555 228.771 122.745 229.112 123.05 229.362C123.364 229.611 123.747 229.736 124.2 229.736C124.56 229.736 124.856 229.667 125.087 229.528C125.327 229.38 125.479 229.186 125.544 228.946H127.456C127.345 229.685 126.994 230.276 126.403 230.72C125.812 231.154 125.087 231.371 124.227 231.371ZM125.502 227.034C125.465 226.701 125.313 226.429 125.045 226.216C124.786 226.004 124.472 225.898 124.103 225.898C123.724 225.898 123.401 225.995 123.133 226.189C122.865 226.373 122.675 226.655 122.565 227.034H125.502Z" fill="#4F6D5D"></path>
  <path d="M130.598 225.316C130.811 224.983 131.074 224.729 131.388 224.553C131.702 224.378 132.053 224.29 132.441 224.29C133.31 224.29 133.988 224.567 134.478 225.122C134.977 225.667 135.226 226.42 135.226 227.38V231.232H133.273V227.63C133.273 227.186 133.148 226.831 132.898 226.563C132.658 226.295 132.34 226.161 131.942 226.161C131.536 226.161 131.208 226.295 130.958 226.563C130.718 226.831 130.598 227.186 130.598 227.63V231.232H128.644V224.429H130.598V225.316Z" fill="#4F6D5D"></path>
  <path d="M139.833 231.329C139.02 231.329 138.369 231.075 137.879 230.567C137.399 230.059 137.159 229.357 137.159 228.461V226.286H135.898V224.429H137.159V222.641H139.113V224.429H140.789V226.286H139.113V228.433C139.113 228.784 139.219 229.048 139.431 229.223C139.644 229.399 139.93 229.487 140.29 229.487C140.484 229.487 140.651 229.468 140.789 229.431V231.232C140.54 231.297 140.221 231.329 139.833 231.329Z" fill="#4F6D5D"></path>
  <path d="M148.645 231.232H146.691V230.276C146.451 230.637 146.151 230.909 145.79 231.094C145.43 231.279 145.014 231.371 144.543 231.371C143.97 231.371 143.439 231.214 142.95 230.9C142.469 230.577 142.086 230.142 141.799 229.597C141.522 229.052 141.384 228.461 141.384 227.824C141.384 227.186 141.522 226.595 141.799 226.05C142.086 225.505 142.469 225.075 142.95 224.761C143.439 224.447 143.97 224.29 144.543 224.29C145.014 224.29 145.43 224.383 145.79 224.567C146.151 224.752 146.451 225.025 146.691 225.385V224.429H148.645V231.232ZM144.987 229.5C145.467 229.5 145.869 229.343 146.192 229.029C146.525 228.706 146.691 228.304 146.691 227.824C146.691 227.353 146.525 226.955 146.192 226.632C145.869 226.309 145.467 226.147 144.987 226.147C144.515 226.147 144.114 226.313 143.781 226.646C143.458 226.969 143.296 227.362 143.296 227.824C143.296 228.295 143.458 228.692 143.781 229.015C144.114 229.339 144.515 229.5 144.987 229.5Z" fill="#4F6D5D"></path>
  <path d="M150.079 221.533H152.033V231.232H150.079V221.533Z" fill="#4F6D5D"></path>
  <path d="M160.318 225.814C160.669 225.814 160.96 225.704 161.191 225.482C161.431 225.26 161.551 224.978 161.551 224.637C161.551 224.313 161.431 224.045 161.191 223.833C160.96 223.611 160.669 223.5 160.318 223.5H158.683V225.814H160.318ZM160.318 221.533C160.946 221.533 161.509 221.667 162.008 221.935C162.516 222.202 162.909 222.572 163.186 223.043C163.473 223.514 163.616 224.045 163.616 224.637C163.616 225.237 163.473 225.778 163.186 226.258C162.909 226.729 162.516 227.103 162.008 227.38C161.509 227.648 160.946 227.782 160.318 227.782H158.683V231.232H156.632V221.533H160.318Z" fill="#4F6D5D"></path>
  <path d="M164.491 224.429H166.445V225.232C166.639 224.937 166.888 224.706 167.193 224.54C167.498 224.373 167.835 224.29 168.204 224.29C168.352 224.29 168.565 224.318 168.842 224.373V226.147C168.583 226.082 168.352 226.05 168.149 226.05C167.65 226.05 167.239 226.207 166.916 226.521C166.602 226.826 166.445 227.279 166.445 227.879V231.232H164.491V224.429Z" fill="#4F6D5D"></path>
  <path d="M172.671 224.29C173.327 224.29 173.923 224.447 174.459 224.761C175.004 225.066 175.429 225.491 175.734 226.036C176.048 226.572 176.205 227.172 176.205 227.838C176.205 228.503 176.048 229.103 175.734 229.639C175.429 230.175 175.004 230.6 174.459 230.914C173.923 231.219 173.327 231.371 172.671 231.371C172.006 231.371 171.406 231.219 170.87 230.914C170.334 230.6 169.909 230.175 169.595 229.639C169.29 229.103 169.138 228.503 169.138 227.838C169.138 227.172 169.29 226.572 169.595 226.036C169.909 225.491 170.334 225.066 170.87 224.761C171.406 224.447 172.006 224.29 172.671 224.29ZM172.671 226.161C172.21 226.161 171.822 226.323 171.507 226.646C171.193 226.96 171.036 227.357 171.036 227.838C171.036 228.309 171.193 228.706 171.507 229.029C171.822 229.343 172.21 229.5 172.671 229.5C173.133 229.5 173.517 229.343 173.822 229.029C174.136 228.706 174.293 228.309 174.293 227.838C174.293 227.357 174.136 226.96 173.822 226.646C173.517 226.323 173.133 226.161 172.671 226.161Z" fill="#4F6D5D"></path>
  <path d="M180.132 231.371C179.56 231.371 179.028 231.214 178.539 230.9C178.058 230.577 177.675 230.142 177.389 229.597C177.112 229.052 176.973 228.461 176.973 227.824C176.973 227.186 177.112 226.595 177.389 226.05C177.675 225.505 178.058 225.075 178.539 224.761C179.028 224.447 179.56 224.29 180.132 224.29C180.603 224.29 181.019 224.383 181.379 224.567C181.74 224.752 182.04 225.025 182.28 225.385V221.533H184.234V231.232H182.28V230.276C182.04 230.637 181.74 230.909 181.379 231.094C181.019 231.279 180.603 231.371 180.132 231.371ZM180.576 229.5C181.065 229.5 181.472 229.343 181.795 229.029C182.118 228.706 182.28 228.304 182.28 227.824C182.28 227.353 182.114 226.955 181.781 226.632C181.458 226.309 181.056 226.147 180.576 226.147C180.105 226.147 179.703 226.313 179.37 226.646C179.047 226.969 178.885 227.362 178.885 227.824C178.885 228.295 179.047 228.692 179.37 229.015C179.703 229.339 180.105 229.5 180.576 229.5Z" fill="#4F6D5D"></path>
  <path d="M190.213 230.346C189.992 230.678 189.724 230.932 189.41 231.108C189.105 231.283 188.758 231.371 188.37 231.371C187.502 231.371 186.818 231.094 186.32 230.54C185.821 229.985 185.571 229.228 185.571 228.267V224.429H187.525V228.018C187.525 228.47 187.645 228.831 187.885 229.099C188.135 229.366 188.463 229.5 188.869 229.5C189.276 229.5 189.599 229.366 189.839 229.099C190.089 228.831 190.213 228.47 190.213 228.018V224.429H192.167V231.232H190.213V230.346Z" fill="#4F6D5D"></path>
  <path d="M196.799 231.371C196.143 231.371 195.547 231.219 195.011 230.914C194.475 230.6 194.05 230.175 193.736 229.639C193.432 229.103 193.279 228.503 193.279 227.838C193.279 227.172 193.432 226.572 193.736 226.036C194.05 225.491 194.475 225.066 195.011 224.761C195.547 224.447 196.143 224.29 196.799 224.29C197.362 224.29 197.889 224.41 198.378 224.65C198.868 224.881 199.27 225.205 199.584 225.62C199.898 226.036 200.083 226.503 200.138 227.02H198.143C198.069 226.771 197.907 226.567 197.658 226.41C197.408 226.244 197.122 226.161 196.799 226.161C196.337 226.161 195.953 226.323 195.649 226.646C195.344 226.96 195.191 227.357 195.191 227.838C195.191 228.309 195.344 228.706 195.649 229.029C195.963 229.343 196.346 229.5 196.799 229.5C197.131 229.5 197.422 229.417 197.672 229.251C197.93 229.075 198.097 228.854 198.171 228.586H200.138C200.092 229.112 199.912 229.588 199.598 230.013C199.293 230.438 198.891 230.771 198.392 231.011C197.903 231.251 197.371 231.371 196.799 231.371Z" fill="#4F6D5D"></path>
  <path d="M204.462 231.329C203.649 231.329 202.998 231.075 202.508 230.567C202.028 230.059 201.788 229.357 201.788 228.461V226.286H200.527V224.429H201.788V222.641H203.741V224.429H205.418V226.286H203.741V228.433C203.741 228.784 203.848 229.048 204.06 229.223C204.273 229.399 204.559 229.487 204.919 229.487C205.113 229.487 205.28 229.468 205.418 229.431V231.232C205.169 231.297 204.85 231.329 204.462 231.329Z" fill="#4F6D5D"></path>
  <path d="M64.3334 238.161C65.248 238.161 66.0794 238.369 66.8277 238.784C67.5759 239.2 68.1625 239.777 68.5875 240.517C69.0217 241.246 69.2387 242.064 69.2387 242.969C69.2387 243.893 69.0217 244.729 68.5875 245.477C68.1625 246.216 67.5759 246.798 66.8277 247.223C66.0794 247.648 65.248 247.861 64.3334 247.861H61.0078V238.161H64.3334ZM64.472 245.893C64.9801 245.893 65.4327 245.768 65.83 245.519C66.2364 245.26 66.5551 244.909 66.7861 244.466C67.017 244.022 67.1325 243.523 67.1325 242.969C67.1325 242.424 67.017 241.939 66.7861 241.514C66.5644 241.08 66.2503 240.743 65.8438 240.503C65.4374 240.253 64.9801 240.129 64.472 240.129H63.0586V245.893H64.472Z" fill="#4F6D5D"></path>
  <path d="M73.5703 247.999C72.9144 247.999 72.3139 247.842 71.7689 247.528C71.2239 247.214 70.7943 246.784 70.4802 246.239C70.1661 245.685 70.0091 245.08 70.0091 244.424C70.0091 243.777 70.1615 243.186 70.4664 242.65C70.7805 242.115 71.2054 241.694 71.7412 241.389C72.2862 241.075 72.8867 240.918 73.5426 240.918C74.1523 240.918 74.7112 241.066 75.2193 241.362C75.7366 241.648 76.143 242.045 76.4387 242.553C76.7435 243.062 76.8959 243.625 76.8959 244.244C76.8959 244.503 76.8821 244.743 76.8544 244.965H71.8243C71.8982 245.399 72.0876 245.741 72.3925 245.99C72.7066 246.239 73.0899 246.364 73.5426 246.364C73.9029 246.364 74.1985 246.295 74.4294 246.156C74.6696 246.008 74.822 245.814 74.8867 245.574H76.7989C76.6881 246.313 76.337 246.904 75.7458 247.348C75.1546 247.782 74.4294 247.999 73.5703 247.999ZM74.8451 243.662C74.8082 243.329 74.6557 243.057 74.3878 242.844C74.1292 242.632 73.8151 242.526 73.4456 242.526C73.0668 242.526 72.7435 242.623 72.4756 242.817C72.2077 243.001 72.0183 243.283 71.9075 243.662H74.8451Z" fill="#4F6D5D"></path>
  <path d="M81.1743 247.999C80.5184 247.999 79.9226 247.847 79.3868 247.542C78.851 247.228 78.4261 246.803 78.112 246.267C77.8071 245.731 77.6547 245.131 77.6547 244.466C77.6547 243.801 77.8071 243.2 78.112 242.664C78.4261 242.119 78.851 241.694 79.3868 241.389C79.9226 241.075 80.5184 240.918 81.1743 240.918C81.7378 240.918 82.2644 241.038 82.754 241.279C83.2436 241.51 83.6454 241.833 83.9595 242.249C84.2736 242.664 84.4584 243.131 84.5138 243.648H82.5184C82.4445 243.399 82.2829 243.195 82.0334 243.038C81.784 242.872 81.4976 242.789 81.1743 242.789C80.7124 242.789 80.3291 242.951 80.0242 243.274C79.7194 243.588 79.5669 243.985 79.5669 244.466C79.5669 244.937 79.7194 245.334 80.0242 245.657C80.3383 245.971 80.7217 246.129 81.1743 246.129C81.5069 246.129 81.7979 246.045 82.0473 245.879C82.306 245.704 82.4722 245.482 82.5461 245.214H84.5138C84.4676 245.741 84.2875 246.216 83.9734 246.641C83.6685 247.066 83.2667 247.399 82.7679 247.639C82.2782 247.879 81.7471 247.999 81.1743 247.999Z" fill="#4F6D5D"></path>
  <path d="M85.5652 238.161H87.519V247.861H85.5652V238.161Z" fill="#4F6D5D"></path>
  <path d="M95.8766 247.861H93.9228V246.904C93.6826 247.265 93.3824 247.537 93.0221 247.722C92.6618 247.907 92.2461 247.999 91.775 247.999C91.2022 247.999 90.6711 247.842 90.1815 247.528C89.7011 247.205 89.3177 246.771 89.0313 246.226C88.7542 245.68 88.6156 245.089 88.6156 244.452C88.6156 243.814 88.7542 243.223 89.0313 242.678C89.3177 242.133 89.7011 241.704 90.1815 241.389C90.6711 241.075 91.2022 240.918 91.775 240.918C92.2461 240.918 92.6618 241.011 93.0221 241.195C93.3824 241.38 93.6826 241.653 93.9228 242.013V241.057H95.8766V247.861ZM92.2184 246.129C92.6988 246.129 93.1006 245.971 93.4239 245.657C93.7565 245.334 93.9228 244.932 93.9228 244.452C93.9228 243.981 93.7565 243.583 93.4239 243.26C93.1006 242.937 92.6988 242.775 92.2184 242.775C91.7473 242.775 91.3454 242.941 91.0129 243.274C90.6895 243.597 90.5279 243.99 90.5279 244.452C90.5279 244.923 90.6895 245.32 91.0129 245.644C91.3454 245.967 91.7473 246.129 92.2184 246.129Z" fill="#4F6D5D"></path>
  <path d="M97.311 241.057H99.2648V241.861C99.4588 241.565 99.7082 241.334 100.013 241.168C100.318 241.001 100.655 240.918 101.025 240.918C101.172 240.918 101.385 240.946 101.662 241.001V242.775C101.403 242.711 101.172 242.678 100.969 242.678C100.47 242.678 100.059 242.835 99.7359 243.149C99.4218 243.454 99.2648 243.907 99.2648 244.507V247.861H97.311V241.057Z" fill="#4F6D5D"></path>
  <path d="M109.219 247.861H107.265V246.904C107.025 247.265 106.725 247.537 106.365 247.722C106.004 247.907 105.589 247.999 105.118 247.999C104.545 247.999 104.014 247.842 103.524 247.528C103.044 247.205 102.66 246.771 102.374 246.226C102.097 245.68 101.958 245.089 101.958 244.452C101.958 243.814 102.097 243.223 102.374 242.678C102.66 242.133 103.044 241.704 103.524 241.389C104.014 241.075 104.545 240.918 105.118 240.918C105.589 240.918 106.004 241.011 106.365 241.195C106.725 241.38 107.025 241.653 107.265 242.013V241.057H109.219V247.861ZM105.561 246.129C106.041 246.129 106.443 245.971 106.767 245.657C107.099 245.334 107.265 244.932 107.265 244.452C107.265 243.981 107.099 243.583 106.767 243.26C106.443 242.937 106.041 242.775 105.561 242.775C105.09 242.775 104.688 242.941 104.355 243.274C104.032 243.597 103.87 243.99 103.87 244.452C103.87 244.923 104.032 245.32 104.355 245.644C104.688 245.967 105.09 246.129 105.561 246.129Z" fill="#4F6D5D"></path>
  <path d="M114.021 247.958C113.208 247.958 112.557 247.704 112.067 247.195C111.587 246.687 111.346 245.985 111.346 245.089V242.914H110.085V241.057H111.346V239.269H113.3V241.057H114.977V242.914H113.3V245.062C113.3 245.413 113.406 245.676 113.619 245.851C113.831 246.027 114.118 246.115 114.478 246.115C114.672 246.115 114.838 246.096 114.977 246.059V247.861C114.727 247.925 114.409 247.958 114.021 247.958Z" fill="#4F6D5D"></path>
  <path d="M118.007 241.057V247.861H116.053V241.057H118.007ZM117.023 240.129C116.699 240.129 116.418 240.013 116.178 239.782C115.947 239.551 115.831 239.274 115.831 238.951C115.831 238.627 115.947 238.35 116.178 238.119C116.418 237.879 116.699 237.759 117.023 237.759C117.355 237.759 117.637 237.879 117.868 238.119C118.099 238.35 118.215 238.627 118.215 238.951C118.215 239.274 118.099 239.551 117.868 239.782C117.637 240.013 117.355 240.129 117.023 240.129Z" fill="#4F6D5D"></path>
  <path d="M122.637 240.918C123.293 240.918 123.888 241.075 124.424 241.389C124.969 241.694 125.394 242.119 125.699 242.664C126.013 243.2 126.17 243.801 126.17 244.466C126.17 245.131 126.013 245.731 125.699 246.267C125.394 246.803 124.969 247.228 124.424 247.542C123.888 247.847 123.293 247.999 122.637 247.999C121.972 247.999 121.371 247.847 120.835 247.542C120.3 247.228 119.875 246.803 119.561 246.267C119.256 245.731 119.103 245.131 119.103 244.466C119.103 243.801 119.256 243.2 119.561 242.664C119.875 242.119 120.3 241.694 120.835 241.389C121.371 241.075 121.972 240.918 122.637 240.918ZM122.637 242.789C122.175 242.789 121.787 242.951 121.473 243.274C121.159 243.588 121.002 243.985 121.002 244.466C121.002 244.937 121.159 245.334 121.473 245.657C121.787 245.971 122.175 246.129 122.637 246.129C123.099 246.129 123.482 245.971 123.787 245.657C124.101 245.334 124.258 244.937 124.258 244.466C124.258 243.985 124.101 243.588 123.787 243.274C123.482 242.951 123.099 242.789 122.637 242.789Z" fill="#4F6D5D"></path>
  <path d="M129.225 241.944C129.437 241.611 129.7 241.357 130.015 241.182C130.329 241.006 130.68 240.918 131.068 240.918C131.936 240.918 132.615 241.195 133.105 241.75C133.603 242.295 133.853 243.048 133.853 244.008V247.861H131.899V244.258C131.899 243.814 131.774 243.459 131.525 243.191C131.285 242.923 130.966 242.789 130.569 242.789C130.162 242.789 129.834 242.923 129.585 243.191C129.345 243.459 129.225 243.814 129.225 244.258V247.861H127.271V241.057H129.225V241.944Z" fill="#4F6D5D"></path>
  <path d="M137.972 247.999C137.076 247.999 136.346 247.782 135.782 247.348C135.228 246.914 134.914 246.313 134.84 245.547H136.711C136.729 245.777 136.849 245.962 137.071 246.101C137.293 246.239 137.565 246.309 137.889 246.309C138.175 246.309 138.397 246.262 138.554 246.17C138.711 246.068 138.789 245.944 138.789 245.796C138.789 245.611 138.683 245.477 138.471 245.394C138.267 245.311 137.944 245.232 137.501 245.159C136.992 245.066 136.568 244.965 136.226 244.854C135.893 244.743 135.602 244.553 135.353 244.286C135.113 244.018 134.992 243.644 134.992 243.163C134.992 242.738 135.099 242.355 135.311 242.013C135.533 241.671 135.847 241.403 136.253 241.209C136.669 241.015 137.15 240.918 137.695 240.918C138.461 240.918 139.122 241.117 139.676 241.514C140.24 241.911 140.563 242.475 140.646 243.205H138.678C138.66 243.029 138.558 242.881 138.374 242.761C138.189 242.632 137.944 242.567 137.639 242.567C137.408 242.567 137.223 242.609 137.085 242.692C136.946 242.766 136.877 242.881 136.877 243.038C136.877 243.205 136.969 243.325 137.154 243.399C137.348 243.473 137.662 243.551 138.096 243.634C138.623 243.727 139.057 243.833 139.399 243.953C139.75 244.064 140.055 244.267 140.313 244.563C140.572 244.858 140.701 245.274 140.701 245.81C140.701 246.216 140.581 246.59 140.341 246.932C140.101 247.265 139.773 247.528 139.357 247.722C138.942 247.907 138.48 247.999 137.972 247.999Z" fill="#4F6D5D"></path>
  <path d="M145.597 240.683C145.597 239.787 145.837 239.085 146.318 238.577C146.807 238.068 147.459 237.814 148.272 237.814C148.632 237.814 148.951 237.851 149.228 237.925V239.727C149.089 239.69 148.923 239.671 148.729 239.671C148.369 239.671 148.082 239.759 147.87 239.935C147.657 240.11 147.551 240.373 147.551 240.724V241.057H149.228V242.914H147.551V247.861H145.597V242.914H144.336V241.057H145.597V240.683Z" fill="#4F6D5D"></path>
  <path d="M153.151 240.918C153.807 240.918 154.403 241.075 154.939 241.389C155.484 241.694 155.909 242.119 156.214 242.664C156.528 243.2 156.685 243.801 156.685 244.466C156.685 245.131 156.528 245.731 156.214 246.267C155.909 246.803 155.484 247.228 154.939 247.542C154.403 247.847 153.807 247.999 153.151 247.999C152.486 247.999 151.886 247.847 151.35 247.542C150.814 247.228 150.389 246.803 150.075 246.267C149.77 245.731 149.618 245.131 149.618 244.466C149.618 243.801 149.77 243.2 150.075 242.664C150.389 242.119 150.814 241.694 151.35 241.389C151.886 241.075 152.486 240.918 153.151 240.918ZM153.151 242.789C152.69 242.789 152.302 242.951 151.988 243.274C151.673 243.588 151.516 243.985 151.516 244.466C151.516 244.937 151.673 245.334 151.988 245.657C152.302 245.971 152.69 246.129 153.151 246.129C153.613 246.129 153.997 245.971 154.302 245.657C154.616 245.334 154.773 244.937 154.773 244.466C154.773 243.985 154.616 243.588 154.302 243.274C153.997 242.951 153.613 242.789 153.151 242.789Z" fill="#4F6D5D"></path>
  <path d="M157.786 241.057H159.739V241.861C159.933 241.565 160.183 241.334 160.488 241.168C160.793 241.001 161.13 240.918 161.499 240.918C161.647 240.918 161.86 240.946 162.137 241.001V242.775C161.878 242.711 161.647 242.678 161.444 242.678C160.945 242.678 160.534 242.835 160.211 243.149C159.896 243.454 159.739 243.907 159.739 244.507V247.861H157.786V241.057Z" fill="#4F6D5D"></path>
  <path d="M170.439 247.999C169.515 247.999 168.679 247.782 167.931 247.348C167.182 246.914 166.591 246.318 166.157 245.56C165.732 244.794 165.519 243.944 165.519 243.011C165.519 242.078 165.732 241.232 166.157 240.475C166.591 239.708 167.182 239.108 167.931 238.674C168.679 238.239 169.515 238.022 170.439 238.022C171.196 238.022 171.907 238.179 172.573 238.493C173.247 238.798 173.806 239.223 174.249 239.768C174.693 240.304 174.956 240.905 175.039 241.57H172.767C172.637 241.117 172.355 240.747 171.921 240.461C171.487 240.165 170.993 240.018 170.439 240.018C169.912 240.018 169.432 240.152 168.997 240.42C168.573 240.678 168.235 241.034 167.986 241.486C167.746 241.939 167.626 242.447 167.626 243.011C167.626 243.574 167.746 244.082 167.986 244.535C168.235 244.988 168.573 245.348 168.997 245.616C169.432 245.874 169.912 246.004 170.439 246.004C170.993 246.004 171.487 245.847 171.921 245.533C172.355 245.219 172.637 244.817 172.767 244.327H175.067C174.947 245.038 174.67 245.676 174.235 246.239C173.81 246.794 173.265 247.228 172.6 247.542C171.935 247.847 171.215 247.999 170.439 247.999Z" fill="#4F6D5D"></path>
  <path d="M183.05 247.861H181.096V246.904C180.856 247.265 180.556 247.537 180.195 247.722C179.835 247.907 179.419 247.999 178.948 247.999C178.376 247.999 177.844 247.842 177.355 247.528C176.874 247.205 176.491 246.771 176.205 246.226C175.928 245.68 175.789 245.089 175.789 244.452C175.789 243.814 175.928 243.223 176.205 242.678C176.491 242.133 176.874 241.704 177.355 241.389C177.844 241.075 178.376 240.918 178.948 240.918C179.419 240.918 179.835 241.011 180.195 241.195C180.556 241.38 180.856 241.653 181.096 242.013V241.057H183.05V247.861ZM179.392 246.129C179.872 246.129 180.274 245.971 180.597 245.657C180.93 245.334 181.096 244.932 181.096 244.452C181.096 243.981 180.93 243.583 180.597 243.26C180.274 242.937 179.872 242.775 179.392 242.775C178.921 242.775 178.519 242.941 178.186 243.274C177.863 243.597 177.701 243.99 177.701 244.452C177.701 244.923 177.863 245.32 178.186 245.644C178.519 245.967 178.921 246.129 179.392 246.129Z" fill="#4F6D5D"></path>
  <path d="M184.484 238.161H186.438V247.861H184.484V238.161Z" fill="#4F6D5D"></path>
  <path d="M198.509 247.861H196.556V244.092C196.556 243.694 196.449 243.38 196.237 243.149C196.024 242.909 195.743 242.789 195.392 242.789C195.041 242.789 194.745 242.904 194.505 243.135C194.274 243.357 194.158 243.676 194.158 244.092V247.861H192.204V244.092C192.204 243.694 192.098 243.38 191.886 243.149C191.673 242.909 191.382 242.789 191.013 242.789C190.68 242.789 190.398 242.904 190.168 243.135C189.937 243.357 189.821 243.676 189.821 244.092V247.861H187.867V241.057H189.821V241.861C190.052 241.528 190.343 241.288 190.694 241.14C191.045 240.992 191.401 240.918 191.761 240.918C192.204 240.918 192.583 241.001 192.897 241.168C193.221 241.325 193.484 241.574 193.687 241.916C193.89 241.62 194.177 241.38 194.546 241.195C194.916 241.011 195.313 240.918 195.738 240.918C196.274 240.918 196.75 241.034 197.165 241.265C197.59 241.486 197.918 241.801 198.149 242.207C198.389 242.614 198.509 243.089 198.509 243.634V247.861Z" fill="#4F6D5D"></path>
  <path d="M206.799 247.861H204.845V246.904C204.605 247.265 204.304 247.537 203.944 247.722C203.584 247.907 203.168 247.999 202.697 247.999C202.124 247.999 201.593 247.842 201.103 247.528C200.623 247.205 200.24 246.771 199.953 246.226C199.676 245.68 199.538 245.089 199.538 244.452C199.538 243.814 199.676 243.223 199.953 242.678C200.24 242.133 200.623 241.704 201.103 241.389C201.593 241.075 202.124 240.918 202.697 240.918C203.168 240.918 203.584 241.011 203.944 241.195C204.304 241.38 204.605 241.653 204.845 242.013V241.057H206.799V247.861ZM203.14 246.129C203.621 246.129 204.023 245.971 204.346 245.657C204.679 245.334 204.845 244.932 204.845 244.452C204.845 243.981 204.679 243.583 204.346 243.26C204.023 242.937 203.621 242.775 203.14 242.775C202.669 242.775 202.267 242.941 201.935 243.274C201.612 243.597 201.45 243.99 201.45 244.452C201.45 244.923 201.612 245.32 201.935 245.644C202.267 245.967 202.669 246.129 203.14 246.129Z" fill="#4F6D5D"></path>
  <defs>
    <clipPath id="clip0_1364_6100">
      <rect width="99.7802" height="88.8951" fill="white" transform="translate(85.9141 40.6211)"></rect>
    </clipPath>
  </defs>
</svg>
