<?xml version="1.0" encoding="UTF-8"?>
<svg xmlns="http://www.w3.org/2000/svg" width="207" height="310" viewBox="0 0 207 310" fill="none">
  <rect width="207" height="310" rx="20" fill="white"></rect>
  <path d="M60.1479 217.18C60.6546 217.18 61.0746 217.02 61.4079 216.7C61.7546 216.38 61.9279 215.973 61.9279 215.48C61.9279 215.013 61.7546 214.627 61.4079 214.32C61.0746 214 60.6546 213.84 60.1479 213.84H57.7879V217.18H60.1479ZM60.1479 211C61.0546 211 61.8679 211.193 62.5879 211.58C63.3212 211.967 63.8879 212.5 64.2879 213.18C64.7012 213.86 64.9079 214.627 64.9079 215.48C64.9079 216.347 64.7012 217.127 64.2879 217.82C63.8879 218.5 63.3212 219.04 62.5879 219.44C61.8679 219.827 61.0546 220.02 60.1479 220.02H57.7879V225H54.8279V211H60.1479ZM66.1709 215.18H68.9909V216.34C69.2709 215.913 69.6309 215.58 70.0709 215.34C70.5109 215.1 70.9975 214.98 71.5309 214.98C71.7442 214.98 72.0509 215.02 72.4509 215.1V217.66C72.0775 217.567 71.7442 217.52 71.4509 217.52C70.7309 217.52 70.1375 217.747 69.6709 218.2C69.2175 218.64 68.9909 219.293 68.9909 220.16V225H66.1709V215.18ZM77.9784 214.98C78.925 214.98 79.785 215.207 80.5584 215.66C81.345 216.1 81.9584 216.713 82.3984 217.5C82.8517 218.273 83.0784 219.14 83.0784 220.1C83.0784 221.06 82.8517 221.927 82.3984 222.7C81.9584 223.473 81.345 224.087 80.5584 224.54C79.785 224.98 78.925 225.2 77.9784 225.2C77.0184 225.2 76.1517 224.98 75.3784 224.54C74.605 224.087 73.9917 223.473 73.5384 222.7C73.0984 221.927 72.8784 221.06 72.8784 220.1C72.8784 219.14 73.0984 218.273 73.5384 217.5C73.9917 216.713 74.605 216.1 75.3784 215.66C76.1517 215.207 77.0184 214.98 77.9784 214.98ZM77.9784 217.68C77.3117 217.68 76.7517 217.913 76.2984 218.38C75.845 218.833 75.6184 219.407 75.6184 220.1C75.6184 220.78 75.845 221.353 76.2984 221.82C76.7517 222.273 77.3117 222.5 77.9784 222.5C78.645 222.5 79.1984 222.273 79.6384 221.82C80.0917 221.353 80.3184 220.78 80.3184 220.1C80.3184 219.407 80.0917 218.833 79.6384 218.38C79.1984 217.913 78.645 217.68 77.9784 217.68ZM88.747 225.2C87.9203 225.2 87.1536 224.973 86.447 224.52C85.7536 224.053 85.2003 223.427 84.787 222.64C84.387 221.853 84.187 221 84.187 220.08C84.187 219.16 84.387 218.307 84.787 217.52C85.2003 216.733 85.7536 216.113 86.447 215.66C87.1536 215.207 87.9203 214.98 88.747 214.98C89.427 214.98 90.027 215.113 90.547 215.38C91.067 215.647 91.5003 216.04 91.847 216.56V211H94.667V225H91.847V223.62C91.5003 224.14 91.067 224.533 90.547 224.8C90.027 225.067 89.427 225.2 88.747 225.2ZM89.387 222.5C90.0936 222.5 90.6803 222.273 91.147 221.82C91.6136 221.353 91.847 220.773 91.847 220.08C91.847 219.4 91.607 218.827 91.127 218.36C90.6603 217.893 90.0803 217.66 89.387 217.66C88.707 217.66 88.127 217.9 87.647 218.38C87.1803 218.847 86.947 219.413 86.947 220.08C86.947 220.76 87.1803 221.333 87.647 221.8C88.127 222.267 88.707 222.5 89.387 222.5ZM103.297 223.72C102.977 224.2 102.591 224.567 102.137 224.82C101.697 225.073 101.197 225.2 100.637 225.2C99.3839 225.2 98.3973 224.8 97.6773 224C96.9573 223.2 96.5973 222.107 96.5973 220.72V215.18H99.4173V220.36C99.4173 221.013 99.5906 221.533 99.9373 221.92C100.297 222.307 100.771 222.5 101.357 222.5C101.944 222.5 102.411 222.307 102.757 221.92C103.117 221.533 103.297 221.013 103.297 220.36V215.18H106.117V225H103.297V223.72ZM112.802 225.2C111.855 225.2 110.995 224.98 110.222 224.54C109.449 224.087 108.835 223.473 108.382 222.7C107.942 221.927 107.722 221.06 107.722 220.1C107.722 219.14 107.942 218.273 108.382 217.5C108.835 216.713 109.449 216.1 110.222 215.66C110.995 215.207 111.855 214.98 112.802 214.98C113.615 214.98 114.375 215.153 115.082 215.5C115.789 215.833 116.369 216.3 116.822 216.9C117.275 217.5 117.542 218.173 117.622 218.92H114.742C114.635 218.56 114.402 218.267 114.042 218.04C113.682 217.8 113.269 217.68 112.802 217.68C112.135 217.68 111.582 217.913 111.142 218.38C110.702 218.833 110.482 219.407 110.482 220.1C110.482 220.78 110.702 221.353 111.142 221.82C111.595 222.273 112.149 222.5 112.802 222.5C113.282 222.5 113.702 222.38 114.062 222.14C114.435 221.887 114.675 221.567 114.782 221.18H117.622C117.555 221.94 117.295 222.627 116.842 223.24C116.402 223.853 115.822 224.333 115.102 224.68C114.395 225.027 113.629 225.2 112.802 225.2ZM123.863 225.14C122.69 225.14 121.75 224.773 121.043 224.04C120.35 223.307 120.003 222.293 120.003 221V217.86H118.183V215.18H120.003V212.6H122.823V215.18H125.243V217.86H122.823V220.96C122.823 221.467 122.976 221.847 123.283 222.1C123.59 222.353 124.003 222.48 124.523 222.48C124.803 222.48 125.043 222.453 125.243 222.4V225C124.883 225.093 124.423 225.14 123.863 225.14ZM129.616 215.18V225H126.796V215.18H129.616ZM128.196 213.84C127.729 213.84 127.323 213.673 126.976 213.34C126.643 213.007 126.476 212.607 126.476 212.14C126.476 211.673 126.643 211.273 126.976 210.94C127.323 210.593 127.729 210.42 128.196 210.42C128.676 210.42 129.083 210.593 129.416 210.94C129.749 211.273 129.916 211.673 129.916 212.14C129.916 212.607 129.749 213.007 129.416 213.34C129.083 213.673 128.676 213.84 128.196 213.84ZM136.299 214.98C137.245 214.98 138.105 215.207 138.879 215.66C139.665 216.1 140.279 216.713 140.719 217.5C141.172 218.273 141.399 219.14 141.399 220.1C141.399 221.06 141.172 221.927 140.719 222.7C140.279 223.473 139.665 224.087 138.879 224.54C138.105 224.98 137.245 225.2 136.299 225.2C135.339 225.2 134.472 224.98 133.699 224.54C132.925 224.087 132.312 223.473 131.859 222.7C131.419 221.927 131.199 221.06 131.199 220.1C131.199 219.14 131.419 218.273 131.859 217.5C132.312 216.713 132.925 216.1 133.699 215.66C134.472 215.207 135.339 214.98 136.299 214.98ZM136.299 217.68C135.632 217.68 135.072 217.913 134.619 218.38C134.165 218.833 133.939 219.407 133.939 220.1C133.939 220.78 134.165 221.353 134.619 221.82C135.072 222.273 135.632 222.5 136.299 222.5C136.965 222.5 137.519 222.273 137.959 221.82C138.412 221.353 138.639 220.78 138.639 220.1C138.639 219.407 138.412 218.833 137.959 218.38C137.519 217.913 136.965 217.68 136.299 217.68ZM145.807 216.46C146.114 215.98 146.494 215.613 146.947 215.36C147.401 215.107 147.907 214.98 148.467 214.98C149.721 214.98 150.701 215.38 151.407 216.18C152.127 216.967 152.487 218.053 152.487 219.44V225H149.667V219.8C149.667 219.16 149.487 218.647 149.127 218.26C148.781 217.873 148.321 217.68 147.747 217.68C147.161 217.68 146.687 217.873 146.327 218.26C145.981 218.647 145.807 219.16 145.807 219.8V225H142.987V215.18H145.807V216.46ZM55.8281 253.04C55.1081 253.04 54.3681 252.933 53.6081 252.72C52.8615 252.507 52.2081 252.127 51.6481 251.58C51.0881 251.033 50.7815 250.3 50.7281 249.38H53.5281C53.5815 249.807 53.8148 250.133 54.2281 250.36C54.6415 250.587 55.1415 250.7 55.7281 250.7C56.3681 250.7 56.9215 250.513 57.3881 250.14C57.8548 249.767 58.0881 249.287 58.0881 248.7V247.34C57.3815 248.38 56.3481 248.9 54.9881 248.9C54.1481 248.9 53.3748 248.68 52.6681 248.24C51.9748 247.787 51.4215 247.18 51.0081 246.42C50.6081 245.66 50.4081 244.833 50.4081 243.94C50.4081 243.033 50.6081 242.2 51.0081 241.44C51.4215 240.68 51.9748 240.08 52.6681 239.64C53.3748 239.2 54.1481 238.98 54.9881 238.98C56.3481 238.98 57.3815 239.493 58.0881 240.52V239.18H60.9081V248.58C60.9081 249.487 60.6815 250.273 60.2281 250.94C59.7881 251.62 59.1815 252.14 58.4081 252.5C57.6481 252.86 56.7881 253.04 55.8281 253.04ZM55.6281 246.3C56.3215 246.3 56.9015 246.073 57.3681 245.62C57.8481 245.167 58.0881 244.607 58.0881 243.94C58.0881 243.26 57.8481 242.693 57.3681 242.24C56.9015 241.787 56.3215 241.56 55.6281 241.56C54.9481 241.56 54.3681 241.793 53.8881 242.26C53.4081 242.713 53.1681 243.273 53.1681 243.94C53.1681 244.593 53.4081 245.153 53.8881 245.62C54.3681 246.073 54.9481 246.3 55.6281 246.3ZM62.9384 239.18H65.7584V240.34C66.0384 239.913 66.3984 239.58 66.8384 239.34C67.2784 239.1 67.7651 238.98 68.2984 238.98C68.5118 238.98 68.8184 239.02 69.2184 239.1V241.66C68.8451 241.567 68.5118 241.52 68.2184 241.52C67.4984 241.52 66.9051 241.747 66.4384 242.2C65.9851 242.64 65.7584 243.293 65.7584 244.16V249H62.9384V239.18ZM74.7459 238.98C75.6926 238.98 76.5526 239.207 77.3259 239.66C78.1126 240.1 78.7259 240.713 79.1659 241.5C79.6193 242.273 79.8459 243.14 79.8459 244.1C79.8459 245.06 79.6193 245.927 79.1659 246.7C78.7259 247.473 78.1126 248.087 77.3259 248.54C76.5526 248.98 75.6926 249.2 74.7459 249.2C73.7859 249.2 72.9193 248.98 72.1459 248.54C71.3726 248.087 70.7593 247.473 70.3059 246.7C69.8659 245.927 69.6459 245.06 69.6459 244.1C69.6459 243.14 69.8659 242.273 70.3059 241.5C70.7593 240.713 71.3726 240.1 72.1459 239.66C72.9193 239.207 73.7859 238.98 74.7459 238.98ZM74.7459 241.68C74.0793 241.68 73.5193 241.913 73.0659 242.38C72.6126 242.833 72.3859 243.407 72.3859 244.1C72.3859 244.78 72.6126 245.353 73.0659 245.82C73.5193 246.273 74.0793 246.5 74.7459 246.5C75.4126 246.5 75.9659 246.273 76.4059 245.82C76.8593 245.353 77.0859 244.78 77.0859 244.1C77.0859 243.407 76.8593 242.833 76.4059 242.38C75.9659 241.913 75.4126 241.68 74.7459 241.68ZM80.1039 239.18H83.1239L84.7639 244.56L86.7239 239.18H88.9239L90.9039 244.56L92.5239 239.18H95.5639L92.0239 249H89.8039L87.8239 243.62L85.8239 249H83.6439L80.1039 239.18ZM101.568 249.14C100.395 249.14 99.4546 248.773 98.748 248.04C98.0546 247.307 97.708 246.293 97.708 245V241.86H95.888V239.18H97.708V236.6H100.528V239.18H102.948V241.86H100.528V244.96C100.528 245.467 100.681 245.847 100.988 246.1C101.295 246.353 101.708 246.48 102.228 246.48C102.508 246.48 102.748 246.453 102.948 246.4V249C102.588 249.093 102.128 249.14 101.568 249.14ZM111.181 243.8C111.181 243.16 111.001 242.647 110.641 242.26C110.294 241.873 109.834 241.68 109.261 241.68C108.674 241.68 108.201 241.873 107.841 242.26C107.494 242.647 107.321 243.16 107.321 243.8V249H104.501V235H107.321V240.46C107.628 239.98 108.008 239.613 108.461 239.36C108.914 239.107 109.421 238.98 109.981 238.98C111.234 238.98 112.214 239.38 112.921 240.18C113.641 240.967 114.001 242.053 114.001 243.44V249H111.181V243.8ZM120.341 239.18H123.161V240.34C123.441 239.913 123.801 239.58 124.241 239.34C124.681 239.1 125.167 238.98 125.701 238.98C125.914 238.98 126.221 239.02 126.621 239.1V241.66C126.247 241.567 125.914 241.52 125.621 241.52C124.901 241.52 124.307 241.747 123.841 242.2C123.387 242.64 123.161 243.293 123.161 244.16V249H120.341V239.18ZM137.528 249H134.708V247.62C134.362 248.14 133.928 248.533 133.408 248.8C132.888 249.067 132.288 249.2 131.608 249.2C130.782 249.2 130.015 248.973 129.308 248.52C128.615 248.053 128.062 247.427 127.648 246.64C127.248 245.853 127.048 245 127.048 244.08C127.048 243.16 127.248 242.307 127.648 241.52C128.062 240.733 128.615 240.113 129.308 239.66C130.015 239.207 130.782 238.98 131.608 238.98C132.288 238.98 132.888 239.113 133.408 239.38C133.928 239.647 134.362 240.04 134.708 240.56V239.18H137.528V249ZM132.248 246.5C132.942 246.5 133.522 246.273 133.988 245.82C134.468 245.353 134.708 244.773 134.708 244.08C134.708 243.4 134.468 242.827 133.988 242.36C133.522 241.893 132.942 241.66 132.248 241.66C131.568 241.66 130.988 241.9 130.508 242.38C130.042 242.847 129.808 243.413 129.808 244.08C129.808 244.76 130.042 245.333 130.508 245.8C130.988 246.267 131.568 246.5 132.248 246.5ZM144.459 249.14C143.285 249.14 142.345 248.773 141.639 248.04C140.945 247.307 140.599 246.293 140.599 245V241.86H138.779V239.18H140.599V236.6H143.419V239.18H145.839V241.86H143.419V244.96C143.419 245.467 143.572 245.847 143.879 246.1C144.185 246.353 144.599 246.48 145.119 246.48C145.399 246.48 145.639 246.453 145.839 246.4V249C145.479 249.093 145.019 249.14 144.459 249.14ZM151.837 249.2C150.89 249.2 150.023 248.973 149.237 248.52C148.45 248.067 147.83 247.447 147.377 246.66C146.923 245.86 146.697 244.987 146.697 244.04C146.697 243.107 146.917 242.253 147.357 241.48C147.81 240.707 148.423 240.1 149.197 239.66C149.983 239.207 150.85 238.98 151.797 238.98C152.677 238.98 153.483 239.193 154.217 239.62C154.963 240.033 155.55 240.607 155.977 241.34C156.417 242.073 156.637 242.887 156.637 243.78C156.637 244.153 156.617 244.5 156.577 244.82H149.317C149.423 245.447 149.697 245.94 150.137 246.3C150.59 246.66 151.143 246.84 151.797 246.84C152.317 246.84 152.743 246.74 153.077 246.54C153.423 246.327 153.643 246.047 153.737 245.7H156.497C156.337 246.767 155.83 247.62 154.977 248.26C154.123 248.887 153.077 249.2 151.837 249.2ZM153.677 242.94C153.623 242.46 153.403 242.067 153.017 241.76C152.643 241.453 152.19 241.3 151.657 241.3C151.11 241.3 150.643 241.44 150.257 241.72C149.87 241.987 149.597 242.393 149.437 242.94H153.677Z" fill="#4F6D5D"></path>
  <path d="M43.3019 272.014L44.6879 273.848L43.9039 274.52L42.4899 272.658L41.0619 274.52L40.2639 273.848L41.6779 272.028L39.5919 271.384L39.9279 270.376L41.9579 271.006V268.92H43.0079V271.006L45.0239 270.376L45.3739 271.384L43.3019 272.014ZM52.5914 269.2V270.768H48.4614V273.302H52.1574V274.87H48.4614V279H46.8234V269.2H52.5914ZM53.492 272.154H55.046V273.106C55.242 272.77 55.4987 272.504 55.816 272.308C56.1427 272.112 56.502 272.014 56.894 272.014C57.0434 272.014 57.258 272.042 57.538 272.098V273.526C57.2767 273.461 57.048 273.428 56.852 273.428C56.3387 273.428 55.9094 273.601 55.564 273.946C55.2187 274.282 55.046 274.749 55.046 275.346V279H53.492V272.154ZM61.4272 272.014C62.0805 272.014 62.6778 272.173 63.2192 272.49C63.7605 272.798 64.1852 273.227 64.4932 273.778C64.8105 274.319 64.9692 274.921 64.9692 275.584C64.9692 276.247 64.8105 276.849 64.4932 277.39C64.1852 277.931 63.7605 278.361 63.2192 278.678C62.6778 278.986 62.0805 279.14 61.4272 279.14C60.7645 279.14 60.1625 278.986 59.6212 278.678C59.0798 278.361 58.6505 277.931 58.3332 277.39C58.0252 276.849 57.8712 276.247 57.8712 275.584C57.8712 274.921 58.0252 274.319 58.3332 273.778C58.6505 273.227 59.0798 272.798 59.6212 272.49C60.1625 272.173 60.7645 272.014 61.4272 272.014ZM61.4272 273.498C61.0538 273.498 60.7085 273.591 60.3912 273.778C60.0832 273.955 59.8358 274.207 59.6492 274.534C59.4718 274.851 59.3832 275.201 59.3832 275.584C59.3832 275.967 59.4718 276.317 59.6492 276.634C59.8358 276.942 60.0832 277.189 60.3912 277.376C60.7085 277.553 61.0538 277.642 61.4272 277.642C61.8005 277.642 62.1412 277.553 62.4492 277.376C62.7572 277.189 62.9998 276.942 63.1772 276.634C63.3638 276.317 63.4572 275.967 63.4572 275.584C63.4572 275.201 63.3638 274.851 63.1772 274.534C62.9998 274.207 62.7525 273.955 62.4352 273.778C62.1272 273.591 61.7912 273.498 61.4272 273.498ZM77.0542 279H75.4722V275.164C75.4722 274.651 75.3369 274.249 75.0662 273.96C74.8049 273.661 74.4456 273.512 73.9882 273.512C73.5682 273.512 73.2089 273.652 72.9102 273.932C72.6116 274.212 72.4622 274.623 72.4622 275.164V279H70.8942V275.164C70.8942 274.651 70.7589 274.249 70.4882 273.96C70.2269 273.661 69.8629 273.512 69.3962 273.512C68.9762 273.512 68.6169 273.652 68.3182 273.932C68.0196 274.203 67.8702 274.613 67.8702 275.164V279H66.3162V272.154H67.8702V273.12C68.1036 272.728 68.4069 272.448 68.7802 272.28C69.1536 272.103 69.5456 272.014 69.9562 272.014C70.9549 272.014 71.6596 272.415 72.0702 273.218C72.2662 272.845 72.5602 272.551 72.9522 272.336C73.3536 272.121 73.7876 272.014 74.2542 272.014C75.0849 272.014 75.7569 272.271 76.2702 272.784C76.7929 273.288 77.0542 273.965 77.0542 274.814V279ZM81.6495 277.81L85.0655 274.436C85.6162 273.895 86.0035 273.461 86.2275 273.134C86.4515 272.807 86.5635 272.471 86.5635 272.126C86.5635 271.697 86.4142 271.347 86.1155 271.076C85.8262 270.796 85.4529 270.656 84.9955 270.656C84.4355 270.656 83.9922 270.833 83.6655 271.188C83.3482 271.543 83.1989 272.019 83.2175 272.616H81.5655C81.5469 271.916 81.6775 271.295 81.9575 270.754C82.2469 270.213 82.6575 269.797 83.1895 269.508C83.7215 269.209 84.3235 269.06 84.9955 269.06C85.6115 269.06 86.1669 269.191 86.6615 269.452C87.1562 269.704 87.5435 270.059 87.8235 270.516C88.1035 270.964 88.2435 271.477 88.2435 272.056C88.2435 272.625 88.0709 273.181 87.7255 273.722C87.3895 274.263 86.8902 274.847 86.2275 275.472L84.2955 277.404H88.3135V279H81.6495V277.81ZM93.2352 279.14C92.4698 279.14 91.8072 278.935 91.2472 278.524C90.6872 278.104 90.2578 277.516 89.9592 276.76C89.6698 276.004 89.5252 275.117 89.5252 274.1C89.5252 273.083 89.6698 272.196 89.9592 271.44C90.2578 270.684 90.6872 270.101 91.2472 269.69C91.8072 269.27 92.4698 269.06 93.2352 269.06C94.0005 269.06 94.6585 269.27 95.2092 269.69C95.7692 270.101 96.1938 270.684 96.4832 271.44C96.7818 272.196 96.9312 273.083 96.9312 274.1C96.9312 275.117 96.7818 276.004 96.4832 276.76C96.1938 277.516 95.7692 278.104 95.2092 278.524C94.6585 278.935 94.0005 279.14 93.2352 279.14ZM93.2352 277.544C93.8792 277.544 94.3738 277.255 94.7192 276.676C95.0738 276.088 95.2512 275.229 95.2512 274.1C95.2512 272.971 95.0738 272.117 94.7192 271.538C94.3738 270.95 93.8792 270.656 93.2352 270.656C92.5912 270.656 92.0918 270.95 91.7372 271.538C91.3918 272.117 91.2192 272.971 91.2192 274.1C91.2192 275.229 91.3918 276.088 91.7372 276.676C92.0918 277.255 92.5912 277.544 93.2352 277.544ZM98.1515 277.81L101.567 274.436C102.118 273.895 102.505 273.461 102.729 273.134C102.953 272.807 103.065 272.471 103.065 272.126C103.065 271.697 102.916 271.347 102.617 271.076C102.328 270.796 101.955 270.656 101.497 270.656C100.937 270.656 100.494 270.833 100.167 271.188C99.8501 271.543 99.7008 272.019 99.7195 272.616H98.0675C98.0488 271.916 98.1795 271.295 98.4595 270.754C98.7488 270.213 99.1595 269.797 99.6915 269.508C100.223 269.209 100.825 269.06 101.497 269.06C102.113 269.06 102.669 269.191 103.163 269.452C103.658 269.704 104.045 270.059 104.325 270.516C104.605 270.964 104.745 271.477 104.745 272.056C104.745 272.625 104.573 273.181 104.227 273.722C103.891 274.263 103.392 274.847 102.729 275.472L100.797 277.404H104.815V279H98.1515V277.81ZM105.999 277.81L109.415 274.436C109.966 273.895 110.353 273.461 110.577 273.134C110.801 272.807 110.913 272.471 110.913 272.126C110.913 271.697 110.764 271.347 110.465 271.076C110.176 270.796 109.802 270.656 109.345 270.656C108.785 270.656 108.342 270.833 108.015 271.188C107.698 271.543 107.548 272.019 107.567 272.616H105.915C105.896 271.916 106.027 271.295 106.307 270.754C106.596 270.213 107.007 269.797 107.539 269.508C108.071 269.209 108.673 269.06 109.345 269.06C109.961 269.06 110.516 269.191 111.011 269.452C111.506 269.704 111.893 270.059 112.173 270.516C112.453 270.964 112.593 271.477 112.593 272.056C112.593 272.625 112.42 273.181 112.075 273.722C111.739 274.263 111.24 274.847 110.577 275.472L108.645 277.404H112.663V279H105.999V277.81ZM120.243 279.084C119.468 279.084 118.852 278.855 118.395 278.398C117.947 277.931 117.723 277.273 117.723 276.424V273.638H116.421V272.154H117.723V270.32H119.291V272.154H121.083V273.638H119.291V276.396C119.291 276.816 119.403 277.124 119.627 277.32C119.86 277.516 120.177 277.614 120.579 277.614C120.775 277.614 120.943 277.595 121.083 277.558V279C120.849 279.056 120.569 279.084 120.243 279.084ZM125.289 272.014C125.942 272.014 126.539 272.173 127.081 272.49C127.622 272.798 128.047 273.227 128.355 273.778C128.672 274.319 128.831 274.921 128.831 275.584C128.831 276.247 128.672 276.849 128.355 277.39C128.047 277.931 127.622 278.361 127.081 278.678C126.539 278.986 125.942 279.14 125.289 279.14C124.626 279.14 124.024 278.986 123.483 278.678C122.941 278.361 122.512 277.931 122.195 277.39C121.887 276.849 121.733 276.247 121.733 275.584C121.733 274.921 121.887 274.319 122.195 273.778C122.512 273.227 122.941 272.798 123.483 272.49C124.024 272.173 124.626 272.014 125.289 272.014ZM125.289 273.498C124.915 273.498 124.57 273.591 124.253 273.778C123.945 273.955 123.697 274.207 123.511 274.534C123.333 274.851 123.245 275.201 123.245 275.584C123.245 275.967 123.333 276.317 123.511 276.634C123.697 276.942 123.945 277.189 124.253 277.376C124.57 277.553 124.915 277.642 125.289 277.642C125.662 277.642 126.003 277.553 126.311 277.376C126.619 277.189 126.861 276.942 127.039 276.634C127.225 276.317 127.319 275.967 127.319 275.584C127.319 275.201 127.225 274.851 127.039 274.534C126.861 274.207 126.614 273.955 126.297 273.778C125.989 273.591 125.653 273.498 125.289 273.498ZM133.138 277.81L136.554 274.436C137.104 273.895 137.492 273.461 137.716 273.134C137.94 272.807 138.052 272.471 138.052 272.126C138.052 271.697 137.902 271.347 137.604 271.076C137.314 270.796 136.941 270.656 136.484 270.656C135.924 270.656 135.48 270.833 135.154 271.188C134.836 271.543 134.687 272.019 134.706 272.616H133.054C133.035 271.916 133.166 271.295 133.446 270.754C133.735 270.213 134.146 269.797 134.678 269.508C135.21 269.209 135.812 269.06 136.484 269.06C137.1 269.06 137.655 269.191 138.15 269.452C138.644 269.704 139.032 270.059 139.312 270.516C139.592 270.964 139.732 271.477 139.732 272.056C139.732 272.625 139.559 273.181 139.214 273.722C138.878 274.263 138.378 274.847 137.716 275.472L135.784 277.404H139.802V279H133.138V277.81ZM144.723 279.14C143.958 279.14 143.295 278.935 142.735 278.524C142.175 278.104 141.746 277.516 141.447 276.76C141.158 276.004 141.013 275.117 141.013 274.1C141.013 273.083 141.158 272.196 141.447 271.44C141.746 270.684 142.175 270.101 142.735 269.69C143.295 269.27 143.958 269.06 144.723 269.06C145.489 269.06 146.147 269.27 146.697 269.69C147.257 270.101 147.682 270.684 147.971 271.44C148.27 272.196 148.419 273.083 148.419 274.1C148.419 275.117 148.27 276.004 147.971 276.76C147.682 277.516 147.257 278.104 146.697 278.524C146.147 278.935 145.489 279.14 144.723 279.14ZM144.723 277.544C145.367 277.544 145.862 277.255 146.207 276.676C146.562 276.088 146.739 275.229 146.739 274.1C146.739 272.971 146.562 272.117 146.207 271.538C145.862 270.95 145.367 270.656 144.723 270.656C144.079 270.656 143.58 270.95 143.225 271.538C142.88 272.117 142.707 272.971 142.707 274.1C142.707 275.229 142.88 276.088 143.225 276.676C143.58 277.255 144.079 277.544 144.723 277.544ZM149.64 277.81L153.056 274.436C153.606 273.895 153.994 273.461 154.218 273.134C154.442 272.807 154.554 272.471 154.554 272.126C154.554 271.697 154.404 271.347 154.106 271.076C153.816 270.796 153.443 270.656 152.986 270.656C152.426 270.656 151.982 270.833 151.656 271.188C151.338 271.543 151.189 272.019 151.208 272.616H149.556C149.537 271.916 149.668 271.295 149.948 270.754C150.237 270.213 150.648 269.797 151.18 269.508C151.712 269.209 152.314 269.06 152.986 269.06C153.602 269.06 154.157 269.191 154.652 269.452C155.146 269.704 155.534 270.059 155.814 270.516C156.094 270.964 156.234 271.477 156.234 272.056C156.234 272.625 156.061 273.181 155.716 273.722C155.38 274.263 154.88 274.847 154.218 275.472L152.286 277.404H156.304V279H149.64V277.81ZM160.735 279.14C160.119 279.14 159.559 279.023 159.055 278.79C158.551 278.547 158.145 278.211 157.837 277.782C157.529 277.343 157.352 276.849 157.305 276.298H158.943C159.018 276.662 159.214 276.961 159.531 277.194C159.849 277.427 160.25 277.544 160.735 277.544C161.258 277.544 161.687 277.385 162.023 277.068C162.369 276.741 162.541 276.321 162.541 275.808C162.541 275.304 162.359 274.912 161.995 274.632C161.631 274.352 161.16 274.212 160.581 274.212C160.236 274.212 159.891 274.259 159.545 274.352V273.274L161.841 270.768H157.571V269.2H164.151V270.292L161.519 273.078C162.023 273.078 162.481 273.199 162.891 273.442C163.302 273.675 163.624 274.007 163.857 274.436C164.1 274.856 164.221 275.327 164.221 275.85C164.221 276.485 164.072 277.054 163.773 277.558C163.475 278.053 163.059 278.44 162.527 278.72C162.005 279 161.407 279.14 160.735 279.14Z" fill="#4F6D5D"></path>
  <path d="M96.0345 128.284H84.6921C84.1412 128.284 83.6875 127.83 83.6875 127.279V78.6687C83.6875 78.1178 84.1412 77.6641 84.6921 77.6641H96.0345C96.5854 77.6641 97.0391 78.1178 97.0391 78.6687V127.279C97.0391 127.83 96.5854 128.284 96.0345 128.284ZM85.6967 126.258H95.0137V79.6733H85.6967V126.258Z" fill="#4F6D5D"></path>
  <path d="M84.6908 128.283H73.3484C72.7974 128.283 72.3438 127.829 72.3438 127.278V85.1491C72.3438 84.5982 72.7974 84.1445 73.3484 84.1445H84.6908C85.2417 84.1445 85.6954 84.5982 85.6954 85.1491V127.278C85.6954 127.829 85.2417 128.283 84.6908 128.283ZM74.353 126.257H83.6699V86.1538H74.353V126.257Z" fill="#4F6D5D"></path>
  <path d="M73.347 128.284H62.0046C61.4537 128.284 61 127.83 61 127.279V104.594C61 104.044 61.4537 103.59 62.0046 103.59H73.347C73.8979 103.59 74.3516 104.044 74.3516 104.594V127.279C74.3516 127.83 73.8979 128.284 73.347 128.284ZM63.0092 126.258H72.3262V105.599H63.0254V126.258H63.0092Z" fill="#4F6D5D"></path>
  <path d="M107.372 102.36C106.821 102.36 106.367 101.906 106.367 101.355V55.9695C106.367 55.4185 106.821 54.9648 107.372 54.9648H118.714C119.265 54.9648 119.719 55.4185 119.719 55.9695C119.719 56.5204 119.265 56.9741 118.714 56.9741H108.376V101.339C108.376 101.89 107.923 102.344 107.372 102.344V102.36Z" fill="#4F6D5D"></path>
  <path d="M107.378 128.284H96.0359C95.4849 128.284 95.0312 127.83 95.0312 127.279V65.6902C95.0312 65.1392 95.4849 64.6855 96.0359 64.6855H107.378C107.929 64.6855 108.383 65.1392 108.383 65.6902C108.383 66.2411 107.929 66.6948 107.378 66.6948H97.0405V126.242H106.357V115.905C106.357 115.354 106.811 114.9 107.362 114.9C107.913 114.9 108.367 115.354 108.367 115.905V127.247C108.367 127.798 107.913 128.252 107.362 128.252L107.378 128.284Z" fill="#4F6D5D"></path>
  <path d="M118.716 82.9136C118.165 82.9136 117.711 82.4599 117.711 81.909V43.0046C117.711 42.4537 118.165 42 118.716 42H130.058C130.609 42 131.063 42.4537 131.063 43.0046V65.6894C131.063 66.2403 130.609 66.694 130.058 66.694C129.507 66.694 129.053 66.2403 129.053 65.6894V44.0254H119.736V81.909C119.736 82.4599 119.283 82.9136 118.732 82.9136H118.716Z" fill="#4F6D5D"></path>
  <path d="M126.823 128.282C126.823 128.282 126.661 128.282 126.58 128.25C126.127 128.137 125.803 127.731 125.803 127.262V105.857L110.895 110.264C110.507 110.378 110.085 110.264 109.826 109.94C109.567 109.632 109.518 109.195 109.713 108.822L129.157 71.7C129.367 71.2949 129.837 71.0681 130.291 71.1815C130.745 71.2949 131.069 71.7 131.069 72.1699V93.5746L145.976 89.1673C146.365 89.0539 146.786 89.1673 147.045 89.4914C147.305 89.7992 147.353 90.2367 147.159 90.6094L127.715 127.731C127.536 128.072 127.18 128.266 126.823 128.266V128.282ZM126.823 103.507C127.034 103.507 127.245 103.572 127.423 103.702C127.682 103.896 127.828 104.188 127.828 104.512V123.146L144.258 91.7922L130.356 95.9079C130.048 95.9889 129.724 95.9403 129.465 95.7459C129.205 95.5514 129.059 95.2598 129.059 94.9357V76.3018L112.629 107.655L126.532 103.54C126.629 103.507 126.726 103.491 126.823 103.491V103.507Z" fill="#4F6D5D"></path>
  <path d="M118.714 128.283H107.372C106.821 128.283 106.367 127.829 106.367 127.278C106.367 126.727 106.821 126.273 107.372 126.273H118.714C119.265 126.273 119.719 126.727 119.719 127.278C119.719 127.829 119.265 128.283 118.714 128.283Z" fill="#4F6D5D"></path>
  <path d="M32.016 184.92L43.728 173.352C45.616 171.496 46.944 170.008 47.712 168.888C48.48 167.768 48.864 166.616 48.864 165.432C48.864 163.96 48.352 162.76 47.328 161.832C46.336 160.872 45.056 160.392 43.488 160.392C41.568 160.392 40.048 161 38.928 162.216C37.84 163.432 37.328 165.064 37.392 167.112H31.728C31.664 164.712 32.112 162.584 33.072 160.728C34.064 158.872 35.472 157.448 37.296 156.456C39.12 155.432 41.184 154.92 43.488 154.92C45.6 154.92 47.504 155.368 49.2 156.264C50.896 157.128 52.224 158.344 53.184 159.912C54.144 161.448 54.624 163.208 54.624 165.192C54.624 167.144 54.032 169.048 52.848 170.904C51.696 172.76 49.984 174.76 47.712 176.904L41.088 183.528H54.864V189H32.016V184.92ZM80.6183 155.4V159.24L66.4583 189H60.1703L73.7543 160.824H57.7703V155.4H80.6183ZM82.3103 189.48C81.2543 189.48 80.3743 189.128 79.6703 188.424C78.9663 187.72 78.6143 186.856 78.6143 185.832C78.6143 184.808 78.9663 183.944 79.6703 183.24C80.3743 182.536 81.2543 182.184 82.3103 182.184C83.3663 182.184 84.2463 182.536 84.9503 183.24C85.6543 183.944 86.0063 184.808 86.0063 185.832C86.0063 186.856 85.6543 187.72 84.9503 188.424C84.2463 189.128 83.3663 189.48 82.3103 189.48ZM90.2348 184.92L101.947 173.352C103.835 171.496 105.163 170.008 105.931 168.888C106.699 167.768 107.083 166.616 107.083 165.432C107.083 163.96 106.571 162.76 105.547 161.832C104.555 160.872 103.275 160.392 101.707 160.392C99.7868 160.392 98.2668 161 97.1468 162.216C96.0588 163.432 95.5468 165.064 95.6108 167.112H89.9468C89.8828 164.712 90.3308 162.584 91.2908 160.728C92.2828 158.872 93.6908 157.448 95.5148 156.456C97.3388 155.432 99.4028 154.92 101.707 154.92C103.819 154.92 105.723 155.368 107.419 156.264C109.115 157.128 110.443 158.344 111.403 159.912C112.363 161.448 112.843 163.208 112.843 165.192C112.843 167.144 112.251 169.048 111.067 170.904C109.915 172.76 108.203 174.76 105.931 176.904L99.3068 183.528H113.083V189H90.2348V184.92ZM129.957 189.48C127.333 189.48 125.061 188.776 123.141 187.368C121.221 185.928 119.749 183.912 118.725 181.32C117.733 178.728 117.237 175.688 117.237 172.2C117.237 168.712 117.733 165.672 118.725 163.08C119.749 160.488 121.221 158.488 123.141 157.08C125.061 155.64 127.333 154.92 129.957 154.92C132.581 154.92 134.837 155.64 136.725 157.08C138.645 158.488 140.101 160.488 141.093 163.08C142.117 165.672 142.629 168.712 142.629 172.2C142.629 175.688 142.117 178.728 141.093 181.32C140.101 183.912 138.645 185.928 136.725 187.368C134.837 188.776 132.581 189.48 129.957 189.48ZM129.957 184.008C132.165 184.008 133.861 183.016 135.045 181.032C136.261 179.016 136.869 176.072 136.869 172.2C136.869 168.328 136.261 165.4 135.045 163.416C133.861 161.4 132.165 160.392 129.957 160.392C127.749 160.392 126.037 161.4 124.821 163.416C123.637 165.4 123.045 168.328 123.045 172.2C123.045 176.072 123.637 179.016 124.821 181.032C126.037 183.016 127.749 184.008 129.957 184.008ZM175.565 182.28C175.565 184.36 174.909 186.088 173.597 187.464C172.285 188.808 170.637 189.48 168.653 189.48C166.669 189.48 165.021 188.808 163.709 187.464C162.429 186.088 161.789 184.36 161.789 182.28C161.789 180.232 162.429 178.536 163.709 177.192C165.021 175.848 166.669 175.176 168.653 175.176C170.637 175.176 172.285 175.848 173.597 177.192C174.909 178.536 175.565 180.232 175.565 182.28ZM171.965 182.28C171.965 181.192 171.661 180.312 171.053 179.64C170.477 178.936 169.677 178.584 168.653 178.584C167.661 178.584 166.861 178.936 166.253 179.64C165.677 180.312 165.389 181.192 165.389 182.28C165.389 183.4 165.677 184.312 166.253 185.016C166.861 185.72 167.661 186.072 168.653 186.072C169.677 186.072 170.477 185.72 171.053 185.016C171.661 184.312 171.965 183.4 171.965 182.28ZM159.773 162.024C159.773 164.104 159.117 165.832 157.805 167.208C156.525 168.552 154.893 169.224 152.909 169.224C150.957 169.224 149.325 168.552 148.013 167.208C146.701 165.832 146.045 164.104 146.045 162.024C146.045 159.976 146.685 158.28 147.965 156.936C149.277 155.592 150.925 154.92 152.909 154.92C154.893 154.92 156.525 155.592 157.805 156.936C159.117 158.28 159.773 159.976 159.773 162.024ZM156.221 162.024C156.221 160.936 155.917 160.04 155.309 159.336C154.701 158.632 153.901 158.28 152.909 158.28C151.917 158.28 151.117 158.632 150.509 159.336C149.901 160.04 149.597 160.936 149.597 162.024C149.597 163.144 149.901 164.056 150.509 164.76C151.117 165.464 151.917 165.816 152.909 165.816C153.901 165.816 154.701 165.464 155.309 164.76C155.917 164.056 156.221 163.144 156.221 162.024ZM174.125 155.4L151.805 189H147.485L169.805 155.4H174.125Z" fill="#4F6D5D"></path>
</svg>
