<?xml version="1.0" encoding="UTF-8"?>
<svg xmlns="http://www.w3.org/2000/svg" width="325" height="179" viewBox="0 0 325 179" fill="none">
  <rect width="325" height="179" rx="20" fill="#EBF1E0"></rect>
  <path d="M108.341 66.2383H59.1093C57.4538 66.2383 56.1094 67.7235 56.1094 69.58V108.245C56.1094 110.089 57.4538 111.587 59.1093 111.587H89.9306C89.7639 111.166 89.675 110.684 89.675 110.176V101.599C89.675 101.166 89.7417 100.745 89.875 100.361C88.7084 98.9503 88.0084 97.0814 88.0084 95.0145C88.0084 90.6207 91.2083 87.0561 95.1526 87.0561C99.097 87.0561 102.297 90.6207 102.297 95.0145C102.297 96.9329 101.686 98.678 100.675 100.052C100.875 100.522 100.986 101.042 100.986 101.599V110.176C100.986 110.684 100.897 111.166 100.73 111.587H108.341C109.997 111.587 111.341 110.089 111.341 108.245V69.58C111.341 67.7235 109.997 66.2383 108.341 66.2383Z" stroke="#4F6D5D" stroke-width="1.70081" stroke-linecap="round" stroke-linejoin="round"></path>
  <path d="M102.733 73.3887H64.7338C63.156 73.3887 61.8672 74.812 61.8672 76.5695V101.237C61.8672 102.994 63.156 104.417 64.7338 104.417H89.6775V101.596C89.6775 101.162 89.7441 100.742 89.8775 100.358C88.7108 98.9469 88.0108 97.078 88.0108 95.011C88.0108 90.6172 91.2107 87.0527 95.1551 87.0527C99.0994 87.0527 102.299 90.6172 102.299 95.011C102.299 96.9294 101.688 98.6746 100.677 100.048C100.877 100.519 100.988 101.039 100.988 101.596V104.417H102.733C104.31 104.417 105.588 102.994 105.588 101.237V76.5695C105.588 74.812 104.31 73.3887 102.733 73.3887Z" stroke="#4F6D5D" stroke-width="1.70081" stroke-linecap="round" stroke-linejoin="round"></path>
  <path d="M100.99 101.598V110.175C100.99 110.682 100.902 111.165 100.735 111.586C100.113 113.22 98.4572 114.21 96.8017 113.665L96.2573 113.492C95.6573 113.294 95.024 113.294 94.424 113.492L93.8685 113.665C92.2129 114.21 90.5574 113.22 89.9352 111.586C89.7686 111.165 89.6797 110.682 89.6797 110.175V101.598C89.6797 101.165 89.7464 100.744 89.8797 100.36C91.1796 101.957 93.0685 102.959 95.1573 102.959C97.3795 102.959 99.3683 101.833 100.679 100.051C100.879 100.521 100.99 101.041 100.99 101.598Z" stroke="#4F6D5D" stroke-width="1.70081" stroke-miterlimit="10"></path>
  <path d="M102.296 95.013C102.296 96.9314 101.685 98.6765 100.674 100.05C99.363 101.833 97.3742 102.959 95.152 102.959C93.0632 102.959 91.1744 101.956 89.8744 100.36C88.7078 98.9488 88.0078 97.0799 88.0078 95.013C88.0078 90.6192 91.2077 87.0547 95.152 87.0547C99.0964 87.0547 102.296 90.6192 102.296 95.013Z" stroke="#4F6D5D" stroke-width="1.70081" stroke-miterlimit="10"></path>
  <path d="M67.5312 81.2129H98.1303" stroke="#4F6D5D" stroke-width="1.70081" stroke-miterlimit="10"></path>
  <path d="M67.5312 88.1055H84.7974" stroke="#4F6D5D" stroke-width="1.70081" stroke-miterlimit="10"></path>
  <path d="M67.5312 94.209H84.7974" stroke="#4F6D5D" stroke-width="1.70081" stroke-miterlimit="10"></path>
  <path d="M158.478 111H156.224L155.608 109.362H151.828L151.198 111H149L152.892 101.2H154.572L158.478 111ZM154.908 107.556L153.732 104.448L152.528 107.556H154.908ZM162.081 111.14C161.418 111.14 160.816 110.986 160.275 110.678C159.733 110.361 159.304 109.931 158.987 109.39C158.679 108.849 158.525 108.242 158.525 107.57C158.525 106.898 158.679 106.291 158.987 105.75C159.304 105.199 159.733 104.77 160.275 104.462C160.816 104.145 161.418 103.986 162.081 103.986C162.65 103.986 163.182 104.107 163.677 104.35C164.171 104.583 164.577 104.91 164.895 105.33C165.212 105.75 165.399 106.221 165.455 106.744H163.439C163.364 106.492 163.201 106.287 162.949 106.128C162.697 105.96 162.407 105.876 162.081 105.876C161.614 105.876 161.227 106.039 160.919 106.366C160.611 106.683 160.457 107.085 160.457 107.57C160.457 108.046 160.611 108.447 160.919 108.774C161.236 109.091 161.623 109.25 162.081 109.25C162.417 109.25 162.711 109.166 162.963 108.998C163.224 108.821 163.392 108.597 163.467 108.326H165.455C165.408 108.858 165.226 109.339 164.909 109.768C164.601 110.197 164.195 110.533 163.691 110.776C163.196 111.019 162.659 111.14 162.081 111.14ZM169.823 111.098C169.002 111.098 168.344 110.841 167.849 110.328C167.364 109.815 167.121 109.105 167.121 108.2V106.002H165.847V104.126H167.121V102.32H169.095V104.126H170.789V106.002H169.095V108.172C169.095 108.527 169.203 108.793 169.417 108.97C169.632 109.147 169.921 109.236 170.285 109.236C170.481 109.236 170.649 109.217 170.789 109.18V111C170.537 111.065 170.215 111.098 169.823 111.098ZM173.85 104.126V111H171.876V104.126H173.85ZM172.856 103.188C172.53 103.188 172.245 103.071 172.002 102.838C171.769 102.605 171.652 102.325 171.652 101.998C171.652 101.671 171.769 101.391 172.002 101.158C172.245 100.915 172.53 100.794 172.856 100.794C173.192 100.794 173.477 100.915 173.71 101.158C173.944 101.391 174.06 101.671 174.06 101.998C174.06 102.325 173.944 102.605 173.71 102.838C173.477 103.071 173.192 103.188 172.856 103.188ZM179.13 111H177.45L174.608 104.126H176.75L178.29 108.312L179.816 104.126H181.972L179.13 111ZM185.679 111.14C185.017 111.14 184.41 110.981 183.859 110.664C183.309 110.347 182.875 109.913 182.557 109.362C182.24 108.802 182.081 108.191 182.081 107.528C182.081 106.875 182.235 106.277 182.543 105.736C182.861 105.195 183.29 104.77 183.831 104.462C184.382 104.145 184.989 103.986 185.651 103.986C186.267 103.986 186.832 104.135 187.345 104.434C187.868 104.723 188.279 105.125 188.577 105.638C188.885 106.151 189.039 106.721 189.039 107.346C189.039 107.607 189.025 107.85 188.997 108.074H183.915C183.99 108.513 184.181 108.858 184.489 109.11C184.807 109.362 185.194 109.488 185.651 109.488C186.015 109.488 186.314 109.418 186.547 109.278C186.79 109.129 186.944 108.933 187.009 108.69H188.941C188.829 109.437 188.475 110.034 187.877 110.482C187.28 110.921 186.547 111.14 185.679 111.14ZM186.967 106.758C186.93 106.422 186.776 106.147 186.505 105.932C186.244 105.717 185.927 105.61 185.553 105.61C185.171 105.61 184.844 105.708 184.573 105.904C184.303 106.091 184.111 106.375 183.999 106.758H186.967ZM196.649 111.14C195.939 111.14 195.305 110.995 194.745 110.706C194.185 110.407 193.741 110.001 193.415 109.488C193.097 108.975 192.939 108.396 192.939 107.752H194.983C194.983 108.181 195.137 108.527 195.445 108.788C195.753 109.049 196.154 109.18 196.649 109.18C197.106 109.18 197.475 109.082 197.755 108.886C198.044 108.69 198.189 108.433 198.189 108.116C198.189 107.892 198.105 107.71 197.937 107.57C197.778 107.421 197.577 107.304 197.335 107.22C197.092 107.127 196.747 107.024 196.299 106.912C195.627 106.735 195.071 106.557 194.633 106.38C194.194 106.193 193.816 105.909 193.499 105.526C193.191 105.134 193.037 104.611 193.037 103.958C193.037 103.407 193.181 102.913 193.471 102.474C193.769 102.026 194.175 101.681 194.689 101.438C195.202 101.186 195.776 101.06 196.411 101.06C197.185 101.06 197.834 101.209 198.357 101.508C198.889 101.797 199.285 102.189 199.547 102.684C199.808 103.179 199.939 103.725 199.939 104.322H197.797C197.787 103.939 197.652 103.627 197.391 103.384C197.129 103.141 196.779 103.02 196.341 103.02C195.949 103.02 195.636 103.104 195.403 103.272C195.179 103.431 195.067 103.655 195.067 103.944C195.067 104.149 195.141 104.317 195.291 104.448C195.449 104.569 195.641 104.672 195.865 104.756C196.098 104.831 196.434 104.924 196.873 105.036C197.563 105.204 198.133 105.381 198.581 105.568C199.038 105.755 199.43 106.053 199.757 106.464C200.083 106.865 200.247 107.416 200.247 108.116C200.247 108.685 200.088 109.203 199.771 109.67C199.463 110.127 199.033 110.487 198.483 110.748C197.941 111.009 197.33 111.14 196.649 111.14ZM203.163 110.44L200.517 104.126H202.645L204.171 108.144L205.697 104.126H207.825L203.779 113.8H201.651L203.163 110.44ZM211.125 111.14C210.22 111.14 209.483 110.921 208.913 110.482C208.353 110.043 208.036 109.437 207.961 108.662H209.851C209.87 108.895 209.991 109.082 210.215 109.222C210.439 109.362 210.715 109.432 211.041 109.432C211.331 109.432 211.555 109.385 211.713 109.292C211.872 109.189 211.951 109.063 211.951 108.914C211.951 108.727 211.844 108.592 211.629 108.508C211.424 108.424 211.097 108.345 210.649 108.27C210.136 108.177 209.707 108.074 209.361 107.962C209.025 107.85 208.731 107.659 208.479 107.388C208.237 107.117 208.115 106.739 208.115 106.254C208.115 105.825 208.223 105.437 208.437 105.092C208.661 104.747 208.979 104.476 209.389 104.28C209.809 104.084 210.295 103.986 210.845 103.986C211.62 103.986 212.287 104.187 212.847 104.588C213.417 104.989 213.743 105.559 213.827 106.296H211.839C211.821 106.119 211.718 105.969 211.531 105.848C211.345 105.717 211.097 105.652 210.789 105.652C210.556 105.652 210.369 105.694 210.229 105.778C210.089 105.853 210.019 105.969 210.019 106.128C210.019 106.296 210.113 106.417 210.299 106.492C210.495 106.567 210.813 106.646 211.251 106.73C211.783 106.823 212.222 106.931 212.567 107.052C212.922 107.164 213.23 107.369 213.491 107.668C213.753 107.967 213.883 108.387 213.883 108.928C213.883 109.339 213.762 109.717 213.519 110.062C213.277 110.398 212.945 110.664 212.525 110.86C212.105 111.047 211.639 111.14 211.125 111.14ZM218.318 111.098C217.496 111.098 216.838 110.841 216.344 110.328C215.858 109.815 215.616 109.105 215.616 108.2V106.002H214.342V104.126H215.616V102.32H217.59V104.126H219.284V106.002H217.59V108.172C217.59 108.527 217.697 108.793 217.912 108.97C218.126 109.147 218.416 109.236 218.78 109.236C218.976 109.236 219.144 109.217 219.284 109.18V111C219.032 111.065 218.71 111.098 218.318 111.098ZM223.482 111.14C222.82 111.14 222.213 110.981 221.662 110.664C221.112 110.347 220.678 109.913 220.36 109.362C220.043 108.802 219.884 108.191 219.884 107.528C219.884 106.875 220.038 106.277 220.346 105.736C220.664 105.195 221.093 104.77 221.634 104.462C222.185 104.145 222.792 103.986 223.454 103.986C224.07 103.986 224.635 104.135 225.148 104.434C225.671 104.723 226.082 105.125 226.38 105.638C226.688 106.151 226.842 106.721 226.842 107.346C226.842 107.607 226.828 107.85 226.8 108.074H221.718C221.793 108.513 221.984 108.858 222.292 109.11C222.61 109.362 222.997 109.488 223.454 109.488C223.818 109.488 224.117 109.418 224.35 109.278C224.593 109.129 224.747 108.933 224.812 108.69H226.744C226.632 109.437 226.278 110.034 225.68 110.482C225.083 110.921 224.35 111.14 223.482 111.14ZM224.77 106.758C224.733 106.422 224.579 106.147 224.308 105.932C224.047 105.717 223.73 105.61 223.356 105.61C222.974 105.61 222.647 105.708 222.376 105.904C222.106 106.091 221.914 106.375 221.802 106.758H224.77ZM238.697 111H236.723V107.192C236.723 106.791 236.615 106.473 236.401 106.24C236.186 105.997 235.901 105.876 235.547 105.876C235.192 105.876 234.893 105.993 234.651 106.226C234.417 106.45 234.301 106.772 234.301 107.192V111H232.327V107.192C232.327 106.791 232.219 106.473 232.005 106.24C231.79 105.997 231.496 105.876 231.123 105.876C230.787 105.876 230.502 105.993 230.269 106.226C230.035 106.45 229.919 106.772 229.919 107.192V111H227.945V104.126H229.919V104.938C230.152 104.602 230.446 104.359 230.801 104.21C231.155 104.061 231.515 103.986 231.879 103.986C232.327 103.986 232.709 104.07 233.027 104.238C233.353 104.397 233.619 104.649 233.825 104.994C234.03 104.695 234.319 104.453 234.693 104.266C235.066 104.079 235.467 103.986 235.897 103.986C236.438 103.986 236.919 104.103 237.339 104.336C237.768 104.56 238.099 104.877 238.333 105.288C238.575 105.699 238.697 106.179 238.697 106.73V111ZM253.197 111H251.223V110.034C250.98 110.398 250.677 110.673 250.313 110.86C249.949 111.047 249.529 111.14 249.053 111.14C248.474 111.14 247.937 110.981 247.443 110.664C246.957 110.337 246.57 109.899 246.281 109.348C246.001 108.797 245.861 108.2 245.861 107.556C245.861 106.912 246.001 106.315 246.281 105.764C246.57 105.213 246.957 104.779 247.443 104.462C247.937 104.145 248.474 103.986 249.053 103.986C249.529 103.986 249.949 104.079 250.313 104.266C250.677 104.453 250.98 104.728 251.223 105.092V104.126H253.197V111ZM249.501 109.25C249.986 109.25 250.392 109.091 250.719 108.774C251.055 108.447 251.223 108.041 251.223 107.556C251.223 107.08 251.055 106.679 250.719 106.352C250.392 106.025 249.986 105.862 249.501 105.862C249.025 105.862 248.619 106.03 248.283 106.366C247.956 106.693 247.793 107.089 247.793 107.556C247.793 108.032 247.956 108.433 248.283 108.76C248.619 109.087 249.025 109.25 249.501 109.25ZM256.62 105.022C256.835 104.686 257.101 104.429 257.418 104.252C257.735 104.075 258.09 103.986 258.482 103.986C259.359 103.986 260.045 104.266 260.54 104.826C261.044 105.377 261.296 106.137 261.296 107.108V111H259.322V107.36C259.322 106.912 259.196 106.553 258.944 106.282C258.701 106.011 258.379 105.876 257.978 105.876C257.567 105.876 257.236 106.011 256.984 106.282C256.741 106.553 256.62 106.912 256.62 107.36V111H254.646V104.126H256.62V105.022ZM265.527 111.14C264.949 111.14 264.412 110.981 263.917 110.664C263.432 110.337 263.045 109.899 262.755 109.348C262.475 108.797 262.335 108.2 262.335 107.556C262.335 106.912 262.475 106.315 262.755 105.764C263.045 105.213 263.432 104.779 263.917 104.462C264.412 104.145 264.949 103.986 265.527 103.986C266.003 103.986 266.423 104.079 266.787 104.266C267.151 104.453 267.455 104.728 267.697 105.092V101.2H269.671V111H267.697V110.034C267.455 110.398 267.151 110.673 266.787 110.86C266.423 111.047 266.003 111.14 265.527 111.14ZM265.975 109.25C266.47 109.25 266.881 109.091 267.207 108.774C267.534 108.447 267.697 108.041 267.697 107.556C267.697 107.08 267.529 106.679 267.193 106.352C266.867 106.025 266.461 105.862 265.975 105.862C265.499 105.862 265.093 106.03 264.757 106.366C264.431 106.693 264.267 107.089 264.267 107.556C264.267 108.032 264.431 108.433 264.757 108.76C265.093 109.087 265.499 109.25 265.975 109.25ZM153.592 122.526C153.947 122.526 154.241 122.414 154.474 122.19C154.717 121.966 154.838 121.681 154.838 121.336C154.838 121.009 154.717 120.739 154.474 120.524C154.241 120.3 153.947 120.188 153.592 120.188H151.94V122.526H153.592ZM153.592 118.2C154.227 118.2 154.796 118.335 155.3 118.606C155.813 118.877 156.21 119.25 156.49 119.726C156.779 120.202 156.924 120.739 156.924 121.336C156.924 121.943 156.779 122.489 156.49 122.974C156.21 123.45 155.813 123.828 155.3 124.108C154.796 124.379 154.227 124.514 153.592 124.514H151.94V128H149.868V118.2H153.592ZM157.808 121.126H159.782V121.938C159.978 121.639 160.23 121.406 160.538 121.238C160.846 121.07 161.187 120.986 161.56 120.986C161.709 120.986 161.924 121.014 162.204 121.07V122.862C161.943 122.797 161.709 122.764 161.504 122.764C161 122.764 160.585 122.923 160.258 123.24C159.941 123.548 159.782 124.005 159.782 124.612V128H157.808V121.126ZM166.073 120.986C166.736 120.986 167.338 121.145 167.879 121.462C168.43 121.77 168.859 122.199 169.167 122.75C169.485 123.291 169.643 123.898 169.643 124.57C169.643 125.242 169.485 125.849 169.167 126.39C168.859 126.931 168.43 127.361 167.879 127.678C167.338 127.986 166.736 128.14 166.073 128.14C165.401 128.14 164.795 127.986 164.253 127.678C163.712 127.361 163.283 126.931 162.965 126.39C162.657 125.849 162.503 125.242 162.503 124.57C162.503 123.898 162.657 123.291 162.965 122.75C163.283 122.199 163.712 121.77 164.253 121.462C164.795 121.145 165.401 120.986 166.073 120.986ZM166.073 122.876C165.607 122.876 165.215 123.039 164.897 123.366C164.58 123.683 164.421 124.085 164.421 124.57C164.421 125.046 164.58 125.447 164.897 125.774C165.215 126.091 165.607 126.25 166.073 126.25C166.54 126.25 166.927 126.091 167.235 125.774C167.553 125.447 167.711 125.046 167.711 124.57C167.711 124.085 167.553 123.683 167.235 123.366C166.927 123.039 166.54 122.876 166.073 122.876ZM173.611 128.14C173.033 128.14 172.496 127.981 172.001 127.664C171.516 127.337 171.129 126.899 170.839 126.348C170.559 125.797 170.419 125.2 170.419 124.556C170.419 123.912 170.559 123.315 170.839 122.764C171.129 122.213 171.516 121.779 172.001 121.462C172.496 121.145 173.033 120.986 173.611 120.986C174.087 120.986 174.507 121.079 174.871 121.266C175.235 121.453 175.539 121.728 175.781 122.092V118.2H177.755V128H175.781V127.034C175.539 127.398 175.235 127.673 174.871 127.86C174.507 128.047 174.087 128.14 173.611 128.14ZM174.059 126.25C174.554 126.25 174.965 126.091 175.291 125.774C175.618 125.447 175.781 125.041 175.781 124.556C175.781 124.08 175.613 123.679 175.277 123.352C174.951 123.025 174.545 122.862 174.059 122.862C173.583 122.862 173.177 123.03 172.841 123.366C172.515 123.693 172.351 124.089 172.351 124.556C172.351 125.032 172.515 125.433 172.841 125.76C173.177 126.087 173.583 126.25 174.059 126.25ZM183.797 127.104C183.573 127.44 183.302 127.697 182.985 127.874C182.677 128.051 182.327 128.14 181.935 128.14C181.057 128.14 180.367 127.86 179.863 127.3C179.359 126.74 179.107 125.975 179.107 125.004V121.126H181.081V124.752C181.081 125.209 181.202 125.573 181.445 125.844C181.697 126.115 182.028 126.25 182.439 126.25C182.849 126.25 183.176 126.115 183.419 125.844C183.671 125.573 183.797 125.209 183.797 124.752V121.126H185.771V128H183.797V127.104ZM190.45 128.14C189.787 128.14 189.185 127.986 188.644 127.678C188.103 127.361 187.673 126.931 187.356 126.39C187.048 125.849 186.894 125.242 186.894 124.57C186.894 123.898 187.048 123.291 187.356 122.75C187.673 122.199 188.103 121.77 188.644 121.462C189.185 121.145 189.787 120.986 190.45 120.986C191.019 120.986 191.551 121.107 192.046 121.35C192.541 121.583 192.947 121.91 193.264 122.33C193.581 122.75 193.768 123.221 193.824 123.744H191.808C191.733 123.492 191.57 123.287 191.318 123.128C191.066 122.96 190.777 122.876 190.45 122.876C189.983 122.876 189.596 123.039 189.288 123.366C188.98 123.683 188.826 124.085 188.826 124.57C188.826 125.046 188.98 125.447 189.288 125.774C189.605 126.091 189.993 126.25 190.45 126.25C190.786 126.25 191.08 126.166 191.332 125.998C191.593 125.821 191.761 125.597 191.836 125.326H193.824C193.777 125.858 193.595 126.339 193.278 126.768C192.97 127.197 192.564 127.533 192.06 127.776C191.565 128.019 191.029 128.14 190.45 128.14ZM198.193 128.098C197.371 128.098 196.713 127.841 196.219 127.328C195.733 126.815 195.491 126.105 195.491 125.2V123.002H194.217V121.126H195.491V119.32H197.465V121.126H199.159V123.002H197.465V125.172C197.465 125.527 197.572 125.793 197.787 125.97C198.001 126.147 198.291 126.236 198.655 126.236C198.851 126.236 199.019 126.217 199.159 126.18V128C198.907 128.065 198.585 128.098 198.193 128.098ZM154.418 145.14C153.485 145.14 152.64 144.921 151.884 144.482C151.128 144.043 150.531 143.441 150.092 142.676C149.663 141.901 149.448 141.043 149.448 140.1C149.448 139.157 149.663 138.303 150.092 137.538C150.531 136.763 151.128 136.157 151.884 135.718C152.64 135.279 153.485 135.06 154.418 135.06C155.183 135.06 155.902 135.219 156.574 135.536C157.255 135.844 157.82 136.273 158.268 136.824C158.716 137.365 158.982 137.972 159.066 138.644H156.77C156.639 138.187 156.355 137.813 155.916 137.524C155.477 137.225 154.978 137.076 154.418 137.076C153.886 137.076 153.401 137.211 152.962 137.482C152.533 137.743 152.192 138.103 151.94 138.56C151.697 139.017 151.576 139.531 151.576 140.1C151.576 140.669 151.697 141.183 151.94 141.64C152.192 142.097 152.533 142.461 152.962 142.732C153.401 142.993 153.886 143.124 154.418 143.124C154.978 143.124 155.477 142.965 155.916 142.648C156.355 142.331 156.639 141.925 156.77 141.43H159.094C158.973 142.149 158.693 142.793 158.254 143.362C157.825 143.922 157.274 144.361 156.602 144.678C155.93 144.986 155.202 145.14 154.418 145.14ZM163.422 145.14C162.759 145.14 162.152 144.981 161.602 144.664C161.051 144.347 160.617 143.913 160.3 143.362C159.982 142.802 159.824 142.191 159.824 141.528C159.824 140.875 159.978 140.277 160.286 139.736C160.603 139.195 161.032 138.77 161.574 138.462C162.124 138.145 162.731 137.986 163.394 137.986C164.01 137.986 164.574 138.135 165.088 138.434C165.61 138.723 166.021 139.125 166.32 139.638C166.628 140.151 166.782 140.721 166.782 141.346C166.782 141.607 166.768 141.85 166.74 142.074H161.658C161.732 142.513 161.924 142.858 162.232 143.11C162.549 143.362 162.936 143.488 163.394 143.488C163.758 143.488 164.056 143.418 164.29 143.278C164.532 143.129 164.686 142.933 164.752 142.69H166.684C166.572 143.437 166.217 144.034 165.62 144.482C165.022 144.921 164.29 145.14 163.422 145.14ZM164.71 140.758C164.672 140.422 164.518 140.147 164.248 139.932C163.986 139.717 163.669 139.61 163.296 139.61C162.913 139.61 162.586 139.708 162.316 139.904C162.045 140.091 161.854 140.375 161.742 140.758H164.71ZM167.884 138.126H169.858V138.938C170.054 138.639 170.306 138.406 170.614 138.238C170.922 138.07 171.263 137.986 171.636 137.986C171.786 137.986 172 138.014 172.28 138.07V139.862C172.019 139.797 171.786 139.764 171.58 139.764C171.076 139.764 170.661 139.923 170.334 140.24C170.017 140.548 169.858 141.005 169.858 141.612V145H167.884V138.126ZM176.618 145.098C175.797 145.098 175.139 144.841 174.644 144.328C174.159 143.815 173.916 143.105 173.916 142.2V140.002H172.642V138.126H173.916V136.32H175.89V138.126H177.584V140.002H175.89V142.172C175.89 142.527 175.998 142.793 176.212 142.97C176.427 143.147 176.716 143.236 177.08 143.236C177.276 143.236 177.444 143.217 177.584 143.18V145C177.332 145.065 177.01 145.098 176.618 145.098ZM180.645 138.126V145H178.671V138.126H180.645ZM179.651 137.188C179.325 137.188 179.04 137.071 178.797 136.838C178.564 136.605 178.447 136.325 178.447 135.998C178.447 135.671 178.564 135.391 178.797 135.158C179.04 134.915 179.325 134.794 179.651 134.794C179.987 134.794 180.272 134.915 180.505 135.158C180.739 135.391 180.855 135.671 180.855 135.998C180.855 136.325 180.739 136.605 180.505 136.838C180.272 137.071 179.987 137.188 179.651 137.188ZM189.397 145H187.423V140.002H184.819V145H182.845V140.002H181.571V138.126H182.845V137.748C182.845 136.843 183.088 136.133 183.573 135.62C184.068 135.107 184.726 134.85 185.547 134.85C185.911 134.85 186.233 134.887 186.513 134.962V136.782C186.373 136.745 186.205 136.726 186.009 136.726C185.645 136.726 185.356 136.815 185.141 136.992C184.927 137.169 184.819 137.435 184.819 137.79V138.126H189.397V145ZM188.417 137.188C188.091 137.188 187.806 137.071 187.563 136.838C187.33 136.605 187.213 136.325 187.213 135.998C187.213 135.671 187.33 135.391 187.563 135.158C187.806 134.915 188.091 134.794 188.417 134.794C188.744 134.794 189.024 134.915 189.257 135.158C189.5 135.391 189.621 135.671 189.621 135.998C189.621 136.325 189.5 136.605 189.257 136.838C189.024 137.071 188.744 137.188 188.417 137.188ZM194.059 145.14C193.397 145.14 192.795 144.986 192.253 144.678C191.712 144.361 191.283 143.931 190.965 143.39C190.657 142.849 190.503 142.242 190.503 141.57C190.503 140.898 190.657 140.291 190.965 139.75C191.283 139.199 191.712 138.77 192.253 138.462C192.795 138.145 193.397 137.986 194.059 137.986C194.629 137.986 195.161 138.107 195.655 138.35C196.15 138.583 196.556 138.91 196.873 139.33C197.191 139.75 197.377 140.221 197.433 140.744H195.417C195.343 140.492 195.179 140.287 194.927 140.128C194.675 139.96 194.386 139.876 194.059 139.876C193.593 139.876 193.205 140.039 192.897 140.366C192.589 140.683 192.435 141.085 192.435 141.57C192.435 142.046 192.589 142.447 192.897 142.774C193.215 143.091 193.602 143.25 194.059 143.25C194.395 143.25 194.689 143.166 194.941 142.998C195.203 142.821 195.371 142.597 195.445 142.326H197.433C197.387 142.858 197.205 143.339 196.887 143.768C196.579 144.197 196.173 144.533 195.669 144.776C195.175 145.019 194.638 145.14 194.059 145.14ZM205.496 145H203.522V144.034C203.279 144.398 202.976 144.673 202.612 144.86C202.248 145.047 201.828 145.14 201.352 145.14C200.773 145.14 200.236 144.981 199.742 144.664C199.256 144.337 198.869 143.899 198.58 143.348C198.3 142.797 198.16 142.2 198.16 141.556C198.16 140.912 198.3 140.315 198.58 139.764C198.869 139.213 199.256 138.779 199.742 138.462C200.236 138.145 200.773 137.986 201.352 137.986C201.828 137.986 202.248 138.079 202.612 138.266C202.976 138.453 203.279 138.728 203.522 139.092V138.126H205.496V145ZM201.8 143.25C202.285 143.25 202.691 143.091 203.018 142.774C203.354 142.447 203.522 142.041 203.522 141.556C203.522 141.08 203.354 140.679 203.018 140.352C202.691 140.025 202.285 139.862 201.8 139.862C201.324 139.862 200.918 140.03 200.582 140.366C200.255 140.693 200.092 141.089 200.092 141.556C200.092 142.032 200.255 142.433 200.582 142.76C200.918 143.087 201.324 143.25 201.8 143.25ZM210.347 145.098C209.525 145.098 208.867 144.841 208.373 144.328C207.887 143.815 207.645 143.105 207.645 142.2V140.002H206.371V138.126H207.645V136.32H209.619V138.126H211.313V140.002H209.619V142.172C209.619 142.527 209.726 142.793 209.941 142.97C210.155 143.147 210.445 143.236 210.809 143.236C211.005 143.236 211.173 143.217 211.313 143.18V145C211.061 145.065 210.739 145.098 210.347 145.098ZM214.374 138.126V145H212.4V138.126H214.374ZM213.38 137.188C213.053 137.188 212.769 137.071 212.526 136.838C212.293 136.605 212.176 136.325 212.176 135.998C212.176 135.671 212.293 135.391 212.526 135.158C212.769 134.915 213.053 134.794 213.38 134.794C213.716 134.794 214.001 134.915 214.234 135.158C214.467 135.391 214.584 135.671 214.584 135.998C214.584 136.325 214.467 136.605 214.234 136.838C214.001 137.071 213.716 137.188 213.38 137.188ZM219.052 137.986C219.715 137.986 220.317 138.145 220.858 138.462C221.409 138.77 221.838 139.199 222.146 139.75C222.463 140.291 222.622 140.898 222.622 141.57C222.622 142.242 222.463 142.849 222.146 143.39C221.838 143.931 221.409 144.361 220.858 144.678C220.317 144.986 219.715 145.14 219.052 145.14C218.38 145.14 217.773 144.986 217.232 144.678C216.691 144.361 216.261 143.931 215.944 143.39C215.636 142.849 215.482 142.242 215.482 141.57C215.482 140.898 215.636 140.291 215.944 139.75C216.261 139.199 216.691 138.77 217.232 138.462C217.773 138.145 218.38 137.986 219.052 137.986ZM219.052 139.876C218.585 139.876 218.193 140.039 217.876 140.366C217.559 140.683 217.4 141.085 217.4 141.57C217.4 142.046 217.559 142.447 217.876 142.774C218.193 143.091 218.585 143.25 219.052 143.25C219.519 143.25 219.906 143.091 220.214 142.774C220.531 142.447 220.69 142.046 220.69 141.57C220.69 141.085 220.531 140.683 220.214 140.366C219.906 140.039 219.519 139.876 219.052 139.876ZM225.708 139.022C225.923 138.686 226.189 138.429 226.506 138.252C226.823 138.075 227.178 137.986 227.57 137.986C228.447 137.986 229.133 138.266 229.628 138.826C230.132 139.377 230.384 140.137 230.384 141.108V145H228.41V141.36C228.41 140.912 228.284 140.553 228.032 140.282C227.789 140.011 227.467 139.876 227.066 139.876C226.655 139.876 226.324 140.011 226.072 140.282C225.829 140.553 225.708 140.912 225.708 141.36V145H223.734V138.126H225.708V139.022ZM234.545 145.14C233.64 145.14 232.903 144.921 232.333 144.482C231.773 144.043 231.456 143.437 231.381 142.662H233.271C233.29 142.895 233.411 143.082 233.635 143.222C233.859 143.362 234.135 143.432 234.461 143.432C234.751 143.432 234.975 143.385 235.133 143.292C235.292 143.189 235.371 143.063 235.371 142.914C235.371 142.727 235.264 142.592 235.049 142.508C234.844 142.424 234.517 142.345 234.069 142.27C233.556 142.177 233.127 142.074 232.781 141.962C232.445 141.85 232.151 141.659 231.899 141.388C231.657 141.117 231.535 140.739 231.535 140.254C231.535 139.825 231.643 139.437 231.857 139.092C232.081 138.747 232.399 138.476 232.809 138.28C233.229 138.084 233.715 137.986 234.265 137.986C235.04 137.986 235.707 138.187 236.267 138.588C236.837 138.989 237.163 139.559 237.247 140.296H235.259C235.241 140.119 235.138 139.969 234.951 139.848C234.765 139.717 234.517 139.652 234.209 139.652C233.976 139.652 233.789 139.694 233.649 139.778C233.509 139.853 233.439 139.969 233.439 140.128C233.439 140.296 233.533 140.417 233.719 140.492C233.915 140.567 234.233 140.646 234.671 140.73C235.203 140.823 235.642 140.931 235.987 141.052C236.342 141.164 236.65 141.369 236.911 141.668C237.173 141.967 237.303 142.387 237.303 142.928C237.303 143.339 237.182 143.717 236.939 144.062C236.697 144.398 236.365 144.664 235.945 144.86C235.525 145.047 235.059 145.14 234.545 145.14Z" fill="#4F6D5D"></path>
  <path d="M180.616 44.2V49.32L161.736 89H153.352L171.464 51.432H150.152V44.2H180.616ZM196.609 89.64C193.793 89.64 191.169 88.9573 188.737 87.592C186.348 86.184 184.449 84.3067 183.041 81.96C181.633 79.6133 180.929 77.0747 180.929 74.344C180.929 72.7653 181.228 71.016 181.825 69.096C182.465 67.176 183.382 65.256 184.577 63.336L196.417 44.2H204.993L194.945 60.072C195.969 59.7307 196.95 59.56 197.889 59.56C200.577 59.56 203.009 60.2 205.185 61.48C207.361 62.76 209.068 64.5307 210.305 66.792C211.585 69.0533 212.225 71.5707 212.225 74.344C212.225 77.0747 211.521 79.6133 210.113 81.96C208.705 84.3067 206.806 86.184 204.417 87.592C202.028 88.9573 199.425 89.64 196.609 89.64ZM196.609 82.536C198.956 82.536 200.94 81.7467 202.561 80.168C204.182 78.5467 204.993 76.584 204.993 74.28C204.993 71.9333 204.161 69.9493 202.497 68.328C200.876 66.7067 198.892 65.896 196.545 65.896C194.198 65.896 192.214 66.7067 190.593 68.328C189.014 69.9493 188.225 71.9333 188.225 74.28C188.225 76.584 189.036 78.5467 190.657 80.168C192.278 81.7467 194.262 82.536 196.609 82.536Z" fill="#4F6D5D"></path>
</svg>
