<?xml version="1.0" encoding="UTF-8"?>
<svg xmlns="http://www.w3.org/2000/svg" width="325" height="179" viewBox="0 0 325 179" fill="none">
  <rect width="325" height="179" rx="20" fill="#EBF1E0"></rect>
  <path d="M163.16 91H157.592V65.128L150.008 71.272V64.504L159.32 57.4H163.16V91ZM181.551 91.48C178.927 91.48 176.655 90.776 174.735 89.368C172.815 87.928 171.343 85.912 170.319 83.32C169.327 80.728 168.831 77.688 168.831 74.2C168.831 70.712 169.327 67.672 170.319 65.08C171.343 62.488 172.815 60.488 174.735 59.08C176.655 57.64 178.927 56.92 181.551 56.92C184.175 56.92 186.431 57.64 188.319 59.08C190.239 60.488 191.695 62.488 192.687 65.08C193.711 67.672 194.223 70.712 194.223 74.2C194.223 77.688 193.711 80.728 192.687 83.32C191.695 85.912 190.239 87.928 188.319 89.368C186.431 90.776 184.175 91.48 181.551 91.48ZM181.551 86.008C183.759 86.008 185.455 85.016 186.639 83.032C187.855 81.016 188.463 78.072 188.463 74.2C188.463 70.328 187.855 67.4 186.639 65.416C185.455 63.4 183.759 62.392 181.551 62.392C179.343 62.392 177.631 63.4 176.415 65.416C175.231 67.4 174.639 70.328 174.639 74.2C174.639 78.072 175.231 81.016 176.415 83.032C177.631 85.016 179.343 86.008 181.551 86.008ZM219.681 57.4V61.24L205.521 91H199.233L212.817 62.824H196.833V57.4H219.681Z" fill="#4F6D5D"></path>
  <path d="M151.94 105.2V115H149.868V105.2H151.94ZM155.434 109.022C155.649 108.686 155.915 108.429 156.232 108.252C156.55 108.075 156.904 107.986 157.296 107.986C158.174 107.986 158.86 108.266 159.354 108.826C159.858 109.377 160.11 110.137 160.11 111.108V115H158.136V111.36C158.136 110.912 158.01 110.553 157.758 110.282C157.516 110.011 157.194 109.876 156.792 109.876C156.382 109.876 156.05 110.011 155.798 110.282C155.556 110.553 155.434 110.912 155.434 111.36V115H153.46V108.126H155.434V109.022ZM164.765 115.098C163.943 115.098 163.285 114.841 162.791 114.328C162.305 113.815 162.063 113.105 162.063 112.2V110.002H160.789V108.126H162.063V106.32H164.037V108.126H165.731V110.002H164.037V112.172C164.037 112.527 164.144 112.793 164.359 112.97C164.573 113.147 164.863 113.236 165.227 113.236C165.423 113.236 165.591 113.217 165.731 113.18V115C165.479 115.065 165.157 115.098 164.765 115.098ZM169.929 115.14C169.267 115.14 168.66 114.981 168.109 114.664C167.559 114.347 167.125 113.913 166.807 113.362C166.49 112.802 166.331 112.191 166.331 111.528C166.331 110.875 166.485 110.277 166.793 109.736C167.111 109.195 167.54 108.77 168.081 108.462C168.632 108.145 169.239 107.986 169.901 107.986C170.517 107.986 171.082 108.135 171.595 108.434C172.118 108.723 172.529 109.125 172.827 109.638C173.135 110.151 173.289 110.721 173.289 111.346C173.289 111.607 173.275 111.85 173.247 112.074H168.165C168.24 112.513 168.431 112.858 168.739 113.11C169.057 113.362 169.444 113.488 169.901 113.488C170.265 113.488 170.564 113.418 170.797 113.278C171.04 113.129 171.194 112.933 171.259 112.69H173.191C173.079 113.437 172.725 114.034 172.127 114.482C171.53 114.921 170.797 115.14 169.929 115.14ZM171.217 110.758C171.18 110.422 171.026 110.147 170.755 109.932C170.494 109.717 170.177 109.61 169.803 109.61C169.421 109.61 169.094 109.708 168.823 109.904C168.553 110.091 168.361 110.375 168.249 110.758H171.217ZM174.392 108.126H176.366V108.938C176.562 108.639 176.814 108.406 177.122 108.238C177.43 108.07 177.771 107.986 178.144 107.986C178.293 107.986 178.508 108.014 178.788 108.07V109.862C178.527 109.797 178.293 109.764 178.088 109.764C177.584 109.764 177.169 109.923 176.842 110.24C176.525 110.548 176.366 111.005 176.366 111.612V115H174.392V108.126ZM181.698 109.022C181.913 108.686 182.179 108.429 182.496 108.252C182.813 108.075 183.168 107.986 183.56 107.986C184.437 107.986 185.123 108.266 185.618 108.826C186.122 109.377 186.374 110.137 186.374 111.108V115H184.4V111.36C184.4 110.912 184.274 110.553 184.022 110.282C183.779 110.011 183.457 109.876 183.056 109.876C182.645 109.876 182.314 110.011 182.062 110.282C181.819 110.553 181.698 110.912 181.698 111.36V115H179.724V108.126H181.698V109.022ZM194.749 115H192.775V114.034C192.533 114.398 192.229 114.673 191.865 114.86C191.501 115.047 191.081 115.14 190.605 115.14C190.027 115.14 189.49 114.981 188.995 114.664C188.51 114.337 188.123 113.899 187.833 113.348C187.553 112.797 187.413 112.2 187.413 111.556C187.413 110.912 187.553 110.315 187.833 109.764C188.123 109.213 188.51 108.779 188.995 108.462C189.49 108.145 190.027 107.986 190.605 107.986C191.081 107.986 191.501 108.079 191.865 108.266C192.229 108.453 192.533 108.728 192.775 109.092V108.126H194.749V115ZM191.053 113.25C191.539 113.25 191.945 113.091 192.271 112.774C192.607 112.447 192.775 112.041 192.775 111.556C192.775 111.08 192.607 110.679 192.271 110.352C191.945 110.025 191.539 109.862 191.053 109.862C190.577 109.862 190.171 110.03 189.835 110.366C189.509 110.693 189.345 111.089 189.345 111.556C189.345 112.032 189.509 112.433 189.835 112.76C190.171 113.087 190.577 113.25 191.053 113.25ZM199.601 115.098C198.779 115.098 198.121 114.841 197.627 114.328C197.141 113.815 196.899 113.105 196.899 112.2V110.002H195.625V108.126H196.899V106.32H198.873V108.126H200.567V110.002H198.873V112.172C198.873 112.527 198.98 112.793 199.195 112.97C199.409 113.147 199.699 113.236 200.063 113.236C200.259 113.236 200.427 113.217 200.567 113.18V115C200.315 115.065 199.993 115.098 199.601 115.098ZM203.628 108.126V115H201.654V108.126H203.628ZM202.634 107.188C202.307 107.188 202.022 107.071 201.78 106.838C201.546 106.605 201.43 106.325 201.43 105.998C201.43 105.671 201.546 105.391 201.78 105.158C202.022 104.915 202.307 104.794 202.634 104.794C202.97 104.794 203.254 104.915 203.488 105.158C203.721 105.391 203.838 105.671 203.838 105.998C203.838 106.325 203.721 106.605 203.488 106.838C203.254 107.071 202.97 107.188 202.634 107.188ZM208.306 107.986C208.968 107.986 209.57 108.145 210.112 108.462C210.662 108.77 211.092 109.199 211.4 109.75C211.717 110.291 211.876 110.898 211.876 111.57C211.876 112.242 211.717 112.849 211.4 113.39C211.092 113.931 210.662 114.361 210.112 114.678C209.57 114.986 208.968 115.14 208.306 115.14C207.634 115.14 207.027 114.986 206.486 114.678C205.944 114.361 205.515 113.931 205.198 113.39C204.89 112.849 204.736 112.242 204.736 111.57C204.736 110.898 204.89 110.291 205.198 109.75C205.515 109.199 205.944 108.77 206.486 108.462C207.027 108.145 207.634 107.986 208.306 107.986ZM208.306 109.876C207.839 109.876 207.447 110.039 207.13 110.366C206.812 110.683 206.654 111.085 206.654 111.57C206.654 112.046 206.812 112.447 207.13 112.774C207.447 113.091 207.839 113.25 208.306 113.25C208.772 113.25 209.16 113.091 209.468 112.774C209.785 112.447 209.944 112.046 209.944 111.57C209.944 111.085 209.785 110.683 209.468 110.366C209.16 110.039 208.772 109.876 208.306 109.876ZM214.962 109.022C215.176 108.686 215.442 108.429 215.76 108.252C216.077 108.075 216.432 107.986 216.824 107.986C217.701 107.986 218.387 108.266 218.882 108.826C219.386 109.377 219.638 110.137 219.638 111.108V115H217.664V111.36C217.664 110.912 217.538 110.553 217.286 110.282C217.043 110.011 216.721 109.876 216.32 109.876C215.909 109.876 215.578 110.011 215.326 110.282C215.083 110.553 214.962 110.912 214.962 111.36V115H212.988V108.126H214.962V109.022ZM228.013 115H226.039V114.034C225.796 114.398 225.493 114.673 225.129 114.86C224.765 115.047 224.345 115.14 223.869 115.14C223.29 115.14 222.754 114.981 222.259 114.664C221.774 114.337 221.386 113.899 221.097 113.348C220.817 112.797 220.677 112.2 220.677 111.556C220.677 110.912 220.817 110.315 221.097 109.764C221.386 109.213 221.774 108.779 222.259 108.462C222.754 108.145 223.29 107.986 223.869 107.986C224.345 107.986 224.765 108.079 225.129 108.266C225.493 108.453 225.796 108.728 226.039 109.092V108.126H228.013V115ZM224.317 113.25C224.802 113.25 225.208 113.091 225.535 112.774C225.871 112.447 226.039 112.041 226.039 111.556C226.039 111.08 225.871 110.679 225.535 110.352C225.208 110.025 224.802 109.862 224.317 109.862C223.841 109.862 223.435 110.03 223.099 110.366C222.772 110.693 222.609 111.089 222.609 111.556C222.609 112.032 222.772 112.433 223.099 112.76C223.435 113.087 223.841 113.25 224.317 113.25ZM229.462 105.2H231.436V115H229.462V105.2ZM153.228 122.2C154.152 122.2 154.992 122.41 155.748 122.83C156.504 123.25 157.097 123.833 157.526 124.58C157.965 125.317 158.184 126.143 158.184 127.058C158.184 127.991 157.965 128.836 157.526 129.592C157.097 130.339 156.504 130.927 155.748 131.356C154.992 131.785 154.152 132 153.228 132H149.868V122.2H153.228ZM153.368 130.012C153.881 130.012 154.339 129.886 154.74 129.634C155.151 129.373 155.473 129.018 155.706 128.57C155.939 128.122 156.056 127.618 156.056 127.058C156.056 126.507 155.939 126.017 155.706 125.588C155.482 125.149 155.165 124.809 154.754 124.566C154.343 124.314 153.881 124.188 153.368 124.188H151.94V130.012H153.368ZM162.56 132.14C161.898 132.14 161.291 131.981 160.74 131.664C160.19 131.347 159.756 130.913 159.438 130.362C159.121 129.802 158.962 129.191 158.962 128.528C158.962 127.875 159.116 127.277 159.424 126.736C159.742 126.195 160.171 125.77 160.712 125.462C161.263 125.145 161.87 124.986 162.532 124.986C163.148 124.986 163.713 125.135 164.226 125.434C164.749 125.723 165.16 126.125 165.458 126.638C165.766 127.151 165.92 127.721 165.92 128.346C165.92 128.607 165.906 128.85 165.878 129.074H160.796C160.871 129.513 161.062 129.858 161.37 130.11C161.688 130.362 162.075 130.488 162.532 130.488C162.896 130.488 163.195 130.418 163.428 130.278C163.671 130.129 163.825 129.933 163.89 129.69H165.822C165.71 130.437 165.356 131.034 164.758 131.482C164.161 131.921 163.428 132.14 162.56 132.14ZM163.848 127.758C163.811 127.422 163.657 127.147 163.386 126.932C163.125 126.717 162.808 126.61 162.434 126.61C162.052 126.61 161.725 126.708 161.454 126.904C161.184 127.091 160.992 127.375 160.88 127.758H163.848ZM169.809 132.14C168.904 132.14 168.166 131.921 167.597 131.482C167.037 131.043 166.72 130.437 166.645 129.662H168.535C168.554 129.895 168.675 130.082 168.899 130.222C169.123 130.362 169.398 130.432 169.725 130.432C170.014 130.432 170.238 130.385 170.397 130.292C170.556 130.189 170.635 130.063 170.635 129.914C170.635 129.727 170.528 129.592 170.313 129.508C170.108 129.424 169.781 129.345 169.333 129.27C168.82 129.177 168.39 129.074 168.045 128.962C167.709 128.85 167.415 128.659 167.163 128.388C166.92 128.117 166.799 127.739 166.799 127.254C166.799 126.825 166.906 126.437 167.121 126.092C167.345 125.747 167.662 125.476 168.073 125.28C168.493 125.084 168.978 124.986 169.529 124.986C170.304 124.986 170.971 125.187 171.531 125.588C172.1 125.989 172.427 126.559 172.511 127.296H170.523C170.504 127.119 170.402 126.969 170.215 126.848C170.028 126.717 169.781 126.652 169.473 126.652C169.24 126.652 169.053 126.694 168.913 126.778C168.773 126.853 168.703 126.969 168.703 127.128C168.703 127.296 168.796 127.417 168.983 127.492C169.179 127.567 169.496 127.646 169.935 127.73C170.467 127.823 170.906 127.931 171.251 128.052C171.606 128.164 171.914 128.369 172.175 128.668C172.436 128.967 172.567 129.387 172.567 129.928C172.567 130.339 172.446 130.717 172.203 131.062C171.96 131.398 171.629 131.664 171.209 131.86C170.789 132.047 170.322 132.14 169.809 132.14ZM175.669 125.126V132H173.695V125.126H175.669ZM174.675 124.188C174.348 124.188 174.063 124.071 173.821 123.838C173.587 123.605 173.471 123.325 173.471 122.998C173.471 122.671 173.587 122.391 173.821 122.158C174.063 121.915 174.348 121.794 174.675 121.794C175.011 121.794 175.295 121.915 175.529 122.158C175.762 122.391 175.879 122.671 175.879 122.998C175.879 123.325 175.762 123.605 175.529 123.838C175.295 124.071 175.011 124.188 174.675 124.188ZM180.585 134.828C180.081 134.828 179.563 134.753 179.031 134.604C178.508 134.455 178.051 134.189 177.659 133.806C177.267 133.423 177.052 132.91 177.015 132.266H178.975C179.012 132.565 179.175 132.793 179.465 132.952C179.754 133.111 180.104 133.19 180.515 133.19C180.963 133.19 181.35 133.059 181.677 132.798C182.003 132.537 182.167 132.201 182.167 131.79V130.838C181.672 131.566 180.949 131.93 179.997 131.93C179.409 131.93 178.867 131.776 178.373 131.468C177.887 131.151 177.5 130.726 177.211 130.194C176.931 129.662 176.791 129.083 176.791 128.458C176.791 127.823 176.931 127.24 177.211 126.708C177.5 126.176 177.887 125.756 178.373 125.448C178.867 125.14 179.409 124.986 179.997 124.986C180.949 124.986 181.672 125.345 182.167 126.064V125.126H184.141V131.706C184.141 132.341 183.982 132.891 183.665 133.358C183.357 133.834 182.932 134.198 182.391 134.45C181.859 134.702 181.257 134.828 180.585 134.828ZM180.445 130.11C180.93 130.11 181.336 129.951 181.663 129.634C181.999 129.317 182.167 128.925 182.167 128.458C182.167 127.982 181.999 127.585 181.663 127.268C181.336 126.951 180.93 126.792 180.445 126.792C179.969 126.792 179.563 126.955 179.227 127.282C178.891 127.599 178.723 127.991 178.723 128.458C178.723 128.915 178.891 129.307 179.227 129.634C179.563 129.951 179.969 130.11 180.445 130.11ZM187.536 126.022C187.751 125.686 188.017 125.429 188.334 125.252C188.651 125.075 189.006 124.986 189.398 124.986C190.275 124.986 190.961 125.266 191.456 125.826C191.96 126.377 192.212 127.137 192.212 128.108V132H190.238V128.36C190.238 127.912 190.112 127.553 189.86 127.282C189.617 127.011 189.295 126.876 188.894 126.876C188.483 126.876 188.152 127.011 187.9 127.282C187.657 127.553 187.536 127.912 187.536 128.36V132H185.562V125.126H187.536V126.022ZM205.058 132H202.804L202.188 130.362H198.408L197.778 132H195.58L199.472 122.2H201.152L205.058 132ZM201.488 128.556L200.312 125.448L199.108 128.556H201.488ZM204.564 125.126H206.678L207.826 128.892L209.198 125.126H210.738L212.124 128.892L213.258 125.126H215.386L212.908 132H211.354L209.968 128.234L208.568 132H207.042L204.564 125.126ZM222.914 132H220.94V131.034C220.697 131.398 220.394 131.673 220.03 131.86C219.666 132.047 219.246 132.14 218.77 132.14C218.191 132.14 217.654 131.981 217.16 131.664C216.674 131.337 216.287 130.899 215.998 130.348C215.718 129.797 215.578 129.2 215.578 128.556C215.578 127.912 215.718 127.315 215.998 126.764C216.287 126.213 216.674 125.779 217.16 125.462C217.654 125.145 218.191 124.986 218.77 124.986C219.246 124.986 219.666 125.079 220.03 125.266C220.394 125.453 220.697 125.728 220.94 126.092V125.126H222.914V132ZM219.218 130.25C219.703 130.25 220.109 130.091 220.436 129.774C220.772 129.447 220.94 129.041 220.94 128.556C220.94 128.08 220.772 127.679 220.436 127.352C220.109 127.025 219.703 126.862 219.218 126.862C218.742 126.862 218.336 127.03 218 127.366C217.673 127.693 217.51 128.089 217.51 128.556C217.51 129.032 217.673 129.433 218 129.76C218.336 130.087 218.742 130.25 219.218 130.25ZM224.363 125.126H226.337V125.938C226.533 125.639 226.785 125.406 227.093 125.238C227.401 125.07 227.741 124.986 228.115 124.986C228.264 124.986 228.479 125.014 228.759 125.07V126.862C228.497 126.797 228.264 126.764 228.059 126.764C227.555 126.764 227.139 126.923 226.813 127.24C226.495 127.548 226.337 128.005 226.337 128.612V132H224.363V125.126ZM232.25 132.14C231.671 132.14 231.135 131.981 230.64 131.664C230.155 131.337 229.767 130.899 229.478 130.348C229.198 129.797 229.058 129.2 229.058 128.556C229.058 127.912 229.198 127.315 229.478 126.764C229.767 126.213 230.155 125.779 230.64 125.462C231.135 125.145 231.671 124.986 232.25 124.986C232.726 124.986 233.146 125.079 233.51 125.266C233.874 125.453 234.177 125.728 234.42 126.092V122.2H236.394V132H234.42V131.034C234.177 131.398 233.874 131.673 233.51 131.86C233.146 132.047 232.726 132.14 232.25 132.14ZM232.698 130.25C233.193 130.25 233.603 130.091 233.93 129.774C234.257 129.447 234.42 129.041 234.42 128.556C234.42 128.08 234.252 127.679 233.916 127.352C233.589 127.025 233.183 126.862 232.698 126.862C232.222 126.862 231.816 127.03 231.48 127.366C231.153 127.693 230.99 128.089 230.99 128.556C230.99 129.032 231.153 129.433 231.48 129.76C231.816 130.087 232.222 130.25 232.698 130.25ZM240.629 132.14C239.724 132.14 238.987 131.921 238.417 131.482C237.857 131.043 237.54 130.437 237.465 129.662H239.355C239.374 129.895 239.495 130.082 239.719 130.222C239.943 130.362 240.219 130.432 240.545 130.432C240.835 130.432 241.059 130.385 241.217 130.292C241.376 130.189 241.455 130.063 241.455 129.914C241.455 129.727 241.348 129.592 241.133 129.508C240.928 129.424 240.601 129.345 240.153 129.27C239.64 129.177 239.211 129.074 238.865 128.962C238.529 128.85 238.235 128.659 237.983 128.388C237.741 128.117 237.619 127.739 237.619 127.254C237.619 126.825 237.727 126.437 237.941 126.092C238.165 125.747 238.483 125.476 238.893 125.28C239.313 125.084 239.799 124.986 240.349 124.986C241.124 124.986 241.791 125.187 242.351 125.588C242.921 125.989 243.247 126.559 243.331 127.296H241.343C241.325 127.119 241.222 126.969 241.035 126.848C240.849 126.717 240.601 126.652 240.293 126.652C240.06 126.652 239.873 126.694 239.733 126.778C239.593 126.853 239.523 126.969 239.523 127.128C239.523 127.296 239.617 127.417 239.803 127.492C239.999 127.567 240.317 127.646 240.755 127.73C241.287 127.823 241.726 127.931 242.071 128.052C242.426 128.164 242.734 128.369 242.995 128.668C243.257 128.967 243.387 129.387 243.387 129.928C243.387 130.339 243.266 130.717 243.023 131.062C242.781 131.398 242.449 131.664 242.029 131.86C241.609 132.047 241.143 132.14 240.629 132.14Z" fill="#4F6D5D"></path>
  <path d="M68.8599 99.6447C62.158 96.8729 57.4375 90.263 57.4375 82.5605V69.7939C57.4375 68.3547 58.6077 67.1953 60.0438 67.1953H67.3041" stroke="#4F6D5D" stroke-width="1.7564" stroke-miterlimit="10"></path>
  <path d="M101.742 67.1953H108.976C110.412 67.1953 111.568 68.3547 111.568 69.7939V82.5605C111.568 90.2764 106.848 96.8995 100.133 99.6447" stroke="#4F6D5D" stroke-width="1.7564" stroke-miterlimit="10"></path>
  <path d="M103.77 57.3338V61.7048C103.77 62.3844 103.225 62.9175 102.56 62.9175H66.4444C65.7663 62.9175 65.2344 62.3844 65.2344 61.7048V57.3338C65.2344 56.6675 65.7663 56.1211 66.4444 56.1211H102.56C103.225 56.1211 103.77 56.6675 103.77 57.3338Z" stroke="#4F6D5D" stroke-width="1.7564" stroke-miterlimit="10"></path>
  <path d="M101.781 111.372V114.503H67.2344V111.372C67.2344 109.346 68.8699 107.707 70.8911 107.707H98.1239C100.145 107.707 101.781 109.346 101.781 111.372Z" stroke="#4F6D5D" stroke-width="1.7564" stroke-miterlimit="10"></path>
  <path d="M102.816 78.523C102.843 82.7474 101.327 92.5689 100.13 99.6451C99.359 104.256 98.7207 107.707 98.7207 107.707H70.2778C70.2778 107.707 69.6263 104.243 68.855 99.6451C67.6849 92.6621 66.1956 83.0406 66.1956 78.8961C66.1823 74.3386 66.6876 70.3807 67.2992 67.1957C67.6184 65.5432 67.9641 64.1173 68.2965 62.918H100.808C101.128 64.144 101.447 65.5699 101.739 67.1957C102.324 70.314 102.79 74.1387 102.816 78.523Z" stroke="#4F6D5D" stroke-width="1.7564" stroke-miterlimit="10"></path>
  <path d="M106.368 114.504H62.6328V123.299H106.368V114.504Z" stroke="#4F6D5D" stroke-width="1.7564" stroke-miterlimit="10"></path>
</svg>
