<?xml version="1.0" encoding="UTF-8"?>
<svg xmlns="http://www.w3.org/2000/svg" width="326" height="163" viewBox="0 0 326 163" fill="none">
  <rect width="326" height="163" rx="20" fill="#4F6D5D"></rect>
  <path d="M143.58 83.95C144.486 83.4292 145.492 83.1688 146.599 83.1688C147.706 83.1688 148.709 83.4292 149.61 83.95C150.516 84.4707 151.226 85.1895 151.742 86.1063C152.257 87.0176 152.515 88.032 152.515 89.1495C152.515 90.2724 152.257 91.295 151.742 92.2172C151.226 93.1339 150.516 93.8554 149.61 94.3816C148.709 94.9024 147.706 95.1627 146.599 95.1627C145.492 95.1627 144.486 94.9024 143.58 94.3816C142.674 93.8554 141.961 93.1339 141.44 92.2172C140.925 91.295 140.667 90.2724 140.667 89.1495C140.667 88.032 140.925 87.0176 141.44 86.1063C141.961 85.1895 142.674 84.4707 143.58 83.95ZM146.599 85.0647C145.487 85.0647 144.557 85.4553 143.808 86.2365C143.06 87.0176 142.685 87.9886 142.685 89.1495C142.685 90.3158 143.06 91.295 143.808 92.087C144.557 92.8735 145.487 93.2668 146.599 93.2668C147.706 93.2668 148.633 92.8735 149.382 92.087C150.136 91.295 150.513 90.3158 150.513 89.1495C150.513 87.9886 150.136 87.0176 149.382 86.2365C148.633 85.4553 147.706 85.0647 146.599 85.0647ZM160.001 86.8549H161.864V95H160.001V93.7144C159.74 94.1809 159.401 94.5389 158.984 94.7884C158.566 95.038 158.089 95.1627 157.551 95.1627C156.499 95.1627 155.672 94.8373 155.07 94.1863C154.468 93.5299 154.166 92.6294 154.166 91.4848V86.8549H156.014V91.2651C156.014 91.9052 156.195 92.4179 156.559 92.803C156.922 93.1882 157.402 93.3807 157.999 93.3807C158.601 93.3807 159.084 93.1882 159.447 92.803C159.816 92.4179 160.001 91.9052 160.001 91.2651V86.8549ZM167.861 86.684C168.04 86.684 168.298 86.7166 168.634 86.7816V88.4823C168.319 88.4063 168.045 88.3684 167.812 88.3684C167.199 88.3684 166.687 88.5718 166.274 88.9786C165.867 89.3855 165.664 89.9415 165.664 90.6467V95H163.817V86.8549H165.664V87.9371C166.179 87.1017 166.912 86.684 167.861 86.684ZM179.18 95.1627C178.36 95.1627 177.587 95.0081 176.861 94.6989C176.134 94.3897 175.51 93.9693 174.989 93.4377C174.474 92.9061 174.064 92.2687 173.76 91.5255C173.462 90.7823 173.313 89.9903 173.313 89.1495C173.313 88.3141 173.462 87.5275 173.76 86.7898C174.064 86.0466 174.474 85.4119 174.989 84.8857C175.51 84.3541 176.134 83.9364 176.861 83.6326C177.587 83.3234 178.36 83.1688 179.18 83.1688C180.064 83.1688 180.896 83.3451 181.678 83.6977C182.464 84.0503 183.115 84.544 183.63 85.1787C184.151 85.8079 184.471 86.5158 184.591 87.3024H182.442C182.253 86.6406 181.857 86.1036 181.254 85.6913C180.652 85.2736 179.961 85.0647 179.18 85.0647C178.089 85.0647 177.175 85.4553 176.437 86.2365C175.7 87.0176 175.331 87.9886 175.331 89.1495C175.331 90.3158 175.7 91.295 176.437 92.087C177.175 92.8735 178.089 93.2668 179.18 93.2668C179.972 93.2668 180.671 93.0471 181.279 92.6077C181.892 92.1629 182.285 91.5879 182.459 90.8827H184.631C184.398 92.1466 183.774 93.1773 182.76 93.9747C181.751 94.7667 180.557 95.1627 179.18 95.1627ZM188.789 83.95C189.695 83.4292 190.702 83.1688 191.808 83.1688C192.915 83.1688 193.918 83.4292 194.819 83.95C195.725 84.4707 196.435 85.1895 196.951 86.1063C197.466 87.0176 197.724 88.032 197.724 89.1495C197.724 90.2724 197.466 91.295 196.951 92.2172C196.435 93.1339 195.725 93.8554 194.819 94.3816C193.918 94.9024 192.915 95.1627 191.808 95.1627C190.702 95.1627 189.695 94.9024 188.789 94.3816C187.883 93.8554 187.17 93.1339 186.649 92.2172C186.134 91.295 185.876 90.2724 185.876 89.1495C185.876 88.032 186.134 87.0176 186.649 86.1063C187.17 85.1895 187.883 84.4707 188.789 83.95ZM191.808 85.0647C190.696 85.0647 189.766 85.4553 189.017 86.2365C188.269 87.0176 187.894 87.9886 187.894 89.1495C187.894 90.3158 188.269 91.295 189.017 92.087C189.766 92.8735 190.696 93.2668 191.808 93.2668C192.915 93.2668 193.842 92.8735 194.591 92.087C195.345 91.295 195.722 90.3158 195.722 89.1495C195.722 87.9886 195.345 87.0176 194.591 86.2365C193.842 85.4553 192.915 85.0647 191.808 85.0647ZM199.123 95V93.5842L203.192 89.5645C203.637 89.1251 203.973 88.7725 204.201 88.5067C204.429 88.2409 204.613 87.9615 204.754 87.6686C204.901 87.3756 204.974 87.08 204.974 86.7816C204.974 86.2826 204.792 85.873 204.429 85.553C204.065 85.2275 203.612 85.0647 203.07 85.0647C202.408 85.0647 201.89 85.2763 201.516 85.6994C201.141 86.1171 200.965 86.684 200.987 87.4001H199.026C198.988 86.1415 199.354 85.1217 200.124 84.3406C200.894 83.5594 201.89 83.1688 203.11 83.1688C204.228 83.1688 205.15 83.5052 205.877 84.1778C206.609 84.845 206.975 85.6967 206.975 86.7328C206.975 87.4163 206.772 88.0781 206.365 88.7183C205.964 89.3584 205.367 90.0527 204.575 90.8013L202.272 93.1041H207.057V95H199.123ZM220.125 90.7525C220.125 91.1268 220.109 91.3872 220.076 91.5336H213.827C213.946 92.1412 214.212 92.6186 214.624 92.9658C215.037 93.3129 215.565 93.4865 216.211 93.4865C216.71 93.4865 217.139 93.378 217.497 93.161C217.86 92.9441 218.082 92.662 218.164 92.3148H220.027C219.875 93.1719 219.447 93.8608 218.742 94.3816C218.036 94.9024 217.182 95.1627 216.178 95.1627C215.392 95.1627 214.676 94.9783 214.03 94.6094C213.385 94.2351 212.875 93.7198 212.501 93.0634C212.132 92.407 211.947 91.6801 211.947 90.8827C211.947 90.107 212.132 89.399 212.501 88.7589C212.875 88.1134 213.382 87.6062 214.022 87.2373C214.668 86.8684 215.376 86.684 216.146 86.684C216.873 86.684 217.537 86.8549 218.139 87.1966C218.747 87.5384 219.23 88.0239 219.588 88.6532C219.946 89.277 220.125 89.9768 220.125 90.7525ZM213.876 89.9469H218.107C218.026 89.475 217.798 89.0953 217.423 88.8078C217.055 88.5148 216.593 88.3684 216.04 88.3684C215.492 88.3684 215.028 88.5067 214.649 88.7833C214.269 89.06 214.011 89.4479 213.876 89.9469ZM231.118 86.684C232.111 86.684 232.913 86.9878 233.526 87.5953C234.145 88.1975 234.454 89.0058 234.454 90.0202V95H232.566V90.4352C232.566 89.8222 232.409 89.3421 232.094 88.9949C231.78 88.6423 231.348 88.466 230.801 88.466C230.296 88.466 229.868 88.6315 229.515 88.9624C229.162 89.2933 228.986 89.7842 228.986 90.4352V95H227.123V90.4352C227.123 89.8222 226.963 89.3421 226.643 88.9949C226.323 88.6423 225.886 88.466 225.333 88.466C224.833 88.466 224.405 88.6315 224.047 88.9624C223.694 89.2933 223.518 89.7842 223.518 90.4352V95H221.671V86.8549H223.518V88.0022C223.795 87.5411 224.155 87.2075 224.6 87.0013C225.05 86.7898 225.517 86.684 226 86.684C227.199 86.684 228.039 87.1614 228.522 88.1161C228.75 87.6767 229.1 87.3295 229.572 87.0746C230.044 86.8142 230.559 86.684 231.118 86.684ZM236.496 83.4211C236.73 83.1878 237.009 83.0712 237.335 83.0712C237.66 83.0712 237.939 83.1878 238.173 83.4211C238.411 83.6543 238.531 83.931 238.531 84.251C238.531 84.582 238.411 84.864 238.173 85.0973C237.939 85.3306 237.66 85.4472 237.335 85.4472C237.009 85.4472 236.73 85.3306 236.496 85.0973C236.263 84.864 236.147 84.582 236.147 84.251C236.147 83.931 236.263 83.6543 236.496 83.4211ZM236.399 86.8549H238.246V95H236.399V86.8549ZM243.242 95.1627C242.233 95.1627 241.406 94.9159 240.76 94.4223C240.115 93.9286 239.751 93.2478 239.67 92.3799H241.452C241.484 92.7325 241.658 93.02 241.973 93.2424C242.287 93.4594 242.675 93.5679 243.136 93.5679C243.581 93.5679 243.931 93.4811 244.186 93.3075C244.441 93.1339 244.568 92.9034 244.568 92.6159C244.568 92.3826 244.482 92.1927 244.308 92.0463C244.134 91.8944 243.909 91.7832 243.633 91.7127C243.356 91.6367 243.049 91.5689 242.713 91.5092C242.382 91.4496 242.049 91.3736 241.712 91.2814C241.376 91.1892 241.069 91.0698 240.793 90.9234C240.516 90.7715 240.291 90.5491 240.117 90.2561C239.944 89.9578 239.857 89.5998 239.857 89.1821C239.857 88.4606 240.136 87.8639 240.695 87.3919C241.259 86.92 242.008 86.684 242.941 86.684C243.82 86.684 244.571 86.9091 245.195 87.3594C245.819 87.8096 246.177 88.4335 246.269 89.2309H244.406C244.362 88.9434 244.205 88.7074 243.934 88.523C243.662 88.3331 243.321 88.2382 242.908 88.2382C242.54 88.2382 242.238 88.3141 242.005 88.466C241.772 88.6125 241.655 88.8132 241.655 89.0681C241.655 89.2634 241.723 89.4262 241.859 89.5564C241.994 89.6866 242.173 89.7815 242.396 89.8412C242.618 89.8954 242.87 89.9524 243.153 90.012C243.435 90.0717 243.725 90.1259 244.023 90.1748C244.322 90.2236 244.612 90.3077 244.894 90.427C245.176 90.5409 245.428 90.6793 245.651 90.842C245.873 91.0047 246.052 91.238 246.188 91.5418C246.323 91.8401 246.391 92.1927 246.391 92.5996C246.391 93.3319 246.09 93.9422 245.488 94.4304C244.891 94.9186 244.143 95.1627 243.242 95.1627ZM250.858 95.1627C249.849 95.1627 249.022 94.9159 248.376 94.4223C247.731 93.9286 247.367 93.2478 247.286 92.3799H249.068C249.101 92.7325 249.274 93.02 249.589 93.2424C249.903 93.4594 250.291 93.5679 250.752 93.5679C251.197 93.5679 251.547 93.4811 251.802 93.3075C252.057 93.1339 252.185 92.9034 252.185 92.6159C252.185 92.3826 252.098 92.1927 251.924 92.0463C251.751 91.8944 251.525 91.7832 251.249 91.7127C250.972 91.6367 250.666 91.5689 250.329 91.5092C249.998 91.4496 249.665 91.3736 249.328 91.2814C248.992 91.1892 248.686 91.0698 248.409 90.9234C248.132 90.7715 247.907 90.5491 247.734 90.2561C247.56 89.9578 247.473 89.5998 247.473 89.1821C247.473 88.4606 247.753 87.8639 248.311 87.3919C248.876 86.92 249.624 86.684 250.557 86.684C251.436 86.684 252.187 86.9091 252.811 87.3594C253.435 87.8096 253.793 88.4335 253.885 89.2309H252.022C251.978 88.9434 251.821 88.7074 251.55 88.523C251.279 88.3331 250.937 88.2382 250.525 88.2382C250.156 88.2382 249.855 88.3141 249.621 88.466C249.388 88.6125 249.272 88.8132 249.272 89.0681C249.272 89.2634 249.339 89.4262 249.475 89.5564C249.611 89.6866 249.79 89.7815 250.012 89.8412C250.234 89.8954 250.487 89.9524 250.769 90.012C251.051 90.0717 251.341 90.1259 251.639 90.1748C251.938 90.2236 252.228 90.3077 252.51 90.427C252.792 90.5409 253.044 90.6793 253.267 90.842C253.489 91.0047 253.668 91.238 253.804 91.5418C253.939 91.8401 254.007 92.1927 254.007 92.5996C254.007 93.3319 253.706 93.9422 253.104 94.4304C252.507 94.9186 251.759 95.1627 250.858 95.1627ZM255.635 83.4211C255.868 83.1878 256.147 83.0712 256.473 83.0712C256.798 83.0712 257.078 83.1878 257.311 83.4211C257.55 83.6543 257.669 83.931 257.669 84.251C257.669 84.582 257.55 84.864 257.311 85.0973C257.078 85.3306 256.798 85.4472 256.473 85.4472C256.147 85.4472 255.868 85.3306 255.635 85.0973C255.401 84.864 255.285 84.582 255.285 84.251C255.285 83.931 255.401 83.6543 255.635 83.4211ZM255.537 86.8549H257.384V95H255.537V86.8549ZM260.143 87.9046C260.951 87.0909 261.952 86.684 263.145 86.684C264.338 86.684 265.342 87.0909 266.156 87.9046C266.969 88.7183 267.376 89.7272 267.376 90.9315C267.376 92.1358 266.969 93.1421 266.156 93.9503C265.342 94.7586 264.338 95.1627 263.145 95.1627C261.952 95.1627 260.951 94.7586 260.143 93.9503C259.334 93.1421 258.93 92.1358 258.93 90.9315C258.93 89.7272 259.334 88.7183 260.143 87.9046ZM264.854 89.1739C264.393 88.702 263.823 88.466 263.145 88.466C262.467 88.466 261.9 88.702 261.444 89.1739C260.989 89.6459 260.761 90.2317 260.761 90.9315C260.761 91.6259 260.989 92.209 261.444 92.681C261.906 93.1475 262.472 93.3807 263.145 93.3807C263.823 93.3807 264.393 93.1448 264.854 92.6728C265.315 92.2009 265.545 91.6204 265.545 90.9315C265.545 90.2317 265.315 89.6459 264.854 89.1739ZM273.243 86.684C274.285 86.684 275.109 87.0122 275.717 87.6686C276.324 88.325 276.628 89.22 276.628 90.3538V95H274.765V90.5816C274.765 89.9415 274.583 89.4289 274.22 89.0437C273.861 88.6586 273.387 88.466 272.796 88.466C272.183 88.466 271.692 88.6586 271.323 89.0437C270.959 89.4289 270.778 89.9415 270.778 90.5816V95H268.93V86.8549H270.778V88.1324C271.038 87.6713 271.38 87.316 271.803 87.0664C272.226 86.8115 272.706 86.684 273.243 86.684ZM281.616 95.1627C280.607 95.1627 279.78 94.9159 279.134 94.4223C278.489 93.9286 278.125 93.2478 278.044 92.3799H279.826C279.858 92.7325 280.032 93.02 280.347 93.2424C280.661 93.4594 281.049 93.5679 281.51 93.5679C281.955 93.5679 282.305 93.4811 282.56 93.3075C282.815 93.1339 282.942 92.9034 282.942 92.6159C282.942 92.3826 282.856 92.1927 282.682 92.0463C282.508 91.8944 282.283 91.7832 282.007 91.7127C281.73 91.6367 281.423 91.5689 281.087 91.5092C280.756 91.4496 280.423 91.3736 280.086 91.2814C279.75 91.1892 279.443 91.0698 279.167 90.9234C278.89 90.7715 278.665 90.5491 278.491 90.2561C278.318 89.9578 278.231 89.5998 278.231 89.1821C278.231 88.4606 278.51 87.8639 279.069 87.3919C279.633 86.92 280.382 86.684 281.315 86.684C282.194 86.684 282.945 86.9091 283.569 87.3594C284.193 87.8096 284.551 88.4335 284.643 89.2309H282.78C282.736 88.9434 282.579 88.7074 282.308 88.523C282.036 88.3331 281.695 88.2382 281.282 88.2382C280.914 88.2382 280.612 88.3141 280.379 88.466C280.146 88.6125 280.029 88.8132 280.029 89.0681C280.029 89.2634 280.097 89.4262 280.233 89.5564C280.368 89.6866 280.547 89.7815 280.77 89.8412C280.992 89.8954 281.244 89.9524 281.527 90.012C281.809 90.0717 282.099 90.1259 282.397 90.1748C282.696 90.2236 282.986 90.3077 283.268 90.427C283.55 90.5409 283.802 90.6793 284.025 90.842C284.247 91.0047 284.426 91.238 284.562 91.5418C284.697 91.8401 284.765 92.1927 284.765 92.5996C284.765 93.3319 284.464 93.9422 283.862 94.4304C283.265 94.9186 282.517 95.1627 281.616 95.1627ZM143.149 115L140.203 106.855H142.197L143.898 112.152L145.818 106.855H147.283L149.219 112.152L150.912 106.855H152.913L149.968 115H148.479L146.55 109.719L144.614 115H143.149ZM161.506 110.752C161.506 111.127 161.49 111.387 161.457 111.534H155.208C155.327 112.141 155.593 112.619 156.005 112.966C156.418 113.313 156.947 113.487 157.592 113.487C158.091 113.487 158.52 113.378 158.878 113.161C159.241 112.944 159.464 112.662 159.545 112.315H161.408C161.257 113.172 160.828 113.861 160.123 114.382C159.418 114.902 158.563 115.163 157.56 115.163C156.773 115.163 156.057 114.978 155.411 114.609C154.766 114.235 154.256 113.72 153.882 113.063C153.513 112.407 153.328 111.68 153.328 110.883C153.328 110.107 153.513 109.399 153.882 108.759C154.256 108.113 154.763 107.606 155.403 107.237C156.049 106.868 156.757 106.684 157.527 106.684C158.254 106.684 158.918 106.855 159.521 107.197C160.128 107.538 160.611 108.024 160.969 108.653C161.327 109.277 161.506 109.977 161.506 110.752ZM155.257 109.947H159.488C159.407 109.475 159.179 109.095 158.805 108.808C158.436 108.515 157.975 108.368 157.421 108.368C156.873 108.368 156.41 108.507 156.03 108.783C155.65 109.06 155.392 109.448 155.257 109.947ZM167.096 106.684C167.275 106.684 167.533 106.717 167.869 106.782V108.482C167.555 108.406 167.281 108.368 167.047 108.368C166.434 108.368 165.922 108.572 165.509 108.979C165.103 109.385 164.899 109.942 164.899 110.647V115H163.052V106.855H164.899V107.937C165.415 107.102 166.147 106.684 167.096 106.684ZM176.332 110.752C176.332 111.127 176.315 111.387 176.283 111.534H170.034C170.153 112.141 170.419 112.619 170.831 112.966C171.243 113.313 171.772 113.487 172.418 113.487C172.917 113.487 173.345 113.378 173.703 113.161C174.067 112.944 174.289 112.662 174.371 112.315H176.234C176.082 113.172 175.654 113.861 174.948 114.382C174.243 114.902 173.389 115.163 172.385 115.163C171.599 115.163 170.883 114.978 170.237 114.609C169.591 114.235 169.082 113.72 168.707 113.063C168.338 112.407 168.154 111.68 168.154 110.883C168.154 110.107 168.338 109.399 168.707 108.759C169.082 108.113 169.589 107.606 170.229 107.237C170.874 106.868 171.582 106.684 172.353 106.684C173.08 106.684 173.744 106.855 174.346 107.197C174.954 107.538 175.437 108.024 175.795 108.653C176.153 109.277 176.332 109.977 176.332 110.752ZM170.082 109.947H174.314C174.232 109.475 174.004 109.095 173.63 108.808C173.261 108.515 172.8 108.368 172.247 108.368C171.699 108.368 171.235 108.507 170.855 108.783C170.476 109.06 170.218 109.448 170.082 109.947ZM187.902 103.332H189.774V115H187.902V113.568C187.604 114.083 187.211 114.479 186.723 114.756C186.234 115.027 185.667 115.163 185.022 115.163C184.311 115.163 183.658 114.976 183.061 114.601C182.464 114.222 181.992 113.706 181.645 113.055C181.298 112.399 181.124 111.686 181.124 110.915C181.124 110.145 181.298 109.434 181.645 108.783C181.992 108.132 182.464 107.62 183.061 107.245C183.658 106.871 184.311 106.684 185.022 106.684C185.667 106.684 186.234 106.822 186.723 107.099C187.211 107.376 187.604 107.772 187.902 108.287V103.332ZM185.421 113.397C186.126 113.397 186.714 113.161 187.186 112.689C187.664 112.212 187.902 111.62 187.902 110.915C187.902 110.215 187.664 109.63 187.186 109.158C186.714 108.686 186.126 108.45 185.421 108.45C184.732 108.45 184.149 108.691 183.671 109.174C183.194 109.651 182.955 110.232 182.955 110.915C182.955 111.61 183.194 112.198 183.671 112.681C184.149 113.158 184.732 113.397 185.421 113.397ZM192.394 107.905C193.202 107.091 194.203 106.684 195.397 106.684C196.59 106.684 197.594 107.091 198.407 107.905C199.221 108.718 199.628 109.727 199.628 110.932C199.628 112.136 199.221 113.142 198.407 113.95C197.594 114.759 196.59 115.163 195.397 115.163C194.203 115.163 193.202 114.759 192.394 113.95C191.586 113.142 191.182 112.136 191.182 110.932C191.182 109.727 191.586 108.718 192.394 107.905ZM197.105 109.174C196.644 108.702 196.075 108.466 195.397 108.466C194.718 108.466 194.152 108.702 193.696 109.174C193.24 109.646 193.012 110.232 193.012 110.932C193.012 111.626 193.24 112.209 193.696 112.681C194.157 113.147 194.724 113.381 195.397 113.381C196.075 113.381 196.644 113.145 197.105 112.673C197.566 112.201 197.797 111.62 197.797 110.932C197.797 110.232 197.566 109.646 197.105 109.174ZM202.972 115L200.027 106.855H202.02L203.721 112.152L205.641 106.855H207.106L209.042 112.152L210.735 106.855H212.736L209.791 115H208.302L206.373 109.719L204.437 115H202.972ZM218.253 106.684C219.295 106.684 220.119 107.012 220.727 107.669C221.335 108.325 221.638 109.22 221.638 110.354V115H219.775V110.582C219.775 109.942 219.593 109.429 219.23 109.044C218.872 108.659 218.397 108.466 217.806 108.466C217.193 108.466 216.702 108.659 216.333 109.044C215.97 109.429 215.788 109.942 215.788 110.582V115H213.941V106.855H215.788V108.132C216.048 107.671 216.39 107.316 216.813 107.066C217.236 106.811 217.716 106.684 218.253 106.684ZM232.005 106.684C233.084 106.684 234.001 107.096 234.755 107.921C235.509 108.74 235.886 109.738 235.886 110.915C235.886 111.686 235.713 112.396 235.365 113.047C235.024 113.698 234.554 114.213 233.958 114.593C233.366 114.973 232.715 115.163 232.005 115.163C231.354 115.163 230.782 115.022 230.288 114.74C229.794 114.458 229.398 114.056 229.1 113.535V115H227.253V103.332H229.1V108.32C229.398 107.793 229.794 107.389 230.288 107.107C230.782 106.825 231.354 106.684 232.005 106.684ZM231.598 113.397C232.287 113.397 232.87 113.158 233.347 112.681C233.825 112.198 234.064 111.61 234.064 110.915C234.064 110.232 233.825 109.651 233.347 109.174C232.87 108.691 232.287 108.45 231.598 108.45C230.882 108.45 230.285 108.686 229.808 109.158C229.336 109.63 229.1 110.215 229.1 110.915C229.1 111.626 229.336 112.217 229.808 112.689C230.285 113.161 230.882 113.397 231.598 113.397ZM242.632 106.855H244.633L240.028 117.864H238.034L239.499 114.569L236.269 106.855H238.262L240.451 112.404L242.632 106.855Z" fill="white"></path>
  <path d="M146.302 133.014L147.688 134.848L146.904 135.52L145.49 133.658L144.062 135.52L143.264 134.848L144.678 133.028L142.592 132.384L142.928 131.376L144.958 132.006V129.92H146.008V132.006L148.024 131.376L148.374 132.384L146.302 133.014ZM155.591 130.2V131.768H151.461V134.302H155.157V135.87H151.461V140H149.823V130.2H155.591ZM156.492 133.154H158.046V134.106C158.242 133.77 158.499 133.504 158.816 133.308C159.143 133.112 159.502 133.014 159.894 133.014C160.043 133.014 160.258 133.042 160.538 133.098V134.526C160.277 134.461 160.048 134.428 159.852 134.428C159.339 134.428 158.909 134.601 158.564 134.946C158.219 135.282 158.046 135.749 158.046 136.346V140H156.492V133.154ZM164.427 133.014C165.081 133.014 165.678 133.173 166.219 133.49C166.761 133.798 167.185 134.227 167.493 134.778C167.811 135.319 167.969 135.921 167.969 136.584C167.969 137.247 167.811 137.849 167.493 138.39C167.185 138.931 166.761 139.361 166.219 139.678C165.678 139.986 165.081 140.14 164.427 140.14C163.765 140.14 163.163 139.986 162.621 139.678C162.08 139.361 161.651 138.931 161.333 138.39C161.025 137.849 160.871 137.247 160.871 136.584C160.871 135.921 161.025 135.319 161.333 134.778C161.651 134.227 162.08 133.798 162.621 133.49C163.163 133.173 163.765 133.014 164.427 133.014ZM164.427 134.498C164.054 134.498 163.709 134.591 163.391 134.778C163.083 134.955 162.836 135.207 162.649 135.534C162.472 135.851 162.383 136.201 162.383 136.584C162.383 136.967 162.472 137.317 162.649 137.634C162.836 137.942 163.083 138.189 163.391 138.376C163.709 138.553 164.054 138.642 164.427 138.642C164.801 138.642 165.141 138.553 165.449 138.376C165.757 138.189 166 137.942 166.177 137.634C166.364 137.317 166.457 136.967 166.457 136.584C166.457 136.201 166.364 135.851 166.177 135.534C166 135.207 165.753 134.955 165.435 134.778C165.127 134.591 164.791 134.498 164.427 134.498ZM180.054 140H178.472V136.164C178.472 135.651 178.337 135.249 178.066 134.96C177.805 134.661 177.446 134.512 176.988 134.512C176.568 134.512 176.209 134.652 175.91 134.932C175.612 135.212 175.462 135.623 175.462 136.164V140H173.894V136.164C173.894 135.651 173.759 135.249 173.488 134.96C173.227 134.661 172.863 134.512 172.396 134.512C171.976 134.512 171.617 134.652 171.318 134.932C171.02 135.203 170.87 135.613 170.87 136.164V140H169.316V133.154H170.87V134.12C171.104 133.728 171.407 133.448 171.78 133.28C172.154 133.103 172.546 133.014 172.956 133.014C173.955 133.014 174.66 133.415 175.07 134.218C175.266 133.845 175.56 133.551 175.952 133.336C176.354 133.121 176.788 133.014 177.254 133.014C178.085 133.014 178.757 133.271 179.27 133.784C179.793 134.288 180.054 134.965 180.054 135.814V140ZM184.65 138.81L188.066 135.436C188.616 134.895 189.004 134.461 189.228 134.134C189.452 133.807 189.564 133.471 189.564 133.126C189.564 132.697 189.414 132.347 189.116 132.076C188.826 131.796 188.453 131.656 187.996 131.656C187.436 131.656 186.992 131.833 186.666 132.188C186.348 132.543 186.199 133.019 186.218 133.616H184.566C184.547 132.916 184.678 132.295 184.958 131.754C185.247 131.213 185.658 130.797 186.19 130.508C186.722 130.209 187.324 130.06 187.996 130.06C188.612 130.06 189.167 130.191 189.662 130.452C190.156 130.704 190.544 131.059 190.824 131.516C191.104 131.964 191.244 132.477 191.244 133.056C191.244 133.625 191.071 134.181 190.726 134.722C190.39 135.263 189.89 135.847 189.228 136.472L187.296 138.404H191.314V140H184.65V138.81ZM196.235 140.14C195.47 140.14 194.807 139.935 194.247 139.524C193.687 139.104 193.258 138.516 192.959 137.76C192.67 137.004 192.525 136.117 192.525 135.1C192.525 134.083 192.67 133.196 192.959 132.44C193.258 131.684 193.687 131.101 194.247 130.69C194.807 130.27 195.47 130.06 196.235 130.06C197.001 130.06 197.659 130.27 198.209 130.69C198.769 131.101 199.194 131.684 199.483 132.44C199.782 133.196 199.931 134.083 199.931 135.1C199.931 136.117 199.782 137.004 199.483 137.76C199.194 138.516 198.769 139.104 198.209 139.524C197.659 139.935 197.001 140.14 196.235 140.14ZM196.235 138.544C196.879 138.544 197.374 138.255 197.719 137.676C198.074 137.088 198.251 136.229 198.251 135.1C198.251 133.971 198.074 133.117 197.719 132.538C197.374 131.95 196.879 131.656 196.235 131.656C195.591 131.656 195.092 131.95 194.737 132.538C194.392 133.117 194.219 133.971 194.219 135.1C194.219 136.229 194.392 137.088 194.737 137.676C195.092 138.255 195.591 138.544 196.235 138.544ZM201.151 138.81L204.567 135.436C205.118 134.895 205.505 134.461 205.729 134.134C205.953 133.807 206.065 133.471 206.065 133.126C206.065 132.697 205.916 132.347 205.617 132.076C205.328 131.796 204.955 131.656 204.497 131.656C203.937 131.656 203.494 131.833 203.167 132.188C202.85 132.543 202.701 133.019 202.719 133.616H201.067C201.049 132.916 201.179 132.295 201.459 131.754C201.749 131.213 202.159 130.797 202.691 130.508C203.223 130.209 203.825 130.06 204.497 130.06C205.113 130.06 205.669 130.191 206.163 130.452C206.658 130.704 207.045 131.059 207.325 131.516C207.605 131.964 207.745 132.477 207.745 133.056C207.745 133.625 207.573 134.181 207.227 134.722C206.891 135.263 206.392 135.847 205.729 136.472L203.797 138.404H207.815V140H201.151V138.81ZM208.999 138.81L212.415 135.436C212.966 134.895 213.353 134.461 213.577 134.134C213.801 133.807 213.913 133.471 213.913 133.126C213.913 132.697 213.764 132.347 213.465 132.076C213.176 131.796 212.802 131.656 212.345 131.656C211.785 131.656 211.342 131.833 211.015 132.188C210.698 132.543 210.548 133.019 210.567 133.616H208.915C208.896 132.916 209.027 132.295 209.307 131.754C209.596 131.213 210.007 130.797 210.539 130.508C211.071 130.209 211.673 130.06 212.345 130.06C212.961 130.06 213.516 130.191 214.011 130.452C214.506 130.704 214.893 131.059 215.173 131.516C215.453 131.964 215.593 132.477 215.593 133.056C215.593 133.625 215.42 134.181 215.075 134.722C214.739 135.263 214.24 135.847 213.577 136.472L211.645 138.404H215.663V140H208.999V138.81ZM223.243 140.084C222.468 140.084 221.852 139.855 221.395 139.398C220.947 138.931 220.723 138.273 220.723 137.424V134.638H219.421V133.154H220.723V131.32H222.291V133.154H224.083V134.638H222.291V137.396C222.291 137.816 222.403 138.124 222.627 138.32C222.86 138.516 223.177 138.614 223.579 138.614C223.775 138.614 223.943 138.595 224.083 138.558V140C223.849 140.056 223.569 140.084 223.243 140.084ZM228.289 133.014C228.942 133.014 229.539 133.173 230.081 133.49C230.622 133.798 231.047 134.227 231.355 134.778C231.672 135.319 231.831 135.921 231.831 136.584C231.831 137.247 231.672 137.849 231.355 138.39C231.047 138.931 230.622 139.361 230.081 139.678C229.539 139.986 228.942 140.14 228.289 140.14C227.626 140.14 227.024 139.986 226.483 139.678C225.941 139.361 225.512 138.931 225.195 138.39C224.887 137.849 224.733 137.247 224.733 136.584C224.733 135.921 224.887 135.319 225.195 134.778C225.512 134.227 225.941 133.798 226.483 133.49C227.024 133.173 227.626 133.014 228.289 133.014ZM228.289 134.498C227.915 134.498 227.57 134.591 227.253 134.778C226.945 134.955 226.697 135.207 226.511 135.534C226.333 135.851 226.245 136.201 226.245 136.584C226.245 136.967 226.333 137.317 226.511 137.634C226.697 137.942 226.945 138.189 227.253 138.376C227.57 138.553 227.915 138.642 228.289 138.642C228.662 138.642 229.003 138.553 229.311 138.376C229.619 138.189 229.861 137.942 230.039 137.634C230.225 137.317 230.319 136.967 230.319 136.584C230.319 136.201 230.225 135.851 230.039 135.534C229.861 135.207 229.614 134.955 229.297 134.778C228.989 134.591 228.653 134.498 228.289 134.498ZM236.138 138.81L239.554 135.436C240.104 134.895 240.492 134.461 240.716 134.134C240.94 133.807 241.052 133.471 241.052 133.126C241.052 132.697 240.902 132.347 240.604 132.076C240.314 131.796 239.941 131.656 239.484 131.656C238.924 131.656 238.48 131.833 238.154 132.188C237.836 132.543 237.687 133.019 237.706 133.616H236.054C236.035 132.916 236.166 132.295 236.446 131.754C236.735 131.213 237.146 130.797 237.678 130.508C238.21 130.209 238.812 130.06 239.484 130.06C240.1 130.06 240.655 130.191 241.15 130.452C241.644 130.704 242.032 131.059 242.312 131.516C242.592 131.964 242.732 132.477 242.732 133.056C242.732 133.625 242.559 134.181 242.214 134.722C241.878 135.263 241.378 135.847 240.716 136.472L238.784 138.404H242.802V140H236.138V138.81ZM247.723 140.14C246.958 140.14 246.295 139.935 245.735 139.524C245.175 139.104 244.746 138.516 244.447 137.76C244.158 137.004 244.013 136.117 244.013 135.1C244.013 134.083 244.158 133.196 244.447 132.44C244.746 131.684 245.175 131.101 245.735 130.69C246.295 130.27 246.958 130.06 247.723 130.06C248.489 130.06 249.147 130.27 249.697 130.69C250.257 131.101 250.682 131.684 250.971 132.44C251.27 133.196 251.419 134.083 251.419 135.1C251.419 136.117 251.27 137.004 250.971 137.76C250.682 138.516 250.257 139.104 249.697 139.524C249.147 139.935 248.489 140.14 247.723 140.14ZM247.723 138.544C248.367 138.544 248.862 138.255 249.207 137.676C249.562 137.088 249.739 136.229 249.739 135.1C249.739 133.971 249.562 133.117 249.207 132.538C248.862 131.95 248.367 131.656 247.723 131.656C247.079 131.656 246.58 131.95 246.225 132.538C245.88 133.117 245.707 133.971 245.707 135.1C245.707 136.229 245.88 137.088 246.225 137.676C246.58 138.255 247.079 138.544 247.723 138.544ZM252.64 138.81L256.056 135.436C256.606 134.895 256.994 134.461 257.218 134.134C257.442 133.807 257.554 133.471 257.554 133.126C257.554 132.697 257.404 132.347 257.106 132.076C256.816 131.796 256.443 131.656 255.986 131.656C255.426 131.656 254.982 131.833 254.656 132.188C254.338 132.543 254.189 133.019 254.208 133.616H252.556C252.537 132.916 252.668 132.295 252.948 131.754C253.237 131.213 253.648 130.797 254.18 130.508C254.712 130.209 255.314 130.06 255.986 130.06C256.602 130.06 257.157 130.191 257.652 130.452C258.146 130.704 258.534 131.059 258.814 131.516C259.094 131.964 259.234 132.477 259.234 133.056C259.234 133.625 259.061 134.181 258.716 134.722C258.38 135.263 257.88 135.847 257.218 136.472L255.286 138.404H259.304V140H252.64V138.81ZM263.735 140.14C263.119 140.14 262.559 140.023 262.055 139.79C261.551 139.547 261.145 139.211 260.837 138.782C260.529 138.343 260.352 137.849 260.305 137.298H261.943C262.018 137.662 262.214 137.961 262.531 138.194C262.849 138.427 263.25 138.544 263.735 138.544C264.258 138.544 264.687 138.385 265.023 138.068C265.369 137.741 265.541 137.321 265.541 136.808C265.541 136.304 265.359 135.912 264.995 135.632C264.631 135.352 264.16 135.212 263.581 135.212C263.236 135.212 262.891 135.259 262.545 135.352V134.274L264.841 131.768H260.571V130.2H267.151V131.292L264.519 134.078C265.023 134.078 265.481 134.199 265.891 134.442C266.302 134.675 266.624 135.007 266.857 135.436C267.1 135.856 267.221 136.327 267.221 136.85C267.221 137.485 267.072 138.054 266.773 138.558C266.475 139.053 266.059 139.44 265.527 139.72C265.005 140 264.407 140.14 263.735 140.14Z" fill="white"></path>
  <path d="M142.016 58.92L153.728 47.352C155.616 45.496 156.944 44.008 157.712 42.888C158.48 41.768 158.864 40.616 158.864 39.432C158.864 37.96 158.352 36.76 157.328 35.832C156.336 34.872 155.056 34.392 153.488 34.392C151.568 34.392 150.048 35 148.928 36.216C147.84 37.432 147.328 39.064 147.392 41.112H141.728C141.664 38.712 142.112 36.584 143.072 34.728C144.064 32.872 145.472 31.448 147.296 30.456C149.12 29.432 151.184 28.92 153.488 28.92C155.6 28.92 157.504 29.368 159.2 30.264C160.896 31.128 162.224 32.344 163.184 33.912C164.144 35.448 164.624 37.208 164.624 39.192C164.624 41.144 164.032 43.048 162.848 44.904C161.696 46.76 159.984 48.76 157.712 50.904L151.088 57.528H164.864V63H142.016V58.92ZM167.679 51.96L179.679 29.4H186.015L174.687 50.712H184.383V41.256H189.999V50.712H193.983V55.8H189.999V63H184.383V55.8H167.679V51.96ZM200.842 63.48C199.786 63.48 198.906 63.128 198.202 62.424C197.498 61.72 197.146 60.856 197.146 59.832C197.146 58.808 197.498 57.944 198.202 57.24C198.906 56.536 199.786 56.184 200.842 56.184C201.898 56.184 202.778 56.536 203.482 57.24C204.186 57.944 204.538 58.808 204.538 59.832C204.538 60.856 204.186 61.72 203.482 62.424C202.778 63.128 201.898 63.48 200.842 63.48ZM219.998 63.48C217.95 63.48 216.062 63.096 214.334 62.328C212.606 61.528 211.198 60.392 210.11 58.92C209.022 57.448 208.414 55.72 208.286 53.736H213.902C214.222 55.016 214.926 56.056 216.014 56.856C217.102 57.624 218.43 58.008 219.998 58.008C221.726 58.008 223.166 57.432 224.318 56.28C225.502 55.128 226.094 53.72 226.094 52.056C226.094 50.296 225.502 48.84 224.318 47.688C223.166 46.504 221.726 45.912 219.998 45.912C218.91 45.912 217.886 46.104 216.926 46.488C215.998 46.84 215.246 47.336 214.67 47.976H209.774L211.31 29.4H229.646V34.68H216.35L215.534 42.888C216.142 42.376 216.942 41.976 217.934 41.688C218.926 41.368 219.966 41.208 221.054 41.208C223.07 41.208 224.894 41.656 226.526 42.552C228.19 43.448 229.486 44.728 230.414 46.392C231.374 48.056 231.854 49.976 231.854 52.152C231.854 54.296 231.326 56.232 230.27 57.96C229.214 59.688 227.774 61.048 225.95 62.04C224.158 63 222.174 63.48 219.998 63.48ZM247.488 63H241.92V37.128L234.336 43.272V36.504L243.648 29.4H247.488V63ZM281.815 56.28C281.815 58.36 281.159 60.088 279.847 61.464C278.535 62.808 276.887 63.48 274.903 63.48C272.919 63.48 271.271 62.808 269.959 61.464C268.679 60.088 268.039 58.36 268.039 56.28C268.039 54.232 268.679 52.536 269.959 51.192C271.271 49.848 272.919 49.176 274.903 49.176C276.887 49.176 278.535 49.848 279.847 51.192C281.159 52.536 281.815 54.232 281.815 56.28ZM278.215 56.28C278.215 55.192 277.911 54.312 277.303 53.64C276.727 52.936 275.927 52.584 274.903 52.584C273.911 52.584 273.111 52.936 272.503 53.64C271.927 54.312 271.639 55.192 271.639 56.28C271.639 57.4 271.927 58.312 272.503 59.016C273.111 59.72 273.911 60.072 274.903 60.072C275.927 60.072 276.727 59.72 277.303 59.016C277.911 58.312 278.215 57.4 278.215 56.28ZM266.023 36.024C266.023 38.104 265.367 39.832 264.055 41.208C262.775 42.552 261.143 43.224 259.159 43.224C257.207 43.224 255.575 42.552 254.263 41.208C252.951 39.832 252.295 38.104 252.295 36.024C252.295 33.976 252.935 32.28 254.215 30.936C255.527 29.592 257.175 28.92 259.159 28.92C261.143 28.92 262.775 29.592 264.055 30.936C265.367 32.28 266.023 33.976 266.023 36.024ZM262.471 36.024C262.471 34.936 262.167 34.04 261.559 33.336C260.951 32.632 260.151 32.28 259.159 32.28C258.167 32.28 257.367 32.632 256.759 33.336C256.151 34.04 255.847 34.936 255.847 36.024C255.847 37.144 256.151 38.056 256.759 38.76C257.367 39.464 258.167 39.816 259.159 39.816C260.151 39.816 260.951 39.464 261.559 38.76C262.167 38.056 262.471 37.144 262.471 36.024ZM280.375 29.4L258.055 63H253.735L276.055 29.4H280.375Z" fill="white"></path>
  <g clip-path="url(#clip0_1364_5940)">
    <path d="M91.5927 116.367L85.7798 124.579L79.9531 116.367" stroke="#D6E8BA" stroke-width="1.73941" stroke-linecap="round" stroke-linejoin="round"></path>
    <path d="M85.7812 124.581V98.0273" stroke="#D6E8BA" stroke-width="1.73941" stroke-linecap="round" stroke-linejoin="round"></path>
    <path d="M69.1612 116.367L63.3345 124.579L57.5078 116.367" stroke="#D6E8BA" stroke-width="1.73941" stroke-linecap="round" stroke-linejoin="round"></path>
    <path d="M63.3359 124.581V98.0273" stroke="#D6E8BA" stroke-width="1.73941" stroke-linecap="round" stroke-linejoin="round"></path>
    <path d="M66.1414 73.3886C65.905 75.0978 64.3753 76.4039 62.5397 76.7374C59.6611 77.2515 54.3906 77.0848 54.3906 68.8449V66.5383C54.3906 58.2845 59.675 58.1177 62.5397 58.6457C64.3614 58.9792 65.905 60.2854 66.1414 61.9945" stroke="#D6E8BA" stroke-width="1.73941" stroke-linecap="round" stroke-linejoin="round"></path>
    <path d="M78.9795 58.4785H77.6723C74.7769 58.4785 72.4297 60.8239 72.4297 63.717V71.6791C72.4297 74.5722 74.7769 76.9176 77.6723 76.9176H78.9795C81.875 76.9176 84.2222 74.5722 84.2222 71.6791V63.717C84.2222 60.8239 81.875 58.4785 78.9795 58.4785Z" stroke="#D6E8BA" stroke-width="1.73941" stroke-linecap="round" stroke-linejoin="round"></path>
    <path d="M88.6984 76.0138C89.3659 73.8462 92.3697 73.0958 93.8994 74.9578C94.4556 75.6387 94.6642 76.5419 94.4695 77.3617C93.7186 80.4464 89.0878 80.9606 88.2812 84.1426H94.5947" stroke="#D6E8BA" stroke-width="1.73941" stroke-linecap="round" stroke-linejoin="round"></path>
    <path d="M96.0964 58.1768C97.8208 57.496 99.6703 57.1208 101.617 57.1208C110.462 57.1208 117.609 64.8744 117.609 74.4482C117.609 79.1448 115.885 83.4107 113.076 86.5371C110.1 89.8442 105.914 91.5117 101.673 91.5117H44.685C40.4158 91.5117 36.2717 89.4413 33.8103 85.6339C32.2806 83.2856 31.3906 80.4093 31.3906 77.3107C31.3906 69.8489 36.5916 63.6933 43.2666 62.8734C42.9745 61.5673 42.8355 60.1917 42.8355 58.8021C42.8355 48.6308 50.47 40.377 59.8706 40.377C66.49 40.377 72.2333 44.4761 75.0423 50.4649C77.3091 48.2417 80.3128 46.8938 83.5947 46.8938C89.8386 46.8938 95.0256 51.7572 96.0964 58.1768Z" stroke="#D6E8BA" stroke-width="1.73941" stroke-linecap="round" stroke-linejoin="round"></path>
  </g>
  <defs>
    <clipPath id="clip0_1364_5940">
      <rect x="30" y="39" width="89" height="86.9707" rx="20" fill="white"></rect>
    </clipPath>
  </defs>
</svg>
