<?xml version="1.0" encoding="UTF-8"?>
<svg xmlns="http://www.w3.org/2000/svg" width="108" height="108" viewBox="0 0 108 108" fill="none">
  <g clip-path="url(#clip0_173_496)">
    <path d="M106.722 107.999H1.25746C0.567887 107.999 0 107.431 0 106.742C0 106.052 0.567887 105.484 1.25746 105.484H106.722C107.412 105.484 107.98 106.052 107.98 106.742C107.98 107.431 107.412 107.999 106.722 107.999Z" fill="white"></path>
    <path d="M70.216 108.001H37.7653C37.0757 108.001 36.5078 107.433 36.5078 106.744V96.6029C36.5078 86.9489 44.3568 79.1201 53.9906 79.1201C63.6244 79.1201 71.4735 86.9691 71.4735 96.6029V106.744C71.4735 107.454 70.9056 108.001 70.216 108.001ZM39.0227 105.466H68.9382V96.5827C68.9382 88.328 62.225 81.6148 53.9704 81.6148C45.7157 81.6148 39.0025 88.328 39.0025 96.5827V105.466H39.0227Z" fill="white"></path>
    <path d="M96.5799 65.4089C90.2926 65.4089 85.1816 60.2979 85.1816 54.0106C85.1816 47.7233 90.2926 42.6123 96.5799 42.6123C102.867 42.6123 107.978 47.7233 107.978 54.0106C107.978 60.2979 102.867 65.4089 96.5799 65.4089ZM96.5799 45.1272C91.6921 45.1272 87.6966 49.1024 87.6966 54.0106C87.6966 58.9188 91.6718 62.894 96.5799 62.894C101.488 62.894 105.463 58.9188 105.463 54.0106C105.463 49.1024 101.488 45.1272 96.5799 45.1272Z" fill="white"></path>
    <path d="M96.5809 56.0207C97.701 56.0207 98.6091 55.1126 98.6091 53.9925C98.6091 52.8724 97.701 51.9644 96.5809 51.9644C95.4608 51.9644 94.5527 52.8724 94.5527 53.9925C94.5527 55.1126 95.4608 56.0207 96.5809 56.0207Z" fill="white"></path>
    <path d="M53.9891 22.8169C47.7018 22.8169 42.5908 17.7059 42.5908 11.4186C42.5908 5.13127 47.7018 0 53.9891 0C60.2765 0 65.3874 5.11099 65.3874 11.3983C65.3874 17.6856 60.2765 22.7966 53.9891 22.7966V22.8169ZM53.9891 2.53521C49.1012 2.53521 45.1057 6.51042 45.1057 11.4186C45.1057 16.3268 49.081 20.302 53.9891 20.302C58.8973 20.302 62.8725 16.3268 62.8725 11.4186C62.8725 6.51042 58.8973 2.53521 53.9891 2.53521Z" fill="white"></path>
    <path d="M53.9881 13.4274C55.1083 13.4274 56.0163 12.5194 56.0163 11.3993C56.0163 10.2791 55.1083 9.37109 53.9881 9.37109C52.868 9.37109 51.96 10.2791 51.96 11.3993C51.96 12.5194 52.868 13.4274 53.9881 13.4274Z" fill="white"></path>
    <path d="M11.3983 65.4089C5.11099 65.4089 0 60.2979 0 54.0106C0 47.7233 5.11099 42.6123 11.3983 42.6123C17.6856 42.6123 22.7966 47.7233 22.7966 54.0106C22.7966 60.2979 17.6856 65.4089 11.3983 65.4089ZM11.3983 45.1272C6.51042 45.1272 2.51493 49.1024 2.51493 54.0106C2.51493 58.9188 6.49014 62.894 11.3983 62.894C16.3065 62.894 20.2817 58.9188 20.2817 54.0106C20.2817 49.1024 16.3065 45.1272 11.3983 45.1272Z" fill="white"></path>
    <path d="M11.3993 56.0207C12.5194 56.0207 13.4274 55.1126 13.4274 53.9925C13.4274 52.8724 12.5194 51.9644 11.3993 51.9644C10.2791 51.9644 9.37109 52.8724 9.37109 53.9925C9.37109 55.1126 10.2791 56.0207 11.3993 56.0207Z" fill="white"></path>
    <path d="M61.3102 83.3779C60.9857 83.3779 60.6612 83.2562 60.4178 83.0129C59.931 82.5261 59.931 81.7148 60.4178 81.2281L85.9322 55.7137C86.4189 55.2269 87.2302 55.2269 87.717 55.7137C88.2037 56.2005 88.2037 57.0117 87.717 57.4985L62.2026 83.0129C61.9592 83.2562 61.6347 83.3779 61.3102 83.3779Z" fill="white"></path>
    <path d="M68.4704 90.5571C68.1458 90.5571 67.8213 90.4354 67.578 90.1921C67.0912 89.7053 67.0912 88.894 67.578 88.4073L93.0923 62.8929C93.5791 62.4061 94.3904 62.4061 94.8771 62.8929C95.3639 63.3797 95.3639 64.1909 94.8771 64.6777L69.3628 90.1921C69.1194 90.4354 68.7949 90.5571 68.4704 90.5571Z" fill="white"></path>
    <path d="M21.1725 52.6705C20.848 52.6705 20.5235 52.5488 20.2801 52.3054C19.7933 51.8186 19.7933 51.0074 20.2801 50.5206L50.5201 20.2806C51.0069 19.7938 51.8181 19.7938 52.3049 20.2806C52.7917 20.7674 52.7917 21.5786 52.3049 22.0654L22.0649 52.3054C21.8215 52.5488 21.497 52.6705 21.1725 52.6705Z" fill="white"></path>
    <path d="M13.9938 45.5103C13.6693 45.5103 13.3448 45.3886 13.1014 45.1452C12.6146 44.6585 12.6146 43.8472 13.1014 43.3604L43.3414 13.1204C43.8282 12.6337 44.6394 12.6337 45.1262 13.1204C45.6129 13.6072 45.6129 14.4185 45.1262 14.9052L14.8862 45.1452C14.6428 45.3886 14.3183 45.5103 13.9938 45.5103Z" fill="white"></path>
    <path d="M86.8246 52.6705C86.5001 52.6705 86.1756 52.5488 85.9322 52.3054L55.6922 22.0654C55.2055 21.5786 55.2055 20.7674 55.6922 20.2806C56.179 19.7938 56.9902 19.7938 57.477 20.2806L87.717 50.5206C88.2038 51.0074 88.2038 51.8186 87.717 52.3054C87.4736 52.5488 87.1491 52.6705 86.8246 52.6705Z" fill="white"></path>
    <path d="M94.0062 45.5103C93.6817 45.5103 93.3572 45.3886 93.1139 45.1452L62.8739 14.9052C62.3871 14.4185 62.3871 13.6072 62.8739 13.1204C63.3606 12.6337 64.1719 12.6337 64.6586 13.1204L94.8986 43.3604C95.3854 43.8472 95.3854 44.6585 94.8986 45.1452C94.6553 45.3886 94.3308 45.5103 94.0062 45.5103Z" fill="white"></path>
    <path d="M27.6235 81.6339C27.4815 81.6339 27.3598 81.6137 27.2179 81.5731L15.0489 77.5168C14.6027 77.3748 14.2782 76.9894 14.197 76.5432L11.9458 64.212C11.8241 63.5224 12.2703 62.8531 12.9598 62.7314C13.6291 62.6097 14.2984 63.0559 14.4404 63.7455L16.5497 75.3466L28.0089 79.1596C28.6782 79.3827 29.0229 80.0925 28.8201 80.7618C28.6376 81.2891 28.1508 81.6339 27.6235 81.6339Z" fill="white"></path>
    <path d="M37.7636 71.4939C37.2362 71.4939 36.7292 71.1491 36.5669 70.6218L32.754 59.1626L21.1529 57.0533C20.4633 56.9317 19.9968 56.2624 20.1388 55.5728C20.2605 54.8832 20.9298 54.4167 21.6193 54.5587L33.9506 56.81C34.3968 56.8911 34.7822 57.2156 34.9241 57.6618L38.9805 69.8308C39.2036 70.5001 38.8385 71.21 38.1692 71.4331C38.0272 71.4736 37.9055 71.4939 37.7636 71.4939Z" fill="white"></path>
    <path d="M70.216 97.8597H37.7653C37.0757 97.8597 36.5078 97.2918 36.5078 96.6022C36.5078 95.9126 37.0757 95.3447 37.7653 95.3447H70.216C70.9056 95.3447 71.4735 95.9126 71.4735 96.6022C71.4735 97.2918 70.9056 97.8597 70.216 97.8597Z" fill="white"></path>
  </g>
  <defs>
    <clipPath id="clip0_173_496">
      <rect width="108" height="108" fill="white"></rect>
    </clipPath>
  </defs>
</svg>
