<?xml version="1.0" encoding="UTF-8"?>
<svg xmlns="http://www.w3.org/2000/svg" width="121" height="54" viewBox="0 0 121 54" fill="none">
  <path d="M102.921 18.8125L102.195 18.5545L96.0947 7.1165C94.9489 4.96699 93.2404 3.16936 91.1519 1.91586C89.0633 0.662357 86.6733 0.000129861 84.2375 1.11964e-08H68.8757C66.0548 -0.000115112 63.3054 0.887555 61.0171 2.53722C58.7288 4.18688 57.0177 6.51486 56.1262 9.19125L53.2184 17.9149C50.7822 18.9417 48.703 20.6644 47.2411 22.8672C45.7793 25.07 44.9997 27.6551 45 30.2989V36.2812C45 40.0975 47.2736 43.3763 50.5362 44.8544C50.9588 47.2752 52.1979 49.4781 54.0473 51.0963C55.8966 52.7145 58.2446 53.6502 60.7 53.7476C63.1555 53.845 65.5702 53.0983 67.5419 51.6317C69.5137 50.1651 70.9234 48.0672 71.5364 45.6875H93.7136C94.3266 48.0672 95.7363 50.1651 97.7081 51.6317C99.6798 53.0983 102.095 53.845 104.55 53.7476C107.005 53.6502 109.353 52.7145 111.203 51.0963C113.052 49.4781 114.291 47.2752 114.714 44.8544C116.364 44.1096 117.764 42.9046 118.746 41.3839C119.728 39.8632 120.25 38.0915 120.25 36.2812V34.4591C120.25 31.6852 119.391 28.9794 117.791 26.713C116.192 24.4467 113.93 22.7308 111.317 21.801L103.201 18.9146V18.8125H102.921ZM61.2164 10.8898C61.7517 9.28234 62.7799 7.88444 64.1548 6.8945C65.5297 5.90456 67.1815 5.3729 68.8757 5.375H74.5625V18.8125H58.5826L61.2164 10.8898ZM96.2399 18.8125H79.9375V5.375H84.2375C85.6991 5.37448 87.1334 5.77131 88.387 6.52304C89.6405 7.27477 90.666 8.35313 91.354 9.64275L96.2399 18.8125ZM55.75 43C55.75 41.5745 56.3163 40.2073 57.3243 39.1993C58.3323 38.1913 59.6995 37.625 61.125 37.625C62.5505 37.625 63.9177 38.1913 64.9257 39.1993C65.9337 40.2073 66.5 41.5745 66.5 43C66.5 44.4255 65.9337 45.7927 64.9257 46.8007C63.9177 47.8087 62.5505 48.375 61.125 48.375C59.6995 48.375 58.3323 47.8087 57.3243 46.8007C56.3163 45.7927 55.75 44.4255 55.75 43ZM104.125 37.625C105.551 37.625 106.918 38.1913 107.926 39.1993C108.934 40.2073 109.5 41.5745 109.5 43C109.5 44.4255 108.934 45.7927 107.926 46.8007C106.918 47.8087 105.551 48.375 104.125 48.375C102.699 48.375 101.332 47.8087 100.324 46.8007C99.3163 45.7927 98.75 44.4255 98.75 43C98.75 41.5745 99.3163 40.2073 100.324 39.1993C101.332 38.1913 102.699 37.625 104.125 37.625Z" fill="white"></path>
  <path d="M2.375 15.875H7.125V20.625H2.375C1.06875 20.625 -1.90735e-06 19.5562 -1.90735e-06 18.25C-1.90735e-06 16.9437 1.06875 15.875 2.375 15.875ZM2.375 6.375H7.125V11.125H2.375C1.06875 11.125 -1.90735e-06 10.0562 -1.90735e-06 8.75C-1.90735e-06 7.44375 1.06875 6.375 2.375 6.375ZM16.625 23C19.2375 23 21.375 20.8625 21.375 18.25H26.125V8.75H21.375C21.375 6.1375 19.2375 4 16.625 4H9.5V23H16.625Z" fill="white"></path>
  <path d="M40.375 39.625C40.375 38.3187 39.3063 37.25 38 37.25H29.6875C27.7163 37.25 26.125 35.6588 26.125 33.6875C26.125 31.7162 27.7163 30.125 29.6875 30.125H33.25C38.4988 30.125 42.75 25.8737 42.75 20.625C42.75 15.3762 38.4988 11.125 33.25 11.125H28.5V15.875H33.25C35.8625 15.875 38 18.0125 38 20.625C38 23.2375 35.8625 25.375 33.25 25.375H29.6875C25.1038 25.375 21.375 29.1038 21.375 33.6875C21.375 38.2712 25.1038 42 29.6875 42H38C39.3063 42 40.375 40.9312 40.375 39.625Z" fill="white"></path>
</svg>
