<?xml version="1.0" encoding="UTF-8"?>
<svg xmlns="http://www.w3.org/2000/svg" id="katman_2" data-name="katman 2" viewBox="0 0 276.05 153.38">
  <defs>
    <style>
      .cls-1, .cls-2 {
        stroke-width: 0px;
      }

      .cls-2 {
        fill: none;
      }
    </style>
  </defs>
  <g id="katman_1" data-name="katman 1">
    <rect class="cls-2" width="276.05" height="153.38"></rect>
    <path class="cls-1" d="m106.18,106.57c-6.57,0-12.72.02-18.86,0-5.32-.02-7.66-2.4-7.71-7.77-.02-2.49-.04-4.98,0-7.46.09-4.55,2.45-6.94,7.02-7.16.86-.04,1.76-.15,2.59,0,8.23,1.55,14.04-2.36,19.06-8.62-.94-.08-1.83-.21-2.72-.21-7.25-.02-14.5-.02-21.75,0-9.2.02-14.08,4.82-14.11,13.93-.03,11.36,0,22.72-.01,34.08,0,.86.25,1.9-.13,2.55-.53.88-1.57,2.04-2.37,2.02-.8-.02-1.58-1.33-2.35-2.09-.06-.06-.03-.21-.03-.32.06-13.3-.39-26.63.37-39.89.52-9.17,8.11-15.04,17.64-15.15,9.74-.11,19.48.05,29.21-.11,1.54-.03,3.6-.66,4.51-1.77,5.36-6.54,12.11-8.81,20.32-7.56,1.66.25,3.4.04,5.3.04v-6.81c-1.25-.05-2.3-.13-3.35-.14-5.37-.08-7.66-2.32-7.68-7.76-.04-11.14-.01-22.28-.01-33.43,0-2.35,0-4.7,0-7.21-1.54-.11-2.8.06-3.83-.34-.84-.33-2.06-1.42-1.98-2.02.13-.92,1.1-1.87,1.95-2.48.51-.36,1.47-.1,2.22-.1,17.2,0,34.4,0,51.61,0,.76,0,1.69-.25,2.23.1.87.57,2.05,1.53,2.05,2.33,0,.76-1.21,1.8-2.12,2.21-.91.41-2.1.2-3.66.29,0,1.22,0,2.36,0,3.5,0,12.01,0,24.02,0,36.02,0,7-1.76,8.79-8.77,8.92-.63.01-1.26.07-2.13.11v6.84c3.66,0,7.31.05,10.95-.02,2.06-.04,3.19.63,3.47,2.88.11.85,1.14,1.98,2,2.27,2.55.86,5.28,1.19,7.82,2.07,1.52.52,2.83,1.67,4.24,2.54-.09.33-.19.65-.28.98,3.35-.72,6.69-1.49,10.05-2.15,3.4-.67,4.31.1,4.34,3.6.04,4,.04,8.01,0,12.01-.03,3.66-.96,4.37-4.61,3.59-3.17-.67-6.33-1.4-9.18-1.33-1.78.99-3.49,2.19-5.37,2.92-2,.78-4.15,1.21-6.27,1.61-1.76.34-2.99.76-2.92,3,.07,2.18-1.68,2.43-3.44,2.43-5.95-.02-11.9.07-17.85-.05-1.88-.04-2.92.59-3.8,2.22-2.11,3.89-4.53,7.63-6.59,11.55-1.12,2.12-2.56,2.96-4.9,2.79-2.23-.16-4.49-.03-7.11-.03,0,5.41,0,10.47,0,15.52,0,14.67-8.5,23.21-23.1,23.23-2.06,0-4.12-.1-6.17.02-2.8.17-3.84-1.02-3.82-3.82.08-12.44.04-24.88.04-37.32,0-1.5,0-3,0-5Zm36.19-40.77c-4.69,0-8.9-.13-13.09.07-1.36.06-2.94.68-3.97,1.56-6.56,5.64-13.07,11.34-19.43,17.2-3.53,3.26-7.33,4.56-12.25,4.5-10.88-.13-9.03-2.41-9.22,9.69,0,.11-.04.26.01.32.82.89,1.66,2.53,2.48,2.52,10.52-.1,21.17,1.4,31.33-3.07,4.62-2.03,9.59-3.32,14.47-4.72,2.35-.67,4.85-1.11,7.29-1.14,11.47-.12,22.93-.05,34.4-.06,1.24,0,2.48-.13,3.6-.19v-26.5h-9.55c0,2.43-.04,4.68.01,6.92.05,2.26-.91,3.43-3.26,3.42-6.49-.03-12.98-.05-19.47.01-2.57.03-3.46-1.22-3.37-3.61.08-2.14.02-4.29.02-6.94ZM174.82,5.74h-38.56c-.11.54-.23.85-.23,1.17-.02,13.19.02,26.37-.07,39.56-.02,2.67,1.38,2.93,3.49,2.92,10.59-.05,21.19-.11,31.78.03,2.98.04,3.69-1.15,3.63-3.85-.14-5.83-.04-11.67-.04-17.51,0-7.33,0-14.67,0-22.32Zm-40.66,123.58v-30.86c-7.07,2.28-13.81,4.55-20.61,6.59-2.03.61-2.69,1.5-2.67,3.6.1,12.01.04,24.02.06,36.03,0,.95.11,1.89.17,2.78,14.5,2.83,22.57-5.75,22.66-13.37-2.91,0-5.84.22-8.72-.11-1.14-.13-2.14-1.49-3.21-2.29,1.08-.79,2.09-2.13,3.25-2.27,2.87-.33,5.81-.11,9.07-.11Zm13.2-75.05v17.1h15.92v-17.1h-15.92Zm44.21,31.38v-12.82c-2.76-.66-5.5-1.31-8.35-1.98v16.87c2.94-.73,5.61-1.39,8.35-2.07Zm-52.14,11.96v11.8c2.7-.29,6.17.37,7.45-1.01,2.75-2.94,4.36-6.94,6.61-10.79h-14.06Zm66.76-22.87c-3.36.76-6.47,1.46-9.48,2.14v4.8c3.22.71,6.25,1.37,9.48,2.08v-9.02Z"></path>
  </g>
</svg>
