<?xml version="1.0" encoding="UTF-8"?>
<svg xmlns="http://www.w3.org/2000/svg" id="katman_2" data-name="katman 2" viewBox="0 0 276.05 155.6">
  <defs>
    <style>
      .cls-1 {
        fill: #020202;
      }

      .cls-1, .cls-2, .cls-3, .cls-4, .cls-5, .cls-6 {
        stroke-width: 0px;
      }

      .cls-2 {
        fill: #060606;
      }

      .cls-3 {
        fill: #050505;
      }

      .cls-4 {
        fill: none;
      }

      .cls-5 {
        fill: #070707;
      }

      .cls-6 {
        fill: #080808;
      }
    </style>
  </defs>
  <g id="katman_1" data-name="katman 1">
    <rect class="cls-4" width="276.05" height="155.6"></rect>
    <g>
      <path class="cls-1" d="m183.42,37.9c-4.73-.1-10.08,1.81-13.22-4.15-.86-1.63-3.39-1.33-5.32-1.33-8.25.03-16.51.17-24.75-.07-3.3-.1-8.17,2.34-8.73-4.1-.04-.47-1.23-.88-1.92-1.26-4.7-2.62-9.42-5.19-14.11-7.84-1.42-.81-2.85-1.19-4.5-1.19-26.18.05-52.37-.07-78.55.11-10.96.07-19.82,9.02-20.31,19.96-.14,3.16-.06,6.34-.04,9.51.02,5.4,6.01,11.31,11.46,11.31,8.83.02,17.65,0,26.82,0-4.62,18.03-9.09,35.49-13.55,52.95-1.52,5.96-1.5,5.96,4.64,6.3.28,0,.54.27.9.46-2.07,8.22-4.15,16.45-6.32,25.04,5.52,0,10.59-.12,15.66.06,2.37.09,2.9-1.16,3.35-3.03,1.34-5.53,3.13-10.98,4.11-16.57.82-4.64,2.56-7.19,7.64-6.05,3.2.72,4.29-.95,5-3.85,2.9-12,6.12-23.91,9-35.91.77-3.25,1.93-4.9,5.62-4.51,4.24.44,6.87-1.78,7.69-6.04.33-1.71,1.07-3.36,1.19-5.08.23-3.19,1.72-3.87,4.83-3.84,21.43.16,42.85.07,64.27.11,2.78,0,5.87.04,7.19-2.63,1.45-2.94,3.54-3.05,6.14-2.92,2.06.11,4.13.03,6.19.03q7.62,0,7.63-7.64c0-7.77,0-7.66-8-7.81ZM50.87,136.27c-1.14,4.26-4.78,2.36-7.12,2.14-2.7-.26-.55-2.53-.34-3.72.61-3.39,1.62-6.72,2.5-10.06q1.77-6.82,9.51-6.42c-1.55,6.19-2.96,12.15-4.55,18.06Zm16.53-25.88c-.45,1.78-.96,2.75-3.04,2.72-7.45-.11-14.88-.04-22.79-.04,3.64-14.29,7.16-28.21,10.74-42.11,1.02-3.95,1.1-9.34,3.71-11.34,2.64-2.02,7.88-.71,11.98-.76,4.07-.06,8.15,0,12.58,0-4.5,17.54-8.89,34.52-13.18,51.54Zm22.91-48.75c-1.1,2.58.27,6.7-4.24,7.16-2.28.25-3.01-.49-2.26-2.69.67-1.94,1.01-3.98,1.59-5.95.57-2.01,2.28-1.32,3.57-1.25,1.85.09,1.91,1.41,1.34,2.72Zm36.83-10.09c0,3.33-2.55,2.17-4.14,2.18-16.33.08-32.67.05-49,.04-16.02,0-32.04,0-48.06,0-6.26,0-9.07-2.84-9.02-9.22.03-2.99-.28-5.99.49-8.97,1.87-7.38,7.76-12.56,15.31-12.59,25.69-.13,51.38-.32,77.07.11,6.35.11,11.27,5.26,16.76,8.27.38.21.56,1.09.57,1.65.04,6.18.02,12.36.02,18.53Zm28.79,2.24h-6.18c-4.91,0-9.83-.1-14.74.05-2.3.08-3.06-.69-2.95-2.97.16-3.47.2-6.97,0-10.44-.16-2.66.97-3.14,3.33-3.12,9.66.11,19.34.11,29.01.02,2.53-.02,3.62.68,3.76,3.46.67,13,.76,13-12.21,13Zm30.58-7.24c-.38,3.27-2.99,1.99-4.37,1.76-3.05-.51-7.03,2.3-9.04-1.76-.89-1.79-.43-4.15,2.83-3.71,1.4.19,2.83.04,4.62.04,1.89.95,6.66-2.45,5.96,3.67Z"></path>
      <path class="cls-6" d="m236.11,50.82c-3.06-.4-4.97-2.06-4.96-5.21,0-3.42,2.2-5.31,5.4-5.22,2.97.08,5.03,2.02,5,5.18-.03,3.37-2.09,5.05-5.43,5.25Z"></path>
      <path class="cls-5" d="m227.26,33.5c-3.43-.2-5.27-2.11-5.32-5.09-.05-3.25,1.99-5.43,5.31-5.35,3.29.07,5.2,2.17,5.05,5.55-.14,3.2-2.17,4.67-5.04,4.89Z"></path>
      <path class="cls-5" d="m252.06,33.51c-3.5-.15-5.53-1.89-5.58-5.23-.05-3.13,1.96-5.08,4.98-5.21,3.32-.15,5.37,1.86,5.42,5.21.05,3.13-1.85,4.84-4.82,5.24Z"></path>
      <path class="cls-3" d="m209.84,50.82c-3.31-.28-5.31-2.09-5.24-5.39.07-3.07,2.12-5.02,5.14-5.01,3.22.02,5.33,1.93,5.22,5.35-.1,3.12-2,4.77-5.12,5.04Z"></path>
      <path class="cls-2" d="m251.66,57.73c3.14.28,5.11,1.88,5.22,5.02.11,3.41-1.97,5.42-5.21,5.4-3.24-.02-5.3-2.09-5.17-5.45.12-3.11,2.12-4.73,5.16-4.97Z"></path>
      <path class="cls-2" d="m244.57,75.05c3.25.27,5.09,2.09,5.13,5.12.04,3.31-2.01,5.38-5.32,5.3-3.3-.08-5.21-2.21-5.01-5.56.18-3.1,2.14-4.73,5.2-4.86Z"></path>
      <path class="cls-5" d="m239.26,11.01c.33-3.14,1.92-5.14,5.07-5.24,3.42-.11,5.41,2.03,5.39,5.23-.02,3.22-2.07,5.31-5.47,5.16-3.14-.14-4.66-2.21-4.99-5.16Z"></path>
      <path class="cls-2" d="m232.36,62.95c-.23,3.25-2.05,5.14-5.06,5.21-3.3.08-5.4-2.04-5.35-5.3.05-3.26,2.13-5.21,5.53-5.06,3.18.15,4.71,2.12,4.89,5.14Z"></path>
      <path class="cls-2" d="m258.58,50.81c-2.95-.35-4.84-1.99-4.85-5.15,0-3.41,2.09-5.32,5.33-5.26,3.02.06,5.07,2.1,5.06,5.14-.02,3.24-2.01,5.13-5.54,5.27Z"></path>
    </g>
  </g>
</svg>
