<?xml version="1.0" encoding="UTF-8"?>
<svg xmlns="http://www.w3.org/2000/svg" width="80" height="42" viewBox="0 0 80 42" fill="none">
  <g clip-path="url(#clip0_242_638)">
    <path d="M46.2359 39.9098H38.1359V6.10977H42.1859C42.6359 6.10977 42.9859 5.75977 42.9859 5.30977V3.89977C44.4359 4.40977 45.4959 4.85977 45.5259 4.89977C45.9459 5.08977 46.3959 4.89977 46.5859 4.47977C46.7759 4.05977 46.5859 3.60977 46.1659 3.41977C45.9459 3.31977 40.6059 1.00977 37.3259 1.00977C34.0459 1.00977 28.3659 3.31977 28.1059 3.41977C27.6859 3.57977 27.4959 4.05977 27.6559 4.47977C27.7859 4.79977 28.0759 4.98977 28.3959 4.98977C28.4959 4.98977 28.5859 4.98977 28.6859 4.92977C28.6859 4.92977 29.9059 4.44977 31.4459 3.92977V5.33977C31.4459 5.78977 31.7959 6.13977 32.2459 6.13977H36.4859V39.9398H28.3859C27.9359 39.9398 27.5859 40.2898 27.5859 40.7398C27.5859 41.1898 27.9359 41.5398 28.3859 41.5398H46.1859C46.6359 41.5398 46.9859 41.1898 46.9859 40.7398C46.9859 40.2898 46.6359 39.9398 46.1859 39.9398L46.2159 39.9098H46.2359ZM33.0959 3.37977C34.5759 2.95977 36.1759 2.57977 37.3359 2.57977C38.4959 2.57977 39.9759 2.92977 41.3859 3.34977V4.46977H33.0959V3.34977V3.37977Z" fill="#25282A"></path>
    <path d="M6.52344 37.1096C8.14344 32.4696 11.3334 30.5296 12.7234 30.2896C14.6234 29.9696 15.1034 31.5296 18.1134 31.3596C20.8534 31.2096 20.6934 30.1596 22.4134 30.2496C24.0934 30.3396 26.4334 31.8396 29.0034 37.2796" stroke="#25282A" stroke-width="1.13" stroke-miterlimit="10"></path>
    <path d="M6.36719 37.1699C7.66719 38.1699 12.0572 41.2899 18.3772 41.1299C23.8872 40.9899 27.7272 38.4399 29.1172 37.4099" stroke="#25282A" stroke-width="1.13" stroke-miterlimit="10"></path>
    <path d="M29.1166 37.4301L28.9866 37.3101C27.3066 38.3601 23.2166 40.5901 17.6066 40.5201C12.1166 40.4501 8.14656 38.2001 6.47656 37.1201" stroke="#25282A" stroke-width="1.13" stroke-miterlimit="10"></path>
    <path d="M73.7347 18.7402H50.5547V40.8502H73.7347V18.7402Z" stroke="#323A3F" stroke-width="1.04" stroke-linecap="round" stroke-linejoin="round"></path>
    <path d="M50.5547 19.8994H73.7347" stroke="#323A3F" stroke-width="0.52" stroke-linecap="round" stroke-linejoin="round"></path>
    <path d="M62.1484 19.8994V40.8494" stroke="#323A3F" stroke-width="1.04" stroke-linecap="round" stroke-linejoin="round"></path>
    <path d="M64.4647 22.2295H63.3047V26.2995H64.4647V22.2295Z" stroke="#323A3F" stroke-width="0.52" stroke-linecap="round" stroke-linejoin="round"></path>
    <path d="M53.4569 40.8398H52.2969V41.4198H53.4569V40.8398Z" stroke="#323A3F" stroke-width="0.52" stroke-linecap="round" stroke-linejoin="round"></path>
    <path d="M71.9959 40.8398H70.8359V41.4198H71.9959V40.8398Z" stroke="#323A3F" stroke-width="0.52" stroke-linecap="round" stroke-linejoin="round"></path>
  </g>
  <defs>
    <clipPath id="clip0_242_638">
      <rect width="68.26" height="40.7" fill="white" transform="translate(6 1)"></rect>
    </clipPath>
  </defs>
</svg>
