<?xml version="1.0" encoding="UTF-8"?>
<svg xmlns="http://www.w3.org/2000/svg" width="42" height="42" viewBox="0 0 42 42" fill="none">
  <path d="M2.71 7C2.31 7 2 7.38 2 7.85C2 8.32 2.31 8.7 2.71 8.7H8.12C8.52 8.87 10.26 9.59 12.93 10.17L8.49 33.25C8.4 33.69 8.63 34.17 9.03 34.27H9.2C9.51 34.27 9.83 34 9.88 33.62L14.36 10.44C16.15 10.78 18.26 11.02 20.6 11.02C22.62 11.02 24.84 10.81 27.15 10.37L31.48 33.62C31.57 34.03 31.85 34.3 32.16 34.3H32.3C32.67 34.2 32.93 33.75 32.84 33.28L28.55 10.07C29.97 9.73 31.43 9.32 32.91 8.71H38.49C38.89 8.71 39.2 8.33 39.2 7.86C39.2 7.39 38.89 7.01 38.49 7.01H2.71V7ZM14.28 8.7H26.84C21.97 9.62 17.55 9.31 14.28 8.7Z" fill="#25282A"></path>
</svg>
