<?xml version="1.0" encoding="UTF-8"?>
<svg xmlns="http://www.w3.org/2000/svg" width="42" height="42" viewBox="0 0 42 42" fill="none">
  <path d="M33.92 18.88H31.12C30.45 18.88 29.91 19.42 29.91 20.09C29.91 20.76 30.45 21.3 31.12 21.3H31.85V24.91H30.91C30.69 23.43 29.73 22.19 28.41 21.57C28.92 21.03 29.19 20.33 29.16 19.58L28.86 9.11C28.81 7.58 27.57 6.36 26.03 6.36H21.72V5.58H23.63C24.9 5.58 25.92 4.56 25.92 3.29C25.92 2.02 24.9 1 23.63 1H18.46C17.19 1 16.17 2.02 16.17 3.29C16.17 4.56 17.19 5.58 18.46 5.58H20.37V6.36H16.2C14.67 6.36 13.43 7.57 13.37 9.11L13.07 19.58C13.07 20.33 13.34 21.03 13.82 21.57C12.5 22.19 11.56 23.43 11.32 24.91H10.27V21.3H11C11.67 21.3 12.21 20.76 12.21 20.09C12.21 19.42 11.67 18.88 11 18.88H8.21C7.54 18.88 7 19.42 7 20.09C7 20.76 7.54 21.3 8.21 21.3H8.94V26.25H11.34C11.66 28.38 13.49 30.02 15.73 30.02H20.44V33.09C17.34 33.28 14.52 34.62 12.42 36.97C11.61 36.97 10.97 37.64 10.97 38.45C10.97 39.26 11.64 39.93 12.45 39.93C13.26 39.93 13.93 39.26 13.93 38.45C13.93 38.15 13.82 37.91 13.69 37.67C15.49 35.79 17.84 34.66 20.45 34.49V38.88C19.96 39.12 19.64 39.61 19.64 40.2C19.64 41.03 20.31 41.68 21.12 41.68C21.93 41.68 22.6 41.01 22.6 40.2C22.6 39.64 22.25 39.15 21.79 38.88V34.49C24.45 34.65 26.85 35.84 28.65 37.8C28.54 37.99 28.49 38.2 28.49 38.45C28.49 39.28 29.16 39.93 29.97 39.93C30.78 39.93 31.45 39.26 31.45 38.45C31.45 37.64 30.78 36.97 29.97 36.97C29.92 36.97 29.86 37 29.81 37C27.74 34.66 24.88 33.29 21.76 33.1V30.03H26.47C28.7 30.03 30.53 28.39 30.86 26.26H33.15V21.31H33.88C34.55 21.31 35.09 20.77 35.09 20.1C35.09 19.43 34.55 18.89 33.88 18.89H33.93L33.92 18.88ZM17.55 3.3C17.55 2.79 17.98 2.36 18.49 2.36H23.66C24.17 2.36 24.6 2.79 24.6 3.3C24.6 3.81 24.17 4.24 23.66 4.24H18.49C17.98 4.24 17.55 3.81 17.55 3.3ZM14.75 9.16C14.75 8.35 15.42 7.73 16.23 7.73H26.06C26.87 7.73 27.51 8.35 27.54 9.16L27.84 19.63C27.84 20.03 27.71 20.41 27.44 20.71C27.17 21.01 26.79 21.17 26.39 21.17H15.94C15.54 21.17 15.16 21.01 14.89 20.71C14.62 20.41 14.46 20.04 14.49 19.63L14.79 9.16H14.76H14.75ZM26.52 28.71H15.75C14.03 28.71 12.65 27.31 12.65 25.62C12.65 23.93 14.05 22.52 15.75 22.52H26.52C28.24 22.52 29.62 23.92 29.62 25.62C29.62 27.32 28.22 28.71 26.52 28.71Z" fill="#25282A"></path>
</svg>
