<?xml version="1.0" encoding="UTF-8"?>
<svg xmlns="http://www.w3.org/2000/svg" width="42" height="42" viewBox="0 0 42 42" fill="none">
  <g clip-path="url(#clip0_242_634)">
    <path d="M24.8295 1C26.2895 1 27.5695 1.97 27.9495 3.37L30.9195 14.18C31.2695 15.44 31.9795 16.58 32.9595 17.45L33.7195 18.12C34.1995 18.55 34.6995 19.02 34.9695 19.59C35.2695 20.22 35.2595 20.9 34.8995 21.65L32.8395 25.94C32.2795 27.1 31.4095 28.08 30.3295 28.77L30.1095 28.9L28.7095 29.72C27.3495 30.52 25.7995 30.94 24.2095 30.94H17.9595C16.3795 30.94 14.8195 30.52 13.4595 29.72L12.0595 28.9C10.9495 28.25 10.0395 27.3 9.43946 26.16L9.31946 25.93L7.27946 21.65C6.91946 20.91 6.91946 20.23 7.20946 19.59C7.47946 19.02 7.97946 18.54 8.45946 18.12L9.21946 17.45L9.39946 17.28C10.2895 16.43 10.9395 15.36 11.2595 14.17L14.2395 3.37L14.3195 3.11C14.7795 1.85 15.9895 1 17.3595 1L24.8295 1ZM17.3595 2.32C16.4995 2.32 15.7495 2.89 15.5195 3.72L12.5495 14.53C12.1395 16.04 11.2895 17.4 10.1095 18.44L9.34946 19.11C8.85946 19.54 8.55946 19.86 8.41946 20.16C8.30946 20.4 8.27946 20.66 8.47946 21.09L10.5395 25.38L10.6295 25.57C11.1095 26.49 11.8395 27.25 12.7395 27.78L14.1395 28.6L14.3595 28.72C15.4595 29.32 16.6995 29.64 17.9595 29.64H24.2095C25.5495 29.64 26.8695 29.28 28.0295 28.6L29.4295 27.78L29.6095 27.67C30.4895 27.11 31.1895 26.32 31.6395 25.38L33.6995 21.09L33.7695 20.94C33.8995 20.6 33.8595 20.37 33.7695 20.17C33.6295 19.87 33.3295 19.56 32.8395 19.12L32.0795 18.45C30.8995 17.41 30.0495 16.05 29.6395 14.54L26.6695 3.73C26.4395 2.9 25.6895 2.33 24.8295 2.33H17.3595V2.32Z" fill="#25282A"></path>
    <path d="M29.7375 28.3497C29.8775 28.2897 30.0375 28.2897 30.1775 28.3497C30.3375 28.4197 30.4575 28.5497 30.5075 28.7097L33.3775 39.7097L33.4075 39.8897C33.4575 40.2997 33.3475 40.7197 33.0675 41.0397C32.7475 41.4297 32.2175 41.5997 31.7175 41.4797L31.6175 41.4497C31.2675 41.3397 30.9875 41.0897 30.8475 40.7697L30.7975 40.6297L28.6275 32.7497L21.0875 32.3597L13.5475 32.7497L11.3775 40.6297C11.2675 41.0197 10.9575 41.3297 10.5575 41.4597C10.0575 41.6197 9.5175 41.4797 9.1675 41.1197L9.0975 41.0497C8.7875 40.6697 8.6775 40.1797 8.7975 39.7197L11.6675 28.7197L11.6875 28.6597C11.7375 28.5197 11.8475 28.4097 11.9975 28.3597C12.1575 28.2997 12.3475 28.3097 12.4975 28.3897L13.9275 29.1897C14.1075 29.2897 14.2075 29.4797 14.1975 29.6697V29.7497C14.1975 29.7497 14.1875 29.7597 14.1875 29.7797C14.1875 29.7997 14.1875 29.8297 14.1875 29.8697C14.1975 29.9497 14.2275 30.0297 14.2575 30.0997C14.2775 30.1497 14.2975 30.1797 14.3175 30.2097H27.8175C27.8175 30.2097 27.8575 30.1497 27.8775 30.0997C27.9075 30.0297 27.9375 29.9397 27.9475 29.8697C27.9475 29.8297 27.9475 29.7997 27.9475 29.7797V29.7497C27.8975 29.5297 28.0075 29.2997 28.2075 29.1897L29.6375 28.3897L29.6975 28.3597L29.7375 28.3497ZM29.0875 29.9297C29.0675 30.1397 29.0075 30.3397 28.9275 30.5097C28.8575 30.6597 28.7575 30.8197 28.6275 30.9597C28.5175 31.0797 28.3375 31.1997 28.0975 31.2497H27.9975C27.9975 31.2497 27.9775 31.2597 27.9675 31.2597H14.1875C13.8975 31.2397 13.6875 31.0897 13.5575 30.9597C13.4275 30.8297 13.3275 30.6597 13.2575 30.5097C13.1775 30.3397 13.1175 30.1397 13.0975 29.9297L12.5875 29.6397L9.8975 39.9497C9.8575 40.0997 9.8975 40.2497 9.9875 40.3697L10.0375 40.4097C10.0875 40.4397 10.1575 40.4497 10.2175 40.4297C10.2675 40.4097 10.2975 40.3797 10.3075 40.3397L12.4775 32.4597C12.5975 32.0097 13.0175 31.6997 13.4975 31.6697L21.0675 31.2797H21.1275L28.6975 31.6697C29.1875 31.6897 29.5975 32.0097 29.7175 32.4597L31.8875 40.3397V40.3697C31.8875 40.3697 31.9475 40.4197 31.9775 40.4297H32.0375C32.0975 40.4397 32.1575 40.4097 32.1975 40.3697L32.2275 40.3197C32.2975 40.2097 32.3175 40.0797 32.2875 39.9497L29.5975 29.6397L29.0875 29.9297Z" fill="#25282A"></path>
    <path d="M27.8388 24.7803H28.1888C28.8788 24.8203 29.5688 24.9303 30.2288 25.1303L30.5588 25.2403L31.2888 25.4903L31.3888 25.5403C31.6088 25.6703 31.7188 25.9403 31.6288 26.1903C31.5388 26.4403 31.2788 26.5803 31.0288 26.5503L30.9188 26.5203L30.1888 26.2703C29.5288 26.0403 28.8388 25.9103 28.1388 25.8803H27.8388H14.3288C13.5288 25.8803 12.7388 26.0103 11.9788 26.2703L11.2488 26.5203C10.9588 26.6203 10.6388 26.4703 10.5388 26.1903C10.4388 25.9103 10.5888 25.6003 10.8788 25.5003L11.6088 25.2503L11.9388 25.1403C12.7088 24.9103 13.5188 24.7903 14.3288 24.7903H27.8388V24.7803Z" fill="#25282A"></path>
    <path d="M23.8613 13.3303C25.0813 13.3303 25.8913 14.4803 25.9813 15.6803L26.3313 19.9203L26.3813 20.4103C26.5113 21.5603 26.7813 22.6703 27.1613 23.7103L27.2213 23.8803L27.2413 23.9403C27.3313 24.2703 27.1613 24.6103 26.8413 24.7303C26.5313 24.8503 26.1813 24.7103 26.0313 24.4103L26.0013 24.3503L25.9413 24.1803C25.4613 22.8703 25.1513 21.4603 25.0313 20.0303L24.6813 15.7903C24.6313 15.0103 24.1613 14.6603 23.8513 14.6603H18.3213C18.0113 14.6603 17.5513 15.0103 17.4913 15.7803L17.1413 20.0303C17.0413 21.2903 16.7913 22.5203 16.4113 23.6803L16.2413 24.1803L16.1813 24.3503C16.0513 24.6903 15.6813 24.8603 15.3513 24.7303C15.0213 24.6003 14.8513 24.2203 14.9813 23.8703L15.0413 23.7003C15.4813 22.5103 15.7613 21.2203 15.8713 19.9103L16.2213 15.6703C16.3013 14.4703 17.1213 13.3203 18.3413 13.3203H23.8713L23.8613 13.3303Z" fill="#25282A"></path>
  </g>
  <defs>
    <clipPath id="clip0_242_634">
      <rect width="28.18" height="40.52" fill="white" transform="translate(7 1)"></rect>
    </clipPath>
  </defs>
</svg>
