<?xml version="1.0" encoding="UTF-8"?>
<svg xmlns="http://www.w3.org/2000/svg" id="katman_2" data-name="katman 2" viewBox="0 0 276.05 156.97">
  <defs>
    <style>
      .cls-1 {
        fill: none;
      }

      .cls-1, .cls-2 {
        stroke-width: 0px;
      }

      .cls-2 {
        fill: #191919;
      }
    </style>
  </defs>
  <g id="katman_1" data-name="katman 1">
    <rect class="cls-1" width="276.05" height="156.97"></rect>
    <g>
      <path class="cls-2" d="m67.48,99.37c1.16,1.39,2.25,1.43,3.29,1.69,5.61,1.41,7.03,3.6,5.68,9.25-.39,1.65-.51,2.51,1.39,2.94.57.13,1.46,1.4,1.33,1.6-2.48,3.95,1.55,5.46,2.86,7.98,1.3,2.48-.01,4.76-.69,7.09-1.39,4.82-.24,6.58,4.77,6.86,8.21.46,15.91-1.93,23.62-4.39,6.37-2.03,12.2-5.56,18.88-6.78,1.05-.19,1.8-1.64,2.86-2.15,1.55-.75,3.39-1.18,4.33.84.8,1.72.99,3.4-1.49,4.37-9.34,3.68-18.23,8.48-28.3,10.34-2.75.51-5.46,2.34-8.44,2.65-4.08.43-8.19.6-12.29.92-7.51.59-12.89-7.34-9.68-13.87,1.2-2.45,1.02-3.81-1.66-5.42-4.02-2.42-4.98-10-2.66-15.83-.17-.2-.31-.53-.51-.56-3.81-.71-7.85-1.28-9.2-5.67-1.31-4.27,2.64-6,4.68-8.69,6.28-8.27,9.73-17.5,7.41-27.95-2.26-10.16-.12-18.76,5.53-27.6,6.67-10.44,15.49-17.12,26.96-20.62,21.91-6.68,46.71,3.7,57.72,23.84.95,1.75,2.09,3.32-.07,4.6-2.14,1.27-3.62.04-4.85-1.91-1.63-2.58-3.28-5.21-5.34-7.43-11.35-12.27-25.39-17.05-41.87-14.51-16.35,2.52-30.35,16.37-33.24,32.57-.53,3-.09,5.83.67,8.62,1.98,7.32.56,14.15-1.89,21.15-2.17,6.18-4.35,12.14-9.83,16.08Z"></path>
      <path class="cls-2" d="m214.72,80.49c-.32,18.27-6.07,34.53-17.86,48.57-.3.35-.58.72-.91,1.03-1.69,1.65-3.87,3.7-5.81,1.46-1.5-1.74-2.26-4.49-.1-7.11,9.75-11.82,15.79-25.23,16.46-40.72.67-15.47-3.6-29.54-12.56-42.17-.53-.75-1.2-1.4-1.69-2.18-1.48-2.36-1.66-4.71.81-6.49,2.27-1.63,4.09-.21,5.57,1.45,2.98,3.33,5.26,7.17,7.31,11.11,5.71,10.97,8.47,22.72,8.77,35.06Z"></path>
      <path class="cls-2" d="m195.92,83.11c-.43,12.18-3.48,23.46-11.44,33.03-1.88,2.26-3.9,5.05-7.15,2.68-3.31-2.42-1.44-5.11.58-7.45,12.79-14.87,12.9-38.73,1.62-53.13-1.67-2.13-3.48-4.94-.34-7.19,3.29-2.36,5.34.23,7.11,2.65,6.38,8.76,9.23,18.69,9.63,29.41Z"></path>
      <path class="cls-2" d="m149.02,97.41c-7.63.05-12.26-6.35-12.28-12.86-.02-6.68,5.75-12.12,12.42-12.09,6.85.02,12.64,6.08,12.46,13.03-.17,6.57-5.89,11.99-12.6,11.92Z"></path>
      <path class="cls-2" d="m177.33,84.75c-.46,8.11-2.87,15.67-8.47,22.04-1.78,2.03-4.15,2.72-6.04,1.12-1.7-1.44-1.38-3.17.31-5.64,7.55-11.04,9.25-22.67.94-34.34-1.48-2.07-2.09-4.61.08-6.11,2.17-1.5,4.54-.69,6.31,1.71,4.62,6.27,6.58,13.35,6.87,21.22Z"></path>
    </g>
  </g>
</svg>
