<?xml version="1.0" encoding="UTF-8"?>
<svg xmlns="http://www.w3.org/2000/svg" id="katman_2" data-name="katman 2" viewBox="0 0 276.05 156.43">
  <defs>
    <style>
      .cls-1 {
        fill: none;
      }

      .cls-1, .cls-2 {
        stroke-width: 0px;
      }

      .cls-2 {
        fill: #090909;
      }
    </style>
  </defs>
  <g id="katman_1" data-name="katman 1">
    <rect class="cls-1" width="276.05" height="155.77"></rect>
    <g>
      <path class="cls-2" d="m169.12,111.4c3.39,4.57,5.88,8.66,7.96,13.01.93,1.96,1.27,3.89-.93,4.97-2.14,1.05-3.56-.16-4.5-2.23-1.73-3.84-3.97-7.4-6.44-10.82-.89-1.24-1.48-1.56-2.63-.15-1.51,1.86-3.27,3.52-5.02,5.17-1.33,1.25-2.87,1.28-4.18-.04-1.47-1.47-1.22-3.04.17-4.45,1.58-1.6,3.37-3.01,4.89-5.47-6.42,0-12.48,0-18.54,0-1.08,0-2.2.11-3.24-.11-1.58-.34-2.48-1.44-2.41-3.12.07-1.52.93-2.48,2.41-2.71,1.06-.16,2.16-.13,3.24-.13,15.28-.01,30.56-.01,45.84-.02,4.98,0,5.49-.54,5.5-5.64.03-11.51.66-9.92-10.11-10-4.81-.04-9.63.06-14.44-.04-1.84-.04-3,.16-2.72,2.45.27,2.19-.13,4.43-2.83,4.53-2.98.11-3.37-2.23-3.14-4.56.19-1.99-.63-2.42-2.48-2.41-15.4.07-30.8,0-46.2.07-4.48.02-7.59,3.15-7.75,7.37-.17,4.43,2.78,7.92,7.35,8.15,4.92.24,9.86.1,14.79.1,2.19,0,4.36.2,4.33,3.04-.03,2.78-2.12,3.07-4.35,3.05-4.69-.04-9.38.04-14.08-.02-7.74-.11-13.76-5.69-14.17-13.05-.43-7.62,4.96-14.06,12.8-14.66,2.77-.21,3.52-1.4,4.71-3.63,3.15-5.88,2.66-11.14-1.29-16.23-4.3-5.53-4.64-11.22-1.19-17.29.88-1.54,1.17-3.41,1.91-5.05.72-1.6,2.02-2.41,3.81-1.72,1.74.68,2.33,2.06,1.76,3.79-.86,2.62-1.77,5.23-2.81,7.79-.64,1.57-.32,2.3,1.32,2.88,11.08,3.94,22.14,7.92,33.15,12.04,1.83.68,2.24.07,2.77-1.4,3.68-10.29,7.36-20.58,11.19-30.81.68-1.81.07-2.23-1.43-2.77-10.95-3.95-21.88-7.94-32.79-11.98-1.73-.64-2.49-.36-3.08,1.5-1.15,3.66-2.64,7.21-3.95,10.82-.71,1.98-1.98,3.18-4.09,2.37-2.07-.8-2.29-2.54-1.57-4.51,3.27-8.9,6.53-17.81,9.75-26.73.95-2.64,2.68-3.07,5.13-2.17,13.63,4.99,27.27,9.96,40.91,14.91,2.69.98,3.37,2.61,2.37,5.34-6.09,16.56-12.1,33.15-18.09,49.74-.66,1.83-1.72,2.98-3.6,3.67-4.16,1.54-8.24,3.28-12.35,4.96-.98.4-1.96.72-2.43,1.92-.62,1.56-.74,2.43,1.43,2.39,5.41-.09,10.83-.09,16.24,0,1.59.03,2.24-.56,2.86-2,3.36-7.87,10.9-11.71,19.07-9.88,1.64.37,2.57,1.4,2.5,3.02-.07,1.6-1.02,2.71-2.7,2.84-1.44.12-2.88.06-4.33.07-3.97.01-6.83,1.75-8.89,5.92,7.04,0,13.68.04,20.32-.02,3.66-.03,7.95-.41,9.8,3.09,2.07,3.93,4.9,4.75,8.78,5.4,4.34.72,6.61,4.96,6.13,9.68-.43,4.25-3.8,7.4-8.11,7.79-2.82.25-6.75-1.34-8.13.89-1.09,1.75,2.07,4.67,3.18,7.15,4.7,10.44,6.3,21.39,5.65,32.72-.21,3.78-2.52,6.05-6.2,6.14-4.21.11-8.42.1-12.63,0-3.59-.09-5.89-2.16-6.17-5.75-.3-3.84-.66-7.66-1.49-11.43-.41-1.87.2-3.44,2.22-3.88,1.97-.43,3.18.56,3.66,2.53.8,3.28,1.32,6.61,1.43,9.98.06,1.92.68,2.76,2.77,2.61,2.63-.19,5.3-.18,7.93.03,2.02.16,2.49-.73,2.54-2.46.35-12.57-2.3-24.35-9.18-35.02-.62-.97-1.27-1.59-2.55-1.58-4.88.07-9.77.03-15.39.03Zm-51.03-50.03c-.25-.32-.53-.46-.81-.05-.01.02.3.26.45.39,4.12,10.75,18.43,15.64,26.47,8.91-8.76-3.1-17.44-6.18-26.12-9.25Zm13.92-54.13c-1.86.77-1.58,2.88-2.33,4.34-.86,1.68.74,1.71,1.61,2.03,10.89,4,21.84,7.83,32.66,12.02,2.87,1.11,2.84-.67,3.56-2.22.86-1.87,1-2.98-1.52-3.86-10.74-3.72-21.38-7.72-32.05-11.61-.56-.2-1.12-.41-1.92-.7Zm-13.43,74.66c-.25,1.15.02,1.6.77,1.6,3.7,0,7.41.1,11.1-.1,1.47-.08,1.34-1.81,1.69-2.86.46-1.38-.87-1.41-1.71-1.72-2.57-.95-5.14-1.89-7.72-2.81-.7-.25-1.53-1.06-2.03.28-.75,2.01-1.5,4.02-2.1,5.61Zm78.69,18.49c-.17,1.81-.3,3.36,2.38,3.14,2.13-.17,3.94-.48,3.97-3.02.03-2.57-1.76-2.88-3.9-3.07-2.6-.23-2.68,1.16-2.45,2.95Z"></path>
      <path class="cls-2" d="m71.51,81.11c1.86-1.25,3.63-2.57,5.48-.55,1.11,1.21,1.11,2.7,0,3.91-1.8,1.95-3.62.98-5.39-.71v12.02c1.94-1.36,3.85-2.13,5.39,0,.84,1.17.77,2.51-.22,3.66-1.65,1.9-3.38.95-5.16-.28v11.85c1.99-1.53,3.93-2.59,5.64-.22.87,1.2.77,2.59-.28,3.63-1.74,1.73-3.42,1.06-5.44-.97,0,7.41,0,14.29,0,21.17,0,1.32.01,2.64,0,3.97-.02,2.7-1.45,3.88-4.09,3.84-3.24-.05-6.49-.08-9.73,0-3.05.08-4.3-1.27-4.28-4.34.08-13.34.03-26.68.03-40.02,0-12.5-.01-25,0-37.49,0-4.32.49-4.79,4.75-4.82,3-.02,6.01.09,9.01-.04,3.09-.13,4.36,1.24,4.33,4.28-.07,6.97-.02,13.93-.02,21.13Zm-12.1,18.08c0,11.31.08,22.62-.06,33.93-.03,2.51.64,3.24,3.18,3.23,2.45-.01,2.93-.81,2.92-3.09-.08-22.74-.07-45.48-.01-68.21,0-2.22-.11-3.48-2.97-3.44-2.62.04-3.14.85-3.11,3.29.13,11.43.06,22.86.06,34.29Z"></path>
      <path class="cls-2" d="m86.63,94.41c1.69.28,2.95,1.2,2.93,2.99-.02,1.94-1.26,3.14-3.2,3.04-1.76-.09-2.81-1.3-2.74-3.11.07-1.83,1.23-2.73,3.01-2.92Z"></path>
      <path class="cls-2" d="m89.51,109.35c-.23,1.73-1.03,2.95-2.88,3.06-1.83.1-3.04-.92-3.15-2.67-.13-1.9.96-3.22,2.95-3.26,1.81-.03,2.71,1.2,3.09,2.87Z"></path>
      <path class="cls-2" d="m89.5,85.49c-.38,1.7-1.21,2.97-3.07,2.91-2-.06-3.12-1.35-2.97-3.24.13-1.69,1.28-2.78,3.16-2.67,1.89.11,2.61,1.37,2.88,3Z"></path>
    </g>
  </g>
</svg>
