<?xml version="1.0" encoding="UTF-8"?>
<svg xmlns="http://www.w3.org/2000/svg" id="katman_2" data-name="katman 2" viewBox="0 0 276.05 155.48">
  <defs>
    <style>
      .cls-1, .cls-2 {
        stroke-width: 0px;
      }

      .cls-2 {
        fill: none;
      }
    </style>
  </defs>
  <g id="katman_1" data-name="katman 1">
    <rect class="cls-2" width="276.05" height="155.48"></rect>
    <g>
      <path class="cls-1" d="m186.06,118.75c0,8.68.01,16.84,0,25.01-.01,5.64-.55,6.18-6.21,6.18-27.94,0-55.87,0-83.81,0-5.44,0-6.04-.58-6.05-5.91-.02-8.19,0-16.38,0-25.06-1.73-.09-3.19-.22-4.66-.22-7.37-.02-14.73-.08-22.1.02-3.52.05-5.12-1.39-5.02-4.96.12-4.17.07-8.34.02-12.51-.03-3.07,1.28-4.64,4.48-4.63,17.37.03,34.75-.04,52.12.1,1.64.01,3.46.92,4.87,1.89,5.94,4.1,11.76,8.38,17.84,12.75,6.22-4.26,12.3-8.6,18.6-12.61,1.86-1.19,4.31-2.01,6.5-2.03,16.54-.17,33.08-.1,49.62-.08,4.74,0,5.52.82,5.56,5.6.03,3.75-.11,7.51.04,11.26.15,3.73-1.41,5.29-5.18,5.24-8.61-.13-17.22-.04-26.61-.04Zm-6.73,0c-4.68,0-9.13-.33-13.5.12-3,.31-6.2,1.18-8.77,2.72-5.47,3.26-10.68,7-15.83,10.78-2.65,1.95-4.78,2.08-7.42,0-4.14-3.26-8.9-5.81-12.73-9.38-7.47-6.95-16.1-3.28-24.34-4.24v24.33h82.59v-24.32Zm31.81-15.48c-16.59,0-32.7-.04-48.82.07-1.25,0-2.6.86-3.71,1.6-5.54,3.72-11.2,7.29-16.45,11.39-3.56,2.78-6.21,2.44-9.53-.25-4.54-3.66-9.3-7.09-14.22-10.21-2.18-1.38-4.98-2.44-7.53-2.5-11.4-.26-22.8-.11-34.21-.11-3.85,0-7.7,0-11.67,0v8.96c10.54,0,20.88.81,31.04-.19,14.69-1.44,27.35,1.82,37.92,12.3,2.34,2.32,4.39,2.37,7.13.25,4.71-3.66,9.68-7.03,14.76-10.16,1.99-1.23,4.57-2.06,6.9-2.09,14.6-.19,29.2-.1,43.8-.1,1.47,0,2.94,0,4.58,0v-8.95Z"></path>
      <path class="cls-1" d="m172.77,57.96c0,2.89,0,5.36,0,7.82,0,2.9-1.34,4.34-4.34,4.29-4.69-.08-9.38-.02-14.55-.02,0,6.85.2,13.22-.12,19.56-.1,1.92-1.22,4.22-2.63,5.54-3.02,2.85-6.58,5.1-9.81,7.74-2.28,1.87-4.21,1.93-6.68.13-12.67-9.26-12.7-9.21-12.7-24.91,0-2.48,0-4.96,0-8.07-4.59,0-8.85.02-13.11,0-5.19-.03-5.74-.58-5.78-5.74-.02-1.92,0-3.85,0-6.12-1.65-.08-3-.21-4.34-.21-7.37-.02-14.74-.04-22.11,0-2.69.01-4.74-.64-4.74-3.85,0-11.83,0-23.65,0-35.48,0-2.56,1.25-3.86,3.81-3.9.97-.01,1.95-.02,2.92-.02,39.63,0,79.26,0,118.88,0,6.31,0,6.5.2,6.51,6.65.01,10.29.02,20.59,0,30.88,0,5.12-.59,5.68-5.82,5.69-8.31.02-16.61,0-25.38,0Zm24.46-36.43h-118.57v29.59h118.57v-29.59Zm-68.75,48.77c0,4.47.37,8.66-.09,12.75-.58,5.16,1.18,8.56,5.58,11.27,2.63,1.62,4.57,3.5,7.3.37,1.85-2.12,5.46-3.77,5.76-5.98.81-5.96.28-12.1.28-18.41h-18.82Zm37.54-12.01h-56.44c.08,1.92.15,3.5.22,5.1h56.21v-5.1Z"></path>
      <path class="cls-1" d="m95.04,46.57c-10.71-.04-10.29,1.25-10.28-10.35.01-11.03-.57-10.17,10.08-10.16,11.85.01,10.57-.92,10.64,10.79.06,10.88.52,9.68-10.44,9.72Zm-3.47-6.8h6.98v-6.99h-6.98v6.99Z"></path>
      <path class="cls-1" d="m120.9,46.57c-10.83-.02-10.3,1.1-10.3-10.34,0-11.02-.59-10.17,10.08-10.17,11.85,0,10.6-.87,10.66,10.79.07,10.97.38,9.69-10.44,9.73Zm3.6-6.74v-7.02h-7.04v7.02h7.04Z"></path>
      <path class="cls-1" d="m168.91,36.11c0,2.35.34,4.78-.13,7.04-.27,1.27-1.87,2.25-2.87,3.37-1.17-1.1-3.24-2.13-3.34-3.33-.4-4.54-.39-9.15,0-13.68.11-1.21,2.15-2.25,3.31-3.36,1.02,1.25,2.55,2.35,2.92,3.77.51,1.95.13,4.12.13,6.2,0,0-.01,0-.02,0Z"></path>
      <path class="cls-1" d="m182.23,36.36c0,2.22.39,4.54-.14,6.62-.35,1.36-2.05,2.37-3.14,3.54-1.08-1.05-3-2.03-3.09-3.15-.35-4.69-.35-9.43,0-14.11.08-1.11,2.03-2.87,3.13-2.87,1.06,0,2.79,1.72,3.06,2.94.5,2.25.14,4.68.14,7.04,0,0,.02,0,.03,0Z"></path>
    </g>
  </g>
</svg>
