<?xml version="1.0" encoding="UTF-8"?>
<svg xmlns="http://www.w3.org/2000/svg" width="44" height="26" viewBox="0 0 44 26" fill="none">
  <path d="M43.3323 0H19.1641V2.02172H43.3323V0Z" fill="#C43E3C"></path>
  <path d="M43.3323 4.04346H19.1641V6.06518H43.3323V4.04346Z" fill="#C43E3C"></path>
  <path d="M43.3323 8.0835H19.1641V10.1052H43.3323V8.0835Z" fill="#C43E3C"></path>
  <path d="M43.3323 12.1182H19.1641V14.1399H43.3323V12.1182Z" fill="#C43E3C"></path>
  <path d="M43.3323 2.02148H19.1641V4.04321H43.3323V2.02148Z" fill="white"></path>
  <path d="M43.3323 6.0625H19.1641V8.08422H43.3323V6.0625Z" fill="white"></path>
  <path d="M43.3323 10.1055H19.1641V12.1272H43.3323V10.1055Z" fill="white"></path>
  <path d="M43.333 14.1455H0V16.1H43.333V14.1455Z" fill="white"></path>
  <path d="M43.333 18.0977H0V20.0521H43.333V18.0977Z" fill="white"></path>
  <path d="M43.333 22.0483H0V24.0028H43.333V22.0483Z" fill="white"></path>
  <path d="M43.333 16.1001H0V18.0965H43.333V16.1001Z" fill="#C43E3C"></path>
  <path d="M43.333 20.0522H0V22.0487H43.333V20.0522Z" fill="#C43E3C"></path>
  <path d="M43.333 24.0034H0V25.9998H43.333V24.0034Z" fill="#C43E3C"></path>
  <path d="M19.8077 0H0V14.1459H19.8077V0Z" fill="#0A45A3"></path>
  <path d="M1.72994 0.678223L1.95389 1.13291L2.45608 1.20571L2.0927 1.55983L2.17846 2.05956L1.72994 1.82327L1.2808 2.05956L1.36655 1.55983L1.00317 1.20571L1.50537 1.13291L1.72994 0.678223Z" fill="white"></path>
  <path d="M3.38069 2.1167L3.60464 2.57139L4.10683 2.64419L3.74345 2.99769L3.82921 3.49804L3.38069 3.26175L2.93155 3.49804L3.01731 2.99769L2.65454 2.64419L3.15612 2.57139L3.38069 2.1167Z" fill="white"></path>
  <path d="M6.68269 2.1167L6.90726 2.57139L7.40883 2.64419L7.04607 2.99769L7.13121 3.49804L6.68269 3.26175L6.23355 3.49804L6.31931 2.99769L5.95654 2.64419L6.45812 2.57139L6.68269 2.1167Z" fill="white"></path>
  <path d="M10.0518 2.1167L10.2764 2.57139L10.778 2.64419L10.4152 2.99769L10.501 3.49804L10.0518 3.26175L9.60331 3.49804L9.68845 2.99769L9.32568 2.64419L9.82726 2.57139L10.0518 2.1167Z" fill="white"></path>
  <path d="M13.3653 2.1167L13.5899 2.57139L14.0915 2.64419L13.7287 2.99769L13.8144 3.49804L13.3653 3.26175L12.9168 3.49804L13.0025 2.99769L12.6392 2.64419L13.1407 2.57139L13.3653 2.1167Z" fill="white"></path>
  <path d="M16.679 2.1167L16.9036 2.57139L17.4058 2.64419L17.0424 2.99769L17.1282 3.49804L16.679 3.26175L16.2305 3.49804L16.3163 2.99769L15.9529 2.64419L16.4551 2.57139L16.679 2.1167Z" fill="white"></path>
  <path d="M5.02204 0.678223L5.24661 1.13291L5.74819 1.20571L5.38542 1.55983L5.47118 2.05956L5.02204 1.82327L4.57352 2.05956L4.65928 1.55983L4.2959 1.20571L4.79748 1.13291L5.02204 0.678223Z" fill="white"></path>
  <path d="M8.41316 0.678223L8.63773 1.13291L9.1393 1.20571L8.77654 1.55983L8.86229 2.05956L8.41316 1.82327L7.96464 2.05956L8.05039 1.55983L7.68701 1.20571L8.18859 1.13291L8.41316 0.678223Z" fill="white"></path>
  <path d="M11.7288 0.678223L11.9534 1.13291L12.455 1.20571L12.0922 1.55983L12.1774 2.05956L11.7288 1.82327L11.2797 2.05956L11.3654 1.55983L11.0027 1.20571L11.5043 1.13291L11.7288 0.678223Z" fill="white"></path>
  <path d="M15.044 0.678223L15.268 1.13291L15.7702 1.20571L15.4068 1.55983L15.4925 2.05956L15.044 1.82327L14.5949 2.05956L14.6806 1.55983L14.3179 1.20571L14.8194 1.13291L15.044 0.678223Z" fill="white"></path>
  <path d="M18.4046 0.678223L18.6292 1.13291L19.1314 1.20571L18.768 1.55983L18.8537 2.05956L18.4046 1.82327L17.9561 2.05956L18.0418 1.55983L17.6785 1.20571L18.1807 1.13291L18.4046 0.678223Z" fill="white"></path>
  <path d="M1.68122 3.52686L1.90579 3.98154L2.40737 4.05434L2.0446 4.40847L2.13036 4.90819L1.68122 4.67252L1.2327 4.90819L1.31846 4.40847L0.955078 4.05434L1.45727 3.98154L1.68122 3.52686Z" fill="white"></path>
  <path d="M3.33272 4.96484L3.55667 5.41953L4.05886 5.49233L3.69548 5.84646L3.78124 6.34618L3.33272 6.10989L2.88358 6.34618L2.96934 5.84646L2.60596 5.49233L3.10815 5.41953L3.33272 4.96484Z" fill="white"></path>
  <path d="M6.63484 4.96484L6.8594 5.41953L7.36098 5.49233L6.9976 5.84646L7.08335 6.34618L6.63484 6.10989L6.1857 6.34618L6.27145 5.84646L5.90869 5.49233L6.41027 5.41953L6.63484 4.96484Z" fill="white"></path>
  <path d="M10.0037 4.96484L10.2283 5.41953L10.7299 5.49233L10.3665 5.84646L10.4523 6.34618L10.0037 6.10989L9.5546 6.34618L9.64035 5.84646L9.27759 5.49233L9.77916 5.41953L10.0037 4.96484Z" fill="white"></path>
  <path d="M13.3172 4.96484L13.5418 5.41953L14.0434 5.49233L13.6806 5.84646L13.7663 6.34618L13.3172 6.10989L12.8687 6.34618L12.9538 5.84646L12.5911 5.49233L13.0926 5.41953L13.3172 4.96484Z" fill="white"></path>
  <path d="M16.6309 4.96484L16.8555 5.41953L17.3571 5.49233L16.9943 5.84646L17.0801 6.34618L16.6309 6.10989L16.1824 6.34618L16.2682 5.84646L15.9048 5.49233L16.4064 5.41953L16.6309 4.96484Z" fill="white"></path>
  <path d="M4.9737 3.52686L5.19827 3.98154L5.69985 4.05434L5.33708 4.40847L5.42284 4.90819L4.9737 4.67252L4.52518 4.90819L4.61032 4.40847L4.24756 4.05434L4.74914 3.98154L4.9737 3.52686Z" fill="white"></path>
  <path d="M8.36506 3.52686L8.58963 3.98154L9.09121 4.05434L8.72844 4.40847L8.8142 4.90819L8.36506 4.67252L7.91654 4.90819L8.00168 4.40847L7.63892 4.05434L8.14049 3.98154L8.36506 3.52686Z" fill="white"></path>
  <path d="M11.6807 3.52686L11.9053 3.98154L12.4069 4.05434L12.0435 4.40847L12.1293 4.90819L11.6807 4.67252L11.2316 4.90819L11.3174 4.40847L10.9546 4.05434L11.4562 3.98154L11.6807 3.52686Z" fill="white"></path>
  <path d="M14.996 3.52686L15.22 3.98154L15.7222 4.05434L15.3588 4.40847L15.4446 4.90819L14.996 4.67252L14.5469 4.90819L14.6327 4.40847L14.2693 4.05434L14.7715 3.98154L14.996 3.52686Z" fill="white"></path>
  <path d="M18.3565 3.52686L18.5811 3.98154L19.0827 4.05434L18.7199 4.40847L18.8057 4.90819L18.3565 4.67252L17.908 4.90819L17.9938 4.40847L17.6304 4.05434L18.1326 3.98154L18.3565 3.52686Z" fill="white"></path>
  <path d="M1.68122 6.27344L1.90579 6.72813L2.40737 6.80093L2.0446 7.15505L2.13036 7.65477L1.68122 7.41849L1.2327 7.65477L1.31846 7.15505L0.955078 6.80093L1.45727 6.72813L1.68122 6.27344Z" fill="white"></path>
  <path d="M3.33272 7.7124L3.55667 8.16709L4.05886 8.23989L3.69548 8.59401L3.78124 9.09374L3.33272 8.85745L2.88358 9.09374L2.96934 8.59401L2.60596 8.23989L3.10815 8.16709L3.33272 7.7124Z" fill="white"></path>
  <path d="M6.63484 7.7124L6.8594 8.16709L7.36098 8.23989L6.9976 8.59401L7.08335 9.09374L6.63484 8.85745L6.1857 9.09374L6.27145 8.59401L5.90869 8.23989L6.41027 8.16709L6.63484 7.7124Z" fill="white"></path>
  <path d="M10.0037 7.7124L10.2283 8.16709L10.7299 8.23989L10.3665 8.59401L10.4523 9.09374L10.0037 8.85745L9.5546 9.09374L9.64035 8.59401L9.27759 8.23989L9.77916 8.16709L10.0037 7.7124Z" fill="white"></path>
  <path d="M13.3172 7.7124L13.5418 8.16709L14.0434 8.23989L13.6806 8.59401L13.7663 9.09374L13.3172 8.85745L12.8687 9.09374L12.9538 8.59401L12.5911 8.23989L13.0926 8.16709L13.3172 7.7124Z" fill="white"></path>
  <path d="M16.6309 7.7124L16.8555 8.16709L17.3571 8.23989L16.9943 8.59401L17.0801 9.09374L16.6309 8.85745L16.1824 9.09374L16.2682 8.59401L15.9048 8.23989L16.4064 8.16709L16.6309 7.7124Z" fill="white"></path>
  <path d="M4.9737 6.27344L5.19827 6.72813L5.69985 6.80093L5.33708 7.15505L5.42284 7.65477L4.9737 7.41849L4.52518 7.65477L4.61032 7.15505L4.24756 6.80093L4.74914 6.72813L4.9737 6.27344Z" fill="white"></path>
  <path d="M8.36506 6.27344L8.58963 6.72813L9.09121 6.80093L8.72844 7.15505L8.8142 7.65477L8.36506 7.41849L7.91654 7.65477L8.00168 7.15505L7.63892 6.80093L8.14049 6.72813L8.36506 6.27344Z" fill="white"></path>
  <path d="M11.6807 6.27344L11.9053 6.72813L12.4069 6.80093L12.0435 7.15505L12.1293 7.65477L11.6807 7.41849L11.2316 7.65477L11.3174 7.15505L10.9546 6.80093L11.4562 6.72813L11.6807 6.27344Z" fill="white"></path>
  <path d="M14.996 6.27344L15.22 6.72813L15.7222 6.80093L15.3588 7.15505L15.4446 7.65477L14.996 7.41849L14.5469 7.65477L14.6327 7.15505L14.2693 6.80093L14.7715 6.72813L14.996 6.27344Z" fill="white"></path>
  <path d="M18.3565 6.27344L18.5811 6.72813L19.0827 6.80093L18.7199 7.15505L18.8057 7.65477L18.3565 7.41849L17.908 7.65477L17.9938 7.15505L17.6304 6.80093L18.1326 6.72813L18.3565 6.27344Z" fill="white"></path>
  <path d="M1.68122 9.16895L1.90579 9.62363L2.40737 9.69643L2.0446 10.0506L2.13036 10.5503L1.68122 10.3146L1.2327 10.5503L1.31846 10.0506L0.955078 9.69643L1.45727 9.62363L1.68122 9.16895Z" fill="white"></path>
  <path d="M3.33272 10.6079L3.55667 11.0626L4.05886 11.1354L3.69548 11.4895L3.78124 11.9892L3.33272 11.7536L2.88358 11.9892L2.96934 11.4895L2.60596 11.1354L3.10815 11.0626L3.33272 10.6079Z" fill="white"></path>
  <path d="M6.63484 10.6079L6.8594 11.0626L7.36098 11.1354L6.9976 11.4895L7.08335 11.9892L6.63484 11.7536L6.1857 11.9892L6.27145 11.4895L5.90869 11.1354L6.41027 11.0626L6.63484 10.6079Z" fill="white"></path>
  <path d="M10.0037 10.6079L10.2283 11.0626L10.7299 11.1354L10.3665 11.4895L10.4523 11.9892L10.0037 11.7536L9.5546 11.9892L9.64035 11.4895L9.27759 11.1354L9.77916 11.0626L10.0037 10.6079Z" fill="white"></path>
  <path d="M13.3172 10.6079L13.5418 11.0626L14.0434 11.1354L13.6806 11.4895L13.7663 11.9892L13.3172 11.7536L12.8687 11.9892L12.9538 11.4895L12.5911 11.1354L13.0926 11.0626L13.3172 10.6079Z" fill="white"></path>
  <path d="M16.6309 10.6079L16.8555 11.0626L17.3571 11.1354L16.9943 11.4895L17.0801 11.9892L16.6309 11.7536L16.1824 11.9892L16.2682 11.4895L15.9048 11.1354L16.4064 11.0626L16.6309 10.6079Z" fill="white"></path>
  <path d="M4.9737 9.16895L5.19827 9.62363L5.69985 9.69643L5.33708 10.0506L5.42284 10.5503L4.9737 10.3146L4.52518 10.5503L4.61032 10.0506L4.24756 9.69643L4.74914 9.62363L4.9737 9.16895Z" fill="white"></path>
  <path d="M8.36506 9.16895L8.58963 9.62363L9.09121 9.69643L8.72844 10.0506L8.8142 10.5503L8.36506 10.3146L7.91654 10.5503L8.00168 10.0506L7.63892 9.69643L8.14049 9.62363L8.36506 9.16895Z" fill="white"></path>
  <path d="M11.6807 9.16895L11.9053 9.62363L12.4069 9.69643L12.0435 10.0506L12.1293 10.5503L11.6807 10.3146L11.2316 10.5503L11.3174 10.0506L10.9546 9.69643L11.4562 9.62363L11.6807 9.16895Z" fill="white"></path>
  <path d="M14.996 9.16895L15.22 9.62363L15.7222 9.69643L15.3588 10.0506L15.4446 10.5503L14.996 10.3146L14.5469 10.5503L14.6327 10.0506L14.2693 9.69643L14.7715 9.62363L14.996 9.16895Z" fill="white"></path>
  <path d="M18.3565 9.16895L18.5811 9.62363L19.0827 9.69643L18.7199 10.0506L18.8057 10.5503L18.3565 10.3146L17.908 10.5503L17.9938 10.0506L17.6304 9.69643L18.1326 9.62363L18.3565 9.16895Z" fill="white"></path>
  <path d="M1.72994 11.9893L1.95389 12.4439L2.45608 12.5167L2.0927 12.8709L2.17846 13.3706L1.72994 13.1349L1.2808 13.3706L1.36655 12.8709L1.00317 12.5167L1.50537 12.4439L1.72994 11.9893Z" fill="white"></path>
  <path d="M5.02204 11.9893L5.24661 12.4439L5.74819 12.5167L5.38542 12.8709L5.47118 13.3706L5.02204 13.1349L4.57352 13.3706L4.65928 12.8709L4.2959 12.5167L4.79748 12.4439L5.02204 11.9893Z" fill="white"></path>
  <path d="M8.41316 11.9893L8.63773 12.4439L9.1393 12.5167L8.77654 12.8709L8.86229 13.3706L8.41316 13.1349L7.96464 13.3706L8.05039 12.8709L7.68701 12.5167L8.18859 12.4439L8.41316 11.9893Z" fill="white"></path>
  <path d="M11.7288 11.9893L11.9534 12.4439L12.455 12.5167L12.0922 12.8709L12.1774 13.3706L11.7288 13.1349L11.2797 13.3706L11.3654 12.8709L11.0027 12.5167L11.5043 12.4439L11.7288 11.9893Z" fill="white"></path>
  <path d="M15.044 11.9893L15.268 12.4439L15.7702 12.5167L15.4068 12.8709L15.4925 13.3706L15.044 13.1349L14.5949 13.3706L14.6806 12.8709L14.3179 12.5167L14.8194 12.4439L15.044 11.9893Z" fill="white"></path>
  <path d="M18.4046 11.9893L18.6292 12.4439L19.1314 12.5167L18.768 12.8709L18.8537 13.3706L18.4046 13.1349L17.9561 13.3706L18.0418 12.8709L17.6785 12.5167L18.1807 12.4439L18.4046 11.9893Z" fill="white"></path>
</svg>
