<?xml version="1.0" encoding="UTF-8"?>
<svg xmlns="http://www.w3.org/2000/svg" width="107" height="95" viewBox="0 0 107 95" fill="none">
  <path fill-rule="evenodd" clip-rule="evenodd" d="M16.8451 30.6903L49.1505 49.1505L35.3053 53.7655L3 35.3053L16.8451 30.6903ZM49.1505 12.2301L81.4558 30.6903L90.6859 21.4602L58.3806 3L49.1505 12.2301Z" stroke="white" stroke-width="5" stroke-linecap="round" stroke-linejoin="round"></path>
  <path d="M68.5016 60.6903C71.3486 55.4862 76.6701 51.9849 82.7649 51.9849C89.6753 51.9849 95.5915 56.486 98.0342 62.8667M73.5026 62.8667H65.2695V54.1612M96.8594 78.1013C94.0123 83.3054 88.6909 86.8067 82.5961 86.8067C75.6856 86.8067 69.7695 82.3056 67.3268 75.9249M91.8583 75.9249H100.091V84.6304" stroke="white" stroke-width="5" stroke-linecap="round" stroke-linejoin="round"></path>
  <path fill-rule="evenodd" clip-rule="evenodd" d="M80.3328 35.1992C81.5484 34.5446 82.0032 33.0284 81.3485 31.8127C80.6938 30.5971 79.1776 30.1424 77.962 30.797L52.3396 44.5958L52.3392 44.596C51.3589 45.1237 50.2629 45.3999 49.1496 45.3999C48.0361 45.3999 46.94 45.1236 45.9595 44.5958C44.7438 43.9414 43.2276 44.3964 42.5732 45.6121C41.9187 46.8279 42.3738 48.344 43.5895 48.9984C44.5554 49.5184 45.5858 49.8983 46.6496 50.1304V79.1486C46.6496 80.5293 47.7689 81.6486 49.1496 81.6486C50.5303 81.6486 51.6496 80.5293 51.6496 79.1486V50.1304C52.7134 49.8983 53.7437 49.5184 54.7096 48.9984L54.71 48.9982L80.3328 35.1992Z" fill="white"></path>
  <path fill-rule="evenodd" clip-rule="evenodd" d="M50.391 10.0599C49.6224 9.62067 48.6789 9.62067 47.9103 10.0599L15.605 28.5201C14.4062 29.2051 13.9897 30.7322 14.6747 31.931C15.3597 33.1298 16.8869 33.5463 18.0857 32.8613L49.1507 15.1098L77.8769 32.3919C77.9357 32.4828 77.9924 32.5752 78.0469 32.6691C78.6426 33.6956 78.9562 34.8614 78.956 36.0483V36.0487V46.7676C80.5588 46.3029 82.232 46.0041 83.956 45.891V36.0492L77.8769 32.3919C77.293 31.4892 76.5003 30.738 75.564 30.2032L75.5637 30.203L49.1507 15.1098L47.9103 10.0599L83.956 36.0487C83.9563 33.9803 83.4096 31.9486 82.3714 30.1595C81.3332 28.3705 79.8404 26.8878 78.0444 25.8618L78.044 25.8616L50.391 10.0599ZM63.0581 76.388C62.5402 74.7294 62.2009 72.9919 62.0628 71.1981L52.4888 76.6687C51.4721 77.2494 50.3215 77.5549 49.1507 77.5549C47.9798 77.5549 46.8292 77.2494 45.8125 76.6687L22.7376 63.4836L22.7373 63.4835C21.7067 62.8948 20.8502 62.0441 20.2545 61.0175C19.6588 59.991 19.3451 58.8252 19.3453 57.6384V57.6379V44.7066C19.3453 43.3259 18.226 42.2066 16.8453 42.2066C15.4646 42.2066 14.3453 43.3259 14.3453 44.7066V57.6375V57.6379C14.345 59.7064 14.8917 61.7381 15.9299 63.5271C16.9681 65.3162 18.4609 66.7989 20.257 67.8249L20.2573 67.8251L43.3322 81.0101L43.3325 81.0103C45.1045 82.0225 47.1099 82.5549 49.1507 82.5549C51.1914 82.5549 53.1968 82.0225 54.9688 81.0103L54.9691 81.0101L63.0581 76.388Z" fill="white"></path>
  <path d="M77 30.5063L79.4412 31.9348" stroke="white" stroke-width="2" stroke-linecap="round" stroke-linejoin="round"></path>
  <path d="M82.8408 34.0059L83 38.0002" stroke="white" stroke-width="2" stroke-linecap="round" stroke-linejoin="round"></path>
  <path d="M81.0977 33L80.9283 37.0574" stroke="white" stroke-width="2" stroke-linecap="round" stroke-linejoin="round"></path>
</svg>
