<?xml version="1.0" encoding="UTF-8"?>
<svg xmlns="http://www.w3.org/2000/svg" id="katman_2" data-name="katman 2" viewBox="0 0 276.05 153.38">
  <defs>
    <style>
      .cls-1, .cls-2 {
        stroke-width: 0px;
      }

      .cls-2 {
        fill: none;
      }
    </style>
  </defs>
  <g id="katman_1" data-name="katman 1">
    <rect class="cls-2" width="276.05" height="153.38"></rect>
    <g>
      <path class="cls-1" d="m69.21,128.5c-.22-.06-.45-.12-.68-.19-1.51-.46-2.37-1.73-2.25-3.27.12-1.48,1.28-2.64,2.82-2.81.36-.04.74-.02,1.1-.02,40.49,0,80.97,0,121.46,0h1.35v-15.44c-.49,0-.91,0-1.34,0-26.13,0-52.26,0-78.39.01-1.27,0-2.38-.21-3.15-1.32-.68-.99-.78-2.06-.25-3.14.51-1.04,1.37-1.63,2.54-1.72.27-.02.55-.01.83-.01,27.42,0,54.84,0,82.26,0,.55,0,1.12,0,1.64.15,1.39.4,2.12,1.56,2.12,3.28,0,5.71,0,11.41,0,17.12,0,.33,0,.66,0,.79,1.99.48,3.89.73,5.64,1.4,6.91,2.62,10.82,9.75,9.57,17.18-1.18,6.99-7.38,12.37-14.61,12.64-.67.03-1.35.02-2.02.02-38.58,0-77.17,0-115.75,0-8.08,0-14.42-5.31-15.68-13.22-.59-3.71.18-7.2,2.16-10.4.19-.31.4-.62.6-.93.01-.02,0-.06.02-.12Zm117.6,18.46c-4.04-6.22-4.03-12.34-.03-18.48h-33.79c4.03,6.19,3.99,12.33-.01,18.48h33.83Zm-92.59-18.48c4.03,6.22,3.99,12.33,0,18.46h33.79c-4-6.17-4.01-12.29,0-18.46h-33.8Zm-3.21,9.22c0-5.08-4.18-9.26-9.25-9.26-5.07,0-9.28,4.17-9.3,9.23-.02,5.08,4.24,9.35,9.32,9.33,5.07-.02,9.24-4.22,9.24-9.3Zm99-.04c-.02,5.08,4.12,9.28,9.2,9.34,5.06.06,9.35-4.2,9.36-9.29,0-5.05-4.2-9.26-9.26-9.27-5.07-.02-9.27,4.15-9.29,9.22Zm-58.76.1c.03,5.08,4.2,9.24,9.26,9.24,5.11,0,9.27-4.21,9.25-9.34-.02-5.13-4.23-9.27-9.35-9.22-5.09.05-9.19,4.23-9.16,9.32Z"></path>
      <path class="cls-1" d="m121.92,63.47c-1.06,0-1.97,0-2.89,0-2.01-.02-3.27-1.24-3.28-3.28-.03-3.65,0-7.3,0-10.95,0-.37,0-.73,0-1.23h-1.13c-6.69,0-13.37,0-20.06,0-2.37,0-3.54-1.19-3.55-3.58,0-2.88,0-5.76,0-8.78-.38,0-.7,0-1.02,0-3.68,0-7.36,0-11.04,0-7.23-.02-12.64-5.39-12.67-12.6-.02-5.03-.01-10.06,0-15.09,0-1.76,1.08-3.04,2.64-3.23,1.98-.24,3.51,1.12,3.52,3.17.01,4.94,0,9.88.02,14.82,0,.79.09,1.6.31,2.36.72,2.49,2.99,4.23,5.57,4.34.61.03,1.23.02,1.84.02,30.18,0,60.37,0,90.55,0,4.39,0,6.89-2.5,6.89-6.91,0-4.88-.02-9.76.01-14.63.01-2.34,2.16-3.83,4.24-2.97,1.18.49,1.9,1.39,1.91,2.68.02,5.55.14,11.11-.05,16.66-.21,6.26-5.78,11.33-12.24,11.39-3.74.04-7.48,0-11.23,0-.36,0-.72,0-1.19,0,0,.51,0,.92,0,1.34,0,2.55,0,5.09,0,7.64,0,2.11-1.27,3.37-3.39,3.37-6.75,0-13.5,0-20.24,0h-1.14c0,.42,0,.77,0,1.13,0,3.62,0,7.24,0,10.86,0,2.28-1.18,3.46-3.45,3.47-.86,0-1.71,0-2.71,0,0,.95,0,1.86,0,2.76-.01,2.04-1.32,3.46-3.15,3.43-1.8-.03-3.05-1.42-3.07-3.43,0-.88,0-1.77,0-2.77Zm30.88-27.76h-55.52v6.03h55.52v-6.03Zm-30.8,12.34v9.15h6.07v-9.15h-6.07Z"></path>
      <path class="cls-1" d="m78.66,106.77c-3.12,0-6.25.02-9.37,0-1.51-.01-2.74-1.1-2.97-2.51-.25-1.58.55-2.99,2.03-3.48.4-.13.84-.17,1.26-.17,6.03,0,12.07-.01,18.1,0,1.93,0,3.29,1.29,3.3,3.06,0,1.83-1.35,3.1-3.35,3.11-3,0-6,0-9,0Z"></path>
      <path class="cls-1" d="m121.93,78.98c-.02,1.71-1.43,3.1-3.13,3.07-1.71-.03-3.09-1.45-3.06-3.15.03-1.71,1.44-3.09,3.14-3.07,1.7.02,3.06,1.43,3.04,3.15Z"></path>
      <path class="cls-1" d="m134.3,78.97c-.02,1.72-1.41,3.09-3.12,3.07-1.7-.02-3.07-1.43-3.05-3.15.02-1.71,1.43-3.1,3.12-3.07,1.71.03,3.06,1.42,3.04,3.15Z"></path>
      <path class="cls-1" d="m125,94.41c-1.7-.02-3.09-1.43-3.07-3.14.02-1.7,1.45-3.09,3.15-3.07,1.69.02,3.09,1.45,3.07,3.15-.02,1.7-1.44,3.08-3.15,3.06Z"></path>
      <path class="cls-1" d="m112.63,94.41c-1.71-.01-3.08-1.42-3.06-3.13.02-1.71,1.43-3.1,3.13-3.07,1.7.02,3.1,1.45,3.08,3.14-.02,1.7-1.44,3.08-3.15,3.06Z"></path>
      <path class="cls-1" d="m140.5,91.34c-.01,1.71-1.41,3.08-3.12,3.07-1.7-.02-3.1-1.44-3.08-3.13.02-1.68,1.46-3.1,3.15-3.08,1.71.02,3.07,1.42,3.06,3.14Z"></path>
      <path class="cls-1" d="m103.38,103.7c0,1.72-1.37,3.08-3.1,3.07-1.73,0-3.07-1.36-3.06-3.1,0-1.73,1.36-3.08,3.1-3.07,1.73,0,3.08,1.37,3.07,3.1Z"></path>
      <path class="cls-1" d="m81.71,140.8c-1.72-.01-3.08-1.39-3.07-3.12.01-1.72,1.4-3.09,3.12-3.07,1.72.02,3.08,1.4,3.07,3.12,0,1.71-1.4,3.08-3.12,3.07Z"></path>
      <path class="cls-1" d="m202.36,137.73c0,1.72-1.38,3.07-3.11,3.07-1.72,0-3.09-1.4-3.07-3.11.02-1.73,1.39-3.08,3.12-3.07,1.72.01,3.08,1.39,3.07,3.12Z"></path>
      <path class="cls-1" d="m140.51,134.62c1.72,0,3.11,1.4,3.1,3.1-.01,1.71-1.4,3.08-3.12,3.08-1.72,0-3.1-1.39-3.1-3.1,0-1.7,1.4-3.08,3.12-3.08Z"></path>
    </g>
  </g>
</svg>
