<?xml version="1.0" encoding="UTF-8"?>
<svg xmlns="http://www.w3.org/2000/svg" id="katman_2" data-name="katman 2" viewBox="0 0 276.05 155.48">
  <defs>
    <style>
      .cls-1, .cls-2 {
        stroke-width: 0px;
      }

      .cls-2 {
        fill: none;
      }
    </style>
  </defs>
  <g id="katman_1" data-name="katman 1">
    <rect class="cls-2" width="276.05" height="155.48"></rect>
    <g>
      <path class="cls-1" d="m221.58,150.5c-.84,2.17-2.51,2.91-4.74,2.9-8.65-.04-17.29,0-25.94-.02-3.38,0-4.72-1.35-4.74-4.75-.02-3.2,0-6.4,0-9.72h-96.13c-.03.62-.08,1.2-.08,1.77,0,2.77.03,5.55-.02,8.32-.05,2.93-1.42,4.35-4.29,4.36-8.97.03-17.94.04-26.92,0-2.73-.01-4.18-1.46-4.19-4.12-.03-9.84-.12-19.69.03-29.53.13-8.64,6.53-14.69,15.34-14.84,1.35-.02,2.69,0,4.12,0V33.01c-2.87,0-5.68,0-8.49,0-3.75,0-5.04-1.26-5.04-4.94,0-7.01,0-14.03,0-21.04,0-3.61,1.31-4.93,4.89-4.93,33.06,0,66.12,0,99.18,0,3.62,0,4.86,1.26,4.87,4.91,0,2.22,0,4.44,0,6.9h7.12c0-.77-.04-1.41,0-2.04.15-2.2,1.6-3.65,3.61-3.66,2.01,0,3.54,1.45,3.58,3.65.07,3.8.07,7.61,0,11.42-.04,2.13-1.49,3.56-3.44,3.62-2.03.07-3.54-1.34-3.74-3.51-.06-.64,0-1.29,0-2.05h-7.13c0,2.26,0,4.52,0,6.78,0,3.67-1.23,4.89-4.88,4.9-2.82,0-5.64,0-8.58,0v71.75h12.27c0-.68,0-1.36,0-2.04,0-18.27.02-36.54-.02-54.81,0-4.1,1.37-7.4,5.19-9.2,1.42-.67,3.14-.96,4.72-.98,7.94-.1,15.88-.08,23.82-.03,6.1.04,9.84,3.84,9.84,9.93.01,18.81.02,37.63-.03,56.44,0,1.27.36,1.87,1.53,2.43,3.98,1.92,6.55,5.09,7.72,9.37.16.57.37,1.12.55,1.68v32.96Zm-138.95-4.53c0-3.21,0-6.25,0-9.29,0-3.94,1.2-5.12,5.18-5.12,33.49,0,66.99,0,100.48,0,.27,0,.54,0,.82,0,2.88.05,4.3,1.42,4.35,4.31.04,2.83,0,5.65.01,8.48,0,.53.05,1.05.07,1.61h20.8c0-.63,0-1.16,0-1.69,0-7.83,0-15.66,0-23.49,0-5.65-2.99-8.62-8.69-8.62-45.08,0-90.15,0-135.23,0-5.69,0-8.67,2.98-8.68,8.63,0,7.83,0,15.66,0,23.49,0,.53,0,1.06,0,1.69h20.88Zm51.35-112.84h-37.95v71.65h37.95V33.13Zm70.51,71.66c.04-.41.07-.63.07-.84,0-18.81,0-37.62,0-56.43,0-1.96-.63-2.52-2.73-2.52-7.77-.01-15.55,0-23.32,0-2.61,0-2.99.39-2.99,3.05,0,18.32,0,36.64,0,54.96,0,.58,0,1.15,0,1.78h28.97Zm-42.38-79.12V9.49h-94.19v16.18h94.19Zm-73.58,79.13V33.14h-7.02v71.66h7.02Zm59.87.01V33.15h-6.98v71.65h6.98Z"></path>
      <path class="cls-1" d="m193.63,61.65c0,1.68.06,3.37-.01,5.05-.1,2.3-1.61,3.84-3.61,3.83-1.91-.01-3.52-1.51-3.59-3.69-.11-3.42-.12-6.85,0-10.26.08-2.21,1.66-3.65,3.61-3.64,2.04,0,3.48,1.5,3.58,3.83.07,1.63.01,3.26.01,4.89Z"></path>
      <path class="cls-1" d="m193.63,79.86c-.03,2.16-1.59,3.78-3.63,3.76-2.02-.01-3.6-1.68-3.61-3.81-.01-2.16,1.68-3.9,3.75-3.84,2.05.06,3.53,1.71,3.49,3.89Z"></path>
    </g>
  </g>
</svg>
