<?xml version="1.0" encoding="UTF-8"?>
<svg xmlns="http://www.w3.org/2000/svg" width="107" height="107" viewBox="0 0 107 107" fill="none">
  <path d="M20.9332 82.5492L26.7741 72.4028L35.3498 57.5255L40.8814 60.7126L36.0181 43.1338L18.4211 47.7028L24.064 50.9646L16.6515 63.8624C14.3127 67.9209 14.1518 72.8759 16.2184 77.0838C17.3074 79.3248 18.9532 81.1798 20.9579 82.5243C20.9951 82.5617 21.0322 82.5866 21.0693 82.599C23.1111 83.956 25.5119 84.7777 28.0611 84.9146L40.0399 85.5496C41.2031 85.6118 42.1807 84.6781 42.1807 83.5078V75.1292C42.1807 74.0461 41.3393 73.1498 40.2503 73.0875L26.7988 72.3779" fill="white"></path>
  <path d="M92.1713 72.474H80.4716H63.3005V66.0282L50.5215 79.1329L63.3005 92.225V85.6413H78.1888C82.8662 85.6413 87.2458 83.2963 89.8636 79.3586C91.2532 77.2769 92.0348 74.8942 92.1961 72.474C92.1961 72.4238 92.1961 72.3736 92.1961 72.336C92.3574 69.8656 91.8487 67.345 90.6949 65.0626L85.2359 54.2654C84.7024 53.212 83.4121 52.8358 82.3947 53.4126L75.1491 57.6262C74.2062 58.178 73.8588 59.3693 74.355 60.3349L80.484 72.4614" fill="white"></path>
  <path d="M47.8305 16.2037L53.6972 26.4455L62.3167 41.4753L56.7489 44.7175L74.4737 49.3295L79.3564 31.5853L73.6765 34.8778L66.203 21.8713C63.8488 17.7745 59.6262 15.1229 54.9304 14.8088C52.4392 14.6328 49.9854 15.1481 47.818 16.2162C47.7682 16.2162 47.7309 16.2539 47.6935 16.2791C45.4763 17.385 43.5706 19.0815 42.1755 21.2429L35.5988 31.4345C34.9635 32.4273 35.2749 33.7468 36.2963 34.3374L43.5706 38.5598C44.5172 39.1128 45.713 38.8112 46.3109 37.8938L53.6972 26.4581" fill="white"></path>
  <path d="M52.1686 53.5662C53.1952 53.5662 54.0072 53.8322 54.6046 54.3642C55.2019 54.8868 55.5006 55.6148 55.5006 56.5482C55.5006 57.4908 55.2019 58.2235 54.6046 58.7462C54.0072 59.2688 53.1952 59.5302 52.1686 59.5302H50.3066V62.8062H48.3606V53.5662H52.1686ZM51.8746 58.0042C52.4252 58.0042 52.8359 57.8828 53.1066 57.6402C53.3772 57.3975 53.5126 57.0335 53.5126 56.5482C53.5126 56.0628 53.3772 55.6988 53.1066 55.4562C52.8359 55.2135 52.4252 55.0922 51.8746 55.0922H50.3066V58.0042H51.8746ZM61.0279 53.5662C62.0546 53.5662 62.8666 53.8322 63.4639 54.3642C64.0613 54.8868 64.3599 55.6148 64.3599 56.5482C64.3599 57.4908 64.0613 58.2235 63.4639 58.7462C62.8666 59.2688 62.0546 59.5302 61.0279 59.5302H59.1659V62.8062H57.2199V53.5662H61.0279ZM60.7339 58.0042C61.2846 58.0042 61.6953 57.8828 61.9659 57.6402C62.2366 57.3975 62.3719 57.0335 62.3719 56.5482C62.3719 56.0628 62.2366 55.6988 61.9659 55.4562C61.6953 55.2135 61.2846 55.0922 60.7339 55.0922H59.1659V58.0042H60.7339Z" fill="white"></path>
</svg>
