<?xml version="1.0" encoding="UTF-8"?>
<svg xmlns="http://www.w3.org/2000/svg" id="katman_2" data-name="katman 2" viewBox="0 0 276.05 153.38">
  <defs>
    <style>
      .cls-1, .cls-2 {
        stroke-width: 0px;
      }

      .cls-2 {
        fill: none;
      }
    </style>
  </defs>
  <g id="katman_1" data-name="katman 1">
    <rect class="cls-2" width="276.05" height="153.38"></rect>
    <path class="cls-1" d="m27.83,75.01c.71-3.21,1.33-6.44,2.13-9.63,5.25-20.81,22.57-33.94,44.02-33.87,38.98.13,77.97.04,116.95.05,9.7,0,18.72,2.35,26.65,8.07,12.5,9.01,17.99,25.44,13.54,40.19-.52,1.74-1.1,3.46-1.84,5.74,4.28,2.07,8.53,4.12,12.78,6.18,4.26,2.06,8.52,4.14,13.17,6.4-9.24,16.75-22.63,26.59-40.45,30.49-2.89.63-5.9,1.06-8.86,1.06-41.8.06-83.61.44-125.41-.15-21.96-.31-38.77-10.49-48.08-30.99-2.34-5.16-3.12-11.03-4.61-16.58,0-2.32,0-4.65,0-6.97Zm186.98,8.63c10.86.91,10.42,1.84,12.75-8.52,4.37-19.49-11.91-38.77-32.94-38.94-32.5-.26-65.01-.18-97.51-.21-1.03,0-2.05.3-3.88.59,8.32,5.42,13.94,12,16.76,20.67,2.85,8.76,2.01,17.55-.75,26.23.98.23,1.46.44,1.94.44,31.67.03,63.35.09,95.02-.07,1.44,0,3.54-1.64,4.18-3.05,2.97-6.55,3.16-13.41,1.47-20.41-.3-1.26.55-2.8.88-4.21,1.14,1.07,2.9,1.95,3.31,3.26,2.51,8.02,1.52,16-1.23,24.22Zm-132.17-24.97c-8.37-3.27-16.2-1.77-21.46,4.18-5.74,6.51-7.19,14.17-4.27,22.27,2.97,8.22,8.88,13.65,17.72,14.86,20.67,2.83,38.18-18.09,32.33-38.4-6.12-21.25-29.41-31.55-50.38-22.27-24.16,10.69-31.58,43.91-14.78,66.13,12.73,16.85,35.55,23.47,56.78,16.53,12.16-3.97,22.14-10.77,29.47-22.23-6.53-3.11-12.67-5.9-18.66-8.95-2.35-1.2-3.48-.52-5.44,1.1-5.15,4.27-10.33,9.09-16.37,11.59-14.1,5.83-29.55-.87-35.23-14.39-3.94-9.36-3.38-18.58,2.68-26.88,5.59-7.66,13.56-10.23,22.83-9.03,8.28,1.07,13.38,6.78,13.57,15.08.17,7.74-5.84,15.36-13.11,16.59-4.04.68-6.94-.85-8.05-4.81-1.08-3.87,1.11-6.19,4.39-7.86,1.35-.69,3.03-1.5,3.63-2.71,1.67-3.38,2.86-7,4.35-10.81Zm165.1,43.35c-1.43-.34-1.91-.54-2.38-.54-36.48-.02-72.95-.07-109.43.09-1.71,0-3.91,1.51-5.03,2.97-5.52,7.18-11.7,13.52-19.91,17.64-1.05.52-1.91,1.4-3.83,2.84,3.05,0,4.84,0,6.64,0,20.89,0,41.79-.21,62.67.07,14.05.19,26.81-3.17,38.3-11.39,1.04-.74,3.06-.11,4.62-.12-.62,1.33-.89,3.13-1.92,3.89-3.37,2.49-7.02,4.59-10.56,6.84,16.84-1.15,30.24-8.39,40.84-22.3Zm-8.73-5.21c.16-.6.32-1.21.48-1.81-5.71-2.05-11.39-5.77-17.13-5.87-33.79-.56-67.59-.28-101.38-.26-.96,0-1.91.33-3.7.65,8.27,4.57,15.61,7.63,24.61,7.48,30.64-.51,61.29-.19,91.94-.19,1.73,0,3.46,0,5.18,0Zm-157.07-24.27c5.66.22,6.37-1.8,3.46-9.1-1.26,3.32-2.27,5.96-3.46,9.1Z"></path>
  </g>
</svg>
