<?xml version="1.0" encoding="UTF-8"?>
<svg xmlns="http://www.w3.org/2000/svg" id="katman_2" data-name="katman 2" viewBox="0 0 276.05 156.97">
  <defs>
    <style>
      .cls-1, .cls-2 {
        stroke-width: 0px;
      }

      .cls-2 {
        fill: none;
      }
    </style>
  </defs>
  <g id="katman_1" data-name="katman 1">
    <rect class="cls-2" width="276.05" height="156.97"></rect>
    <g>
      <path class="cls-1" d="m149.74,2.47c8.96,0,17.92,0,26.88,0,2.36,0,2.79.43,2.79,2.77,0,15.56,0,31.12,0,46.68,0,2.34-.44,2.78-2.77,2.79-1.83,0-3.66.04-5.48-.01-.82-.02-1.2.23-1.5,1.05-1.12,2.99-3.42,4.57-6.44,4.58-2.97.01-5.38-1.59-6.43-4.57-.47-1.33-1.38-1.08-2.24-1.01-.92.08-2.06-.59-2.62.96-1.12,3.06-3.38,4.59-6.4,4.63-3.03.03-5.35-1.57-6.56-4.67-.29-.73-.63-.96-1.39-.96-8.61.02-17.21.02-25.82,0-.79,0-1.21.17-1.52,1.02-1.12,3.01-3.4,4.57-6.43,4.6-2.97.03-5.39-1.6-6.48-4.52-.33-.89-.77-1.15-1.66-1.11-1.53.07-3.06.01-4.6.02-1.43,0-2.2-.63-2.2-2.12.02-7.96-.12-15.92.07-23.87.17-7.1,6.3-12.97,13.46-13.14,4.6-.11,9.2-.04,13.79-.03,1.89,0,2.39.51,2.39,2.42.01,7.13,0,14.26.02,21.4,0,.6-.36,1.64.9,1.34.82-.19.44-.99.44-1.51.03-6.72.02-13.44.02-20.16,0-4.6,0-9.2,0-13.79,0-2.42.35-2.78,2.74-2.78,9.02,0,18.04,0,27.06,0Zm-.03,38.93c8.13,0,16.27-.03,24.4.03,1.45.01,1.89-.36,1.88-1.85-.06-10.43-.06-20.87,0-31.3,0-1.41-.29-1.92-1.83-1.92-16.33.06-32.66.06-48.98,0-1.55,0-2,.41-1.99,1.98.07,10.43.06,20.87,0,31.3,0,1.38.35,1.8,1.76,1.79,8.25-.07,16.5-.03,24.76-.03Zm-34.41-5.55c0-4.89-.04-9.77.02-14.66.02-1.29-.36-1.8-1.7-1.73-1.76.1-3.54.1-5.3,0-1.3-.07-1.76.36-1.74,1.69.07,4.41.04,8.83.02,13.25,0,2.01-.38,2.37-2.39,2.37-3.59.01-7.18.03-10.78-.01-.96-.01-1.37.24-1.35,1.28.05,4.24.02,8.48.02,12.72,0,.4-.11,1.04.33,1.08,1.4.13,2.81.12,4.22.12.86,0,.88-.85,1.2-1.36,2.8-4.43,9.07-4.47,11.71.04.66,1.12,1.34,1.45,2.49,1.35.58-.05,1.18-.07,1.76,0,1.18.15,1.51-.35,1.5-1.49-.05-4.89-.02-9.77-.02-14.66Zm32.06,8.99c-9.02,0-18.03.03-27.05-.03-1.39,0-1.89.36-1.77,1.77.12,1.34.07,2.71.01,4.06-.04.94.2,1.37,1.26,1.36,6.01-.04,12.02-.02,18.03-.01.62,0,1.07-.07,1.39-.76,2.57-5.5,10.29-4.92,12.47-.02.74,1.66,2.65.48,4,.77.68.15,1.09-.21,1.35-.83,2-4.78,9.53-5.41,12.25-.14.28.54.56.92,1.29,1,5.38.59,5.38.61,5.37-4.68,0-.18-.02-.36,0-.53.25-1.52-.31-2.01-1.91-2-8.9.08-17.79.04-26.69.04Zm-44.01-18.31c0-1.89-.06-3.77.02-5.66.05-1.25-.39-1.44-1.57-1.25-6.73,1.06-10.05,5.74-9.71,12.72.05.95.47,1.2,1.32,1.2,2.89-.02,5.78-.05,8.66.01,1.04.02,1.31-.39,1.28-1.36-.06-1.88-.02-3.77-.02-5.66Zm45.63,27.58c0-1.83-1.67-3.49-3.5-3.5-1.85,0-3.51,1.6-3.55,3.45-.04,1.94,1.63,3.61,3.57,3.59,1.83-.02,3.48-1.71,3.48-3.53Zm-45.12-3.5c-1.93-.04-3.68,1.66-3.65,3.55.02,1.83,1.7,3.49,3.53,3.49,1.9,0,3.47-1.56,3.51-3.46.03-1.9-1.52-3.54-3.38-3.58Zm62.83,3.58c.04-1.9-1.51-3.54-3.37-3.58-1.92-.04-3.67,1.65-3.65,3.54.02,1.83,1.69,3.49,3.51,3.5,1.89,0,3.47-1.56,3.51-3.45Z"></path>
      <path class="cls-1" d="m147.93,118.38c0,.35.11.76-.02,1.05-1.06,2.37.41,3.36,2.23,4.14,2.72,1.18,4.56,3.14,5.67,5.91.84,2.1.79,3.4-.83,4.96-.54.52-.67,1.02-.66,1.69.02,2.48-.04,4.95.03,7.43.03,1.14-.36,1.89-1.35,2.45-4.7,2.69-9.39,5.39-14.07,8.12-.85.5-1.61.51-2.47,0-4.73-2.76-9.47-5.5-14.22-8.22-.87-.5-1.22-1.18-1.2-2.17.04-1.89-.02-3.77.01-5.66.03-1.64.17-3.23-1.34-4.45-.62-.5-.9-1.51-.66-2.3.76-2.52,1.37-5.16,4.04-6.52.26-.13.5-.31.77-.44,2.54-1.2,4.2-2.35,3.72-6.02-.73-5.62,4.43-10.38,10.1-10.39,5.67,0,10.31,4.69,10.25,10.4Zm-10.18,7.54c3.71-.03,6.99-3.37,6.95-7.08-.04-3.74-3.39-7.03-7.08-6.96-3.76.07-7.02,3.4-6.95,7.09.07,3.75,3.36,6.98,7.08,6.94Zm11.56,1.66c-1.13-.67-1.95-1.12-2.73-1.62-.58-.37-.98-.3-1.54.16-5.11,4.24-9.59,4.23-14.72,0-.47-.39-.81-.59-1.38-.22-.83.54-1.69,1.03-2.84,1.71.37.21.58.32.78.43,3.36,1.94,6.73,3.87,10.08,5.82.52.3.98.3,1.49,0,3.5-2.03,7-4.05,10.86-6.28Zm-13.36,22.99c0-2.61-.03-4.83.01-7.05.02-.99-.15-1.39-1.27-1.02-.98.32-1.94-.04-2.84-.59-2.4-1.44-4.83-2.82-7.54-4.4,0,2.11,0,3.91,0,5.7,0,.57.36.83.78,1.07,3.5,2.02,6.99,4.05,10.87,6.29Zm15.1-12.98c-2.77,1.6-5.22,3-7.65,4.41-.9.53-1.88.8-2.87.48-.88-.28-1.15-.09-1.14.82.04,2,.03,4,0,5.99-.01.9.22,1.22,1.1.7,3.24-1.9,6.5-3.78,9.75-5.66.48-.28.83-.6.82-1.23-.03-1.74,0-3.49,0-5.51Zm-9.51,1.5c.18-.04.31-.05.41-.1,3.55-2.08,7.12-4.11,10.61-6.27.89-.55.1-1.37-.19-2.03-.3-.67-.79-.56-1.31-.25-3.4,1.97-6.81,3.94-10.21,5.91-.49.28-.94.59-.52,1.23.36.55.4,1.39,1.22,1.52Zm-17.74-8.92c-.87.11-.88.9-1.18,1.41-.45.77.07,1.14.69,1.5,3.15,1.82,6.29,3.65,9.41,5.5.78.46,1.37.83,1.98-.28.56-1.01.58-1.6-.54-2.22-3.18-1.76-6.3-3.62-9.45-5.44-.3-.17-.62-.32-.92-.47Z"></path>
      <path class="cls-1" d="m164.47,119.43c0-2.59.03-5.18-.01-7.77-.02-1.13.38-1.83,1.39-2.4,4.45-2.52,8.87-5.09,13.28-7.68,1-.59,1.88-.74,2.95-.11,4.4,2.6,8.83,5.17,13.27,7.69,1.11.63,1.55,1.46,1.55,2.72-.03,5.12-.03,10.25,0,15.37,0,1.03-.29,1.78-1.25,2.31-4.56,2.57-9.1,5.16-13.62,7.79-1.03.6-1.88.57-2.92-.04-4.35-2.58-8.73-5.1-13.14-7.58-1.13-.63-1.55-1.44-1.51-2.7.07-2.53.02-5.06.02-7.6Zm3.3-4.93c0,4.29.02,8.22-.01,12.15,0,.71.33,1.05.88,1.37,3.01,1.72,6.04,3.42,9.01,5.21,1.28.77,1.43.28,1.42-.91-.05-3.35-.03-6.71,0-10.06,0-.76-.14-1.31-.88-1.74-3.37-1.9-6.71-3.87-10.41-6.01Zm25.82.32c-1.18.17-1.5.73-1.48,1.63.04,1.71,0,3.42.01,5.13,0,.86-.1,1.69-.9,2.17-1.56.95-3.11,1.92-4.75,2.73-1.39.69-2.43-.02-2.5-1.6-.06-1.18,0-2.36-.02-3.53,0-.33.12-.82-.33-.88-.29-.04-.65.21-.93.39-.48.3-.38.82-.38,1.28,0,3.48.01,6.95-.01,10.43,0,.94.16,1.38,1.17.79,3.1-1.81,6.22-3.59,9.34-5.36.58-.33.8-.75.8-1.42-.03-3.88-.01-7.77-.01-11.76Zm-23.93-3.07c.68.41,1.31.81,1.96,1.19,2.74,1.58,5.48,3.15,8.23,4.73.7.4,1.51.42,1.87-.27.41-.77-.56-.88-.98-1.12-2.82-1.67-5.72-3.22-8.51-4.94-1.08-.67-1.77-.49-2.58.42Zm9.72-5.61c3.61,2.09,7.07,4.09,10.53,6.08.81.46,1.27-.08,1.87-.66-3.45-2-6.81-3.94-10.16-5.89-.76-.44-1.44-.43-2.23.47Zm-4.8,2.74c1.89,1.1,3.76,2.19,5.62,3.27,1.52.88,3.05,1.75,4.58,2.64.62.36,1.39.51,1.75-.1.47-.79-.55-.85-.93-1.08-2.92-1.74-5.91-3.38-8.82-5.14-.9-.54-1.5-.41-2.19.42Zm12.77,13.02c2.19-.88.94-2.75,1.47-4.5-2.55,1.17-1.19,3.07-1.47,4.5Z"></path>
      <path class="cls-1" d="m79.18,119.22c0-2.53.03-5.07-.01-7.6-.02-1.13.41-1.83,1.41-2.39,4.46-2.52,8.89-5.07,13.3-7.68,1.1-.65,2.02-.62,3.11.02,4.36,2.57,8.73,5.11,13.13,7.61,1.05.59,1.5,1.32,1.49,2.53-.04,5.13-.04,10.25,0,15.38,0,1.19-.36,1.97-1.43,2.57-4.46,2.52-8.89,5.07-13.29,7.69-1.12.67-2.01.59-3.09-.05-4.36-2.57-8.74-5.11-13.15-7.58-1.14-.64-1.53-1.46-1.5-2.71.06-2.59.02-5.18.02-7.78Zm3.3-4.7c0,4.33,0,8.31,0,12.29,0,.55.27.84.71,1.1,3.16,1.81,6.32,3.62,9.47,5.45.85.49,1.12.26,1.12-.69-.03-3.59-.01-7.18,0-10.76,0-.5-.07-.93-.55-1.21-3.49-2.01-6.99-4.02-10.74-6.19Zm25.83.29c-1.18.17-1.5.72-1.48,1.63.04,1.71,0,3.42.01,5.12,0,.86-.12,1.69-.91,2.17-1.56.95-3.12,1.91-4.75,2.72-1.39.69-2.43,0-2.5-1.59-.06-1.18,0-2.36-.02-3.53,0-.33.12-.82-.33-.88-.29-.04-.65.22-.93.4-.48.3-.38.82-.38,1.28,0,3.48.03,6.95-.02,10.43-.02,1.29.45,1.21,1.33.7,3.05-1.78,6.11-3.54,9.18-5.29.58-.33.82-.74.81-1.41-.02-3.88-.01-7.77-.01-11.76Zm-23.98-3.06c2.57,1.49,5,2.89,7.43,4.3.96.56,1.93,1.11,2.9,1.65.64.36,1.38.32,1.74-.27.49-.8-.47-.9-.87-1.14-2.82-1.67-5.72-3.22-8.51-4.95-1.06-.66-1.8-.59-2.7.4Zm22.14-.21c-3.31-1.92-6.5-3.78-9.7-5.62-.35-.2-.72-.41-1.11-.52-.57-.16-1.17.05-1.36.53-.18.45.44.61.78.8,2.99,1.74,6.01,3.43,8.98,5.2.9.54,1.61.58,2.41-.39Zm-17.18-2.67c3.44,1.98,6.84,3.95,10.24,5.91.15.09.31.16.48.21.56.16,1.17.05,1.38-.46.18-.46-.45-.59-.78-.78-3.09-1.8-6.21-3.56-9.28-5.4-.89-.53-1.4-.17-2.03.52Zm14.19,8.77c-1.7.6-1.98,1.71-1.21,4.38,2.02-1.09.74-2.89,1.21-4.38Z"></path>
      <path class="cls-1" d="m114.93,69.33c6.43,0,12.85-.06,19.28.04,1.54.02,1.87-.44,1.79-1.87-.12-2.06-.02-4.12-.03-6.19,0-1.19.29-2.19,1.69-2.2,1.39-.02,1.74.96,1.73,2.16,0,2.18.08,4.37-.03,6.54-.06,1.26.34,1.55,1.56,1.55,12.79-.05,25.59-.03,38.38-.03,2.82,0,3.02.2,3.02,3,0,6.48,0,12.97,0,19.45,0,.69.15,1.44-.45,2-.52.49-1.12.59-1.8.37-.99-.33-1.05-1.14-1.05-2,0-5.48,0-10.96,0-16.45q0-3.05-3.08-3.05c-11.61,0-23.23.02-34.84-.03-1.39,0-1.76.37-1.75,1.75.06,8.25.03,16.51.03,24.76,0,.53.05,1.07-.03,1.59-.14.91-.66,1.5-1.65,1.52-.99.01-1.53-.55-1.69-1.47-.09-.52-.04-1.06-.04-1.59,0-8.25-.03-16.51.02-24.76,0-1.3-.21-1.82-1.7-1.81-12.09.07-24.17.06-36.26,0-1.45,0-1.75.46-1.74,1.8.07,5.84.01,11.67.04,17.51,0,1.25-.19,2.35-1.71,2.33-1.4-.02-1.62-1.06-1.61-2.25.02-6.78,0-13.56.02-20.34,0-1.93.43-2.33,2.44-2.34,6.48,0,12.97,0,19.45,0Z"></path>
      <path class="cls-1" d="m149.67,40.24c-.65,0-1.3.02-1.94,0-1.22-.05-2.09-.55-1.98-1.92.09-1.1-.5-1.5-1.38-1.94-.92-.46-1.4-.08-1.98.51-.92.93-1.85.87-2.76-.06-.9-.93-1.82-1.84-2.74-2.76-.96-.97-1.02-1.99-.04-2.92.65-.62.77-1.14.4-1.98-.37-.87-.77-1.31-1.8-1.24-1.29.09-1.95-.7-1.99-1.95-.04-1.29-.04-2.59,0-3.89.04-1.37.66-2.3,2.15-2.21.98.06,1.27-.47,1.64-1.21.41-.84.24-1.37-.41-1.98-1-.94-.89-1.97.05-2.93.58-.59,1.16-1.17,1.74-1.76q1.96-1.97,4.31-.55c.98.59,2.78-.25,2.74-1.41-.06-1.98.98-2.44,2.66-2.31.76.06,1.53,0,2.3,0q2.51,0,2.97,2.49c.22,1.2,2.11,1.87,3.01.95,1.22-1.24,2.2-1.06,3.26.14.58.66,1.24,1.25,1.87,1.88,1.82,1.83,1.82,1.85.35,3.91-.69.96.05,2.69,1.26,2.71,1.75.03,2.38.84,2.4,2.52,0,1,.02,1.99.01,2.99-.02,1.78-.55,2.78-2.57,2.68-1.08-.05-1.8,1.98-.99,2.81,1.34,1.4,1.15,2.55-.24,3.73-.58.49-1.09,1.08-1.63,1.62-1.81,1.8-1.89,1.81-3.95.35-.71-.5-2.51.06-2.76.87q-.92,2.88-3.98,2.87Zm-.08-3.45c.52.04.81-.21.77-.72-.13-1.56.92-1.97,2.13-2.32.78-.23,1.59-.52,2.26-.97,1.03-.7,1.93-.77,2.86.11.31.29.64.57,1.06.18.42-.38.25-.74-.08-1.06-1.07-1.04-.76-2.04-.05-3.16.46-.73.78-1.6.97-2.45.25-1.06.72-1.71,1.88-1.71.46,0,.98.05,1.03-.65.05-.68-.4-.73-.9-.77-1.24-.11-1.79-.9-2.1-2.04-.23-.84-.58-1.67-1.02-2.43-.59-1.03-.8-1.95.18-2.86.4-.37.51-.78.04-1.2-.45-.41-.76-.08-1.04.21-.86.88-1.75.7-2.73.19-.88-.46-1.8-.87-2.75-1.16-1.08-.33-1.8-.84-1.72-2.08.03-.53-.1-.94-.77-.91-.59.03-.61.45-.61.87,0,1.29-.77,1.84-1.9,2.18-.89.27-1.76.67-2.59,1.1-.98.5-1.87.7-2.73-.18-.28-.29-.59-.62-1.04-.2-.46.43-.32.83.06,1.21.94.94.66,1.85.08,2.87-.46.81-.82,1.7-1.04,2.61-.25,1.07-.84,1.65-1.88,1.83-.45.08-1-.03-1,.69,0,.82.61.74,1.12.75,1.01.02,1.5.63,1.68,1.51.21,1,.58,1.93,1.11,2.77.68,1.08.83,2.05-.21,2.99-.33.29-.56.62-.12,1.03.37.35.75.37,1.07,0,1.02-1.19,2.03-.75,3.14-.13.76.43,1.6.77,2.44.99,1.11.29,1.79.84,1.8,2.05,0,.42,0,.86.6.87Z"></path>
      <path class="cls-1" d="m137.09,122.69c-.81-.12-1.32-.6-1.81-1.11-.78-.8-1.6-1.57-2.34-2.4-.69-.77-.73-1.62.07-2.34.71-.64,1.45-.6,2.22.02,2.01,1.61,2.02,1.59,3.93-.3.42-.41.84-.83,1.31-1.17.61-.44,1.25-.3,1.78.17.55.49,1.03,1.19.54,1.86-1.46,2-3.2,3.74-5.25,5.16-.13.09-.33.08-.45.11Z"></path>
      <path class="cls-1" d="m177.54,127.74c.05,1.16-1.23,2.15-2.3,1.61-1.93-.98-3.8-2.08-5.64-3.23-.8-.5-.9-1.34-.36-2.15.47-.71,1.14-1.09,1.95-.64,1.89,1.05,3.75,2.16,5.62,3.26.43.25.63.67.71,1.15Z"></path>
      <path class="cls-1" d="m170.33,118.13c.91-.02,1.49.43,2.09.78,1.28.73,2.55,1.47,3.8,2.26.83.53.96,1.3.49,2.15-.49.87-1.25,1.12-2.1.66-1.66-.9-3.27-1.87-4.89-2.84-.65-.39-1.05-.99-.77-1.79.25-.7.66-1.27,1.38-1.22Z"></path>
      <path class="cls-1" d="m85.39,123.14c.17.07.46.14.7.28,1.69.96,3.37,1.92,5.04,2.9.95.56,1.32,1.42.76,2.39-.59,1.03-1.51.95-2.44.4-1.68-.98-3.37-1.92-5.04-2.92-.65-.39-1.03-.96-.69-1.79.29-.69.73-1.2,1.66-1.28Z"></path>
      <path class="cls-1" d="m85.64,118.17c1.83.86,3.92,1.92,5.72,3.44.62.52.37,1.33-.11,1.93-.49.61-1.17.87-1.89.47-1.7-.93-3.4-1.89-5.05-2.91-.63-.39-.95-1.06-.63-1.84.29-.7.74-1.21,1.95-1.09Z"></path>
      <path class="cls-1" d="m141.48,23.86c.02-4.57,3.57-8.16,8.15-8.23,4.51-.07,8.25,3.72,8.23,8.36-.02,4.54-3.66,8.19-8.18,8.2-4.61,0-8.21-3.66-8.2-8.32Zm8.14,4.88c2.84.02,4.97-2.05,4.99-4.83.01-2.63-2.3-4.86-5.01-4.85-2.69.01-4.81,2.1-4.85,4.77-.04,2.8,2.04,4.89,4.87,4.91Z"></path>
    </g>
  </g>
</svg>
