<?xml version="1.0" encoding="UTF-8"?>
<svg xmlns="http://www.w3.org/2000/svg" width="122" height="25" viewBox="0 0 122 25" fill="none">
  <path fill-rule="evenodd" clip-rule="evenodd" d="M118.522 6.5997L121.206 1.46585C118.878 0.405304 116.328 0.00675507 113.779 0.00675507C108.854 0.00675507 103.842 2.48586 103.842 8.06555C103.842 12.1389 106.345 13.375 108.854 14.0438C111.363 14.7058 113.866 14.7936 113.866 16.5634C113.866 17.8064 112.37 18.286 111.363 18.286C109.384 18.286 106.66 17.1376 105.03 15.9892L102.131 21.6095C104.855 23.2915 108.022 24.2169 111.229 24.2169C116.463 24.2169 121.87 21.7378 121.87 15.7663C121.87 11.5579 119.059 9.78809 115.322 9.03828C114.222 8.81536 111.719 8.59244 111.719 7.04553C111.719 5.89042 113.302 5.49862 114.228 5.49862C115.59 5.49862 117.308 5.9377 118.536 6.60645M83.6467 0.749812H75.6423V14.4288C75.6423 21.9067 80.8757 24.2102 87.6455 24.2102C94.4153 24.2102 99.6487 21.9067 99.6487 14.4288V0.749812H91.6443V12.8819C91.6443 15.7596 90.9398 17.7996 87.6455 17.7996C84.3512 17.7996 83.6467 15.7663 83.6467 12.8819V0.749812ZM63.4378 4.47185V0.749812H55.4401V23.4603H63.4378V14.3005C63.4378 10.4028 64.5382 7.43733 68.9798 7.43733C70.2143 7.43733 71.2677 7.57243 72.3681 8.18714V0.445834H70.8316C67.7117 0.445834 65.0682 1.68201 63.5317 4.47185H63.4445H63.4378ZM35.6406 0.749812H27.6429V14.4288C27.6429 21.9067 32.8763 24.2102 39.6461 24.2102C46.4159 24.2102 51.6493 21.9067 51.6493 14.4288V0.749812H43.6517V12.8819C43.6517 15.7596 42.9472 17.7996 39.6461 17.7996C36.3451 17.7996 35.6473 15.7663 35.6473 12.8819V0.749812H35.6406ZM8.00437 3.67476V0.749812H0V23.4603H8.00437V11.6863C8.00437 8.85589 8.93027 6.41731 12.1844 6.41731C16.1429 6.41731 15.7873 10.2204 15.7873 12.3888V23.4536H23.785V9.43007C23.785 3.85039 21.3696 0 15.2975 0C12.1776 0 9.92998 0.925444 8.08488 3.67476H7.99766H8.00437Z" fill="white"></path>
</svg>
