<?xml version="1.0" encoding="UTF-8"?>
<svg xmlns="http://www.w3.org/2000/svg" id="katman_2" data-name="katman 2" viewBox="0 0 276.05 153.38">
  <defs>
    <style>
      .cls-1 {
        fill: #020202;
      }

      .cls-1, .cls-2 {
        stroke-width: 0px;
      }

      .cls-2 {
        fill: none;
      }
    </style>
  </defs>
  <g id="katman_1" data-name="katman 1">
    <rect class="cls-2" width="276.05" height="153.38"></rect>
    <g>
      <path class="cls-1" d="m157.31,67.32c.02-2.5.06-5,.07-7.51.02-3.28,1.37-4.65,4.65-4.65,26.45,0,52.89,0,79.34,0,2.61,0,5.22-.02,7.82,0,2.78.03,4.25,1.5,4.25,4.25,0,11.74,0,23.47,0,35.21,0,3.1-1.34,4.44-4.48,4.46-4.54.02-9.08.04-13.61-.02-1.09-.02-1.4.27-1.39,1.36.05,6.36.03,12.73.02,19.09,0,2.98-1.44,4.43-4.38,4.44-3.81,0-7.62.04-11.42-.02-1.06-.02-1.3.32-1.29,1.32.05,4.49.03,8.97.03,13.46,0,3.03-1.36,4.39-4.38,4.39-48.35,0-96.71,0-145.06,0-3.29,0-4.61-1.35-4.61-4.66,0-4.38-.04-8.76.03-13.14.02-1.11-.29-1.37-1.38-1.37-9.65.04-19.3.03-28.95.03-3.11,0-4.5-1.37-4.5-4.45,0-7.88,0-15.75,0-23.63,0-2.84,1.37-4.22,4.2-4.23,4.28-.01,8.55,0,12.97,0-.39-1.35-.84-2.62-1.1-3.92-.21-1.04-1.01-.73-1.58-.85-.6-.12-1.11-.06-1.48.71-1.13,2.35-3.19,3.16-5.22,2.21-2.09-.98-2.75-3.14-1.63-5.58,1.42-3.09,3.92-4.65,7.27-4.76,1.07-.04,1.4-.3,1.37-1.4-.05-1.77.06-3.55.23-5.31.1-.96-.29-1.39-1.08-1.76-.77-.36-1.26-.3-1.9.33-1.69,1.66-3.84,1.66-5.45.15-1.56-1.46-1.61-3.67-.03-5.46,2.39-2.71,5.43-3.44,8.79-2.4,1.27.39,1.55,0,1.9-1.04.49-1.47,1.02-2.96,1.78-4.3.78-1.36.31-2.29-.82-2.78-1.24-.54-1.88-1.53-2.65-2.48-.97-1.22-1.96-2.42-2.94-3.64,3.12-2.39,6.87-2.38,10.11.13.88.68,1.27.62,1.93-.23,1.05-1.35,2.19-2.66,3.46-3.81.88-.8.9-1.64.23-2.27-1.69-1.63-1.87-3.87-2.66-5.86-1.01-2.53-.85-2.7,1.94-2.64,2.76.06,4.85,1.37,6.46,3.53.34.46.63.95,1.03,1.55,2.04-1.24,4.09-2.42,6.26-3.35.85-.36.49-1.05.49-1.61,0-.7-.22-1.17-1.09-1.4-2.25-.61-3.31-2.22-3.04-4.24.28-2.1,1.91-3.42,4.02-3.27,3.59.26,6.43,2.79,7.28,6.66.22.99.42,1.28,1.49,1.01,1.76-.45,3.58-.7,5.41-.71.96,0,1.2-.52,1.42-1.3.21-.76.3-1.27-.51-1.83-1.95-1.33-2.42-3.55-1.28-5.31,1.21-1.87,3.37-2.29,5.47-1.08,2.84,1.65,4.45,5.07,3.87,8.41-.16.95-.12,1.35,1.02,1.49,1.8.22,3.57.69,5.33,1.14.84.22,1.38.04,1.81-.71.38-.65.7-1.14.12-1.95-1.4-1.94-1.06-4.07.67-5.39,1.66-1.26,3.75-.98,5.3.7,2.21,2.41,2.66,6.02.94,9.32-.57,1.1-.34,1.41.63,1.92,1.43.74,2.87,1.54,4.07,2.59,1.17,1.01,2.1.68,2.73-.27.9-1.36,2.3-1.83,3.58-2.55.81-.46,1.67-.87,2.42-1.42,1.1-.83,1.43-.33,1.74.74.97,3.35.06,6.18-2.39,8.51-.85.81-1,1.27-.14,2.17,1.07,1.12,2.11,2.34,2.87,3.69.77,1.38,1.82,1.46,2.79.74,1.32-.97,2.78-.96,4.24-1.15.77-.1,1.54-.26,2.3-.41,1.84-.36,1.97-.27,1.73,1.64-.42,3.29-2.27,5.57-5.28,6.78-1.14.46-1.14.84-.73,1.83.61,1.48,1.16,3.03,1.45,4.6.29,1.57,1.28,1.91,2.44,1.55,1.26-.39,2.31-.03,3.46.23,1.17.26,2.35.55,3.53.62,1.32.08,1.28.63.87,1.61-1.24,2.98-3.6,4.45-6.63,5.07-2.11.03-2.08.03-2.16,2.08-.06,1.61.07,3.23-.25,4.83-.1.52-.3,1.13.6,1.25.76.11,1.35,1.1,2.31.04,1.64-1.84,3.93-1.79,5.7-.1,1.41,1.35,1.37,3.64-.18,5.34-2.57,2.83-5.72,3.35-9.27,2.23-.28-.09-.65-.49-.93,0-.12.22-.23.5-.2.73.07.54.55.36.87.36,8.71.01,17.41,0,26.12.02.68,0,.91-.21.91-.89-.03-6.98-.04-13.96-.05-20.95v-.94c-.01-.52-.02-1.04-.03-1.57Zm-26.34,49.14h6.57c29.1,0,58.21-.01,87.31.04,1.41,0,1.7-.37,1.67-1.71-.09-4.64-.11-9.29.01-13.92.04-1.58-.47-1.83-1.91-1.82-32.7.04-65.41.03-98.11.03-29.73,0-59.46,0-89.19-.03-1.35,0-1.86.23-1.82,1.74.11,4.69.09,9.39.01,14.08-.02,1.25.21,1.64,1.57,1.64,31.3-.05,62.59-.04,93.89-.04Zm-60.23-24.81c-8.41-10.47-6.12-23.18,1.23-30.16,8.03-7.62,18.82-8.36,27.98-2.23,4.54,3.04,7.42,7.4,8.66,12.74,1.67,7.19,0,13.66-4.76,19.63.72,0,1.12,0,1.51,0,4.8,0,9.6-.08,14.39.05,1.35.04,1.82-.52,2.2-1.58,2.35-6.62,2.97-13.36,1.59-20.27-5.08-25.52-34.75-37.99-56.42-23.62-10.39,6.9-15.94,16.75-16.75,29.2-.34,5.16.59,10.16,2.44,14.99.23.6.34,1.28,1.3,1.27,5.46-.04,10.91-.02,16.63-.02Zm134.69-29c-13.04,0-26.08.01-39.12-.02-1.1,0-1.59.15-1.47,1.41.13,1.5.08,3.03.01,4.53-.05.96.15,1.18,1.18,1.04,7.64-1.06,15.28-.76,22.92.13,7.3.85,14.38,2.93,21.7,3.64,7.27.71,14.54,1.34,21.63-1.3,1.79-.67,3.78.39,4.52,2.13.75,1.75.07,3.71-1.67,4.69-1.09.61-2.3.96-3.51,1.26-7.79,1.92-15.63,1.44-23.46.45-7.64-.96-15.1-3.07-22.79-3.77-6.41-.58-12.79-.65-19.18.23-.98.13-1.37.48-1.35,1.56.07,3.7.11,7.41-.02,11.1-.05,1.54.31,1.97,1.92,1.96,25.56-.06,51.12-.04,76.68-.04,2.65,0,2.61,0,2.57-2.67-.01-.82-.24-1.1-1.06-1.04-.88.07-1.77.04-2.66,0-2.23-.12-3.73-1.69-3.7-3.83.02-2.01,1.59-3.55,3.74-3.63.83-.03,1.68-.08,2.5.02,1.03.12,1.19-.32,1.18-1.23-.04-5.01-.06-10.02.01-15.02.02-1.27-.26-1.64-1.6-1.63-12.99.06-25.98.03-38.96.03Zm-65.61,72.95c22.74,0,45.47-.01,68.21.03,1.18,0,1.49-.28,1.45-1.45-.09-2.81-.14-5.64.01-8.44.08-1.57-.43-1.82-1.88-1.82-45.16.04-90.32.03-135.48.03-.26,0-.53.03-.78,0-.81-.11-1.06.21-1.04,1.03.05,3.02.1,6.05-.02,9.07-.05,1.35.37,1.58,1.63,1.58,22.63-.04,45.27-.03,67.9-.03Zm-38.1-58.56c-.07-8.04-6.55-14.44-14.55-14.39-8,.05-14.48,6.71-14.33,14.8.14,8.27,6.81,14.14,14.53,14.17,7.99.02,14.43-6.57,14.36-14.58Z"></path>
      <path class="cls-1" d="m147.76,33.28c-1.62.03-2.72-.61-3.43-1.92-.78-1.44-.58-2.81.36-4.09,2.12-2.89,4.27-5.77,6.4-8.65,1.64-2.21,3.26-4.44,4.9-6.65,1.53-2.08,3.75-2.6,5.53-1.31,1.87,1.35,2.07,3.61.48,5.76-3.7,5.02-7.43,10.03-11.12,15.05-.82,1.12-1.79,1.86-3.12,1.81Z"></path>
      <path class="cls-1" d="m125.74,20.5c.7-3.32,1.42-7.14,2.35-10.91.44-1.77,2.45-2.71,4.24-2.32,1.8.4,3.04,1.96,2.88,3.89-.11,1.34-.46,2.65-.73,3.97-.49,2.39-.92,4.79-1.52,7.14-.49,1.91-2.39,3.02-4.18,2.66-1.9-.38-3.14-1.97-3.04-4.43Z"></path>
      <path class="cls-1" d="m173.38,30.54c1.96.02,3.25.93,3.81,2.52.53,1.5.09,3.22-1.3,4.16-2.58,1.74-5.21,3.42-7.89,4.99-1.66.97-3.76.31-4.77-1.28-1.05-1.65-.84-3.75.77-4.87,2.64-1.83,5.4-3.49,8.14-5.18.42-.26.99-.27,1.25-.33Z"></path>
    </g>
  </g>
</svg>
