<?xml version="1.0" encoding="UTF-8"?>
<svg xmlns="http://www.w3.org/2000/svg" id="katman_2" data-name="katman 2" viewBox="0 0 276.05 153.38">
  <defs>
    <style>
      .cls-1, .cls-2 {
        stroke-width: 0px;
      }

      .cls-2, .cls-3 {
        fill: none;
      }

      .cls-3 {
        stroke: #000;
        stroke-miterlimit: 10;
        stroke-width: 7px;
      }
    </style>
  </defs>
  <g id="katman_1" data-name="katman 1">
    <rect class="cls-2" width="276.05" height="153.38"></rect>
    <g>
      <path class="cls-1" d="m194.96,146.78c-.18.21-.69.1-1.04.1-5.2.02-10.41,0-15.61,0h-13.47c-9.29,0-18.57-.07-27.86.04-2.69.03-4.3-1.19-5.51-3.35-2.19-3.91-3.13-8.19-3.5-12.59-.55-6.36-.1-12.64,2.29-18.66.21-.52.47-1.01.7-1.53,1.38-3.07,3.55-4.32,7.1-4.29,5.06.05,10.12.07,15.18.08v-.09h58.56c-.67-1.02-1.46-1.97-2.32-2.85-2.09-2.14-4.7-2.49-7.58-2.48-20.37.08-40.73.04-61.1.04-.31,0-.61-.02-.92-.01-1.37.04-2.02-.48-1.98-1.99.09-3.88.03-7.76.03-11.64,0-3.56,0-3.6,3.47-3.69,1.26-.03,1.73-.55,1.7-1.76-.04-1.83.21-3.71-.06-5.5-.51-3.47.77-6.04,3.46-8.04,1.23-.92,1.57-2.07,1.57-3.58-.05-15.11-.01-30.22-.06-45.33,0-1.45.4-1.96,1.9-1.94,6.33.07,12.66.03,18.99.02,1.86,0,2.03-.17,2.04-2,.02-3.88.01-7.76,0-11.64,0-1.86-.17-2.03-2-2.03-23.38,0-46.75,0-70.13,0-1.82,0-1.97.17-1.98,2.05,0,3.88,0,7.76,0,11.64,0,1.88.11,1.98,2.01,1.98,7.1,0,14.19,0,21.29,0,2.09,0,2.09,0,2.1,2.15v36.14c0,1.07-.02,2.14,0,3.22,0,.8-.29,1.26-1.15,1.25-2.5-.02-5.02.16-7.5-.09-4.08-.42-7.01-2.56-6.62-7.64.2-2.63,1.27-4.79,3.18-6.58,3.27-3.07,4.85-6.86,4.85-11.34,0-3.01,0-6.02.01-9.04,0-3.62,0-3.58-3.58-3.55-1.29,0-1.84.42-1.81,1.77.07,3.06.05,6.13.02,9.19-.04,3.64-.93,6.89-3.86,9.44-2.46,2.15-3.64,5.13-4.24,8.31-1.43,7.53,3.28,13.93,10.87,14.88,2.7.34,5.4.13,8.1.23.59.02,1.26-.14,1.68.48,1.08,1.56,2.44,2.86,3.85,4.12.82.73,1.16,1.61,1.15,2.71-.04,2.35,0,4.7-.01,7.04,0,3.71-.16,3.48,3.39,3.39,1.47-.04,1.82.58,1.8,1.91-.06,4.44-.02,8.88-.02,13.32,0,1.91-.19,2.09-2.09,2.13-.56.01-1.12,0-1.68,0-20.42,0-40.83.03-61.25-.03-2.82,0-5.04.91-6.91,2.96-3.95,4.32-5.3,9.71-6.12,15.24-.74,4.96-.69,9.99.03,14.96.69,4.76,1.88,9.43,4.79,13.42,2.01,2.76,4.5,4.52,8.19,4.52,45.28-.06,90.55-.03,135.83-.04.81,0,1.64-.03,2.43-.22,3-.72,4.85-2.83,6.32-5.26h-16.91Zm-66.01-80.93c-.96-.68-1.17-1.68-1.16-2.83.02-14.4.02-28.79.02-43.18,0-2.04.03-2.06,2.04-2.07,1.23,0,2.45,0,3.67,0,.36,0,.78.09,1.06-.07,1.65-.95.61-2.55.84-3.85.14-.79-.07-1.57-1.13-1.63-.51-.03-1.02-.03-1.53-.03-9.44,0-18.89,0-28.33-.02-.67,0-1.65.32-1.87-.57-.29-1.17-.34-2.43.08-3.61.11-.3.5-.32.81-.33.41-.02.81-.02,1.22-.02,19.5,0,39,0,58.5.01.71,0,1.76-.39,2.05.51.37,1.15.4,2.45-.05,3.6-.25.64-1.09.41-1.68.41-6.23,0-12.46,0-18.68,0-2.25,0-2.34.09-2.34,2.32,0,8.12,0,16.23,0,24.35s-.02,16.03.02,24.04c0,1.28-.26,2.34-1.3,3.08-3.15,2.22-4.31,5.23-3.69,8.99.05.3,0,.61,0,.92q0,2.43-2.44,2.41c-2.03,0-2.07-.05-2.09-2.03,0-.2-.03-.41,0-.61.67-4.1-.6-7.39-4.03-9.81Zm-3.55,78.18c.36.87,1.48,1.84.99,2.56-.53.78-1.9.29-2.89.29-18.27.02-36.54-.04-54.8.07-3.04.02-4.74-1.39-6.01-3.82-1.82-3.49-2.65-7.27-3.1-11.14-.71-6.05-.23-12.02,1.55-17.86.58-1.91,1.44-3.7,2.58-5.35,1.04-1.5,2.38-2.21,4.26-2.2,9.44.05,18.88.02,28.32.02s19.19,0,28.78,0c1.75,0,1.75,0,.98,1.51-2.38,4.68-3.4,9.74-3.72,14.9-.46,7.19.25,14.27,3.07,21.01Z"></path>
      <path class="cls-3" d="m206.73,104.8c-1,.62-11.77,7.52-12.51,20.8-.52,9.33,4.09,18.29,12.04,23.46"></path>
      <path class="cls-3" d="m206.25,149.06c1-.62,11.77-7.52,12.51-20.8.52-9.33-4.09-18.29-12.04-23.46"></path>
    </g>
  </g>
</svg>
