<?xml version="1.0" encoding="UTF-8"?>
<svg xmlns="http://www.w3.org/2000/svg" id="katman_1" data-name="katman 1" viewBox="0 0 800 523">
  <defs>
    <style>
      .cls-1 {
        letter-spacing: 0em;
      }

      .cls-2 {
        letter-spacing: -.02em;
      }

      .cls-3, .cls-4 {
        font-family: Gellix-Medium, Gellix;
        font-size: 12px;
        font-weight: 500;
      }

      .cls-5 {
        stroke-width: .6px;
      }

      .cls-5, .cls-6, .cls-7 {
        fill: none;
        stroke: #000;
      }

      .cls-5, .cls-7 {
        stroke-linecap: round;
        stroke-linejoin: round;
      }

      .cls-4 {
        fill: #010000;
      }

      .cls-6 {
        stroke-miterlimit: 10;
        stroke-width: .3px;
      }

      .cls-8 {
        letter-spacing: 0em;
      }

      .cls-9 {
        letter-spacing: -.02em;
      }

      .cls-10 {
        letter-spacing: -.02em;
      }

      .cls-7 {
        stroke-width: .36px;
      }
    </style>
  </defs>
  <g id="LWPOLYLINE">
    <rect class="cls-7" x="531.79" y="439.96" width="12.62" height="1.76"></rect>
  </g>
  <g id="LINE">
    <line class="cls-7" x1="528.48" y1="439.96" x2="694.72" y2="439.96"></line>
  </g>
  <g id="LINE-2" data-name="LINE">
    <line class="cls-7" x1="694.72" y1="439.96" x2="694.25" y2="437.86"></line>
  </g>
  <g id="LINE-3" data-name="LINE">
    <line class="cls-7" x1="694.25" y1="437.86" x2="694.2" y2="437.63"></line>
  </g>
  <g id="LINE-4" data-name="LINE">
    <line class="cls-7" x1="694.2" y1="437.63" x2="694.01" y2="437.04"></line>
  </g>
  <g id="LINE-5" data-name="LINE">
    <line class="cls-7" x1="694.01" y1="437.04" x2="693.73" y2="436.49"></line>
  </g>
  <g id="LINE-6" data-name="LINE">
    <line class="cls-7" x1="693.73" y1="436.49" x2="693.37" y2="435.99"></line>
  </g>
  <g id="LINE-7" data-name="LINE">
    <line class="cls-7" x1="693.37" y1="435.99" x2="692.93" y2="435.56"></line>
  </g>
  <g id="LINE-8" data-name="LINE">
    <line class="cls-7" x1="692.93" y1="435.56" x2="692.42" y2="435.19"></line>
  </g>
  <g id="LINE-9" data-name="LINE">
    <line class="cls-7" x1="692.42" y1="435.19" x2="691.87" y2="434.93"></line>
  </g>
  <g id="LINE-10" data-name="LINE">
    <line class="cls-7" x1="691.87" y1="434.93" x2="691.61" y2="434.84"></line>
  </g>
  <g id="LINE-11" data-name="LINE">
    <line class="cls-7" x1="691.61" y1="434.84" x2="691.28" y2="434.75"></line>
  </g>
  <g id="LINE-12" data-name="LINE">
    <line class="cls-7" x1="691.28" y1="434.75" x2="690.87" y2="434.69"></line>
  </g>
  <g id="LINE-13" data-name="LINE">
    <line class="cls-7" x1="690.87" y1="434.69" x2="690.35" y2="434.66"></line>
  </g>
  <g id="LINE-14" data-name="LINE">
    <line class="cls-7" x1="690.35" y1="434.66" x2="689.23" y2="434.61"></line>
  </g>
  <g id="LINE-15" data-name="LINE">
    <line class="cls-7" x1="689.23" y1="434.61" x2="614.54" y2="431.32"></line>
  </g>
  <g id="LINE-16" data-name="LINE">
    <line class="cls-7" x1="614.54" y1="431.32" x2="613.55" y2="431.19"></line>
  </g>
  <g id="LINE-17" data-name="LINE">
    <line class="cls-7" x1="613.55" y1="431.19" x2="612.6" y2="430.88"></line>
  </g>
  <g id="LINE-18" data-name="LINE">
    <line class="cls-7" x1="612.6" y1="430.88" x2="611.72" y2="430.4"></line>
  </g>
  <g id="LINE-19" data-name="LINE">
    <line class="cls-7" x1="611.72" y1="430.4" x2="610.96" y2="429.8"></line>
  </g>
  <g id="LINE-20" data-name="LINE">
    <line class="cls-7" x1="610.96" y1="429.8" x2="610.29" y2="429.03"></line>
  </g>
  <g id="LINE-21" data-name="LINE">
    <line class="cls-7" x1="610.29" y1="429.03" x2="609.78" y2="428.18"></line>
  </g>
  <g id="LINE-22" data-name="LINE">
    <line class="cls-7" x1="609.78" y1="428.18" x2="609.43" y2="427.23"></line>
  </g>
  <g id="LINE-23" data-name="LINE">
    <line class="cls-7" x1="609.43" y1="427.23" x2="609.25" y2="426.26"></line>
  </g>
  <g id="LINE-24" data-name="LINE">
    <line class="cls-7" x1="609.25" y1="426.26" x2="609.08" y2="425.05"></line>
  </g>
  <g id="LINE-25" data-name="LINE">
    <line class="cls-7" x1="609.08" y1="425.05" x2="609.08" y2="310.7"></line>
  </g>
  <g id="LINE-26" data-name="LINE">
    <line class="cls-7" x1="609.08" y1="274.1" x2="618.77" y2="274.1"></line>
  </g>
  <g id="LINE-27" data-name="LINE">
    <line class="cls-7" x1="618.77" y1="274.1" x2="619.64" y2="274.03"></line>
  </g>
  <g id="LINE-28" data-name="LINE">
    <line class="cls-7" x1="619.64" y1="274.03" x2="620.49" y2="273.8"></line>
  </g>
  <g id="LINE-29" data-name="LINE">
    <line class="cls-7" x1="620.49" y1="273.8" x2="621.29" y2="273.43"></line>
  </g>
  <g id="LINE-30" data-name="LINE">
    <line class="cls-7" x1="621.29" y1="273.43" x2="624.61" y2="271.04"></line>
  </g>
  <g id="LINE-31" data-name="LINE">
    <line class="cls-7" x1="624.61" y1="271.04" x2="627.32" y2="269.66"></line>
  </g>
  <g id="LINE-32" data-name="LINE">
    <line class="cls-7" x1="627.32" y1="269.66" x2="630.2" y2="268.7"></line>
  </g>
  <g id="LINE-33" data-name="LINE">
    <line class="cls-7" x1="630.2" y1="268.7" x2="633.17" y2="268.19"></line>
  </g>
  <g id="LINE-34" data-name="LINE">
    <line class="cls-7" x1="633.17" y1="268.19" x2="682.54" y2="263.43"></line>
  </g>
  <g id="LINE-35" data-name="LINE">
    <line class="cls-7" x1="682.54" y1="263.43" x2="682.92" y2="263.34"></line>
  </g>
  <g id="LINE-36" data-name="LINE">
    <line class="cls-7" x1="682.92" y1="263.34" x2="683.26" y2="263.16"></line>
  </g>
  <g id="LINE-37" data-name="LINE">
    <line class="cls-7" x1="683.26" y1="263.16" x2="683.55" y2="262.9"></line>
  </g>
  <g id="LINE-38" data-name="LINE">
    <line class="cls-7" x1="683.55" y1="262.9" x2="683.78" y2="262.54"></line>
  </g>
  <g id="LINE-39" data-name="LINE">
    <line class="cls-7" x1="683.78" y1="262.54" x2="684.76" y2="260.49"></line>
  </g>
  <g id="LINE-40" data-name="LINE">
    <line class="cls-7" x1="684.76" y1="260.49" x2="538.8" y2="260.47"></line>
  </g>
  <g id="LINE-41" data-name="LINE">
    <line class="cls-7" x1="538.8" y1="260.47" x2="539.91" y2="262.65"></line>
  </g>
  <g id="LINE-42" data-name="LINE">
    <line class="cls-7" x1="539.91" y1="262.65" x2="540.13" y2="262.99"></line>
  </g>
  <g id="LINE-43" data-name="LINE">
    <line class="cls-7" x1="540.13" y1="262.99" x2="540.38" y2="263.22"></line>
  </g>
  <g id="LINE-44" data-name="LINE">
    <line class="cls-7" x1="540.38" y1="263.22" x2="540.64" y2="263.38"></line>
  </g>
  <g id="LINE-45" data-name="LINE">
    <line class="cls-7" x1="540.64" y1="263.38" x2="540.99" y2="263.49"></line>
  </g>
  <g id="LINE-46" data-name="LINE">
    <line class="cls-7" x1="540.99" y1="263.49" x2="565.94" y2="268.36"></line>
  </g>
  <g id="LINE-47" data-name="LINE">
    <line class="cls-7" x1="565.93" y1="268.36" x2="569.25" y2="269.2"></line>
  </g>
  <g id="LINE-48" data-name="LINE">
    <line class="cls-7" x1="569.25" y1="269.2" x2="571.61" y2="270.15"></line>
  </g>
  <g id="LINE-49" data-name="LINE">
    <line class="cls-7" x1="571.61" y1="270.15" x2="572.73" y2="270.77"></line>
  </g>
  <g id="LINE-50" data-name="LINE">
    <line class="cls-7" x1="572.73" y1="270.77" x2="573.84" y2="271.4"></line>
  </g>
  <g id="LINE-51" data-name="LINE">
    <line class="cls-7" x1="573.84" y1="271.4" x2="575.91" y2="272.92"></line>
  </g>
  <g id="LINE-52" data-name="LINE">
    <line class="cls-7" x1="575.91" y1="272.92" x2="576.63" y2="273.42"></line>
  </g>
  <g id="LINE-53" data-name="LINE">
    <line class="cls-7" x1="576.63" y1="273.42" x2="577.43" y2="273.8"></line>
  </g>
  <g id="LINE-54" data-name="LINE">
    <line class="cls-7" x1="577.43" y1="273.8" x2="578.28" y2="274.03"></line>
  </g>
  <g id="LINE-55" data-name="LINE">
    <line class="cls-7" x1="578.28" y1="274.03" x2="579.15" y2="274.1"></line>
  </g>
  <g id="LINE-56" data-name="LINE">
    <line class="cls-7" x1="579.15" y1="274.1" x2="609.08" y2="274.1"></line>
  </g>
  <g id="LINE-57" data-name="LINE">
    <line class="cls-7" x1="588.86" y1="425.05" x2="588.86" y2="310.7"></line>
  </g>
  <g id="LINE-58" data-name="LINE">
    <line class="cls-7" x1="588.86" y1="425.05" x2="588.65" y2="426.45"></line>
  </g>
  <g id="LINE-59" data-name="LINE">
    <line class="cls-7" x1="588.65" y1="426.45" x2="588.48" y2="427.42"></line>
  </g>
  <g id="LINE-60" data-name="LINE">
    <line class="cls-7" x1="588.48" y1="427.42" x2="588.13" y2="428.35"></line>
  </g>
  <g id="LINE-61" data-name="LINE">
    <line class="cls-7" x1="588.13" y1="428.35" x2="587.65" y2="429.16"></line>
  </g>
  <g id="LINE-62" data-name="LINE">
    <line class="cls-7" x1="587.65" y1="429.16" x2="586.99" y2="429.95"></line>
  </g>
  <g id="LINE-63" data-name="LINE">
    <line class="cls-7" x1="586.99" y1="429.95" x2="586.22" y2="430.57"></line>
  </g>
  <g id="LINE-64" data-name="LINE">
    <line class="cls-7" x1="586.22" y1="430.57" x2="585.35" y2="431.05"></line>
  </g>
  <g id="LINE-65" data-name="LINE">
    <line class="cls-7" x1="585.35" y1="431.05" x2="584.41" y2="431.36"></line>
  </g>
  <g id="LINE-66" data-name="LINE">
    <line class="cls-7" x1="584.41" y1="431.36" x2="583.53" y2="431.5"></line>
  </g>
  <g id="LINE-67" data-name="LINE">
    <line class="cls-7" x1="583.53" y1="431.5" x2="574.71" y2="432"></line>
  </g>
  <g id="LINE-68" data-name="LINE">
    <line class="cls-7" x1="574.71" y1="432" x2="533.86" y2="434.37"></line>
  </g>
  <g id="LINE-69" data-name="LINE">
    <line class="cls-7" x1="533.86" y1="434.37" x2="532.07" y2="434.48"></line>
  </g>
  <g id="LINE-70" data-name="LINE">
    <line class="cls-7" x1="532.07" y1="434.48" x2="531.24" y2="434.78"></line>
  </g>
  <g id="LINE-71" data-name="LINE">
    <line class="cls-7" x1="531.24" y1="434.78" x2="530.49" y2="435.24"></line>
  </g>
  <g id="LINE-72" data-name="LINE">
    <line class="cls-7" x1="530.49" y1="435.24" x2="530.27" y2="435.45"></line>
  </g>
  <g id="LINE-73" data-name="LINE">
    <line class="cls-7" x1="530.27" y1="435.45" x2="530.06" y2="435.65"></line>
  </g>
  <g id="LINE-74" data-name="LINE">
    <line class="cls-7" x1="530.06" y1="435.65" x2="529.7" y2="436.12"></line>
  </g>
  <g id="LINE-75" data-name="LINE">
    <line class="cls-7" x1="529.7" y1="436.12" x2="529.42" y2="436.64"></line>
  </g>
  <g id="LINE-76" data-name="LINE">
    <line class="cls-7" x1="529.42" y1="436.64" x2="529.22" y2="437.2"></line>
  </g>
  <g id="LINE-77" data-name="LINE">
    <line class="cls-7" x1="529.22" y1="437.2" x2="528.48" y2="439.96"></line>
  </g>
  <g id="LINE-78" data-name="LINE">
    <line class="cls-7" x1="588.86" y1="424.29" x2="609.08" y2="424.29"></line>
  </g>
  <g id="LINE-79" data-name="LINE">
    <line class="cls-7" x1="588.86" y1="310.7" x2="609.08" y2="310.7"></line>
  </g>
  <g id="LINE-80" data-name="LINE">
    <line class="cls-7" x1="588.86" y1="425.05" x2="609.08" y2="425.05"></line>
  </g>
  <g id="LINE-81" data-name="LINE">
    <line class="cls-7" x1="609.13" y1="425.05" x2="609.15" y2="425.05"></line>
  </g>
  <g id="LINE-82" data-name="LINE">
    <line class="cls-7" x1="691.35" y1="263.25" x2="691.35" y2="260.5"></line>
  </g>
  <g id="LINE-83" data-name="LINE">
    <line class="cls-7" x1="691.35" y1="260.5" x2="704.07" y2="260.5"></line>
  </g>
  <g id="LINE-84" data-name="LINE">
    <line class="cls-7" x1="704.07" y1="260.5" x2="704.4" y2="260.53"></line>
  </g>
  <g id="LINE-85" data-name="LINE">
    <line class="cls-7" x1="704.4" y1="260.53" x2="705.04" y2="260.7"></line>
  </g>
  <g id="LINE-86" data-name="LINE">
    <line class="cls-7" x1="705.04" y1="260.7" x2="705.64" y2="260.98"></line>
  </g>
  <g id="LINE-87" data-name="LINE">
    <line class="cls-7" x1="705.64" y1="260.98" x2="706.18" y2="261.36"></line>
  </g>
  <g id="LINE-88" data-name="LINE">
    <line class="cls-7" x1="706.18" y1="261.36" x2="709.81" y2="264.42"></line>
  </g>
  <g id="LINE-89" data-name="LINE">
    <line class="cls-7" x1="709.81" y1="264.42" x2="709.81" y2="264.9"></line>
  </g>
  <g id="LINE-90" data-name="LINE">
    <line class="cls-7" x1="709.81" y1="264.9" x2="709.48" y2="265.02"></line>
  </g>
  <g id="LINE-91" data-name="LINE">
    <line class="cls-7" x1="709.48" y1="265.02" x2="709.22" y2="265.11"></line>
  </g>
  <g id="LINE-92" data-name="LINE">
    <line class="cls-7" x1="709.22" y1="265.11" x2="709.03" y2="265.25"></line>
  </g>
  <g id="LINE-93" data-name="LINE">
    <line class="cls-7" x1="709.03" y1="265.25" x2="708.84" y2="265.44"></line>
  </g>
  <g id="LINE-94" data-name="LINE">
    <line class="cls-7" x1="708.84" y1="265.44" x2="708.69" y2="265.63"></line>
  </g>
  <g id="LINE-95" data-name="LINE">
    <line class="cls-7" x1="708.69" y1="265.63" x2="708.63" y2="265.86"></line>
  </g>
  <g id="LINE-96" data-name="LINE">
    <line class="cls-7" x1="708.63" y1="265.86" x2="708.58" y2="266.08"></line>
  </g>
  <g id="LINE-97" data-name="LINE">
    <line class="cls-7" x1="708.58" y1="266.08" x2="708.59" y2="266.24"></line>
  </g>
  <g id="LINE-98" data-name="LINE">
    <line class="cls-7" x1="708.59" y1="266.24" x2="708.52" y2="266.42"></line>
  </g>
  <g id="LINE-99" data-name="LINE">
    <line class="cls-7" x1="708.52" y1="266.42" x2="708.3" y2="266.57"></line>
  </g>
  <g id="LINE-100" data-name="LINE">
    <line class="cls-7" x1="708.3" y1="266.57" x2="708.03" y2="266.53"></line>
  </g>
  <g id="LINE-101" data-name="LINE">
    <line class="cls-7" x1="708.03" y1="266.53" x2="707.71" y2="266.27"></line>
  </g>
  <g id="LINE-102" data-name="LINE">
    <line class="cls-7" x1="707.71" y1="266.27" x2="704.28" y2="263.43"></line>
  </g>
  <g id="LINE-103" data-name="LINE">
    <line class="cls-7" x1="704.28" y1="263.43" x2="704.09" y2="263.33"></line>
  </g>
  <g id="LINE-104" data-name="LINE">
    <line class="cls-7" x1="704.09" y1="263.33" x2="703.87" y2="263.27"></line>
  </g>
  <g id="LINE-105" data-name="LINE">
    <line class="cls-7" x1="703.87" y1="263.27" x2="703.87" y2="263.27"></line>
  </g>
  <g id="LINE-106" data-name="LINE">
    <line class="cls-7" x1="703.87" y1="263.27" x2="691.35" y2="263.25"></line>
  </g>
  <g id="LWPOLYLINE-2" data-name="LWPOLYLINE">
    <rect class="cls-7" x="678.76" y="439.96" width="12.62" height="1.76"></rect>
  </g>
  <g id="LWPOLYLINE-3" data-name="LWPOLYLINE">
    <rect class="cls-7" x="510.5" y="254.16" width="201.93" height="6.31"></rect>
  </g>
  <g id="LINE-107" data-name="LINE">
    <line class="cls-7" x1="607.82" y1="310.7" x2="607.82" y2="292.4"></line>
  </g>
  <g id="LINE-108" data-name="LINE">
    <line class="cls-7" x1="606.56" y1="292.4" x2="606.56" y2="274.1"></line>
  </g>
  <g id="LINE-109" data-name="LINE">
    <line class="cls-7" x1="590.13" y1="310.7" x2="590.13" y2="292.4"></line>
  </g>
  <g id="LINE-110" data-name="LINE">
    <line class="cls-7" x1="591.39" y1="292.4" x2="591.39" y2="274.1"></line>
  </g>
  <g id="LINE-111" data-name="LINE">
    <line class="cls-7" x1="590.13" y1="292.4" x2="607.82" y2="292.4"></line>
  </g>
  <g id="LINE-112" data-name="LINE">
    <line class="cls-7" x1="590.15" y1="424.29" x2="590.15" y2="310.7"></line>
  </g>
  <g id="LINE-113" data-name="LINE">
    <line class="cls-7" x1="607.79" y1="424.29" x2="607.79" y2="310.7"></line>
  </g>
  <g id="LINE-114" data-name="LINE">
    <line class="cls-5" x1="109.28" y1="439.96" x2="131.76" y2="439.96"></line>
  </g>
  <g id="LINE-115" data-name="LINE">
    <line class="cls-5" x1="131.76" y1="439.96" x2="130.34" y2="433.06"></line>
  </g>
  <g id="LINE-116" data-name="LINE">
    <line class="cls-5" x1="130.34" y1="433.06" x2="130.14" y2="432.28"></line>
  </g>
  <g id="LINE-117" data-name="LINE">
    <line class="cls-5" x1="130.14" y1="432.28" x2="129.93" y2="431.85"></line>
  </g>
  <g id="LINE-118" data-name="LINE">
    <line class="cls-5" x1="129.93" y1="431.85" x2="129.68" y2="431.53"></line>
  </g>
  <g id="LINE-119" data-name="LINE">
    <line class="cls-5" x1="129.68" y1="431.53" x2="129.39" y2="431.26"></line>
  </g>
  <g id="LINE-120" data-name="LINE">
    <line class="cls-5" x1="129.39" y1="431.26" x2="129.3" y2="431.19"></line>
  </g>
  <g id="LINE-121" data-name="LINE">
    <line class="cls-5" x1="129.3" y1="431.19" x2="128.44" y2="430.39"></line>
  </g>
  <g id="LINE-122" data-name="LINE">
    <line class="cls-5" x1="128.44" y1="430.39" x2="127.77" y2="429.44"></line>
  </g>
  <g id="LINE-123" data-name="LINE">
    <line class="cls-5" x1="127.77" y1="429.44" x2="127.46" y2="428.61"></line>
  </g>
  <g id="LINE-124" data-name="LINE">
    <line class="cls-5" x1="127.46" y1="428.61" x2="127.1" y2="427.34"></line>
  </g>
  <g id="LINE-125" data-name="LINE">
    <line class="cls-5" x1="127.1" y1="427.34" x2="126.9" y2="425.05"></line>
  </g>
  <g id="LINE-126" data-name="LINE">
    <line class="cls-5" x1="126.9" y1="425.05" x2="126.83" y2="424.29"></line>
  </g>
  <g id="LINE-127" data-name="LINE">
    <line class="cls-5" x1="126.83" y1="424.29" x2="126.83" y2="310.7"></line>
  </g>
  <g id="LINE-128" data-name="LINE">
    <line class="cls-5" x1="125.57" y1="310.7" x2="125.57" y2="292.4"></line>
  </g>
  <g id="LINE-129" data-name="LINE">
    <line class="cls-5" x1="124.31" y1="292.4" x2="124.31" y2="274.1"></line>
  </g>
  <g id="LINE-130" data-name="LINE">
    <line class="cls-5" x1="109.28" y1="439.96" x2="110.7" y2="433.06"></line>
  </g>
  <g id="LINE-131" data-name="LINE">
    <line class="cls-5" x1="110.7" y1="433.06" x2="110.9" y2="432.28"></line>
  </g>
  <g id="LINE-132" data-name="LINE">
    <line class="cls-5" x1="110.9" y1="432.28" x2="111.11" y2="431.85"></line>
  </g>
  <g id="LINE-133" data-name="LINE">
    <line class="cls-5" x1="111.11" y1="431.85" x2="111.35" y2="431.53"></line>
  </g>
  <g id="LINE-134" data-name="LINE">
    <line class="cls-5" x1="111.35" y1="431.53" x2="111.64" y2="431.26"></line>
  </g>
  <g id="LINE-135" data-name="LINE">
    <line class="cls-5" x1="111.64" y1="431.26" x2="111.74" y2="431.19"></line>
  </g>
  <g id="LINE-136" data-name="LINE">
    <line class="cls-5" x1="111.74" y1="431.19" x2="112.59" y2="430.39"></line>
  </g>
  <g id="LINE-137" data-name="LINE">
    <line class="cls-5" x1="112.59" y1="430.39" x2="113.27" y2="429.44"></line>
  </g>
  <g id="LINE-138" data-name="LINE">
    <line class="cls-5" x1="113.27" y1="429.44" x2="113.58" y2="428.61"></line>
  </g>
  <g id="LINE-139" data-name="LINE">
    <line class="cls-5" x1="113.58" y1="428.61" x2="113.94" y2="427.34"></line>
  </g>
  <g id="LINE-140" data-name="LINE">
    <line class="cls-5" x1="113.94" y1="427.34" x2="114.14" y2="425.05"></line>
  </g>
  <g id="LINE-141" data-name="LINE">
    <line class="cls-5" x1="114.14" y1="425.05" x2="114.21" y2="424.29"></line>
  </g>
  <g id="LINE-142" data-name="LINE">
    <line class="cls-5" x1="114.21" y1="424.29" x2="114.21" y2="310.7"></line>
  </g>
  <g id="LINE-143" data-name="LINE">
    <line class="cls-5" x1="115.47" y1="310.7" x2="115.47" y2="292.4"></line>
  </g>
  <g id="LINE-144" data-name="LINE">
    <line class="cls-5" x1="116.73" y1="292.4" x2="116.73" y2="274.1"></line>
  </g>
  <g id="LINE-145" data-name="LINE">
    <line class="cls-5" x1="112.42" y1="274.1" x2="402.69" y2="274.1"></line>
  </g>
  <g id="LINE-146" data-name="LINE">
    <line class="cls-5" x1="112.42" y1="274.1" x2="112.42" y2="261.48"></line>
  </g>
  <g id="LINE-147" data-name="LINE">
    <line class="cls-5" x1="112.42" y1="261.48" x2="112.5" y2="261.1"></line>
  </g>
  <g id="LINE-148" data-name="LINE">
    <line class="cls-5" x1="112.5" y1="261.1" x2="112.72" y2="260.77"></line>
  </g>
  <g id="LINE-149" data-name="LINE">
    <line class="cls-5" x1="112.72" y1="260.77" x2="113.04" y2="260.55"></line>
  </g>
  <g id="LINE-150" data-name="LINE">
    <line class="cls-5" x1="113.04" y1="260.55" x2="113.43" y2="260.47"></line>
  </g>
  <g id="LINE-151" data-name="LINE">
    <line class="cls-5" x1="112.92" y1="274.1" x2="112.92" y2="261.48"></line>
  </g>
  <g id="LINE-152" data-name="LINE">
    <line class="cls-5" x1="112.92" y1="261.48" x2="112.96" y2="261.29"></line>
  </g>
  <g id="LINE-153" data-name="LINE">
    <line class="cls-5" x1="112.96" y1="261.29" x2="113.12" y2="261.11"></line>
  </g>
  <g id="LINE-154" data-name="LINE">
    <line class="cls-5" x1="113.12" y1="261.11" x2="113.27" y2="261"></line>
  </g>
  <g id="LINE-155" data-name="LINE">
    <line class="cls-5" x1="113.27" y1="261" x2="113.33" y2="260.99"></line>
  </g>
  <g id="LINE-156" data-name="LINE">
    <line class="cls-5" x1="113.33" y1="260.99" x2="121.33" y2="260.98"></line>
  </g>
  <g id="LINE-157" data-name="LINE">
    <line class="cls-5" x1="121.33" y1="260.98" x2="121.63" y2="261.08"></line>
  </g>
  <g id="LINE-158" data-name="LINE">
    <line class="cls-5" x1="121.63" y1="261.08" x2="121.76" y2="261.26"></line>
  </g>
  <g id="LINE-159" data-name="LINE">
    <line class="cls-5" x1="121.76" y1="261.26" x2="121.83" y2="261.48"></line>
  </g>
  <g id="LINE-160" data-name="LINE">
    <line class="cls-5" x1="121.83" y1="261.48" x2="121.83" y2="268.8"></line>
  </g>
  <g id="LINE-161" data-name="LINE">
    <line class="cls-5" x1="121.83" y1="268.8" x2="122.34" y2="268.8"></line>
  </g>
  <g id="LINE-162" data-name="LINE">
    <line class="cls-5" x1="122.34" y1="268.8" x2="122.34" y2="261.48"></line>
  </g>
  <g id="LINE-163" data-name="LINE">
    <line class="cls-5" x1="122.34" y1="261.48" x2="122.26" y2="261.11"></line>
  </g>
  <g id="LINE-164" data-name="LINE">
    <line class="cls-5" x1="122.26" y1="261.11" x2="122.17" y2="260.93"></line>
  </g>
  <g id="LINE-165" data-name="LINE">
    <line class="cls-5" x1="122.17" y1="260.93" x2="122.04" y2="260.77"></line>
  </g>
  <g id="LINE-166" data-name="LINE">
    <line class="cls-5" x1="122.04" y1="260.77" x2="121.88" y2="260.64"></line>
  </g>
  <g id="LINE-167" data-name="LINE">
    <line class="cls-5" x1="121.88" y1="260.64" x2="121.72" y2="260.55"></line>
  </g>
  <g id="LINE-168" data-name="LINE">
    <line class="cls-5" x1="121.72" y1="260.55" x2="121.45" y2="260.47"></line>
  </g>
  <g id="LINE-169" data-name="LINE">
    <line class="cls-5" x1="402.69" y1="274.1" x2="402.69" y2="261.48"></line>
  </g>
  <g id="LINE-170" data-name="LINE">
    <line class="cls-5" x1="402.69" y1="261.48" x2="402.61" y2="261.1"></line>
  </g>
  <g id="LINE-171" data-name="LINE">
    <line class="cls-5" x1="402.61" y1="261.1" x2="402.39" y2="260.77"></line>
  </g>
  <g id="LINE-172" data-name="LINE">
    <line class="cls-5" x1="402.39" y1="260.77" x2="402.07" y2="260.55"></line>
  </g>
  <g id="LINE-173" data-name="LINE">
    <line class="cls-5" x1="402.07" y1="260.55" x2="401.68" y2="260.47"></line>
  </g>
  <g id="LINE-174" data-name="LINE">
    <line class="cls-5" x1="402.18" y1="274.1" x2="402.18" y2="261.48"></line>
  </g>
  <g id="LINE-175" data-name="LINE">
    <line class="cls-5" x1="402.18" y1="261.48" x2="402.15" y2="261.29"></line>
  </g>
  <g id="LINE-176" data-name="LINE">
    <line class="cls-5" x1="402.15" y1="261.29" x2="401.99" y2="261.11"></line>
  </g>
  <g id="LINE-177" data-name="LINE">
    <line class="cls-5" x1="401.99" y1="261.11" x2="401.84" y2="261"></line>
  </g>
  <g id="LINE-178" data-name="LINE">
    <line class="cls-5" x1="401.84" y1="261" x2="401.78" y2="260.99"></line>
  </g>
  <g id="LINE-179" data-name="LINE">
    <line class="cls-5" x1="401.78" y1="260.99" x2="393.78" y2="260.98"></line>
  </g>
  <g id="LINE-180" data-name="LINE">
    <line class="cls-5" x1="393.78" y1="260.98" x2="393.48" y2="261.08"></line>
  </g>
  <g id="LINE-181" data-name="LINE">
    <line class="cls-5" x1="393.48" y1="261.08" x2="393.35" y2="261.26"></line>
  </g>
  <g id="LINE-182" data-name="LINE">
    <line class="cls-5" x1="393.35" y1="261.26" x2="393.28" y2="261.48"></line>
  </g>
  <g id="LINE-183" data-name="LINE">
    <line class="cls-5" x1="393.28" y1="261.48" x2="393.28" y2="268.8"></line>
  </g>
  <g id="LINE-184" data-name="LINE">
    <line class="cls-5" x1="393.28" y1="268.8" x2="392.77" y2="268.8"></line>
  </g>
  <g id="LINE-185" data-name="LINE">
    <line class="cls-5" x1="392.77" y1="268.8" x2="392.77" y2="261.48"></line>
  </g>
  <g id="LINE-186" data-name="LINE">
    <line class="cls-5" x1="392.77" y1="261.48" x2="392.84" y2="261.11"></line>
  </g>
  <g id="LINE-187" data-name="LINE">
    <line class="cls-5" x1="392.84" y1="261.11" x2="392.94" y2="260.93"></line>
  </g>
  <g id="LINE-188" data-name="LINE">
    <line class="cls-5" x1="392.94" y1="260.93" x2="393.07" y2="260.77"></line>
  </g>
  <g id="LINE-189" data-name="LINE">
    <line class="cls-5" x1="393.07" y1="260.77" x2="393.23" y2="260.64"></line>
  </g>
  <g id="LINE-190" data-name="LINE">
    <line class="cls-5" x1="393.23" y1="260.64" x2="393.39" y2="260.55"></line>
  </g>
  <g id="LINE-191" data-name="LINE">
    <line class="cls-5" x1="393.39" y1="260.55" x2="393.65" y2="260.47"></line>
  </g>
  <g id="LINE-192" data-name="LINE">
    <line class="cls-5" x1="252.6" y1="266.69" x2="253.1" y2="266.69"></line>
  </g>
  <g id="LINE-193" data-name="LINE">
    <line class="cls-5" x1="253.1" y1="266.69" x2="253.11" y2="261.39"></line>
  </g>
  <g id="LINE-194" data-name="LINE">
    <line class="cls-5" x1="253.11" y1="261.39" x2="253.3" y2="261.11"></line>
  </g>
  <g id="LINE-195" data-name="LINE">
    <line class="cls-5" x1="253.3" y1="261.11" x2="253.42" y2="261.01"></line>
  </g>
  <g id="LINE-196" data-name="LINE">
    <line class="cls-5" x1="253.42" y1="261.01" x2="253.61" y2="260.98"></line>
  </g>
  <g id="LINE-197" data-name="LINE">
    <line class="cls-5" x1="253.61" y1="260.98" x2="261.5" y2="260.98"></line>
  </g>
  <g id="LINE-198" data-name="LINE">
    <line class="cls-5" x1="261.5" y1="260.98" x2="261.78" y2="261.06"></line>
  </g>
  <g id="LINE-199" data-name="LINE">
    <line class="cls-5" x1="261.78" y1="261.06" x2="261.97" y2="261.3"></line>
  </g>
  <g id="LINE-200" data-name="LINE">
    <line class="cls-5" x1="261.97" y1="261.3" x2="262.01" y2="261.49"></line>
  </g>
  <g id="LINE-201" data-name="LINE">
    <line class="cls-5" x1="262.01" y1="261.49" x2="262.01" y2="266.69"></line>
  </g>
  <g id="LINE-202" data-name="LINE">
    <line class="cls-5" x1="262.01" y1="266.69" x2="262.51" y2="266.69"></line>
  </g>
  <g id="LINE-203" data-name="LINE">
    <line class="cls-5" x1="262.51" y1="266.69" x2="262.51" y2="261.48"></line>
  </g>
  <g id="LINE-204" data-name="LINE">
    <line class="cls-5" x1="262.51" y1="261.48" x2="262.44" y2="261.11"></line>
  </g>
  <g id="LINE-205" data-name="LINE">
    <line class="cls-5" x1="262.44" y1="261.11" x2="262.22" y2="260.77"></line>
  </g>
  <g id="LINE-206" data-name="LINE">
    <line class="cls-5" x1="262.22" y1="260.77" x2="261.87" y2="260.54"></line>
  </g>
  <g id="LINE-207" data-name="LINE">
    <line class="cls-5" x1="261.87" y1="260.54" x2="261.69" y2="260.49"></line>
  </g>
  <g id="LINE-208" data-name="LINE">
    <line class="cls-5" x1="261.69" y1="260.49" x2="253.42" y2="260.49"></line>
  </g>
  <g id="LINE-209" data-name="LINE">
    <line class="cls-5" x1="253.42" y1="260.49" x2="253.15" y2="260.6"></line>
  </g>
  <g id="LINE-210" data-name="LINE">
    <line class="cls-5" x1="253.15" y1="260.6" x2="252.89" y2="260.77"></line>
  </g>
  <g id="LINE-211" data-name="LINE">
    <line class="cls-5" x1="252.89" y1="260.77" x2="252.67" y2="261.11"></line>
  </g>
  <g id="LINE-212" data-name="LINE">
    <line class="cls-5" x1="252.67" y1="261.11" x2="252.6" y2="261.49"></line>
  </g>
  <g id="LINE-213" data-name="LINE">
    <line class="cls-5" x1="252.6" y1="261.49" x2="252.6" y2="266.69"></line>
  </g>
  <g id="LWPOLYLINE-4" data-name="LWPOLYLINE">
    <rect class="cls-5" x="114.21" y="439.96" width="12.62" height="1.76"></rect>
  </g>
  <g id="LINE-214" data-name="LINE">
    <line class="cls-5" x1="114.19" y1="424.29" x2="126.83" y2="424.29"></line>
  </g>
  <g id="LINE-215" data-name="LINE">
    <line class="cls-5" x1="114.14" y1="425.05" x2="126.9" y2="425.05"></line>
  </g>
  <g id="LINE-216" data-name="LINE">
    <line class="cls-5" x1="366.72" y1="260.47" x2="366.72" y2="263.25"></line>
  </g>
  <g id="LINE-217" data-name="LINE">
    <line class="cls-5" x1="366.72" y1="263.25" x2="366.97" y2="263.62"></line>
  </g>
  <g id="LINE-218" data-name="LINE">
    <line class="cls-5" x1="366.97" y1="263.62" x2="367.07" y2="263.74"></line>
  </g>
  <g id="LINE-219" data-name="LINE">
    <line class="cls-5" x1="367.07" y1="263.74" x2="367.35" y2="263.96"></line>
  </g>
  <g id="LINE-220" data-name="LINE">
    <line class="cls-5" x1="367.35" y1="263.96" x2="367.69" y2="264.14"></line>
  </g>
  <g id="LINE-221" data-name="LINE">
    <line class="cls-5" x1="367.69" y1="264.14" x2="368.08" y2="264.27"></line>
  </g>
  <g id="LINE-222" data-name="LINE">
    <line class="cls-5" x1="368.08" y1="264.27" x2="368.48" y2="264.34"></line>
  </g>
  <g id="LINE-223" data-name="LINE">
    <line class="cls-5" x1="368.48" y1="264.34" x2="381.62" y2="264.34"></line>
  </g>
  <g id="LINE-224" data-name="LINE">
    <line class="cls-5" x1="381.62" y1="264.34" x2="382.22" y2="264.21"></line>
  </g>
  <g id="LINE-225" data-name="LINE">
    <line class="cls-5" x1="382.22" y1="264.21" x2="382.75" y2="263.96"></line>
  </g>
  <g id="LINE-226" data-name="LINE">
    <line class="cls-5" x1="382.75" y1="263.96" x2="383.03" y2="263.74"></line>
  </g>
  <g id="LINE-227" data-name="LINE">
    <line class="cls-5" x1="383.03" y1="263.74" x2="383.34" y2="263.24"></line>
  </g>
  <g id="LINE-228" data-name="LINE">
    <line class="cls-5" x1="383.34" y1="263.24" x2="383.34" y2="260.47"></line>
  </g>
  <g id="LINE-229" data-name="LINE">
    <line class="cls-5" x1="366.34" y1="260.47" x2="366.34" y2="264.82"></line>
  </g>
  <g id="LINE-230" data-name="LINE">
    <line class="cls-5" x1="366.34" y1="264.82" x2="366.39" y2="265.12"></line>
  </g>
  <g id="LINE-231" data-name="LINE">
    <line class="cls-5" x1="366.39" y1="265.12" x2="366.53" y2="265.47"></line>
  </g>
  <g id="LINE-232" data-name="LINE">
    <line class="cls-5" x1="366.53" y1="265.47" x2="366.81" y2="265.85"></line>
  </g>
  <g id="LINE-233" data-name="LINE">
    <line class="cls-5" x1="366.81" y1="265.85" x2="367.13" y2="266.1"></line>
  </g>
  <g id="LINE-234" data-name="LINE">
    <line class="cls-5" x1="367.13" y1="266.1" x2="367.55" y2="266.33"></line>
  </g>
  <g id="LINE-235" data-name="LINE">
    <line class="cls-5" x1="367.55" y1="266.33" x2="367.98" y2="266.47"></line>
  </g>
  <g id="LINE-236" data-name="LINE">
    <line class="cls-5" x1="367.98" y1="266.47" x2="368.87" y2="266.58"></line>
  </g>
  <g id="LINE-237" data-name="LINE">
    <line class="cls-5" x1="368.87" y1="266.58" x2="381.23" y2="266.58"></line>
  </g>
  <g id="LINE-238" data-name="LINE">
    <line class="cls-5" x1="381.23" y1="266.58" x2="382.12" y2="266.47"></line>
  </g>
  <g id="LINE-239" data-name="LINE">
    <line class="cls-5" x1="382.12" y1="266.47" x2="382.56" y2="266.33"></line>
  </g>
  <g id="LINE-240" data-name="LINE">
    <line class="cls-5" x1="382.56" y1="266.33" x2="382.94" y2="266.13"></line>
  </g>
  <g id="LINE-241" data-name="LINE">
    <line class="cls-5" x1="382.94" y1="266.13" x2="383.3" y2="265.85"></line>
  </g>
  <g id="LINE-242" data-name="LINE">
    <line class="cls-5" x1="383.3" y1="265.85" x2="383.58" y2="265.47"></line>
  </g>
  <g id="LINE-243" data-name="LINE">
    <line class="cls-5" x1="383.58" y1="265.47" x2="383.72" y2="265.12"></line>
  </g>
  <g id="LINE-244" data-name="LINE">
    <line class="cls-5" x1="383.72" y1="265.12" x2="383.76" y2="264.73"></line>
  </g>
  <g id="LINE-245" data-name="LINE">
    <line class="cls-5" x1="383.76" y1="264.73" x2="383.76" y2="260.47"></line>
  </g>
  <g id="LWPOLYLINE-5" data-name="LWPOLYLINE">
    <rect class="cls-5" x="369.51" y="264.72" width="3.36" height="1.86"></rect>
  </g>
  <g id="LWPOLYLINE-6" data-name="LWPOLYLINE">
    <rect class="cls-5" x="373.38" y="264.72" width="3.36" height="1.86"></rect>
  </g>
  <g id="LWPOLYLINE-7" data-name="LWPOLYLINE">
    <rect class="cls-5" x="377.25" y="264.72" width="3.36" height="1.86"></rect>
  </g>
  <g id="LWPOLYLINE-8" data-name="LWPOLYLINE">
    <rect class="cls-5" x="106.11" y="254.16" width="302.89" height="6.31"></rect>
  </g>
  <g id="LINE-246" data-name="LINE">
    <line class="cls-5" x1="114.21" y1="310.7" x2="126.83" y2="310.7"></line>
  </g>
  <g id="LINE-247" data-name="LINE">
    <line class="cls-5" x1="405.83" y1="439.96" x2="383.35" y2="439.96"></line>
  </g>
  <g id="LINE-248" data-name="LINE">
    <line class="cls-5" x1="383.35" y1="439.96" x2="384.77" y2="433.06"></line>
  </g>
  <g id="LINE-249" data-name="LINE">
    <line class="cls-5" x1="384.77" y1="433.06" x2="384.97" y2="432.28"></line>
  </g>
  <g id="LINE-250" data-name="LINE">
    <line class="cls-5" x1="384.97" y1="432.28" x2="385.18" y2="431.85"></line>
  </g>
  <g id="LINE-251" data-name="LINE">
    <line class="cls-5" x1="385.18" y1="431.85" x2="385.43" y2="431.53"></line>
  </g>
  <g id="LINE-252" data-name="LINE">
    <line class="cls-5" x1="385.43" y1="431.53" x2="385.71" y2="431.26"></line>
  </g>
  <g id="LINE-253" data-name="LINE">
    <line class="cls-5" x1="385.71" y1="431.26" x2="385.81" y2="431.19"></line>
  </g>
  <g id="LINE-254" data-name="LINE">
    <line class="cls-5" x1="385.81" y1="431.19" x2="386.67" y2="430.39"></line>
  </g>
  <g id="LINE-255" data-name="LINE">
    <line class="cls-5" x1="386.67" y1="430.39" x2="387.34" y2="429.44"></line>
  </g>
  <g id="LINE-256" data-name="LINE">
    <line class="cls-5" x1="387.34" y1="429.44" x2="387.65" y2="428.61"></line>
  </g>
  <g id="LINE-257" data-name="LINE">
    <line class="cls-5" x1="387.65" y1="428.61" x2="388.01" y2="427.34"></line>
  </g>
  <g id="LINE-258" data-name="LINE">
    <line class="cls-5" x1="388.01" y1="427.34" x2="388.21" y2="425.05"></line>
  </g>
  <g id="LINE-259" data-name="LINE">
    <line class="cls-5" x1="388.21" y1="425.05" x2="388.28" y2="424.29"></line>
  </g>
  <g id="LINE-260" data-name="LINE">
    <line class="cls-5" x1="388.28" y1="424.29" x2="388.28" y2="310.7"></line>
  </g>
  <g id="LINE-261" data-name="LINE">
    <line class="cls-5" x1="405.83" y1="439.96" x2="404.41" y2="433.06"></line>
  </g>
  <g id="LINE-262" data-name="LINE">
    <line class="cls-5" x1="404.41" y1="433.06" x2="404.21" y2="432.28"></line>
  </g>
  <g id="LINE-263" data-name="LINE">
    <line class="cls-5" x1="404.21" y1="432.28" x2="404" y2="431.85"></line>
  </g>
  <g id="LINE-264" data-name="LINE">
    <line class="cls-5" x1="404" y1="431.85" x2="403.76" y2="431.53"></line>
  </g>
  <g id="LINE-265" data-name="LINE">
    <line class="cls-5" x1="403.76" y1="431.53" x2="403.47" y2="431.26"></line>
  </g>
  <g id="LINE-266" data-name="LINE">
    <line class="cls-5" x1="403.47" y1="431.26" x2="403.37" y2="431.19"></line>
  </g>
  <g id="LINE-267" data-name="LINE">
    <line class="cls-5" x1="403.37" y1="431.19" x2="402.51" y2="430.39"></line>
  </g>
  <g id="LINE-268" data-name="LINE">
    <line class="cls-5" x1="402.51" y1="430.39" x2="401.84" y2="429.44"></line>
  </g>
  <g id="LINE-269" data-name="LINE">
    <line class="cls-5" x1="401.84" y1="429.44" x2="401.53" y2="428.61"></line>
  </g>
  <g id="LINE-270" data-name="LINE">
    <line class="cls-5" x1="401.53" y1="428.61" x2="401.17" y2="427.34"></line>
  </g>
  <g id="LINE-271" data-name="LINE">
    <line class="cls-5" x1="401.17" y1="427.34" x2="400.97" y2="425.05"></line>
  </g>
  <g id="LINE-272" data-name="LINE">
    <line class="cls-5" x1="400.97" y1="425.05" x2="400.9" y2="424.29"></line>
  </g>
  <g id="LINE-273" data-name="LINE">
    <line class="cls-5" x1="400.9" y1="424.29" x2="400.9" y2="310.7"></line>
  </g>
  <g id="LWPOLYLINE-9" data-name="LWPOLYLINE">
    <rect class="cls-5" x="388.28" y="439.96" width="12.62" height="1.76"></rect>
  </g>
  <g id="LINE-274" data-name="LINE">
    <line class="cls-5" x1="400.92" y1="424.29" x2="388.28" y2="424.29"></line>
  </g>
  <g id="LINE-275" data-name="LINE">
    <line class="cls-5" x1="400.97" y1="425.05" x2="388.21" y2="425.05"></line>
  </g>
  <g id="LINE-276" data-name="LINE">
    <line class="cls-5" x1="400.9" y1="310.7" x2="388.28" y2="310.7"></line>
  </g>
  <g id="LINE-277" data-name="LINE">
    <line class="cls-5" x1="115.47" y1="292.4" x2="125.57" y2="292.4"></line>
  </g>
  <g id="LINE-278" data-name="LINE">
    <line class="cls-5" x1="399.64" y1="310.7" x2="399.64" y2="292.4"></line>
  </g>
  <g id="LINE-279" data-name="LINE">
    <line class="cls-5" x1="398.38" y1="292.4" x2="398.38" y2="274.1"></line>
  </g>
  <g id="LINE-280" data-name="LINE">
    <line class="cls-5" x1="389.54" y1="310.7" x2="389.54" y2="292.4"></line>
  </g>
  <g id="LINE-281" data-name="LINE">
    <line class="cls-5" x1="390.8" y1="292.4" x2="390.8" y2="274.1"></line>
  </g>
  <g id="LINE-282" data-name="LINE">
    <line class="cls-5" x1="389.54" y1="292.4" x2="399.64" y2="292.4"></line>
  </g>
  <g id="LINE-283" data-name="LINE">
    <line class="cls-5" x1="115.49" y1="424.29" x2="115.49" y2="310.7"></line>
  </g>
  <g id="LINE-284" data-name="LINE">
    <line class="cls-5" x1="125.54" y1="424.29" x2="125.54" y2="310.7"></line>
  </g>
  <g id="LINE-285" data-name="LINE">
    <line class="cls-5" x1="389.56" y1="424.29" x2="389.56" y2="310.7"></line>
  </g>
  <g id="LINE-286" data-name="LINE">
    <line class="cls-5" x1="399.62" y1="424.29" x2="399.62" y2="310.7"></line>
  </g>
  <line class="cls-6" x1="488.13" y1="254.05" x2="488.13" y2="441.63"></line>
  <text class="cls-4" transform="translate(478.69 384.42) rotate(-90)">
    <tspan class="cls-8" x="0" y="0">6</tspan>
    <tspan x="6.5" y="0">90</tspan>
    <tspan class="cls-10" x="20.46" y="0">-</tspan>
    <tspan x="24.79" y="0">1200</tspan>
  </text>
  <line class="cls-6" x1="690.2" y1="452.67" x2="488.27" y2="452.67"></line>
  <line class="cls-6" x1="404.83" y1="452.67" x2="101.94" y2="452.67"></line>
  <text class="cls-4" transform="translate(202.03 473.26) scale(.94 1)">
    <tspan x="0" y="0">1200</tspan>
    <tspan class="cls-9" x="25.69" y="0">-</tspan>
    <tspan class="cls-1" x="30.02" y="0">1400</tspan>
    <tspan class="cls-9" x="56.02" y="0">-</tspan>
    <tspan class="cls-1" x="60.35" y="0">1600</tspan>
    <tspan class="cls-2" x="85.97" y="0">-</tspan>
    <tspan x="90.3" y="0">1800</tspan>
  </text>
  <text class="cls-3" transform="translate(579.61 473.43)">
    <tspan x="0" y="0">800 mm</tspan>
  </text>
</svg>
