<?xml version="1.0" encoding="UTF-8"?>
<svg xmlns="http://www.w3.org/2000/svg" id="katman_2" data-name="katman 2" viewBox="0 0 276.05 154.15">
  <defs>
    <style>
      .cls-1 {
        stroke: #000;
        stroke-linecap: round;
        stroke-linejoin: round;
        stroke-width: 5px;
      }

      .cls-1, .cls-2 {
        fill: none;
      }

      .cls-2 {
        stroke-width: 0px;
      }
    </style>
  </defs>
  <g id="katman_1" data-name="katman 1">
    <rect class="cls-2" width="276.05" height="153.38"></rect>
    <g>
      <path class="cls-1" d="m107.21,36.7c-14.81-3.04-22.92,9.57-19.51,24.45,1.66,7.24,4.46,14.26,5.69,21.56,2.42,14.37-11.57,22.82-23.32,18.47-5.44-2.01-10.47-5.12-15.69-7.73"></path>
      <path class="cls-1" d="m111.12,119.85c22.83,2.28,45.66,4.57,68.48,6.85"></path>
      <path class="cls-1" d="m179.6,67.02c-22.83-2.28-45.66-4.57-68.48-6.85"></path>
      <path class="cls-1" d="m111.12,74.85c22.83,2.28,45.66,4.57,68.48,6.85"></path>
      <path class="cls-1" d="m179.6,97.35c-17.28-1.96-34.57-3.91-51.85-5.87-5.55-.63-11.09-1.3-16.63-1.95"></path>
      <path class="cls-1" d="m179.6,52.35c-22.83-2.61-45.66-5.22-68.48-7.83"></path>
      <path class="cls-1" d="m111.12,29.85c22.83,2.28,45.66,4.57,68.48,6.85"></path>
      <path class="cls-1" d="m179.6,112.03c-22.83-2.28-45.66-4.57-68.48-6.85"></path>
      <path class="cls-1" d="m162.97,136.49v15.16h-34.24v-15.16"></path>
      <path class="cls-1" d="m162.97,20.06V3.92h-34.24v16.14"></path>
      <path class="cls-1" d="m161.99,134.53h-52.83c0-25.1-.1-48.26.04-71.42.07-11.09,1.58-22.27.53-33.23-.54-5.62,1.29-7.65,5.3-7.71,21.52-.32,43.05-.15,65.55-.15v111.14c-5.09.68-11.35,1.51-17.61,2.34"></path>
    </g>
  </g>
</svg>
