<?xml version="1.0" encoding="UTF-8"?>
<svg xmlns="http://www.w3.org/2000/svg" width="107" height="107" viewBox="0 0 107 107" fill="none">
  <path fill-rule="evenodd" clip-rule="evenodd" d="M23.5518 53.4949C23.5526 46.7709 25.8161 40.2428 29.978 34.9616C34.1398 29.6804 39.9579 25.9535 46.4953 24.3808C53.0328 22.808 59.9093 23.4811 66.0178 26.2916C72.1263 29.102 77.1112 33.8863 80.1701 39.8743C83.229 45.8622 84.1838 52.7053 82.8808 59.3018C81.5778 65.8984 78.0928 71.8645 72.987 76.2397C67.8811 80.6149 61.4515 83.1445 54.7332 83.4213C48.0149 83.6982 41.3989 81.7061 35.9504 77.7659C35.2359 77.2482 35.0263 76.0289 35.9418 75.1133L43.6428 67.4123C46.5269 69.5701 50.0921 70.616 53.6848 70.3582C57.2775 70.1005 60.6569 68.5564 63.2034 66.009L69.253 59.9552C69.654 59.554 69.8793 59.01 69.8793 58.4428C69.8793 57.8755 69.654 57.3315 69.253 56.9304L66.2282 53.9056L72.8981 47.2185C73.1021 47.0209 73.2647 46.7846 73.3765 46.5235C73.4882 46.2624 73.5468 45.9816 73.5488 45.6976C73.5509 45.4135 73.4964 45.1319 73.3884 44.8692C73.2805 44.6065 73.1213 44.3679 72.9202 44.1673C72.7191 43.9667 72.48 43.8082 72.217 43.7011C71.954 43.5939 71.6722 43.5401 71.3882 43.543C71.1042 43.5459 70.8235 43.6053 70.5627 43.7177C70.3019 43.8302 70.0661 43.9935 69.869 44.198L63.1991 50.8808L57.1495 44.8312L63.8237 38.1485C64.0358 37.953 64.2061 37.7167 64.3245 37.4538C64.4429 37.1908 64.5069 36.9066 64.5127 36.6183C64.5185 36.33 64.4659 36.0435 64.3581 35.776C64.2503 35.5085 64.0896 35.2656 63.8855 35.0618C63.6814 34.8581 63.4383 34.6977 63.1707 34.5903C62.903 34.4829 62.6165 34.4307 62.3281 34.4369C62.0398 34.443 61.7557 34.5074 61.493 34.6262C61.2302 34.745 60.9941 34.9157 60.799 35.128L54.1248 41.8022L51.1 38.7817C50.6988 38.3806 50.1548 38.1553 49.5876 38.1553C49.0204 38.1553 48.4763 38.3806 48.0752 38.7817L42.0256 44.8312C39.4794 47.3775 37.936 50.7561 37.6783 54.3478C37.4205 57.9395 38.4657 61.5038 40.6223 64.3875L32.9213 72.0885C30.4399 74.57 30.2688 78.9339 33.439 81.2313C39.6653 85.7355 47.2263 88.0133 54.9046 87.698C62.5828 87.3827 69.9316 84.4926 75.7676 79.493C81.6036 74.4934 85.5873 67.6753 87.0773 60.1364C88.5673 52.5975 87.4769 44.7765 83.9816 37.9327C80.4863 31.0888 74.7896 25.6204 67.8086 22.4078C60.8276 19.1952 52.9685 18.4254 45.4969 20.2223C38.0252 22.0193 31.3756 26.2784 26.6188 32.3139C21.8619 38.3494 19.2746 45.8101 19.2734 53.4949C19.2734 54.0622 19.4988 54.6063 19.9 55.0075C20.3012 55.4087 20.8453 55.634 21.4126 55.634C21.9799 55.634 22.5241 55.4087 22.9252 55.0075C23.3264 54.6063 23.5518 54.0622 23.5518 53.4949Z" fill="white"></path>
  <path fill-rule="evenodd" clip-rule="evenodd" d="M51.36 2.14V6.42C51.36 6.98756 51.5855 7.53188 51.9868 7.93321C52.3881 8.33454 52.9324 8.56 53.5 8.56C54.0676 8.56 54.6119 8.33454 55.0132 7.93321C55.4145 7.53188 55.64 6.98756 55.64 6.42V2.14C55.64 1.57244 55.4145 1.02812 55.0132 0.626792C54.6119 0.225464 54.0676 0 53.5 0C52.9324 0 52.3881 0.225464 51.9868 0.626792C51.5855 1.02812 51.36 1.57244 51.36 2.14ZM19.26 21.4012C18.6921 21.4012 18.1475 21.1756 17.746 20.7741L13.466 16.4941C13.0644 16.0925 12.8388 15.5479 12.8388 14.98C12.8388 14.4121 13.0644 13.8675 13.466 13.466C13.8675 13.0644 14.4121 12.8388 14.98 12.8388C15.5479 12.8388 16.0925 13.0644 16.4941 13.466L20.7741 17.746C21.1756 18.1475 21.4012 18.6921 21.4012 19.26C21.4012 19.8279 21.1756 20.3725 20.7741 20.7741C20.3725 21.1756 19.8279 21.4012 19.26 21.4012ZM13.466 90.506L17.746 86.226C18.1475 85.8244 18.6921 85.5988 19.26 85.5988C19.8279 85.5988 20.3725 85.8244 20.7741 86.226C21.1756 86.6275 21.4012 87.1721 21.4012 87.74C21.4012 88.3079 21.1756 88.8525 20.7741 89.2541L16.4941 93.5341C16.0925 93.9356 15.5479 94.1612 14.98 94.1612C14.4121 94.1612 13.8675 93.9356 13.466 93.5341C13.0644 93.1325 12.8388 92.5879 12.8388 92.02C12.8388 91.4521 13.0644 90.9075 13.466 90.506ZM86.226 17.746L90.506 13.466C90.7048 13.2671 90.9408 13.1094 91.2006 13.0018C91.4604 12.8942 91.7388 12.8388 92.02 12.8388C92.3012 12.8388 92.5796 12.8942 92.8394 13.0018C93.0992 13.1094 93.3352 13.2671 93.5341 13.466C93.7329 13.6648 93.8906 13.9008 93.9982 14.1606C94.1058 14.4204 94.1612 14.6988 94.1612 14.98C94.1612 15.2612 94.1058 15.5396 93.9982 15.7994C93.8906 16.0592 93.7329 16.2952 93.5341 16.4941L89.2541 20.7741C88.8525 21.1756 88.3079 21.4012 87.74 21.4012C87.1721 21.4012 86.6275 21.1756 86.226 20.7741C85.8244 20.3725 85.5988 19.8279 85.5988 19.26C85.5988 18.6921 85.8244 18.1475 86.226 17.746ZM87.74 85.5988C88.3079 85.5988 88.8525 85.8244 89.2541 86.226L93.5341 90.506C93.9356 90.9075 94.1612 91.4521 94.1612 92.02C94.1612 92.5879 93.9356 93.1325 93.5341 93.5341C93.1325 93.9356 92.5879 94.1612 92.02 94.1612C91.4521 94.1612 90.9075 93.9356 90.506 93.5341L86.226 89.2541C85.8244 88.8525 85.5988 88.3079 85.5988 87.74C85.5988 87.1721 85.8244 86.6275 86.226 86.226C86.6275 85.8244 87.1721 85.5988 87.74 85.5988ZM2.14 51.36H6.42C6.98756 51.36 7.53188 51.5855 7.93321 51.9868C8.33454 52.3881 8.56 52.9324 8.56 53.5C8.56 54.0676 8.33454 54.6119 7.93321 55.0132C7.53188 55.4145 6.98756 55.64 6.42 55.64H2.14C1.57244 55.64 1.02812 55.4145 0.626792 55.0132C0.225464 54.6119 0 54.0676 0 53.5C0 52.9324 0.225464 52.3881 0.626792 51.9868C1.02812 51.5855 1.57244 51.36 2.14 51.36ZM51.9868 99.0668C52.3881 98.6655 52.9324 98.44 53.5 98.44C54.0676 98.44 54.6119 98.6655 55.0132 99.0668C55.4145 99.4681 55.64 100.012 55.64 100.58V104.86C55.64 105.428 55.4145 105.972 55.0132 106.373C54.6119 106.775 54.0676 107 53.5 107C52.9324 107 52.3881 106.775 51.9868 106.373C51.5855 105.972 51.36 105.428 51.36 104.86V100.58C51.36 100.012 51.5855 99.4681 51.9868 99.0668ZM100.58 51.36H104.86C105.428 51.36 105.972 51.5855 106.373 51.9868C106.775 52.3881 107 52.9324 107 53.5C107 54.0676 106.775 54.6119 106.373 55.0132C105.972 55.4145 105.428 55.64 104.86 55.64H100.58C100.012 55.64 99.4681 55.4145 99.0668 55.0132C98.6655 54.6119 98.44 54.0676 98.44 53.5C98.44 52.9324 98.6655 52.3881 99.0668 51.9868C99.4681 51.5855 100.012 51.36 100.58 51.36Z" fill="white"></path>
</svg>
